<?xml version='1.0' encoding='utf-8'?>
<svg xmlns="http://www.w3.org/2000/svg" xmlns:ns1="http://sodipodi.sourceforge.net/DTD/sodipodi-0.dtd" xmlns:ns2="http://www.inkscape.org/namespaces/inkscape" viewBox="0 0 158.75 119.0625" version="1.1" id="svg1" ns1:docname="A-Apple.svg" ns2:version="1.4.2 (f4327f4, 2025-05-13)" xml:space="preserve"><ns1:namedview id="namedview1" pagecolor="#ffffff" bordercolor="#000000" borderopacity="0.25" ns2:showpageshadow="2" ns2:pageopacity="0.0" ns2:pagecheckerboard="0" ns2:deskcolor="#d1d1d1" ns2:zoom="3.161553" ns2:cx="55.826994" ns2:cy="55.194394" ns2:window-width="1366" ns2:window-height="705" ns2:window-x="-8" ns2:window-y="-8" ns2:window-maximized="1" ns2:current-layer="svg1" /><defs id="defs1"><rect x="-34.793027" y="89.829271" width="65.790448" height="16.447613" id="rect3" /><rect x="14.549811" y="36.058228" width="60.729648" height="58.515546" id="rect2" /><clipPath clipPathUnits="userSpaceOnUse" id="clipPath3"><path d="M 0,500 H 500 V 0 H 0 Z" transform="translate(-432.53711,-135.74711)" id="path3" /></clipPath><clipPath clipPathUnits="userSpaceOnUse" id="clipPath5"><path d="M 0,500 H 500 V 0 H 0 Z" transform="translate(-151.34181,-199.4336)" id="path5" /></clipPath><clipPath clipPathUnits="userSpaceOnUse" id="clipPath7"><path d="M 0,500 H 500 V 0 H 0 Z" transform="translate(-151.34181,-199.4336)" id="path7" /></clipPath><clipPath clipPathUnits="userSpaceOnUse" id="clipPath9"><path d="M 0,500 H 500 V 0 H 0 Z" transform="translate(-182.0161,-196.83011)" id="path9" /></clipPath><clipPath clipPathUnits="userSpaceOnUse" id="clipPath11"><path d="M 0,500 H 500 V 0 H 0 Z" transform="translate(-270.2578,-262.13381)" id="path11" /></clipPath><clipPath clipPathUnits="userSpaceOnUse" id="clipPath13"><path d="M 0,500 H 500 V 0 H 0 Z" transform="translate(-270.2578,-262.13381)" id="path13" /></clipPath><clipPath clipPathUnits="userSpaceOnUse" id="clipPath15"><path d="M 0,500 H 500 V 0 H 0 Z" transform="translate(-270.73731,-316.68121)" id="path15" /></clipPath><clipPath clipPathUnits="userSpaceOnUse" id="clipPath17"><path d="M 0,500 H 500 V 0 H 0 Z" transform="translate(-243.895,-297.82131)" id="path17" /></clipPath><clipPath clipPathUnits="userSpaceOnUse" id="clipPath19"><path d="M 0,500 H 500 V 0 H 0 Z" transform="translate(-243.895,-297.82131)" id="path19" /></clipPath><clipPath clipPathUnits="userSpaceOnUse" id="clipPath21"><path d="M 0,500 H 500 V 0 H 0 Z" transform="translate(-227.96341,-327.47461)" id="path21" /></clipPath><clipPath clipPathUnits="userSpaceOnUse" id="clipPath23"><path d="M 0,500 H 500 V 0 H 0 Z" transform="translate(-150.6709,-325.02691)" id="path23" /></clipPath><clipPath clipPathUnits="userSpaceOnUse" id="clipPath25"><path d="M 0,500 H 500 V 0 H 0 Z" transform="translate(-150.6709,-325.02691)" id="path25" /></clipPath><clipPath clipPathUnits="userSpaceOnUse" id="clipPath27"><path d="M 0,500 H 500 V 0 H 0 Z" transform="translate(-115.0161,-334.36131)" id="path27" /></clipPath><clipPath clipPathUnits="userSpaceOnUse" id="clipPath29"><path d="M 0,500 H 500 V 0 H 0 Z" transform="translate(-104.1924,-244.44141)" id="path29" /></clipPath><clipPath clipPathUnits="userSpaceOnUse" id="clipPath31"><path d="M 0,500 H 500 V 0 H 0 Z" transform="translate(-104.1924,-244.44141)" id="path31" /></clipPath><clipPath clipPathUnits="userSpaceOnUse" id="clipPath33"><path d="M 0,500 H 500 V 0 H 0 Z" transform="translate(-79.019004,-177.8154)" id="path33" /></clipPath><clipPath clipPathUnits="userSpaceOnUse" id="clipPath35"><path d="M 0,500 H 500 V 0 H 0 Z" transform="translate(-105.8481,-187.5293)" id="path35" /></clipPath><clipPath clipPathUnits="userSpaceOnUse" id="clipPath37"><path d="M 0,500 H 500 V 0 H 0 Z" transform="translate(-120.3486,-245.5713)" id="path37" /></clipPath><clipPath clipPathUnits="userSpaceOnUse" id="clipPath39"><path d="M 0,500 H 500 V 0 H 0 Z" transform="translate(-43.031301,-294.82521)" id="path39" /></clipPath><clipPath clipPathUnits="userSpaceOnUse" id="clipPath41"><path d="M 0,500 H 500 V 0 H 0 Z" transform="translate(-140.2095,-138.87791)" id="path41" /></clipPath><clipPath clipPathUnits="userSpaceOnUse" id="clipPath43"><path d="M 0,500 H 500 V 0 H 0 Z" transform="translate(-140.2095,-138.87791)" id="path43" /></clipPath><clipPath clipPathUnits="userSpaceOnUse" id="clipPath45"><path d="M 0,500 H 500 V 0 H 0 Z" transform="translate(-131.71041,-136.21781)" id="path45" /></clipPath><clipPath clipPathUnits="userSpaceOnUse" id="clipPath47"><path d="M 0,500 H 500 V 0 H 0 Z" transform="translate(-95.863802,-329.88091)" id="path47" /></clipPath><clipPath clipPathUnits="userSpaceOnUse" id="clipPath49"><path d="M 0,500 H 500 V 0 H 0 Z" transform="translate(-99.722702,-346.67581)" id="path49" /></clipPath><clipPath clipPathUnits="userSpaceOnUse" id="clipPath51"><path d="M 0,500 H 500 V 0 H 0 Z" transform="translate(-99.596702,-349.59371)" id="path51" /></clipPath><clipPath clipPathUnits="userSpaceOnUse" id="clipPath53"><path d="M 0,500 H 500 V 0 H 0 Z" transform="translate(-75.429699,-348.79931)" id="path53" /></clipPath><clipPath clipPathUnits="userSpaceOnUse" id="clipPath55"><path d="M 0,500 H 500 V 0 H 0 Z" transform="translate(-52.736801,-378.31591)" id="path55" /></clipPath><clipPath clipPathUnits="userSpaceOnUse" id="clipPath57"><path d="M 0,500 H 500 V 0 H 0 Z" transform="translate(-71.700202,-397.00241)" id="path57" /></clipPath><clipPath clipPathUnits="userSpaceOnUse" id="clipPath59"><path d="M 0,500 H 500 V 0 H 0 Z" transform="translate(-49.381801,-362.78271)" id="path59" /></clipPath><clipPath clipPathUnits="userSpaceOnUse" id="clipPath61"><path d="M 0,500 H 500 V 0 H 0 Z" transform="translate(-75.429699,-348.79931)" id="path61" /></clipPath><clipPath clipPathUnits="userSpaceOnUse" id="clipPath63"><path d="M 0,500 H 500 V 0 H 0 Z" transform="translate(-52.736801,-378.31591)" id="path63" /></clipPath><clipPath clipPathUnits="userSpaceOnUse" id="clipPath65"><path d="M 0,500 H 500 V 0 H 0 Z" transform="translate(-87.7402,-374.77391)" id="path65" /></clipPath><clipPath clipPathUnits="userSpaceOnUse" id="clipPath67"><path d="M 0,500 H 500 V 0 H 0 Z" transform="translate(-90.202105,-372.51071)" id="path67" /></clipPath><clipPath clipPathUnits="userSpaceOnUse" id="clipPath69"><path d="M 0,500 H 500 V 0 H 0 Z" transform="translate(-43.860801,-338.97661)" id="path69" /></clipPath><clipPath clipPathUnits="userSpaceOnUse" id="clipPath71"><path d="M 0,500 H 500 V 0 H 0 Z" transform="translate(-62.706502,-345.08251)" id="path71" /></clipPath><clipPath clipPathUnits="userSpaceOnUse" id="clipPath73"><path d="M 0,500 H 500 V 0 H 0 Z" transform="translate(-32.944801,-364.06201)" id="path73" /></clipPath><clipPath clipPathUnits="userSpaceOnUse" id="clipPath75"><path d="M 0,500 H 500 V 0 H 0 Z" transform="translate(-32.363801,-386.02201)" id="path75" /></clipPath><clipPath clipPathUnits="userSpaceOnUse" id="clipPath77"><path d="M 0,500 H 500 V 0 H 0 Z" transform="translate(-42.559601,-382.52731)" id="path77" /></clipPath><clipPath clipPathUnits="userSpaceOnUse" id="clipPath79"><path d="M 0,500 H 500 V 0 H 0 Z" transform="translate(-72.010702,-416.37261)" id="path79" /></clipPath><clipPath clipPathUnits="userSpaceOnUse" id="clipPath81"><path d="M 0,500 H 500 V 0 H 0 Z" transform="translate(-88.275902,-375.45461)" id="path81" /></clipPath><clipPath clipPathUnits="userSpaceOnUse" id="clipPath83"><path d="M 0,500 H 500 V 0 H 0 Z" transform="translate(-125.0845,-367.83841)" id="path83" /></clipPath><clipPath clipPathUnits="userSpaceOnUse" id="clipPath85"><path d="M 0,500 H 500 V 0 H 0 Z" transform="translate(-88.761205,-375.09231)" id="path85" /></clipPath><clipPath clipPathUnits="userSpaceOnUse" id="clipPath87"><path d="M 0,500 H 500 V 0 H 0 Z" transform="translate(-125.2983,-381.78861)" id="path87" /></clipPath><clipPath clipPathUnits="userSpaceOnUse" id="clipPath89"><path d="M 0,500 H 500 V 0 H 0 Z" transform="translate(-96.329605,-397.87451)" id="path89" /></clipPath><clipPath clipPathUnits="userSpaceOnUse" id="clipPath91"><path d="M 0,500 H 500 V 0 H 0 Z" transform="translate(-87.3955,-382.24561)" id="path91" /></clipPath><clipPath clipPathUnits="userSpaceOnUse" id="clipPath93"><path d="M 0,500 H 500 V 0 H 0 Z" transform="translate(-125.2983,-381.78861)" id="path93" /></clipPath><clipPath clipPathUnits="userSpaceOnUse" id="clipPath95"><path d="M 0,500 H 500 V 0 H 0 Z" transform="translate(-71.700202,-397.00241)" id="path95" /></clipPath><clipPath clipPathUnits="userSpaceOnUse" id="clipPath97"><path d="M 0,500 H 500 V 0 H 0 Z" transform="translate(-139.3882,-350.70461)" id="path97" /></clipPath><clipPath clipPathUnits="userSpaceOnUse" id="clipPath99"><path d="M 0,500 H 500 V 0 H 0 Z" transform="translate(-97.266602,-377.96481)" id="path99" /></clipPath><clipPath clipPathUnits="userSpaceOnUse" id="clipPath101"><path d="M 0,500 H 500 V 0 H 0 Z" transform="translate(-119.97171,-375.45461)" id="path101" /></clipPath><clipPath clipPathUnits="userSpaceOnUse" id="clipPath103"><path d="M 0,500 H 500 V 0 H 0 Z" transform="translate(-437.25881,-102.749)" id="path103" /></clipPath><clipPath clipPathUnits="userSpaceOnUse" id="clipPath105"><path d="M 0,500 H 500 V 0 H 0 Z" transform="translate(-153.0757,-110.08691)" id="path105" /></clipPath><clipPath clipPathUnits="userSpaceOnUse" id="clipPath107"><path d="M 0,500 H 500 V 0 H 0 Z" transform="translate(-68.039602,-123.2412)" id="path107" /></clipPath><clipPath clipPathUnits="userSpaceOnUse" id="clipPath109"><path d="M 0,500 H 500 V 0 H 0 Z" transform="translate(-98.763205,-118.9268)" id="path109" /></clipPath><clipPath clipPathUnits="userSpaceOnUse" id="clipPath111"><path d="M 0,500 H 500 V 0 H 0 Z" transform="translate(-94.1626,-133.752)" id="path111" /></clipPath><clipPath clipPathUnits="userSpaceOnUse" id="clipPath113"><path d="M 0,500 H 500 V 0 H 0 Z" transform="translate(-130.0093,-133.8818)" id="path113" /></clipPath><clipPath clipPathUnits="userSpaceOnUse" id="clipPath115"><path d="M 0,500 H 500 V 0 H 0 Z" transform="translate(-216.42291,-119.5391)" id="path115" /></clipPath><clipPath clipPathUnits="userSpaceOnUse" id="clipPath117"><path d="M 0,500 H 500 V 0 H 0 Z" transform="translate(-216.4243,-119.54)" id="path117" /></clipPath><clipPath clipPathUnits="userSpaceOnUse" id="clipPath119"><path d="M 0,500 H 500 V 0 H 0 Z" transform="translate(-216.42291,-119.5391)" id="path119" /></clipPath><clipPath clipPathUnits="userSpaceOnUse" id="clipPath121"><path d="M 0,500 H 500 V 0 H 0 Z" transform="translate(-432.46971,-121.0557)" id="path121" /></clipPath><clipPath clipPathUnits="userSpaceOnUse" id="clipPath123"><path d="M 0,500 H 500 V 0 H 0 Z" transform="translate(-427.03711,-133.8525)" id="path123" /></clipPath><clipPath clipPathUnits="userSpaceOnUse" id="clipPath125"><path d="M 0,500 H 500 V 0 H 0 Z" transform="translate(-405.37791,-144.78911)" id="path125" /></clipPath><clipPath clipPathUnits="userSpaceOnUse" id="clipPath127"><path d="M 0,500 H 500 V 0 H 0 Z" transform="translate(-404.70611,-137.2754)" id="path127" /></clipPath><clipPath clipPathUnits="userSpaceOnUse" id="clipPath129"><path d="M 0,500 H 500 V 0 H 0 Z" transform="translate(-432.46971,-121.0557)" id="path129" /></clipPath><clipPath clipPathUnits="userSpaceOnUse" id="clipPath131"><path d="M 0,500 H 500 V 0 H 0 Z" transform="translate(-327.13481,-114.4746)" id="path131" /></clipPath><clipPath clipPathUnits="userSpaceOnUse" id="clipPath133"><path d="M 0,500 H 500 V 0 H 0 Z" transform="translate(-376.72071,-396.30321)" id="path133" /></clipPath><clipPath clipPathUnits="userSpaceOnUse" id="clipPath135"><path d="M 0,500 H 500 V 0 H 0 Z" transform="translate(-345.24221,-355.45311)" id="path135" /></clipPath><clipPath clipPathUnits="userSpaceOnUse" id="clipPath137"><path d="M 0,500 H 500 V 0 H 0 Z" transform="translate(-315.50001,-373.42481)" id="path137" /></clipPath><clipPath clipPathUnits="userSpaceOnUse" id="clipPath139"><path d="M 0,500 H 500 V 0 H 0 Z" transform="translate(-312.87011,-392.23001)" id="path139" /></clipPath><clipPath clipPathUnits="userSpaceOnUse" id="clipPath141"><path d="M 0,500 H 500 V 0 H 0 Z" transform="translate(-328.25681,-433.48831)" id="path141" /></clipPath><clipPath clipPathUnits="userSpaceOnUse" id="clipPath143"><path d="M 0,500 H 500 V 0 H 0 Z" transform="translate(-371.31351,-429.34471)" id="path143" /></clipPath><clipPath clipPathUnits="userSpaceOnUse" id="clipPath145"><path d="M 0,500 H 500 V 0 H 0 Z" transform="translate(-356.50101,-401.37401)" id="path145" /></clipPath><clipPath clipPathUnits="userSpaceOnUse" id="clipPath147"><path d="M 0,500 H 500 V 0 H 0 Z" transform="translate(-356.68651,-383.02541)" id="path147" /></clipPath><clipPath clipPathUnits="userSpaceOnUse" id="clipPath149"><path d="M 0,500 H 500 V 0 H 0 Z" transform="translate(-339.52251,-412.63771)" id="path149" /></clipPath><clipPath clipPathUnits="userSpaceOnUse" id="clipPath151"><path d="M 0,500 H 500 V 0 H 0 Z" transform="translate(-376.35061,-419.38281)" id="path151" /></clipPath><clipPath clipPathUnits="userSpaceOnUse" id="clipPath153"><path d="M 0,500 H 500 V 0 H 0 Z" transform="translate(-364.11821,-384.56741)" id="path153" /></clipPath><clipPath clipPathUnits="userSpaceOnUse" id="clipPath155"><path d="M 0,500 H 500 V 0 H 0 Z" transform="translate(-376.72071,-396.30321)" id="path155" /></clipPath><clipPath clipPathUnits="userSpaceOnUse" id="clipPath157"><path d="M 0,500 H 500 V 0 H 0 Z" transform="translate(-313.61911,-296.27291)" id="path157" /></clipPath><clipPath clipPathUnits="userSpaceOnUse" id="clipPath159"><path d="M 0,500 H 500 V 0 H 0 Z" transform="translate(-305.04881,-316.07621)" id="path159" /></clipPath><clipPath clipPathUnits="userSpaceOnUse" id="clipPath161"><path d="M 0,500 H 500 V 0 H 0 Z" transform="translate(-300.53611,-275.20511)" id="path161" /></clipPath><clipPath clipPathUnits="userSpaceOnUse" id="clipPath163"><path d="M 0,500 H 500 V 0 H 0 Z" transform="translate(-319.84181,-243.67191)" id="path163" /></clipPath><clipPath clipPathUnits="userSpaceOnUse" id="clipPath165"><path d="M 0,500 H 500 V 0 H 0 Z" transform="translate(-338.39361,-241.03421)" id="path165" /></clipPath><clipPath clipPathUnits="userSpaceOnUse" id="clipPath167"><path d="M 0,500 H 500 V 0 H 0 Z" transform="translate(-320.49711,-352.96141)" id="path167" /></clipPath><clipPath clipPathUnits="userSpaceOnUse" id="clipPath169"><path d="M 0,500 H 500 V 0 H 0 Z" transform="translate(-431.04981,-326.64161)" id="path169" /></clipPath><clipPath clipPathUnits="userSpaceOnUse" id="clipPath171"><path d="M 0,500 H 500 V 0 H 0 Z" transform="translate(-372.06351,-226.83401)" id="path171" /></clipPath><clipPath clipPathUnits="userSpaceOnUse" id="clipPath173"><path d="M 0,500 H 500 V 0 H 0 Z" transform="translate(-399.95511,-220.86041)" id="path173" /></clipPath><clipPath clipPathUnits="userSpaceOnUse" id="clipPath175"><path d="M 0,500 H 500 V 0 H 0 Z" transform="translate(-323.42581,-269.89451)" id="path175" /></clipPath><clipPath clipPathUnits="userSpaceOnUse" id="clipPath177"><path d="M 0,500 H 500 V 0 H 0 Z" transform="translate(-355.10741,-259.54641)" id="path177" /></clipPath><clipPath clipPathUnits="userSpaceOnUse" id="clipPath179"><path d="M 0,500 H 500 V 0 H 0 Z" transform="translate(-313.61911,-296.27291)" id="path179" /></clipPath><clipPath clipPathUnits="userSpaceOnUse" id="clipPath181"><path d="M 0,500 H 500 V 0 H 0 Z" transform="translate(-369.42681,-281.5425)" id="path181" /></clipPath><clipPath clipPathUnits="userSpaceOnUse" id="clipPath183"><path d="M 0,500 H 500 V 0 H 0 Z" transform="translate(-336.97751,-317.55571)" id="path183" /></clipPath><clipPath clipPathUnits="userSpaceOnUse" id="clipPath185"><path d="M 0,500 H 500 V 0 H 0 Z" transform="translate(-313.62011,-296.27151)" id="path185" /></clipPath><clipPath clipPathUnits="userSpaceOnUse" id="clipPath187"><path d="M 0,500 H 500 V 0 H 0 Z" transform="translate(-369.07811,-322.24461)" id="path187" /></clipPath><clipPath clipPathUnits="userSpaceOnUse" id="clipPath189"><path d="M 0,500 H 500 V 0 H 0 Z" transform="translate(-336.97751,-317.55571)" id="path189" /></clipPath><clipPath clipPathUnits="userSpaceOnUse" id="clipPath191"><path d="M 0,500 H 500 V 0 H 0 Z" transform="translate(-401.02541,-318.82371)" id="path191" /></clipPath><clipPath clipPathUnits="userSpaceOnUse" id="clipPath193"><path d="M 0,500 H 500 V 0 H 0 Z" transform="translate(-369.07811,-322.24411)" id="path193" /></clipPath><clipPath clipPathUnits="userSpaceOnUse" id="clipPath195"><path d="M 0,500 H 500 V 0 H 0 Z" transform="translate(-401.98341,-287.1846)" id="path195" /></clipPath><clipPath clipPathUnits="userSpaceOnUse" id="clipPath197"><path d="M 0,500 H 500 V 0 H 0 Z" transform="translate(-401.02541,-318.82371)" id="path197" /></clipPath><clipPath clipPathUnits="userSpaceOnUse" id="clipPath199"><path d="M 0,500 H 500 V 0 H 0 Z" transform="translate(-385.65231,-244.13481)" id="path199" /></clipPath><clipPath clipPathUnits="userSpaceOnUse" id="clipPath201"><path d="M 0,500 H 500 V 0 H 0 Z" transform="translate(-361.43161,-257.66991)" id="path201" /></clipPath><clipPath clipPathUnits="userSpaceOnUse" id="clipPath203"><path d="M 0,500 H 500 V 0 H 0 Z" transform="translate(-361.72851,-265.84031)" id="path203" /></clipPath><clipPath clipPathUnits="userSpaceOnUse" id="clipPath205"><path d="M 0,500 H 500 V 0 H 0 Z" transform="translate(-402.13871,-265.52591)" id="path205" /></clipPath><clipPath clipPathUnits="userSpaceOnUse" id="clipPath207"><path d="M 0,500 H 500 V 0 H 0 Z" transform="translate(-385.65231,-244.13571)" id="path207" /></clipPath><clipPath clipPathUnits="userSpaceOnUse" id="clipPath209"><path d="M 0,500 H 500 V 0 H 0 Z" transform="translate(-402.13771,-265.52541)" id="path209" /></clipPath><clipPath clipPathUnits="userSpaceOnUse" id="clipPath211"><path d="M 0,500 H 500 V 0 H 0 Z" transform="translate(-355.10741,-259.54641)" id="path211" /></clipPath><clipPath clipPathUnits="userSpaceOnUse" id="clipPath213"><path d="M 0,500 H 500 V 0 H 0 Z" transform="translate(-242.46831,-133.5723)" id="path213" /></clipPath><clipPath clipPathUnits="userSpaceOnUse" id="clipPath215"><path d="M 0,500 H 500 V 0 H 0 Z" transform="translate(-210.0742,-231.25001)" id="path215" /></clipPath><clipPath clipPathUnits="userSpaceOnUse" id="clipPath217"><path d="M 0,500 H 500 V 0 H 0 Z" transform="translate(-184.9072,-258.88431)" id="path217" /></clipPath><clipPath clipPathUnits="userSpaceOnUse" id="clipPath219"><path d="M 0,500 H 500 V 0 H 0 Z" transform="translate(-148.6821,-295.10451)" id="path219" /></clipPath><clipPath clipPathUnits="userSpaceOnUse" id="clipPath221"><path d="M 0,500 H 500 V 0 H 0 Z" transform="translate(-147.19731,-276.85691)" id="path221" /></clipPath><clipPath clipPathUnits="userSpaceOnUse" id="clipPath223"><path d="M 0,500 H 500 V 0 H 0 Z" transform="translate(-145.4277,-259.17381)" id="path223" /></clipPath><clipPath clipPathUnits="userSpaceOnUse" id="clipPath225"><path d="M 0,500 H 500 V 0 H 0 Z" transform="translate(-144.6172,-243.18261)" id="path225" /></clipPath><clipPath clipPathUnits="userSpaceOnUse" id="clipPath227"><path d="M 0,500 H 500 V 0 H 0 Z" transform="translate(-145.23831,-226.34181)" id="path227" /></clipPath><clipPath clipPathUnits="userSpaceOnUse" id="clipPath229"><path d="M 0,500 H 500 V 0 H 0 Z" transform="translate(-148.04301,-210.12111)" id="path229" /></clipPath><clipPath clipPathUnits="userSpaceOnUse" id="clipPath231"><path d="M 0,500 H 500 V 0 H 0 Z" transform="translate(-154.3618,-192.44921)" id="path231" /></clipPath><clipPath clipPathUnits="userSpaceOnUse" id="clipPath233"><path d="M 0,500 H 500 V 0 H 0 Z" transform="translate(-163.56201,-176.61521)" id="path233" /></clipPath><clipPath clipPathUnits="userSpaceOnUse" id="clipPath235"><path d="M 0,500 H 500 V 0 H 0 Z" transform="translate(-179.42721,-158.4932)" id="path235" /></clipPath><clipPath clipPathUnits="userSpaceOnUse" id="clipPath237"><path d="M 0,500 H 500 V 0 H 0 Z" transform="translate(-168.06741,-111.37211)" id="path237" /></clipPath><clipPath clipPathUnits="userSpaceOnUse" id="clipPath239"><path d="M 0,500 H 500 V 0 H 0 Z" transform="translate(-171.1729,-117.8379)" id="path239" /></clipPath><clipPath clipPathUnits="userSpaceOnUse" id="clipPath241"><path d="M 0,500 H 500 V 0 H 0 Z" transform="translate(-262.65531,-102.97271)" id="path241" /></clipPath><clipPath clipPathUnits="userSpaceOnUse" id="clipPath243"><path d="M 0,500 H 500 V 0 H 0 Z" transform="translate(-256.89841,-105.15821)" id="path243" /></clipPath><clipPath clipPathUnits="userSpaceOnUse" id="clipPath245"><path d="M 0,500 H 500 V 0 H 0 Z" transform="translate(-197.36961,-145.5762)" id="path245" /></clipPath><clipPath clipPathUnits="userSpaceOnUse" id="clipPath247"><path d="M 0,500 H 500 V 0 H 0 Z" transform="translate(-218.4478,-137.4365)" id="path247" /></clipPath><clipPath clipPathUnits="userSpaceOnUse" id="clipPath249"><path d="M 0,500 H 500 V 0 H 0 Z" transform="translate(-252.6064,-248.63481)" id="path249" /></clipPath><clipPath clipPathUnits="userSpaceOnUse" id="clipPath251"><path d="M 0,500 H 500 V 0 H 0 Z" transform="translate(-263.56351,-232.1865)" id="path251" /></clipPath><clipPath clipPathUnits="userSpaceOnUse" id="clipPath253"><path d="M 0,500 H 500 V 0 H 0 Z" transform="translate(-280.915,-228.33591)" id="path253" /></clipPath><clipPath clipPathUnits="userSpaceOnUse" id="clipPath255"><path d="M 0,500 H 500 V 0 H 0 Z" transform="translate(-279.01861,-215.27831)" id="path255" /></clipPath><clipPath clipPathUnits="userSpaceOnUse" id="clipPath257"><path d="M 0,500 H 500 V 0 H 0 Z" transform="translate(-267.748,-214.49321)" id="path257" /></clipPath><clipPath clipPathUnits="userSpaceOnUse" id="clipPath259"><path d="M 0,500 H 500 V 0 H 0 Z" transform="translate(-309.81641,-206.8818)" id="path259" /></clipPath><clipPath clipPathUnits="userSpaceOnUse" id="clipPath261"><path d="M 0,500 H 500 V 0 H 0 Z" transform="translate(-322.25681,-187.8135)" id="path261" /></clipPath><clipPath clipPathUnits="userSpaceOnUse" id="clipPath263"><path d="M 0,500 H 500 V 0 H 0 Z" transform="translate(-329.74901,-169.2236)" id="path263" /></clipPath><clipPath clipPathUnits="userSpaceOnUse" id="clipPath265"><path d="M 0,500 H 500 V 0 H 0 Z" transform="translate(-341.73931,-143.08301)" id="path265" /></clipPath><clipPath clipPathUnits="userSpaceOnUse" id="clipPath267"><path d="M 0,500 H 500 V 0 H 0 Z" transform="translate(-354.48051,-143.9541)" id="path267" /></clipPath><clipPath clipPathUnits="userSpaceOnUse" id="clipPath269"><path d="M 0,500 H 500 V 0 H 0 Z" transform="translate(-341.77441,-168.3789)" id="path269" /></clipPath><clipPath clipPathUnits="userSpaceOnUse" id="clipPath271"><path d="M 0,500 H 500 V 0 H 0 Z" transform="translate(-385.95121,-98.459002)" id="path271" /></clipPath><clipPath clipPathUnits="userSpaceOnUse" id="clipPath273"><path d="M 0,500 H 500 V 0 H 0 Z" transform="translate(-379.38281,-132.7695)" id="path273" /></clipPath><clipPath clipPathUnits="userSpaceOnUse" id="clipPath275"><path d="M 0,500 H 500 V 0 H 0 Z" transform="translate(-180.59571,-341.57131)" id="path275" /></clipPath><clipPath clipPathUnits="userSpaceOnUse" id="clipPath277"><path d="M 0,500 H 500 V 0 H 0 Z" transform="translate(-189.04101,-346.05371)" id="path277" /></clipPath><clipPath clipPathUnits="userSpaceOnUse" id="clipPath279"><path d="M 0,500 H 500 V 0 H 0 Z" transform="translate(-184.69431,-261.6948)" id="path279" /></clipPath><clipPath clipPathUnits="userSpaceOnUse" id="clipPath281"><path d="M 0,500 H 500 V 0 H 0 Z" transform="translate(-198.0361,-215.9238)" id="path281" /></clipPath><clipPath clipPathUnits="userSpaceOnUse" id="clipPath283"><path d="M 0,500 H 500 V 0 H 0 Z" transform="translate(-187.3789,-215.26761)" id="path283" /></clipPath><clipPath clipPathUnits="userSpaceOnUse" id="clipPath285"><path d="M 0,500 H 500 V 0 H 0 Z" transform="translate(-180.43551,-218.77541)" id="path285" /></clipPath><clipPath clipPathUnits="userSpaceOnUse" id="clipPath287"><path d="M 0,500 H 500 V 0 H 0 Z" transform="translate(-175.2612,-228.13961)" id="path287" /></clipPath><clipPath clipPathUnits="userSpaceOnUse" id="clipPath289"><path d="M 0,500 H 500 V 0 H 0 Z" transform="translate(-244.6279,-404.04541)" id="path289" /></clipPath><clipPath clipPathUnits="userSpaceOnUse" id="clipPath291"><path d="M 0,500 H 500 V 0 H 0 Z" transform="translate(-228.89061,-353.46631)" id="path291" /></clipPath><clipPath clipPathUnits="userSpaceOnUse" id="clipPath293"><path d="M 0,500 H 500 V 0 H 0 Z" transform="translate(-183.4443,-384.64701)" id="path293" /></clipPath><clipPath clipPathUnits="userSpaceOnUse" id="clipPath295"><path d="M 0,500 H 500 V 0 H 0 Z" transform="translate(-225.19921,-396.14601)" id="path295" /></clipPath><clipPath clipPathUnits="userSpaceOnUse" id="clipPath297"><path d="M 0,500 H 500 V 0 H 0 Z" transform="translate(-203.1001,-348.71041)" id="path297" /></clipPath><clipPath clipPathUnits="userSpaceOnUse" id="clipPath299"><path d="M 0,500 H 500 V 0 H 0 Z" transform="translate(-165.3213,-379.77441)" id="path299" /></clipPath><clipPath clipPathUnits="userSpaceOnUse" id="clipPath301"><path d="M 0,500 H 500 V 0 H 0 Z" transform="translate(-177.6465,-379.95211)" id="path301" /></clipPath><clipPath clipPathUnits="userSpaceOnUse" id="clipPath303"><path d="M 0,500 H 500 V 0 H 0 Z" transform="translate(-230.05221,-388.11181)" id="path303" /></clipPath><clipPath clipPathUnits="userSpaceOnUse" id="clipPath305"><path d="M 0,500 H 500 V 0 H 0 Z" transform="translate(-211.17331,-139.4316)" id="path305" /></clipPath><clipPath clipPathUnits="userSpaceOnUse" id="clipPath307"><path d="M 0,500 H 500 V 0 H 0 Z" transform="translate(-162.37701,-177.70511)" id="path307" /></clipPath><clipPath clipPathUnits="userSpaceOnUse" id="clipPath309"><path d="M 0,500 H 500 V 0 H 0 Z" transform="translate(-146.4858,-215.95611)" id="path309" /></clipPath><clipPath clipPathUnits="userSpaceOnUse" id="clipPath311"><path d="M 0,500 H 500 V 0 H 0 Z" transform="translate(-147.6426,-281.3652)" id="path311" /></clipPath><clipPath clipPathUnits="userSpaceOnUse" id="clipPath313"><path d="M 0,500 H 500 V 0 H 0 Z" transform="translate(-212.31691,-438.15091)" id="path313" /></clipPath><clipPath clipPathUnits="userSpaceOnUse" id="clipPath315"><path d="M 0,500 H 500 V 0 H 0 Z" transform="translate(-217.1611,-433.01421)" id="path315" /></clipPath><clipPath clipPathUnits="userSpaceOnUse" id="clipPath317"><path d="M 0,500 H 500 V 0 H 0 Z" transform="translate(-147.6421,-281.3652)" id="path317" /></clipPath><clipPath clipPathUnits="userSpaceOnUse" id="clipPath319"><path d="M 0,500 H 500 V 0 H 0 Z" transform="translate(-161.75781,-91.345702)" id="path319" /></clipPath><clipPath clipPathUnits="userSpaceOnUse" id="clipPath321"><path d="M 0,500 H 500 V 0 H 0 Z" transform="translate(-175.57281,-91.524405)" id="path321" /></clipPath><clipPath clipPathUnits="userSpaceOnUse" id="clipPath323"><path d="M 0,500 H 500 V 0 H 0 Z" transform="translate(-151.83351,-93.239302)" id="path323" /></clipPath><clipPath clipPathUnits="userSpaceOnUse" id="clipPath325"><path d="M 0,500 H 500 V 0 H 0 Z" transform="translate(-164.938,-102.69731)" id="path325" /></clipPath><clipPath clipPathUnits="userSpaceOnUse" id="clipPath327"><path d="M 0,500 H 500 V 0 H 0 Z" transform="translate(-149.7358,-106.25591)" id="path327" /></clipPath><clipPath clipPathUnits="userSpaceOnUse" id="clipPath329"><path d="M 0,500 H 500 V 0 H 0 Z" transform="translate(-154.3066,-102.4287)" id="path329" /></clipPath><clipPath clipPathUnits="userSpaceOnUse" id="clipPath331"><path d="M 0,500 H 500 V 0 H 0 Z" transform="translate(-149.7363,-106.2539)" id="path331" /></clipPath><clipPath clipPathUnits="userSpaceOnUse" id="clipPath333"><path d="M 0,500 H 500 V 0 H 0 Z" transform="translate(-200.9458,-119.4854)" id="path333" /></clipPath><clipPath clipPathUnits="userSpaceOnUse" id="clipPath335"><path d="M 0,500 H 500 V 0 H 0 Z" transform="translate(-175.57281,-91.524405)" id="path335" /></clipPath><clipPath clipPathUnits="userSpaceOnUse" id="clipPath337"><path d="M 0,500 H 500 V 0 H 0 Z" transform="translate(-200.9458,-119.4854)" id="path337" /></clipPath><clipPath clipPathUnits="userSpaceOnUse" id="clipPath339"><path d="M 0,500 H 500 V 0 H 0 Z" transform="translate(-148.8901,-300.44871)" id="path339" /></clipPath><clipPath clipPathUnits="userSpaceOnUse" id="clipPath341"><path d="M 0,500 H 500 V 0 H 0 Z" transform="translate(-193.96581,-213.05471)" id="path341" /></clipPath><clipPath clipPathUnits="userSpaceOnUse" id="clipPath343"><path d="M 0,500 H 500 V 0 H 0 Z" transform="translate(-261.6592,-74.062499)" id="path343" /></clipPath><clipPath clipPathUnits="userSpaceOnUse" id="clipPath345"><path d="M 0,500 H 500 V 0 H 0 Z" transform="translate(-281.6641,-73.378904)" id="path345" /></clipPath><clipPath clipPathUnits="userSpaceOnUse" id="clipPath347"><path d="M 0,500 H 500 V 0 H 0 Z" transform="translate(-249.1333,-77.140604)" id="path347" /></clipPath><clipPath clipPathUnits="userSpaceOnUse" id="clipPath349"><path d="M 0,500 H 500 V 0 H 0 Z" transform="translate(-264.82131,-87.2715)" id="path349" /></clipPath><clipPath clipPathUnits="userSpaceOnUse" id="clipPath351"><path d="M 0,500 H 500 V 0 H 0 Z" transform="translate(-246.79251,-92.9004)" id="path351" /></clipPath><clipPath clipPathUnits="userSpaceOnUse" id="clipPath353"><path d="M 0,500 H 500 V 0 H 0 Z" transform="translate(-252.4375,-90.031305)" id="path353" /></clipPath><clipPath clipPathUnits="userSpaceOnUse" id="clipPath355"><path d="M 0,500 H 500 V 0 H 0 Z" transform="translate(-295.7959,-134.51861)" id="path355" /></clipPath><clipPath clipPathUnits="userSpaceOnUse" id="clipPath357"><path d="M 0,500 H 500 V 0 H 0 Z" transform="translate(-281.6641,-73.378904)" id="path357" /></clipPath><clipPath clipPathUnits="userSpaceOnUse" id="clipPath359"><path d="M 0,500 H 500 V 0 H 0 Z" transform="translate(-294.24901,-139.74221)" id="path359" /></clipPath><clipPath clipPathUnits="userSpaceOnUse" id="clipPath361"><path d="M 0,500 H 500 V 0 H 0 Z" transform="translate(-174.46971,-233.32031)" id="path361" /></clipPath><clipPath clipPathUnits="userSpaceOnUse" id="clipPath363"><path d="M 0,500 H 500 V 0 H 0 Z" transform="translate(-435.21781,-118.0029)" id="path363" /></clipPath><clipPath clipPathUnits="userSpaceOnUse" id="clipPath365"><path d="M 0,500 H 500 V 0 H 0 Z" transform="translate(-222.87451,-273.3579)" id="path365" /></clipPath><clipPath clipPathUnits="userSpaceOnUse" id="clipPath367"><path d="M 0,500 H 500 V 0 H 0 Z" transform="translate(-211.97311,-287.7129)" id="path367" /></clipPath><clipPath clipPathUnits="userSpaceOnUse" id="clipPath369"><path d="M 0,500 H 500 V 0 H 0 Z" transform="translate(-192.3208,-318.48581)" id="path369" /></clipPath><clipPath clipPathUnits="userSpaceOnUse" id="clipPath371"><path d="M 0,500 H 500 V 0 H 0 Z" transform="translate(-203.1001,-348.71041)" id="path371" /></clipPath><clipPath clipPathUnits="userSpaceOnUse" id="clipPath373"><path d="M 0,500 H 500 V 0 H 0 Z" transform="translate(-241.7158,-419.51461)" id="path373" /></clipPath><clipPath clipPathUnits="userSpaceOnUse" id="clipPath375"><path d="M 0,500 H 500 V 0 H 0 Z" transform="translate(-229.41751,-435.30081)" id="path375" /></clipPath><clipPath clipPathUnits="userSpaceOnUse" id="clipPath377"><path d="M 0,500 H 500 V 0 H 0 Z" transform="translate(-212.31691,-438.15041)" id="path377" /></clipPath><clipPath clipPathUnits="userSpaceOnUse" id="clipPath379"><path d="M 0,500 H 500 V 0 H 0 Z" transform="translate(-230.53561,-431.04981)" id="path379" /></clipPath><clipPath clipPathUnits="userSpaceOnUse" id="clipPath381"><path d="M 0,500 H 500 V 0 H 0 Z" transform="translate(-200.44921,-304.96681)" id="path381" /></clipPath><clipPath clipPathUnits="userSpaceOnUse" id="clipPath383"><path d="M 0,500 H 500 V 0 H 0 Z" transform="translate(-192.3208,-318.48581)" id="path383" /></clipPath><clipPath clipPathUnits="userSpaceOnUse" id="clipPath385"><path d="M 0,500 H 500 V 0 H 0 Z" transform="translate(-200.44921,-304.96681)" id="path385" /></clipPath><clipPath clipPathUnits="userSpaceOnUse" id="clipPath387"><path d="M 0,500 H 500 V 0 H 0 Z" transform="translate(-242.5444,-263.98241)" id="path387" /></clipPath><clipPath clipPathUnits="userSpaceOnUse" id="clipPath389"><path d="M 0,500 H 500 V 0 H 0 Z" transform="translate(-222.874,-273.3579)" id="path389" /></clipPath><clipPath clipPathUnits="userSpaceOnUse" id="clipPath391"><path d="M 0,500 H 500 V 0 H 0 Z" transform="translate(-261.97951,-254.5728)" id="path391" /></clipPath><clipPath clipPathUnits="userSpaceOnUse" id="clipPath393"><path d="M 0,500 H 500 V 0 H 0 Z" transform="translate(-242.5444,-263.98241)" id="path393" /></clipPath><clipPath clipPathUnits="userSpaceOnUse" id="clipPath395"><path d="M 0,500 H 500 V 0 H 0 Z" transform="translate(-284.5234,-247.34471)" id="path395" /></clipPath><clipPath clipPathUnits="userSpaceOnUse" id="clipPath397"><path d="M 0,500 H 500 V 0 H 0 Z" transform="translate(-261.97951,-254.5728)" id="path397" /></clipPath><clipPath clipPathUnits="userSpaceOnUse" id="clipPath399"><path d="M 0,500 H 500 V 0 H 0 Z" transform="translate(-306.22461,-235.83111)" id="path399" /></clipPath><clipPath clipPathUnits="userSpaceOnUse" id="clipPath401"><path d="M 0,500 H 500 V 0 H 0 Z" transform="translate(-284.5234,-247.34471)" id="path401" /></clipPath><clipPath clipPathUnits="userSpaceOnUse" id="clipPath403"><path d="M 0,500 H 500 V 0 H 0 Z" transform="translate(-323.62701,-215.97171)" id="path403" /></clipPath><clipPath clipPathUnits="userSpaceOnUse" id="clipPath405"><path d="M 0,500 H 500 V 0 H 0 Z" transform="translate(-306.22461,-235.83111)" id="path405" /></clipPath><clipPath clipPathUnits="userSpaceOnUse" id="clipPath407"><path d="M 0,500 H 500 V 0 H 0 Z" transform="translate(-338.43851,-196.10351)" id="path407" /></clipPath><clipPath clipPathUnits="userSpaceOnUse" id="clipPath409"><path d="M 0,500 H 500 V 0 H 0 Z" transform="translate(-323.62701,-215.97171)" id="path409" /></clipPath><clipPath clipPathUnits="userSpaceOnUse" id="clipPath411"><path d="M 0,500 H 500 V 0 H 0 Z" transform="translate(-349.30081,-178.14161)" id="path411" /></clipPath><clipPath clipPathUnits="userSpaceOnUse" id="clipPath413"><path d="M 0,500 H 500 V 0 H 0 Z" transform="translate(-338.43851,-196.10351)" id="path413" /></clipPath><clipPath clipPathUnits="userSpaceOnUse" id="clipPath415"><path d="M 0,500 H 500 V 0 H 0 Z" transform="translate(-360.88771,-160.3232)" id="path415" /></clipPath><clipPath clipPathUnits="userSpaceOnUse" id="clipPath417"><path d="M 0,500 H 500 V 0 H 0 Z" transform="translate(-349.30081,-178.14161)" id="path417" /></clipPath><clipPath clipPathUnits="userSpaceOnUse" id="clipPath419"><path d="M 0,500 H 500 V 0 H 0 Z" transform="translate(-372.44241,-146.8164)" id="path419" /></clipPath><clipPath clipPathUnits="userSpaceOnUse" id="clipPath421"><path d="M 0,500 H 500 V 0 H 0 Z" transform="translate(-360.88771,-160.3232)" id="path421" /></clipPath><clipPath clipPathUnits="userSpaceOnUse" id="clipPath423"><path d="M 0,500 H 500 V 0 H 0 Z" transform="translate(-386.25491,-135.37211)" id="path423" /></clipPath><clipPath clipPathUnits="userSpaceOnUse" id="clipPath425"><path d="M 0,500 H 500 V 0 H 0 Z" transform="translate(-372.44241,-146.8164)" id="path425" /></clipPath><clipPath clipPathUnits="userSpaceOnUse" id="clipPath427"><path d="M 0,500 H 500 V 0 H 0 Z" transform="translate(-401.10251,-128.24711)" id="path427" /></clipPath><clipPath clipPathUnits="userSpaceOnUse" id="clipPath429"><path d="M 0,500 H 500 V 0 H 0 Z" transform="translate(-386.25491,-135.37211)" id="path429" /></clipPath><clipPath clipPathUnits="userSpaceOnUse" id="clipPath431"><path d="M 0,500 H 500 V 0 H 0 Z" transform="translate(-413.76071,-123.0801)" id="path431" /></clipPath><clipPath clipPathUnits="userSpaceOnUse" id="clipPath433"><path d="M 0,500 H 500 V 0 H 0 Z" transform="translate(-401.10161,-128.24711)" id="path433" /></clipPath><clipPath clipPathUnits="userSpaceOnUse" id="clipPath435"><path d="M 0,500 H 500 V 0 H 0 Z" transform="translate(-425.78911,-120.54)" id="path435" /></clipPath><clipPath clipPathUnits="userSpaceOnUse" id="clipPath437"><path d="M 0,500 H 500 V 0 H 0 Z" transform="translate(-413.75981,-123.0801)" id="path437" /></clipPath><clipPath clipPathUnits="userSpaceOnUse" id="clipPath439"><path d="M 0,500 H 500 V 0 H 0 Z" transform="translate(-425.78811,-120.54)" id="path439" /></clipPath><clipPath clipPathUnits="userSpaceOnUse" id="clipPath441"><path d="M 0,500 H 500 V 0 H 0 Z" transform="translate(-229.41751,-435.30081)" id="path441" /></clipPath><clipPath clipPathUnits="userSpaceOnUse" id="clipPath443"><path d="M 0,500 H 500 V 0 H 0 Z" transform="translate(-195.1851,-416.87351)" id="path443" /></clipPath><clipPath clipPathUnits="userSpaceOnUse" id="clipPath445"><path d="M 0,500 H 500 V 0 H 0 Z" transform="translate(-194.6499,-409.87941)" id="path445" /></clipPath><clipPath clipPathUnits="userSpaceOnUse" id="clipPath447"><path d="M 0,500 H 500 V 0 H 0 Z" transform="translate(-180.8179,-416.55571)" id="path447" /></clipPath><clipPath clipPathUnits="userSpaceOnUse" id="clipPath449"><path d="M 0,500 H 500 V 0 H 0 Z" transform="translate(-198.2974,-216.10161)" id="path449" /></clipPath><clipPath clipPathUnits="userSpaceOnUse" id="clipPath451"><path d="M 0,500 H 500 V 0 H 0 Z" transform="translate(-197.6113,-434.94731)" id="path451" /></clipPath><clipPath clipPathUnits="userSpaceOnUse" id="clipPath453"><path d="M 0,500 H 500 V 0 H 0 Z" transform="translate(-181.1304,-402.84721)" id="path453" /></clipPath><clipPath clipPathUnits="userSpaceOnUse" id="clipPath455"><path d="M 0,500 H 500 V 0 H 0 Z" transform="translate(-242.46831,-133.5723)" id="path455" /></clipPath><clipPath clipPathUnits="userSpaceOnUse" id="clipPath457"><path d="M 0,500 H 500 V 0 H 0 Z" transform="translate(-246.79251,-92.899402)" id="path457" /></clipPath><clipPath clipPathUnits="userSpaceOnUse" id="clipPath459"><path d="M 0,500 H 500 V 0 H 0 Z" transform="translate(-318.30371,-121.8018)" id="path459" /></clipPath><clipPath clipPathUnits="userSpaceOnUse" id="clipPath461"><path d="M 0,500 H 500 V 0 H 0 Z" transform="translate(-324.81151,-137.6904)" id="path461" /></clipPath><clipPath clipPathUnits="userSpaceOnUse" id="clipPath463"><path d="M 0,500 H 500 V 0 H 0 Z" transform="translate(-244.49661,-366.76711)" id="path463" /></clipPath><clipPath clipPathUnits="userSpaceOnUse" id="clipPath465"><path d="M 0,500 H 500 V 0 H 0 Z" transform="translate(-243.4399,-375.14401)" id="path465" /></clipPath><clipPath clipPathUnits="userSpaceOnUse" id="clipPath467"><path d="M 0,500 H 500 V 0 H 0 Z" transform="translate(-253.43071,-381.39501)" id="path467" /></clipPath><clipPath clipPathUnits="userSpaceOnUse" id="clipPath469"><path d="M 0,500 H 500 V 0 H 0 Z" transform="translate(-243.12451,-390.81981)" id="path469" /></clipPath><clipPath clipPathUnits="userSpaceOnUse" id="clipPath471"><path d="M 0,500 H 500 V 0 H 0 Z" transform="translate(-253.43551,-396.48051)" id="path471" /></clipPath><clipPath clipPathUnits="userSpaceOnUse" id="clipPath473"><path d="M 0,500 H 500 V 0 H 0 Z" transform="translate(-173.79741,-438.61521)" id="path473" /></clipPath><clipPath clipPathUnits="userSpaceOnUse" id="clipPath475"><path d="M 0,500 H 500 V 0 H 0 Z" transform="translate(-180.8169,-448.72901)" id="path475" /></clipPath><clipPath clipPathUnits="userSpaceOnUse" id="clipPath477"><path d="M 0,500 H 500 V 0 H 0 Z" transform="translate(-188.0278,-438.81051)" id="path477" /></clipPath><clipPath clipPathUnits="userSpaceOnUse" id="clipPath479"><path d="M 0,500 H 500 V 0 H 0 Z" transform="translate(-164.4438,-429.47951)" id="path479" /></clipPath><clipPath clipPathUnits="userSpaceOnUse" id="clipPath481"><path d="M 0,500 H 500 V 0 H 0 Z" transform="translate(-223.02781,-442.81351)" id="path481" /></clipPath><clipPath clipPathUnits="userSpaceOnUse" id="clipPath483"><path d="M 0,500 H 500 V 0 H 0 Z" transform="translate(-224.1406,-432.02691)" id="path483" /></clipPath><clipPath clipPathUnits="userSpaceOnUse" id="clipPath485"><path d="M 0,500 H 500 V 0 H 0 Z" transform="translate(-238.43601,-430.93951)" id="path485" /></clipPath><clipPath clipPathUnits="userSpaceOnUse" id="clipPath487"><path d="M 0,500 H 500 V 0 H 0 Z" transform="translate(-224.20951,-252.1665)" id="path487" /></clipPath><clipPath clipPathUnits="userSpaceOnUse" id="clipPath489"><path d="M 0,500 H 500 V 0 H 0 Z" transform="translate(-211.53421,-248.99801)" id="path489" /></clipPath><clipPath clipPathUnits="userSpaceOnUse" id="clipPath491"><path d="M 0,500 H 500 V 0 H 0 Z" transform="translate(-217.62211,-256.78221)" id="path491" /></clipPath><clipPath clipPathUnits="userSpaceOnUse" id="clipPath493"><path d="M 0,500 H 500 V 0 H 0 Z" transform="translate(-193.0039,-310.81641)" id="path493" /></clipPath><clipPath clipPathUnits="userSpaceOnUse" id="clipPath495"><path d="M 0,500 H 500 V 0 H 0 Z" transform="translate(-195.34371,-304.73681)" id="path495" /></clipPath><clipPath clipPathUnits="userSpaceOnUse" id="clipPath497"><path d="M 0,500 H 500 V 0 H 0 Z" transform="translate(-205.90621,-306.07471)" id="path497" /></clipPath><clipPath clipPathUnits="userSpaceOnUse" id="clipPath499"><path d="M 0,500 H 500 V 0 H 0 Z" transform="translate(-212.42241,-304.53171)" id="path499" /></clipPath><clipPath clipPathUnits="userSpaceOnUse" id="clipPath501"><path d="M 0,500 H 500 V 0 H 0 Z" transform="translate(-230.47221,-278.2026)" id="path501" /></clipPath><clipPath clipPathUnits="userSpaceOnUse" id="clipPath503"><path d="M 0,500 H 500 V 0 H 0 Z" transform="translate(-236.38531,-277.57761)" id="path503" /></clipPath><clipPath clipPathUnits="userSpaceOnUse" id="clipPath505"><path d="M 0,500 H 500 V 0 H 0 Z" transform="translate(-236.61771,-261.92871)" id="path505" /></clipPath><clipPath clipPathUnits="userSpaceOnUse" id="clipPath507"><path d="M 0,500 H 500 V 0 H 0 Z" transform="translate(-248.12551,-268.7295)" id="path507" /></clipPath><clipPath clipPathUnits="userSpaceOnUse" id="clipPath509"><path d="M 0,500 H 500 V 0 H 0 Z" transform="translate(-253.9453,-252.41061)" id="path509" /></clipPath><clipPath clipPathUnits="userSpaceOnUse" id="clipPath511"><path d="M 0,500 H 500 V 0 H 0 Z" transform="translate(-268.85841,-261.021)" id="path511" /></clipPath><clipPath clipPathUnits="userSpaceOnUse" id="clipPath513"><path d="M 0,500 H 500 V 0 H 0 Z" transform="translate(-278.84671,-263.01861)" id="path513" /></clipPath><clipPath clipPathUnits="userSpaceOnUse" id="clipPath515"><path d="M 0,500 H 500 V 0 H 0 Z" transform="translate(-277.45411,-241.44431)" id="path515" /></clipPath><clipPath clipPathUnits="userSpaceOnUse" id="clipPath517"><path d="M 0,500 H 500 V 0 H 0 Z" transform="translate(-291.00781,-251.98731)" id="path517" /></clipPath><clipPath clipPathUnits="userSpaceOnUse" id="clipPath519"><path d="M 0,500 H 500 V 0 H 0 Z" transform="translate(-291.583,-231.55271)" id="path519" /></clipPath><clipPath clipPathUnits="userSpaceOnUse" id="clipPath521"><path d="M 0,500 H 500 V 0 H 0 Z" transform="translate(-305.82131,-246.04391)" id="path521" /></clipPath><clipPath clipPathUnits="userSpaceOnUse" id="clipPath523"><path d="M 0,500 H 500 V 0 H 0 Z" transform="translate(-304.58111,-219.6426)" id="path523" /></clipPath><clipPath clipPathUnits="userSpaceOnUse" id="clipPath525"><path d="M 0,500 H 500 V 0 H 0 Z" transform="translate(-320.65331,-233.27051)" id="path525" /></clipPath><clipPath clipPathUnits="userSpaceOnUse" id="clipPath527"><path d="M 0,500 H 500 V 0 H 0 Z" transform="translate(-312.40621,-210.22071)" id="path527" /></clipPath><clipPath clipPathUnits="userSpaceOnUse" id="clipPath529"><path d="M 0,500 H 500 V 0 H 0 Z" transform="translate(-320.37791,-199.96481)" id="path529" /></clipPath><clipPath clipPathUnits="userSpaceOnUse" id="clipPath531"><path d="M 0,500 H 500 V 0 H 0 Z" transform="translate(-338.23141,-211.09571)" id="path531" /></clipPath><clipPath clipPathUnits="userSpaceOnUse" id="clipPath533"><path d="M 0,500 H 500 V 0 H 0 Z" transform="translate(-333.24611,-180.9609)" id="path533" /></clipPath><clipPath clipPathUnits="userSpaceOnUse" id="clipPath535"><path d="M 0,500 H 500 V 0 H 0 Z" transform="translate(-349.75291,-190.0703)" id="path535" /></clipPath><clipPath clipPathUnits="userSpaceOnUse" id="clipPath537"><path d="M 0,500 H 500 V 0 H 0 Z" transform="translate(-356.27731,-176.8418)" id="path537" /></clipPath><clipPath clipPathUnits="userSpaceOnUse" id="clipPath539"><path d="M 0,500 H 500 V 0 H 0 Z" transform="translate(-350.46971,-157.752)" id="path539" /></clipPath><clipPath clipPathUnits="userSpaceOnUse" id="clipPath541"><path d="M 0,500 H 500 V 0 H 0 Z" transform="translate(-366.06051,-160.3232)" id="path541" /></clipPath><clipPath clipPathUnits="userSpaceOnUse" id="clipPath543"><path d="M 0,500 H 500 V 0 H 0 Z" transform="translate(-364.13671,-143.793)" id="path543" /></clipPath><clipPath clipPathUnits="userSpaceOnUse" id="clipPath545"><path d="M 0,500 H 500 V 0 H 0 Z" transform="translate(-377.46781,-147.89261)" id="path545" /></clipPath><clipPath clipPathUnits="userSpaceOnUse" id="clipPath547"><path d="M 0,500 H 500 V 0 H 0 Z" transform="translate(-378.89751,-133.4639)" id="path547" /></clipPath><clipPath clipPathUnits="userSpaceOnUse" id="clipPath549"><path d="M 0,500 H 500 V 0 H 0 Z" transform="translate(-391.97171,-136.3086)" id="path549" /></clipPath><clipPath clipPathUnits="userSpaceOnUse" id="clipPath551"><path d="M 0,500 H 500 V 0 H 0 Z" transform="translate(-398.54881,-133.02641)" id="path551" /></clipPath><clipPath clipPathUnits="userSpaceOnUse" id="clipPath553"><path d="M 0,500 H 500 V 0 H 0 Z" transform="translate(-407.65531,-128.1602)" id="path553" /></clipPath><clipPath clipPathUnits="userSpaceOnUse" id="clipPath555"><path d="M 0,500 H 500 V 0 H 0 Z" transform="translate(-419.66311,-123.8027)" id="path555" /></clipPath><clipPath clipPathUnits="userSpaceOnUse" id="clipPath557"><path d="M 0,500 H 500 V 0 H 0 Z" transform="translate(-429.65331,-121.5996)" id="path557" /></clipPath><rect x="14.549811" y="36.058228" width="60.729648" height="58.515546" id="rect27" /></defs><g id="Color" style="display:inline" transform="matrix(0.20542448,0,0,0.20542448,12.212384,-8.6657839)"><path style="fill:transparent;stroke:none;stroke-width:0.111829;stroke-dasharray:none;stroke-opacity:1" d="m 11.860334,79.817967 c 0.03044,-0.07688 3.264429,-8.493414 7.186633,-18.703404 l 7.131281,-18.563619 h 2.392097 2.392096 l 7.639431,18.663868 c 4.201686,10.265127 7.63943,18.681659 7.63943,18.703404 0,0.02174 -1.024278,0.03954 -2.276172,0.03954 H 41.688957 L 39.868421,75.232977 C 38.867125,72.63435 37.847962,69.992074 37.603615,69.361253 l -0.444269,-1.146947 -8.452852,0.02866 -8.452851,0.02866 -2.119248,5.843067 -2.119249,5.843066 h -2.105082 c -1.639035,0 -2.092828,-0.03095 -2.04973,-0.139786 z M 35.953032,65.088633 c 0,-0.05923 -0.105053,-0.373748 -0.233451,-0.698931 -2.079822,-5.267401 -6.338332,-17.01222 -6.653078,-18.348952 -0.07091,-0.301144 -0.09218,-0.30968 -0.5914,-0.237287 -0.284815,0.0413 -0.53327,0.08826 -0.552122,0.10436 -0.01885,0.0161 -0.182333,0.67305 -0.363293,1.459898 -0.574728,2.499012 -1.180117,4.305583 -3.69211,11.01782 -1.348775,3.604032 -2.45232,6.610835 -2.45232,6.681784 0,0.09612 1.852571,0.128997 7.268887,0.128997 4.585077,0 7.268887,-0.03976 7.268887,-0.107689 z" id="path4" transform="matrix(4.867969,0,0,4.867969,-59.449507,42.184767)" /><path style="fill:transparent;stroke:none;stroke-width:0.111829;stroke-dasharray:none;stroke-opacity:1" d="m 53.662194,80.294197 c -2.71577,-0.381852 -4.479672,-2.043137 -4.702457,-4.428886 -0.231008,-2.473815 1.345371,-4.58491 4.035644,-5.404555 0.424174,-0.129233 2.00935,-0.412963 3.522614,-0.630511 2.952066,-0.42439 3.890937,-0.604605 5.063088,-0.971851 l 0.746093,-0.233758 0.07336,-0.632072 c 0.09391,-0.809116 -0.100032,-2.20612 -0.404533,-2.913949 -0.559075,-1.299608 -2.055094,-2.064338 -4.292226,-2.194085 -3.168607,-0.183771 -4.942318,0.794974 -5.861445,3.234382 -0.132326,0.351199 -0.203363,0.360511 -1.39644,0.183063 L 49.60904,66.177509 49.865406,65.47123 c 0.73634,-2.028595 2.123644,-3.182612 4.658718,-3.875316 0.839705,-0.229448 1.188219,-0.257476 3.179653,-0.255715 1.813616,0.0016 2.374044,0.04033 2.96347,0.204763 1.650067,0.460328 2.823913,1.26865 3.355486,2.31062 0.492681,0.965734 0.554264,1.671906 0.560653,6.428961 0.0074,5.48526 0.121437,7.776663 0.437014,8.778578 0.125923,0.399789 0.2296,0.764631 0.230394,0.810761 7.93e-4,0.04613 -0.472582,0.08387 -1.051945,0.08387 h -1.05339 L 62.96929,79.426566 c -0.0969,-0.292154 -0.22655,-0.929382 -0.288123,-1.416064 -0.06157,-0.486682 -0.129819,-0.902743 -0.151656,-0.924579 -0.02184,-0.02184 -0.385238,0.243523 -0.807557,0.589691 -1.651697,1.353868 -2.830191,2.004372 -4.322791,2.386088 -1.016125,0.259863 -2.767417,0.368819 -3.736969,0.232495 z m 4.153412,-1.638451 c 2.005537,-0.512067 3.545771,-1.859629 4.210056,-3.683412 0.206429,-0.566746 0.248413,-0.971545 0.291923,-2.814655 0.02795,-1.18399 0.02631,-2.152709 -0.0036,-2.152709 -0.02995,0 -0.385277,0.124519 -0.78961,0.27671 -1.148498,0.432293 -2.281543,0.698814 -4.79416,1.127707 -1.279051,0.218329 -2.606478,0.493616 -2.949838,0.611749 -1.559207,0.536446 -2.432371,1.720636 -2.430097,3.295713 8.15e-4,0.564328 0.07166,0.945529 0.253851,1.365853 0.285989,0.659802 1.128612,1.513838 1.768681,1.792639 1.098018,0.478273 2.977344,0.554585 4.442837,0.180405 z" id="path6" transform="matrix(4.867969,0,0,4.867969,-59.449507,42.184767)" /><path style="fill:transparent;stroke:none;stroke-width:0.111829;stroke-dasharray:none;stroke-opacity:1" d="m 107.18812,33.644279 c 0,-0.226287 0.92148,-1.809937 1.45718,-2.504309 0.72832,-0.944031 2.20194,-2.291292 3.33274,-3.046969 1.35878,-0.908022 2.63613,-1.521573 4.46716,-2.145718 0.81673,-0.278398 1.48137,-0.556503 1.47699,-0.618009 -0.0148,-0.207673 -1.07525,-0.06835 -2.18969,0.287682 -1.29118,0.412496 -2.85434,1.120831 -3.77951,1.712654 -0.35839,0.22926 -0.67334,0.395121 -0.69988,0.36858 -0.0265,-0.02654 0.29347,-0.362399 0.71115,-0.74635 2.3811,-2.188871 3.59058,-2.743989 7.44409,-3.416633 2.06874,-0.361105 3.22488,-0.678802 2.90732,-0.79891 -0.0754,-0.02852 -0.94776,0.03153 -1.93856,0.133442 -0.99079,0.101915 -1.82405,0.162691 -1.85169,0.135058 -0.0558,-0.05581 2.22086,-0.936439 4.54242,-1.757039 0.83033,-0.293496 1.83063,-0.664314 2.22289,-0.824041 1.32521,-0.539629 4.33789,-2.738552 3.76809,-2.750291 -0.11855,-0.0024 -0.79791,0.359563 -1.50969,0.804456 -0.71179,0.444893 -1.66926,0.997759 -2.12772,1.22859 -0.83239,0.419104 -2.21772,0.931358 -2.29899,0.850096 -0.0236,-0.02363 0.26761,-0.292998 0.6472,-0.598597 0.97076,-0.781541 2.83956,-2.666596 2.93184,-2.957347 0.20323,-0.640344 -0.2044,-0.38614 -1.81478,1.131716 -0.72358,0.68201 -1.74335,1.562851 -2.26615,1.957424 -0.92792,0.700324 -2.3335,1.493238 -2.64704,1.493238 -0.0864,0 0.18034,-0.413995 0.59445,-0.922589 1.33124,-1.634943 2.27734,-3.235192 2.44629,-4.137674 0.13296,-0.710225 -0.13169,-0.486386 -0.61013,0.516048 -0.24555,0.514474 -0.74215,1.332223 -1.10354,1.817221 -0.91242,1.224468 -2.64521,3.121963 -3.1967,3.500559 -0.50788,0.34865 -2.53043,1.386592 -2.5886,1.328425 -0.0202,-0.0202 0.76459,-1.4198 1.74396,-3.110233 0.97938,-1.690434 1.78115,-3.13642 1.78173,-3.213303 0.002,-0.241912 -0.18601,-0.153003 -0.47249,0.223658 -0.15203,0.199895 -0.8445,1.26926 -1.53881,2.376367 -1.90047,3.030372 -2.64721,4.059619 -3.5699,4.920477 -0.46147,0.430542 -1.48265,1.417331 -2.2693,2.192866 -0.78664,0.775533 -1.43026,1.362674 -1.43026,1.304756 0,-0.194832 1.25768,-3.265382 1.70743,-4.168596 0.24501,-0.492048 0.69076,-1.250382 0.99054,-1.685188 0.53201,-0.771619 0.65067,-1.054623 0.44219,-1.054623 -0.0566,0 -0.34595,0.274463 -0.64302,0.609917 -1.01052,1.141076 -1.80739,2.77236 -3.26224,6.678186 -0.50967,1.3683 -0.94228,2.174266 -2.00696,3.738974 -0.34011,0.499845 0.15039,-4.96109 0.65466,-7.288579 0.43308,-1.998925 1.0308,-3.401398 1.90654,-4.473478 0.74598,-0.913222 0.90821,-0.962405 3.26105,-0.98865 2.73846,-0.03055 2.49916,0.104945 5.95205,-3.370153 1.62506,-1.635521 2.82798,-2.757454 3.04912,-2.843842 0.35449,-0.138482 0.40482,-0.118672 1.71211,0.67389 1.29609,0.785774 2.25446,1.213614 2.73577,1.221317 0.51439,0.0082 1.63307,-0.381303 3.17323,-1.104947 0.89703,-0.421469 1.92202,-0.857413 2.27777,-0.968764 l 0.64682,-0.202457 0.30262,0.302629 c 0.62414,0.624138 0.30586,2.066969 -1.09866,4.980481 -1.03264,2.142074 -1.68729,3.283759 -3.18338,5.551629 -2.05439,3.114197 -3.47658,4.774262 -4.45758,5.203134 -0.89983,0.393387 -1.57507,0.391318 -2.98101,-0.0091 -1.19074,-0.339159 -1.30142,-0.352424 -1.72008,-0.206172 -0.30135,0.10527 -0.56882,0.320624 -0.81916,0.65954 -0.20444,0.276777 -0.45815,0.606288 -0.56379,0.732245 -0.12829,0.152958 -1.36196,0.627503 -3.71469,1.428896 -5.13898,1.75045 -6.9334,2.228843 -6.9334,1.848446 z" id="path8" transform="matrix(4.867969,0,0,4.867969,-59.449507,42.184767)" /><path style="fill:transparent;stroke:none;stroke-width:0.111829;stroke-dasharray:none;stroke-opacity:1" d="m 105.5974,35.142271 c -0.0944,-0.107635 -0.61109,-1.151839 -1.14824,-2.320452 -1.92515,-4.188296 -3.41277,-6.623669 -4.772576,-7.813198 -0.696912,-0.609642 -1.450732,-0.991068 -3.446238,-1.743768 -1.722101,-0.649572 -2.349879,-1.013624 -2.349879,-1.362708 0,-0.376579 0.39945,-0.924858 1.242396,-1.705297 1.39749,-1.293861 2.579674,-1.642965 3.354847,-0.990699 1.450477,1.220495 5.37097,8.141745 7.19672,12.705113 0.56335,1.408054 0.95455,2.658417 0.95455,3.050946 0,0.402105 -0.72579,0.528793 -1.03158,0.180063 z" id="path10" transform="matrix(4.867969,0,0,4.867969,-59.449507,42.184767)" /><path style="fill:transparent;stroke:none;stroke-width:0.223658;stroke-dasharray:none;stroke-opacity:1" d="m 95.501988,88.260338 c -3.137636,-1.02589 -5.95727,-2.87129 -9.251389,-6.054873 C 78.438951,74.655946 73.663466,64.129657 72.902581,52.7833 c -0.232315,-3.464293 0.225452,-8.157376 1.003669,-10.289743 2.086182,-5.716273 6.759212,-9.779145 13.243767,-11.514526 4.029361,-1.078327 7.157045,-0.926774 11.147697,0.540166 2.664496,0.979452 5.905016,2.730283 6.003926,3.243876 0.0627,0.325561 -0.0102,0.381656 -0.33388,0.256897 -1.32717,-0.511564 -2.32036,-0.660911 -2.59157,-0.389697 -0.39431,0.394307 0.0316,0.617611 2.03216,1.065504 3.09899,0.693804 7.32629,-0.06586 7.14901,-1.284706 -0.0631,-0.433825 0.22665,-0.583699 2.83727,-1.467555 9.59801,-3.249519 13.36586,-3.503281 18.1163,-1.220118 5.20197,2.500175 8.88837,7.548994 10.0796,13.804821 0.49265,2.587237 0.48716,7.524904 -0.0127,11.392755 -1.95464,15.125225 -7.49153,26.644791 -14.44283,30.048468 -4.2343,2.073313 -7.562,2.272476 -14.85868,0.889296 -3.04579,-0.577371 -6.03944,-0.462451 -9.50547,0.364894 -3.009683,0.718414 -5.150838,0.729228 -7.268882,0.03671 z" id="path12" transform="matrix(4.867969,0,0,4.867969,-59.449507,42.184767)" /><path id="path26" style="fill:transparent;stroke:none;stroke-width:0.0559145;stroke-dasharray:none;stroke-opacity:1" d="m 122.12668,98.619222 c 0.12155,-0.639387 0.45425,-1.12015 0.93944,-1.357535 1.07038,-0.523686 2.25276,0.106067 2.41449,1.285989 l 0.0347,0.253268 h -1.71159 -1.7116 z m -8.18439,3.005308 c -0.53147,-0.2688 -0.85305,-0.77778 -0.97144,-1.53755 -0.13616,-0.873703 0.0455,-1.859526 0.43746,-2.374094 0.63565,-0.834463 1.53421,-0.91032 2.23421,-0.188611 0.44442,0.458208 0.60771,1.069196 0.56209,2.103092 -0.044,0.997143 -0.31292,1.573203 -0.90537,1.939493 -0.22246,0.13753 -0.34471,0.17163 -0.66904,0.18658 -0.33958,0.0157 -0.43885,-0.003 -0.68791,-0.12891 z m -6.55847,0.0663 c -0.10763,-0.0342 -0.33725,-0.20144 -0.51025,-0.37171 -0.43026,-0.42347 -0.55632,-0.76861 -0.593,-1.623583 -0.0468,-1.090265 0.15712,-1.745414 0.69667,-2.238531 0.72097,-0.658925 1.61792,-0.534375 2.18135,0.302899 0.24016,0.356892 0.34987,0.738035 0.38818,1.348529 0.0389,0.61975 -0.0513,1.232656 -0.24501,1.664206 -0.17493,0.3898 -0.62466,0.82653 -0.9522,0.92466 -0.27043,0.081 -0.69917,0.0782 -0.96574,-0.006 z m -8.372809,-2.792075 c 0.636076,-1.688468 1.017329,-2.756346 1.133869,-3.175938 0.20634,-0.742913 0.19626,-0.727503 0.29076,-0.444527 0.0773,0.231531 0.77483,2.137117 1.18193,3.229063 l 0.17199,0.461295 h -1.40244 c -1.098718,0 -1.396737,-0.01514 -1.376109,-0.06989 z M 54.628479,77.684505 c -0.816213,-0.189786 -1.25183,-0.432902 -1.657494,-0.925043 -1.024353,-1.242718 -0.4952,-3.038372 1.067682,-3.623121 0.349197,-0.130651 1.653627,-0.41177 2.898733,-0.624708 1.245106,-0.212938 2.732072,-0.506036 3.304368,-0.651328 0.572296,-0.145291 1.053999,-0.252263 1.070451,-0.237715 0.06433,0.05689 -0.198721,2.488132 -0.312079,2.884355 -0.350691,1.225787 -1.751114,2.5397 -3.175995,2.979801 -0.942596,0.291138 -2.404889,0.38163 -3.195666,0.197759 z M 23.010014,63.938246 c 3.088613,-8.13422 5.16529,-14.043881 5.472124,-15.572192 0.02595,-0.129255 0.249426,0.389963 0.529453,1.230119 0.266502,0.799578 1.514971,4.196384 2.774375,7.548459 1.259403,3.352075 2.35771,6.283394 2.440682,6.514041 l 0.150856,0.419359 H 28.66722 c -4.521983,0 -5.699239,-0.02909 -5.657206,-0.139786 z M 3.0048524,59.622597 V 2.530402 H 79.549513 156.09417 V 59.622597 116.71479 H 79.549513 3.0048524 Z M 130.85079,116.00312 c 0.27383,-0.21746 0.57141,-0.99474 0.6613,-1.72728 0.20262,-1.65114 -0.33489,-2.26714 -1.51076,-1.73138 -0.48367,0.22037 -0.84005,0.23767 -0.9582,0.0465 -0.33233,-0.53771 -1.36551,-0.32521 -1.86146,0.38285 -0.50035,0.71436 -0.65692,0.56866 -0.88028,-0.81916 -0.14948,-0.92879 -0.83997,-0.96166 -1.06857,-0.0509 -0.22746,0.9063 -0.76867,0.79916 -0.76867,-0.15216 0,-0.33766 -0.19085,-0.61393 -0.42412,-0.61393 -0.42453,0 -1.37912,3.363 -1.04845,3.69366 0.31617,0.31618 0.84013,-0.25609 0.86494,-0.9447 0.022,-0.61017 0.0629,-0.58904 0.34266,0.17682 0.38543,1.05531 0.81924,1.11211 1.20791,0.15815 l 0.28996,-0.71168 0.21119,0.71168 c 0.25016,0.84301 0.76591,0.94763 0.77963,0.15815 0.009,-0.52717 0.025,-0.52717 0.33202,0 0.33899,0.58202 2.0547,0.78051 2.24148,0.25933 0.058,-0.16181 0.38172,-0.0906 0.71941,0.15815 0.59918,0.44144 0.59727,0.45234 -0.0791,0.45234 -0.74849,0 -0.94157,0.47961 -0.29768,0.73942 0.61869,0.24965 0.71675,0.23503 1.24676,-0.18589 z m -13.81631,-0.96097 c -0.60426,-0.86271 -0.60301,-1.71732 0.004,-2.8817 0.61078,-1.1712 0.28203,-1.52656 -0.50929,-0.5505 -0.75845,0.93555 -0.80764,3.09187 -0.0886,3.88635 0.70059,0.77415 1.19119,0.39887 0.59371,-0.45415 z m 4.24292,-0.44349 c 0.34867,-1.2628 -0.16326,-3.2763 -0.89404,-3.51634 -0.34024,-0.11176 -0.38432,0.0297 -0.18957,0.6084 0.32166,0.9557 0.32647,2.75466 0.01,3.6845 -0.19729,0.57939 -0.1471,0.67921 0.26246,0.52205 0.27851,-0.10687 0.6436,-0.69125 0.8113,-1.29861 z m 28.61508,0.35061 c 0.10559,-0.27517 0.19199,-0.77335 0.19199,-1.10705 0,-0.3337 0.14233,-0.60673 0.3163,-0.60673 0.17396,0 0.3163,-0.2135 0.3163,-0.47445 0,-0.26095 -0.16954,-0.47445 -0.37676,-0.47445 -0.20721,0 -0.10046,-0.20334 0.23723,-0.45186 0.59977,-0.4414 0.60011,-0.45723 0.0147,-0.68399 -0.41678,-0.16145 -0.72652,-0.0479 -1.01718,0.37278 -0.22986,0.3327 -0.5637,0.77531 -0.74187,0.98357 -0.21223,0.24808 -0.21595,0.4454 -0.0108,0.57219 0.17223,0.10645 0.31315,0.68332 0.31315,1.28193 0,1.13003 0.42287,1.45856 0.75691,0.58806 z m -30.24173,-0.39531 c 0.0949,-0.28791 -0.0974,-0.38799 -0.60782,-0.3163 -0.49942,0.0701 -0.74664,-0.0522 -0.74664,-0.36957 0,-0.26095 0.32846,-0.52101 0.72991,-0.57791 0.94582,-0.13407 0.7151,-0.84544 -0.2742,-0.84544 -0.973,0 -1.57811,1.43337 -0.93317,2.21047 0.48523,0.58467 1.62665,0.52158 1.83192,-0.10125 z m 13.0372,-1.49529 c 0,-0.94654 -0.12738,-1.72098 -0.28307,-1.72098 -0.31884,0 -0.62547,2.39401 -0.4148,3.23852 0.2723,1.09156 0.69787,0.16614 0.69787,-1.51754 z m 3.42223,1.17262 c 0.0556,-0.37373 0.28725,-0.6795 0.5148,-0.6795 0.66052,0 1.19419,-0.86136 0.97045,-1.56632 -0.14564,-0.45884 -0.47615,-0.64778 -1.13319,-0.64778 -0.83464,0 -0.92807,0.10299 -0.93243,1.02797 -0.006,1.2604 -0.27861,1.72208 -1.1022,1.86619 -0.40064,0.0701 -0.6326,-0.0633 -0.6326,-0.36376 0,-0.26095 0.32845,-0.52101 0.7299,-0.57791 0.94582,-0.13407 0.7151,-0.84544 -0.27419,-0.84544 -0.96516,0 -1.57874,1.43262 -0.94211,2.19971 0.63736,0.76796 2.67048,0.46813 2.80157,-0.41316 z m 4.99927,0.33247 c 0.0217,-0.20865 0.0573,-0.59287 0.0791,-0.85382 0.0747,-0.89608 0.67214,-0.47434 0.67214,0.47445 0,0.5219 0.15052,0.9489 0.33449,0.9489 0.1979,0 0.29477,-0.54892 0.23722,-1.34428 -0.0913,-1.26176 -0.16035,-1.35035 -1.12523,-1.44339 -0.95763,-0.0923 -1.02798,-0.0328 -1.02798,0.86983 0,0.53292 -0.13069,0.96894 -0.29043,0.96894 -0.15974,0 -0.55116,0.0844 -0.86982,0.18759 -0.42651,0.1381 -0.37857,0.0236 0.18165,-0.43397 0.48469,-0.39587 0.68929,-0.80855 0.56345,-1.1365 -0.23164,-0.60364 -1.19247,-0.67858 -1.73569,-0.13536 -0.4991,0.4991 -0.48817,2.05581 0.0158,2.25216 0.742,0.28909 2.92545,0.028 2.96532,-0.35455 z m 3.84571,-0.01 c 0.0946,-0.28783 -0.098,-0.38798 -0.60821,-0.3163 -0.57073,0.0802 -0.74664,-0.0442 -0.74664,-0.52772 0,-0.42702 0.17989,-0.6024 0.55353,-0.53966 0.30444,0.0511 0.55352,-0.0601 0.55352,-0.24715 0,-0.54161 -0.91251,-0.7442 -1.42737,-0.3169 -0.48444,0.40205 -0.64515,1.93061 -0.24504,2.33071 0.35992,0.35993 1.76837,0.079 1.92021,-0.38298 z m 1.01741,-1.49529 c 0,-0.94654 -0.14234,-1.72098 -0.3163,-1.72098 -0.17607,0 -0.31631,0.84969 -0.31631,1.91647 0,1.1971 0.11873,1.84309 0.31631,1.72098 0.17396,-0.10752 0.3163,-0.96993 0.3163,-1.91647 z m 1.2652,0.0187 c 0,-1.15977 -0.13788,-2.05595 -0.3163,-2.05595 -0.17843,0 -0.3163,0.89618 -0.3163,2.05595 0,1.15977 0.13787,2.05595 0.3163,2.05595 0.17842,0 0.3163,-0.89618 0.3163,-2.05595 z m 1.2652,1.73965 c 0,-0.17396 -0.21351,-0.3163 -0.47445,-0.3163 -0.26095,0 -0.47445,0.14234 -0.47445,0.3163 0,0.17397 0.2135,0.3163 0.47445,0.3163 0.26094,0 0.47445,-0.14233 0.47445,-0.3163 z m 4.7445,-1.10705 c 0,-0.78284 -0.14233,-1.42335 -0.3163,-1.42335 -0.17396,0 -0.3163,0.43887 -0.3163,0.97526 0,0.64047 -0.13572,0.92947 -0.39537,0.84189 -0.21746,-0.0734 -0.39538,-0.46407 -0.39538,-0.86825 0,-0.40418 -0.17792,-0.7949 -0.39538,-0.86825 -0.2717,-0.0917 -0.39537,0.25414 -0.39537,1.10547 0,1.47729 0.14547,1.66058 1.31792,1.66058 0.85127,0 0.89618,-0.0713 0.89618,-1.42335 z m 0.9489,0.65127 c 0,-1.08285 0.56808,-1.31797 0.69015,-0.28565 0.14405,1.21825 0.89135,1.35328 0.89135,0.16106 0,-1.50155 -0.29876,-1.95003 -1.29904,-1.95003 -0.87365,0 -0.91506,0.0644 -0.91506,1.42335 0,0.78284 0.14234,1.42335 0.3163,1.42335 0.17397,0 0.3163,-0.34744 0.3163,-0.77208 z m -47.76134,-10.58463 v -1.2351 l 1.18613,0.15817 c 2.34041,0.31209 3.77119,-1.94958 2.95555,-4.671921 -0.46416,-1.549251 -1.06441,-1.865583 -3.47555,-1.831641 l -1.93133,0.02719 v 4.394202 c 0,4.18334 0.0304,4.3942 0.6326,4.3942 0.5246,0 0.6326,-0.21086 0.6326,-1.2351 z m 6.64231,0 v -1.2351 l 1.20805,0.16203 c 0.96051,0.12883 1.38581,0.009 2.07552,-0.58412 1.51329,-1.30167 1.43219,-4.816801 -0.13043,-5.65309 -0.30563,-0.163568 -1.42479,-0.285167 -2.48702,-0.270212 l -1.93132,0.02719 v 4.394202 c 0,4.18334 0.0303,4.3942 0.6326,4.3942 0.5246,0 0.6326,-0.21086 0.6326,-1.2351 z m -14.823007,-2.32327 0.490136,-1.34428 h 1.683901 1.68389 l 0.4481,1.34428 c 0.36235,1.08705 0.59435,1.34427 1.21248,1.34427 0.42042,0 0.76965,-0.10675 0.77608,-0.23722 0.006,-0.13048 -0.74084,-2.12133 -1.66058,-4.424127 -1.54407,-3.865952 -1.73535,-4.187211 -2.49523,-4.190979 -0.764449,-0.0038 -0.938762,0.295191 -2.451326,4.204545 -0.895598,2.314741 -1.628358,4.307441 -1.628358,4.428201 0,0.12077 0.326425,0.21958 0.725387,0.21958 0.565643,0 0.833322,-0.29603 1.21552,-1.34427 z m 21.465307,-3.083932 c 0,-4.217336 -0.0301,-4.428204 -0.6326,-4.428204 -0.60247,0 -0.6326,0.210868 -0.6326,4.428204 0,4.217332 0.0301,4.428202 0.6326,4.428202 0.60248,0 0.6326,-0.21087 0.6326,-4.428202 z m 6.1252,3.772642 c 0.96439,-0.75859 1.0698,-1.40009 0.27988,-1.70341 -0.3707,-0.14235 -0.69685,0.003 -0.98748,0.44061 -0.77246,1.16266 -2.88719,0.61376 -2.88719,-0.7494 0,-0.0984 0.99634,-0.178941 2.2141,-0.178941 h 2.2141 v -1.121427 c 0,-1.647646 -1.13914,-2.674176 -2.96752,-2.674176 -1.13931,0 -1.53815,0.156853 -2.04846,0.805604 -1.29136,1.641706 -1.10789,4.32888 0.36606,5.36127 0.97745,0.68463 2.8282,0.59728 3.81651,-0.18013 z M 102.95573,89.19667 c 3.28449,-0.752978 7.37646,-0.805778 10.4963,-0.135439 5.12418,1.100997 11.0547,0.552054 14.54216,-1.346054 7.69027,-4.18557 13.41107,-17.26097 14.82139,-33.875608 0.92207,-10.862665 -2.91617,-19.160878 -10.55923,-22.828866 -1.98963,-0.954846 -5.20725,-1.91108 -6.43058,-1.91108 -0.057,0 0.51442,-0.758887 1.2699,-1.686416 3.16818,-3.889664 6.57786,-10.46468 6.65389,-12.830925 0.0394,-1.227868 -0.067,-1.478816 -0.80614,-1.901067 -0.78904,-0.450733 -0.97491,-0.432937 -2.5304,0.242279 -0.92335,0.40081 -2.27424,0.95788 -3.00198,1.237934 l -1.32317,0.509187 -1.68169,-1.060659 c -0.92493,-0.583363 -2.03622,-1.036306 -2.46955,-1.00654 -0.53444,0.03671 -1.7773,1.039843 -3.8639,3.118613 l -3.07604,3.064495 -2.44251,0.04296 c -2.43648,0.04285 -2.44533,0.04613 -3.57854,1.323085 -1.29606,1.460484 -2.0748,3.646202 -2.61183,7.330749 l -0.37108,2.545993 -1.76559,-3.390622 c -2.22973,-4.281947 -4.523061,-7.832882 -5.341747,-8.271031 -1.693307,-0.906229 -4.593891,0.471507 -5.648445,2.682928 -0.503364,1.055568 -0.499315,1.133556 0.08834,1.701192 0.338739,0.3272 1.719876,1.048962 3.069197,1.603917 1.685577,0.693251 2.737225,1.353448 3.360573,2.109678 0.955962,1.15975 3.596262,5.823394 3.405112,6.014549 -0.0615,0.0615 -1.16458,-0.385434 -2.4513,-0.993177 -3.622519,-1.710985 -5.880425,-2.171723 -9.768593,-1.993337 -8.464303,0.388336 -15.382982,5.369957 -18.122942,13.048975 -0.597735,1.675211 -0.678113,2.584116 -0.685299,7.749356 -0.009,6.452901 0.379424,9.150813 2.056011,14.281361 3.353628,10.262497 10.707732,19.67812 18.392224,23.547968 3.396632,1.710514 6.295236,2.011006 10.375459,1.075602 z m -43.082955,-8.797698 1.8506,-0.940408 0.345488,0.9153 c 0.339239,0.898745 0.388885,0.9153 2.745214,0.9153 1.319849,0 2.399726,-0.05562 2.399726,-0.12361 0,-0.06798 -0.281545,-0.744074 -0.625654,-1.502426 -0.54262,-1.195824 -0.62742,-2.092443 -0.638959,-6.75592 -0.01536,-6.205552 -0.356217,-9.121938 -1.199521,-10.263026 -0.328215,-0.444117 -1.224654,-1.163321 -1.992087,-1.598234 -1.264733,-0.716736 -1.735793,-0.79075 -5.032786,-0.79075 -3.358325,0 -3.778254,0.06914 -5.472308,0.900981 -1.203086,0.590757 -2.092914,1.298656 -2.584337,2.055951 -0.740339,1.14088 -1.65551,3.730354 -1.403965,3.972517 0.07136,0.0687 1.077151,0.225269 2.235085,0.347927 l 2.105332,0.223017 0.645075,-1.458303 c 0.760937,-1.720218 1.501946,-2.088337 4.203738,-2.088337 1.679972,0 2.009276,0.107732 2.826111,0.924571 1.017437,1.017436 1.224032,2.372138 0.409426,2.684731 -0.283329,0.108722 -2.285374,0.481668 -4.448985,0.828763 -4.502037,0.722237 -6.058826,1.391133 -7.33368,3.151018 -1.545235,2.133136 -1.537084,5.17162 0.01974,7.357976 1.831666,2.572337 7.143752,3.175503 10.946747,1.242962 z m -41.8948,-2.193735 c 0.619397,-1.69616 1.573845,-4.32936 2.120997,-5.851555 l 0.994822,-2.767627 7.640367,0.0027 7.640368,0.0027 2.214101,5.76975 2.214102,5.769747 3.558378,0.08943 c 2.174188,0.05464 3.558378,-0.03116 3.558378,-0.220588 0,-0.170514 -3.573216,-9.035537 -7.940478,-19.700049 -4.367265,-10.664515 -8.013876,-19.572739 -8.103583,-19.79605 -0.121108,-0.301478 -0.983434,-0.382919 -3.349115,-0.3163 l -3.186011,0.08972 -7.379478,19.136165 C 13.90211,70.938239 10.495696,79.940934 10.391014,80.419339 l -0.190331,0.869825 h 3.325558 3.325558 z" transform="matrix(4.867969,0,0,4.867969,-59.449507,42.184767)" /></g><g id="Outline" style="display:inline" transform="matrix(0.20542448,0,0,0.20542448,12.212384,-8.6657839)"><rect style="fill:none;stroke:#000000;stroke-width:1.33306;stroke-dasharray:none;stroke-opacity:1" id="rect1" width="154.88843" height="115.74319" x="2.0926507" y="1.7971287" transform="matrix(4.8679691,0,0,4.8679691,-59.449507,42.184767)" /><path style="display:inline;font-size:22.325px;font-family:'Comic Sans MS';-inkscape-font-specification:'Comic Sans MS';stroke-width:6.43992;fill:#000000;stroke:none;stroke-opacity:1;fill-opacity:1" d="m 511.50571,584.74849 q 0,0.38153 -0.67585,1.11189 -0.50144,0.50144 -0.99198,1.00288 -1.21,1.37351 -1.89675,3.92431 -0.59955,2.22378 -0.59955,4.37126 0,5.53764 2.5072,8.12115 0.50144,0.39243 1.01378,0.78486 0.63225,0.50144 0.63225,0.99198 0,0.35973 -0.28342,0.62135 -0.28342,0.27253 -0.65405,0.27253 -0.32703,0 -0.78487,-0.25072 -4.61107,-2.58351 -4.61107,-10.79187 0,-2.95414 1.1882,-5.98459 1.3299,-3.36837 3.48828,-4.88359 0.43603,-0.30523 0.68675,-0.30523 0.39244,0 0.68676,0.31613 0.29432,0.30522 0.29432,0.69766 z m 7.03107,17.17978 q -2.23468,0 -3.7281,-1.35171 -1.56973,-1.41711 -1.56973,-3.739 0,-2.21288 1.47162,-4.56747 1.63513,-2.61621 3.6845,-2.61621 1.06828,0 2.38729,0.50144 1.66784,0.64315 1.66784,1.56973 0,0.41423 -0.27253,0.74126 -0.27252,0.31612 -0.67585,0.31612 -0.31613,0 -0.55595,-0.18531 -0.22891,-0.19622 -0.44693,-0.38153 -0.64315,-0.51234 -2.10387,-0.51234 -1.11189,0 -2.20198,1.98396 -0.99198,1.82044 -0.99198,3.15035 0,1.43892 0.98108,2.26738 0.91567,0.77397 2.35459,0.77397 0.65405,0 1.39531,-0.34883 l 1.2645,-0.67586 q 0.32703,-0.17441 0.46874,-0.17441 0.40333,0 0.69766,0.32703 0.29432,0.31612 0.29432,0.73035 0,0.79577 -1.67873,1.53703 -1.47162,0.65405 -2.4418,0.65405 z m 12.61232,-7.02016 q 0,8.20836 -4.62198,10.79187 -0.44693,0.25072 -0.77396,0.25072 -0.37063,0 -0.65405,-0.27253 -0.28342,-0.26162 -0.28342,-0.62135 0,-0.49054 0.63225,-0.99198 0.50144,-0.39243 1.01378,-0.78486 2.5072,-2.58351 2.5072,-8.12115 0,-2.14748 -0.59955,-4.37126 -0.69765,-2.5508 -1.89675,-3.92431 -0.50144,-0.50144 -0.99198,-1.00288 -0.67586,-0.73036 -0.67586,-1.11189 0,-0.39244 0.28343,-0.69766 0.29432,-0.31613 0.68675,-0.31613 0.25072,0 0.69766,0.30523 2.15837,1.51522 3.48828,4.88359 1.1882,3.03045 1.1882,5.98459 z m 24.97391,7.23818 q -0.58865,0 -0.97018,-0.61045 -0.32703,-0.52324 -0.58865,-1.74414 l -0.39243,-1.87495 q -0.44693,-1.74414 -1.41711,-7.69602 l -2.18018,6.57323 -0.64315,2.07116 q -0.39243,1.2318 -0.81757,2.01667 -0.45783,0.82846 -1.2318,0.82846 -0.64315,0 -1.01378,-0.69765 -0.23982,-0.45784 -0.43603,-1.1664 l -0.31613,-1.20999 q -1.10099,-3.84801 -1.94035,-8.24107 l -0.39244,1.95126 -1.40621,5.75566 q -0.0872,1.01378 -0.54504,2.99774 -0.32703,0.85027 -1.07919,0.85027 -0.53414,0 -0.85027,-0.38153 -0.27252,-0.32702 -0.27252,-0.80666 0,-1.82045 0.75216,-4.46936 l 1.1991,-4.39306 0.63225,-3.43377 q 0.47964,-2.4091 1.01378,-3.15036 0.43603,-0.63225 1.07919,-0.63225 0.70855,0 1.05738,0.80667 0.42514,0.97017 0.91568,3.95701 0.57774,3.58639 1.79864,7.76143 1.61333,-4.19684 2.79063,-8.7425 l 0.32702,-1.59153 q 0.19622,-0.95928 0.51234,-1.54793 0.42514,-0.80666 1.1664,-0.80666 0.93747,0 1.42801,1.80954 0.17442,0.62135 0.42514,2.57261 0.64315,4.9272 1.60243,8.41548 l 0.53414,1.87495 q 0.41423,1.50432 0.41423,1.85315 0,0.46874 -0.35973,0.78486 -0.34882,0.31613 -0.79576,0.31613 z m 12.02367,-0.18532 q -0.20711,0 -0.75216,-0.47963 -0.49054,-0.44694 -0.73036,-0.79577 -1.04648,0.56685 -1.84225,0.85027 -0.79576,0.29432 -1.3299,0.29432 -2.55081,0 -3.7172,-1.43891 -1.10099,-1.35171 -1.10099,-4.14234 0,-2.63801 1.80954,-4.51296 1.82045,-1.87495 4.33855,-1.87495 0.94838,0 2.12568,0.49054 1.48252,0.61045 1.48252,1.47162 0,0.29432 -0.21802,0.52324 -0.10901,0.41423 -0.17442,1.36261 -0.0545,0.94838 -0.0654,2.43089 -0.0109,1.35171 0.18531,2.13658 0.10901,0.47964 0.68676,1.91855 0.0763,0.19622 0.25072,0.57775 l 0.0654,0.18531 q 0,0.43604 -0.30522,0.71946 -0.30522,0.28342 -0.70856,0.28342 z m -2.26738,-7.57611 q 0,-0.46873 0.0545,-1.01378 0.0654,-0.55594 0.18532,-1.17729 -0.40333,-0.20712 -0.69766,-0.30523 -0.28342,-0.0981 -0.45783,-0.0981 -1.68964,0 -2.92144,1.38442 -1.2209,1.37351 -1.2209,3.17215 0,1.78775 0.63225,2.68162 0.63225,0.89387 1.89676,0.89387 1.04648,0 1.77684,-0.38153 0.39243,-0.20712 1.10099,-0.82847 -0.34883,-2.88873 -0.34883,-4.32765 z m 14.14934,2.15838 -0.25072,3.66269 q -0.0654,2.18018 -0.44694,3.56459 -0.49054,1.76594 -1.56972,2.60531 -1.30811,1.01378 -3.78261,1.01378 -1.44982,0 -2.4309,-0.19621 -1.37351,-0.27253 -1.37351,-1.1337 0,-0.97017 0.94838,-0.97017 0.39243,0 1.30811,0.18531 0.91567,0.19622 2.02756,0.17442 2.09297,-0.0327 2.88873,-2.02757 0.52324,-1.32991 0.55595,-4.08783 -0.58865,1.09009 -1.40622,1.63513 -0.80666,0.54505 -1.85315,0.54505 -1.97306,0 -3.21576,-1.34081 -1.2318,-1.35171 -1.2318,-3.49918 0,-2.94324 1.68964,-4.74188 1.74414,-1.85315 4.75278,-1.85315 1.01379,0 1.70054,0.26162 0.68676,0.26162 1.04649,0.78486 1.16639,0.0327 1.16639,1.2972 0,0.77397 -0.22892,2.07117 -0.25072,1.50432 -0.29432,2.04937 z m -3.49918,-4.72008 q -2.07117,0 -3.20486,1.42801 -1.01378,1.28631 -1.01378,3.27027 0,1.58062 0.59954,2.37639 0.59955,0.79576 1.79865,0.79576 1.10099,0 2.13657,-1.2427 0.93748,-1.14459 1.06829,-2.26738 0.22892,-1.1773 0.49054,-3.6954 -0.43604,-0.33793 -0.90478,-0.50144 -0.46873,-0.16351 -0.97017,-0.16351 z m 8.45908,-4.38216 q -0.52324,0 -0.90477,-0.37063 -0.38153,-0.37063 -0.38153,-0.89387 0,-0.52324 0.38153,-0.89387 0.38153,-0.37063 0.90477,-0.37063 0.52324,0 0.89387,0.37063 0.38153,0.37063 0.38153,0.89387 0,0.52324 -0.38153,0.89387 -0.37063,0.37063 -0.89387,0.37063 z m 0.49054,8.85152 q 0,0.65405 0.0327,1.96216 0.0436,1.2972 0.0436,1.95125 0,0.47964 -0.29433,0.78487 -0.29432,0.30522 -0.77396,0.30522 -0.46874,0 -0.77396,-0.30522 -0.29433,-0.30523 -0.29433,-0.78487 0,-0.65405 -0.0436,-1.95125 -0.0327,-1.30811 -0.0327,-1.96216 0,-1.02469 0.10901,-2.55081 0.10901,-1.53702 0.10901,-2.56171 0,-0.49054 0.29432,-0.79576 0.30522,-0.30522 0.77396,-0.30522 0.46874,0 0.76306,0.30522 0.30523,0.30522 0.30523,0.79576 0,1.02469 -0.10901,2.56171 -0.10901,1.52612 -0.10901,2.55081 z m 8.61169,5.63575 q -2.23468,0 -3.7281,-1.35171 -1.56972,-1.41711 -1.56972,-3.739 0,-2.21288 1.47161,-4.56747 1.63514,-2.61621 3.6845,-2.61621 1.06829,0 2.38729,0.50144 1.66784,0.64315 1.66784,1.56973 0,0.41423 -0.27252,0.74126 -0.27253,0.31612 -0.67586,0.31612 -0.31612,0 -0.55594,-0.18531 -0.22892,-0.19622 -0.44694,-0.38153 -0.64315,-0.51234 -2.10387,-0.51234 -1.11189,0 -2.20198,1.98396 -0.99198,1.82044 -0.99198,3.15035 0,1.43892 0.98108,2.26738 0.91568,0.77397 2.35459,0.77397 0.65406,0 1.39532,-0.34883 l 1.2645,-0.67586 q 0.32702,-0.17441 0.46874,-0.17441 0.40333,0 0.69765,0.32703 0.29433,0.31612 0.29433,0.73035 0,0.79577 -1.67874,1.53703 -1.47162,0.65405 -2.4418,0.65405 z m 9.52737,-7.08557 q -0.30522,0 -1.3299,-0.14171 -0.0872,1.64603 -0.0872,5.76656 0,0.43604 -0.28342,0.74126 -0.28343,0.29433 -0.70856,0.29433 -0.43604,0 -0.71946,-0.29433 -0.28342,-0.30522 -0.28342,-0.74126 v -3.20485 q 0,-1.60243 0.19621,-4.51297 0.21802,-3.15035 0.23982,-4.51296 v -1.50432 q 0,-1.07919 0.13081,-1.56973 0.25073,-0.95928 1.06829,-0.82847 0.34883,-0.10901 0.99198,-0.16351 0.64315,-0.0545 1.58063,-0.0545 1.99486,0 3.739,1.36261 1.91855,1.50433 1.91855,3.6191 0,2.70341 -2.04936,4.30584 -1.83135,1.43892 -4.40396,1.43892 z m 0.54505,-8.6553 q -0.47964,0 -0.86117,0.0218 -0.37063,0.0218 -0.63225,0.0654 l -0.0218,2.00576 -0.22892,4.33855 1.19909,0.14171 q 1.83135,0 3.08495,-0.92657 1.37351,-1.01378 1.37351,-2.73612 0,-1.2209 -1.3081,-2.10387 -1.21,-0.80667 -2.60531,-0.80667 z m 13.17916,15.55556 q -2.4636,0 -3.98972,-1.2318 -1.66783,-1.36261 -1.66783,-3.81531 0,-2.83423 1.37351,-4.75278 1.49342,-2.09297 3.98972,-2.09297 1.80954,0 2.95414,0.61045 1.40621,0.75216 1.40621,2.31098 0,1.09009 -1.2318,1.98396 -0.54504,0.39243 -2.31099,1.2209 l -4.16413,1.97306 q 0.61045,0.90477 1.51522,1.36261 0.91567,0.45784 2.12567,0.45784 0.75216,0 1.76594,-0.28343 1.28631,-0.35972 1.65694,-0.93747 0.37063,-0.58865 0.79576,-0.58865 0.38153,0 0.67586,0.29433 0.30522,0.28342 0.30522,0.66495 0,1.21 -1.95126,2.08207 -1.66783,0.74126 -3.24846,0.74126 z m -0.29432,-9.9307 q -1.32991,0 -2.21288,1.03558 -0.88297,1.02468 -1.31901,3.09585 l 3.34657,-1.59153 q 1.97306,-0.95928 2.81243,-1.66783 -0.93747,-0.87207 -2.62711,-0.87207 z m 15.79537,10.20322 q -0.93748,0 -1.05739,-1.02468 l -0.30522,-2.3873 q -0.15261,-1.2754 -0.15261,-2.38729 0,-0.30522 0.0327,-1.03558 0.0436,-0.73036 0.0436,-1.03559 0,-2.35459 -0.87207,-2.35459 -1.2209,0 -2.33279,1.44982 -1.00288,1.31901 -1.56972,3.33567 -0.0218,0.42513 -0.0981,1.06829 -0.0654,0.54504 -0.0654,1.05738 0,0.32703 0.0654,0.98108 0.0654,0.65405 0.0654,0.98108 0,0.49054 -0.30522,0.79576 -0.29432,0.30523 -0.76306,0.30523 -0.47964,0 -0.77396,-0.30523 -0.29433,-0.30522 -0.29433,-0.79576 0,-0.32703 -0.0763,-0.98108 -0.0654,-0.65405 -0.0654,-0.98108 0,-1.12279 0.15261,-3.10675 0.16352,-1.99486 0.16352,-3.11765 0,-0.34883 -0.0436,-1.03558 -0.0327,-0.68676 -0.0327,-1.03559 0,-0.46874 0.30522,-0.76306 0.31613,-0.30522 0.77397,-0.30522 1.00288,0 1.10099,1.41711 l 0.0327,1.2754 q 1.83135,-2.44179 3.7608,-2.44179 1.74414,0 2.4309,1.53702 0.46874,1.02468 0.51234,3.03044 v 1.10099 l -0.0109,1.01379 q 0,0.90477 0.22892,2.34368 0.23982,1.42802 0.23982,2.32189 0,0.47964 -0.31613,0.77396 -0.30522,0.30523 -0.77396,0.30523 z m 8.25196,-0.0872 q -2.23468,0 -3.7281,-1.35171 -1.56973,-1.41711 -1.56973,-3.739 0,-2.21288 1.47162,-4.56747 1.63513,-2.61621 3.6845,-2.61621 1.06828,0 2.38729,0.50144 1.66783,0.64315 1.66783,1.56973 0,0.41423 -0.27252,0.74126 -0.27252,0.31612 -0.67585,0.31612 -0.31613,0 -0.55595,-0.18531 -0.22892,-0.19622 -0.44693,-0.38153 -0.64316,-0.51234 -2.10387,-0.51234 -1.11189,0 -2.20198,1.98396 -0.99198,1.82044 -0.99198,3.15035 0,1.43892 0.98108,2.26738 0.91567,0.77397 2.35459,0.77397 0.65405,0 1.39531,-0.34883 l 1.2645,-0.67586 q 0.32703,-0.17441 0.46874,-0.17441 0.40333,0 0.69766,0.32703 0.29432,0.31612 0.29432,0.73035 0,0.79577 -1.67873,1.53703 -1.47162,0.65405 -2.4418,0.65405 z m 8.6226,-14.48727 q -0.52325,0 -0.90478,-0.37063 -0.38153,-0.37063 -0.38153,-0.89387 0,-0.52324 0.38153,-0.89387 0.38153,-0.37063 0.90478,-0.37063 0.52324,0 0.89387,0.37063 0.38153,0.37063 0.38153,0.89387 0,0.52324 -0.38153,0.89387 -0.37063,0.37063 -0.89387,0.37063 z m 0.49054,8.85152 q 0,0.65405 0.0327,1.96216 0.0436,1.2972 0.0436,1.95125 0,0.47964 -0.29432,0.78487 -0.29433,0.30522 -0.77396,0.30522 -0.46874,0 -0.77397,-0.30522 -0.29432,-0.30523 -0.29432,-0.78487 0,-0.65405 -0.0436,-1.95125 -0.0327,-1.30811 -0.0327,-1.96216 0,-1.02469 0.10901,-2.55081 0.10901,-1.53702 0.10901,-2.56171 0,-0.49054 0.29433,-0.79576 0.30522,-0.30522 0.77396,-0.30522 0.46874,0 0.76306,0.30522 0.30522,0.30522 0.30522,0.79576 0,1.02469 -0.109,2.56171 -0.10901,1.52612 -0.10901,2.55081 z m 6.45332,-3.61909 -0.16351,5.41773 q 0,0.86117 -0.0872,2.52901 -0.10901,1.09008 -1.06828,1.09008 -1.06829,0 -1.06829,-1.11189 0,-1.319 0.11991,-3.95701 0.11991,-2.64892 0.11991,-3.96792 0,-1.72234 0.0545,-3.93522 0.0545,-2.22378 0.0545,-3.94612 0,-1.09009 1.06828,-1.09009 1.07919,0 1.07919,1.09009 0,1.72234 -0.0545,3.94612 -0.0545,2.21288 -0.0545,3.93522 z m 4.74188,9.58187 q -0.56685,0 -0.95928,-0.39243 -0.39243,-0.39244 -0.39243,-0.95928 0,-0.55595 0.39243,-0.94838 0.39243,-0.40333 0.95928,-0.40333 0.55594,0 0.94838,0.40333 0.40333,0.39243 0.40333,0.94838 0,0.56684 -0.40333,0.95928 -0.39244,0.39243 -0.94838,0.39243 z m 11.48953,-16.34042 q -2.63802,0 -2.95414,3.6627 l -0.0327,0.67585 q 1.85315,-0.13081 2.3982,-0.13081 1.73324,0 1.73324,1.09009 0,0.79576 -0.85027,0.94837 -0.37063,0.0654 -0.87207,0.0545 -0.49054,-0.0218 -2.5072,0.14171 l -0.0872,2.4854 q 0,0.67585 0.0436,2.02756 0.0436,1.35171 0.0436,2.01667 0,2.07116 -0.23982,3.22666 -0.18532,0.87207 -1.01378,0.87207 -0.44694,0 -0.76307,-0.29433 -0.31612,-0.28342 -0.31612,-0.71945 0,-0.0872 0.0218,-0.21802 0.22892,-1.41712 0.22892,-3.08495 l -0.0327,-2.97594 v -3.16126 q -1.36261,0.10901 -1.72234,0.10901 -1.10099,0 -1.10099,-1.05738 0,-1.07919 1.90765,-1.13369 l 1.04649,-0.0327 q 0.0327,-0.61045 0.16351,-1.65693 0.28342,-2.42 1.2209,-3.56459 1.13369,-1.38441 3.54278,-1.38441 1.55883,0 1.55883,1.05739 0,1.04648 -1.41711,1.04648 z m 12.91755,8.96052 q 0,0.78487 0.0109,2.35459 0.0109,1.56973 0.0109,2.35459 0,0.23982 0.0327,0.73036 0.0436,0.49054 0.0436,0.73036 0,0.46874 -0.31612,0.76306 -0.31613,0.30523 -0.77396,0.30523 -0.83937,0 -1.06829,-1.03559 -1.36261,0.70856 -3.13945,0.70856 -1.42802,0 -2.36549,-0.63225 -1.03559,-0.69766 -1.2318,-2.03847 -0.42514,-2.88873 -0.42514,-5.14521 0,-1.49342 0.32703,-3.40107 0.15261,-0.94838 1.03558,-0.94838 0.46874,0 0.78487,0.30522 0.31612,0.29433 0.31612,0.76306 0,0.50145 -0.16351,1.60243 -0.15261,1.10099 -0.15261,1.67874 0,1.82045 0.11991,3.11765 0.1199,1.29721 0.35972,2.08207 0.35973,0.19621 0.70856,0.30522 0.34883,0.0981 0.68676,0.0981 1.46071,0 3.08495,-0.46874 l -0.0109,-2.21287 -0.0218,-2.11478 q 0,-2.35459 0.20712,-4.08783 0.11991,-1.00288 1.05738,-1.00288 0.46874,0 0.78487,0.30523 0.31612,0.30522 0.29432,0.76306 z m 11.07529,7.14008 q -0.93748,0 -1.05739,-1.02468 l -0.30522,-2.3873 q -0.15261,-1.2754 -0.15261,-2.38729 0,-0.30522 0.0327,-1.03558 0.0436,-0.73036 0.0436,-1.03559 0,-2.35459 -0.87207,-2.35459 -1.2209,0 -2.33279,1.44982 -1.00288,1.31901 -1.56972,3.33567 -0.0218,0.42513 -0.0981,1.06829 -0.0654,0.54504 -0.0654,1.05738 0,0.32703 0.0654,0.98108 0.0654,0.65405 0.0654,0.98108 0,0.49054 -0.30523,0.79576 -0.29432,0.30523 -0.76306,0.30523 -0.47964,0 -0.77396,-0.30523 -0.29433,-0.30522 -0.29433,-0.79576 0,-0.32703 -0.0763,-0.98108 -0.0654,-0.65405 -0.0654,-0.98108 0,-1.12279 0.15261,-3.10675 0.16352,-1.99486 0.16352,-3.11765 0,-0.34883 -0.0436,-1.03558 -0.0327,-0.68676 -0.0327,-1.03559 0,-0.46874 0.30523,-0.76306 0.31612,-0.30522 0.77396,-0.30522 1.00288,0 1.10099,1.41711 l 0.0327,1.2754 q 1.83135,-2.44179 3.7608,-2.44179 1.74414,0 2.4309,1.53702 0.46874,1.02468 0.51234,3.03044 v 1.10099 l -0.0109,1.01379 q 0,0.90477 0.22892,2.34368 0.23982,1.42802 0.23982,2.32189 0,0.47964 -0.31613,0.77396 -0.30522,0.30523 -0.77396,0.30523 z" id="text1" aria-label="(c) MagicPencil.fun" /><path style="fill:#000000;stroke-width:0.805614" d="M 95.889903,89.27663 C 91.961513,88.28668 87.33763,84.998865 83.178671,80.238311 76.37217,72.447256 72.45364,62.386386 72.065032,51.703917 c -0.09392,-2.582021 0.20283,-6.564834 0.600256,-8.056096 1.627448,-6.106599 6.106812,-10.718871 12.609448,-12.98357 5.772435,-2.010394 10.909945,-1.504839 16.897684,1.662813 0.84623,0.447673 1.54122,0.774997 1.54443,0.727388 0.0265,-0.392698 -2.51276,-5.067144 -3.47693,-6.400571 -1.010243,-1.397137 -1.371935,-1.610183 -5.138014,-3.026404 -2.209652,-0.830932 -2.532652,-1.576151 -1.34929,-3.113076 0.793637,-1.030749 1.698159,-1.743214 2.728515,-2.149167 1.53067,-0.603068 2.396983,-0.206249 3.732219,1.709561 1.21821,1.747915 3.4037,5.584469 4.74712,8.333433 l 1.10725,2.265689 0.22043,-1.805506 c 0.6205,-5.082304 1.61791,-7.863988 3.3068,-9.222282 0.838,-0.673964 1.43463,-0.792406 3.33154,-0.661372 0.87709,0.06059 1.65397,0.04071 1.85614,-0.04748 0.83088,-0.36248 1.73105,-1.172163 3.47271,-3.123619 2.35895,-2.643085 3.11989,-3.237994 4.06055,-3.174515 0.16606,0.01121 0.82429,0.386055 1.46273,0.832999 2.149,1.504401 2.72945,1.527505 5.27573,0.209993 1.82478,-0.944188 2.4556,-1.163712 3.19974,-1.113494 1.50338,0.101454 1.85009,1.289917 1.06903,3.664523 -1.00202,3.046423 -4.53657,9.032174 -7.02793,11.9018 l -0.94531,1.088837 1.34444,0.183228 c 5.23572,0.71356 9.77994,3.654997 12.70889,8.226345 1.91979,2.996308 2.92153,6.0691 3.36824,10.33189 0.1676,1.599336 0.15799,2.393404 -0.0672,5.554256 -0.76729,10.768436 -3.96354,21.437436 -8.34267,27.847672 -3.33748,4.885429 -6.93972,7.281152 -12.05444,8.016952 -2.44576,0.35186 -6.09165,0.12564 -9.30798,-0.57752 -1.83136,-0.40038 -2.61798,-0.50255 -4.1145,-0.53445 -2.23668,-0.0477 -3.30035,0.0921 -6.14145,0.80715 -2.09006,0.526 -2.25671,0.54433 -4.172187,0.45903 -1.097338,-0.0489 -2.303843,-0.1666 -2.681098,-0.26171 z m 4.293027,-0.3798 c 0.63778,-0.078 1.86306,-0.33277 2.72285,-0.56619 3.40229,-0.92365 6.44166,-1.02342 9.62798,-0.31604 9.40476,2.08789 15.58762,0.39117 20.15292,-5.530403 4.51208,-5.852562 7.64174,-14.697718 9.00931,-25.462485 0.86029,-6.771683 0.53439,-11.353929 -1.10199,-15.494846 -1.26241,-3.194551 -3.07666,-5.752445 -5.46865,-7.710196 -3.00801,-2.461931 -6.22747,-3.682104 -9.85345,-3.73445 -2.92664,-0.04225 -5.49494,0.542243 -11.37509,2.588736 -3.43249,1.194627 -5.69867,1.843574 -6.29693,1.8032 -0.21594,-0.01457 -0.28203,0.0485 -0.22948,0.21899 0.0406,0.131702 0.0697,0.300429 0.0647,0.374951 -0.005,0.07452 0.0923,0.142342 0.21641,0.150714 0.26844,0.01812 2.01655,-0.697295 2.3748,-0.971882 0.21697,-0.166303 0.2745,-0.160156 0.42274,0.04517 0.12641,0.175077 0.12516,0.286527 -0.005,0.423173 -0.28993,0.30499 -1.5659,0.83594 -2.66776,1.110099 -0.89808,0.223457 -1.25692,0.232406 -2.74696,0.06851 -1.62616,-0.178877 -3.67927,-0.778734 -3.65352,-1.067459 0.0322,-0.35711 0.29205,-0.461417 0.69236,-0.277487 0.60264,0.276897 2.41542,0.771525 2.51352,0.685829 0.0459,-0.04012 -0.005,-0.295853 -0.11295,-0.568287 -0.17337,-0.437097 -0.4559,-0.629161 -2.40327,-1.633736 -5.723022,-2.952291 -9.784946,-3.559003 -14.893773,-2.224623 -6.845796,1.78806 -11.78824,6.26552 -13.686151,12.398551 -0.353811,1.143325 -0.434912,1.740275 -0.619803,4.562248 -0.284424,4.340934 -0.06146,7.49002 0.836073,11.809421 1.195158,5.751692 3.738909,11.669388 7.10128,16.520189 4.214799,6.080564 10.055034,10.979739 14.689716,12.322719 1.961281,0.5683 3.038311,0.67751 4.689878,0.47559 z m 6.34313,-53.600014 c 0.193,-0.104574 0.20588,-0.22741 0.0872,-0.831724 -0.56495,-2.876093 -5.25233,-12.034568 -7.549323,-14.750309 -0.647879,-0.765993 -0.762778,-0.839823 -1.370834,-0.880857 -0.480317,-0.03241 -0.852828,0.06012 -1.348315,0.33492 -1.195685,0.663134 -2.500822,2.031661 -2.543715,2.667255 -0.03387,0.501842 0.517412,0.830861 2.636163,1.573342 2.804054,0.982636 3.680714,1.695187 5.291834,4.301235 0.97148,1.571388 1.86149,3.309816 2.90484,5.673917 0.42649,0.966365 0.84295,1.81059 0.92545,1.876056 0.20784,0.164908 0.69544,0.183151 0.96672,0.03617 z m 2.03412,-1.664722 c 0.62546,-0.130452 2.70821,-0.782085 4.62832,-1.448074 1.92011,-0.66599 3.75313,-1.284103 4.07339,-1.373584 0.45505,-0.127148 0.66914,-0.308799 0.97984,-0.831367 0.69348,-1.166393 1.11918,-1.271164 2.82444,-0.695135 0.86272,0.291423 1.11335,0.319231 1.96466,0.217986 1.18182,-0.140553 1.72689,-0.549589 3.25125,-2.439826 3.11745,-3.865714 6.5232,-10.154929 6.74786,-12.46088 0.0823,-0.84505 -0.21093,-1.40262 -0.75569,-1.436832 -0.41333,-0.02599 -1.60065,0.44273 -3.32674,1.313199 -2.40633,1.21352 -3.13098,1.176257 -5.30015,-0.272542 -0.67317,-0.449607 -1.36628,-0.827072 -1.54024,-0.838812 -0.46933,-0.03167 -1.57315,0.926942 -3.33102,2.892835 -1.67207,1.869949 -2.79292,2.871516 -3.63405,3.247305 -0.39337,0.175741 -0.99323,0.220734 -2.45196,0.183918 -2.27753,-0.05749 -2.47297,0.01652 -3.43006,1.298839 -1.22338,1.639107 -1.85818,3.990524 -2.29226,8.490922 -0.208,2.156252 -0.25296,3.140527 -0.14696,3.216335 0.0854,0.06112 0.20918,-0.03482 0.28093,-0.217792 0.0705,-0.179866 0.41995,-0.740927 0.7765,-1.246803 0.35656,-0.505877 0.67508,-1.019709 0.70783,-1.141849 0.0884,-0.329728 0.94954,-2.624705 1.57185,-4.188986 0.61677,-1.550398 1.61522,-3.285596 2.30236,-4.001274 0.68862,-0.717216 0.70577,-0.417728 0.0262,0.457759 -0.3262,0.420265 -0.84495,1.282101 -1.15276,1.915195 -0.51222,1.053519 -1.87499,4.545826 -1.77647,4.552475 0.0232,0.0016 0.55466,-0.55722 1.18122,-1.241733 0.62655,-0.684513 1.66088,-1.665323 2.29851,-2.179581 1.22248,-0.985959 1.7693,-1.732831 4.57986,-6.25533 0.97711,-1.572284 1.41246,-2.125963 1.38812,-1.765404 -0.003,0.0414 -0.83481,1.497458 -1.84892,3.235687 -1.01412,1.738228 -1.84555,3.185586 -1.84763,3.21635 -0.006,0.09169 2.0147,-0.886748 2.66821,-1.291852 0.33285,-0.206332 0.71655,-0.517151 0.85264,-0.69071 0.13611,-0.173559 0.54894,-0.628744 0.91741,-1.011523 1.21049,-1.257489 2.50496,-3.06574 2.80538,-3.918837 0.32759,-0.930247 0.59709,-1.00151 0.32552,-0.08607 -0.24861,0.838 -1.15627,2.319088 -2.18415,3.564046 -1.23136,1.491408 -1.20612,1.434981 -0.54202,1.212156 1.34413,-0.450992 3.17849,-1.810755 5.39022,-3.995641 0.62402,-0.616449 1.10251,-0.979217 1.19979,-0.909629 0.2065,0.147726 -1.38549,1.842746 -2.9467,3.1374 -1.08603,0.900598 -1.11648,0.941651 -0.58916,0.794069 1.44027,-0.403077 2.67198,-0.987769 4.19707,-1.992335 0.91312,-0.601465 1.69301,-1.031531 1.73309,-0.955706 0.0942,0.178178 -2.26053,1.902182 -3.32837,2.436886 -0.45238,0.226529 -1.65086,0.687739 -2.66327,1.024911 -1.94895,0.649081 -5.13713,1.895583 -5.06361,1.979749 0.024,0.0275 0.97059,-0.0573 2.10349,-0.188452 1.13288,-0.131152 2.08491,-0.209706 2.1156,-0.17457 0.12544,0.143601 -1.28014,0.474954 -3.28454,0.774298 -3.53897,0.528526 -5.20748,1.390845 -7.71006,3.984721 -0.74126,0.768304 -0.67275,0.751397 0.75802,-0.187061 1.68623,-1.106014 4.95732,-2.265711 5.85367,-2.075298 0.22192,0.04714 -0.0649,0.181839 -0.87972,0.413052 -4.21426,1.195925 -7.75634,3.794749 -9.43833,6.924908 -0.76054,1.415362 -0.7822,1.39219 0.96161,1.028492 z m 11.8817,-3.810439 c -0.11365,-0.21505 -0.9761,-0.183722 -1.26719,0.04603 -0.47794,0.377245 -0.33993,0.445464 0.5145,0.254306 0.44828,-0.100292 0.78699,-0.235443 0.75269,-0.300336 z" id="path1" ns1:nodetypes="csssssssssssscsscsssssssscssssssssssccsssssssssssssssssscscsssscsssssccsssssssscccsssssscsssssssscssscsssssssssssssssssssssssssscsssssscsccssss" transform="matrix(4.867969,0,0,4.867969,-59.449507,42.184767)" /><g id="text2" style="font-size:48px;font-family:'Comic Sans MS';-inkscape-font-specification:'Comic Sans MS';white-space:pre;fill:none;stroke:#000000;stroke-width:0.890761" transform="matrix(5.4649548,0,0,5.4649548,-85.031275,0.67005549)" aria-label="Aa"><path style="font-family:Arial;-inkscape-font-specification:Arial" d="M 14.480469,79.294806 27.675781,44.935431 h 4.898438 l 14.0625,34.359375 H 41.457031 L 37.449219,68.888556 H 23.082031 l -3.773437,10.40625 z m 9.914062,-14.109375 h 11.648438 l -3.585938,-9.515625 q -1.640625,-4.335937 -2.4375,-7.125 -0.65625,3.304688 -1.851562,6.5625 z" id="path28" /><path style="font-size:33.2551px;font-family:Arial;-inkscape-font-specification:Arial" d="m 60.011339,77.167649 q -1.623784,1.380216 -3.133903,1.948541 -1.493882,0.568324 -3.215093,0.568324 -2.841622,0 -4.367979,-1.380216 -1.526357,-1.396455 -1.526357,-3.556088 0,-1.266551 0.568324,-2.305773 0.584562,-1.05546 1.510119,-1.688736 0.941795,-0.633276 2.11092,-0.958032 0.860605,-0.22733 2.598054,-0.438422 3.53985,-0.422184 5.212348,-1.006746 0.01624,-0.600801 0.01624,-0.763179 0,-1.786163 -0.82813,-2.516865 -1.120411,-0.990509 -3.328758,-0.990509 -2.062206,0 -3.052714,0.730703 -0.974271,0.714465 -1.445168,2.549341 l -2.85786,-0.389708 q 0.389708,-1.834876 1.282789,-2.955287 0.893081,-1.136649 2.581817,-1.737449 1.688736,-0.617038 3.91332,-0.617038 2.208346,0 3.588563,0.519611 1.380217,0.519611 2.02973,1.315265 0.649514,0.779416 0.909319,1.981017 0.146141,0.74694 0.146141,2.695481 v 3.897082 q 0,4.075699 0.178616,5.163634 0.194854,1.071698 0.746941,2.062206 h -3.052714 q -0.45466,-0.909319 -0.584563,-2.127157 z m -0.243567,-6.527613 q -1.591309,0.649514 -4.773926,1.104174 -1.8024,0.259805 -2.549341,0.584562 -0.746941,0.324757 -1.152887,0.958033 -0.405946,0.617038 -0.405946,1.380216 0,1.169125 0.876844,1.948541 0.893081,0.779417 2.598054,0.779417 1.688736,0 3.004001,-0.730703 1.315265,-0.746941 1.932303,-2.029731 0.470898,-0.990508 0.470898,-2.922811 z" id="path30" /></g><text xml:space="preserve" id="text3" style="font-style:normal;font-variant:normal;font-weight:normal;font-stretch:normal;font-size:12px;font-family:Arial;-inkscape-font-specification:Arial;text-align:start;writing-mode:lr-tb;direction:ltr;white-space:pre;shape-inside:url(#rect3);display:inline;fill:#000000;stroke-width:5" transform="matrix(4.867969,0,0,4.867969,579.5425,51.423206)"><tspan x="-34.792969" y="100.63913" id="tspan1">Apple</tspan></text><text xml:space="preserve" id="text27" style="font-size:48px;font-family:'Comic Sans MS';-inkscape-font-specification:'Comic Sans MS';text-align:start;writing-mode:lr-tb;direction:ltr;white-space:pre;shape-inside:url(#rect27);display:none;fill:none;stroke:#000000;stroke-width:0.890761;stroke-dasharray:none;stroke-opacity:1" transform="matrix(5.4649548,0,0,5.4649548,-85.031275,0.67005549)" ns2:label="BaseText"><tspan x="14.550781" y="79.294806" id="tspan4"><tspan style="font-family:Arial;-inkscape-font-specification:Arial" id="tspan2">A</tspan><tspan style="font-size:33.2551px" id="tspan3">a</tspan></tspan></text></g></svg>