<?xml version='1.0' encoding='utf-8'?>
<svg xmlns="http://www.w3.org/2000/svg" xmlns:ns1="http://sodipodi.sourceforge.net/DTD/sodipodi-0.dtd" xmlns:ns2="http://www.inkscape.org/namespaces/inkscape" viewBox="0 0 158.75 119.0625" version="1.1" id="svg1" ns1:docname="C.svg" ns2:version="1.4.2 (f4327f4, 2025-05-13)" xml:space="preserve"><ns1:namedview id="namedview1" pagecolor="#ffffff" bordercolor="#000000" borderopacity="0.25" ns2:showpageshadow="2" ns2:pageopacity="0.0" ns2:pagecheckerboard="0" ns2:deskcolor="#d1d1d1" ns2:zoom="2.2355556" ns2:cx="74.925447" ns2:cy="57.480119" ns2:window-width="1366" ns2:window-height="705" ns2:window-x="-8" ns2:window-y="-8" ns2:window-maximized="1" ns2:current-layer="Color" /><defs id="defs1"><rect x="-34.793027" y="89.829271" width="65.790448" height="16.447613" id="rect3" /><rect x="14.549811" y="36.058228" width="60.729648" height="58.515546" id="rect2" /><clipPath clipPathUnits="userSpaceOnUse" id="clipPath3"><path d="M 0,500 H 500 V 0 H 0 Z" transform="translate(-432.53711,-135.74711)" id="path3" /></clipPath><clipPath clipPathUnits="userSpaceOnUse" id="clipPath5"><path d="M 0,500 H 500 V 0 H 0 Z" transform="translate(-151.34181,-199.4336)" id="path5" /></clipPath><clipPath clipPathUnits="userSpaceOnUse" id="clipPath7"><path d="M 0,500 H 500 V 0 H 0 Z" transform="translate(-151.34181,-199.4336)" id="path7" /></clipPath><clipPath clipPathUnits="userSpaceOnUse" id="clipPath9"><path d="M 0,500 H 500 V 0 H 0 Z" transform="translate(-182.0161,-196.83011)" id="path9" /></clipPath><clipPath clipPathUnits="userSpaceOnUse" id="clipPath11"><path d="M 0,500 H 500 V 0 H 0 Z" transform="translate(-270.2578,-262.13381)" id="path11" /></clipPath><clipPath clipPathUnits="userSpaceOnUse" id="clipPath13"><path d="M 0,500 H 500 V 0 H 0 Z" transform="translate(-270.2578,-262.13381)" id="path13" /></clipPath><clipPath clipPathUnits="userSpaceOnUse" id="clipPath15"><path d="M 0,500 H 500 V 0 H 0 Z" transform="translate(-270.73731,-316.68121)" id="path15" /></clipPath><clipPath clipPathUnits="userSpaceOnUse" id="clipPath17"><path d="M 0,500 H 500 V 0 H 0 Z" transform="translate(-243.895,-297.82131)" id="path17" /></clipPath><clipPath clipPathUnits="userSpaceOnUse" id="clipPath19"><path d="M 0,500 H 500 V 0 H 0 Z" transform="translate(-243.895,-297.82131)" id="path19" /></clipPath><clipPath clipPathUnits="userSpaceOnUse" id="clipPath21"><path d="M 0,500 H 500 V 0 H 0 Z" transform="translate(-227.96341,-327.47461)" id="path21" /></clipPath><clipPath clipPathUnits="userSpaceOnUse" id="clipPath23"><path d="M 0,500 H 500 V 0 H 0 Z" transform="translate(-150.6709,-325.02691)" id="path23" /></clipPath><clipPath clipPathUnits="userSpaceOnUse" id="clipPath25"><path d="M 0,500 H 500 V 0 H 0 Z" transform="translate(-150.6709,-325.02691)" id="path25" /></clipPath><clipPath clipPathUnits="userSpaceOnUse" id="clipPath27"><path d="M 0,500 H 500 V 0 H 0 Z" transform="translate(-115.0161,-334.36131)" id="path27" /></clipPath><clipPath clipPathUnits="userSpaceOnUse" id="clipPath29"><path d="M 0,500 H 500 V 0 H 0 Z" transform="translate(-104.1924,-244.44141)" id="path29" /></clipPath><clipPath clipPathUnits="userSpaceOnUse" id="clipPath31"><path d="M 0,500 H 500 V 0 H 0 Z" transform="translate(-104.1924,-244.44141)" id="path31" /></clipPath><clipPath clipPathUnits="userSpaceOnUse" id="clipPath33"><path d="M 0,500 H 500 V 0 H 0 Z" transform="translate(-79.019004,-177.8154)" id="path33" /></clipPath><clipPath clipPathUnits="userSpaceOnUse" id="clipPath35"><path d="M 0,500 H 500 V 0 H 0 Z" transform="translate(-105.8481,-187.5293)" id="path35" /></clipPath><clipPath clipPathUnits="userSpaceOnUse" id="clipPath37"><path d="M 0,500 H 500 V 0 H 0 Z" transform="translate(-120.3486,-245.5713)" id="path37" /></clipPath><clipPath clipPathUnits="userSpaceOnUse" id="clipPath39"><path d="M 0,500 H 500 V 0 H 0 Z" transform="translate(-43.031301,-294.82521)" id="path39" /></clipPath><clipPath clipPathUnits="userSpaceOnUse" id="clipPath41"><path d="M 0,500 H 500 V 0 H 0 Z" transform="translate(-140.2095,-138.87791)" id="path41" /></clipPath><clipPath clipPathUnits="userSpaceOnUse" id="clipPath43"><path d="M 0,500 H 500 V 0 H 0 Z" transform="translate(-140.2095,-138.87791)" id="path43" /></clipPath><clipPath clipPathUnits="userSpaceOnUse" id="clipPath45"><path d="M 0,500 H 500 V 0 H 0 Z" transform="translate(-131.71041,-136.21781)" id="path45" /></clipPath><clipPath clipPathUnits="userSpaceOnUse" id="clipPath47"><path d="M 0,500 H 500 V 0 H 0 Z" transform="translate(-95.863802,-329.88091)" id="path47" /></clipPath><clipPath clipPathUnits="userSpaceOnUse" id="clipPath49"><path d="M 0,500 H 500 V 0 H 0 Z" transform="translate(-99.722702,-346.67581)" id="path49" /></clipPath><clipPath clipPathUnits="userSpaceOnUse" id="clipPath51"><path d="M 0,500 H 500 V 0 H 0 Z" transform="translate(-99.596702,-349.59371)" id="path51" /></clipPath><clipPath clipPathUnits="userSpaceOnUse" id="clipPath53"><path d="M 0,500 H 500 V 0 H 0 Z" transform="translate(-75.429699,-348.79931)" id="path53" /></clipPath><clipPath clipPathUnits="userSpaceOnUse" id="clipPath55"><path d="M 0,500 H 500 V 0 H 0 Z" transform="translate(-52.736801,-378.31591)" id="path55" /></clipPath><clipPath clipPathUnits="userSpaceOnUse" id="clipPath57"><path d="M 0,500 H 500 V 0 H 0 Z" transform="translate(-71.700202,-397.00241)" id="path57" /></clipPath><clipPath clipPathUnits="userSpaceOnUse" id="clipPath59"><path d="M 0,500 H 500 V 0 H 0 Z" transform="translate(-49.381801,-362.78271)" id="path59" /></clipPath><clipPath clipPathUnits="userSpaceOnUse" id="clipPath61"><path d="M 0,500 H 500 V 0 H 0 Z" transform="translate(-75.429699,-348.79931)" id="path61" /></clipPath><clipPath clipPathUnits="userSpaceOnUse" id="clipPath63"><path d="M 0,500 H 500 V 0 H 0 Z" transform="translate(-52.736801,-378.31591)" id="path63" /></clipPath><clipPath clipPathUnits="userSpaceOnUse" id="clipPath65"><path d="M 0,500 H 500 V 0 H 0 Z" transform="translate(-87.7402,-374.77391)" id="path65" /></clipPath><clipPath clipPathUnits="userSpaceOnUse" id="clipPath67"><path d="M 0,500 H 500 V 0 H 0 Z" transform="translate(-90.202105,-372.51071)" id="path67" /></clipPath><clipPath clipPathUnits="userSpaceOnUse" id="clipPath69"><path d="M 0,500 H 500 V 0 H 0 Z" transform="translate(-43.860801,-338.97661)" id="path69" /></clipPath><clipPath clipPathUnits="userSpaceOnUse" id="clipPath71"><path d="M 0,500 H 500 V 0 H 0 Z" transform="translate(-62.706502,-345.08251)" id="path71" /></clipPath><clipPath clipPathUnits="userSpaceOnUse" id="clipPath73"><path d="M 0,500 H 500 V 0 H 0 Z" transform="translate(-32.944801,-364.06201)" id="path73" /></clipPath><clipPath clipPathUnits="userSpaceOnUse" id="clipPath75"><path d="M 0,500 H 500 V 0 H 0 Z" transform="translate(-32.363801,-386.02201)" id="path75" /></clipPath><clipPath clipPathUnits="userSpaceOnUse" id="clipPath77"><path d="M 0,500 H 500 V 0 H 0 Z" transform="translate(-42.559601,-382.52731)" id="path77" /></clipPath><clipPath clipPathUnits="userSpaceOnUse" id="clipPath79"><path d="M 0,500 H 500 V 0 H 0 Z" transform="translate(-72.010702,-416.37261)" id="path79" /></clipPath><clipPath clipPathUnits="userSpaceOnUse" id="clipPath81"><path d="M 0,500 H 500 V 0 H 0 Z" transform="translate(-88.275902,-375.45461)" id="path81" /></clipPath><clipPath clipPathUnits="userSpaceOnUse" id="clipPath83"><path d="M 0,500 H 500 V 0 H 0 Z" transform="translate(-125.0845,-367.83841)" id="path83" /></clipPath><clipPath clipPathUnits="userSpaceOnUse" id="clipPath85"><path d="M 0,500 H 500 V 0 H 0 Z" transform="translate(-88.761205,-375.09231)" id="path85" /></clipPath><clipPath clipPathUnits="userSpaceOnUse" id="clipPath87"><path d="M 0,500 H 500 V 0 H 0 Z" transform="translate(-125.2983,-381.78861)" id="path87" /></clipPath><clipPath clipPathUnits="userSpaceOnUse" id="clipPath89"><path d="M 0,500 H 500 V 0 H 0 Z" transform="translate(-96.329605,-397.87451)" id="path89" /></clipPath><clipPath clipPathUnits="userSpaceOnUse" id="clipPath91"><path d="M 0,500 H 500 V 0 H 0 Z" transform="translate(-87.3955,-382.24561)" id="path91" /></clipPath><clipPath clipPathUnits="userSpaceOnUse" id="clipPath93"><path d="M 0,500 H 500 V 0 H 0 Z" transform="translate(-125.2983,-381.78861)" id="path93" /></clipPath><clipPath clipPathUnits="userSpaceOnUse" id="clipPath95"><path d="M 0,500 H 500 V 0 H 0 Z" transform="translate(-71.700202,-397.00241)" id="path95" /></clipPath><clipPath clipPathUnits="userSpaceOnUse" id="clipPath97"><path d="M 0,500 H 500 V 0 H 0 Z" transform="translate(-139.3882,-350.70461)" id="path97" /></clipPath><clipPath clipPathUnits="userSpaceOnUse" id="clipPath99"><path d="M 0,500 H 500 V 0 H 0 Z" transform="translate(-97.266602,-377.96481)" id="path99" /></clipPath><clipPath clipPathUnits="userSpaceOnUse" id="clipPath101"><path d="M 0,500 H 500 V 0 H 0 Z" transform="translate(-119.97171,-375.45461)" id="path101" /></clipPath><clipPath clipPathUnits="userSpaceOnUse" id="clipPath103"><path d="M 0,500 H 500 V 0 H 0 Z" transform="translate(-437.25881,-102.749)" id="path103" /></clipPath><clipPath clipPathUnits="userSpaceOnUse" id="clipPath105"><path d="M 0,500 H 500 V 0 H 0 Z" transform="translate(-153.0757,-110.08691)" id="path105" /></clipPath><clipPath clipPathUnits="userSpaceOnUse" id="clipPath107"><path d="M 0,500 H 500 V 0 H 0 Z" transform="translate(-68.039602,-123.2412)" id="path107" /></clipPath><clipPath clipPathUnits="userSpaceOnUse" id="clipPath109"><path d="M 0,500 H 500 V 0 H 0 Z" transform="translate(-98.763205,-118.9268)" id="path109" /></clipPath><clipPath clipPathUnits="userSpaceOnUse" id="clipPath111"><path d="M 0,500 H 500 V 0 H 0 Z" transform="translate(-94.1626,-133.752)" id="path111" /></clipPath><clipPath clipPathUnits="userSpaceOnUse" id="clipPath113"><path d="M 0,500 H 500 V 0 H 0 Z" transform="translate(-130.0093,-133.8818)" id="path113" /></clipPath><clipPath clipPathUnits="userSpaceOnUse" id="clipPath115"><path d="M 0,500 H 500 V 0 H 0 Z" transform="translate(-216.42291,-119.5391)" id="path115" /></clipPath><clipPath clipPathUnits="userSpaceOnUse" id="clipPath117"><path d="M 0,500 H 500 V 0 H 0 Z" transform="translate(-216.4243,-119.54)" id="path117" /></clipPath><clipPath clipPathUnits="userSpaceOnUse" id="clipPath119"><path d="M 0,500 H 500 V 0 H 0 Z" transform="translate(-216.42291,-119.5391)" id="path119" /></clipPath><clipPath clipPathUnits="userSpaceOnUse" id="clipPath121"><path d="M 0,500 H 500 V 0 H 0 Z" transform="translate(-432.46971,-121.0557)" id="path121" /></clipPath><clipPath clipPathUnits="userSpaceOnUse" id="clipPath123"><path d="M 0,500 H 500 V 0 H 0 Z" transform="translate(-427.03711,-133.8525)" id="path123" /></clipPath><clipPath clipPathUnits="userSpaceOnUse" id="clipPath125"><path d="M 0,500 H 500 V 0 H 0 Z" transform="translate(-405.37791,-144.78911)" id="path125" /></clipPath><clipPath clipPathUnits="userSpaceOnUse" id="clipPath127"><path d="M 0,500 H 500 V 0 H 0 Z" transform="translate(-404.70611,-137.2754)" id="path127" /></clipPath><clipPath clipPathUnits="userSpaceOnUse" id="clipPath129"><path d="M 0,500 H 500 V 0 H 0 Z" transform="translate(-432.46971,-121.0557)" id="path129" /></clipPath><clipPath clipPathUnits="userSpaceOnUse" id="clipPath131"><path d="M 0,500 H 500 V 0 H 0 Z" transform="translate(-327.13481,-114.4746)" id="path131" /></clipPath><clipPath clipPathUnits="userSpaceOnUse" id="clipPath133"><path d="M 0,500 H 500 V 0 H 0 Z" transform="translate(-376.72071,-396.30321)" id="path133" /></clipPath><clipPath clipPathUnits="userSpaceOnUse" id="clipPath135"><path d="M 0,500 H 500 V 0 H 0 Z" transform="translate(-345.24221,-355.45311)" id="path135" /></clipPath><clipPath clipPathUnits="userSpaceOnUse" id="clipPath137"><path d="M 0,500 H 500 V 0 H 0 Z" transform="translate(-315.50001,-373.42481)" id="path137" /></clipPath><clipPath clipPathUnits="userSpaceOnUse" id="clipPath139"><path d="M 0,500 H 500 V 0 H 0 Z" transform="translate(-312.87011,-392.23001)" id="path139" /></clipPath><clipPath clipPathUnits="userSpaceOnUse" id="clipPath141"><path d="M 0,500 H 500 V 0 H 0 Z" transform="translate(-328.25681,-433.48831)" id="path141" /></clipPath><clipPath clipPathUnits="userSpaceOnUse" id="clipPath143"><path d="M 0,500 H 500 V 0 H 0 Z" transform="translate(-371.31351,-429.34471)" id="path143" /></clipPath><clipPath clipPathUnits="userSpaceOnUse" id="clipPath145"><path d="M 0,500 H 500 V 0 H 0 Z" transform="translate(-356.50101,-401.37401)" id="path145" /></clipPath><clipPath clipPathUnits="userSpaceOnUse" id="clipPath147"><path d="M 0,500 H 500 V 0 H 0 Z" transform="translate(-356.68651,-383.02541)" id="path147" /></clipPath><clipPath clipPathUnits="userSpaceOnUse" id="clipPath149"><path d="M 0,500 H 500 V 0 H 0 Z" transform="translate(-339.52251,-412.63771)" id="path149" /></clipPath><clipPath clipPathUnits="userSpaceOnUse" id="clipPath151"><path d="M 0,500 H 500 V 0 H 0 Z" transform="translate(-376.35061,-419.38281)" id="path151" /></clipPath><clipPath clipPathUnits="userSpaceOnUse" id="clipPath153"><path d="M 0,500 H 500 V 0 H 0 Z" transform="translate(-364.11821,-384.56741)" id="path153" /></clipPath><clipPath clipPathUnits="userSpaceOnUse" id="clipPath155"><path d="M 0,500 H 500 V 0 H 0 Z" transform="translate(-376.72071,-396.30321)" id="path155" /></clipPath><clipPath clipPathUnits="userSpaceOnUse" id="clipPath157"><path d="M 0,500 H 500 V 0 H 0 Z" transform="translate(-313.61911,-296.27291)" id="path157" /></clipPath><clipPath clipPathUnits="userSpaceOnUse" id="clipPath159"><path d="M 0,500 H 500 V 0 H 0 Z" transform="translate(-305.04881,-316.07621)" id="path159" /></clipPath><clipPath clipPathUnits="userSpaceOnUse" id="clipPath161"><path d="M 0,500 H 500 V 0 H 0 Z" transform="translate(-300.53611,-275.20511)" id="path161" /></clipPath><clipPath clipPathUnits="userSpaceOnUse" id="clipPath163"><path d="M 0,500 H 500 V 0 H 0 Z" transform="translate(-319.84181,-243.67191)" id="path163" /></clipPath><clipPath clipPathUnits="userSpaceOnUse" id="clipPath165"><path d="M 0,500 H 500 V 0 H 0 Z" transform="translate(-338.39361,-241.03421)" id="path165" /></clipPath><clipPath clipPathUnits="userSpaceOnUse" id="clipPath167"><path d="M 0,500 H 500 V 0 H 0 Z" transform="translate(-320.49711,-352.96141)" id="path167" /></clipPath><clipPath clipPathUnits="userSpaceOnUse" id="clipPath169"><path d="M 0,500 H 500 V 0 H 0 Z" transform="translate(-431.04981,-326.64161)" id="path169" /></clipPath><clipPath clipPathUnits="userSpaceOnUse" id="clipPath171"><path d="M 0,500 H 500 V 0 H 0 Z" transform="translate(-372.06351,-226.83401)" id="path171" /></clipPath><clipPath clipPathUnits="userSpaceOnUse" id="clipPath173"><path d="M 0,500 H 500 V 0 H 0 Z" transform="translate(-399.95511,-220.86041)" id="path173" /></clipPath><clipPath clipPathUnits="userSpaceOnUse" id="clipPath175"><path d="M 0,500 H 500 V 0 H 0 Z" transform="translate(-323.42581,-269.89451)" id="path175" /></clipPath><clipPath clipPathUnits="userSpaceOnUse" id="clipPath177"><path d="M 0,500 H 500 V 0 H 0 Z" transform="translate(-355.10741,-259.54641)" id="path177" /></clipPath><clipPath clipPathUnits="userSpaceOnUse" id="clipPath179"><path d="M 0,500 H 500 V 0 H 0 Z" transform="translate(-313.61911,-296.27291)" id="path179" /></clipPath><clipPath clipPathUnits="userSpaceOnUse" id="clipPath181"><path d="M 0,500 H 500 V 0 H 0 Z" transform="translate(-369.42681,-281.5425)" id="path181" /></clipPath><clipPath clipPathUnits="userSpaceOnUse" id="clipPath183"><path d="M 0,500 H 500 V 0 H 0 Z" transform="translate(-336.97751,-317.55571)" id="path183" /></clipPath><clipPath clipPathUnits="userSpaceOnUse" id="clipPath185"><path d="M 0,500 H 500 V 0 H 0 Z" transform="translate(-313.62011,-296.27151)" id="path185" /></clipPath><clipPath clipPathUnits="userSpaceOnUse" id="clipPath187"><path d="M 0,500 H 500 V 0 H 0 Z" transform="translate(-369.07811,-322.24461)" id="path187" /></clipPath><clipPath clipPathUnits="userSpaceOnUse" id="clipPath189"><path d="M 0,500 H 500 V 0 H 0 Z" transform="translate(-336.97751,-317.55571)" id="path189" /></clipPath><clipPath clipPathUnits="userSpaceOnUse" id="clipPath191"><path d="M 0,500 H 500 V 0 H 0 Z" transform="translate(-401.02541,-318.82371)" id="path191" /></clipPath><clipPath clipPathUnits="userSpaceOnUse" id="clipPath193"><path d="M 0,500 H 500 V 0 H 0 Z" transform="translate(-369.07811,-322.24411)" id="path193" /></clipPath><clipPath clipPathUnits="userSpaceOnUse" id="clipPath195"><path d="M 0,500 H 500 V 0 H 0 Z" transform="translate(-401.98341,-287.1846)" id="path195" /></clipPath><clipPath clipPathUnits="userSpaceOnUse" id="clipPath197"><path d="M 0,500 H 500 V 0 H 0 Z" transform="translate(-401.02541,-318.82371)" id="path197" /></clipPath><clipPath clipPathUnits="userSpaceOnUse" id="clipPath199"><path d="M 0,500 H 500 V 0 H 0 Z" transform="translate(-385.65231,-244.13481)" id="path199" /></clipPath><clipPath clipPathUnits="userSpaceOnUse" id="clipPath201"><path d="M 0,500 H 500 V 0 H 0 Z" transform="translate(-361.43161,-257.66991)" id="path201" /></clipPath><clipPath clipPathUnits="userSpaceOnUse" id="clipPath203"><path d="M 0,500 H 500 V 0 H 0 Z" transform="translate(-361.72851,-265.84031)" id="path203" /></clipPath><clipPath clipPathUnits="userSpaceOnUse" id="clipPath205"><path d="M 0,500 H 500 V 0 H 0 Z" transform="translate(-402.13871,-265.52591)" id="path205" /></clipPath><clipPath clipPathUnits="userSpaceOnUse" id="clipPath207"><path d="M 0,500 H 500 V 0 H 0 Z" transform="translate(-385.65231,-244.13571)" id="path207" /></clipPath><clipPath clipPathUnits="userSpaceOnUse" id="clipPath209"><path d="M 0,500 H 500 V 0 H 0 Z" transform="translate(-402.13771,-265.52541)" id="path209" /></clipPath><clipPath clipPathUnits="userSpaceOnUse" id="clipPath211"><path d="M 0,500 H 500 V 0 H 0 Z" transform="translate(-355.10741,-259.54641)" id="path211" /></clipPath><clipPath clipPathUnits="userSpaceOnUse" id="clipPath213"><path d="M 0,500 H 500 V 0 H 0 Z" transform="translate(-242.46831,-133.5723)" id="path213" /></clipPath><clipPath clipPathUnits="userSpaceOnUse" id="clipPath215"><path d="M 0,500 H 500 V 0 H 0 Z" transform="translate(-210.0742,-231.25001)" id="path215" /></clipPath><clipPath clipPathUnits="userSpaceOnUse" id="clipPath217"><path d="M 0,500 H 500 V 0 H 0 Z" transform="translate(-184.9072,-258.88431)" id="path217" /></clipPath><clipPath clipPathUnits="userSpaceOnUse" id="clipPath219"><path d="M 0,500 H 500 V 0 H 0 Z" transform="translate(-148.6821,-295.10451)" id="path219" /></clipPath><clipPath clipPathUnits="userSpaceOnUse" id="clipPath221"><path d="M 0,500 H 500 V 0 H 0 Z" transform="translate(-147.19731,-276.85691)" id="path221" /></clipPath><clipPath clipPathUnits="userSpaceOnUse" id="clipPath223"><path d="M 0,500 H 500 V 0 H 0 Z" transform="translate(-145.4277,-259.17381)" id="path223" /></clipPath><clipPath clipPathUnits="userSpaceOnUse" id="clipPath225"><path d="M 0,500 H 500 V 0 H 0 Z" transform="translate(-144.6172,-243.18261)" id="path225" /></clipPath><clipPath clipPathUnits="userSpaceOnUse" id="clipPath227"><path d="M 0,500 H 500 V 0 H 0 Z" transform="translate(-145.23831,-226.34181)" id="path227" /></clipPath><clipPath clipPathUnits="userSpaceOnUse" id="clipPath229"><path d="M 0,500 H 500 V 0 H 0 Z" transform="translate(-148.04301,-210.12111)" id="path229" /></clipPath><clipPath clipPathUnits="userSpaceOnUse" id="clipPath231"><path d="M 0,500 H 500 V 0 H 0 Z" transform="translate(-154.3618,-192.44921)" id="path231" /></clipPath><clipPath clipPathUnits="userSpaceOnUse" id="clipPath233"><path d="M 0,500 H 500 V 0 H 0 Z" transform="translate(-163.56201,-176.61521)" id="path233" /></clipPath><clipPath clipPathUnits="userSpaceOnUse" id="clipPath235"><path d="M 0,500 H 500 V 0 H 0 Z" transform="translate(-179.42721,-158.4932)" id="path235" /></clipPath><clipPath clipPathUnits="userSpaceOnUse" id="clipPath237"><path d="M 0,500 H 500 V 0 H 0 Z" transform="translate(-168.06741,-111.37211)" id="path237" /></clipPath><clipPath clipPathUnits="userSpaceOnUse" id="clipPath239"><path d="M 0,500 H 500 V 0 H 0 Z" transform="translate(-171.1729,-117.8379)" id="path239" /></clipPath><clipPath clipPathUnits="userSpaceOnUse" id="clipPath241"><path d="M 0,500 H 500 V 0 H 0 Z" transform="translate(-262.65531,-102.97271)" id="path241" /></clipPath><clipPath clipPathUnits="userSpaceOnUse" id="clipPath243"><path d="M 0,500 H 500 V 0 H 0 Z" transform="translate(-256.89841,-105.15821)" id="path243" /></clipPath><clipPath clipPathUnits="userSpaceOnUse" id="clipPath245"><path d="M 0,500 H 500 V 0 H 0 Z" transform="translate(-197.36961,-145.5762)" id="path245" /></clipPath><clipPath clipPathUnits="userSpaceOnUse" id="clipPath247"><path d="M 0,500 H 500 V 0 H 0 Z" transform="translate(-218.4478,-137.4365)" id="path247" /></clipPath><clipPath clipPathUnits="userSpaceOnUse" id="clipPath249"><path d="M 0,500 H 500 V 0 H 0 Z" transform="translate(-252.6064,-248.63481)" id="path249" /></clipPath><clipPath clipPathUnits="userSpaceOnUse" id="clipPath251"><path d="M 0,500 H 500 V 0 H 0 Z" transform="translate(-263.56351,-232.1865)" id="path251" /></clipPath><clipPath clipPathUnits="userSpaceOnUse" id="clipPath253"><path d="M 0,500 H 500 V 0 H 0 Z" transform="translate(-280.915,-228.33591)" id="path253" /></clipPath><clipPath clipPathUnits="userSpaceOnUse" id="clipPath255"><path d="M 0,500 H 500 V 0 H 0 Z" transform="translate(-279.01861,-215.27831)" id="path255" /></clipPath><clipPath clipPathUnits="userSpaceOnUse" id="clipPath257"><path d="M 0,500 H 500 V 0 H 0 Z" transform="translate(-267.748,-214.49321)" id="path257" /></clipPath><clipPath clipPathUnits="userSpaceOnUse" id="clipPath259"><path d="M 0,500 H 500 V 0 H 0 Z" transform="translate(-309.81641,-206.8818)" id="path259" /></clipPath><clipPath clipPathUnits="userSpaceOnUse" id="clipPath261"><path d="M 0,500 H 500 V 0 H 0 Z" transform="translate(-322.25681,-187.8135)" id="path261" /></clipPath><clipPath clipPathUnits="userSpaceOnUse" id="clipPath263"><path d="M 0,500 H 500 V 0 H 0 Z" transform="translate(-329.74901,-169.2236)" id="path263" /></clipPath><clipPath clipPathUnits="userSpaceOnUse" id="clipPath265"><path d="M 0,500 H 500 V 0 H 0 Z" transform="translate(-341.73931,-143.08301)" id="path265" /></clipPath><clipPath clipPathUnits="userSpaceOnUse" id="clipPath267"><path d="M 0,500 H 500 V 0 H 0 Z" transform="translate(-354.48051,-143.9541)" id="path267" /></clipPath><clipPath clipPathUnits="userSpaceOnUse" id="clipPath269"><path d="M 0,500 H 500 V 0 H 0 Z" transform="translate(-341.77441,-168.3789)" id="path269" /></clipPath><clipPath clipPathUnits="userSpaceOnUse" id="clipPath271"><path d="M 0,500 H 500 V 0 H 0 Z" transform="translate(-385.95121,-98.459002)" id="path271" /></clipPath><clipPath clipPathUnits="userSpaceOnUse" id="clipPath273"><path d="M 0,500 H 500 V 0 H 0 Z" transform="translate(-379.38281,-132.7695)" id="path273" /></clipPath><clipPath clipPathUnits="userSpaceOnUse" id="clipPath275"><path d="M 0,500 H 500 V 0 H 0 Z" transform="translate(-180.59571,-341.57131)" id="path275" /></clipPath><clipPath clipPathUnits="userSpaceOnUse" id="clipPath277"><path d="M 0,500 H 500 V 0 H 0 Z" transform="translate(-189.04101,-346.05371)" id="path277" /></clipPath><clipPath clipPathUnits="userSpaceOnUse" id="clipPath279"><path d="M 0,500 H 500 V 0 H 0 Z" transform="translate(-184.69431,-261.6948)" id="path279" /></clipPath><clipPath clipPathUnits="userSpaceOnUse" id="clipPath281"><path d="M 0,500 H 500 V 0 H 0 Z" transform="translate(-198.0361,-215.9238)" id="path281" /></clipPath><clipPath clipPathUnits="userSpaceOnUse" id="clipPath283"><path d="M 0,500 H 500 V 0 H 0 Z" transform="translate(-187.3789,-215.26761)" id="path283" /></clipPath><clipPath clipPathUnits="userSpaceOnUse" id="clipPath285"><path d="M 0,500 H 500 V 0 H 0 Z" transform="translate(-180.43551,-218.77541)" id="path285" /></clipPath><clipPath clipPathUnits="userSpaceOnUse" id="clipPath287"><path d="M 0,500 H 500 V 0 H 0 Z" transform="translate(-175.2612,-228.13961)" id="path287" /></clipPath><clipPath clipPathUnits="userSpaceOnUse" id="clipPath289"><path d="M 0,500 H 500 V 0 H 0 Z" transform="translate(-244.6279,-404.04541)" id="path289" /></clipPath><clipPath clipPathUnits="userSpaceOnUse" id="clipPath291"><path d="M 0,500 H 500 V 0 H 0 Z" transform="translate(-228.89061,-353.46631)" id="path291" /></clipPath><clipPath clipPathUnits="userSpaceOnUse" id="clipPath293"><path d="M 0,500 H 500 V 0 H 0 Z" transform="translate(-183.4443,-384.64701)" id="path293" /></clipPath><clipPath clipPathUnits="userSpaceOnUse" id="clipPath295"><path d="M 0,500 H 500 V 0 H 0 Z" transform="translate(-225.19921,-396.14601)" id="path295" /></clipPath><clipPath clipPathUnits="userSpaceOnUse" id="clipPath297"><path d="M 0,500 H 500 V 0 H 0 Z" transform="translate(-203.1001,-348.71041)" id="path297" /></clipPath><clipPath clipPathUnits="userSpaceOnUse" id="clipPath299"><path d="M 0,500 H 500 V 0 H 0 Z" transform="translate(-165.3213,-379.77441)" id="path299" /></clipPath><clipPath clipPathUnits="userSpaceOnUse" id="clipPath301"><path d="M 0,500 H 500 V 0 H 0 Z" transform="translate(-177.6465,-379.95211)" id="path301" /></clipPath><clipPath clipPathUnits="userSpaceOnUse" id="clipPath303"><path d="M 0,500 H 500 V 0 H 0 Z" transform="translate(-230.05221,-388.11181)" id="path303" /></clipPath><clipPath clipPathUnits="userSpaceOnUse" id="clipPath305"><path d="M 0,500 H 500 V 0 H 0 Z" transform="translate(-211.17331,-139.4316)" id="path305" /></clipPath><clipPath clipPathUnits="userSpaceOnUse" id="clipPath307"><path d="M 0,500 H 500 V 0 H 0 Z" transform="translate(-162.37701,-177.70511)" id="path307" /></clipPath><clipPath clipPathUnits="userSpaceOnUse" id="clipPath309"><path d="M 0,500 H 500 V 0 H 0 Z" transform="translate(-146.4858,-215.95611)" id="path309" /></clipPath><clipPath clipPathUnits="userSpaceOnUse" id="clipPath311"><path d="M 0,500 H 500 V 0 H 0 Z" transform="translate(-147.6426,-281.3652)" id="path311" /></clipPath><clipPath clipPathUnits="userSpaceOnUse" id="clipPath313"><path d="M 0,500 H 500 V 0 H 0 Z" transform="translate(-212.31691,-438.15091)" id="path313" /></clipPath><clipPath clipPathUnits="userSpaceOnUse" id="clipPath315"><path d="M 0,500 H 500 V 0 H 0 Z" transform="translate(-217.1611,-433.01421)" id="path315" /></clipPath><clipPath clipPathUnits="userSpaceOnUse" id="clipPath317"><path d="M 0,500 H 500 V 0 H 0 Z" transform="translate(-147.6421,-281.3652)" id="path317" /></clipPath><clipPath clipPathUnits="userSpaceOnUse" id="clipPath319"><path d="M 0,500 H 500 V 0 H 0 Z" transform="translate(-161.75781,-91.345702)" id="path319" /></clipPath><clipPath clipPathUnits="userSpaceOnUse" id="clipPath321"><path d="M 0,500 H 500 V 0 H 0 Z" transform="translate(-175.57281,-91.524405)" id="path321" /></clipPath><clipPath clipPathUnits="userSpaceOnUse" id="clipPath323"><path d="M 0,500 H 500 V 0 H 0 Z" transform="translate(-151.83351,-93.239302)" id="path323" /></clipPath><clipPath clipPathUnits="userSpaceOnUse" id="clipPath325"><path d="M 0,500 H 500 V 0 H 0 Z" transform="translate(-164.938,-102.69731)" id="path325" /></clipPath><clipPath clipPathUnits="userSpaceOnUse" id="clipPath327"><path d="M 0,500 H 500 V 0 H 0 Z" transform="translate(-149.7358,-106.25591)" id="path327" /></clipPath><clipPath clipPathUnits="userSpaceOnUse" id="clipPath329"><path d="M 0,500 H 500 V 0 H 0 Z" transform="translate(-154.3066,-102.4287)" id="path329" /></clipPath><clipPath clipPathUnits="userSpaceOnUse" id="clipPath331"><path d="M 0,500 H 500 V 0 H 0 Z" transform="translate(-149.7363,-106.2539)" id="path331" /></clipPath><clipPath clipPathUnits="userSpaceOnUse" id="clipPath333"><path d="M 0,500 H 500 V 0 H 0 Z" transform="translate(-200.9458,-119.4854)" id="path333" /></clipPath><clipPath clipPathUnits="userSpaceOnUse" id="clipPath335"><path d="M 0,500 H 500 V 0 H 0 Z" transform="translate(-175.57281,-91.524405)" id="path335" /></clipPath><clipPath clipPathUnits="userSpaceOnUse" id="clipPath337"><path d="M 0,500 H 500 V 0 H 0 Z" transform="translate(-200.9458,-119.4854)" id="path337" /></clipPath><clipPath clipPathUnits="userSpaceOnUse" id="clipPath339"><path d="M 0,500 H 500 V 0 H 0 Z" transform="translate(-148.8901,-300.44871)" id="path339" /></clipPath><clipPath clipPathUnits="userSpaceOnUse" id="clipPath341"><path d="M 0,500 H 500 V 0 H 0 Z" transform="translate(-193.96581,-213.05471)" id="path341" /></clipPath><clipPath clipPathUnits="userSpaceOnUse" id="clipPath343"><path d="M 0,500 H 500 V 0 H 0 Z" transform="translate(-261.6592,-74.062499)" id="path343" /></clipPath><clipPath clipPathUnits="userSpaceOnUse" id="clipPath345"><path d="M 0,500 H 500 V 0 H 0 Z" transform="translate(-281.6641,-73.378904)" id="path345" /></clipPath><clipPath clipPathUnits="userSpaceOnUse" id="clipPath347"><path d="M 0,500 H 500 V 0 H 0 Z" transform="translate(-249.1333,-77.140604)" id="path347" /></clipPath><clipPath clipPathUnits="userSpaceOnUse" id="clipPath349"><path d="M 0,500 H 500 V 0 H 0 Z" transform="translate(-264.82131,-87.2715)" id="path349" /></clipPath><clipPath clipPathUnits="userSpaceOnUse" id="clipPath351"><path d="M 0,500 H 500 V 0 H 0 Z" transform="translate(-246.79251,-92.9004)" id="path351" /></clipPath><clipPath clipPathUnits="userSpaceOnUse" id="clipPath353"><path d="M 0,500 H 500 V 0 H 0 Z" transform="translate(-252.4375,-90.031305)" id="path353" /></clipPath><clipPath clipPathUnits="userSpaceOnUse" id="clipPath355"><path d="M 0,500 H 500 V 0 H 0 Z" transform="translate(-295.7959,-134.51861)" id="path355" /></clipPath><clipPath clipPathUnits="userSpaceOnUse" id="clipPath357"><path d="M 0,500 H 500 V 0 H 0 Z" transform="translate(-281.6641,-73.378904)" id="path357" /></clipPath><clipPath clipPathUnits="userSpaceOnUse" id="clipPath359"><path d="M 0,500 H 500 V 0 H 0 Z" transform="translate(-294.24901,-139.74221)" id="path359" /></clipPath><clipPath clipPathUnits="userSpaceOnUse" id="clipPath361"><path d="M 0,500 H 500 V 0 H 0 Z" transform="translate(-174.46971,-233.32031)" id="path361" /></clipPath><clipPath clipPathUnits="userSpaceOnUse" id="clipPath363"><path d="M 0,500 H 500 V 0 H 0 Z" transform="translate(-435.21781,-118.0029)" id="path363" /></clipPath><clipPath clipPathUnits="userSpaceOnUse" id="clipPath365"><path d="M 0,500 H 500 V 0 H 0 Z" transform="translate(-222.87451,-273.3579)" id="path365" /></clipPath><clipPath clipPathUnits="userSpaceOnUse" id="clipPath367"><path d="M 0,500 H 500 V 0 H 0 Z" transform="translate(-211.97311,-287.7129)" id="path367" /></clipPath><clipPath clipPathUnits="userSpaceOnUse" id="clipPath369"><path d="M 0,500 H 500 V 0 H 0 Z" transform="translate(-192.3208,-318.48581)" id="path369" /></clipPath><clipPath clipPathUnits="userSpaceOnUse" id="clipPath371"><path d="M 0,500 H 500 V 0 H 0 Z" transform="translate(-203.1001,-348.71041)" id="path371" /></clipPath><clipPath clipPathUnits="userSpaceOnUse" id="clipPath373"><path d="M 0,500 H 500 V 0 H 0 Z" transform="translate(-241.7158,-419.51461)" id="path373" /></clipPath><clipPath clipPathUnits="userSpaceOnUse" id="clipPath375"><path d="M 0,500 H 500 V 0 H 0 Z" transform="translate(-229.41751,-435.30081)" id="path375" /></clipPath><clipPath clipPathUnits="userSpaceOnUse" id="clipPath377"><path d="M 0,500 H 500 V 0 H 0 Z" transform="translate(-212.31691,-438.15041)" id="path377" /></clipPath><clipPath clipPathUnits="userSpaceOnUse" id="clipPath379"><path d="M 0,500 H 500 V 0 H 0 Z" transform="translate(-230.53561,-431.04981)" id="path379" /></clipPath><clipPath clipPathUnits="userSpaceOnUse" id="clipPath381"><path d="M 0,500 H 500 V 0 H 0 Z" transform="translate(-200.44921,-304.96681)" id="path381" /></clipPath><clipPath clipPathUnits="userSpaceOnUse" id="clipPath383"><path d="M 0,500 H 500 V 0 H 0 Z" transform="translate(-192.3208,-318.48581)" id="path383" /></clipPath><clipPath clipPathUnits="userSpaceOnUse" id="clipPath385"><path d="M 0,500 H 500 V 0 H 0 Z" transform="translate(-200.44921,-304.96681)" id="path385" /></clipPath><clipPath clipPathUnits="userSpaceOnUse" id="clipPath387"><path d="M 0,500 H 500 V 0 H 0 Z" transform="translate(-242.5444,-263.98241)" id="path387" /></clipPath><clipPath clipPathUnits="userSpaceOnUse" id="clipPath389"><path d="M 0,500 H 500 V 0 H 0 Z" transform="translate(-222.874,-273.3579)" id="path389" /></clipPath><clipPath clipPathUnits="userSpaceOnUse" id="clipPath391"><path d="M 0,500 H 500 V 0 H 0 Z" transform="translate(-261.97951,-254.5728)" id="path391" /></clipPath><clipPath clipPathUnits="userSpaceOnUse" id="clipPath393"><path d="M 0,500 H 500 V 0 H 0 Z" transform="translate(-242.5444,-263.98241)" id="path393" /></clipPath><clipPath clipPathUnits="userSpaceOnUse" id="clipPath395"><path d="M 0,500 H 500 V 0 H 0 Z" transform="translate(-284.5234,-247.34471)" id="path395" /></clipPath><clipPath clipPathUnits="userSpaceOnUse" id="clipPath397"><path d="M 0,500 H 500 V 0 H 0 Z" transform="translate(-261.97951,-254.5728)" id="path397" /></clipPath><clipPath clipPathUnits="userSpaceOnUse" id="clipPath399"><path d="M 0,500 H 500 V 0 H 0 Z" transform="translate(-306.22461,-235.83111)" id="path399" /></clipPath><clipPath clipPathUnits="userSpaceOnUse" id="clipPath401"><path d="M 0,500 H 500 V 0 H 0 Z" transform="translate(-284.5234,-247.34471)" id="path401" /></clipPath><clipPath clipPathUnits="userSpaceOnUse" id="clipPath403"><path d="M 0,500 H 500 V 0 H 0 Z" transform="translate(-323.62701,-215.97171)" id="path403" /></clipPath><clipPath clipPathUnits="userSpaceOnUse" id="clipPath405"><path d="M 0,500 H 500 V 0 H 0 Z" transform="translate(-306.22461,-235.83111)" id="path405" /></clipPath><clipPath clipPathUnits="userSpaceOnUse" id="clipPath407"><path d="M 0,500 H 500 V 0 H 0 Z" transform="translate(-338.43851,-196.10351)" id="path407" /></clipPath><clipPath clipPathUnits="userSpaceOnUse" id="clipPath409"><path d="M 0,500 H 500 V 0 H 0 Z" transform="translate(-323.62701,-215.97171)" id="path409" /></clipPath><clipPath clipPathUnits="userSpaceOnUse" id="clipPath411"><path d="M 0,500 H 500 V 0 H 0 Z" transform="translate(-349.30081,-178.14161)" id="path411" /></clipPath><clipPath clipPathUnits="userSpaceOnUse" id="clipPath413"><path d="M 0,500 H 500 V 0 H 0 Z" transform="translate(-338.43851,-196.10351)" id="path413" /></clipPath><clipPath clipPathUnits="userSpaceOnUse" id="clipPath415"><path d="M 0,500 H 500 V 0 H 0 Z" transform="translate(-360.88771,-160.3232)" id="path415" /></clipPath><clipPath clipPathUnits="userSpaceOnUse" id="clipPath417"><path d="M 0,500 H 500 V 0 H 0 Z" transform="translate(-349.30081,-178.14161)" id="path417" /></clipPath><clipPath clipPathUnits="userSpaceOnUse" id="clipPath419"><path d="M 0,500 H 500 V 0 H 0 Z" transform="translate(-372.44241,-146.8164)" id="path419" /></clipPath><clipPath clipPathUnits="userSpaceOnUse" id="clipPath421"><path d="M 0,500 H 500 V 0 H 0 Z" transform="translate(-360.88771,-160.3232)" id="path421" /></clipPath><clipPath clipPathUnits="userSpaceOnUse" id="clipPath423"><path d="M 0,500 H 500 V 0 H 0 Z" transform="translate(-386.25491,-135.37211)" id="path423" /></clipPath><clipPath clipPathUnits="userSpaceOnUse" id="clipPath425"><path d="M 0,500 H 500 V 0 H 0 Z" transform="translate(-372.44241,-146.8164)" id="path425" /></clipPath><clipPath clipPathUnits="userSpaceOnUse" id="clipPath427"><path d="M 0,500 H 500 V 0 H 0 Z" transform="translate(-401.10251,-128.24711)" id="path427" /></clipPath><clipPath clipPathUnits="userSpaceOnUse" id="clipPath429"><path d="M 0,500 H 500 V 0 H 0 Z" transform="translate(-386.25491,-135.37211)" id="path429" /></clipPath><clipPath clipPathUnits="userSpaceOnUse" id="clipPath431"><path d="M 0,500 H 500 V 0 H 0 Z" transform="translate(-413.76071,-123.0801)" id="path431" /></clipPath><clipPath clipPathUnits="userSpaceOnUse" id="clipPath433"><path d="M 0,500 H 500 V 0 H 0 Z" transform="translate(-401.10161,-128.24711)" id="path433" /></clipPath><clipPath clipPathUnits="userSpaceOnUse" id="clipPath435"><path d="M 0,500 H 500 V 0 H 0 Z" transform="translate(-425.78911,-120.54)" id="path435" /></clipPath><clipPath clipPathUnits="userSpaceOnUse" id="clipPath437"><path d="M 0,500 H 500 V 0 H 0 Z" transform="translate(-413.75981,-123.0801)" id="path437" /></clipPath><clipPath clipPathUnits="userSpaceOnUse" id="clipPath439"><path d="M 0,500 H 500 V 0 H 0 Z" transform="translate(-425.78811,-120.54)" id="path439" /></clipPath><clipPath clipPathUnits="userSpaceOnUse" id="clipPath441"><path d="M 0,500 H 500 V 0 H 0 Z" transform="translate(-229.41751,-435.30081)" id="path441" /></clipPath><clipPath clipPathUnits="userSpaceOnUse" id="clipPath443"><path d="M 0,500 H 500 V 0 H 0 Z" transform="translate(-195.1851,-416.87351)" id="path443" /></clipPath><clipPath clipPathUnits="userSpaceOnUse" id="clipPath445"><path d="M 0,500 H 500 V 0 H 0 Z" transform="translate(-194.6499,-409.87941)" id="path445" /></clipPath><clipPath clipPathUnits="userSpaceOnUse" id="clipPath447"><path d="M 0,500 H 500 V 0 H 0 Z" transform="translate(-180.8179,-416.55571)" id="path447" /></clipPath><clipPath clipPathUnits="userSpaceOnUse" id="clipPath449"><path d="M 0,500 H 500 V 0 H 0 Z" transform="translate(-198.2974,-216.10161)" id="path449" /></clipPath><clipPath clipPathUnits="userSpaceOnUse" id="clipPath451"><path d="M 0,500 H 500 V 0 H 0 Z" transform="translate(-197.6113,-434.94731)" id="path451" /></clipPath><clipPath clipPathUnits="userSpaceOnUse" id="clipPath453"><path d="M 0,500 H 500 V 0 H 0 Z" transform="translate(-181.1304,-402.84721)" id="path453" /></clipPath><clipPath clipPathUnits="userSpaceOnUse" id="clipPath455"><path d="M 0,500 H 500 V 0 H 0 Z" transform="translate(-242.46831,-133.5723)" id="path455" /></clipPath><clipPath clipPathUnits="userSpaceOnUse" id="clipPath457"><path d="M 0,500 H 500 V 0 H 0 Z" transform="translate(-246.79251,-92.899402)" id="path457" /></clipPath><clipPath clipPathUnits="userSpaceOnUse" id="clipPath459"><path d="M 0,500 H 500 V 0 H 0 Z" transform="translate(-318.30371,-121.8018)" id="path459" /></clipPath><clipPath clipPathUnits="userSpaceOnUse" id="clipPath461"><path d="M 0,500 H 500 V 0 H 0 Z" transform="translate(-324.81151,-137.6904)" id="path461" /></clipPath><clipPath clipPathUnits="userSpaceOnUse" id="clipPath463"><path d="M 0,500 H 500 V 0 H 0 Z" transform="translate(-244.49661,-366.76711)" id="path463" /></clipPath><clipPath clipPathUnits="userSpaceOnUse" id="clipPath465"><path d="M 0,500 H 500 V 0 H 0 Z" transform="translate(-243.4399,-375.14401)" id="path465" /></clipPath><clipPath clipPathUnits="userSpaceOnUse" id="clipPath467"><path d="M 0,500 H 500 V 0 H 0 Z" transform="translate(-253.43071,-381.39501)" id="path467" /></clipPath><clipPath clipPathUnits="userSpaceOnUse" id="clipPath469"><path d="M 0,500 H 500 V 0 H 0 Z" transform="translate(-243.12451,-390.81981)" id="path469" /></clipPath><clipPath clipPathUnits="userSpaceOnUse" id="clipPath471"><path d="M 0,500 H 500 V 0 H 0 Z" transform="translate(-253.43551,-396.48051)" id="path471" /></clipPath><clipPath clipPathUnits="userSpaceOnUse" id="clipPath473"><path d="M 0,500 H 500 V 0 H 0 Z" transform="translate(-173.79741,-438.61521)" id="path473" /></clipPath><clipPath clipPathUnits="userSpaceOnUse" id="clipPath475"><path d="M 0,500 H 500 V 0 H 0 Z" transform="translate(-180.8169,-448.72901)" id="path475" /></clipPath><clipPath clipPathUnits="userSpaceOnUse" id="clipPath477"><path d="M 0,500 H 500 V 0 H 0 Z" transform="translate(-188.0278,-438.81051)" id="path477" /></clipPath><clipPath clipPathUnits="userSpaceOnUse" id="clipPath479"><path d="M 0,500 H 500 V 0 H 0 Z" transform="translate(-164.4438,-429.47951)" id="path479" /></clipPath><clipPath clipPathUnits="userSpaceOnUse" id="clipPath481"><path d="M 0,500 H 500 V 0 H 0 Z" transform="translate(-223.02781,-442.81351)" id="path481" /></clipPath><clipPath clipPathUnits="userSpaceOnUse" id="clipPath483"><path d="M 0,500 H 500 V 0 H 0 Z" transform="translate(-224.1406,-432.02691)" id="path483" /></clipPath><clipPath clipPathUnits="userSpaceOnUse" id="clipPath485"><path d="M 0,500 H 500 V 0 H 0 Z" transform="translate(-238.43601,-430.93951)" id="path485" /></clipPath><clipPath clipPathUnits="userSpaceOnUse" id="clipPath487"><path d="M 0,500 H 500 V 0 H 0 Z" transform="translate(-224.20951,-252.1665)" id="path487" /></clipPath><clipPath clipPathUnits="userSpaceOnUse" id="clipPath489"><path d="M 0,500 H 500 V 0 H 0 Z" transform="translate(-211.53421,-248.99801)" id="path489" /></clipPath><clipPath clipPathUnits="userSpaceOnUse" id="clipPath491"><path d="M 0,500 H 500 V 0 H 0 Z" transform="translate(-217.62211,-256.78221)" id="path491" /></clipPath><clipPath clipPathUnits="userSpaceOnUse" id="clipPath493"><path d="M 0,500 H 500 V 0 H 0 Z" transform="translate(-193.0039,-310.81641)" id="path493" /></clipPath><clipPath clipPathUnits="userSpaceOnUse" id="clipPath495"><path d="M 0,500 H 500 V 0 H 0 Z" transform="translate(-195.34371,-304.73681)" id="path495" /></clipPath><clipPath clipPathUnits="userSpaceOnUse" id="clipPath497"><path d="M 0,500 H 500 V 0 H 0 Z" transform="translate(-205.90621,-306.07471)" id="path497" /></clipPath><clipPath clipPathUnits="userSpaceOnUse" id="clipPath499"><path d="M 0,500 H 500 V 0 H 0 Z" transform="translate(-212.42241,-304.53171)" id="path499" /></clipPath><clipPath clipPathUnits="userSpaceOnUse" id="clipPath501"><path d="M 0,500 H 500 V 0 H 0 Z" transform="translate(-230.47221,-278.2026)" id="path501" /></clipPath><clipPath clipPathUnits="userSpaceOnUse" id="clipPath503"><path d="M 0,500 H 500 V 0 H 0 Z" transform="translate(-236.38531,-277.57761)" id="path503" /></clipPath><clipPath clipPathUnits="userSpaceOnUse" id="clipPath505"><path d="M 0,500 H 500 V 0 H 0 Z" transform="translate(-236.61771,-261.92871)" id="path505" /></clipPath><clipPath clipPathUnits="userSpaceOnUse" id="clipPath507"><path d="M 0,500 H 500 V 0 H 0 Z" transform="translate(-248.12551,-268.7295)" id="path507" /></clipPath><clipPath clipPathUnits="userSpaceOnUse" id="clipPath509"><path d="M 0,500 H 500 V 0 H 0 Z" transform="translate(-253.9453,-252.41061)" id="path509" /></clipPath><clipPath clipPathUnits="userSpaceOnUse" id="clipPath511"><path d="M 0,500 H 500 V 0 H 0 Z" transform="translate(-268.85841,-261.021)" id="path511" /></clipPath><clipPath clipPathUnits="userSpaceOnUse" id="clipPath513"><path d="M 0,500 H 500 V 0 H 0 Z" transform="translate(-278.84671,-263.01861)" id="path513" /></clipPath><clipPath clipPathUnits="userSpaceOnUse" id="clipPath515"><path d="M 0,500 H 500 V 0 H 0 Z" transform="translate(-277.45411,-241.44431)" id="path515" /></clipPath><clipPath clipPathUnits="userSpaceOnUse" id="clipPath517"><path d="M 0,500 H 500 V 0 H 0 Z" transform="translate(-291.00781,-251.98731)" id="path517" /></clipPath><clipPath clipPathUnits="userSpaceOnUse" id="clipPath519"><path d="M 0,500 H 500 V 0 H 0 Z" transform="translate(-291.583,-231.55271)" id="path519" /></clipPath><clipPath clipPathUnits="userSpaceOnUse" id="clipPath521"><path d="M 0,500 H 500 V 0 H 0 Z" transform="translate(-305.82131,-246.04391)" id="path521" /></clipPath><clipPath clipPathUnits="userSpaceOnUse" id="clipPath523"><path d="M 0,500 H 500 V 0 H 0 Z" transform="translate(-304.58111,-219.6426)" id="path523" /></clipPath><clipPath clipPathUnits="userSpaceOnUse" id="clipPath525"><path d="M 0,500 H 500 V 0 H 0 Z" transform="translate(-320.65331,-233.27051)" id="path525" /></clipPath><clipPath clipPathUnits="userSpaceOnUse" id="clipPath527"><path d="M 0,500 H 500 V 0 H 0 Z" transform="translate(-312.40621,-210.22071)" id="path527" /></clipPath><clipPath clipPathUnits="userSpaceOnUse" id="clipPath529"><path d="M 0,500 H 500 V 0 H 0 Z" transform="translate(-320.37791,-199.96481)" id="path529" /></clipPath><clipPath clipPathUnits="userSpaceOnUse" id="clipPath531"><path d="M 0,500 H 500 V 0 H 0 Z" transform="translate(-338.23141,-211.09571)" id="path531" /></clipPath><clipPath clipPathUnits="userSpaceOnUse" id="clipPath533"><path d="M 0,500 H 500 V 0 H 0 Z" transform="translate(-333.24611,-180.9609)" id="path533" /></clipPath><clipPath clipPathUnits="userSpaceOnUse" id="clipPath535"><path d="M 0,500 H 500 V 0 H 0 Z" transform="translate(-349.75291,-190.0703)" id="path535" /></clipPath><clipPath clipPathUnits="userSpaceOnUse" id="clipPath537"><path d="M 0,500 H 500 V 0 H 0 Z" transform="translate(-356.27731,-176.8418)" id="path537" /></clipPath><clipPath clipPathUnits="userSpaceOnUse" id="clipPath539"><path d="M 0,500 H 500 V 0 H 0 Z" transform="translate(-350.46971,-157.752)" id="path539" /></clipPath><clipPath clipPathUnits="userSpaceOnUse" id="clipPath541"><path d="M 0,500 H 500 V 0 H 0 Z" transform="translate(-366.06051,-160.3232)" id="path541" /></clipPath><clipPath clipPathUnits="userSpaceOnUse" id="clipPath543"><path d="M 0,500 H 500 V 0 H 0 Z" transform="translate(-364.13671,-143.793)" id="path543" /></clipPath><clipPath clipPathUnits="userSpaceOnUse" id="clipPath545"><path d="M 0,500 H 500 V 0 H 0 Z" transform="translate(-377.46781,-147.89261)" id="path545" /></clipPath><clipPath clipPathUnits="userSpaceOnUse" id="clipPath547"><path d="M 0,500 H 500 V 0 H 0 Z" transform="translate(-378.89751,-133.4639)" id="path547" /></clipPath><clipPath clipPathUnits="userSpaceOnUse" id="clipPath549"><path d="M 0,500 H 500 V 0 H 0 Z" transform="translate(-391.97171,-136.3086)" id="path549" /></clipPath><clipPath clipPathUnits="userSpaceOnUse" id="clipPath551"><path d="M 0,500 H 500 V 0 H 0 Z" transform="translate(-398.54881,-133.02641)" id="path551" /></clipPath><clipPath clipPathUnits="userSpaceOnUse" id="clipPath553"><path d="M 0,500 H 500 V 0 H 0 Z" transform="translate(-407.65531,-128.1602)" id="path553" /></clipPath><clipPath clipPathUnits="userSpaceOnUse" id="clipPath555"><path d="M 0,500 H 500 V 0 H 0 Z" transform="translate(-419.66311,-123.8027)" id="path555" /></clipPath><clipPath clipPathUnits="userSpaceOnUse" id="clipPath557"><path d="M 0,500 H 500 V 0 H 0 Z" transform="translate(-429.65331,-121.5996)" id="path557" /></clipPath><rect x="14.549811" y="36.058228" width="60.729648" height="58.515546" id="rect27" /><rect x="14.549811" y="36.058228" width="60.729648" height="58.515546" id="rect7" /></defs><g id="Color" style="display:inline" transform="matrix(0.20542448,0,0,0.20542448,12.212384,-8.6657839)"><path style="fill:transparent;stroke-width:0.3163;stroke:none" d="m 100.02995,90.067733 c -0.938757,-0.314254 -1.121147,-1.075646 -0.524655,-2.190203 0.281008,-0.525067 0.130564,-1.114423 -0.809377,-3.170682 -1.595643,-3.490705 -2.821462,-7.375865 -3.623144,-11.48334 -0.373492,-1.913617 -0.748023,-3.799557 -0.83229,-4.190979 -0.185752,-0.862823 -1.283148,-0.965573 -1.543733,-0.144543 -0.617047,1.944143 1.796779,12.225059 3.818892,16.265342 0.410676,0.820549 0.746683,1.656768 0.746683,1.858264 0,0.53345 -1.686877,0.128459 -4.029903,-0.967515 -3.450997,-1.614241 -5.924097,-4.667915 -7.16348,-8.84515 -0.659217,-2.221832 -0.66579,-7.188695 -0.01376,-10.393835 1.119893,-5.504937 4.850318,-14.815503 5.806283,-14.491587 0.274011,0.09284 1.480169,0.517335 2.680351,0.943315 2.279845,0.809179 2.858789,0.801749 3.182121,-0.04084 C 97.9818,52.544016 97.429946,52.091001 95.522675,51.408969 85.72787,47.906393 81.939904,39.2708 85.908856,29.491932 c 0.683417,-1.68383 0.685814,-1.748419 0.171727,-4.626566 -0.286751,-1.605392 -0.520291,-3.693549 -0.518976,-4.640348 0.006,-4.341382 1.304495,-8.255781 2.809645,-8.470029 1.117152,-0.15902 4.471116,1.683504 7.211077,3.961456 1.580198,1.313746 2.602055,1.952193 2.924307,1.827079 0.272438,-0.105774 1.705194,-0.483062 3.183894,-0.838419 3.29998,-0.793038 7.78709,-0.64874 11.34041,0.364689 l 2.32585,0.663349 1.39019,-1.281431 c 1.89991,-1.751277 5.37808,-3.958932 7.00463,-4.445964 1.19886,-0.35897 1.41191,-0.340261 1.98002,0.173879 1.62979,1.474938 2.29354,7.285908 1.43211,12.537767 -0.49983,3.047249 -0.50463,3.427735 -0.0543,4.298678 0.89396,1.728727 1.783,5.569291 1.77513,7.6684 -0.0156,4.161112 -1.3104,7.31196 -4.22517,10.281816 -1.53699,1.566031 -2.5855,2.278346 -5.09796,3.463346 -4.11788,1.9422 -4.05588,1.908144 -4.18627,2.299316 -0.0616,0.184836 0.10681,0.554898 0.37427,0.822362 0.56556,0.565557 1.71588,0.332871 4.54945,-0.92027 0.94243,-0.416788 1.811,-0.757801 1.93014,-0.757801 0.25996,0 2.73261,4.14142 4.07267,6.821296 1.33428,2.6683 3.06563,7.773354 3.53822,10.432781 0.56843,3.198741 0.28325,8.052707 -0.60828,10.353339 -1.75987,4.541439 -5.64671,7.469975 -11.01447,8.298839 -1.62333,0.250668 -1.64999,0.108653 -0.4333,-2.308375 1.90017,-3.774825 3.77198,-10.911621 3.91739,-14.936166 0.0689,-1.908166 0.0239,-2.063112 -0.62621,-2.15556 -0.52071,-0.07404 -0.73678,0.08831 -0.84186,0.6326 -1.55747,8.066861 -2.53096,11.476218 -4.47698,15.679298 -0.87684,1.893803 -1.08979,2.688049 -0.93877,3.501377 0.25439,1.370121 -0.25546,1.952901 -1.7085,1.952901 -1.5129,0 -2.45147,-0.692663 -2.90564,-2.144351 -0.20976,-0.670478 -0.43407,-4.212304 -0.52134,-8.231948 -0.1508,-6.945929 -0.16346,-7.053651 -0.81737,-6.958606 -0.99533,0.144673 -1.20104,1.778636 -1.0973,8.716062 l 0.091,6.089118 -0.79085,-3.39e-4 -0.79086,-3.38e-4 0.0913,-4.823579 c 0.0502,-2.652968 -0.0209,-5.96226 -0.15805,-7.353981 -0.23859,-2.421749 -0.28325,-2.530402 -1.04005,-2.530402 h -0.79075 l -0.0403,6.642306 c -0.0228,3.752526 -0.19323,7.201701 -0.39182,7.928106 -0.57861,2.116334 -2.17633,3.172821 -3.91703,2.590114 z m 5.80944,-47.333523 c 0.72578,-0.587698 0.75391,-0.587698 1.50105,0 0.83085,0.653549 2.57778,0.788378 3.54032,0.273247 0.72468,-0.387841 1.66922,-2.094851 1.40009,-2.530314 -0.32586,-0.527241 -0.81506,-0.34175 -1.75642,0.665979 -0.70083,0.750245 -1.07383,0.923959 -1.62933,0.758813 -1.61617,-0.480484 -1.94393,-1.902883 -0.72041,-3.1264 0.89739,-0.897395 1.0324,-1.924293 0.29043,-2.209016 -0.27518,-0.105595 -1.24306,-0.19199 -2.15085,-0.19199 -2.5619,0 -3.11569,0.972284 -1.43047,2.511493 1.13267,1.03453 1.11339,1.744592 -0.0713,2.628243 -1.01132,0.754313 -2.05944,0.516457 -2.55939,-0.580817 -0.46593,-1.022611 -1.51145,-1.023084 -1.51145,-6.83e-4 0,1.917442 3.44924,3.136333 5.09776,1.801445 z m -8.007831,-4.273677 c 3.426781,-1.782954 3.691091,-6.651971 0.476161,-8.771738 -1.226971,-0.809004 -4.029634,-0.792234 -5.381763,0.0322 -1.2439,0.758445 -2.305936,2.748073 -2.305936,4.319964 0,1.546638 1.282416,3.688884 2.595767,4.336169 1.288463,0.635019 3.47949,0.674609 4.615771,0.0834 z m 22.128201,-0.186494 c 1.4733,-0.898284 2.28769,-2.395494 2.2891,-4.208395 0.001,-1.704518 -0.49433,-2.858935 -1.71863,-4.002781 -1.24198,-1.160361 -4.34274,-1.308661 -5.83925,-0.279274 -4.10454,2.823337 -2.16343,9.124276 2.80963,9.120159 0.86668,-7.17e-4 1.83363,-0.248321 2.45915,-0.629709 z M 89.939318,23.10245 c 0.553669,-0.688968 1.929675,-1.911311 3.057789,-2.716316 1.128115,-0.805006 2.051118,-1.631517 2.051118,-1.836691 0,-1.198349 -4.718722,-5.264833 -6.109278,-5.264833 -1.444195,0 -2.40253,4.274057 -1.826593,8.146384 0.193289,1.299588 0.42948,2.489166 0.524867,2.643506 0.383867,0.62111 1.349443,0.213399 2.302097,-0.97205 z m 36.080252,-1.268012 c 0.74231,-3.911336 -0.2435,-8.549828 -1.81709,-8.549828 -1.49961,0 -6.32231,4.441713 -5.97134,5.499613 0.0642,0.193568 0.94508,0.919897 1.95747,1.614065 1.01239,0.694168 2.352,1.873795 2.97691,2.621394 1.69603,2.028999 2.29092,1.781951 2.85405,-1.185244 z" id="path2" transform="matrix(4.867969,0,0,4.867969,-59.449507,42.184767)" /><path id="path6" style="fill:transparent;stroke-width:0.15815;stroke:none" d="m 88.427416,21.565419 c -0.184856,-1.348674 -0.107338,-4.314054 0.141238,-5.402887 0.35594,-1.559118 0.382792,-1.581996 1.256093,-1.070207 0.785328,0.460233 2.74749,2.235851 3.248919,2.940044 l 0.301123,0.422889 -1.298309,0.885041 c -0.71407,0.486772 -1.758842,1.351652 -2.321716,1.921955 -0.562874,0.570302 -1.069165,1.036914 -1.125092,1.036914 -0.05593,0 -0.146942,-0.330187 -0.202256,-0.733749 z m 34.838914,-0.433506 c -0.65879,-0.636704 -1.71528,-1.521045 -2.34773,-1.965203 l -1.14993,-0.807559 1.39884,-1.406713 c 1.57599,-1.584864 2.83962,-2.435887 3.07481,-2.070815 0.50983,0.791364 0.81159,3.482999 0.61592,5.493896 -0.0818,0.84055 -0.15054,1.617233 -0.15279,1.725961 -0.007,0.35176 -0.2208,0.207893 -1.43912,-0.969567 z" transform="matrix(4.867969,0,0,4.867969,-59.449507,42.184767)" /><path style="fill:transparent;stroke-width:0.15815;stroke:none" d="m 129.92033,82.944177 c 0,-0.04655 0.11542,-0.260795 0.25649,-0.476094 0.14107,-0.215299 0.52478,-1.041839 0.85269,-1.836756 l 0.59621,-1.4453 0.89472,-0.36401 c 3.22723,-1.312983 5.46554,-4.691659 5.46554,-8.25011 0,-2.203501 -0.39242,-3.433882 -2.35731,-7.390932 -2.29872,-4.629347 -2.66346,-5.870318 -2.50147,-8.510944 0.30302,-4.939671 3.54723,-8.475569 7.78456,-8.484451 3.31052,-0.0069 6.17291,2.471032 6.50305,5.629695 0.12688,1.213934 -0.10903,1.952005 -0.8248,2.580463 -0.97007,0.851731 -2.11915,0.608708 -2.90385,-0.614147 -0.92788,-1.445972 -1.66159,-1.90835 -3.02822,-1.90835 -1.86762,0 -3.29058,1.555882 -3.54368,3.874678 -0.17721,1.623576 0.21182,2.926315 1.95719,6.553972 0.86038,1.788235 1.64317,3.464838 1.73955,3.725786 0.69995,1.895095 0.89465,5.125051 0.42846,7.107618 -1.10059,4.680429 -4.86626,8.442268 -9.57948,9.569735 -1.39936,0.334745 -1.73965,0.381524 -1.73965,0.239147 z" id="path8" transform="matrix(4.867969,0,0,4.867969,-59.449507,42.184767)" /><path style="fill:transparent;stroke-width:0.15815;stroke:none" d="m 24.355119,85.731196 c -2.264027,-0.621843 -3.799545,-1.551326 -5.552026,-3.360761 -1.777735,-1.835511 -2.748642,-3.553148 -3.427157,-6.063 -0.280706,-1.038341 -0.339861,-1.676385 -0.329907,-3.558378 0.01873,-3.540929 0.751422,-6.543471 2.484192,-10.180087 2.189328,-4.594804 6.267768,-9.854788 9.589016,-12.367002 1.47017,-1.112045 3.685795,-2.200509 5.135998,-2.523149 1.410718,-0.313855 4.520495,-0.264538 5.799998,0.09198 l 0.731803,0.203908 0.508307,-0.578929 c 0.628046,-0.715306 1.543751,-1.013513 2.177008,-0.708961 0.9958,0.478908 1.395763,1.772629 1.573532,5.089728 0.11715,2.186002 0.01211,2.795457 -0.602456,3.495405 -0.622423,0.708901 -1.343173,0.857567 -2.143641,0.442161 -0.468004,-0.242872 -0.752625,-0.607116 -1.395108,-1.785383 -1.152992,-2.114505 -1.189999,-2.134562 -3.938239,-2.134562 h -2.254011 l -1.331951,0.665228 c -1.671921,0.83502 -3.49333,2.38323 -5.197772,4.418139 -4.428802,5.287482 -6.71647,10.177552 -7.062203,15.09601 -0.21412,3.046096 0.741056,5.672332 2.778438,7.639258 1.878253,1.813302 3.954587,2.478799 6.672226,2.138554 2.652152,-0.332046 4.399645,-1.145436 8.298814,-3.862779 1.166936,-0.813241 2.334591,-1.525379 2.594793,-1.582528 0.939441,-0.206337 2.207785,0.993526 2.207785,2.08858 0,0.885979 -0.406418,1.417672 -2.12633,2.781762 -2.760164,2.18913 -5.474013,3.631677 -8.257099,4.389066 -1.829473,0.497873 -5.412923,0.583525 -6.93401,0.16574 z" id="path10" transform="matrix(4.867969,0,0,4.867969,-59.449507,42.184767)" /><path style="fill:transparent;stroke-width:0.15815;stroke:none" d="m 53.782904,86.507508 c -2.969736,-0.530882 -5.257795,-2.30234 -6.285688,-4.866497 -0.312722,-0.78011 -0.36332,-1.189823 -0.365708,-2.961324 -0.0032,-2.355289 0.272443,-3.501225 1.365098,-5.675684 1.334007,-2.654765 2.881976,-4.458691 4.513518,-5.259832 0.80593,-0.395738 1.08455,-0.449109 2.263344,-0.433554 2.296018,0.0303 5.267866,1.229536 5.797079,2.339308 0.216631,0.45428 0.22118,0.586894 0.03356,0.978355 -0.119373,0.249063 -0.408062,0.52002 -0.641529,0.602127 -0.36757,0.129267 -0.537165,0.06423 -1.264834,-0.485032 -1.24341,-0.938559 -1.716635,-1.080245 -3.607973,-1.080245 -1.571838,0 -1.696749,0.02453 -2.337476,0.459079 -1.412412,0.957912 -3.200898,4.014719 -3.849419,6.579269 -0.401629,1.588227 -0.344541,3.205836 0.15282,4.330202 0.475089,1.074017 1.610162,2.19711 2.754941,2.725865 0.900438,0.415897 1.139466,0.455396 2.755787,0.455396 h 1.769831 L 58.6248,83.303668 c 0.983701,-0.5012 1.907925,-0.910414 2.053832,-0.909363 0.321177,0.0023 0.920841,0.72748 0.920841,1.113563 0,0.448458 -0.804617,1.183186 -1.903749,1.738388 -2.235167,1.129041 -4.249189,1.55865 -5.91282,1.261252 z" id="path12" transform="matrix(4.867969,0,0,4.867969,-59.449507,42.184767)" /><path style="fill:transparent;stroke-width:0.15815;stroke:none" d="M 2.7676272,58.278321 V 2.530402 H 79.470438 156.17325 V 58.278321 114.02624 H 79.470438 2.7676272 Z M 102.50577,92.124007 c 0.97511,-0.289578 1.98947,-1.005288 2.46484,-1.739136 l 0.35737,-0.551685 1.61539,-0.002 1.61538,-0.002 0.91502,0.929225 c 1.18884,1.207299 2.30579,1.655305 3.91987,1.572245 1.39278,-0.07167 2.46665,-0.567399 3.08838,-1.42566 0.24776,-0.342027 0.47266,-0.685135 0.49977,-0.762464 0.0271,-0.07733 0.72513,-0.222437 1.55115,-0.322464 3.53589,-0.428177 6.52398,-1.737445 8.84428,-3.875219 l 0.88253,-0.813105 1.45852,-0.107959 c 2.00222,-0.148203 3.63248,-0.5917 5.50009,-1.496251 7.25088,-3.511864 10.22178,-11.80076 6.97235,-19.453064 -0.23453,-0.552322 -0.88643,-1.897769 -1.44866,-2.989882 -1.75589,-3.410759 -2.08307,-5.321225 -1.12616,-6.575802 0.76282,-1.00011 1.53161,-0.969492 2.19591,0.08746 1.69275,2.693295 4.47905,3.124175 6.42614,0.993752 0.91713,-1.003483 1.22151,-1.896791 1.18904,-3.489689 -0.041,-2.012786 -1.1538,-4.414819 -2.6408,-5.70036 -1.68141,-1.453625 -3.51895,-2.129037 -5.79966,-2.131745 -1.88532,-0.0022 -2.75853,0.187889 -4.26574,0.928789 -4.59258,2.257585 -6.77255,8.538785 -4.9639,14.302572 0.22593,0.719993 0.88212,2.234255 1.45821,3.365028 1.96212,3.85137 2.27202,4.552793 2.60194,5.88919 0.28717,1.163253 0.30825,1.486344 0.16284,2.495655 -0.29164,2.024431 -1.5596,4.114105 -3.07787,5.072546 -0.33172,0.20941 -0.62234,0.380755 -0.64582,0.380766 -0.0235,1.1e-5 -0.0177,-1.127623 0.0129,-2.505854 0.15857,-7.150108 -2.43852,-14.678289 -8.09499,-23.464984 -0.14599,-0.226781 -0.0585,-0.367546 0.53211,-0.85588 6.24869,-5.166766 7.92713,-12.785451 4.62488,-20.993002 l -0.56434,-1.402639 0.26058,-1.364989 c 0.51425,-2.69384 0.61493,-3.999993 0.53071,-6.885008 -0.10681,-3.658954 -0.57092,-5.855475 -1.59914,-7.568216 -0.96982,-1.615471 -2.36154,-2.2245496 -4.22545,-1.8492491 -1.87983,0.3785051 -5.37876,2.4449801 -8.08535,4.7752201 l -0.90855,0.782217 -1.55439,-0.409992 c -4.37626,-1.154302 -8.36345,-1.183915 -12.81336,-0.09516 l -1.951341,0.477431 -0.974436,-0.847517 C 93.469502,11.036634 89.666684,9.2232027 87.567718,9.7845908 86.100377,10.177045 85.132294,11.320384 84.45659,13.458939 c -1.057439,3.346725 -1.163466,7.854852 -0.295988,12.584888 l 0.2662,1.451485 -0.486648,1.237067 c -1.348265,3.427314 -1.691209,5.101477 -1.695041,8.27475 -0.0035,2.918238 0.311357,4.431231 1.400897,6.731273 1.210753,2.555927 2.663275,4.393758 4.880263,6.17485 0.629666,0.505863 1.162244,0.928047 1.183507,0.938182 0.02126,0.01014 -0.418218,0.938076 -0.976623,2.062084 -2.351981,4.734285 -4.086072,9.796133 -4.92609,14.37936 -0.346771,1.892016 -0.478851,6.630162 -0.231903,8.319052 0.544318,3.722614 2.190904,7.09467 4.643522,9.509504 2.226016,2.191722 4.767163,3.498115 8.358904,4.297274 0.313509,0.06976 0.450628,0.222875 0.53221,0.594317 0.140638,0.64032 1.403511,1.908831 2.129403,2.138911 0.807627,0.255987 2.355077,0.242754 3.266567,-0.02793 z M 57.264585,87.453421 c 1.683861,-0.430602 3.948436,-1.55667 4.708499,-2.341323 0.471265,-0.486509 0.628966,-0.791444 0.690183,-1.334551 0.148886,-1.320909 -0.788766,-2.51923 -1.987014,-2.539407 -0.402386,-0.0068 -1.136938,0.268776 -2.406156,0.902618 -2.139581,1.068499 -3.157518,1.251757 -4.6091,0.829771 -3.513743,-1.021473 -4.311245,-4.212762 -2.139365,-8.560895 1.269849,-2.542257 2.460315,-3.716528 3.767781,-3.716528 1.34553,0 2.305495,0.298585 3.178459,0.988625 1.415885,1.119192 2.929049,0.971011 3.6045,-0.352984 1.086032,-2.128797 -0.915562,-4.145603 -4.933972,-4.971466 -3.035744,-0.623907 -4.915053,-0.0454 -7.039474,2.166965 -1.129603,1.176363 -1.875904,2.306594 -2.824053,4.276862 -0.985658,2.048208 -1.356889,3.593001 -1.374684,5.720429 -0.02471,2.953727 0.695247,4.818556 2.552556,6.611637 2.333579,2.252881 5.655146,3.127483 8.81184,2.320247 z M 30.709846,86.89254 c 3.358031,-0.693621 6.89282,-2.504168 10.047603,-5.146465 1.36544,-1.143627 1.862706,-1.799033 2.020768,-2.663403 0.363437,-1.987479 -1.177502,-3.961363 -3.092491,-3.961363 -0.801281,0 -1.503281,0.365368 -3.785648,1.970304 -3.704812,2.605185 -5.452513,3.375093 -7.992067,3.520722 -1.873069,0.107409 -2.895748,-0.157653 -4.297698,-1.113899 -1.255024,-0.856027 -2.455526,-2.480412 -2.952908,-3.995544 -0.440687,-1.342424 -0.482209,-3.79469 -0.09592,-5.66485 0.553856,-2.681387 1.959207,-5.855158 3.785282,-8.548484 2.80677,-4.139779 5.372414,-6.734085 7.794145,-7.881212 0.948053,-0.449076 1.251655,-0.512231 2.652112,-0.551695 1.061113,-0.0299 1.711599,0.02251 1.976877,0.159294 0.236521,0.121953 0.650808,0.692995 1.031129,1.421286 0.725514,1.389312 1.354411,2.123654 2.087256,2.437216 1.274594,0.545362 2.918113,0.02986 3.759029,-1.179039 0.452137,-0.64999 0.479319,-0.778801 0.530252,-2.512754 0.06486,-2.208108 -0.20302,-4.700093 -0.627085,-5.833508 -0.74539,-1.992233 -2.89587,-2.575747 -4.625888,-1.255195 -0.659154,0.503145 -0.725655,0.520221 -1.462165,0.375457 -1.306952,-0.256885 -4.440461,-0.208335 -5.674257,0.08792 -1.499916,0.360153 -3.707001,1.457185 -5.283823,2.626325 -4.425364,3.281209 -9.348645,10.222013 -11.31431,15.950832 -1.005296,2.92988 -1.257271,4.474383 -1.255164,7.693649 0.0017,2.638748 0.03298,2.948161 0.427777,4.235552 1.688962,5.507469 5.907372,9.353782 11.050941,10.076163 1.287157,0.180774 3.789459,0.06393 5.29625,-0.247307 z" id="path18" transform="matrix(4.867969,0,0,4.867969,-59.449507,42.184767)" /></g><g id="Outline" style="display:inline" transform="matrix(0.20542448,0,0,0.20542448,12.212384,-8.6657839)"><g id="text27" style="font-size:48px;font-family:'Comic Sans MS';-inkscape-font-specification:'Comic Sans MS';white-space:pre;fill:none;stroke:#000000;stroke-width:0.890761" ns2:label="BaseText" transform="matrix(5.4649548,0,0,5.4649548,-80.412056,36.084071)" aria-label="Cc"><path d="m 40.425781,51.467441 q -1.5,0 -2.25,-1.757813 -0.65625,-1.5 -1.21875,-1.828125 -0.492187,-0.257812 -2.4375,-0.257812 -3.398437,0 -7.546875,5.203125 -5.625,6.984375 -5.625,13.242187 0,3.023438 1.945313,5.203125 1.992187,2.25 4.804687,2.25 2.414063,0 4.851563,-1.242187 1.359375,-0.703125 4.171875,-2.765625 1.335937,-0.984375 2.015625,-0.984375 1.007812,0 1.6875,0.773437 0.679687,0.75 0.679687,1.6875 0,1.054688 -0.890625,1.851563 -6.1875,5.484375 -12.515625,5.484375 -4.851562,0 -8.203125,-3.726563 -3.234375,-3.609375 -3.234375,-8.53125 0,-7.945312 6.65625,-16.289062 5.554688,-6.960938 11.203125,-6.960938 1.148438,0 2.0625,0.117188 0.914063,0.09375 1.617188,0.328125 0.820312,-1.195313 2.132812,-1.195313 1.617188,0 2.039063,2.132813 0.375,1.898437 0.375,4.664062 0,0.960938 -0.515625,1.6875 -0.632813,0.914063 -1.804688,0.914063 z" id="path14" /><path style="font-size:33.2551px" d="m 53.069221,78.7873 q -3.328758,0 -5.553342,-2.013493 -2.338249,-2.110919 -2.338249,-5.569579 0,-3.296282 2.192108,-6.803656 2.435677,-3.897082 5.488391,-3.897082 1.591308,0 3.556087,0.746941 2.48439,0.958032 2.48439,2.338249 0,0.617038 -0.405946,1.104173 -0.405946,0.470897 -1.006746,0.470897 -0.470898,0 -0.82813,-0.276043 -0.340995,-0.292281 -0.665752,-0.568324 -0.958032,-0.763179 -3.133903,-0.763179 -1.65626,0 -3.280044,2.955287 -1.477644,2.71172 -1.477644,4.692737 0,2.143395 1.461406,3.377471 1.363979,1.152887 3.507374,1.152887 0.97427,0 2.078444,-0.519611 l 1.883589,-1.006747 q 0.487136,-0.259805 0.698227,-0.259805 0.600801,0 1.039222,0.487135 0.438422,0.470898 0.438422,1.087936 0,1.185362 -2.500628,2.289535 -2.192108,0.974271 -3.637276,0.974271 z" id="path16" /></g><rect style="display:inline;fill:none;stroke:#000000;stroke-width:1.33306;stroke-dasharray:none;stroke-opacity:1" id="rect1" width="154.88843" height="115.74319" x="2.0926507" y="1.7971287" transform="matrix(4.8679691,0,0,4.8679691,-59.449507,42.184767)" /><path style="font-size:22.325px;font-family:'Comic Sans MS';-inkscape-font-specification:'Comic Sans MS';display:inline;fill:#000000;fill-opacity:1;stroke:none;stroke-width:6.43992;stroke-opacity:1" d="m 511.50571,584.74849 q 0,0.38153 -0.67585,1.11189 -0.50144,0.50144 -0.99198,1.00288 -1.21,1.37351 -1.89675,3.92431 -0.59955,2.22378 -0.59955,4.37126 0,5.53764 2.5072,8.12115 0.50144,0.39243 1.01378,0.78486 0.63225,0.50144 0.63225,0.99198 0,0.35973 -0.28342,0.62135 -0.28342,0.27253 -0.65405,0.27253 -0.32703,0 -0.78487,-0.25072 -4.61107,-2.58351 -4.61107,-10.79187 0,-2.95414 1.1882,-5.98459 1.3299,-3.36837 3.48828,-4.88359 0.43603,-0.30523 0.68675,-0.30523 0.39244,0 0.68676,0.31613 0.29432,0.30522 0.29432,0.69766 z m 7.03107,17.17978 q -2.23468,0 -3.7281,-1.35171 -1.56973,-1.41711 -1.56973,-3.739 0,-2.21288 1.47162,-4.56747 1.63513,-2.61621 3.6845,-2.61621 1.06828,0 2.38729,0.50144 1.66784,0.64315 1.66784,1.56973 0,0.41423 -0.27253,0.74126 -0.27252,0.31612 -0.67585,0.31612 -0.31613,0 -0.55595,-0.18531 -0.22891,-0.19622 -0.44693,-0.38153 -0.64315,-0.51234 -2.10387,-0.51234 -1.11189,0 -2.20198,1.98396 -0.99198,1.82044 -0.99198,3.15035 0,1.43892 0.98108,2.26738 0.91567,0.77397 2.35459,0.77397 0.65405,0 1.39531,-0.34883 l 1.2645,-0.67586 q 0.32703,-0.17441 0.46874,-0.17441 0.40333,0 0.69766,0.32703 0.29432,0.31612 0.29432,0.73035 0,0.79577 -1.67873,1.53703 -1.47162,0.65405 -2.4418,0.65405 z m 12.61232,-7.02016 q 0,8.20836 -4.62198,10.79187 -0.44693,0.25072 -0.77396,0.25072 -0.37063,0 -0.65405,-0.27253 -0.28342,-0.26162 -0.28342,-0.62135 0,-0.49054 0.63225,-0.99198 0.50144,-0.39243 1.01378,-0.78486 2.5072,-2.58351 2.5072,-8.12115 0,-2.14748 -0.59955,-4.37126 -0.69765,-2.5508 -1.89675,-3.92431 -0.50144,-0.50144 -0.99198,-1.00288 -0.67586,-0.73036 -0.67586,-1.11189 0,-0.39244 0.28343,-0.69766 0.29432,-0.31613 0.68675,-0.31613 0.25072,0 0.69766,0.30523 2.15837,1.51522 3.48828,4.88359 1.1882,3.03045 1.1882,5.98459 z m 24.97391,7.23818 q -0.58865,0 -0.97018,-0.61045 -0.32703,-0.52324 -0.58865,-1.74414 l -0.39243,-1.87495 q -0.44693,-1.74414 -1.41711,-7.69602 l -2.18018,6.57323 -0.64315,2.07116 q -0.39243,1.2318 -0.81757,2.01667 -0.45783,0.82846 -1.2318,0.82846 -0.64315,0 -1.01378,-0.69765 -0.23982,-0.45784 -0.43603,-1.1664 l -0.31613,-1.20999 q -1.10099,-3.84801 -1.94035,-8.24107 l -0.39244,1.95126 -1.40621,5.75566 q -0.0872,1.01378 -0.54504,2.99774 -0.32703,0.85027 -1.07919,0.85027 -0.53414,0 -0.85027,-0.38153 -0.27252,-0.32702 -0.27252,-0.80666 0,-1.82045 0.75216,-4.46936 l 1.1991,-4.39306 0.63225,-3.43377 q 0.47964,-2.4091 1.01378,-3.15036 0.43603,-0.63225 1.07919,-0.63225 0.70855,0 1.05738,0.80667 0.42514,0.97017 0.91568,3.95701 0.57774,3.58639 1.79864,7.76143 1.61333,-4.19684 2.79063,-8.7425 l 0.32702,-1.59153 q 0.19622,-0.95928 0.51234,-1.54793 0.42514,-0.80666 1.1664,-0.80666 0.93747,0 1.42801,1.80954 0.17442,0.62135 0.42514,2.57261 0.64315,4.9272 1.60243,8.41548 l 0.53414,1.87495 q 0.41423,1.50432 0.41423,1.85315 0,0.46874 -0.35973,0.78486 -0.34882,0.31613 -0.79576,0.31613 z m 12.02367,-0.18532 q -0.20711,0 -0.75216,-0.47963 -0.49054,-0.44694 -0.73036,-0.79577 -1.04648,0.56685 -1.84225,0.85027 -0.79576,0.29432 -1.3299,0.29432 -2.55081,0 -3.7172,-1.43891 -1.10099,-1.35171 -1.10099,-4.14234 0,-2.63801 1.80954,-4.51296 1.82045,-1.87495 4.33855,-1.87495 0.94838,0 2.12568,0.49054 1.48252,0.61045 1.48252,1.47162 0,0.29432 -0.21802,0.52324 -0.10901,0.41423 -0.17442,1.36261 -0.0545,0.94838 -0.0654,2.43089 -0.0109,1.35171 0.18531,2.13658 0.10901,0.47964 0.68676,1.91855 0.0763,0.19622 0.25072,0.57775 l 0.0654,0.18531 q 0,0.43604 -0.30522,0.71946 -0.30522,0.28342 -0.70856,0.28342 z m -2.26738,-7.57611 q 0,-0.46873 0.0545,-1.01378 0.0654,-0.55594 0.18532,-1.17729 -0.40333,-0.20712 -0.69766,-0.30523 -0.28342,-0.0981 -0.45783,-0.0981 -1.68964,0 -2.92144,1.38442 -1.2209,1.37351 -1.2209,3.17215 0,1.78775 0.63225,2.68162 0.63225,0.89387 1.89676,0.89387 1.04648,0 1.77684,-0.38153 0.39243,-0.20712 1.10099,-0.82847 -0.34883,-2.88873 -0.34883,-4.32765 z m 14.14934,2.15838 -0.25072,3.66269 q -0.0654,2.18018 -0.44694,3.56459 -0.49054,1.76594 -1.56972,2.60531 -1.30811,1.01378 -3.78261,1.01378 -1.44982,0 -2.4309,-0.19621 -1.37351,-0.27253 -1.37351,-1.1337 0,-0.97017 0.94838,-0.97017 0.39243,0 1.30811,0.18531 0.91567,0.19622 2.02756,0.17442 2.09297,-0.0327 2.88873,-2.02757 0.52324,-1.32991 0.55595,-4.08783 -0.58865,1.09009 -1.40622,1.63513 -0.80666,0.54505 -1.85315,0.54505 -1.97306,0 -3.21576,-1.34081 -1.2318,-1.35171 -1.2318,-3.49918 0,-2.94324 1.68964,-4.74188 1.74414,-1.85315 4.75278,-1.85315 1.01379,0 1.70054,0.26162 0.68676,0.26162 1.04649,0.78486 1.16639,0.0327 1.16639,1.2972 0,0.77397 -0.22892,2.07117 -0.25072,1.50432 -0.29432,2.04937 z m -3.49918,-4.72008 q -2.07117,0 -3.20486,1.42801 -1.01378,1.28631 -1.01378,3.27027 0,1.58062 0.59954,2.37639 0.59955,0.79576 1.79865,0.79576 1.10099,0 2.13657,-1.2427 0.93748,-1.14459 1.06829,-2.26738 0.22892,-1.1773 0.49054,-3.6954 -0.43604,-0.33793 -0.90478,-0.50144 -0.46873,-0.16351 -0.97017,-0.16351 z m 8.45908,-4.38216 q -0.52324,0 -0.90477,-0.37063 -0.38153,-0.37063 -0.38153,-0.89387 0,-0.52324 0.38153,-0.89387 0.38153,-0.37063 0.90477,-0.37063 0.52324,0 0.89387,0.37063 0.38153,0.37063 0.38153,0.89387 0,0.52324 -0.38153,0.89387 -0.37063,0.37063 -0.89387,0.37063 z m 0.49054,8.85152 q 0,0.65405 0.0327,1.96216 0.0436,1.2972 0.0436,1.95125 0,0.47964 -0.29433,0.78487 -0.29432,0.30522 -0.77396,0.30522 -0.46874,0 -0.77396,-0.30522 -0.29433,-0.30523 -0.29433,-0.78487 0,-0.65405 -0.0436,-1.95125 -0.0327,-1.30811 -0.0327,-1.96216 0,-1.02469 0.10901,-2.55081 0.10901,-1.53702 0.10901,-2.56171 0,-0.49054 0.29432,-0.79576 0.30522,-0.30522 0.77396,-0.30522 0.46874,0 0.76306,0.30522 0.30523,0.30522 0.30523,0.79576 0,1.02469 -0.10901,2.56171 -0.10901,1.52612 -0.10901,2.55081 z m 8.61169,5.63575 q -2.23468,0 -3.7281,-1.35171 -1.56972,-1.41711 -1.56972,-3.739 0,-2.21288 1.47161,-4.56747 1.63514,-2.61621 3.6845,-2.61621 1.06829,0 2.38729,0.50144 1.66784,0.64315 1.66784,1.56973 0,0.41423 -0.27252,0.74126 -0.27253,0.31612 -0.67586,0.31612 -0.31612,0 -0.55594,-0.18531 -0.22892,-0.19622 -0.44694,-0.38153 -0.64315,-0.51234 -2.10387,-0.51234 -1.11189,0 -2.20198,1.98396 -0.99198,1.82044 -0.99198,3.15035 0,1.43892 0.98108,2.26738 0.91568,0.77397 2.35459,0.77397 0.65406,0 1.39532,-0.34883 l 1.2645,-0.67586 q 0.32702,-0.17441 0.46874,-0.17441 0.40333,0 0.69765,0.32703 0.29433,0.31612 0.29433,0.73035 0,0.79577 -1.67874,1.53703 -1.47162,0.65405 -2.4418,0.65405 z m 9.52737,-7.08557 q -0.30522,0 -1.3299,-0.14171 -0.0872,1.64603 -0.0872,5.76656 0,0.43604 -0.28342,0.74126 -0.28343,0.29433 -0.70856,0.29433 -0.43604,0 -0.71946,-0.29433 -0.28342,-0.30522 -0.28342,-0.74126 v -3.20485 q 0,-1.60243 0.19621,-4.51297 0.21802,-3.15035 0.23982,-4.51296 v -1.50432 q 0,-1.07919 0.13081,-1.56973 0.25073,-0.95928 1.06829,-0.82847 0.34883,-0.10901 0.99198,-0.16351 0.64315,-0.0545 1.58063,-0.0545 1.99486,0 3.739,1.36261 1.91855,1.50433 1.91855,3.6191 0,2.70341 -2.04936,4.30584 -1.83135,1.43892 -4.40396,1.43892 z m 0.54505,-8.6553 q -0.47964,0 -0.86117,0.0218 -0.37063,0.0218 -0.63225,0.0654 l -0.0218,2.00576 -0.22892,4.33855 1.19909,0.14171 q 1.83135,0 3.08495,-0.92657 1.37351,-1.01378 1.37351,-2.73612 0,-1.2209 -1.3081,-2.10387 -1.21,-0.80667 -2.60531,-0.80667 z m 13.17916,15.55556 q -2.4636,0 -3.98972,-1.2318 -1.66783,-1.36261 -1.66783,-3.81531 0,-2.83423 1.37351,-4.75278 1.49342,-2.09297 3.98972,-2.09297 1.80954,0 2.95414,0.61045 1.40621,0.75216 1.40621,2.31098 0,1.09009 -1.2318,1.98396 -0.54504,0.39243 -2.31099,1.2209 l -4.16413,1.97306 q 0.61045,0.90477 1.51522,1.36261 0.91567,0.45784 2.12567,0.45784 0.75216,0 1.76594,-0.28343 1.28631,-0.35972 1.65694,-0.93747 0.37063,-0.58865 0.79576,-0.58865 0.38153,0 0.67586,0.29433 0.30522,0.28342 0.30522,0.66495 0,1.21 -1.95126,2.08207 -1.66783,0.74126 -3.24846,0.74126 z m -0.29432,-9.9307 q -1.32991,0 -2.21288,1.03558 -0.88297,1.02468 -1.31901,3.09585 l 3.34657,-1.59153 q 1.97306,-0.95928 2.81243,-1.66783 -0.93747,-0.87207 -2.62711,-0.87207 z m 15.79537,10.20322 q -0.93748,0 -1.05739,-1.02468 l -0.30522,-2.3873 q -0.15261,-1.2754 -0.15261,-2.38729 0,-0.30522 0.0327,-1.03558 0.0436,-0.73036 0.0436,-1.03559 0,-2.35459 -0.87207,-2.35459 -1.2209,0 -2.33279,1.44982 -1.00288,1.31901 -1.56972,3.33567 -0.0218,0.42513 -0.0981,1.06829 -0.0654,0.54504 -0.0654,1.05738 0,0.32703 0.0654,0.98108 0.0654,0.65405 0.0654,0.98108 0,0.49054 -0.30522,0.79576 -0.29432,0.30523 -0.76306,0.30523 -0.47964,0 -0.77396,-0.30523 -0.29433,-0.30522 -0.29433,-0.79576 0,-0.32703 -0.0763,-0.98108 -0.0654,-0.65405 -0.0654,-0.98108 0,-1.12279 0.15261,-3.10675 0.16352,-1.99486 0.16352,-3.11765 0,-0.34883 -0.0436,-1.03558 -0.0327,-0.68676 -0.0327,-1.03559 0,-0.46874 0.30522,-0.76306 0.31613,-0.30522 0.77397,-0.30522 1.00288,0 1.10099,1.41711 l 0.0327,1.2754 q 1.83135,-2.44179 3.7608,-2.44179 1.74414,0 2.4309,1.53702 0.46874,1.02468 0.51234,3.03044 v 1.10099 l -0.0109,1.01379 q 0,0.90477 0.22892,2.34368 0.23982,1.42802 0.23982,2.32189 0,0.47964 -0.31613,0.77396 -0.30522,0.30523 -0.77396,0.30523 z m 8.25196,-0.0872 q -2.23468,0 -3.7281,-1.35171 -1.56973,-1.41711 -1.56973,-3.739 0,-2.21288 1.47162,-4.56747 1.63513,-2.61621 3.6845,-2.61621 1.06828,0 2.38729,0.50144 1.66783,0.64315 1.66783,1.56973 0,0.41423 -0.27252,0.74126 -0.27252,0.31612 -0.67585,0.31612 -0.31613,0 -0.55595,-0.18531 -0.22892,-0.19622 -0.44693,-0.38153 -0.64316,-0.51234 -2.10387,-0.51234 -1.11189,0 -2.20198,1.98396 -0.99198,1.82044 -0.99198,3.15035 0,1.43892 0.98108,2.26738 0.91567,0.77397 2.35459,0.77397 0.65405,0 1.39531,-0.34883 l 1.2645,-0.67586 q 0.32703,-0.17441 0.46874,-0.17441 0.40333,0 0.69766,0.32703 0.29432,0.31612 0.29432,0.73035 0,0.79577 -1.67873,1.53703 -1.47162,0.65405 -2.4418,0.65405 z m 8.6226,-14.48727 q -0.52325,0 -0.90478,-0.37063 -0.38153,-0.37063 -0.38153,-0.89387 0,-0.52324 0.38153,-0.89387 0.38153,-0.37063 0.90478,-0.37063 0.52324,0 0.89387,0.37063 0.38153,0.37063 0.38153,0.89387 0,0.52324 -0.38153,0.89387 -0.37063,0.37063 -0.89387,0.37063 z m 0.49054,8.85152 q 0,0.65405 0.0327,1.96216 0.0436,1.2972 0.0436,1.95125 0,0.47964 -0.29432,0.78487 -0.29433,0.30522 -0.77396,0.30522 -0.46874,0 -0.77397,-0.30522 -0.29432,-0.30523 -0.29432,-0.78487 0,-0.65405 -0.0436,-1.95125 -0.0327,-1.30811 -0.0327,-1.96216 0,-1.02469 0.10901,-2.55081 0.10901,-1.53702 0.10901,-2.56171 0,-0.49054 0.29433,-0.79576 0.30522,-0.30522 0.77396,-0.30522 0.46874,0 0.76306,0.30522 0.30522,0.30522 0.30522,0.79576 0,1.02469 -0.109,2.56171 -0.10901,1.52612 -0.10901,2.55081 z m 6.45332,-3.61909 -0.16351,5.41773 q 0,0.86117 -0.0872,2.52901 -0.10901,1.09008 -1.06828,1.09008 -1.06829,0 -1.06829,-1.11189 0,-1.319 0.11991,-3.95701 0.11991,-2.64892 0.11991,-3.96792 0,-1.72234 0.0545,-3.93522 0.0545,-2.22378 0.0545,-3.94612 0,-1.09009 1.06828,-1.09009 1.07919,0 1.07919,1.09009 0,1.72234 -0.0545,3.94612 -0.0545,2.21288 -0.0545,3.93522 z m 4.74188,9.58187 q -0.56685,0 -0.95928,-0.39243 -0.39243,-0.39244 -0.39243,-0.95928 0,-0.55595 0.39243,-0.94838 0.39243,-0.40333 0.95928,-0.40333 0.55594,0 0.94838,0.40333 0.40333,0.39243 0.40333,0.94838 0,0.56684 -0.40333,0.95928 -0.39244,0.39243 -0.94838,0.39243 z m 11.48953,-16.34042 q -2.63802,0 -2.95414,3.6627 l -0.0327,0.67585 q 1.85315,-0.13081 2.3982,-0.13081 1.73324,0 1.73324,1.09009 0,0.79576 -0.85027,0.94837 -0.37063,0.0654 -0.87207,0.0545 -0.49054,-0.0218 -2.5072,0.14171 l -0.0872,2.4854 q 0,0.67585 0.0436,2.02756 0.0436,1.35171 0.0436,2.01667 0,2.07116 -0.23982,3.22666 -0.18532,0.87207 -1.01378,0.87207 -0.44694,0 -0.76307,-0.29433 -0.31612,-0.28342 -0.31612,-0.71945 0,-0.0872 0.0218,-0.21802 0.22892,-1.41712 0.22892,-3.08495 l -0.0327,-2.97594 v -3.16126 q -1.36261,0.10901 -1.72234,0.10901 -1.10099,0 -1.10099,-1.05738 0,-1.07919 1.90765,-1.13369 l 1.04649,-0.0327 q 0.0327,-0.61045 0.16351,-1.65693 0.28342,-2.42 1.2209,-3.56459 1.13369,-1.38441 3.54278,-1.38441 1.55883,0 1.55883,1.05739 0,1.04648 -1.41711,1.04648 z m 12.91755,8.96052 q 0,0.78487 0.0109,2.35459 0.0109,1.56973 0.0109,2.35459 0,0.23982 0.0327,0.73036 0.0436,0.49054 0.0436,0.73036 0,0.46874 -0.31612,0.76306 -0.31613,0.30523 -0.77396,0.30523 -0.83937,0 -1.06829,-1.03559 -1.36261,0.70856 -3.13945,0.70856 -1.42802,0 -2.36549,-0.63225 -1.03559,-0.69766 -1.2318,-2.03847 -0.42514,-2.88873 -0.42514,-5.14521 0,-1.49342 0.32703,-3.40107 0.15261,-0.94838 1.03558,-0.94838 0.46874,0 0.78487,0.30522 0.31612,0.29433 0.31612,0.76306 0,0.50145 -0.16351,1.60243 -0.15261,1.10099 -0.15261,1.67874 0,1.82045 0.11991,3.11765 0.1199,1.29721 0.35972,2.08207 0.35973,0.19621 0.70856,0.30522 0.34883,0.0981 0.68676,0.0981 1.46071,0 3.08495,-0.46874 l -0.0109,-2.21287 -0.0218,-2.11478 q 0,-2.35459 0.20712,-4.08783 0.11991,-1.00288 1.05738,-1.00288 0.46874,0 0.78487,0.30523 0.31612,0.30522 0.29432,0.76306 z m 11.07529,7.14008 q -0.93748,0 -1.05739,-1.02468 l -0.30522,-2.3873 q -0.15261,-1.2754 -0.15261,-2.38729 0,-0.30522 0.0327,-1.03558 0.0436,-0.73036 0.0436,-1.03559 0,-2.35459 -0.87207,-2.35459 -1.2209,0 -2.33279,1.44982 -1.00288,1.31901 -1.56972,3.33567 -0.0218,0.42513 -0.0981,1.06829 -0.0654,0.54504 -0.0654,1.05738 0,0.32703 0.0654,0.98108 0.0654,0.65405 0.0654,0.98108 0,0.49054 -0.30523,0.79576 -0.29432,0.30523 -0.76306,0.30523 -0.47964,0 -0.77396,-0.30523 -0.29433,-0.30522 -0.29433,-0.79576 0,-0.32703 -0.0763,-0.98108 -0.0654,-0.65405 -0.0654,-0.98108 0,-1.12279 0.15261,-3.10675 0.16352,-1.99486 0.16352,-3.11765 0,-0.34883 -0.0436,-1.03558 -0.0327,-0.68676 -0.0327,-1.03559 0,-0.46874 0.30523,-0.76306 0.31612,-0.30522 0.77396,-0.30522 1.00288,0 1.10099,1.41711 l 0.0327,1.2754 q 1.83135,-2.44179 3.7608,-2.44179 1.74414,0 2.4309,1.53702 0.46874,1.02468 0.51234,3.03044 v 1.10099 l -0.0109,1.01379 q 0,0.90477 0.22892,2.34368 0.23982,1.42802 0.23982,2.32189 0,0.47964 -0.31613,0.77396 -0.30522,0.30523 -0.77396,0.30523 z" id="text1" aria-label="(c) MagicPencil.fun" /><text xml:space="preserve" id="text3" style="font-style:normal;font-variant:normal;font-weight:normal;font-stretch:normal;font-size:12px;font-family:Arial;-inkscape-font-specification:Arial;text-align:start;writing-mode:lr-tb;direction:ltr;white-space:pre;shape-inside:url(#rect3);display:inline;fill:#000000;stroke-width:5" transform="matrix(4.867969,0,0,4.867969,587.13178,51.423206)"><tspan x="-34.792969" y="100.63913" id="tspan1">Cat</tspan></text><text xml:space="preserve" id="text7" style="font-size:48px;font-family:'Comic Sans MS';-inkscape-font-specification:'Comic Sans MS';text-align:start;writing-mode:lr-tb;direction:ltr;white-space:pre;shape-inside:url(#rect7);display:none;fill:none;stroke:#000000;stroke-width:0.890761;stroke-dasharray:none;stroke-opacity:1" transform="matrix(5.4649548,0,0,5.4649548,-85.031275,0.67005549)" ns2:label="BaseText"><tspan x="14.550781" y="79.294806" id="tspan6"><tspan style="font-family:Arial;-inkscape-font-specification:Arial" id="tspan2">A</tspan><tspan style="font-size:33.2551px" id="tspan5">a</tspan></tspan></text><path style="fill:#000000;stroke-width:4.86797" d="m 428.80456,491.44297 c -1.87197,-0.20752 -4.65446,-0.95706 -6.37134,-1.71635 -4.5385,-2.00714 -8.3306,-6.50347 -9.10953,-10.80124 -0.25362,-1.39978 -0.27406,-1.4327 -0.98245,-1.57501 -6.49504,-1.30504 -12.91351,-3.06448 -16.14764,-4.42639 -0.62626,-0.26375 -1.97722,-0.82698 -3.00203,-1.25164 -8.38819,-3.47584 -15.65388,-8.36357 -23.05961,-15.51247 -2.11144,-2.03821 -2.7136,-2.71657 -6.04597,-6.81074 -3.85957,-4.74188 -8.45318,-12.57727 -10.72696,-18.29707 -4.91295,-12.3589 -6.90259,-24.14351 -6.58004,-38.97418 0.0706,-3.24531 0.22685,-7.06515 0.34758,-8.48853 1.18768,-14.03157 5.20395,-32.02107 10.63115,-47.6186 2.54975,-7.32776 4.96898,-13.68923 6.96821,-18.32281 0.58956,-1.36644 1.42266,-3.32295 1.85139,-4.34778 2.00628,-4.79627 7.17665,-15.4705 10.3512,-21.37018 1.2481,-2.31948 1.24917,-2.32308 0.78559,-2.5656 -0.25557,-0.13357 -1.53434,-1.04484 -2.84226,-2.02504 -9.05832,-6.78862 -16.5915,-14.72154 -21.82014,-22.97805 -6.50906,-10.27844 -10.59197,-21.85752 -11.83559,-33.56552 -0.34903,-3.28728 -0.39576,-11.39191 -0.0876,-15.23894 0.96775,-12.07753 4.54785,-25.19906 10.19022,-37.34855 0.90972,-1.95894 0.9123,-1.97102 0.63716,-3.00204 -1.45094,-5.43696 -3.36284,-17.05522 -4.00322,-24.3269 -0.36071,-4.09684 -0.48193,-13.48415 -0.22879,-17.75895 0.76466,-12.92821 3.3439,-24.71087 7.01148,-32.03037 3.14218,-6.270968 7.3095,-9.950525 12.57669,-11.104664 1.90819,-0.41812 6.03219,-0.321481 8.50264,0.199241 7.05393,1.486834 13.45102,4.486109 22.96703,10.768103 6.5497,4.32379 11.5381,8.22168 18.32284,14.31724 1.08176,0.9719 2.11849,1.88364 2.30386,2.02609 0.27942,0.21458 1.18998,0.009 5.30852,-1.19766 10.52888,-3.08498 18.95884,-4.53193 29.04634,-4.98563 6.38094,-0.28696 15.02334,-0.005 19.86244,0.64805 7.98692,1.07787 14.01907,2.43167 24.47931,5.49394 l 1.18764,0.34767 1.79258,-1.63258 c 12.5835,-11.46012 27.46868,-21.132008 37.72676,-24.513581 4.24915,-1.400741 6.21523,-1.716948 9.96828,-1.603239 2.52726,0.07657 3.26398,0.177228 4.65831,0.636451 3.16491,1.042339 5.92378,3.127134 8.20389,6.199341 1.3272,1.788256 3.76844,6.563608 4.73566,9.263438 2.17657,6.07544 3.84161,14.48875 4.79397,24.22337 0.33735,3.44846 0.34271,14.84871 0.01,18.63337 -0.84644,9.58811 -1.89491,16.47979 -3.66441,24.0867 l -0.76286,3.27945 1.13925,2.5176 c 2.67475,5.91056 3.53424,8.16466 5.34143,14.00817 3.55926,11.50896 4.9147,20.49612 4.68177,31.04266 -0.26823,12.13776 -2.95398,23.07271 -8.26362,33.64318 -2.88247,5.73847 -5.48513,9.633 -10.25433,15.34434 -3.95479,4.73602 -10.38981,10.82558 -14.65887,13.87193 -0.81957,0.58484 -1.28782,1.05191 -1.20146,1.19846 0.0779,0.13206 0.76281,1.1718 1.52216,2.31051 6.51593,9.77133 12.97523,20.90595 18.28497,31.51986 1.73163,3.46137 5.17592,10.98 6.05902,13.22635 0.30765,0.78272 0.63385,1.52081 0.72479,1.64021 0.64203,0.84336 6.35226,17.05862 8.01633,22.76406 1.81507,6.22298 3.7845,15.13224 4.66818,21.11781 1.29537,8.77365 1.57727,12.29342 1.57547,19.66855 -10e-4,5.95705 -0.21906,9.61736 -0.81139,13.66441 -0.21662,1.48029 -0.35731,2.72815 -0.31252,2.77302 0.19033,0.19024 4.6048,-2.19797 6.06709,-3.28218 5.27591,-3.91186 10.27244,-11.07448 12.35423,-17.71007 1.43186,-4.56405 1.91291,-10.0046 1.31805,-14.90669 -0.75916,-6.2559 -3.80213,-14.27196 -8.88093,-23.39523 -2.07629,-3.7297 -4.09649,-7.55368 -6.4486,-12.20638 -6.47975,-12.81761 -9.28497,-25.17287 -8.4744,-37.32448 0.22344,-3.34713 0.76724,-7.3841 1.28787,-9.55766 1.6719,-6.98 3.5837,-12.03696 6.38575,-16.89133 4.73259,-8.19897 11.57077,-14.80259 19.37476,-18.71021 6.96188,-3.48595 12.53867,-4.79659 20.37016,-4.78735 12.05616,0.0141 22.08534,4.24466 30.23622,12.75396 5.99875,6.26254 9.72367,14.37629 10.77637,23.47354 0.64861,5.60474 -0.70322,11.95969 -3.44594,16.19946 -1.19284,1.84396 -4.5516,5.20171 -6.12775,6.12596 -2.82162,1.65455 -6.57448,2.71918 -9.58858,2.72014 -3.24231,10e-4 -7.10412,-1.14664 -9.87984,-2.9361 -2.66667,-1.71916 -5.68286,-5.23496 -7.3867,-8.61024 -2.28731,-4.53116 -6.44587,-5.27407 -10.14475,-1.81233 -4.10209,3.83909 -5.03762,9.98142 -2.79241,18.33353 1.03902,3.86511 2.99477,8.30915 7.06137,16.04539 6.59026,12.53706 8.5852,17.08623 10.62172,24.22112 1.6,5.60554 2.25202,9.11445 2.70294,14.54606 0.34319,4.13254 0.13825,12.16568 -0.4021,15.78717 -1.33903,8.97059 -4.28065,17.54493 -8.52347,24.84448 -6.4412,11.08176 -14.40807,19.38498 -24.74807,25.79289 -2.67724,1.65915 -9.27553,4.89374 -12.20171,5.98152 -8.17761,3.03989 -15.55813,4.49466 -24.3563,4.80088 l -3.85962,0.13431 -2.97262,2.92607 c -8.87918,8.74008 -19.56389,14.62296 -32.69216,17.9999 -4.51777,1.16209 -13.09173,2.43187 -17.98126,2.66298 -0.74606,0.0351 -1.16846,0.15602 -1.27103,0.3634 -0.0847,0.17081 -0.5308,1.10247 -0.99175,2.07037 -2.52808,5.3083 -7.64023,8.4972 -14.93741,9.31773 -4.96333,0.5581 -10.64766,-0.77103 -15.52843,-3.63093 -2.25319,-1.32025 -5.45378,-4.48046 -7.04386,-6.95502 l -1.13871,-1.77209 -2.84616,-0.15538 c -1.56539,-0.0855 -5.39385,-0.0877 -8.5077,-0.005 l -5.66159,0.15047 -0.66195,1.20408 c -0.6929,1.26038 -2.93159,4.13597 -3.77623,4.85062 -2.32061,1.96335 -5.39502,3.82241 -8.04918,4.86722 -2.85439,1.1236 -8.37715,1.79988 -11.69506,1.4321 z m 6.72613,-9.2271 c 3.97562,-0.8788 6.83789,-2.81949 9.03694,-6.12718 2.16406,-3.25512 3.17338,-7.25437 4.11611,-16.3096 0.85579,-8.21942 1.03245,-15.99524 0.69851,-30.74504 -0.15967,-7.05998 -0.29062,-16.60958 -0.29062,-21.22134 0,-8.33041 0.003,-8.3913 0.47609,-9.35129 1.40927,-2.8609 5.25843,-2.40356 6.13924,0.72946 0.65464,2.3286 1.35208,11.75408 2.10091,28.3939 0.25119,5.58297 0.30815,9.99915 0.22685,17.59818 -0.11245,10.50543 -0.32323,14.13923 -1.19815,20.62216 -0.25167,1.86679 -0.46733,3.57194 -0.47852,3.78921 -0.0195,0.37673 0.22636,0.39932 5.31081,0.48721 2.93217,0.0507 5.32896,0.0127 5.32619,-0.0845 -0.003,-0.0972 -0.0906,-0.54932 -0.19521,-1.0048 -0.71822,-3.12729 -1.47178,-12.72355 -1.77213,-22.56708 -0.12755,-4.17491 0.14847,-17.30744 0.52856,-25.15504 0.53772,-11.10443 0.63595,-12.93439 0.84503,-15.73484 0.47998,-6.42649 0.94025,-7.89257 2.73468,-8.70727 1.13346,-0.51462 1.72058,-0.50151 2.84095,0.0635 0.70712,0.35658 1.04515,0.70862 1.44135,1.50102 l 0.51761,1.03519 -0.0389,8.48853 c -0.0195,4.66869 -0.14604,13.56612 -0.27845,19.77207 -0.33053,15.46624 -0.10758,24.00019 0.85243,32.59851 0.58362,5.22848 1.31328,9.32886 2.05662,11.55742 2.29077,6.86766 7.54034,10.69314 14.71451,10.7228 4.04411,0.0165 6.76409,-0.91222 8.5079,-2.90564 2.19053,-2.50414 2.15728,-5.12695 -0.12268,-9.66893 -1.07222,-2.13618 -1.02339,-2.64848 0.53499,-5.60834 1.25789,-2.38921 4.54965,-8.98009 5.1952,-10.40208 2.11747,-4.66422 2.87112,-6.42694 4.56596,-10.67961 5.3737,-13.48373 9.72274,-28.47343 13.09001,-45.11696 1.66081,-8.2087 2.10701,-10.83585 2.7781,-16.35595 0.50564,-4.1592 0.82113,-5.25075 1.75462,-6.07037 1.41876,-1.2457 3.368,-0.89317 4.76209,0.86127 0.60027,0.75547 0.63531,0.90466 0.70502,3.00204 0.15919,4.78723 -1.06564,15.23839 -2.89113,24.67061 -0.45175,2.33435 -1.00947,5.22252 -1.23939,6.41816 -0.93265,4.85068 -3.70433,15.50865 -5.24957,20.18615 -0.37629,1.1387 -0.98406,3.04862 -1.35081,4.24426 -0.92584,3.0183 -4.25251,12.16086 -4.75245,13.06108 -0.10028,0.18056 -0.60115,1.39173 -1.11306,2.69149 -1.24596,3.16343 -4.62691,10.29929 -6.85824,14.47489 -0.9015,1.68699 -1.16559,2.73812 -0.75215,2.99365 0.10661,0.0658 0.34563,0.64353 0.53197,1.28394 l 0.33833,1.16438 2.5218,-0.11917 c 4.0428,-0.19106 11.01723,-1.38593 16.08279,-2.75536 9.09542,-2.45885 16.92053,-6.5268 24.07971,-12.51805 2.48071,-2.07601 7.17085,-6.89225 8.75781,-8.9933 4.76175,-6.30425 8.16782,-12.72093 10.39696,-19.58688 0.96211,-2.96342 2.31107,-8.38142 2.90696,-11.67577 2.56186,-14.16329 0.81212,-34.10421 -4.61518,-52.59679 -5.89968,-20.10214 -13.52171,-37.09969 -25.75886,-57.44356 -0.51366,-0.85403 -2.55704,-4.04357 -4.54079,-7.08786 l -3.60682,-5.53507 -0.85959,0.48939 c -0.47268,0.26915 -1.51179,0.86365 -2.30888,1.32107 -3.4823,1.99834 -10.57206,5.19033 -15.21722,6.8512 -4.04105,1.44485 -9.16614,2.92474 -10.13126,2.92542 -2.347,0.002 -4.36156,-2.05561 -4.3582,-4.45065 10e-4,-0.89531 0.88529,-2.66261 1.57742,-3.15344 0.32615,-0.23142 1.94422,-0.86101 3.59533,-1.39909 11.17735,-3.64258 18.53144,-7.0368 26.54353,-12.251 5.18409,-3.37377 8.2332,-5.8394 12.86044,-10.39953 10.69138,-10.53634 16.8643,-21.70084 19.98784,-36.15037 1.22604,-5.67189 1.37125,-7.23118 1.36848,-14.69965 -0.003,-8.68612 -0.38506,-11.78033 -2.50408,-20.28966 -1.82136,-7.31394 -3.4955,-12.01827 -6.96276,-19.56503 -0.91552,-1.99274 -1.70788,-4.00253 -1.76079,-4.4662 -0.0983,-0.86202 0.072,-1.81808 1.1962,-6.71382 2.45166,-10.67568 3.41084,-18.04353 3.65225,-28.05357 0.24632,-10.22358 -0.74607,-19.77337 -2.92663,-28.15708 -2.79475,-10.74508 -6.01525,-15.536658 -10.73771,-15.975983 -3.91828,-0.364509 -11.84231,2.667633 -20.22009,7.737223 -8.15005,4.93181 -15.45122,10.57153 -22.85457,17.65378 -1.69537,1.62187 -3.40749,3.08463 -3.80471,3.25059 -0.97481,0.4073 -1.698,0.26866 -6.20267,-1.18926 -8.37067,-2.70914 -18.01003,-4.73233 -26.76478,-5.61764 -3.46146,-0.35006 -16.65619,-0.34767 -20.08261,0.004 -8.65106,0.8869 -18.82619,3.12558 -27.42278,6.03339 -1.36108,0.46041 -2.80516,0.83504 -3.20906,0.83255 -1.29702,-0.008 -2.32397,-0.69566 -5.58692,-3.74103 -8.12011,-7.57851 -14.74936,-12.73279 -21.85523,-16.99251 -11.01276,-6.601782 -19.02261,-9.182503 -23.02613,-7.418847 -4.99877,2.202117 -9.36782,13.931157 -10.95118,29.399157 -0.43714,4.26991 -0.6102,15.25819 -0.30668,19.46653 0.61575,8.53809 1.4897,14.29455 3.67693,24.21835 0.62563,2.83864 0.90583,4.55282 0.84605,5.17593 -0.0866,0.904 -0.61804,2.2342 -2.43954,6.10761 -2.81032,5.97604 -6.00756,15.85073 -7.32663,22.62824 -2.78209,14.29508 -2.19682,25.90703 1.94685,38.62457 0.78009,2.39429 2.76276,7.14919 3.95741,9.49094 1.00816,1.97609 3.76455,6.42196 5.36903,8.65982 5.42754,7.57014 13.21805,14.92968 21.52519,20.3345 8.1243,5.28584 17.29268,9.38599 28.07333,12.5545 1.99251,0.58562 2.97642,1.55735 3.37287,3.33117 0.59409,2.65795 -1.41711,5.18256 -4.12862,5.18256 -1.06803,0 -1.75563,-0.17388 -6.71736,-1.69855 -5.04317,-1.54971 -13.46018,-5.12665 -17.64084,-7.49678 l -1.2849,-0.72842 -0.39722,0.56233 c -0.96605,1.36726 -7.99842,15.83261 -10.43922,21.47311 -3.08352,7.12573 -4.42596,10.48155 -6.70855,16.77002 -5.13658,14.15136 -8.67783,27.00184 -10.72603,38.92303 -2.52161,14.67652 -2.59,30.54631 -0.18109,42.02858 1.68943,8.05311 4.77689,16.12828 8.70743,22.77411 6.78089,11.46531 17.29186,20.83771 29.56099,26.359 5.48961,2.47041 13.39821,4.89281 17.39111,5.32689 l 1.24221,0.13503 0.56936,-1.16363 c 0.31301,-0.64 0.56935,-1.33461 0.56935,-1.54358 0,-0.20898 -1.24809,-2.93203 -2.77357,-6.05126 -1.52548,-3.11922 -3.3882,-7.13177 -4.13938,-8.91678 -2.74256,-6.51685 -7.13878,-19.65749 -9.02687,-26.98199 -0.46976,-1.82193 -1.12528,-4.33743 -1.45693,-5.59001 -2.08588,-7.87726 -4.37903,-20.09538 -5.16813,-27.53597 -0.40161,-3.78506 -0.86139,-11.16646 -0.75566,-12.12688 0.32032,-2.91214 2.93583,-4.42815 5.02647,-2.91369 1.36391,0.98799 1.54953,1.45398 2.07181,5.20139 1.08906,7.81402 1.63121,11.02097 3.01094,17.81012 2.53188,12.4584 6.0631,25.5717 9.70093,36.0245 1.88415,5.41378 4.88126,13.0294 6.23324,15.83836 0.21906,0.45549 0.73838,1.62007 1.15362,2.58797 0.91235,2.12643 3.3385,7.04116 4.79339,9.71006 0.97671,1.7917 1.06044,2.05462 1.05518,3.3126 -0.005,1.25732 -0.0793,1.48216 -0.92667,2.8157 -1.46881,2.31139 -1.94947,3.31867 -2.29529,4.80972 -0.37922,1.63573 -0.26628,2.79703 0.42059,4.31783 1.65652,3.66752 7.23789,5.40488 13.1588,4.09606 z m 6.45113,-230.07212 c -2.616,-0.66438 -4.45239,-1.74082 -6.56441,-3.84792 -1.52304,-1.51948 -2.03705,-2.20173 -2.75026,-3.65043 -1.14173,-2.3192 -1.48609,-4.0487 -1.00635,-5.05468 0.65625,-1.3762 2.16615,-1.88533 3.58896,-1.21017 0.77352,0.36705 1.06175,0.81148 1.69512,2.61351 1.57873,4.49177 6.05098,7.03951 10.73665,6.1164 0.90315,-0.17793 2.1955,-0.58342 2.87185,-0.90106 1.72151,-0.80847 3.94939,-3.074 4.87007,-4.95231 0.68516,-1.39782 0.70936,-1.53166 0.76699,-4.24427 l 0.0594,-2.80093 -1.30544,-0.75622 c -1.65857,-0.96077 -4.67164,-3.58774 -5.72809,-4.99412 -1.96666,-2.61803 -2.33838,-4.2049 -1.37141,-5.85489 0.28235,-0.48159 0.93748,-1.15669 1.45606,-1.50018 1.44092,-0.95442 2.64277,-1.16035 5.67284,-0.97201 2.74471,0.17063 3.3551,0.1754 8.52012,0.0667 l 3.22235,-0.0678 1.22093,0.62371 c 2.47259,1.26311 3.11779,3.27509 1.85811,5.79445 -0.82512,1.65019 -4.01194,4.94229 -6.26727,6.47428 l -1.74268,1.18374 0.0711,2.60531 c 0.0706,2.58744 0.0774,2.61745 0.94891,4.376 1.75724,3.54506 4.80556,5.69695 8.6166,6.08262 2.38754,0.2416 5.28223,-0.67834 7.06873,-2.24647 0.96916,-0.8507 2.04824,-2.56922 2.66696,-4.2472 0.58061,-1.57459 0.94064,-2.04472 1.86025,-2.42897 1.41857,-0.59271 3.26198,0.38706 3.56335,1.89392 0.42692,2.13358 -2.12331,6.91104 -4.84197,9.07133 -2.64516,2.10192 -5.09302,2.98484 -8.75787,3.15892 -3.61028,0.1715 -6.25607,-0.49643 -9.19559,-2.32131 -1.34448,-0.83469 -3.45193,-2.80799 -4.31156,-4.03714 l -0.36218,-0.51759 -0.43714,0.62111 c -1.61183,2.28928 -5.1729,4.8364 -7.90437,5.65376 -2.33891,0.6999 -6.5828,0.83024 -8.78902,0.26993 z m -40.16571,-21.24321 c -7.19885,-1.37624 -13.46359,-6.12607 -16.79547,-12.73405 -1.80796,-3.58566 -2.49148,-6.54041 -2.49148,-10.77019 0,-3.02844 0.35731,-5.21869 1.27634,-7.82461 2.12302,-6.01966 6.27987,-10.6342 12.07757,-13.40728 6.9483,-3.32344 14.99135,-3.08485 21.52499,0.6385 3.5913,2.04659 5.9877,4.20298 7.98372,7.18414 1.97294,2.94664 3.11657,5.71867 3.8474,9.32533 0.53095,2.62039 0.31495,7.91858 -0.42352,10.39124 -1.36186,4.56045 -2.98494,7.36817 -5.99972,10.37885 -3.4105,3.40586 -6.63981,5.28464 -11.0795,6.44601 -2.48622,0.65036 -7.48435,0.83781 -9.92058,0.37206 z m 5.97158,-5.14945 c 0,-0.0419 -0.562,-0.28068 -1.24892,-0.53117 -2.79203,-1.01802 -6.64137,-4.2207 -8.42597,-7.01046 -2.0941,-3.27362 -3.03547,-6.525 -3.03966,-10.49836 -0.005,-5.06067 1.37087,-8.88387 4.52916,-12.58289 2.14994,-2.51801 4.67895,-4.30057 7.13717,-5.03059 2.0242,-0.60112 1.2941,-0.82196 -2.36788,-0.71623 -2.84946,0.0823 -6.94162,1.66274 -9.67168,3.73538 -4.71526,3.57976 -7.52665,10.30477 -6.78911,16.23987 1.17274,9.43751 8.80655,16.34982 18.16882,16.45165 0.93947,0.0102 1.70807,-0.0156 1.70807,-0.0572 z m 10.96603,-20.90935 c 1.05338,-0.69709 2.01553,-2.16716 2.19302,-3.35074 0.15821,-1.0563 -0.27066,-2.69211 -0.97593,-3.72287 -0.59,-0.86204 -2.08841,-1.71268 -3.31241,-1.88044 -1.91365,-0.26229 -3.80977,0.76304 -4.80873,2.60032 -1.55862,2.86673 0.18742,6.49185 3.39137,7.04022 1.17084,0.20041 2.59229,-0.0774 3.51268,-0.68649 z m 89.53757,26.04534 c -7.76932,-1.30606 -14.15128,-6.21155 -17.49392,-13.44662 -4.25952,-9.21972 -2.1365,-20.19814 5.24699,-27.13332 5.29854,-4.97679 12.55332,-7.27367 19.61285,-6.20945 9.44508,1.42384 16.8459,8.22166 19.27716,17.70647 2.36909,9.2424 -1.10941,19.0901 -8.78678,24.87514 -4.89192,3.68619 -11.58158,5.26258 -17.8563,4.20778 z m 8.58155,-5.66259 c 6.26001,-1.64419 11.14979,-6.60863 12.89905,-13.09591 0.59769,-2.21664 0.64515,-6.33353 0.0988,-8.55823 -1.35656,-5.52294 -4.8614,-9.99858 -9.79022,-12.50201 -2.30625,-1.1714 -6.66196,-2.00711 -9.04853,-1.73611 l -0.9991,0.11347 1.85859,0.76668 c 8.36935,3.45248 12.98467,13.64966 10.38722,22.94975 -1.05708,3.78485 -3.72876,7.57955 -6.96986,9.89953 -0.7024,0.50279 -2.14648,1.33287 -3.20906,1.84462 l -1.932,0.93046 2.48446,-0.0781 c 1.6778,-0.0528 3.04818,-0.22616 4.22073,-0.53414 z m -2.35561,-20.0734 c 0.96065,-0.43641 2.08841,-1.64036 2.53281,-2.70395 0.74153,-1.77474 -0.1475,-4.63949 -1.76966,-5.70158 -3.05806,-2.00243 -6.92605,-0.345 -7.60187,3.25744 -0.33491,1.78554 0.94507,4.26359 2.62213,5.07636 1.16175,0.563 3.06395,0.59535 4.21659,0.0717 z M 369.3654,160.61655 c -1.25755,-0.50872 -1.93633,-2.13918 -2.98003,-7.15799 -1.33903,-6.43896 -2.26068,-15.83576 -1.97474,-20.13364 0.0506,-0.76422 0.14653,-2.46091 0.21225,-3.77042 0.12364,-2.4578 0.87175,-8.03788 1.4434,-10.76595 0.81348,-3.88224 2.15446,-7.25674 3.51146,-8.83616 2.22276,-2.5872 4.85731,-2.69336 9.53528,-0.38423 7.10324,3.50624 14.78835,10.59298 21.53692,19.86001 1.52216,2.09017 1.90946,3.14151 1.57211,4.2675 -0.31253,1.04286 -1.00271,1.62358 -3.95805,3.33004 -8.77651,5.06769 -16.99092,12.03338 -22.67062,19.22433 -2.63995,3.34241 -3.22449,3.97243 -3.97879,4.2882 -0.74338,0.31121 -1.59981,0.34105 -2.24919,0.0783 z m 4.16128,-10.29232 c 4.08413,-4.95343 9.53699,-9.72718 16.66287,-14.58772 1.42334,-0.97089 3.26611,-2.16566 4.09498,-2.65505 l 1.50703,-0.88981 -0.34368,-0.52436 c -2.10038,-3.20559 -7.30658,-8.79793 -11.34159,-12.18275 -3.886,-3.25982 -8.48463,-6.07896 -9.9161,-6.07896 -0.507,0 -0.65363,0.14755 -1.08016,1.08695 -1.39978,3.08325 -2.58391,8.53354 -3.0249,13.92326 -0.30912,3.77518 -0.12073,13.65496 0.32177,16.87355 0.44396,3.23131 1.16383,7.03927 1.33076,7.03927 0.075,0 0.88022,-0.90197 1.78912,-2.00438 z m 173.47149,10.09912 c -0.66394,-0.40487 -1.09627,-0.88287 -4.13763,-4.57511 -6.53155,-7.92922 -14.05631,-14.24377 -22.76905,-19.10711 -2.40813,-1.34419 -3.10269,-1.96478 -3.43308,-3.06751 -0.35439,-1.18278 0.13825,-2.2226 2.56439,-5.41471 7.07944,-9.31396 14.99831,-16.32406 21.73232,-19.23837 3.54276,-1.53322 5.77103,-1.48048 7.61823,0.18036 2.39991,2.1577 3.89092,6.19115 5.15148,13.93546 1.28738,7.90888 1.09573,18.09503 -0.50632,26.91486 -0.86212,4.74618 -1.87991,8.69529 -2.47517,9.60373 -0.72099,1.10038 -2.57647,1.48108 -3.74517,0.76842 z m 0.70138,-9.64752 c 1.34716,-7.05378 1.86915,-16.22649 1.28422,-22.56707 -0.45613,-4.94213 -1.51535,-9.9873 -2.68946,-12.8076 -1.05664,-2.53814 -1.0212,-2.5274 -3.84248,-1.164 -3.34551,1.61675 -8.33041,5.49657 -12.55401,9.771 -2.47726,2.50707 -6.66269,7.73227 -6.51076,8.12819 0.054,0.14127 0.64238,0.56259 1.307,0.93627 5.72478,3.21859 14.58132,10.51955 20.04304,16.52261 1.36322,1.49837 2.53411,2.65647 2.60193,2.57357 0.0677,-0.0829 0.22976,-0.70975 0.36071,-1.39297 z m 30.06608,295.33341 c 13.64059,-2.43493 25.01143,-8.42282 34.54822,-18.19311 8.35641,-8.56099 14.05884,-19.16031 16.3813,-30.44847 1.04671,-5.08762 1.32034,-7.75747 1.30569,-12.73961 -0.0341,-11.0413 -2.48763,-20.70817 -8.0449,-31.67672 -1.26928,-2.50515 -3.85071,-7.58274 -5.73657,-11.28353 -6.45341,-12.66414 -8.23012,-18.63129 -7.95221,-26.70782 0.17038,-4.95728 0.93684,-7.67253 3.25998,-11.55163 3.14388,-5.24957 7.72727,-8.29663 13.04109,-8.66978 5.59593,-0.39294 10.84224,2.43501 13.73415,7.40325 2.44596,4.20214 3.87271,5.87217 5.82365,6.81661 5.06035,2.44967 10.41117,0.43792 13.22281,-4.97143 1.10976,-2.13498 1.4453,-3.79974 1.43971,-7.1428 -0.0146,-8.07669 -3.17742,-15.25553 -9.41456,-21.36121 -4.78555,-4.68471 -9.79664,-7.27599 -16.64023,-8.60476 -2.84196,-0.55179 -9.06527,-0.59867 -11.98562,-0.0903 -4.94858,0.8615 -9.6912,2.6524 -13.36457,5.04672 -10.58257,6.89781 -17.62097,19.17246 -19.03006,33.18751 -0.93421,9.29186 -0.0784,16.67035 2.97813,25.66979 1.67049,4.91893 4.78482,11.56689 8.58481,18.32565 8.53632,15.18293 11.76977,24.38496 12.14923,34.57524 0.27748,7.45712 -0.9731,13.40315 -4.26794,20.28966 -1.68758,3.52729 -2.99911,5.66561 -5.10767,8.32762 -2.20616,2.78524 -4.36793,4.99478 -6.77499,6.92463 -1.84662,1.48053 -4.94961,3.69167 -5.18064,3.69167 -0.0511,0 -0.6619,0.32158 -1.35729,0.71461 -1.82554,1.03185 -4.81963,2.35127 -6.84996,3.0186 l -1.75982,0.57841 -1.4713,4.16762 c -1.32277,3.74684 -4.5182,10.76306 -5.66183,12.43153 -0.19521,0.28468 -0.66516,1.06823 -1.04452,1.74123 l -0.68975,1.22364 1.74249,-0.13392 c 0.95841,-0.0737 2.81384,-0.32518 4.12317,-0.5589 z" id="path1" /></g></svg>