<?xml version='1.0' encoding='utf-8'?>
<svg xmlns="http://www.w3.org/2000/svg" xmlns:ns1="http://sodipodi.sourceforge.net/DTD/sodipodi-0.dtd" xmlns:ns2="http://www.inkscape.org/namespaces/inkscape" viewBox="0 0 158.75 119.0625" version="1.1" id="svg1" ns1:docname="I.svg" ns2:version="1.4.2 (f4327f4, 2025-05-13)" xml:space="preserve"><ns1:namedview id="namedview1" pagecolor="#ffffff" bordercolor="#000000" borderopacity="0.25" ns2:showpageshadow="2" ns2:pageopacity="0.0" ns2:pagecheckerboard="0" ns2:deskcolor="#d1d1d1" ns2:zoom="3.161553" ns2:cx="79.707663" ns2:cy="61.204098" ns2:window-width="1366" ns2:window-height="705" ns2:window-x="-8" ns2:window-y="-8" ns2:window-maximized="1" ns2:current-layer="svg1" /><defs id="defs1"><rect x="-34.793027" y="89.829271" width="65.790448" height="16.447613" id="rect3" /><rect x="14.549811" y="36.058228" width="60.729648" height="58.515546" id="rect2" /><clipPath clipPathUnits="userSpaceOnUse" id="clipPath3"><path d="M 0,500 H 500 V 0 H 0 Z" transform="translate(-432.53711,-135.74711)" id="path3" /></clipPath><clipPath clipPathUnits="userSpaceOnUse" id="clipPath5"><path d="M 0,500 H 500 V 0 H 0 Z" transform="translate(-151.34181,-199.4336)" id="path5" /></clipPath><clipPath clipPathUnits="userSpaceOnUse" id="clipPath7"><path d="M 0,500 H 500 V 0 H 0 Z" transform="translate(-151.34181,-199.4336)" id="path7" /></clipPath><clipPath clipPathUnits="userSpaceOnUse" id="clipPath9"><path d="M 0,500 H 500 V 0 H 0 Z" transform="translate(-182.0161,-196.83011)" id="path9" /></clipPath><clipPath clipPathUnits="userSpaceOnUse" id="clipPath11"><path d="M 0,500 H 500 V 0 H 0 Z" transform="translate(-270.2578,-262.13381)" id="path11" /></clipPath><clipPath clipPathUnits="userSpaceOnUse" id="clipPath13"><path d="M 0,500 H 500 V 0 H 0 Z" transform="translate(-270.2578,-262.13381)" id="path13" /></clipPath><clipPath clipPathUnits="userSpaceOnUse" id="clipPath15"><path d="M 0,500 H 500 V 0 H 0 Z" transform="translate(-270.73731,-316.68121)" id="path15" /></clipPath><clipPath clipPathUnits="userSpaceOnUse" id="clipPath17"><path d="M 0,500 H 500 V 0 H 0 Z" transform="translate(-243.895,-297.82131)" id="path17" /></clipPath><clipPath clipPathUnits="userSpaceOnUse" id="clipPath19"><path d="M 0,500 H 500 V 0 H 0 Z" transform="translate(-243.895,-297.82131)" id="path19" /></clipPath><clipPath clipPathUnits="userSpaceOnUse" id="clipPath21"><path d="M 0,500 H 500 V 0 H 0 Z" transform="translate(-227.96341,-327.47461)" id="path21" /></clipPath><clipPath clipPathUnits="userSpaceOnUse" id="clipPath23"><path d="M 0,500 H 500 V 0 H 0 Z" transform="translate(-150.6709,-325.02691)" id="path23" /></clipPath><clipPath clipPathUnits="userSpaceOnUse" id="clipPath25"><path d="M 0,500 H 500 V 0 H 0 Z" transform="translate(-150.6709,-325.02691)" id="path25" /></clipPath><clipPath clipPathUnits="userSpaceOnUse" id="clipPath27"><path d="M 0,500 H 500 V 0 H 0 Z" transform="translate(-115.0161,-334.36131)" id="path27" /></clipPath><clipPath clipPathUnits="userSpaceOnUse" id="clipPath29"><path d="M 0,500 H 500 V 0 H 0 Z" transform="translate(-104.1924,-244.44141)" id="path29" /></clipPath><clipPath clipPathUnits="userSpaceOnUse" id="clipPath31"><path d="M 0,500 H 500 V 0 H 0 Z" transform="translate(-104.1924,-244.44141)" id="path31" /></clipPath><clipPath clipPathUnits="userSpaceOnUse" id="clipPath33"><path d="M 0,500 H 500 V 0 H 0 Z" transform="translate(-79.019004,-177.8154)" id="path33" /></clipPath><clipPath clipPathUnits="userSpaceOnUse" id="clipPath35"><path d="M 0,500 H 500 V 0 H 0 Z" transform="translate(-105.8481,-187.5293)" id="path35" /></clipPath><clipPath clipPathUnits="userSpaceOnUse" id="clipPath37"><path d="M 0,500 H 500 V 0 H 0 Z" transform="translate(-120.3486,-245.5713)" id="path37" /></clipPath><clipPath clipPathUnits="userSpaceOnUse" id="clipPath39"><path d="M 0,500 H 500 V 0 H 0 Z" transform="translate(-43.031301,-294.82521)" id="path39" /></clipPath><clipPath clipPathUnits="userSpaceOnUse" id="clipPath41"><path d="M 0,500 H 500 V 0 H 0 Z" transform="translate(-140.2095,-138.87791)" id="path41" /></clipPath><clipPath clipPathUnits="userSpaceOnUse" id="clipPath43"><path d="M 0,500 H 500 V 0 H 0 Z" transform="translate(-140.2095,-138.87791)" id="path43" /></clipPath><clipPath clipPathUnits="userSpaceOnUse" id="clipPath45"><path d="M 0,500 H 500 V 0 H 0 Z" transform="translate(-131.71041,-136.21781)" id="path45" /></clipPath><clipPath clipPathUnits="userSpaceOnUse" id="clipPath47"><path d="M 0,500 H 500 V 0 H 0 Z" transform="translate(-95.863802,-329.88091)" id="path47" /></clipPath><clipPath clipPathUnits="userSpaceOnUse" id="clipPath49"><path d="M 0,500 H 500 V 0 H 0 Z" transform="translate(-99.722702,-346.67581)" id="path49" /></clipPath><clipPath clipPathUnits="userSpaceOnUse" id="clipPath51"><path d="M 0,500 H 500 V 0 H 0 Z" transform="translate(-99.596702,-349.59371)" id="path51" /></clipPath><clipPath clipPathUnits="userSpaceOnUse" id="clipPath53"><path d="M 0,500 H 500 V 0 H 0 Z" transform="translate(-75.429699,-348.79931)" id="path53" /></clipPath><clipPath clipPathUnits="userSpaceOnUse" id="clipPath55"><path d="M 0,500 H 500 V 0 H 0 Z" transform="translate(-52.736801,-378.31591)" id="path55" /></clipPath><clipPath clipPathUnits="userSpaceOnUse" id="clipPath57"><path d="M 0,500 H 500 V 0 H 0 Z" transform="translate(-71.700202,-397.00241)" id="path57" /></clipPath><clipPath clipPathUnits="userSpaceOnUse" id="clipPath59"><path d="M 0,500 H 500 V 0 H 0 Z" transform="translate(-49.381801,-362.78271)" id="path59" /></clipPath><clipPath clipPathUnits="userSpaceOnUse" id="clipPath61"><path d="M 0,500 H 500 V 0 H 0 Z" transform="translate(-75.429699,-348.79931)" id="path61" /></clipPath><clipPath clipPathUnits="userSpaceOnUse" id="clipPath63"><path d="M 0,500 H 500 V 0 H 0 Z" transform="translate(-52.736801,-378.31591)" id="path63" /></clipPath><clipPath clipPathUnits="userSpaceOnUse" id="clipPath65"><path d="M 0,500 H 500 V 0 H 0 Z" transform="translate(-87.7402,-374.77391)" id="path65" /></clipPath><clipPath clipPathUnits="userSpaceOnUse" id="clipPath67"><path d="M 0,500 H 500 V 0 H 0 Z" transform="translate(-90.202105,-372.51071)" id="path67" /></clipPath><clipPath clipPathUnits="userSpaceOnUse" id="clipPath69"><path d="M 0,500 H 500 V 0 H 0 Z" transform="translate(-43.860801,-338.97661)" id="path69" /></clipPath><clipPath clipPathUnits="userSpaceOnUse" id="clipPath71"><path d="M 0,500 H 500 V 0 H 0 Z" transform="translate(-62.706502,-345.08251)" id="path71" /></clipPath><clipPath clipPathUnits="userSpaceOnUse" id="clipPath73"><path d="M 0,500 H 500 V 0 H 0 Z" transform="translate(-32.944801,-364.06201)" id="path73" /></clipPath><clipPath clipPathUnits="userSpaceOnUse" id="clipPath75"><path d="M 0,500 H 500 V 0 H 0 Z" transform="translate(-32.363801,-386.02201)" id="path75" /></clipPath><clipPath clipPathUnits="userSpaceOnUse" id="clipPath77"><path d="M 0,500 H 500 V 0 H 0 Z" transform="translate(-42.559601,-382.52731)" id="path77" /></clipPath><clipPath clipPathUnits="userSpaceOnUse" id="clipPath79"><path d="M 0,500 H 500 V 0 H 0 Z" transform="translate(-72.010702,-416.37261)" id="path79" /></clipPath><clipPath clipPathUnits="userSpaceOnUse" id="clipPath81"><path d="M 0,500 H 500 V 0 H 0 Z" transform="translate(-88.275902,-375.45461)" id="path81" /></clipPath><clipPath clipPathUnits="userSpaceOnUse" id="clipPath83"><path d="M 0,500 H 500 V 0 H 0 Z" transform="translate(-125.0845,-367.83841)" id="path83" /></clipPath><clipPath clipPathUnits="userSpaceOnUse" id="clipPath85"><path d="M 0,500 H 500 V 0 H 0 Z" transform="translate(-88.761205,-375.09231)" id="path85" /></clipPath><clipPath clipPathUnits="userSpaceOnUse" id="clipPath87"><path d="M 0,500 H 500 V 0 H 0 Z" transform="translate(-125.2983,-381.78861)" id="path87" /></clipPath><clipPath clipPathUnits="userSpaceOnUse" id="clipPath89"><path d="M 0,500 H 500 V 0 H 0 Z" transform="translate(-96.329605,-397.87451)" id="path89" /></clipPath><clipPath clipPathUnits="userSpaceOnUse" id="clipPath91"><path d="M 0,500 H 500 V 0 H 0 Z" transform="translate(-87.3955,-382.24561)" id="path91" /></clipPath><clipPath clipPathUnits="userSpaceOnUse" id="clipPath93"><path d="M 0,500 H 500 V 0 H 0 Z" transform="translate(-125.2983,-381.78861)" id="path93" /></clipPath><clipPath clipPathUnits="userSpaceOnUse" id="clipPath95"><path d="M 0,500 H 500 V 0 H 0 Z" transform="translate(-71.700202,-397.00241)" id="path95" /></clipPath><clipPath clipPathUnits="userSpaceOnUse" id="clipPath97"><path d="M 0,500 H 500 V 0 H 0 Z" transform="translate(-139.3882,-350.70461)" id="path97" /></clipPath><clipPath clipPathUnits="userSpaceOnUse" id="clipPath99"><path d="M 0,500 H 500 V 0 H 0 Z" transform="translate(-97.266602,-377.96481)" id="path99" /></clipPath><clipPath clipPathUnits="userSpaceOnUse" id="clipPath101"><path d="M 0,500 H 500 V 0 H 0 Z" transform="translate(-119.97171,-375.45461)" id="path101" /></clipPath><clipPath clipPathUnits="userSpaceOnUse" id="clipPath103"><path d="M 0,500 H 500 V 0 H 0 Z" transform="translate(-437.25881,-102.749)" id="path103" /></clipPath><clipPath clipPathUnits="userSpaceOnUse" id="clipPath105"><path d="M 0,500 H 500 V 0 H 0 Z" transform="translate(-153.0757,-110.08691)" id="path105" /></clipPath><clipPath clipPathUnits="userSpaceOnUse" id="clipPath107"><path d="M 0,500 H 500 V 0 H 0 Z" transform="translate(-68.039602,-123.2412)" id="path107" /></clipPath><clipPath clipPathUnits="userSpaceOnUse" id="clipPath109"><path d="M 0,500 H 500 V 0 H 0 Z" transform="translate(-98.763205,-118.9268)" id="path109" /></clipPath><clipPath clipPathUnits="userSpaceOnUse" id="clipPath111"><path d="M 0,500 H 500 V 0 H 0 Z" transform="translate(-94.1626,-133.752)" id="path111" /></clipPath><clipPath clipPathUnits="userSpaceOnUse" id="clipPath113"><path d="M 0,500 H 500 V 0 H 0 Z" transform="translate(-130.0093,-133.8818)" id="path113" /></clipPath><clipPath clipPathUnits="userSpaceOnUse" id="clipPath115"><path d="M 0,500 H 500 V 0 H 0 Z" transform="translate(-216.42291,-119.5391)" id="path115" /></clipPath><clipPath clipPathUnits="userSpaceOnUse" id="clipPath117"><path d="M 0,500 H 500 V 0 H 0 Z" transform="translate(-216.4243,-119.54)" id="path117" /></clipPath><clipPath clipPathUnits="userSpaceOnUse" id="clipPath119"><path d="M 0,500 H 500 V 0 H 0 Z" transform="translate(-216.42291,-119.5391)" id="path119" /></clipPath><clipPath clipPathUnits="userSpaceOnUse" id="clipPath121"><path d="M 0,500 H 500 V 0 H 0 Z" transform="translate(-432.46971,-121.0557)" id="path121" /></clipPath><clipPath clipPathUnits="userSpaceOnUse" id="clipPath123"><path d="M 0,500 H 500 V 0 H 0 Z" transform="translate(-427.03711,-133.8525)" id="path123" /></clipPath><clipPath clipPathUnits="userSpaceOnUse" id="clipPath125"><path d="M 0,500 H 500 V 0 H 0 Z" transform="translate(-405.37791,-144.78911)" id="path125" /></clipPath><clipPath clipPathUnits="userSpaceOnUse" id="clipPath127"><path d="M 0,500 H 500 V 0 H 0 Z" transform="translate(-404.70611,-137.2754)" id="path127" /></clipPath><clipPath clipPathUnits="userSpaceOnUse" id="clipPath129"><path d="M 0,500 H 500 V 0 H 0 Z" transform="translate(-432.46971,-121.0557)" id="path129" /></clipPath><clipPath clipPathUnits="userSpaceOnUse" id="clipPath131"><path d="M 0,500 H 500 V 0 H 0 Z" transform="translate(-327.13481,-114.4746)" id="path131" /></clipPath><clipPath clipPathUnits="userSpaceOnUse" id="clipPath133"><path d="M 0,500 H 500 V 0 H 0 Z" transform="translate(-376.72071,-396.30321)" id="path133" /></clipPath><clipPath clipPathUnits="userSpaceOnUse" id="clipPath135"><path d="M 0,500 H 500 V 0 H 0 Z" transform="translate(-345.24221,-355.45311)" id="path135" /></clipPath><clipPath clipPathUnits="userSpaceOnUse" id="clipPath137"><path d="M 0,500 H 500 V 0 H 0 Z" transform="translate(-315.50001,-373.42481)" id="path137" /></clipPath><clipPath clipPathUnits="userSpaceOnUse" id="clipPath139"><path d="M 0,500 H 500 V 0 H 0 Z" transform="translate(-312.87011,-392.23001)" id="path139" /></clipPath><clipPath clipPathUnits="userSpaceOnUse" id="clipPath141"><path d="M 0,500 H 500 V 0 H 0 Z" transform="translate(-328.25681,-433.48831)" id="path141" /></clipPath><clipPath clipPathUnits="userSpaceOnUse" id="clipPath143"><path d="M 0,500 H 500 V 0 H 0 Z" transform="translate(-371.31351,-429.34471)" id="path143" /></clipPath><clipPath clipPathUnits="userSpaceOnUse" id="clipPath145"><path d="M 0,500 H 500 V 0 H 0 Z" transform="translate(-356.50101,-401.37401)" id="path145" /></clipPath><clipPath clipPathUnits="userSpaceOnUse" id="clipPath147"><path d="M 0,500 H 500 V 0 H 0 Z" transform="translate(-356.68651,-383.02541)" id="path147" /></clipPath><clipPath clipPathUnits="userSpaceOnUse" id="clipPath149"><path d="M 0,500 H 500 V 0 H 0 Z" transform="translate(-339.52251,-412.63771)" id="path149" /></clipPath><clipPath clipPathUnits="userSpaceOnUse" id="clipPath151"><path d="M 0,500 H 500 V 0 H 0 Z" transform="translate(-376.35061,-419.38281)" id="path151" /></clipPath><clipPath clipPathUnits="userSpaceOnUse" id="clipPath153"><path d="M 0,500 H 500 V 0 H 0 Z" transform="translate(-364.11821,-384.56741)" id="path153" /></clipPath><clipPath clipPathUnits="userSpaceOnUse" id="clipPath155"><path d="M 0,500 H 500 V 0 H 0 Z" transform="translate(-376.72071,-396.30321)" id="path155" /></clipPath><clipPath clipPathUnits="userSpaceOnUse" id="clipPath157"><path d="M 0,500 H 500 V 0 H 0 Z" transform="translate(-313.61911,-296.27291)" id="path157" /></clipPath><clipPath clipPathUnits="userSpaceOnUse" id="clipPath159"><path d="M 0,500 H 500 V 0 H 0 Z" transform="translate(-305.04881,-316.07621)" id="path159" /></clipPath><clipPath clipPathUnits="userSpaceOnUse" id="clipPath161"><path d="M 0,500 H 500 V 0 H 0 Z" transform="translate(-300.53611,-275.20511)" id="path161" /></clipPath><clipPath clipPathUnits="userSpaceOnUse" id="clipPath163"><path d="M 0,500 H 500 V 0 H 0 Z" transform="translate(-319.84181,-243.67191)" id="path163" /></clipPath><clipPath clipPathUnits="userSpaceOnUse" id="clipPath165"><path d="M 0,500 H 500 V 0 H 0 Z" transform="translate(-338.39361,-241.03421)" id="path165" /></clipPath><clipPath clipPathUnits="userSpaceOnUse" id="clipPath167"><path d="M 0,500 H 500 V 0 H 0 Z" transform="translate(-320.49711,-352.96141)" id="path167" /></clipPath><clipPath clipPathUnits="userSpaceOnUse" id="clipPath169"><path d="M 0,500 H 500 V 0 H 0 Z" transform="translate(-431.04981,-326.64161)" id="path169" /></clipPath><clipPath clipPathUnits="userSpaceOnUse" id="clipPath171"><path d="M 0,500 H 500 V 0 H 0 Z" transform="translate(-372.06351,-226.83401)" id="path171" /></clipPath><clipPath clipPathUnits="userSpaceOnUse" id="clipPath173"><path d="M 0,500 H 500 V 0 H 0 Z" transform="translate(-399.95511,-220.86041)" id="path173" /></clipPath><clipPath clipPathUnits="userSpaceOnUse" id="clipPath175"><path d="M 0,500 H 500 V 0 H 0 Z" transform="translate(-323.42581,-269.89451)" id="path175" /></clipPath><clipPath clipPathUnits="userSpaceOnUse" id="clipPath177"><path d="M 0,500 H 500 V 0 H 0 Z" transform="translate(-355.10741,-259.54641)" id="path177" /></clipPath><clipPath clipPathUnits="userSpaceOnUse" id="clipPath179"><path d="M 0,500 H 500 V 0 H 0 Z" transform="translate(-313.61911,-296.27291)" id="path179" /></clipPath><clipPath clipPathUnits="userSpaceOnUse" id="clipPath181"><path d="M 0,500 H 500 V 0 H 0 Z" transform="translate(-369.42681,-281.5425)" id="path181" /></clipPath><clipPath clipPathUnits="userSpaceOnUse" id="clipPath183"><path d="M 0,500 H 500 V 0 H 0 Z" transform="translate(-336.97751,-317.55571)" id="path183" /></clipPath><clipPath clipPathUnits="userSpaceOnUse" id="clipPath185"><path d="M 0,500 H 500 V 0 H 0 Z" transform="translate(-313.62011,-296.27151)" id="path185" /></clipPath><clipPath clipPathUnits="userSpaceOnUse" id="clipPath187"><path d="M 0,500 H 500 V 0 H 0 Z" transform="translate(-369.07811,-322.24461)" id="path187" /></clipPath><clipPath clipPathUnits="userSpaceOnUse" id="clipPath189"><path d="M 0,500 H 500 V 0 H 0 Z" transform="translate(-336.97751,-317.55571)" id="path189" /></clipPath><clipPath clipPathUnits="userSpaceOnUse" id="clipPath191"><path d="M 0,500 H 500 V 0 H 0 Z" transform="translate(-401.02541,-318.82371)" id="path191" /></clipPath><clipPath clipPathUnits="userSpaceOnUse" id="clipPath193"><path d="M 0,500 H 500 V 0 H 0 Z" transform="translate(-369.07811,-322.24411)" id="path193" /></clipPath><clipPath clipPathUnits="userSpaceOnUse" id="clipPath195"><path d="M 0,500 H 500 V 0 H 0 Z" transform="translate(-401.98341,-287.1846)" id="path195" /></clipPath><clipPath clipPathUnits="userSpaceOnUse" id="clipPath197"><path d="M 0,500 H 500 V 0 H 0 Z" transform="translate(-401.02541,-318.82371)" id="path197" /></clipPath><clipPath clipPathUnits="userSpaceOnUse" id="clipPath199"><path d="M 0,500 H 500 V 0 H 0 Z" transform="translate(-385.65231,-244.13481)" id="path199" /></clipPath><clipPath clipPathUnits="userSpaceOnUse" id="clipPath201"><path d="M 0,500 H 500 V 0 H 0 Z" transform="translate(-361.43161,-257.66991)" id="path201" /></clipPath><clipPath clipPathUnits="userSpaceOnUse" id="clipPath203"><path d="M 0,500 H 500 V 0 H 0 Z" transform="translate(-361.72851,-265.84031)" id="path203" /></clipPath><clipPath clipPathUnits="userSpaceOnUse" id="clipPath205"><path d="M 0,500 H 500 V 0 H 0 Z" transform="translate(-402.13871,-265.52591)" id="path205" /></clipPath><clipPath clipPathUnits="userSpaceOnUse" id="clipPath207"><path d="M 0,500 H 500 V 0 H 0 Z" transform="translate(-385.65231,-244.13571)" id="path207" /></clipPath><clipPath clipPathUnits="userSpaceOnUse" id="clipPath209"><path d="M 0,500 H 500 V 0 H 0 Z" transform="translate(-402.13771,-265.52541)" id="path209" /></clipPath><clipPath clipPathUnits="userSpaceOnUse" id="clipPath211"><path d="M 0,500 H 500 V 0 H 0 Z" transform="translate(-355.10741,-259.54641)" id="path211" /></clipPath><clipPath clipPathUnits="userSpaceOnUse" id="clipPath213"><path d="M 0,500 H 500 V 0 H 0 Z" transform="translate(-242.46831,-133.5723)" id="path213" /></clipPath><clipPath clipPathUnits="userSpaceOnUse" id="clipPath215"><path d="M 0,500 H 500 V 0 H 0 Z" transform="translate(-210.0742,-231.25001)" id="path215" /></clipPath><clipPath clipPathUnits="userSpaceOnUse" id="clipPath217"><path d="M 0,500 H 500 V 0 H 0 Z" transform="translate(-184.9072,-258.88431)" id="path217" /></clipPath><clipPath clipPathUnits="userSpaceOnUse" id="clipPath219"><path d="M 0,500 H 500 V 0 H 0 Z" transform="translate(-148.6821,-295.10451)" id="path219" /></clipPath><clipPath clipPathUnits="userSpaceOnUse" id="clipPath221"><path d="M 0,500 H 500 V 0 H 0 Z" transform="translate(-147.19731,-276.85691)" id="path221" /></clipPath><clipPath clipPathUnits="userSpaceOnUse" id="clipPath223"><path d="M 0,500 H 500 V 0 H 0 Z" transform="translate(-145.4277,-259.17381)" id="path223" /></clipPath><clipPath clipPathUnits="userSpaceOnUse" id="clipPath225"><path d="M 0,500 H 500 V 0 H 0 Z" transform="translate(-144.6172,-243.18261)" id="path225" /></clipPath><clipPath clipPathUnits="userSpaceOnUse" id="clipPath227"><path d="M 0,500 H 500 V 0 H 0 Z" transform="translate(-145.23831,-226.34181)" id="path227" /></clipPath><clipPath clipPathUnits="userSpaceOnUse" id="clipPath229"><path d="M 0,500 H 500 V 0 H 0 Z" transform="translate(-148.04301,-210.12111)" id="path229" /></clipPath><clipPath clipPathUnits="userSpaceOnUse" id="clipPath231"><path d="M 0,500 H 500 V 0 H 0 Z" transform="translate(-154.3618,-192.44921)" id="path231" /></clipPath><clipPath clipPathUnits="userSpaceOnUse" id="clipPath233"><path d="M 0,500 H 500 V 0 H 0 Z" transform="translate(-163.56201,-176.61521)" id="path233" /></clipPath><clipPath clipPathUnits="userSpaceOnUse" id="clipPath235"><path d="M 0,500 H 500 V 0 H 0 Z" transform="translate(-179.42721,-158.4932)" id="path235" /></clipPath><clipPath clipPathUnits="userSpaceOnUse" id="clipPath237"><path d="M 0,500 H 500 V 0 H 0 Z" transform="translate(-168.06741,-111.37211)" id="path237" /></clipPath><clipPath clipPathUnits="userSpaceOnUse" id="clipPath239"><path d="M 0,500 H 500 V 0 H 0 Z" transform="translate(-171.1729,-117.8379)" id="path239" /></clipPath><clipPath clipPathUnits="userSpaceOnUse" id="clipPath241"><path d="M 0,500 H 500 V 0 H 0 Z" transform="translate(-262.65531,-102.97271)" id="path241" /></clipPath><clipPath clipPathUnits="userSpaceOnUse" id="clipPath243"><path d="M 0,500 H 500 V 0 H 0 Z" transform="translate(-256.89841,-105.15821)" id="path243" /></clipPath><clipPath clipPathUnits="userSpaceOnUse" id="clipPath245"><path d="M 0,500 H 500 V 0 H 0 Z" transform="translate(-197.36961,-145.5762)" id="path245" /></clipPath><clipPath clipPathUnits="userSpaceOnUse" id="clipPath247"><path d="M 0,500 H 500 V 0 H 0 Z" transform="translate(-218.4478,-137.4365)" id="path247" /></clipPath><clipPath clipPathUnits="userSpaceOnUse" id="clipPath249"><path d="M 0,500 H 500 V 0 H 0 Z" transform="translate(-252.6064,-248.63481)" id="path249" /></clipPath><clipPath clipPathUnits="userSpaceOnUse" id="clipPath251"><path d="M 0,500 H 500 V 0 H 0 Z" transform="translate(-263.56351,-232.1865)" id="path251" /></clipPath><clipPath clipPathUnits="userSpaceOnUse" id="clipPath253"><path d="M 0,500 H 500 V 0 H 0 Z" transform="translate(-280.915,-228.33591)" id="path253" /></clipPath><clipPath clipPathUnits="userSpaceOnUse" id="clipPath255"><path d="M 0,500 H 500 V 0 H 0 Z" transform="translate(-279.01861,-215.27831)" id="path255" /></clipPath><clipPath clipPathUnits="userSpaceOnUse" id="clipPath257"><path d="M 0,500 H 500 V 0 H 0 Z" transform="translate(-267.748,-214.49321)" id="path257" /></clipPath><clipPath clipPathUnits="userSpaceOnUse" id="clipPath259"><path d="M 0,500 H 500 V 0 H 0 Z" transform="translate(-309.81641,-206.8818)" id="path259" /></clipPath><clipPath clipPathUnits="userSpaceOnUse" id="clipPath261"><path d="M 0,500 H 500 V 0 H 0 Z" transform="translate(-322.25681,-187.8135)" id="path261" /></clipPath><clipPath clipPathUnits="userSpaceOnUse" id="clipPath263"><path d="M 0,500 H 500 V 0 H 0 Z" transform="translate(-329.74901,-169.2236)" id="path263" /></clipPath><clipPath clipPathUnits="userSpaceOnUse" id="clipPath265"><path d="M 0,500 H 500 V 0 H 0 Z" transform="translate(-341.73931,-143.08301)" id="path265" /></clipPath><clipPath clipPathUnits="userSpaceOnUse" id="clipPath267"><path d="M 0,500 H 500 V 0 H 0 Z" transform="translate(-354.48051,-143.9541)" id="path267" /></clipPath><clipPath clipPathUnits="userSpaceOnUse" id="clipPath269"><path d="M 0,500 H 500 V 0 H 0 Z" transform="translate(-341.77441,-168.3789)" id="path269" /></clipPath><clipPath clipPathUnits="userSpaceOnUse" id="clipPath271"><path d="M 0,500 H 500 V 0 H 0 Z" transform="translate(-385.95121,-98.459002)" id="path271" /></clipPath><clipPath clipPathUnits="userSpaceOnUse" id="clipPath273"><path d="M 0,500 H 500 V 0 H 0 Z" transform="translate(-379.38281,-132.7695)" id="path273" /></clipPath><clipPath clipPathUnits="userSpaceOnUse" id="clipPath275"><path d="M 0,500 H 500 V 0 H 0 Z" transform="translate(-180.59571,-341.57131)" id="path275" /></clipPath><clipPath clipPathUnits="userSpaceOnUse" id="clipPath277"><path d="M 0,500 H 500 V 0 H 0 Z" transform="translate(-189.04101,-346.05371)" id="path277" /></clipPath><clipPath clipPathUnits="userSpaceOnUse" id="clipPath279"><path d="M 0,500 H 500 V 0 H 0 Z" transform="translate(-184.69431,-261.6948)" id="path279" /></clipPath><clipPath clipPathUnits="userSpaceOnUse" id="clipPath281"><path d="M 0,500 H 500 V 0 H 0 Z" transform="translate(-198.0361,-215.9238)" id="path281" /></clipPath><clipPath clipPathUnits="userSpaceOnUse" id="clipPath283"><path d="M 0,500 H 500 V 0 H 0 Z" transform="translate(-187.3789,-215.26761)" id="path283" /></clipPath><clipPath clipPathUnits="userSpaceOnUse" id="clipPath285"><path d="M 0,500 H 500 V 0 H 0 Z" transform="translate(-180.43551,-218.77541)" id="path285" /></clipPath><clipPath clipPathUnits="userSpaceOnUse" id="clipPath287"><path d="M 0,500 H 500 V 0 H 0 Z" transform="translate(-175.2612,-228.13961)" id="path287" /></clipPath><clipPath clipPathUnits="userSpaceOnUse" id="clipPath289"><path d="M 0,500 H 500 V 0 H 0 Z" transform="translate(-244.6279,-404.04541)" id="path289" /></clipPath><clipPath clipPathUnits="userSpaceOnUse" id="clipPath291"><path d="M 0,500 H 500 V 0 H 0 Z" transform="translate(-228.89061,-353.46631)" id="path291" /></clipPath><clipPath clipPathUnits="userSpaceOnUse" id="clipPath293"><path d="M 0,500 H 500 V 0 H 0 Z" transform="translate(-183.4443,-384.64701)" id="path293" /></clipPath><clipPath clipPathUnits="userSpaceOnUse" id="clipPath295"><path d="M 0,500 H 500 V 0 H 0 Z" transform="translate(-225.19921,-396.14601)" id="path295" /></clipPath><clipPath clipPathUnits="userSpaceOnUse" id="clipPath297"><path d="M 0,500 H 500 V 0 H 0 Z" transform="translate(-203.1001,-348.71041)" id="path297" /></clipPath><clipPath clipPathUnits="userSpaceOnUse" id="clipPath299"><path d="M 0,500 H 500 V 0 H 0 Z" transform="translate(-165.3213,-379.77441)" id="path299" /></clipPath><clipPath clipPathUnits="userSpaceOnUse" id="clipPath301"><path d="M 0,500 H 500 V 0 H 0 Z" transform="translate(-177.6465,-379.95211)" id="path301" /></clipPath><clipPath clipPathUnits="userSpaceOnUse" id="clipPath303"><path d="M 0,500 H 500 V 0 H 0 Z" transform="translate(-230.05221,-388.11181)" id="path303" /></clipPath><clipPath clipPathUnits="userSpaceOnUse" id="clipPath305"><path d="M 0,500 H 500 V 0 H 0 Z" transform="translate(-211.17331,-139.4316)" id="path305" /></clipPath><clipPath clipPathUnits="userSpaceOnUse" id="clipPath307"><path d="M 0,500 H 500 V 0 H 0 Z" transform="translate(-162.37701,-177.70511)" id="path307" /></clipPath><clipPath clipPathUnits="userSpaceOnUse" id="clipPath309"><path d="M 0,500 H 500 V 0 H 0 Z" transform="translate(-146.4858,-215.95611)" id="path309" /></clipPath><clipPath clipPathUnits="userSpaceOnUse" id="clipPath311"><path d="M 0,500 H 500 V 0 H 0 Z" transform="translate(-147.6426,-281.3652)" id="path311" /></clipPath><clipPath clipPathUnits="userSpaceOnUse" id="clipPath313"><path d="M 0,500 H 500 V 0 H 0 Z" transform="translate(-212.31691,-438.15091)" id="path313" /></clipPath><clipPath clipPathUnits="userSpaceOnUse" id="clipPath315"><path d="M 0,500 H 500 V 0 H 0 Z" transform="translate(-217.1611,-433.01421)" id="path315" /></clipPath><clipPath clipPathUnits="userSpaceOnUse" id="clipPath317"><path d="M 0,500 H 500 V 0 H 0 Z" transform="translate(-147.6421,-281.3652)" id="path317" /></clipPath><clipPath clipPathUnits="userSpaceOnUse" id="clipPath319"><path d="M 0,500 H 500 V 0 H 0 Z" transform="translate(-161.75781,-91.345702)" id="path319" /></clipPath><clipPath clipPathUnits="userSpaceOnUse" id="clipPath321"><path d="M 0,500 H 500 V 0 H 0 Z" transform="translate(-175.57281,-91.524405)" id="path321" /></clipPath><clipPath clipPathUnits="userSpaceOnUse" id="clipPath323"><path d="M 0,500 H 500 V 0 H 0 Z" transform="translate(-151.83351,-93.239302)" id="path323" /></clipPath><clipPath clipPathUnits="userSpaceOnUse" id="clipPath325"><path d="M 0,500 H 500 V 0 H 0 Z" transform="translate(-164.938,-102.69731)" id="path325" /></clipPath><clipPath clipPathUnits="userSpaceOnUse" id="clipPath327"><path d="M 0,500 H 500 V 0 H 0 Z" transform="translate(-149.7358,-106.25591)" id="path327" /></clipPath><clipPath clipPathUnits="userSpaceOnUse" id="clipPath329"><path d="M 0,500 H 500 V 0 H 0 Z" transform="translate(-154.3066,-102.4287)" id="path329" /></clipPath><clipPath clipPathUnits="userSpaceOnUse" id="clipPath331"><path d="M 0,500 H 500 V 0 H 0 Z" transform="translate(-149.7363,-106.2539)" id="path331" /></clipPath><clipPath clipPathUnits="userSpaceOnUse" id="clipPath333"><path d="M 0,500 H 500 V 0 H 0 Z" transform="translate(-200.9458,-119.4854)" id="path333" /></clipPath><clipPath clipPathUnits="userSpaceOnUse" id="clipPath335"><path d="M 0,500 H 500 V 0 H 0 Z" transform="translate(-175.57281,-91.524405)" id="path335" /></clipPath><clipPath clipPathUnits="userSpaceOnUse" id="clipPath337"><path d="M 0,500 H 500 V 0 H 0 Z" transform="translate(-200.9458,-119.4854)" id="path337" /></clipPath><clipPath clipPathUnits="userSpaceOnUse" id="clipPath339"><path d="M 0,500 H 500 V 0 H 0 Z" transform="translate(-148.8901,-300.44871)" id="path339" /></clipPath><clipPath clipPathUnits="userSpaceOnUse" id="clipPath341"><path d="M 0,500 H 500 V 0 H 0 Z" transform="translate(-193.96581,-213.05471)" id="path341" /></clipPath><clipPath clipPathUnits="userSpaceOnUse" id="clipPath343"><path d="M 0,500 H 500 V 0 H 0 Z" transform="translate(-261.6592,-74.062499)" id="path343" /></clipPath><clipPath clipPathUnits="userSpaceOnUse" id="clipPath345"><path d="M 0,500 H 500 V 0 H 0 Z" transform="translate(-281.6641,-73.378904)" id="path345" /></clipPath><clipPath clipPathUnits="userSpaceOnUse" id="clipPath347"><path d="M 0,500 H 500 V 0 H 0 Z" transform="translate(-249.1333,-77.140604)" id="path347" /></clipPath><clipPath clipPathUnits="userSpaceOnUse" id="clipPath349"><path d="M 0,500 H 500 V 0 H 0 Z" transform="translate(-264.82131,-87.2715)" id="path349" /></clipPath><clipPath clipPathUnits="userSpaceOnUse" id="clipPath351"><path d="M 0,500 H 500 V 0 H 0 Z" transform="translate(-246.79251,-92.9004)" id="path351" /></clipPath><clipPath clipPathUnits="userSpaceOnUse" id="clipPath353"><path d="M 0,500 H 500 V 0 H 0 Z" transform="translate(-252.4375,-90.031305)" id="path353" /></clipPath><clipPath clipPathUnits="userSpaceOnUse" id="clipPath355"><path d="M 0,500 H 500 V 0 H 0 Z" transform="translate(-295.7959,-134.51861)" id="path355" /></clipPath><clipPath clipPathUnits="userSpaceOnUse" id="clipPath357"><path d="M 0,500 H 500 V 0 H 0 Z" transform="translate(-281.6641,-73.378904)" id="path357" /></clipPath><clipPath clipPathUnits="userSpaceOnUse" id="clipPath359"><path d="M 0,500 H 500 V 0 H 0 Z" transform="translate(-294.24901,-139.74221)" id="path359" /></clipPath><clipPath clipPathUnits="userSpaceOnUse" id="clipPath361"><path d="M 0,500 H 500 V 0 H 0 Z" transform="translate(-174.46971,-233.32031)" id="path361" /></clipPath><clipPath clipPathUnits="userSpaceOnUse" id="clipPath363"><path d="M 0,500 H 500 V 0 H 0 Z" transform="translate(-435.21781,-118.0029)" id="path363" /></clipPath><clipPath clipPathUnits="userSpaceOnUse" id="clipPath365"><path d="M 0,500 H 500 V 0 H 0 Z" transform="translate(-222.87451,-273.3579)" id="path365" /></clipPath><clipPath clipPathUnits="userSpaceOnUse" id="clipPath367"><path d="M 0,500 H 500 V 0 H 0 Z" transform="translate(-211.97311,-287.7129)" id="path367" /></clipPath><clipPath clipPathUnits="userSpaceOnUse" id="clipPath369"><path d="M 0,500 H 500 V 0 H 0 Z" transform="translate(-192.3208,-318.48581)" id="path369" /></clipPath><clipPath clipPathUnits="userSpaceOnUse" id="clipPath371"><path d="M 0,500 H 500 V 0 H 0 Z" transform="translate(-203.1001,-348.71041)" id="path371" /></clipPath><clipPath clipPathUnits="userSpaceOnUse" id="clipPath373"><path d="M 0,500 H 500 V 0 H 0 Z" transform="translate(-241.7158,-419.51461)" id="path373" /></clipPath><clipPath clipPathUnits="userSpaceOnUse" id="clipPath375"><path d="M 0,500 H 500 V 0 H 0 Z" transform="translate(-229.41751,-435.30081)" id="path375" /></clipPath><clipPath clipPathUnits="userSpaceOnUse" id="clipPath377"><path d="M 0,500 H 500 V 0 H 0 Z" transform="translate(-212.31691,-438.15041)" id="path377" /></clipPath><clipPath clipPathUnits="userSpaceOnUse" id="clipPath379"><path d="M 0,500 H 500 V 0 H 0 Z" transform="translate(-230.53561,-431.04981)" id="path379" /></clipPath><clipPath clipPathUnits="userSpaceOnUse" id="clipPath381"><path d="M 0,500 H 500 V 0 H 0 Z" transform="translate(-200.44921,-304.96681)" id="path381" /></clipPath><clipPath clipPathUnits="userSpaceOnUse" id="clipPath383"><path d="M 0,500 H 500 V 0 H 0 Z" transform="translate(-192.3208,-318.48581)" id="path383" /></clipPath><clipPath clipPathUnits="userSpaceOnUse" id="clipPath385"><path d="M 0,500 H 500 V 0 H 0 Z" transform="translate(-200.44921,-304.96681)" id="path385" /></clipPath><clipPath clipPathUnits="userSpaceOnUse" id="clipPath387"><path d="M 0,500 H 500 V 0 H 0 Z" transform="translate(-242.5444,-263.98241)" id="path387" /></clipPath><clipPath clipPathUnits="userSpaceOnUse" id="clipPath389"><path d="M 0,500 H 500 V 0 H 0 Z" transform="translate(-222.874,-273.3579)" id="path389" /></clipPath><clipPath clipPathUnits="userSpaceOnUse" id="clipPath391"><path d="M 0,500 H 500 V 0 H 0 Z" transform="translate(-261.97951,-254.5728)" id="path391" /></clipPath><clipPath clipPathUnits="userSpaceOnUse" id="clipPath393"><path d="M 0,500 H 500 V 0 H 0 Z" transform="translate(-242.5444,-263.98241)" id="path393" /></clipPath><clipPath clipPathUnits="userSpaceOnUse" id="clipPath395"><path d="M 0,500 H 500 V 0 H 0 Z" transform="translate(-284.5234,-247.34471)" id="path395" /></clipPath><clipPath clipPathUnits="userSpaceOnUse" id="clipPath397"><path d="M 0,500 H 500 V 0 H 0 Z" transform="translate(-261.97951,-254.5728)" id="path397" /></clipPath><clipPath clipPathUnits="userSpaceOnUse" id="clipPath399"><path d="M 0,500 H 500 V 0 H 0 Z" transform="translate(-306.22461,-235.83111)" id="path399" /></clipPath><clipPath clipPathUnits="userSpaceOnUse" id="clipPath401"><path d="M 0,500 H 500 V 0 H 0 Z" transform="translate(-284.5234,-247.34471)" id="path401" /></clipPath><clipPath clipPathUnits="userSpaceOnUse" id="clipPath403"><path d="M 0,500 H 500 V 0 H 0 Z" transform="translate(-323.62701,-215.97171)" id="path403" /></clipPath><clipPath clipPathUnits="userSpaceOnUse" id="clipPath405"><path d="M 0,500 H 500 V 0 H 0 Z" transform="translate(-306.22461,-235.83111)" id="path405" /></clipPath><clipPath clipPathUnits="userSpaceOnUse" id="clipPath407"><path d="M 0,500 H 500 V 0 H 0 Z" transform="translate(-338.43851,-196.10351)" id="path407" /></clipPath><clipPath clipPathUnits="userSpaceOnUse" id="clipPath409"><path d="M 0,500 H 500 V 0 H 0 Z" transform="translate(-323.62701,-215.97171)" id="path409" /></clipPath><clipPath clipPathUnits="userSpaceOnUse" id="clipPath411"><path d="M 0,500 H 500 V 0 H 0 Z" transform="translate(-349.30081,-178.14161)" id="path411" /></clipPath><clipPath clipPathUnits="userSpaceOnUse" id="clipPath413"><path d="M 0,500 H 500 V 0 H 0 Z" transform="translate(-338.43851,-196.10351)" id="path413" /></clipPath><clipPath clipPathUnits="userSpaceOnUse" id="clipPath415"><path d="M 0,500 H 500 V 0 H 0 Z" transform="translate(-360.88771,-160.3232)" id="path415" /></clipPath><clipPath clipPathUnits="userSpaceOnUse" id="clipPath417"><path d="M 0,500 H 500 V 0 H 0 Z" transform="translate(-349.30081,-178.14161)" id="path417" /></clipPath><clipPath clipPathUnits="userSpaceOnUse" id="clipPath419"><path d="M 0,500 H 500 V 0 H 0 Z" transform="translate(-372.44241,-146.8164)" id="path419" /></clipPath><clipPath clipPathUnits="userSpaceOnUse" id="clipPath421"><path d="M 0,500 H 500 V 0 H 0 Z" transform="translate(-360.88771,-160.3232)" id="path421" /></clipPath><clipPath clipPathUnits="userSpaceOnUse" id="clipPath423"><path d="M 0,500 H 500 V 0 H 0 Z" transform="translate(-386.25491,-135.37211)" id="path423" /></clipPath><clipPath clipPathUnits="userSpaceOnUse" id="clipPath425"><path d="M 0,500 H 500 V 0 H 0 Z" transform="translate(-372.44241,-146.8164)" id="path425" /></clipPath><clipPath clipPathUnits="userSpaceOnUse" id="clipPath427"><path d="M 0,500 H 500 V 0 H 0 Z" transform="translate(-401.10251,-128.24711)" id="path427" /></clipPath><clipPath clipPathUnits="userSpaceOnUse" id="clipPath429"><path d="M 0,500 H 500 V 0 H 0 Z" transform="translate(-386.25491,-135.37211)" id="path429" /></clipPath><clipPath clipPathUnits="userSpaceOnUse" id="clipPath431"><path d="M 0,500 H 500 V 0 H 0 Z" transform="translate(-413.76071,-123.0801)" id="path431" /></clipPath><clipPath clipPathUnits="userSpaceOnUse" id="clipPath433"><path d="M 0,500 H 500 V 0 H 0 Z" transform="translate(-401.10161,-128.24711)" id="path433" /></clipPath><clipPath clipPathUnits="userSpaceOnUse" id="clipPath435"><path d="M 0,500 H 500 V 0 H 0 Z" transform="translate(-425.78911,-120.54)" id="path435" /></clipPath><clipPath clipPathUnits="userSpaceOnUse" id="clipPath437"><path d="M 0,500 H 500 V 0 H 0 Z" transform="translate(-413.75981,-123.0801)" id="path437" /></clipPath><clipPath clipPathUnits="userSpaceOnUse" id="clipPath439"><path d="M 0,500 H 500 V 0 H 0 Z" transform="translate(-425.78811,-120.54)" id="path439" /></clipPath><clipPath clipPathUnits="userSpaceOnUse" id="clipPath441"><path d="M 0,500 H 500 V 0 H 0 Z" transform="translate(-229.41751,-435.30081)" id="path441" /></clipPath><clipPath clipPathUnits="userSpaceOnUse" id="clipPath443"><path d="M 0,500 H 500 V 0 H 0 Z" transform="translate(-195.1851,-416.87351)" id="path443" /></clipPath><clipPath clipPathUnits="userSpaceOnUse" id="clipPath445"><path d="M 0,500 H 500 V 0 H 0 Z" transform="translate(-194.6499,-409.87941)" id="path445" /></clipPath><clipPath clipPathUnits="userSpaceOnUse" id="clipPath447"><path d="M 0,500 H 500 V 0 H 0 Z" transform="translate(-180.8179,-416.55571)" id="path447" /></clipPath><clipPath clipPathUnits="userSpaceOnUse" id="clipPath449"><path d="M 0,500 H 500 V 0 H 0 Z" transform="translate(-198.2974,-216.10161)" id="path449" /></clipPath><clipPath clipPathUnits="userSpaceOnUse" id="clipPath451"><path d="M 0,500 H 500 V 0 H 0 Z" transform="translate(-197.6113,-434.94731)" id="path451" /></clipPath><clipPath clipPathUnits="userSpaceOnUse" id="clipPath453"><path d="M 0,500 H 500 V 0 H 0 Z" transform="translate(-181.1304,-402.84721)" id="path453" /></clipPath><clipPath clipPathUnits="userSpaceOnUse" id="clipPath455"><path d="M 0,500 H 500 V 0 H 0 Z" transform="translate(-242.46831,-133.5723)" id="path455" /></clipPath><clipPath clipPathUnits="userSpaceOnUse" id="clipPath457"><path d="M 0,500 H 500 V 0 H 0 Z" transform="translate(-246.79251,-92.899402)" id="path457" /></clipPath><clipPath clipPathUnits="userSpaceOnUse" id="clipPath459"><path d="M 0,500 H 500 V 0 H 0 Z" transform="translate(-318.30371,-121.8018)" id="path459" /></clipPath><clipPath clipPathUnits="userSpaceOnUse" id="clipPath461"><path d="M 0,500 H 500 V 0 H 0 Z" transform="translate(-324.81151,-137.6904)" id="path461" /></clipPath><clipPath clipPathUnits="userSpaceOnUse" id="clipPath463"><path d="M 0,500 H 500 V 0 H 0 Z" transform="translate(-244.49661,-366.76711)" id="path463" /></clipPath><clipPath clipPathUnits="userSpaceOnUse" id="clipPath465"><path d="M 0,500 H 500 V 0 H 0 Z" transform="translate(-243.4399,-375.14401)" id="path465" /></clipPath><clipPath clipPathUnits="userSpaceOnUse" id="clipPath467"><path d="M 0,500 H 500 V 0 H 0 Z" transform="translate(-253.43071,-381.39501)" id="path467" /></clipPath><clipPath clipPathUnits="userSpaceOnUse" id="clipPath469"><path d="M 0,500 H 500 V 0 H 0 Z" transform="translate(-243.12451,-390.81981)" id="path469" /></clipPath><clipPath clipPathUnits="userSpaceOnUse" id="clipPath471"><path d="M 0,500 H 500 V 0 H 0 Z" transform="translate(-253.43551,-396.48051)" id="path471" /></clipPath><clipPath clipPathUnits="userSpaceOnUse" id="clipPath473"><path d="M 0,500 H 500 V 0 H 0 Z" transform="translate(-173.79741,-438.61521)" id="path473" /></clipPath><clipPath clipPathUnits="userSpaceOnUse" id="clipPath475"><path d="M 0,500 H 500 V 0 H 0 Z" transform="translate(-180.8169,-448.72901)" id="path475" /></clipPath><clipPath clipPathUnits="userSpaceOnUse" id="clipPath477"><path d="M 0,500 H 500 V 0 H 0 Z" transform="translate(-188.0278,-438.81051)" id="path477" /></clipPath><clipPath clipPathUnits="userSpaceOnUse" id="clipPath479"><path d="M 0,500 H 500 V 0 H 0 Z" transform="translate(-164.4438,-429.47951)" id="path479" /></clipPath><clipPath clipPathUnits="userSpaceOnUse" id="clipPath481"><path d="M 0,500 H 500 V 0 H 0 Z" transform="translate(-223.02781,-442.81351)" id="path481" /></clipPath><clipPath clipPathUnits="userSpaceOnUse" id="clipPath483"><path d="M 0,500 H 500 V 0 H 0 Z" transform="translate(-224.1406,-432.02691)" id="path483" /></clipPath><clipPath clipPathUnits="userSpaceOnUse" id="clipPath485"><path d="M 0,500 H 500 V 0 H 0 Z" transform="translate(-238.43601,-430.93951)" id="path485" /></clipPath><clipPath clipPathUnits="userSpaceOnUse" id="clipPath487"><path d="M 0,500 H 500 V 0 H 0 Z" transform="translate(-224.20951,-252.1665)" id="path487" /></clipPath><clipPath clipPathUnits="userSpaceOnUse" id="clipPath489"><path d="M 0,500 H 500 V 0 H 0 Z" transform="translate(-211.53421,-248.99801)" id="path489" /></clipPath><clipPath clipPathUnits="userSpaceOnUse" id="clipPath491"><path d="M 0,500 H 500 V 0 H 0 Z" transform="translate(-217.62211,-256.78221)" id="path491" /></clipPath><clipPath clipPathUnits="userSpaceOnUse" id="clipPath493"><path d="M 0,500 H 500 V 0 H 0 Z" transform="translate(-193.0039,-310.81641)" id="path493" /></clipPath><clipPath clipPathUnits="userSpaceOnUse" id="clipPath495"><path d="M 0,500 H 500 V 0 H 0 Z" transform="translate(-195.34371,-304.73681)" id="path495" /></clipPath><clipPath clipPathUnits="userSpaceOnUse" id="clipPath497"><path d="M 0,500 H 500 V 0 H 0 Z" transform="translate(-205.90621,-306.07471)" id="path497" /></clipPath><clipPath clipPathUnits="userSpaceOnUse" id="clipPath499"><path d="M 0,500 H 500 V 0 H 0 Z" transform="translate(-212.42241,-304.53171)" id="path499" /></clipPath><clipPath clipPathUnits="userSpaceOnUse" id="clipPath501"><path d="M 0,500 H 500 V 0 H 0 Z" transform="translate(-230.47221,-278.2026)" id="path501" /></clipPath><clipPath clipPathUnits="userSpaceOnUse" id="clipPath503"><path d="M 0,500 H 500 V 0 H 0 Z" transform="translate(-236.38531,-277.57761)" id="path503" /></clipPath><clipPath clipPathUnits="userSpaceOnUse" id="clipPath505"><path d="M 0,500 H 500 V 0 H 0 Z" transform="translate(-236.61771,-261.92871)" id="path505" /></clipPath><clipPath clipPathUnits="userSpaceOnUse" id="clipPath507"><path d="M 0,500 H 500 V 0 H 0 Z" transform="translate(-248.12551,-268.7295)" id="path507" /></clipPath><clipPath clipPathUnits="userSpaceOnUse" id="clipPath509"><path d="M 0,500 H 500 V 0 H 0 Z" transform="translate(-253.9453,-252.41061)" id="path509" /></clipPath><clipPath clipPathUnits="userSpaceOnUse" id="clipPath511"><path d="M 0,500 H 500 V 0 H 0 Z" transform="translate(-268.85841,-261.021)" id="path511" /></clipPath><clipPath clipPathUnits="userSpaceOnUse" id="clipPath513"><path d="M 0,500 H 500 V 0 H 0 Z" transform="translate(-278.84671,-263.01861)" id="path513" /></clipPath><clipPath clipPathUnits="userSpaceOnUse" id="clipPath515"><path d="M 0,500 H 500 V 0 H 0 Z" transform="translate(-277.45411,-241.44431)" id="path515" /></clipPath><clipPath clipPathUnits="userSpaceOnUse" id="clipPath517"><path d="M 0,500 H 500 V 0 H 0 Z" transform="translate(-291.00781,-251.98731)" id="path517" /></clipPath><clipPath clipPathUnits="userSpaceOnUse" id="clipPath519"><path d="M 0,500 H 500 V 0 H 0 Z" transform="translate(-291.583,-231.55271)" id="path519" /></clipPath><clipPath clipPathUnits="userSpaceOnUse" id="clipPath521"><path d="M 0,500 H 500 V 0 H 0 Z" transform="translate(-305.82131,-246.04391)" id="path521" /></clipPath><clipPath clipPathUnits="userSpaceOnUse" id="clipPath523"><path d="M 0,500 H 500 V 0 H 0 Z" transform="translate(-304.58111,-219.6426)" id="path523" /></clipPath><clipPath clipPathUnits="userSpaceOnUse" id="clipPath525"><path d="M 0,500 H 500 V 0 H 0 Z" transform="translate(-320.65331,-233.27051)" id="path525" /></clipPath><clipPath clipPathUnits="userSpaceOnUse" id="clipPath527"><path d="M 0,500 H 500 V 0 H 0 Z" transform="translate(-312.40621,-210.22071)" id="path527" /></clipPath><clipPath clipPathUnits="userSpaceOnUse" id="clipPath529"><path d="M 0,500 H 500 V 0 H 0 Z" transform="translate(-320.37791,-199.96481)" id="path529" /></clipPath><clipPath clipPathUnits="userSpaceOnUse" id="clipPath531"><path d="M 0,500 H 500 V 0 H 0 Z" transform="translate(-338.23141,-211.09571)" id="path531" /></clipPath><clipPath clipPathUnits="userSpaceOnUse" id="clipPath533"><path d="M 0,500 H 500 V 0 H 0 Z" transform="translate(-333.24611,-180.9609)" id="path533" /></clipPath><clipPath clipPathUnits="userSpaceOnUse" id="clipPath535"><path d="M 0,500 H 500 V 0 H 0 Z" transform="translate(-349.75291,-190.0703)" id="path535" /></clipPath><clipPath clipPathUnits="userSpaceOnUse" id="clipPath537"><path d="M 0,500 H 500 V 0 H 0 Z" transform="translate(-356.27731,-176.8418)" id="path537" /></clipPath><clipPath clipPathUnits="userSpaceOnUse" id="clipPath539"><path d="M 0,500 H 500 V 0 H 0 Z" transform="translate(-350.46971,-157.752)" id="path539" /></clipPath><clipPath clipPathUnits="userSpaceOnUse" id="clipPath541"><path d="M 0,500 H 500 V 0 H 0 Z" transform="translate(-366.06051,-160.3232)" id="path541" /></clipPath><clipPath clipPathUnits="userSpaceOnUse" id="clipPath543"><path d="M 0,500 H 500 V 0 H 0 Z" transform="translate(-364.13671,-143.793)" id="path543" /></clipPath><clipPath clipPathUnits="userSpaceOnUse" id="clipPath545"><path d="M 0,500 H 500 V 0 H 0 Z" transform="translate(-377.46781,-147.89261)" id="path545" /></clipPath><clipPath clipPathUnits="userSpaceOnUse" id="clipPath547"><path d="M 0,500 H 500 V 0 H 0 Z" transform="translate(-378.89751,-133.4639)" id="path547" /></clipPath><clipPath clipPathUnits="userSpaceOnUse" id="clipPath549"><path d="M 0,500 H 500 V 0 H 0 Z" transform="translate(-391.97171,-136.3086)" id="path549" /></clipPath><clipPath clipPathUnits="userSpaceOnUse" id="clipPath551"><path d="M 0,500 H 500 V 0 H 0 Z" transform="translate(-398.54881,-133.02641)" id="path551" /></clipPath><clipPath clipPathUnits="userSpaceOnUse" id="clipPath553"><path d="M 0,500 H 500 V 0 H 0 Z" transform="translate(-407.65531,-128.1602)" id="path553" /></clipPath><clipPath clipPathUnits="userSpaceOnUse" id="clipPath555"><path d="M 0,500 H 500 V 0 H 0 Z" transform="translate(-419.66311,-123.8027)" id="path555" /></clipPath><clipPath clipPathUnits="userSpaceOnUse" id="clipPath557"><path d="M 0,500 H 500 V 0 H 0 Z" transform="translate(-429.65331,-121.5996)" id="path557" /></clipPath><rect x="14.549811" y="36.058228" width="60.729648" height="58.515546" id="rect27" /><rect x="14.549811" y="36.058228" width="60.729648" height="58.515546" id="rect7" /></defs><g id="Color" style="display:inline" transform="matrix(0.20542448,0,0,0.20542448,12.212384,-8.6657839)"><path style="opacity:1;fill:transparent;stroke-width:0.3163;stroke-dasharray:none;stroke:none" d="M 2.8467022,59.622597 V 2.530402 H 79.549513 156.25232 V 59.622597 116.71479 H 79.549513 2.8467022 Z M 109.37669,90.681469 c 0.99471,-0.953965 1.53985,-2.474088 4.5025,-12.555308 1.28639,-4.377295 1.81847,-5.736041 2.54342,-6.495054 1.17211,-1.227192 1.63055,-2.61569 2.94846,-8.930191 0.59065,-2.830014 1.30214,-5.49379 1.58107,-5.919499 0.27894,-0.425708 0.50716,-1.170447 0.50716,-1.654971 1e-5,-0.620543 0.31391,-1.131409 1.0619,-1.72823 1.02392,-0.816988 1.07084,-0.952684 1.31253,-3.795603 0.41239,-4.850784 0.26722,-6.990542 -0.62568,-9.222445 -0.43992,-1.099628 -0.79985,-2.457811 -0.79985,-3.018188 0,-0.560376 -0.23908,-1.474386 -0.53128,-2.031135 -0.29221,-0.556748 -0.71,-2.201841 -0.92843,-3.655764 -0.49763,-3.312349 -1.59631,-5.592919 -3.76412,-7.813323 -1.3001,-1.331645 -1.72943,-2.023219 -1.90244,-3.064517 -0.1229,-0.739627 -0.4142,-1.717688 -0.64734,-2.173469 -0.79915,-1.562262 -3.6951,-3.796918 -6.86165,-5.294782 l -3.10286,-1.467731 0.20399,-1.217972 c 0.19546,-1.1671216 0.17288,-1.2084634 -0.54088,-0.9902149 -5.595332,1.7109009 -11.340917,7.3978139 -11.340917,11.2251049 0,0.756884 -0.43997,1.440603 -1.991034,3.094087 -2.45957,2.621978 -3.354971,4.426988 -3.761379,7.582448 -0.215695,1.67471 -0.555778,2.802501 -1.077015,3.571617 -0.591358,0.872587 -0.762809,1.544813 -0.76638,3.004852 -0.0025,1.034441 -0.218779,2.495723 -0.480549,3.247293 -0.365494,1.049377 -0.448071,2.444024 -0.355834,6.009705 0.06606,2.553767 0.228387,4.897562 0.360727,5.208437 0.132341,0.310873 0.650374,0.777115 1.151188,1.036099 0.697749,0.360819 0.910571,0.693751 0.910571,1.424458 0,0.524473 0.268979,1.339244 0.597732,1.810604 0.328753,0.47136 0.835352,2.138034 1.125776,3.703721 0.290424,1.565686 0.892207,4.394938 1.337295,6.287223 0.677189,2.879053 0.987755,3.638101 1.903068,4.651246 0.947221,1.048459 1.383611,2.177025 3.256109,8.420738 2.898844,9.666009 3.114732,10.205848 4.438998,11.099944 1.030574,0.695806 1.343664,0.736277 4.954934,0.640504 3.72983,-0.09892 3.88486,-0.131011 4.78021,-0.989684 z M 21.654545,79.863286 c 2.08097,-0.25956 6.106509,-0.471924 8.945641,-0.471924 5.583946,0 6.982948,-0.293729 7.689816,-1.614523 0.553142,-1.033552 0.473912,-2.884718 -0.16521,-3.860144 -0.772522,-1.179018 -2.017727,-1.42151 -6.377504,-1.241953 l -3.802833,0.15662 0.05469,-12.455936 c 0.03008,-6.850766 0.167992,-12.931233 0.306468,-13.51215 0.222761,-0.934497 0.346804,-1.035216 1.076416,-0.874007 0.453552,0.10021 2.462405,0.275238 4.464118,0.388948 3.634894,0.206487 3.640768,0.205661 4.665429,-0.656535 0.88844,-0.747573 1.025951,-1.062051 1.025951,-2.346287 0,-1.776485 -0.592342,-2.725711 -1.977857,-3.169512 -2.415338,-0.77367 -10.078876,-1.346199 -16.661476,-1.244752 -6.488613,0.100001 -6.63059,0.116525 -7.425796,0.864211 -1.541012,1.448927 -1.349407,4.204538 0.37072,5.331608 0.621417,0.40717 1.510421,0.494368 4.422367,0.433777 l 3.644599,-0.07584 -0.268578,1.993052 c -0.147717,1.096176 -0.273677,7.18828 -0.27991,13.538008 -0.0062,6.349727 -0.117285,11.707993 -0.246782,11.907256 -0.129497,0.199263 -1.410513,0.456838 -2.846702,0.572386 -3.217163,0.258838 -4.248714,0.638768 -4.840272,1.782713 -0.878648,1.69912 -0.36218,3.748664 1.156783,4.59056 0.985599,0.546276 2.46466,0.538833 7.069918,-0.03558 z M 47.39627,78.807529 c 0.528737,-0.528737 0.6011,-1.386875 0.766832,-9.093632 0.152409,-7.087153 0.107014,-8.627934 -0.271531,-9.216452 -0.857354,-1.332905 -3.25527,-1.33368 -3.972206,-0.0013 -0.525166,0.975998 -0.926931,9.052336 -0.686707,13.804263 0.162721,3.218814 0.303196,4.02846 0.782015,4.507279 0.765658,0.765658 2.615863,0.765564 3.381597,-1.71e-4 z m 0.708778,-22.911518 c 2.2121,-1.698397 1.208422,-4.984437 -1.515461,-4.961613 -1.311267,0.01099 -2.00595,0.408423 -2.572188,1.471575 -0.593259,1.113889 -0.430232,1.984066 0.556606,2.9709 1.000515,1.000518 2.598135,1.2354 3.531043,0.519138 z" id="path8" transform="matrix(4.867969,0,0,4.867969,-59.449507,42.184767)" /><path style="opacity:1;fill:transparent;stroke-width:0.15815;stroke-dasharray:none;stroke:none" d="m 14.903327,78.533689 c -0.559572,-0.51281 -0.590741,-0.592721 -0.590741,-1.514578 0,-0.916626 0.03334,-1.00376 0.573468,-1.49875 0.532669,-0.488154 0.673313,-0.532815 1.976877,-0.627756 1.424372,-0.103739 5.482923,-0.564333 5.554313,-0.630345 0.02145,-0.01983 0.11993,-1.167668 0.218844,-2.550744 0.134467,-1.880194 0.134353,-3.313525 -4.52e-4,-5.680761 -0.324033,-5.690193 -0.220149,-11.35989 0.351245,-19.169981 l 0.187376,-2.561141 -4.03546,0.08362 c -3.90665,0.08095 -4.05217,0.07298 -4.558965,-0.249488 -1.264012,-0.804285 -1.272269,-2.925863 -0.01392,-3.57658 0.752601,-0.389186 4.80436,-0.597057 9.472908,-0.485998 5.311798,0.126361 12.340962,0.873462 13.407593,1.425037 0.965463,0.499262 1.239492,2.217385 0.502988,3.153696 -0.702764,0.89342 -2.083871,0.927238 -7.650182,0.187323 -1.64526,-0.2187 -3.005435,-0.379714 -3.02261,-0.357808 -0.0894,0.114016 -0.410824,5.672862 -0.564701,9.766061 -0.122403,3.255968 -0.128301,6.266002 -0.01952,9.963458 0.08573,2.913916 0.131577,5.511531 0.101891,5.772479 -0.02969,0.260948 -0.0848,1.239502 -0.122478,2.174564 l -0.0685,1.700114 h 4.808866 4.808864 L 36.7966,74.38358 c 0.498124,0.456497 0.585204,0.643675 0.647188,1.39112 0.06339,0.764452 0.02231,0.922257 -0.357723,1.373897 -0.23614,0.280636 -0.581796,0.59312 -0.768124,0.694411 -0.228804,0.12438 -2.238349,0.220711 -6.190334,0.296743 -4.933121,0.09491 -6.347937,0.177146 -9.014124,0.523947 -1.739413,0.226252 -3.715357,0.411367 -4.390988,0.411367 -1.178175,0 -1.252582,-0.02214 -1.81916,-0.541373 z" id="path10" transform="matrix(4.867969,0,0,4.867969,-59.449507,42.184767)" /><path id="path14" style="opacity:1;fill:transparent;stroke-width:0.15815;stroke-dasharray:none;stroke:none" d="m 45.590984,54.755964 c -0.548923,-0.426562 -0.748327,-1.177738 -0.460428,-1.734474 0.322137,-0.622944 0.602844,-0.830717 1.268197,-0.938689 0.493057,-0.08001 0.63311,-0.02177 1.121163,0.466289 0.721304,0.721304 0.751808,1.368497 0.09544,2.024868 -0.543363,0.543363 -1.453998,0.625236 -2.024369,0.182006 z m -0.481988,23.422499 c -0.110559,-0.04448 -0.30627,-0.284417 -0.434913,-0.533187 -0.29782,-0.57592 -0.328349,-7.733748 -0.05461,-12.803725 0.164309,-3.043201 0.217247,-3.437591 0.504167,-3.756065 0.440847,-0.489331 1.207421,-0.472864 1.685672,0.03621 0.363857,0.387308 0.366755,0.41934 0.239659,2.649014 -0.07076,1.241331 -0.148359,4.783414 -0.172444,7.871295 -0.02409,3.087882 -0.04836,5.703289 -0.05394,5.812017 -0.02964,0.577414 -1.028975,0.999892 -1.71359,0.72444 z" transform="matrix(4.867969,0,0,4.867969,-59.449507,42.184767)" /><path style="opacity:1;fill:transparent;stroke-width:0.15815;stroke-dasharray:none;stroke:none" d="m 100.58348,26.237197 c -1.905683,-0.137878 -4.16092,-0.733748 -5.203557,-1.374863 -0.382953,-0.235477 -0.913505,-0.697665 -1.179005,-1.027085 -0.403437,-0.500564 -0.493663,-0.770682 -0.549303,-1.644494 -0.16508,-2.592531 1.054565,-4.996289 3.877603,-7.642242 1.256854,-1.178013 3.101702,-2.472471 4.590972,-3.22131 0.45376,-0.228164 0.86188,-0.414844 0.90693,-0.414844 0.0451,0 -0.18779,0.356329 -0.51742,0.791842 -1.25768,1.661689 -1.56555,3.757434 -0.7938,5.403712 0.39381,0.840077 1.67514,2.43641 1.83074,2.280812 0.0386,-0.03862 -0.21259,-0.449285 -0.55824,-0.912598 -1.07032,-1.434664 -1.21414,-1.814704 -1.21659,-3.21464 -0.002,-1.136476 0.049,-1.353834 0.50152,-2.136347 0.27705,-0.47913 0.75447,-1.155222 1.06093,-1.502426 0.50677,-0.574139 0.5578,-0.59836 0.56379,-0.267589 0.0103,0.57022 0.41527,1.215899 0.90408,1.441539 0.24573,0.113429 1.15845,0.511918 2.02828,0.885533 4.83407,2.076371 7.40137,4.429784 7.8095,7.158901 0.43208,2.889194 -1.82803,4.831231 -6.10498,5.245807 -2.24155,0.21728 -6.03465,0.288974 -7.95145,0.150292 z" id="path16" transform="matrix(4.867969,0,0,4.867969,-59.449507,42.184767)" /><path style="opacity:1;fill:transparent;stroke-width:0.15815;stroke-dasharray:none;stroke:none" d="m 110.96053,44.591144 c -0.2229,-0.264903 -0.4783,-0.780868 -0.56756,-1.146588 -0.28871,-1.183001 -0.96449,-2.328584 -1.63561,-2.772712 -0.85447,-0.565456 -2.21135,-0.631086 -4.2992,-0.207939 -1.2798,0.259379 -1.94354,0.303817 -3.47931,0.232947 -1.713256,-0.07906 -1.982378,-0.05345 -2.767623,0.263366 -1.730481,0.698182 -3.382277,0.411984 -4.878079,-0.845197 -0.377906,-0.317619 -0.831538,-0.57749 -1.008071,-0.57749 -0.176533,0 -0.899267,0.262017 -1.606076,0.582261 -1.608776,0.728911 -2.476585,0.772597 -3.386453,0.170475 -1.5274,-1.010786 -1.848388,-2.888719 -0.753074,-4.405839 1.141346,-1.58088 1.211254,-1.774463 1.348999,-3.735489 0.239217,-3.405667 1.45741,-5.861598 4.138878,-8.344164 l 0.999755,-0.925597 0.145445,0.507139 c 0.354213,1.235067 2.519646,2.611966 4.858291,3.089162 3.738928,0.762922 9.610548,0.657052 12.922588,-0.233004 2.03761,-0.547575 3.34742,-1.44685 3.9035,-2.680023 l 0.29115,-0.645645 0.93361,0.916844 c 2.88661,2.834762 3.96778,5.044222 4.20667,8.596704 0.1131,1.681804 0.16275,1.882574 0.70538,2.852321 0.44662,0.798184 0.58371,1.221245 0.58371,1.801404 0,0.99967 -0.52462,2.027493 -1.40172,2.746208 l -0.69211,0.567135 -2.78823,0.134679 c -3.36008,0.162302 -3.38241,0.173966 -3.6537,1.908475 -0.27046,1.729206 -0.30607,1.841254 -0.71527,2.250453 -0.50998,0.509979 -0.91706,0.481056 -1.40589,-0.09989 z" id="path18" transform="matrix(4.867969,0,0,4.867969,-59.449507,42.184767)" /><path style="opacity:1;fill:transparent;stroke-width:0.15815;stroke-dasharray:none;stroke:none" d="m 97.985167,60.043515 c -0.253771,-0.253772 -0.403162,-0.638412 -0.476035,-1.225663 -0.313099,-2.523112 -0.609755,-3.135021 -1.758615,-3.62748 -1.024673,-0.439228 -1.911024,-0.503852 -3.432511,-0.25027 -1.589887,0.264981 -2.054424,0.183293 -2.938211,-0.516679 -0.675561,-0.535054 -1.077213,-0.726075 -2.034198,-0.967441 -1.716107,-0.432827 -2.499416,-2.000006 -1.878815,-3.758977 0.201571,-0.571312 0.192555,-0.750478 -0.09053,-1.799072 -0.454575,-1.683795 -0.342376,-4.588529 0.247841,-6.416431 l 0.41915,-1.298106 0.72039,0.507356 c 0.668474,0.470791 0.813448,0.507355 2.011629,0.507355 1.165303,0 1.379695,-0.05013 2.198205,-0.513987 1.051578,-0.595941 1.387136,-0.63355 1.77995,-0.199495 0.156537,0.172971 0.642002,0.54383 1.078812,0.82413 0.715542,0.459162 0.936479,0.515732 2.230764,0.571181 1.179786,0.05054 1.592039,0.0022 2.306388,-0.270525 0.735389,-0.280746 1.224252,-0.332952 3.162999,-0.337782 1.44094,-0.0036 2.64583,-0.09086 3.24208,-0.234835 2.67183,-0.645138 4.31803,0.0099 4.81078,1.914213 0.59834,2.312373 1.43932,3.087696 2.75354,2.53858 0.70237,-0.293468 0.97241,-0.814515 1.19958,-2.314603 0.0988,-0.652369 0.31052,-1.364045 0.4705,-1.581501 0.28838,-0.391998 0.31164,-0.395376 2.72406,-0.395376 2.79105,0 3.14003,-0.11162 4.40079,-1.407577 l 0.7024,-0.722003 0.28504,0.43219 c 0.33127,0.502291 0.98016,2.432152 1.22474,3.642514 0.24476,1.211196 0.20837,2.826335 -0.0957,4.248357 -0.28571,1.33615 -0.32446,2.285538 -0.13523,3.313043 0.22943,1.245735 -0.90455,2.572232 -2.43479,2.848159 -0.31083,0.05605 -0.95656,0.30406 -1.43497,0.55114 -1.56893,0.810305 -3.70207,1.703433 -4.48352,1.877211 -0.81245,0.180676 -1.38343,0.124316 -2.79138,-0.275532 -1.35661,-0.385266 -2.99782,-0.318506 -4.74451,0.192992 -0.82633,0.241984 -1.99874,0.496293 -2.60534,0.565131 -1.1818,0.134111 -1.44768,0.325838 -2.22249,1.602642 -0.29959,0.493696 -0.37755,0.528853 -1.19178,0.537508 -1.04155,0.01107 -1.255287,0.120085 -1.255287,0.640225 0,0.490544 -0.706076,1.169241 -1.216408,1.169241 -0.208709,0 -0.545896,-0.166425 -0.749304,-0.369833 z" id="path20" transform="matrix(4.867969,0,0,4.867969,-59.449507,42.184767)" /><path style="opacity:1;fill:transparent;stroke-width:0.15815;stroke-dasharray:none;stroke:none" d="m 101.76167,91.02153 c -1.823256,-0.331213 -2.318717,-0.688066 -2.978771,-2.145449 -0.670446,-1.480328 -4.841725,-15.315409 -4.841725,-16.058782 0,-0.162492 0.09521,-0.218796 0.276763,-0.163669 0.152219,0.04622 1.130773,0.227118 2.174564,0.401994 5.615299,0.940783 12.403789,0.841277 17.048159,-0.249893 0.59125,-0.138911 1.10698,-0.220594 1.14605,-0.181519 0.14917,0.149167 -3.74078,13.576326 -4.54917,15.702632 -0.26456,0.695861 -0.59621,1.397317 -0.73702,1.558793 -1.00236,1.149511 -4.53436,1.681685 -7.53885,1.135893 z" id="path22" transform="matrix(4.867969,0,0,4.867969,-59.449507,42.184767)" /><path id="path28" style="opacity:1;fill:transparent;stroke-width:0.15815;stroke-dasharray:none;stroke:none" d="m 93.783024,57.624439 c -2.269167,-0.311867 -4.489419,-0.787706 -5.159849,-1.105846 -0.785374,-0.372684 -1.089113,-0.884638 -0.905236,-1.525779 0.08012,-0.279358 0.249898,-0.527856 0.377288,-0.552217 0.12739,-0.02436 0.623039,0.251014 1.101443,0.611946 l 0.869826,0.656238 1.739651,-0.128209 c 0.956808,-0.07052 2.048332,-0.117976 2.425608,-0.105467 1.289093,0.04274 2.331409,0.837895 2.430699,1.854315 0.0442,0.452429 0.01699,0.475583 -0.586253,0.498847 -0.347931,0.01342 -1.37986,-0.07831 -2.293177,-0.203828 z m 9.517226,0.252938 c 0.15455,-0.463655 0.87632,-0.795797 2.03071,-0.934487 0.65073,-0.07818 1.61015,-0.298399 2.13205,-0.489374 1.45055,-0.530793 2.65276,-0.573704 4.2981,-0.153411 1.999,0.510632 3.50474,0.395658 4.9919,-0.381171 0.59637,-0.311515 1.17621,-0.56639 1.28853,-0.56639 0.11233,0 0.65311,-0.224306 1.20173,-0.498457 1.14179,-0.570556 1.47296,-0.499427 1.5552,0.334023 0.12269,1.24348 -1.49783,1.859657 -6.45593,2.454754 -2.95635,0.354837 -11.14034,0.528646 -11.04229,0.234513 z M 99.555503,72.907846 C 97.659562,72.747027 95.053687,72.232404 93.844588,71.780022 92.046593,71.107306 91.578168,70.349505 90.704545,66.700169 90.080288,64.092493 88.88037,58.169871 88.88037,57.6963 c 0,-0.254328 0.07487,-0.303819 0.355838,-0.23523 1.151072,0.280991 6.660701,1.054476 7.511161,1.054476 0.127141,0 0.198657,0.23343 0.198657,0.648416 0,0.526546 0.101062,0.749477 0.537711,1.186125 0.464523,0.464523 0.642702,0.537711 1.309086,0.537711 0.910473,0 1.419787,-0.305215 1.723907,-1.033086 0.19275,-0.461319 0.29791,-0.525697 0.97173,-0.59492 0.41558,-0.04269 1.07585,-0.152625 1.46727,-0.244292 0.39142,-0.09167 2.49087,-0.24559 4.66543,-0.342048 4.6699,-0.207144 8.01879,-0.51959 10.3116,-0.962057 0.91484,-0.176548 1.69228,-0.292071 1.72763,-0.256719 0.0806,0.08065 -1.07405,5.853215 -1.69906,8.493926 -1.30154,5.499071 -1.56503,5.752356 -6.93994,6.671099 -2.07865,0.355306 -8.70955,0.521945 -11.465887,0.288145 z" transform="matrix(4.867969,0,0,4.867969,-59.449507,42.184767)" /></g><g id="Outline" style="display:inline" transform="matrix(0.20542448,0,0,0.20542448,12.212384,-8.6657839)"><rect style="fill:none;stroke:#000000;stroke-width:1.33306;stroke-dasharray:none;stroke-opacity:1" id="rect1" width="154.88843" height="115.74319" x="2.0926507" y="1.7971287" transform="matrix(4.8679691,0,0,4.8679691,-59.449507,42.184767)" /><path style="font-size:22.325px;font-family:'Comic Sans MS';-inkscape-font-specification:'Comic Sans MS';display:inline;fill:#000000;fill-opacity:1;stroke:none;stroke-width:6.43992;stroke-opacity:1" d="m 511.50571,584.74849 q 0,0.38153 -0.67585,1.11189 -0.50144,0.50144 -0.99198,1.00288 -1.21,1.37351 -1.89675,3.92431 -0.59955,2.22378 -0.59955,4.37126 0,5.53764 2.5072,8.12115 0.50144,0.39243 1.01378,0.78486 0.63225,0.50144 0.63225,0.99198 0,0.35973 -0.28342,0.62135 -0.28342,0.27253 -0.65405,0.27253 -0.32703,0 -0.78487,-0.25072 -4.61107,-2.58351 -4.61107,-10.79187 0,-2.95414 1.1882,-5.98459 1.3299,-3.36837 3.48828,-4.88359 0.43603,-0.30523 0.68675,-0.30523 0.39244,0 0.68676,0.31613 0.29432,0.30522 0.29432,0.69766 z m 7.03107,17.17978 q -2.23468,0 -3.7281,-1.35171 -1.56973,-1.41711 -1.56973,-3.739 0,-2.21288 1.47162,-4.56747 1.63513,-2.61621 3.6845,-2.61621 1.06828,0 2.38729,0.50144 1.66784,0.64315 1.66784,1.56973 0,0.41423 -0.27253,0.74126 -0.27252,0.31612 -0.67585,0.31612 -0.31613,0 -0.55595,-0.18531 -0.22891,-0.19622 -0.44693,-0.38153 -0.64315,-0.51234 -2.10387,-0.51234 -1.11189,0 -2.20198,1.98396 -0.99198,1.82044 -0.99198,3.15035 0,1.43892 0.98108,2.26738 0.91567,0.77397 2.35459,0.77397 0.65405,0 1.39531,-0.34883 l 1.2645,-0.67586 q 0.32703,-0.17441 0.46874,-0.17441 0.40333,0 0.69766,0.32703 0.29432,0.31612 0.29432,0.73035 0,0.79577 -1.67873,1.53703 -1.47162,0.65405 -2.4418,0.65405 z m 12.61232,-7.02016 q 0,8.20836 -4.62198,10.79187 -0.44693,0.25072 -0.77396,0.25072 -0.37063,0 -0.65405,-0.27253 -0.28342,-0.26162 -0.28342,-0.62135 0,-0.49054 0.63225,-0.99198 0.50144,-0.39243 1.01378,-0.78486 2.5072,-2.58351 2.5072,-8.12115 0,-2.14748 -0.59955,-4.37126 -0.69765,-2.5508 -1.89675,-3.92431 -0.50144,-0.50144 -0.99198,-1.00288 -0.67586,-0.73036 -0.67586,-1.11189 0,-0.39244 0.28343,-0.69766 0.29432,-0.31613 0.68675,-0.31613 0.25072,0 0.69766,0.30523 2.15837,1.51522 3.48828,4.88359 1.1882,3.03045 1.1882,5.98459 z m 24.97391,7.23818 q -0.58865,0 -0.97018,-0.61045 -0.32703,-0.52324 -0.58865,-1.74414 l -0.39243,-1.87495 q -0.44693,-1.74414 -1.41711,-7.69602 l -2.18018,6.57323 -0.64315,2.07116 q -0.39243,1.2318 -0.81757,2.01667 -0.45783,0.82846 -1.2318,0.82846 -0.64315,0 -1.01378,-0.69765 -0.23982,-0.45784 -0.43603,-1.1664 l -0.31613,-1.20999 q -1.10099,-3.84801 -1.94035,-8.24107 l -0.39244,1.95126 -1.40621,5.75566 q -0.0872,1.01378 -0.54504,2.99774 -0.32703,0.85027 -1.07919,0.85027 -0.53414,0 -0.85027,-0.38153 -0.27252,-0.32702 -0.27252,-0.80666 0,-1.82045 0.75216,-4.46936 l 1.1991,-4.39306 0.63225,-3.43377 q 0.47964,-2.4091 1.01378,-3.15036 0.43603,-0.63225 1.07919,-0.63225 0.70855,0 1.05738,0.80667 0.42514,0.97017 0.91568,3.95701 0.57774,3.58639 1.79864,7.76143 1.61333,-4.19684 2.79063,-8.7425 l 0.32702,-1.59153 q 0.19622,-0.95928 0.51234,-1.54793 0.42514,-0.80666 1.1664,-0.80666 0.93747,0 1.42801,1.80954 0.17442,0.62135 0.42514,2.57261 0.64315,4.9272 1.60243,8.41548 l 0.53414,1.87495 q 0.41423,1.50432 0.41423,1.85315 0,0.46874 -0.35973,0.78486 -0.34882,0.31613 -0.79576,0.31613 z m 12.02367,-0.18532 q -0.20711,0 -0.75216,-0.47963 -0.49054,-0.44694 -0.73036,-0.79577 -1.04648,0.56685 -1.84225,0.85027 -0.79576,0.29432 -1.3299,0.29432 -2.55081,0 -3.7172,-1.43891 -1.10099,-1.35171 -1.10099,-4.14234 0,-2.63801 1.80954,-4.51296 1.82045,-1.87495 4.33855,-1.87495 0.94838,0 2.12568,0.49054 1.48252,0.61045 1.48252,1.47162 0,0.29432 -0.21802,0.52324 -0.10901,0.41423 -0.17442,1.36261 -0.0545,0.94838 -0.0654,2.43089 -0.0109,1.35171 0.18531,2.13658 0.10901,0.47964 0.68676,1.91855 0.0763,0.19622 0.25072,0.57775 l 0.0654,0.18531 q 0,0.43604 -0.30522,0.71946 -0.30522,0.28342 -0.70856,0.28342 z m -2.26738,-7.57611 q 0,-0.46873 0.0545,-1.01378 0.0654,-0.55594 0.18532,-1.17729 -0.40333,-0.20712 -0.69766,-0.30523 -0.28342,-0.0981 -0.45783,-0.0981 -1.68964,0 -2.92144,1.38442 -1.2209,1.37351 -1.2209,3.17215 0,1.78775 0.63225,2.68162 0.63225,0.89387 1.89676,0.89387 1.04648,0 1.77684,-0.38153 0.39243,-0.20712 1.10099,-0.82847 -0.34883,-2.88873 -0.34883,-4.32765 z m 14.14934,2.15838 -0.25072,3.66269 q -0.0654,2.18018 -0.44694,3.56459 -0.49054,1.76594 -1.56972,2.60531 -1.30811,1.01378 -3.78261,1.01378 -1.44982,0 -2.4309,-0.19621 -1.37351,-0.27253 -1.37351,-1.1337 0,-0.97017 0.94838,-0.97017 0.39243,0 1.30811,0.18531 0.91567,0.19622 2.02756,0.17442 2.09297,-0.0327 2.88873,-2.02757 0.52324,-1.32991 0.55595,-4.08783 -0.58865,1.09009 -1.40622,1.63513 -0.80666,0.54505 -1.85315,0.54505 -1.97306,0 -3.21576,-1.34081 -1.2318,-1.35171 -1.2318,-3.49918 0,-2.94324 1.68964,-4.74188 1.74414,-1.85315 4.75278,-1.85315 1.01379,0 1.70054,0.26162 0.68676,0.26162 1.04649,0.78486 1.16639,0.0327 1.16639,1.2972 0,0.77397 -0.22892,2.07117 -0.25072,1.50432 -0.29432,2.04937 z m -3.49918,-4.72008 q -2.07117,0 -3.20486,1.42801 -1.01378,1.28631 -1.01378,3.27027 0,1.58062 0.59954,2.37639 0.59955,0.79576 1.79865,0.79576 1.10099,0 2.13657,-1.2427 0.93748,-1.14459 1.06829,-2.26738 0.22892,-1.1773 0.49054,-3.6954 -0.43604,-0.33793 -0.90478,-0.50144 -0.46873,-0.16351 -0.97017,-0.16351 z m 8.45908,-4.38216 q -0.52324,0 -0.90477,-0.37063 -0.38153,-0.37063 -0.38153,-0.89387 0,-0.52324 0.38153,-0.89387 0.38153,-0.37063 0.90477,-0.37063 0.52324,0 0.89387,0.37063 0.38153,0.37063 0.38153,0.89387 0,0.52324 -0.38153,0.89387 -0.37063,0.37063 -0.89387,0.37063 z m 0.49054,8.85152 q 0,0.65405 0.0327,1.96216 0.0436,1.2972 0.0436,1.95125 0,0.47964 -0.29433,0.78487 -0.29432,0.30522 -0.77396,0.30522 -0.46874,0 -0.77396,-0.30522 -0.29433,-0.30523 -0.29433,-0.78487 0,-0.65405 -0.0436,-1.95125 -0.0327,-1.30811 -0.0327,-1.96216 0,-1.02469 0.10901,-2.55081 0.10901,-1.53702 0.10901,-2.56171 0,-0.49054 0.29432,-0.79576 0.30522,-0.30522 0.77396,-0.30522 0.46874,0 0.76306,0.30522 0.30523,0.30522 0.30523,0.79576 0,1.02469 -0.10901,2.56171 -0.10901,1.52612 -0.10901,2.55081 z m 8.61169,5.63575 q -2.23468,0 -3.7281,-1.35171 -1.56972,-1.41711 -1.56972,-3.739 0,-2.21288 1.47161,-4.56747 1.63514,-2.61621 3.6845,-2.61621 1.06829,0 2.38729,0.50144 1.66784,0.64315 1.66784,1.56973 0,0.41423 -0.27252,0.74126 -0.27253,0.31612 -0.67586,0.31612 -0.31612,0 -0.55594,-0.18531 -0.22892,-0.19622 -0.44694,-0.38153 -0.64315,-0.51234 -2.10387,-0.51234 -1.11189,0 -2.20198,1.98396 -0.99198,1.82044 -0.99198,3.15035 0,1.43892 0.98108,2.26738 0.91568,0.77397 2.35459,0.77397 0.65406,0 1.39532,-0.34883 l 1.2645,-0.67586 q 0.32702,-0.17441 0.46874,-0.17441 0.40333,0 0.69765,0.32703 0.29433,0.31612 0.29433,0.73035 0,0.79577 -1.67874,1.53703 -1.47162,0.65405 -2.4418,0.65405 z m 9.52737,-7.08557 q -0.30522,0 -1.3299,-0.14171 -0.0872,1.64603 -0.0872,5.76656 0,0.43604 -0.28342,0.74126 -0.28343,0.29433 -0.70856,0.29433 -0.43604,0 -0.71946,-0.29433 -0.28342,-0.30522 -0.28342,-0.74126 v -3.20485 q 0,-1.60243 0.19621,-4.51297 0.21802,-3.15035 0.23982,-4.51296 v -1.50432 q 0,-1.07919 0.13081,-1.56973 0.25073,-0.95928 1.06829,-0.82847 0.34883,-0.10901 0.99198,-0.16351 0.64315,-0.0545 1.58063,-0.0545 1.99486,0 3.739,1.36261 1.91855,1.50433 1.91855,3.6191 0,2.70341 -2.04936,4.30584 -1.83135,1.43892 -4.40396,1.43892 z m 0.54505,-8.6553 q -0.47964,0 -0.86117,0.0218 -0.37063,0.0218 -0.63225,0.0654 l -0.0218,2.00576 -0.22892,4.33855 1.19909,0.14171 q 1.83135,0 3.08495,-0.92657 1.37351,-1.01378 1.37351,-2.73612 0,-1.2209 -1.3081,-2.10387 -1.21,-0.80667 -2.60531,-0.80667 z m 13.17916,15.55556 q -2.4636,0 -3.98972,-1.2318 -1.66783,-1.36261 -1.66783,-3.81531 0,-2.83423 1.37351,-4.75278 1.49342,-2.09297 3.98972,-2.09297 1.80954,0 2.95414,0.61045 1.40621,0.75216 1.40621,2.31098 0,1.09009 -1.2318,1.98396 -0.54504,0.39243 -2.31099,1.2209 l -4.16413,1.97306 q 0.61045,0.90477 1.51522,1.36261 0.91567,0.45784 2.12567,0.45784 0.75216,0 1.76594,-0.28343 1.28631,-0.35972 1.65694,-0.93747 0.37063,-0.58865 0.79576,-0.58865 0.38153,0 0.67586,0.29433 0.30522,0.28342 0.30522,0.66495 0,1.21 -1.95126,2.08207 -1.66783,0.74126 -3.24846,0.74126 z m -0.29432,-9.9307 q -1.32991,0 -2.21288,1.03558 -0.88297,1.02468 -1.31901,3.09585 l 3.34657,-1.59153 q 1.97306,-0.95928 2.81243,-1.66783 -0.93747,-0.87207 -2.62711,-0.87207 z m 15.79537,10.20322 q -0.93748,0 -1.05739,-1.02468 l -0.30522,-2.3873 q -0.15261,-1.2754 -0.15261,-2.38729 0,-0.30522 0.0327,-1.03558 0.0436,-0.73036 0.0436,-1.03559 0,-2.35459 -0.87207,-2.35459 -1.2209,0 -2.33279,1.44982 -1.00288,1.31901 -1.56972,3.33567 -0.0218,0.42513 -0.0981,1.06829 -0.0654,0.54504 -0.0654,1.05738 0,0.32703 0.0654,0.98108 0.0654,0.65405 0.0654,0.98108 0,0.49054 -0.30522,0.79576 -0.29432,0.30523 -0.76306,0.30523 -0.47964,0 -0.77396,-0.30523 -0.29433,-0.30522 -0.29433,-0.79576 0,-0.32703 -0.0763,-0.98108 -0.0654,-0.65405 -0.0654,-0.98108 0,-1.12279 0.15261,-3.10675 0.16352,-1.99486 0.16352,-3.11765 0,-0.34883 -0.0436,-1.03558 -0.0327,-0.68676 -0.0327,-1.03559 0,-0.46874 0.30522,-0.76306 0.31613,-0.30522 0.77397,-0.30522 1.00288,0 1.10099,1.41711 l 0.0327,1.2754 q 1.83135,-2.44179 3.7608,-2.44179 1.74414,0 2.4309,1.53702 0.46874,1.02468 0.51234,3.03044 v 1.10099 l -0.0109,1.01379 q 0,0.90477 0.22892,2.34368 0.23982,1.42802 0.23982,2.32189 0,0.47964 -0.31613,0.77396 -0.30522,0.30523 -0.77396,0.30523 z m 8.25196,-0.0872 q -2.23468,0 -3.7281,-1.35171 -1.56973,-1.41711 -1.56973,-3.739 0,-2.21288 1.47162,-4.56747 1.63513,-2.61621 3.6845,-2.61621 1.06828,0 2.38729,0.50144 1.66783,0.64315 1.66783,1.56973 0,0.41423 -0.27252,0.74126 -0.27252,0.31612 -0.67585,0.31612 -0.31613,0 -0.55595,-0.18531 -0.22892,-0.19622 -0.44693,-0.38153 -0.64316,-0.51234 -2.10387,-0.51234 -1.11189,0 -2.20198,1.98396 -0.99198,1.82044 -0.99198,3.15035 0,1.43892 0.98108,2.26738 0.91567,0.77397 2.35459,0.77397 0.65405,0 1.39531,-0.34883 l 1.2645,-0.67586 q 0.32703,-0.17441 0.46874,-0.17441 0.40333,0 0.69766,0.32703 0.29432,0.31612 0.29432,0.73035 0,0.79577 -1.67873,1.53703 -1.47162,0.65405 -2.4418,0.65405 z m 8.6226,-14.48727 q -0.52325,0 -0.90478,-0.37063 -0.38153,-0.37063 -0.38153,-0.89387 0,-0.52324 0.38153,-0.89387 0.38153,-0.37063 0.90478,-0.37063 0.52324,0 0.89387,0.37063 0.38153,0.37063 0.38153,0.89387 0,0.52324 -0.38153,0.89387 -0.37063,0.37063 -0.89387,0.37063 z m 0.49054,8.85152 q 0,0.65405 0.0327,1.96216 0.0436,1.2972 0.0436,1.95125 0,0.47964 -0.29432,0.78487 -0.29433,0.30522 -0.77396,0.30522 -0.46874,0 -0.77397,-0.30522 -0.29432,-0.30523 -0.29432,-0.78487 0,-0.65405 -0.0436,-1.95125 -0.0327,-1.30811 -0.0327,-1.96216 0,-1.02469 0.10901,-2.55081 0.10901,-1.53702 0.10901,-2.56171 0,-0.49054 0.29433,-0.79576 0.30522,-0.30522 0.77396,-0.30522 0.46874,0 0.76306,0.30522 0.30522,0.30522 0.30522,0.79576 0,1.02469 -0.109,2.56171 -0.10901,1.52612 -0.10901,2.55081 z m 6.45332,-3.61909 -0.16351,5.41773 q 0,0.86117 -0.0872,2.52901 -0.10901,1.09008 -1.06828,1.09008 -1.06829,0 -1.06829,-1.11189 0,-1.319 0.11991,-3.95701 0.11991,-2.64892 0.11991,-3.96792 0,-1.72234 0.0545,-3.93522 0.0545,-2.22378 0.0545,-3.94612 0,-1.09009 1.06828,-1.09009 1.07919,0 1.07919,1.09009 0,1.72234 -0.0545,3.94612 -0.0545,2.21288 -0.0545,3.93522 z m 4.74188,9.58187 q -0.56685,0 -0.95928,-0.39243 -0.39243,-0.39244 -0.39243,-0.95928 0,-0.55595 0.39243,-0.94838 0.39243,-0.40333 0.95928,-0.40333 0.55594,0 0.94838,0.40333 0.40333,0.39243 0.40333,0.94838 0,0.56684 -0.40333,0.95928 -0.39244,0.39243 -0.94838,0.39243 z m 11.48953,-16.34042 q -2.63802,0 -2.95414,3.6627 l -0.0327,0.67585 q 1.85315,-0.13081 2.3982,-0.13081 1.73324,0 1.73324,1.09009 0,0.79576 -0.85027,0.94837 -0.37063,0.0654 -0.87207,0.0545 -0.49054,-0.0218 -2.5072,0.14171 l -0.0872,2.4854 q 0,0.67585 0.0436,2.02756 0.0436,1.35171 0.0436,2.01667 0,2.07116 -0.23982,3.22666 -0.18532,0.87207 -1.01378,0.87207 -0.44694,0 -0.76307,-0.29433 -0.31612,-0.28342 -0.31612,-0.71945 0,-0.0872 0.0218,-0.21802 0.22892,-1.41712 0.22892,-3.08495 l -0.0327,-2.97594 v -3.16126 q -1.36261,0.10901 -1.72234,0.10901 -1.10099,0 -1.10099,-1.05738 0,-1.07919 1.90765,-1.13369 l 1.04649,-0.0327 q 0.0327,-0.61045 0.16351,-1.65693 0.28342,-2.42 1.2209,-3.56459 1.13369,-1.38441 3.54278,-1.38441 1.55883,0 1.55883,1.05739 0,1.04648 -1.41711,1.04648 z m 12.91755,8.96052 q 0,0.78487 0.0109,2.35459 0.0109,1.56973 0.0109,2.35459 0,0.23982 0.0327,0.73036 0.0436,0.49054 0.0436,0.73036 0,0.46874 -0.31612,0.76306 -0.31613,0.30523 -0.77396,0.30523 -0.83937,0 -1.06829,-1.03559 -1.36261,0.70856 -3.13945,0.70856 -1.42802,0 -2.36549,-0.63225 -1.03559,-0.69766 -1.2318,-2.03847 -0.42514,-2.88873 -0.42514,-5.14521 0,-1.49342 0.32703,-3.40107 0.15261,-0.94838 1.03558,-0.94838 0.46874,0 0.78487,0.30522 0.31612,0.29433 0.31612,0.76306 0,0.50145 -0.16351,1.60243 -0.15261,1.10099 -0.15261,1.67874 0,1.82045 0.11991,3.11765 0.1199,1.29721 0.35972,2.08207 0.35973,0.19621 0.70856,0.30522 0.34883,0.0981 0.68676,0.0981 1.46071,0 3.08495,-0.46874 l -0.0109,-2.21287 -0.0218,-2.11478 q 0,-2.35459 0.20712,-4.08783 0.11991,-1.00288 1.05738,-1.00288 0.46874,0 0.78487,0.30523 0.31612,0.30522 0.29432,0.76306 z m 11.07529,7.14008 q -0.93748,0 -1.05739,-1.02468 l -0.30522,-2.3873 q -0.15261,-1.2754 -0.15261,-2.38729 0,-0.30522 0.0327,-1.03558 0.0436,-0.73036 0.0436,-1.03559 0,-2.35459 -0.87207,-2.35459 -1.2209,0 -2.33279,1.44982 -1.00288,1.31901 -1.56972,3.33567 -0.0218,0.42513 -0.0981,1.06829 -0.0654,0.54504 -0.0654,1.05738 0,0.32703 0.0654,0.98108 0.0654,0.65405 0.0654,0.98108 0,0.49054 -0.30523,0.79576 -0.29432,0.30523 -0.76306,0.30523 -0.47964,0 -0.77396,-0.30523 -0.29433,-0.30522 -0.29433,-0.79576 0,-0.32703 -0.0763,-0.98108 -0.0654,-0.65405 -0.0654,-0.98108 0,-1.12279 0.15261,-3.10675 0.16352,-1.99486 0.16352,-3.11765 0,-0.34883 -0.0436,-1.03558 -0.0327,-0.68676 -0.0327,-1.03559 0,-0.46874 0.30523,-0.76306 0.31612,-0.30522 0.77396,-0.30522 1.00288,0 1.10099,1.41711 l 0.0327,1.2754 q 1.83135,-2.44179 3.7608,-2.44179 1.74414,0 2.4309,1.53702 0.46874,1.02468 0.51234,3.03044 v 1.10099 l -0.0109,1.01379 q 0,0.90477 0.22892,2.34368 0.23982,1.42802 0.23982,2.32189 0,0.47964 -0.31613,0.77396 -0.30522,0.30523 -0.77396,0.30523 z" id="text1" aria-label="(c) MagicPencil.fun" /><text xml:space="preserve" id="text3" style="font-style:normal;font-variant:normal;font-weight:normal;font-stretch:normal;font-size:12px;font-family:Arial;-inkscape-font-specification:Arial;text-align:start;writing-mode:lr-tb;direction:ltr;white-space:pre;shape-inside:url(#rect3);display:inline;fill:#000000;stroke-width:5" transform="matrix(4.867969,0,0,4.867969,499.47603,48.343727)"><tspan x="-34.792969" y="100.63913" id="tspan1">Ice-cream</tspan></text><g id="text27" style="font-size:48px;font-family:'Comic Sans MS';-inkscape-font-specification:'Comic Sans MS';white-space:pre;fill:none;stroke:#000000;stroke-width:0.890761" ns2:label="BaseText" transform="matrix(5.4649548,0,0,5.4649548,-85.031275,0.67005549)" aria-label="Ii"><path d="m 36.980469,48.561191 q -1.5,0 -3.773438,-0.304688 l -3.773437,-0.492187 q -0.539063,6.820312 -0.539063,13.03125 0,1.640625 0.09375,4.054687 0.09375,2.414063 0.09375,4.054688 0,2.203125 -0.164062,4.007812 l 7.382812,-0.09375 q 0.984375,0 1.640625,0.703125 0.679688,0.679688 0.679688,1.6875 0,1.03125 -0.679688,1.734375 -0.65625,0.679688 -1.640625,0.679688 -1.3125,0 -3.9375,0.07031 -2.625,0.04687 -3.9375,0.04687 -1.546875,0 -4.640625,0.421875 -3.070312,0.445313 -4.640625,0.445313 -0.984375,0 -1.664062,-0.703125 -0.65625,-0.679688 -0.65625,-1.6875 0,-1.007813 0.65625,-1.710938 0.679687,-0.703125 1.664062,-0.703125 1.523438,0 5.039063,-0.492187 0.234375,-1.898438 0.234375,-4.335938 0,-1.617187 -0.164063,-3.9375 -0.140625,-2.34375 -0.140625,-3.9375 0,-5.414062 0.65625,-13.523437 l -3.046875,0.09375 -3.046875,0.07031 q -1.007812,0 -1.6875,-0.679687 -0.679687,-0.679688 -0.679687,-1.734375 0,-2.179688 2.203125,-2.390625 1.898437,-0.1875 7.101562,-0.1875 4.664063,0 11.695313,1.007812 2.085937,0.304688 2.085937,2.507813 0,1.101562 -0.796875,1.757812 -0.703125,0.539063 -1.617187,0.539063 z" id="path1" /><path style="font-size:33.2551px" d="m 46.135832,57.207208 q -0.779417,0 -1.347741,-0.552087 -0.568325,-0.552086 -0.568325,-1.331503 0,-0.779416 0.568325,-1.331503 0.568324,-0.552086 1.347741,-0.552086 0.779416,0 1.331503,0.552086 0.568324,0.552087 0.568324,1.331503 0,0.779417 -0.568324,1.331503 -0.552087,0.552087 -1.331503,0.552087 z m 0.730702,13.185128 q 0,0.97427 0.04871,2.922811 0.06495,1.932303 0.06495,2.906574 0,0.714465 -0.438421,1.169124 -0.438422,0.45466 -1.152887,0.45466 -0.698227,0 -1.152887,-0.45466 -0.438422,-0.454659 -0.438422,-1.169124 0,-0.974271 -0.06495,-2.906574 -0.04871,-1.948541 -0.04871,-2.922811 0,-1.526358 0.162379,-3.799655 0.162378,-2.289536 0.162378,-3.815893 0,-0.730703 0.438422,-1.185363 0.45466,-0.454659 1.152887,-0.454659 0.698227,0 1.136649,0.454659 0.454659,0.45466 0.454659,1.185363 0,1.526357 -0.162378,3.815893 -0.162379,2.273297 -0.162379,3.799655 z" id="path4" /></g><path style="fill:#000000;stroke-width:4.867969;stroke-dasharray:none" d="m 433.19589,487.73193 c -4.73273,-0.99258 -7.04015,-2.20359 -10.57624,-5.55084 -2.33006,-2.20559 -3.66115,-5.15222 -7.18425,-15.90361 -4.40381,-13.43899 -13.347,-43.39922 -18.5694,-62.20853 -2.7415,-9.87392 -3.06741,-10.53155 -6.26936,-12.65053 -7.21302,-4.77335 -9.35731,-12.06644 -20.49425,-69.70517 -0.25703,-1.33078 -1.17079,-2.79597 -2.03033,-3.25597 -3.15401,-1.68798 -4.22267,-7.00816 -2.31282,-11.51391 0.45272,-1.06859 -0.34514,-1.75822 -3.37107,-2.91393 -4.76199,-1.81863 -8.00012,-5.42534 -9.35424,-10.41914 -0.82381,-3.0379 -0.74125,-4.46156 0.4683,-8.0742 1.37754,-4.11486 1.375,-4.73847 -0.0389,-10.08779 -2.91138,-11.00278 -1.6663,-26.02662 3.0733,-37.08365 1.23987,-2.89252 1.41624,-4.24093 0.71793,-5.48877 -1.36323,-2.43592 -1.08984,-10.89666 0.47073,-14.56792 0.74641,-1.75594 2.77703,-4.76433 4.51251,-6.68531 3.00529,-3.32649 3.15542,-3.79244 3.15542,-9.79219 0,-17.15854 6.85473,-31.84082 21.00149,-44.98343 6.50205,-6.04054 7.0697,-6.84174 7.07929,-9.99212 0.0487,-15.8923 15.2973,-36.02383 36.79883,-48.581422 7.95664,-4.64692 21.08585,-9.945081 21.08585,-8.508971 0,0.155288 -0.63206,2.137311 -1.40456,4.404499 -1.89714,5.567798 -0.59988,7.509304 6.81243,10.195654 14.34352,5.19833 28.56909,13.81953 36.10183,21.87894 5.44668,5.82754 7.79445,11.2012 8.29911,18.99554 0.38214,5.89902 0.54624,6.29467 3.43611,8.27485 1.66922,1.14378 5.27342,4.52481 8.00927,7.51339 10.40387,11.3649 15.76954,24.18528 16.28978,38.92178 0.28137,7.96904 0.46976,8.69978 3.26353,12.66353 2.68357,3.80726 2.96947,4.80329 3.01235,10.49458 0.0389,5.32164 0.48743,7.14508 2.91066,11.86398 5.99033,11.66533 8.00932,28.51657 4.80128,40.07344 -1.55337,5.59602 -1.58063,6.13343 -0.69077,13.63739 0.43763,3.69178 0.23074,5.57794 -0.83943,7.64742 -1.91861,3.71015 -5.595,6.98856 -9.15412,8.16318 -2.12399,0.70099 -2.67281,1.23521 -1.98034,1.92768 0.52686,0.52688 0.95797,2.81762 0.95797,5.09054 0,3.43585 -0.4094,4.47847 -2.42814,6.18425 -2.18786,1.84868 -2.67685,3.39694 -4.94231,15.64825 -3.68427,19.92417 -9.96682,46.37668 -12.0267,50.63776 -1.63267,3.37737 -5.02477,6.98741 -8.27438,8.80597 -0.73044,0.40876 -3.87262,9.94018 -7.45233,22.60555 -8.68173,30.71718 -17.37962,58.99779 -19.30709,62.77595 -2.05117,4.02064 -6.06466,7.43826 -10.28972,8.76205 -4.04713,1.26806 -28.25895,1.85122 -33.26546,0.80123 z m 26.90147,-1.81195 c 6.79033,-1.1017 11.81135,-3.73892 14.02559,-7.36677 0.89459,-1.46575 3.46352,-8.49312 5.70867,-15.61638 5.44317,-17.26952 19.80344,-67.5725 19.40426,-67.97166 -0.17378,-0.17389 -2.79548,0.3263 -5.82574,1.11151 -21.65058,5.61024 -60.96659,6.03142 -86.07377,0.92209 -5.45997,-1.1111 -10.08089,-1.8856 -10.26874,-1.72111 -0.62062,0.54334 14.79721,53.54694 20.88266,71.79063 3.88557,11.64868 5.35579,14.11559 9.78126,16.4122 5.9103,3.06718 21.33246,4.22958 32.36581,2.43949 z m 12.12762,-88.56015 c 10.57532,-1.11275 25.16818,-4.09821 28.68256,-5.86798 3.48002,-1.75245 7.31724,-5.36793 8.88711,-8.37353 1.61602,-3.09392 7.34046,-26.83078 10.84034,-44.95031 1.49106,-7.71934 2.85818,-14.72597 3.0381,-15.57027 0.39868,-1.87112 1.1869,-1.88883 -9.08339,0.20412 -11.58289,2.36044 -31.70868,4.16041 -54.8994,4.90997 -14.63399,0.47298 -19.77383,0.9343 -21.26567,1.90859 -1.13604,0.74192 -3.24645,1.1355 -4.99444,0.93143 -2.59745,-0.30322 -3.10148,-0.0572 -3.55084,1.73323 -2.40614,9.58674 -17.11914,7.70011 -17.11914,-2.19517 v -3.38846 L 401.5759,325.6234 c -6.15136,-0.59293 -15.08087,-1.87955 -19.84339,-2.85916 -4.76253,-0.97962 -8.85951,-1.58076 -9.10442,-1.33585 -0.5622,0.5622 5.90241,32.98353 9.77337,49.0155 3.31845,13.7438 5.37492,17.24432 12.11866,20.6284 4.41428,2.21512 16.43928,4.91357 27.45068,6.16001 9.88343,1.11875 40.10495,1.19544 50.25418,0.12754 z m -46.86369,-62.32568 c 1.52898,-1.2027 2.31126,-2.66249 2.31126,-4.31289 0,-2.88036 1.19056,-3.53127 4.66459,-2.55025 3.86434,1.09126 6.58626,-0.4662 8.46189,-4.84189 1.99762,-4.66025 3.79857,-5.76961 9.40375,-5.79258 2.40283,-0.01 7.42122,-1.14457 11.63839,-2.6316 9.09726,-3.20782 15.99157,-3.41555 24.77845,-0.74662 8.1427,2.47326 13.61843,1.91065 21.50897,-2.20997 3.27142,-1.70842 6.96373,-3.30714 8.20516,-3.55272 1.24143,-0.24559 3.72609,-1.44336 5.52144,-2.66173 1.79541,-1.21838 4.13495,-2.2239 5.19909,-2.2345 3.06711,-0.0307 8.9171,-3.04902 10.97192,-5.66131 2.70878,-3.44367 3.29522,-7.78408 1.6259,-12.03375 -0.91479,-2.32884 -1.12523,-4.0653 -0.60947,-5.02904 1.96442,-3.67054 3.76274,-16.37543 3.25316,-22.98331 -0.53844,-6.98247 -3.9376,-18.77307 -6.74131,-23.38338 l -1.59479,-2.62242 -4.78896,4.63845 c -6.08443,5.89327 -10.72068,7.17041 -21.3589,5.88374 -11.93913,-1.44402 -13.76501,-0.33 -14.77886,9.01696 -0.73307,6.75878 -1.87475,9.67154 -4.45293,11.36083 -5.77428,3.78344 -11.69159,-0.14551 -13.42123,-8.91127 -1.28437,-6.50933 -3.51015,-10.11167 -7.38339,-11.94965 -3.95129,-1.87501 -12.04385,-1.89167 -18.23298,-0.0375 -3.77414,1.13066 -6.88935,1.31548 -14.98707,0.88915 -9.34572,-0.49203 -10.58725,-0.37147 -14.47378,1.4054 -6.42144,2.93583 -16.0553,2.77855 -21.35656,-0.34864 -2.17107,-1.2807 -4.83297,-3.35308 -5.91532,-4.60529 -2.54244,-2.94147 -3.97357,-2.86873 -9.17042,0.46605 -7.17378,4.60341 -15.89903,4.52904 -21.26373,-0.18123 l -2.97842,-2.61508 -1.74799,4.67192 c -4.09031,10.9323 -4.74787,26.6594 -1.49383,35.72758 1.30934,3.6487 1.3052,4.18506 -0.0555,7.20293 -1.01429,2.2493 -1.32463,4.55345 -1.00057,7.42864 0.64223,5.6978 5.49706,10.38268 11.71837,11.30818 3.1377,0.46679 5.26778,1.50688 8.00255,3.90758 4.70159,4.12729 7.46586,4.66635 15.37641,2.99855 7.10869,-1.49874 11.50958,-1.10387 17.10526,1.53479 4.8652,2.29421 6.34355,5.29548 7.1916,14.59998 0.56702,6.22106 1.01809,7.77217 2.64272,9.08771 2.57565,2.08565 5.3796,2.00664 8.22531,-0.23177 z M 496.54156,323.326 c 21.63135,-2.5053 31.45618,-5.4578 32.54072,-9.77893 0.74772,-2.9791 -0.55189,-6.85357 -2.41953,-7.21324 -0.77703,-0.14964 -2.8279,0.68825 -4.55754,1.86199 -1.72959,1.17374 -4.62501,2.41177 -6.43424,2.75118 -1.80923,0.3394 -4.36228,1.38101 -5.67347,2.31465 -6.45356,4.59534 -16.88509,5.58436 -25.77604,2.44384 -6.66946,-2.35585 -14.37506,-1.89366 -22.10141,1.32565 -3.6574,1.52391 -7.07983,2.27711 -10.34696,2.27711 -4.01364,0 -5.26481,0.38291 -7.035,2.15312 -4.20091,4.20087 -3.73723,4.29106 19.1189,3.71891 11.69968,-0.29286 26.40771,-1.1273 32.68457,-1.85428 z m -84.90731,-2.33144 c -0.59365,-4.42577 -2.37611,-6.46682 -7.28463,-8.3414 -3.79365,-1.44882 -7.30394,-1.42246 -18.07248,0.13572 -5.52081,0.79884 -7.99739,0.0462 -12.12942,-3.687 -3.84652,-3.4751 -5.65283,-3.42957 -7.02409,0.17705 -1.21236,3.18883 0.56074,6.58401 4.40824,8.44079 3.76971,1.81927 14.44176,4.00332 26.97244,5.51995 14.64904,1.77302 13.69083,1.93686 13.12994,-2.24511 z M 487.87794,260.219 c 2.07901,-1.78831 2.49391,-2.97048 3.03659,-8.65182 0.6726,-7.04153 1.93073,-9.96128 4.73877,-10.99732 0.9661,-0.35643 7.14447,-0.6481 13.72967,-0.6481 11.92175,0 11.98951,-0.0117 15.7896,-2.67055 4.20076,-2.93948 7.52339,-8.16594 7.78247,-12.24182 0.34806,-5.47621 -0.10418,-7.20913 -3.08883,-11.84219 -2.85394,-4.42978 -3.0711,-5.26178 -3.08317,-11.8126 -0.0292,-16.26043 -5.99384,-29.29539 -19.23632,-42.04344 l -6.28328,-6.04872 -1.79847,3.63498 c -4.68216,9.46356 -16.78481,14.31524 -39.78435,15.94869 -14.08883,1.00061 -32.40413,0.0156 -42.62156,-2.29258 -11.54541,-2.60803 -20.83885,-8.78272 -22.36383,-14.85893 -0.30036,-1.1973 -0.75712,-2.17691 -1.01464,-2.17691 -1.34545,0 -10.26864,8.62563 -13.84518,13.38349 -8.15536,10.84904 -11.81232,20.9168 -11.81232,32.51966 0,7.67079 -0.89031,10.54395 -4.39534,14.18496 -7.9362,8.244 -6.63051,20.94003 2.64452,25.71449 4.99079,2.56907 9.8224,2.09789 16.36797,-1.59622 6.03282,-3.4047 8.89621,-3.38473 12.19255,0.085 6.01462,6.33096 15.44544,7.93125 24.29789,4.12305 4.80848,-2.06857 7.40286,-2.25131 16.49214,-1.16168 4.58904,0.55014 7.37001,0.31155 13.70518,-1.17576 9.02629,-2.11912 11.55607,-2.25534 16.48295,-0.88753 5.7054,1.58396 9.62402,6.27966 11.26195,13.49536 1.00567,4.43055 2.02969,6.68999 3.6774,8.11409 2.88851,2.49649 4.13155,2.47946 7.12764,-0.0977 z M 475.9185,168.85145 c 20.74826,-4.60026 28.30023,-16.77421 20.70172,-33.37156 -4.86013,-10.61588 -20.10977,-21.42717 -41.63588,-29.51794 -5.81849,-2.18692 -8.01341,-4.29813 -8.01341,-7.707773 0,-1.447379 -0.38895,-2.631595 -0.86435,-2.631595 -1.81488,0 -8.86993,10.221328 -10.21797,14.803748 -2.20309,7.48915 -0.12851,15.44643 5.87233,22.52176 l 2.93806,3.46423 -2.86032,-2.62324 c -1.57313,-1.44279 -4.06943,-5.07938 -5.54729,-8.08131 -2.33468,-4.74247 -2.64053,-6.18113 -2.33254,-10.97333 0.40599,-6.31785 2.76029,-11.80405 7.38281,-17.204451 1.72394,-2.013991 2.89503,-3.661804 2.60242,-3.661804 -1.14081,0 -11.74325,5.678399 -17.34044,9.287125 -3.24143,2.08988 -9.03139,6.79771 -12.86662,10.46186 -12.01415,11.47827 -17.84827,22.58239 -18.00107,34.26159 -0.0701,5.376 0.24096,6.68974 2.33229,9.85139 4.18008,6.3186 13.43019,10.32228 28.72715,12.43381 9.12817,1.26002 41.41069,0.39747 49.12311,-1.31251 z" id="path2" /><text xml:space="preserve" id="text7" style="font-size:48px;font-family:'Comic Sans MS';-inkscape-font-specification:'Comic Sans MS';text-align:start;writing-mode:lr-tb;direction:ltr;white-space:pre;shape-inside:url(#rect7);display:none;fill:none;stroke:#000000;stroke-width:0.890761;stroke-dasharray:none;stroke-opacity:1" transform="matrix(5.4649548,0,0,5.4649548,-85.031275,0.67005549)" ns2:label="BaseText"><tspan x="14.550781" y="79.294806" id="tspan4"><tspan style="font-family:Arial;-inkscape-font-specification:Arial" id="tspan2">A</tspan><tspan style="font-size:33.2551px" id="tspan3">a</tspan></tspan></text></g></svg>