<?xml version='1.0' encoding='utf-8'?>
<svg xmlns="http://www.w3.org/2000/svg" xmlns:ns1="http://sodipodi.sourceforge.net/DTD/sodipodi-0.dtd" xmlns:ns2="http://www.inkscape.org/namespaces/inkscape" viewBox="0 0 158.75 119.0625" version="1.1" id="svg1" ns1:docname="J-Jucie.svg" ns2:version="1.4.2 (f4327f4, 2025-05-13)" xml:space="preserve"><ns1:namedview id="namedview1" pagecolor="#ffffff" bordercolor="#000000" borderopacity="0.25" ns2:showpageshadow="2" ns2:pageopacity="0.0" ns2:pagecheckerboard="0" ns2:deskcolor="#d1d1d1" ns2:zoom="2.2355556" ns2:cx="67.097414" ns2:cy="44.060635" ns2:window-width="1366" ns2:window-height="705" ns2:window-x="-8" ns2:window-y="-8" ns2:window-maximized="1" ns2:current-layer="svg1" /><defs id="defs1"><rect x="-34.793027" y="89.829271" width="65.790448" height="16.447613" id="rect3" /><rect x="14.549811" y="36.058228" width="60.729648" height="58.515546" id="rect2" /><clipPath clipPathUnits="userSpaceOnUse" id="clipPath3"><path d="M 0,500 H 500 V 0 H 0 Z" transform="translate(-432.53711,-135.74711)" id="path3" /></clipPath><clipPath clipPathUnits="userSpaceOnUse" id="clipPath5"><path d="M 0,500 H 500 V 0 H 0 Z" transform="translate(-151.34181,-199.4336)" id="path5" /></clipPath><clipPath clipPathUnits="userSpaceOnUse" id="clipPath7"><path d="M 0,500 H 500 V 0 H 0 Z" transform="translate(-151.34181,-199.4336)" id="path7" /></clipPath><clipPath clipPathUnits="userSpaceOnUse" id="clipPath9"><path d="M 0,500 H 500 V 0 H 0 Z" transform="translate(-182.0161,-196.83011)" id="path9" /></clipPath><clipPath clipPathUnits="userSpaceOnUse" id="clipPath11"><path d="M 0,500 H 500 V 0 H 0 Z" transform="translate(-270.2578,-262.13381)" id="path11" /></clipPath><clipPath clipPathUnits="userSpaceOnUse" id="clipPath13"><path d="M 0,500 H 500 V 0 H 0 Z" transform="translate(-270.2578,-262.13381)" id="path13" /></clipPath><clipPath clipPathUnits="userSpaceOnUse" id="clipPath15"><path d="M 0,500 H 500 V 0 H 0 Z" transform="translate(-270.73731,-316.68121)" id="path15" /></clipPath><clipPath clipPathUnits="userSpaceOnUse" id="clipPath17"><path d="M 0,500 H 500 V 0 H 0 Z" transform="translate(-243.895,-297.82131)" id="path17" /></clipPath><clipPath clipPathUnits="userSpaceOnUse" id="clipPath19"><path d="M 0,500 H 500 V 0 H 0 Z" transform="translate(-243.895,-297.82131)" id="path19" /></clipPath><clipPath clipPathUnits="userSpaceOnUse" id="clipPath21"><path d="M 0,500 H 500 V 0 H 0 Z" transform="translate(-227.96341,-327.47461)" id="path21" /></clipPath><clipPath clipPathUnits="userSpaceOnUse" id="clipPath23"><path d="M 0,500 H 500 V 0 H 0 Z" transform="translate(-150.6709,-325.02691)" id="path23" /></clipPath><clipPath clipPathUnits="userSpaceOnUse" id="clipPath25"><path d="M 0,500 H 500 V 0 H 0 Z" transform="translate(-150.6709,-325.02691)" id="path25" /></clipPath><clipPath clipPathUnits="userSpaceOnUse" id="clipPath27"><path d="M 0,500 H 500 V 0 H 0 Z" transform="translate(-115.0161,-334.36131)" id="path27" /></clipPath><clipPath clipPathUnits="userSpaceOnUse" id="clipPath29"><path d="M 0,500 H 500 V 0 H 0 Z" transform="translate(-104.1924,-244.44141)" id="path29" /></clipPath><clipPath clipPathUnits="userSpaceOnUse" id="clipPath31"><path d="M 0,500 H 500 V 0 H 0 Z" transform="translate(-104.1924,-244.44141)" id="path31" /></clipPath><clipPath clipPathUnits="userSpaceOnUse" id="clipPath33"><path d="M 0,500 H 500 V 0 H 0 Z" transform="translate(-79.019004,-177.8154)" id="path33" /></clipPath><clipPath clipPathUnits="userSpaceOnUse" id="clipPath35"><path d="M 0,500 H 500 V 0 H 0 Z" transform="translate(-105.8481,-187.5293)" id="path35" /></clipPath><clipPath clipPathUnits="userSpaceOnUse" id="clipPath37"><path d="M 0,500 H 500 V 0 H 0 Z" transform="translate(-120.3486,-245.5713)" id="path37" /></clipPath><clipPath clipPathUnits="userSpaceOnUse" id="clipPath39"><path d="M 0,500 H 500 V 0 H 0 Z" transform="translate(-43.031301,-294.82521)" id="path39" /></clipPath><clipPath clipPathUnits="userSpaceOnUse" id="clipPath41"><path d="M 0,500 H 500 V 0 H 0 Z" transform="translate(-140.2095,-138.87791)" id="path41" /></clipPath><clipPath clipPathUnits="userSpaceOnUse" id="clipPath43"><path d="M 0,500 H 500 V 0 H 0 Z" transform="translate(-140.2095,-138.87791)" id="path43" /></clipPath><clipPath clipPathUnits="userSpaceOnUse" id="clipPath45"><path d="M 0,500 H 500 V 0 H 0 Z" transform="translate(-131.71041,-136.21781)" id="path45" /></clipPath><clipPath clipPathUnits="userSpaceOnUse" id="clipPath47"><path d="M 0,500 H 500 V 0 H 0 Z" transform="translate(-95.863802,-329.88091)" id="path47" /></clipPath><clipPath clipPathUnits="userSpaceOnUse" id="clipPath49"><path d="M 0,500 H 500 V 0 H 0 Z" transform="translate(-99.722702,-346.67581)" id="path49" /></clipPath><clipPath clipPathUnits="userSpaceOnUse" id="clipPath51"><path d="M 0,500 H 500 V 0 H 0 Z" transform="translate(-99.596702,-349.59371)" id="path51" /></clipPath><clipPath clipPathUnits="userSpaceOnUse" id="clipPath53"><path d="M 0,500 H 500 V 0 H 0 Z" transform="translate(-75.429699,-348.79931)" id="path53" /></clipPath><clipPath clipPathUnits="userSpaceOnUse" id="clipPath55"><path d="M 0,500 H 500 V 0 H 0 Z" transform="translate(-52.736801,-378.31591)" id="path55" /></clipPath><clipPath clipPathUnits="userSpaceOnUse" id="clipPath57"><path d="M 0,500 H 500 V 0 H 0 Z" transform="translate(-71.700202,-397.00241)" id="path57" /></clipPath><clipPath clipPathUnits="userSpaceOnUse" id="clipPath59"><path d="M 0,500 H 500 V 0 H 0 Z" transform="translate(-49.381801,-362.78271)" id="path59" /></clipPath><clipPath clipPathUnits="userSpaceOnUse" id="clipPath61"><path d="M 0,500 H 500 V 0 H 0 Z" transform="translate(-75.429699,-348.79931)" id="path61" /></clipPath><clipPath clipPathUnits="userSpaceOnUse" id="clipPath63"><path d="M 0,500 H 500 V 0 H 0 Z" transform="translate(-52.736801,-378.31591)" id="path63" /></clipPath><clipPath clipPathUnits="userSpaceOnUse" id="clipPath65"><path d="M 0,500 H 500 V 0 H 0 Z" transform="translate(-87.7402,-374.77391)" id="path65" /></clipPath><clipPath clipPathUnits="userSpaceOnUse" id="clipPath67"><path d="M 0,500 H 500 V 0 H 0 Z" transform="translate(-90.202105,-372.51071)" id="path67" /></clipPath><clipPath clipPathUnits="userSpaceOnUse" id="clipPath69"><path d="M 0,500 H 500 V 0 H 0 Z" transform="translate(-43.860801,-338.97661)" id="path69" /></clipPath><clipPath clipPathUnits="userSpaceOnUse" id="clipPath71"><path d="M 0,500 H 500 V 0 H 0 Z" transform="translate(-62.706502,-345.08251)" id="path71" /></clipPath><clipPath clipPathUnits="userSpaceOnUse" id="clipPath73"><path d="M 0,500 H 500 V 0 H 0 Z" transform="translate(-32.944801,-364.06201)" id="path73" /></clipPath><clipPath clipPathUnits="userSpaceOnUse" id="clipPath75"><path d="M 0,500 H 500 V 0 H 0 Z" transform="translate(-32.363801,-386.02201)" id="path75" /></clipPath><clipPath clipPathUnits="userSpaceOnUse" id="clipPath77"><path d="M 0,500 H 500 V 0 H 0 Z" transform="translate(-42.559601,-382.52731)" id="path77" /></clipPath><clipPath clipPathUnits="userSpaceOnUse" id="clipPath79"><path d="M 0,500 H 500 V 0 H 0 Z" transform="translate(-72.010702,-416.37261)" id="path79" /></clipPath><clipPath clipPathUnits="userSpaceOnUse" id="clipPath81"><path d="M 0,500 H 500 V 0 H 0 Z" transform="translate(-88.275902,-375.45461)" id="path81" /></clipPath><clipPath clipPathUnits="userSpaceOnUse" id="clipPath83"><path d="M 0,500 H 500 V 0 H 0 Z" transform="translate(-125.0845,-367.83841)" id="path83" /></clipPath><clipPath clipPathUnits="userSpaceOnUse" id="clipPath85"><path d="M 0,500 H 500 V 0 H 0 Z" transform="translate(-88.761205,-375.09231)" id="path85" /></clipPath><clipPath clipPathUnits="userSpaceOnUse" id="clipPath87"><path d="M 0,500 H 500 V 0 H 0 Z" transform="translate(-125.2983,-381.78861)" id="path87" /></clipPath><clipPath clipPathUnits="userSpaceOnUse" id="clipPath89"><path d="M 0,500 H 500 V 0 H 0 Z" transform="translate(-96.329605,-397.87451)" id="path89" /></clipPath><clipPath clipPathUnits="userSpaceOnUse" id="clipPath91"><path d="M 0,500 H 500 V 0 H 0 Z" transform="translate(-87.3955,-382.24561)" id="path91" /></clipPath><clipPath clipPathUnits="userSpaceOnUse" id="clipPath93"><path d="M 0,500 H 500 V 0 H 0 Z" transform="translate(-125.2983,-381.78861)" id="path93" /></clipPath><clipPath clipPathUnits="userSpaceOnUse" id="clipPath95"><path d="M 0,500 H 500 V 0 H 0 Z" transform="translate(-71.700202,-397.00241)" id="path95" /></clipPath><clipPath clipPathUnits="userSpaceOnUse" id="clipPath97"><path d="M 0,500 H 500 V 0 H 0 Z" transform="translate(-139.3882,-350.70461)" id="path97" /></clipPath><clipPath clipPathUnits="userSpaceOnUse" id="clipPath99"><path d="M 0,500 H 500 V 0 H 0 Z" transform="translate(-97.266602,-377.96481)" id="path99" /></clipPath><clipPath clipPathUnits="userSpaceOnUse" id="clipPath101"><path d="M 0,500 H 500 V 0 H 0 Z" transform="translate(-119.97171,-375.45461)" id="path101" /></clipPath><clipPath clipPathUnits="userSpaceOnUse" id="clipPath103"><path d="M 0,500 H 500 V 0 H 0 Z" transform="translate(-437.25881,-102.749)" id="path103" /></clipPath><clipPath clipPathUnits="userSpaceOnUse" id="clipPath105"><path d="M 0,500 H 500 V 0 H 0 Z" transform="translate(-153.0757,-110.08691)" id="path105" /></clipPath><clipPath clipPathUnits="userSpaceOnUse" id="clipPath107"><path d="M 0,500 H 500 V 0 H 0 Z" transform="translate(-68.039602,-123.2412)" id="path107" /></clipPath><clipPath clipPathUnits="userSpaceOnUse" id="clipPath109"><path d="M 0,500 H 500 V 0 H 0 Z" transform="translate(-98.763205,-118.9268)" id="path109" /></clipPath><clipPath clipPathUnits="userSpaceOnUse" id="clipPath111"><path d="M 0,500 H 500 V 0 H 0 Z" transform="translate(-94.1626,-133.752)" id="path111" /></clipPath><clipPath clipPathUnits="userSpaceOnUse" id="clipPath113"><path d="M 0,500 H 500 V 0 H 0 Z" transform="translate(-130.0093,-133.8818)" id="path113" /></clipPath><clipPath clipPathUnits="userSpaceOnUse" id="clipPath115"><path d="M 0,500 H 500 V 0 H 0 Z" transform="translate(-216.42291,-119.5391)" id="path115" /></clipPath><clipPath clipPathUnits="userSpaceOnUse" id="clipPath117"><path d="M 0,500 H 500 V 0 H 0 Z" transform="translate(-216.4243,-119.54)" id="path117" /></clipPath><clipPath clipPathUnits="userSpaceOnUse" id="clipPath119"><path d="M 0,500 H 500 V 0 H 0 Z" transform="translate(-216.42291,-119.5391)" id="path119" /></clipPath><clipPath clipPathUnits="userSpaceOnUse" id="clipPath121"><path d="M 0,500 H 500 V 0 H 0 Z" transform="translate(-432.46971,-121.0557)" id="path121" /></clipPath><clipPath clipPathUnits="userSpaceOnUse" id="clipPath123"><path d="M 0,500 H 500 V 0 H 0 Z" transform="translate(-427.03711,-133.8525)" id="path123" /></clipPath><clipPath clipPathUnits="userSpaceOnUse" id="clipPath125"><path d="M 0,500 H 500 V 0 H 0 Z" transform="translate(-405.37791,-144.78911)" id="path125" /></clipPath><clipPath clipPathUnits="userSpaceOnUse" id="clipPath127"><path d="M 0,500 H 500 V 0 H 0 Z" transform="translate(-404.70611,-137.2754)" id="path127" /></clipPath><clipPath clipPathUnits="userSpaceOnUse" id="clipPath129"><path d="M 0,500 H 500 V 0 H 0 Z" transform="translate(-432.46971,-121.0557)" id="path129" /></clipPath><clipPath clipPathUnits="userSpaceOnUse" id="clipPath131"><path d="M 0,500 H 500 V 0 H 0 Z" transform="translate(-327.13481,-114.4746)" id="path131" /></clipPath><clipPath clipPathUnits="userSpaceOnUse" id="clipPath133"><path d="M 0,500 H 500 V 0 H 0 Z" transform="translate(-376.72071,-396.30321)" id="path133" /></clipPath><clipPath clipPathUnits="userSpaceOnUse" id="clipPath135"><path d="M 0,500 H 500 V 0 H 0 Z" transform="translate(-345.24221,-355.45311)" id="path135" /></clipPath><clipPath clipPathUnits="userSpaceOnUse" id="clipPath137"><path d="M 0,500 H 500 V 0 H 0 Z" transform="translate(-315.50001,-373.42481)" id="path137" /></clipPath><clipPath clipPathUnits="userSpaceOnUse" id="clipPath139"><path d="M 0,500 H 500 V 0 H 0 Z" transform="translate(-312.87011,-392.23001)" id="path139" /></clipPath><clipPath clipPathUnits="userSpaceOnUse" id="clipPath141"><path d="M 0,500 H 500 V 0 H 0 Z" transform="translate(-328.25681,-433.48831)" id="path141" /></clipPath><clipPath clipPathUnits="userSpaceOnUse" id="clipPath143"><path d="M 0,500 H 500 V 0 H 0 Z" transform="translate(-371.31351,-429.34471)" id="path143" /></clipPath><clipPath clipPathUnits="userSpaceOnUse" id="clipPath145"><path d="M 0,500 H 500 V 0 H 0 Z" transform="translate(-356.50101,-401.37401)" id="path145" /></clipPath><clipPath clipPathUnits="userSpaceOnUse" id="clipPath147"><path d="M 0,500 H 500 V 0 H 0 Z" transform="translate(-356.68651,-383.02541)" id="path147" /></clipPath><clipPath clipPathUnits="userSpaceOnUse" id="clipPath149"><path d="M 0,500 H 500 V 0 H 0 Z" transform="translate(-339.52251,-412.63771)" id="path149" /></clipPath><clipPath clipPathUnits="userSpaceOnUse" id="clipPath151"><path d="M 0,500 H 500 V 0 H 0 Z" transform="translate(-376.35061,-419.38281)" id="path151" /></clipPath><clipPath clipPathUnits="userSpaceOnUse" id="clipPath153"><path d="M 0,500 H 500 V 0 H 0 Z" transform="translate(-364.11821,-384.56741)" id="path153" /></clipPath><clipPath clipPathUnits="userSpaceOnUse" id="clipPath155"><path d="M 0,500 H 500 V 0 H 0 Z" transform="translate(-376.72071,-396.30321)" id="path155" /></clipPath><clipPath clipPathUnits="userSpaceOnUse" id="clipPath157"><path d="M 0,500 H 500 V 0 H 0 Z" transform="translate(-313.61911,-296.27291)" id="path157" /></clipPath><clipPath clipPathUnits="userSpaceOnUse" id="clipPath159"><path d="M 0,500 H 500 V 0 H 0 Z" transform="translate(-305.04881,-316.07621)" id="path159" /></clipPath><clipPath clipPathUnits="userSpaceOnUse" id="clipPath161"><path d="M 0,500 H 500 V 0 H 0 Z" transform="translate(-300.53611,-275.20511)" id="path161" /></clipPath><clipPath clipPathUnits="userSpaceOnUse" id="clipPath163"><path d="M 0,500 H 500 V 0 H 0 Z" transform="translate(-319.84181,-243.67191)" id="path163" /></clipPath><clipPath clipPathUnits="userSpaceOnUse" id="clipPath165"><path d="M 0,500 H 500 V 0 H 0 Z" transform="translate(-338.39361,-241.03421)" id="path165" /></clipPath><clipPath clipPathUnits="userSpaceOnUse" id="clipPath167"><path d="M 0,500 H 500 V 0 H 0 Z" transform="translate(-320.49711,-352.96141)" id="path167" /></clipPath><clipPath clipPathUnits="userSpaceOnUse" id="clipPath169"><path d="M 0,500 H 500 V 0 H 0 Z" transform="translate(-431.04981,-326.64161)" id="path169" /></clipPath><clipPath clipPathUnits="userSpaceOnUse" id="clipPath171"><path d="M 0,500 H 500 V 0 H 0 Z" transform="translate(-372.06351,-226.83401)" id="path171" /></clipPath><clipPath clipPathUnits="userSpaceOnUse" id="clipPath173"><path d="M 0,500 H 500 V 0 H 0 Z" transform="translate(-399.95511,-220.86041)" id="path173" /></clipPath><clipPath clipPathUnits="userSpaceOnUse" id="clipPath175"><path d="M 0,500 H 500 V 0 H 0 Z" transform="translate(-323.42581,-269.89451)" id="path175" /></clipPath><clipPath clipPathUnits="userSpaceOnUse" id="clipPath177"><path d="M 0,500 H 500 V 0 H 0 Z" transform="translate(-355.10741,-259.54641)" id="path177" /></clipPath><clipPath clipPathUnits="userSpaceOnUse" id="clipPath179"><path d="M 0,500 H 500 V 0 H 0 Z" transform="translate(-313.61911,-296.27291)" id="path179" /></clipPath><clipPath clipPathUnits="userSpaceOnUse" id="clipPath181"><path d="M 0,500 H 500 V 0 H 0 Z" transform="translate(-369.42681,-281.5425)" id="path181" /></clipPath><clipPath clipPathUnits="userSpaceOnUse" id="clipPath183"><path d="M 0,500 H 500 V 0 H 0 Z" transform="translate(-336.97751,-317.55571)" id="path183" /></clipPath><clipPath clipPathUnits="userSpaceOnUse" id="clipPath185"><path d="M 0,500 H 500 V 0 H 0 Z" transform="translate(-313.62011,-296.27151)" id="path185" /></clipPath><clipPath clipPathUnits="userSpaceOnUse" id="clipPath187"><path d="M 0,500 H 500 V 0 H 0 Z" transform="translate(-369.07811,-322.24461)" id="path187" /></clipPath><clipPath clipPathUnits="userSpaceOnUse" id="clipPath189"><path d="M 0,500 H 500 V 0 H 0 Z" transform="translate(-336.97751,-317.55571)" id="path189" /></clipPath><clipPath clipPathUnits="userSpaceOnUse" id="clipPath191"><path d="M 0,500 H 500 V 0 H 0 Z" transform="translate(-401.02541,-318.82371)" id="path191" /></clipPath><clipPath clipPathUnits="userSpaceOnUse" id="clipPath193"><path d="M 0,500 H 500 V 0 H 0 Z" transform="translate(-369.07811,-322.24411)" id="path193" /></clipPath><clipPath clipPathUnits="userSpaceOnUse" id="clipPath195"><path d="M 0,500 H 500 V 0 H 0 Z" transform="translate(-401.98341,-287.1846)" id="path195" /></clipPath><clipPath clipPathUnits="userSpaceOnUse" id="clipPath197"><path d="M 0,500 H 500 V 0 H 0 Z" transform="translate(-401.02541,-318.82371)" id="path197" /></clipPath><clipPath clipPathUnits="userSpaceOnUse" id="clipPath199"><path d="M 0,500 H 500 V 0 H 0 Z" transform="translate(-385.65231,-244.13481)" id="path199" /></clipPath><clipPath clipPathUnits="userSpaceOnUse" id="clipPath201"><path d="M 0,500 H 500 V 0 H 0 Z" transform="translate(-361.43161,-257.66991)" id="path201" /></clipPath><clipPath clipPathUnits="userSpaceOnUse" id="clipPath203"><path d="M 0,500 H 500 V 0 H 0 Z" transform="translate(-361.72851,-265.84031)" id="path203" /></clipPath><clipPath clipPathUnits="userSpaceOnUse" id="clipPath205"><path d="M 0,500 H 500 V 0 H 0 Z" transform="translate(-402.13871,-265.52591)" id="path205" /></clipPath><clipPath clipPathUnits="userSpaceOnUse" id="clipPath207"><path d="M 0,500 H 500 V 0 H 0 Z" transform="translate(-385.65231,-244.13571)" id="path207" /></clipPath><clipPath clipPathUnits="userSpaceOnUse" id="clipPath209"><path d="M 0,500 H 500 V 0 H 0 Z" transform="translate(-402.13771,-265.52541)" id="path209" /></clipPath><clipPath clipPathUnits="userSpaceOnUse" id="clipPath211"><path d="M 0,500 H 500 V 0 H 0 Z" transform="translate(-355.10741,-259.54641)" id="path211" /></clipPath><clipPath clipPathUnits="userSpaceOnUse" id="clipPath213"><path d="M 0,500 H 500 V 0 H 0 Z" transform="translate(-242.46831,-133.5723)" id="path213" /></clipPath><clipPath clipPathUnits="userSpaceOnUse" id="clipPath215"><path d="M 0,500 H 500 V 0 H 0 Z" transform="translate(-210.0742,-231.25001)" id="path215" /></clipPath><clipPath clipPathUnits="userSpaceOnUse" id="clipPath217"><path d="M 0,500 H 500 V 0 H 0 Z" transform="translate(-184.9072,-258.88431)" id="path217" /></clipPath><clipPath clipPathUnits="userSpaceOnUse" id="clipPath219"><path d="M 0,500 H 500 V 0 H 0 Z" transform="translate(-148.6821,-295.10451)" id="path219" /></clipPath><clipPath clipPathUnits="userSpaceOnUse" id="clipPath221"><path d="M 0,500 H 500 V 0 H 0 Z" transform="translate(-147.19731,-276.85691)" id="path221" /></clipPath><clipPath clipPathUnits="userSpaceOnUse" id="clipPath223"><path d="M 0,500 H 500 V 0 H 0 Z" transform="translate(-145.4277,-259.17381)" id="path223" /></clipPath><clipPath clipPathUnits="userSpaceOnUse" id="clipPath225"><path d="M 0,500 H 500 V 0 H 0 Z" transform="translate(-144.6172,-243.18261)" id="path225" /></clipPath><clipPath clipPathUnits="userSpaceOnUse" id="clipPath227"><path d="M 0,500 H 500 V 0 H 0 Z" transform="translate(-145.23831,-226.34181)" id="path227" /></clipPath><clipPath clipPathUnits="userSpaceOnUse" id="clipPath229"><path d="M 0,500 H 500 V 0 H 0 Z" transform="translate(-148.04301,-210.12111)" id="path229" /></clipPath><clipPath clipPathUnits="userSpaceOnUse" id="clipPath231"><path d="M 0,500 H 500 V 0 H 0 Z" transform="translate(-154.3618,-192.44921)" id="path231" /></clipPath><clipPath clipPathUnits="userSpaceOnUse" id="clipPath233"><path d="M 0,500 H 500 V 0 H 0 Z" transform="translate(-163.56201,-176.61521)" id="path233" /></clipPath><clipPath clipPathUnits="userSpaceOnUse" id="clipPath235"><path d="M 0,500 H 500 V 0 H 0 Z" transform="translate(-179.42721,-158.4932)" id="path235" /></clipPath><clipPath clipPathUnits="userSpaceOnUse" id="clipPath237"><path d="M 0,500 H 500 V 0 H 0 Z" transform="translate(-168.06741,-111.37211)" id="path237" /></clipPath><clipPath clipPathUnits="userSpaceOnUse" id="clipPath239"><path d="M 0,500 H 500 V 0 H 0 Z" transform="translate(-171.1729,-117.8379)" id="path239" /></clipPath><clipPath clipPathUnits="userSpaceOnUse" id="clipPath241"><path d="M 0,500 H 500 V 0 H 0 Z" transform="translate(-262.65531,-102.97271)" id="path241" /></clipPath><clipPath clipPathUnits="userSpaceOnUse" id="clipPath243"><path d="M 0,500 H 500 V 0 H 0 Z" transform="translate(-256.89841,-105.15821)" id="path243" /></clipPath><clipPath clipPathUnits="userSpaceOnUse" id="clipPath245"><path d="M 0,500 H 500 V 0 H 0 Z" transform="translate(-197.36961,-145.5762)" id="path245" /></clipPath><clipPath clipPathUnits="userSpaceOnUse" id="clipPath247"><path d="M 0,500 H 500 V 0 H 0 Z" transform="translate(-218.4478,-137.4365)" id="path247" /></clipPath><clipPath clipPathUnits="userSpaceOnUse" id="clipPath249"><path d="M 0,500 H 500 V 0 H 0 Z" transform="translate(-252.6064,-248.63481)" id="path249" /></clipPath><clipPath clipPathUnits="userSpaceOnUse" id="clipPath251"><path d="M 0,500 H 500 V 0 H 0 Z" transform="translate(-263.56351,-232.1865)" id="path251" /></clipPath><clipPath clipPathUnits="userSpaceOnUse" id="clipPath253"><path d="M 0,500 H 500 V 0 H 0 Z" transform="translate(-280.915,-228.33591)" id="path253" /></clipPath><clipPath clipPathUnits="userSpaceOnUse" id="clipPath255"><path d="M 0,500 H 500 V 0 H 0 Z" transform="translate(-279.01861,-215.27831)" id="path255" /></clipPath><clipPath clipPathUnits="userSpaceOnUse" id="clipPath257"><path d="M 0,500 H 500 V 0 H 0 Z" transform="translate(-267.748,-214.49321)" id="path257" /></clipPath><clipPath clipPathUnits="userSpaceOnUse" id="clipPath259"><path d="M 0,500 H 500 V 0 H 0 Z" transform="translate(-309.81641,-206.8818)" id="path259" /></clipPath><clipPath clipPathUnits="userSpaceOnUse" id="clipPath261"><path d="M 0,500 H 500 V 0 H 0 Z" transform="translate(-322.25681,-187.8135)" id="path261" /></clipPath><clipPath clipPathUnits="userSpaceOnUse" id="clipPath263"><path d="M 0,500 H 500 V 0 H 0 Z" transform="translate(-329.74901,-169.2236)" id="path263" /></clipPath><clipPath clipPathUnits="userSpaceOnUse" id="clipPath265"><path d="M 0,500 H 500 V 0 H 0 Z" transform="translate(-341.73931,-143.08301)" id="path265" /></clipPath><clipPath clipPathUnits="userSpaceOnUse" id="clipPath267"><path d="M 0,500 H 500 V 0 H 0 Z" transform="translate(-354.48051,-143.9541)" id="path267" /></clipPath><clipPath clipPathUnits="userSpaceOnUse" id="clipPath269"><path d="M 0,500 H 500 V 0 H 0 Z" transform="translate(-341.77441,-168.3789)" id="path269" /></clipPath><clipPath clipPathUnits="userSpaceOnUse" id="clipPath271"><path d="M 0,500 H 500 V 0 H 0 Z" transform="translate(-385.95121,-98.459002)" id="path271" /></clipPath><clipPath clipPathUnits="userSpaceOnUse" id="clipPath273"><path d="M 0,500 H 500 V 0 H 0 Z" transform="translate(-379.38281,-132.7695)" id="path273" /></clipPath><clipPath clipPathUnits="userSpaceOnUse" id="clipPath275"><path d="M 0,500 H 500 V 0 H 0 Z" transform="translate(-180.59571,-341.57131)" id="path275" /></clipPath><clipPath clipPathUnits="userSpaceOnUse" id="clipPath277"><path d="M 0,500 H 500 V 0 H 0 Z" transform="translate(-189.04101,-346.05371)" id="path277" /></clipPath><clipPath clipPathUnits="userSpaceOnUse" id="clipPath279"><path d="M 0,500 H 500 V 0 H 0 Z" transform="translate(-184.69431,-261.6948)" id="path279" /></clipPath><clipPath clipPathUnits="userSpaceOnUse" id="clipPath281"><path d="M 0,500 H 500 V 0 H 0 Z" transform="translate(-198.0361,-215.9238)" id="path281" /></clipPath><clipPath clipPathUnits="userSpaceOnUse" id="clipPath283"><path d="M 0,500 H 500 V 0 H 0 Z" transform="translate(-187.3789,-215.26761)" id="path283" /></clipPath><clipPath clipPathUnits="userSpaceOnUse" id="clipPath285"><path d="M 0,500 H 500 V 0 H 0 Z" transform="translate(-180.43551,-218.77541)" id="path285" /></clipPath><clipPath clipPathUnits="userSpaceOnUse" id="clipPath287"><path d="M 0,500 H 500 V 0 H 0 Z" transform="translate(-175.2612,-228.13961)" id="path287" /></clipPath><clipPath clipPathUnits="userSpaceOnUse" id="clipPath289"><path d="M 0,500 H 500 V 0 H 0 Z" transform="translate(-244.6279,-404.04541)" id="path289" /></clipPath><clipPath clipPathUnits="userSpaceOnUse" id="clipPath291"><path d="M 0,500 H 500 V 0 H 0 Z" transform="translate(-228.89061,-353.46631)" id="path291" /></clipPath><clipPath clipPathUnits="userSpaceOnUse" id="clipPath293"><path d="M 0,500 H 500 V 0 H 0 Z" transform="translate(-183.4443,-384.64701)" id="path293" /></clipPath><clipPath clipPathUnits="userSpaceOnUse" id="clipPath295"><path d="M 0,500 H 500 V 0 H 0 Z" transform="translate(-225.19921,-396.14601)" id="path295" /></clipPath><clipPath clipPathUnits="userSpaceOnUse" id="clipPath297"><path d="M 0,500 H 500 V 0 H 0 Z" transform="translate(-203.1001,-348.71041)" id="path297" /></clipPath><clipPath clipPathUnits="userSpaceOnUse" id="clipPath299"><path d="M 0,500 H 500 V 0 H 0 Z" transform="translate(-165.3213,-379.77441)" id="path299" /></clipPath><clipPath clipPathUnits="userSpaceOnUse" id="clipPath301"><path d="M 0,500 H 500 V 0 H 0 Z" transform="translate(-177.6465,-379.95211)" id="path301" /></clipPath><clipPath clipPathUnits="userSpaceOnUse" id="clipPath303"><path d="M 0,500 H 500 V 0 H 0 Z" transform="translate(-230.05221,-388.11181)" id="path303" /></clipPath><clipPath clipPathUnits="userSpaceOnUse" id="clipPath305"><path d="M 0,500 H 500 V 0 H 0 Z" transform="translate(-211.17331,-139.4316)" id="path305" /></clipPath><clipPath clipPathUnits="userSpaceOnUse" id="clipPath307"><path d="M 0,500 H 500 V 0 H 0 Z" transform="translate(-162.37701,-177.70511)" id="path307" /></clipPath><clipPath clipPathUnits="userSpaceOnUse" id="clipPath309"><path d="M 0,500 H 500 V 0 H 0 Z" transform="translate(-146.4858,-215.95611)" id="path309" /></clipPath><clipPath clipPathUnits="userSpaceOnUse" id="clipPath311"><path d="M 0,500 H 500 V 0 H 0 Z" transform="translate(-147.6426,-281.3652)" id="path311" /></clipPath><clipPath clipPathUnits="userSpaceOnUse" id="clipPath313"><path d="M 0,500 H 500 V 0 H 0 Z" transform="translate(-212.31691,-438.15091)" id="path313" /></clipPath><clipPath clipPathUnits="userSpaceOnUse" id="clipPath315"><path d="M 0,500 H 500 V 0 H 0 Z" transform="translate(-217.1611,-433.01421)" id="path315" /></clipPath><clipPath clipPathUnits="userSpaceOnUse" id="clipPath317"><path d="M 0,500 H 500 V 0 H 0 Z" transform="translate(-147.6421,-281.3652)" id="path317" /></clipPath><clipPath clipPathUnits="userSpaceOnUse" id="clipPath319"><path d="M 0,500 H 500 V 0 H 0 Z" transform="translate(-161.75781,-91.345702)" id="path319" /></clipPath><clipPath clipPathUnits="userSpaceOnUse" id="clipPath321"><path d="M 0,500 H 500 V 0 H 0 Z" transform="translate(-175.57281,-91.524405)" id="path321" /></clipPath><clipPath clipPathUnits="userSpaceOnUse" id="clipPath323"><path d="M 0,500 H 500 V 0 H 0 Z" transform="translate(-151.83351,-93.239302)" id="path323" /></clipPath><clipPath clipPathUnits="userSpaceOnUse" id="clipPath325"><path d="M 0,500 H 500 V 0 H 0 Z" transform="translate(-164.938,-102.69731)" id="path325" /></clipPath><clipPath clipPathUnits="userSpaceOnUse" id="clipPath327"><path d="M 0,500 H 500 V 0 H 0 Z" transform="translate(-149.7358,-106.25591)" id="path327" /></clipPath><clipPath clipPathUnits="userSpaceOnUse" id="clipPath329"><path d="M 0,500 H 500 V 0 H 0 Z" transform="translate(-154.3066,-102.4287)" id="path329" /></clipPath><clipPath clipPathUnits="userSpaceOnUse" id="clipPath331"><path d="M 0,500 H 500 V 0 H 0 Z" transform="translate(-149.7363,-106.2539)" id="path331" /></clipPath><clipPath clipPathUnits="userSpaceOnUse" id="clipPath333"><path d="M 0,500 H 500 V 0 H 0 Z" transform="translate(-200.9458,-119.4854)" id="path333" /></clipPath><clipPath clipPathUnits="userSpaceOnUse" id="clipPath335"><path d="M 0,500 H 500 V 0 H 0 Z" transform="translate(-175.57281,-91.524405)" id="path335" /></clipPath><clipPath clipPathUnits="userSpaceOnUse" id="clipPath337"><path d="M 0,500 H 500 V 0 H 0 Z" transform="translate(-200.9458,-119.4854)" id="path337" /></clipPath><clipPath clipPathUnits="userSpaceOnUse" id="clipPath339"><path d="M 0,500 H 500 V 0 H 0 Z" transform="translate(-148.8901,-300.44871)" id="path339" /></clipPath><clipPath clipPathUnits="userSpaceOnUse" id="clipPath341"><path d="M 0,500 H 500 V 0 H 0 Z" transform="translate(-193.96581,-213.05471)" id="path341" /></clipPath><clipPath clipPathUnits="userSpaceOnUse" id="clipPath343"><path d="M 0,500 H 500 V 0 H 0 Z" transform="translate(-261.6592,-74.062499)" id="path343" /></clipPath><clipPath clipPathUnits="userSpaceOnUse" id="clipPath345"><path d="M 0,500 H 500 V 0 H 0 Z" transform="translate(-281.6641,-73.378904)" id="path345" /></clipPath><clipPath clipPathUnits="userSpaceOnUse" id="clipPath347"><path d="M 0,500 H 500 V 0 H 0 Z" transform="translate(-249.1333,-77.140604)" id="path347" /></clipPath><clipPath clipPathUnits="userSpaceOnUse" id="clipPath349"><path d="M 0,500 H 500 V 0 H 0 Z" transform="translate(-264.82131,-87.2715)" id="path349" /></clipPath><clipPath clipPathUnits="userSpaceOnUse" id="clipPath351"><path d="M 0,500 H 500 V 0 H 0 Z" transform="translate(-246.79251,-92.9004)" id="path351" /></clipPath><clipPath clipPathUnits="userSpaceOnUse" id="clipPath353"><path d="M 0,500 H 500 V 0 H 0 Z" transform="translate(-252.4375,-90.031305)" id="path353" /></clipPath><clipPath clipPathUnits="userSpaceOnUse" id="clipPath355"><path d="M 0,500 H 500 V 0 H 0 Z" transform="translate(-295.7959,-134.51861)" id="path355" /></clipPath><clipPath clipPathUnits="userSpaceOnUse" id="clipPath357"><path d="M 0,500 H 500 V 0 H 0 Z" transform="translate(-281.6641,-73.378904)" id="path357" /></clipPath><clipPath clipPathUnits="userSpaceOnUse" id="clipPath359"><path d="M 0,500 H 500 V 0 H 0 Z" transform="translate(-294.24901,-139.74221)" id="path359" /></clipPath><clipPath clipPathUnits="userSpaceOnUse" id="clipPath361"><path d="M 0,500 H 500 V 0 H 0 Z" transform="translate(-174.46971,-233.32031)" id="path361" /></clipPath><clipPath clipPathUnits="userSpaceOnUse" id="clipPath363"><path d="M 0,500 H 500 V 0 H 0 Z" transform="translate(-435.21781,-118.0029)" id="path363" /></clipPath><clipPath clipPathUnits="userSpaceOnUse" id="clipPath365"><path d="M 0,500 H 500 V 0 H 0 Z" transform="translate(-222.87451,-273.3579)" id="path365" /></clipPath><clipPath clipPathUnits="userSpaceOnUse" id="clipPath367"><path d="M 0,500 H 500 V 0 H 0 Z" transform="translate(-211.97311,-287.7129)" id="path367" /></clipPath><clipPath clipPathUnits="userSpaceOnUse" id="clipPath369"><path d="M 0,500 H 500 V 0 H 0 Z" transform="translate(-192.3208,-318.48581)" id="path369" /></clipPath><clipPath clipPathUnits="userSpaceOnUse" id="clipPath371"><path d="M 0,500 H 500 V 0 H 0 Z" transform="translate(-203.1001,-348.71041)" id="path371" /></clipPath><clipPath clipPathUnits="userSpaceOnUse" id="clipPath373"><path d="M 0,500 H 500 V 0 H 0 Z" transform="translate(-241.7158,-419.51461)" id="path373" /></clipPath><clipPath clipPathUnits="userSpaceOnUse" id="clipPath375"><path d="M 0,500 H 500 V 0 H 0 Z" transform="translate(-229.41751,-435.30081)" id="path375" /></clipPath><clipPath clipPathUnits="userSpaceOnUse" id="clipPath377"><path d="M 0,500 H 500 V 0 H 0 Z" transform="translate(-212.31691,-438.15041)" id="path377" /></clipPath><clipPath clipPathUnits="userSpaceOnUse" id="clipPath379"><path d="M 0,500 H 500 V 0 H 0 Z" transform="translate(-230.53561,-431.04981)" id="path379" /></clipPath><clipPath clipPathUnits="userSpaceOnUse" id="clipPath381"><path d="M 0,500 H 500 V 0 H 0 Z" transform="translate(-200.44921,-304.96681)" id="path381" /></clipPath><clipPath clipPathUnits="userSpaceOnUse" id="clipPath383"><path d="M 0,500 H 500 V 0 H 0 Z" transform="translate(-192.3208,-318.48581)" id="path383" /></clipPath><clipPath clipPathUnits="userSpaceOnUse" id="clipPath385"><path d="M 0,500 H 500 V 0 H 0 Z" transform="translate(-200.44921,-304.96681)" id="path385" /></clipPath><clipPath clipPathUnits="userSpaceOnUse" id="clipPath387"><path d="M 0,500 H 500 V 0 H 0 Z" transform="translate(-242.5444,-263.98241)" id="path387" /></clipPath><clipPath clipPathUnits="userSpaceOnUse" id="clipPath389"><path d="M 0,500 H 500 V 0 H 0 Z" transform="translate(-222.874,-273.3579)" id="path389" /></clipPath><clipPath clipPathUnits="userSpaceOnUse" id="clipPath391"><path d="M 0,500 H 500 V 0 H 0 Z" transform="translate(-261.97951,-254.5728)" id="path391" /></clipPath><clipPath clipPathUnits="userSpaceOnUse" id="clipPath393"><path d="M 0,500 H 500 V 0 H 0 Z" transform="translate(-242.5444,-263.98241)" id="path393" /></clipPath><clipPath clipPathUnits="userSpaceOnUse" id="clipPath395"><path d="M 0,500 H 500 V 0 H 0 Z" transform="translate(-284.5234,-247.34471)" id="path395" /></clipPath><clipPath clipPathUnits="userSpaceOnUse" id="clipPath397"><path d="M 0,500 H 500 V 0 H 0 Z" transform="translate(-261.97951,-254.5728)" id="path397" /></clipPath><clipPath clipPathUnits="userSpaceOnUse" id="clipPath399"><path d="M 0,500 H 500 V 0 H 0 Z" transform="translate(-306.22461,-235.83111)" id="path399" /></clipPath><clipPath clipPathUnits="userSpaceOnUse" id="clipPath401"><path d="M 0,500 H 500 V 0 H 0 Z" transform="translate(-284.5234,-247.34471)" id="path401" /></clipPath><clipPath clipPathUnits="userSpaceOnUse" id="clipPath403"><path d="M 0,500 H 500 V 0 H 0 Z" transform="translate(-323.62701,-215.97171)" id="path403" /></clipPath><clipPath clipPathUnits="userSpaceOnUse" id="clipPath405"><path d="M 0,500 H 500 V 0 H 0 Z" transform="translate(-306.22461,-235.83111)" id="path405" /></clipPath><clipPath clipPathUnits="userSpaceOnUse" id="clipPath407"><path d="M 0,500 H 500 V 0 H 0 Z" transform="translate(-338.43851,-196.10351)" id="path407" /></clipPath><clipPath clipPathUnits="userSpaceOnUse" id="clipPath409"><path d="M 0,500 H 500 V 0 H 0 Z" transform="translate(-323.62701,-215.97171)" id="path409" /></clipPath><clipPath clipPathUnits="userSpaceOnUse" id="clipPath411"><path d="M 0,500 H 500 V 0 H 0 Z" transform="translate(-349.30081,-178.14161)" id="path411" /></clipPath><clipPath clipPathUnits="userSpaceOnUse" id="clipPath413"><path d="M 0,500 H 500 V 0 H 0 Z" transform="translate(-338.43851,-196.10351)" id="path413" /></clipPath><clipPath clipPathUnits="userSpaceOnUse" id="clipPath415"><path d="M 0,500 H 500 V 0 H 0 Z" transform="translate(-360.88771,-160.3232)" id="path415" /></clipPath><clipPath clipPathUnits="userSpaceOnUse" id="clipPath417"><path d="M 0,500 H 500 V 0 H 0 Z" transform="translate(-349.30081,-178.14161)" id="path417" /></clipPath><clipPath clipPathUnits="userSpaceOnUse" id="clipPath419"><path d="M 0,500 H 500 V 0 H 0 Z" transform="translate(-372.44241,-146.8164)" id="path419" /></clipPath><clipPath clipPathUnits="userSpaceOnUse" id="clipPath421"><path d="M 0,500 H 500 V 0 H 0 Z" transform="translate(-360.88771,-160.3232)" id="path421" /></clipPath><clipPath clipPathUnits="userSpaceOnUse" id="clipPath423"><path d="M 0,500 H 500 V 0 H 0 Z" transform="translate(-386.25491,-135.37211)" id="path423" /></clipPath><clipPath clipPathUnits="userSpaceOnUse" id="clipPath425"><path d="M 0,500 H 500 V 0 H 0 Z" transform="translate(-372.44241,-146.8164)" id="path425" /></clipPath><clipPath clipPathUnits="userSpaceOnUse" id="clipPath427"><path d="M 0,500 H 500 V 0 H 0 Z" transform="translate(-401.10251,-128.24711)" id="path427" /></clipPath><clipPath clipPathUnits="userSpaceOnUse" id="clipPath429"><path d="M 0,500 H 500 V 0 H 0 Z" transform="translate(-386.25491,-135.37211)" id="path429" /></clipPath><clipPath clipPathUnits="userSpaceOnUse" id="clipPath431"><path d="M 0,500 H 500 V 0 H 0 Z" transform="translate(-413.76071,-123.0801)" id="path431" /></clipPath><clipPath clipPathUnits="userSpaceOnUse" id="clipPath433"><path d="M 0,500 H 500 V 0 H 0 Z" transform="translate(-401.10161,-128.24711)" id="path433" /></clipPath><clipPath clipPathUnits="userSpaceOnUse" id="clipPath435"><path d="M 0,500 H 500 V 0 H 0 Z" transform="translate(-425.78911,-120.54)" id="path435" /></clipPath><clipPath clipPathUnits="userSpaceOnUse" id="clipPath437"><path d="M 0,500 H 500 V 0 H 0 Z" transform="translate(-413.75981,-123.0801)" id="path437" /></clipPath><clipPath clipPathUnits="userSpaceOnUse" id="clipPath439"><path d="M 0,500 H 500 V 0 H 0 Z" transform="translate(-425.78811,-120.54)" id="path439" /></clipPath><clipPath clipPathUnits="userSpaceOnUse" id="clipPath441"><path d="M 0,500 H 500 V 0 H 0 Z" transform="translate(-229.41751,-435.30081)" id="path441" /></clipPath><clipPath clipPathUnits="userSpaceOnUse" id="clipPath443"><path d="M 0,500 H 500 V 0 H 0 Z" transform="translate(-195.1851,-416.87351)" id="path443" /></clipPath><clipPath clipPathUnits="userSpaceOnUse" id="clipPath445"><path d="M 0,500 H 500 V 0 H 0 Z" transform="translate(-194.6499,-409.87941)" id="path445" /></clipPath><clipPath clipPathUnits="userSpaceOnUse" id="clipPath447"><path d="M 0,500 H 500 V 0 H 0 Z" transform="translate(-180.8179,-416.55571)" id="path447" /></clipPath><clipPath clipPathUnits="userSpaceOnUse" id="clipPath449"><path d="M 0,500 H 500 V 0 H 0 Z" transform="translate(-198.2974,-216.10161)" id="path449" /></clipPath><clipPath clipPathUnits="userSpaceOnUse" id="clipPath451"><path d="M 0,500 H 500 V 0 H 0 Z" transform="translate(-197.6113,-434.94731)" id="path451" /></clipPath><clipPath clipPathUnits="userSpaceOnUse" id="clipPath453"><path d="M 0,500 H 500 V 0 H 0 Z" transform="translate(-181.1304,-402.84721)" id="path453" /></clipPath><clipPath clipPathUnits="userSpaceOnUse" id="clipPath455"><path d="M 0,500 H 500 V 0 H 0 Z" transform="translate(-242.46831,-133.5723)" id="path455" /></clipPath><clipPath clipPathUnits="userSpaceOnUse" id="clipPath457"><path d="M 0,500 H 500 V 0 H 0 Z" transform="translate(-246.79251,-92.899402)" id="path457" /></clipPath><clipPath clipPathUnits="userSpaceOnUse" id="clipPath459"><path d="M 0,500 H 500 V 0 H 0 Z" transform="translate(-318.30371,-121.8018)" id="path459" /></clipPath><clipPath clipPathUnits="userSpaceOnUse" id="clipPath461"><path d="M 0,500 H 500 V 0 H 0 Z" transform="translate(-324.81151,-137.6904)" id="path461" /></clipPath><clipPath clipPathUnits="userSpaceOnUse" id="clipPath463"><path d="M 0,500 H 500 V 0 H 0 Z" transform="translate(-244.49661,-366.76711)" id="path463" /></clipPath><clipPath clipPathUnits="userSpaceOnUse" id="clipPath465"><path d="M 0,500 H 500 V 0 H 0 Z" transform="translate(-243.4399,-375.14401)" id="path465" /></clipPath><clipPath clipPathUnits="userSpaceOnUse" id="clipPath467"><path d="M 0,500 H 500 V 0 H 0 Z" transform="translate(-253.43071,-381.39501)" id="path467" /></clipPath><clipPath clipPathUnits="userSpaceOnUse" id="clipPath469"><path d="M 0,500 H 500 V 0 H 0 Z" transform="translate(-243.12451,-390.81981)" id="path469" /></clipPath><clipPath clipPathUnits="userSpaceOnUse" id="clipPath471"><path d="M 0,500 H 500 V 0 H 0 Z" transform="translate(-253.43551,-396.48051)" id="path471" /></clipPath><clipPath clipPathUnits="userSpaceOnUse" id="clipPath473"><path d="M 0,500 H 500 V 0 H 0 Z" transform="translate(-173.79741,-438.61521)" id="path473" /></clipPath><clipPath clipPathUnits="userSpaceOnUse" id="clipPath475"><path d="M 0,500 H 500 V 0 H 0 Z" transform="translate(-180.8169,-448.72901)" id="path475" /></clipPath><clipPath clipPathUnits="userSpaceOnUse" id="clipPath477"><path d="M 0,500 H 500 V 0 H 0 Z" transform="translate(-188.0278,-438.81051)" id="path477" /></clipPath><clipPath clipPathUnits="userSpaceOnUse" id="clipPath479"><path d="M 0,500 H 500 V 0 H 0 Z" transform="translate(-164.4438,-429.47951)" id="path479" /></clipPath><clipPath clipPathUnits="userSpaceOnUse" id="clipPath481"><path d="M 0,500 H 500 V 0 H 0 Z" transform="translate(-223.02781,-442.81351)" id="path481" /></clipPath><clipPath clipPathUnits="userSpaceOnUse" id="clipPath483"><path d="M 0,500 H 500 V 0 H 0 Z" transform="translate(-224.1406,-432.02691)" id="path483" /></clipPath><clipPath clipPathUnits="userSpaceOnUse" id="clipPath485"><path d="M 0,500 H 500 V 0 H 0 Z" transform="translate(-238.43601,-430.93951)" id="path485" /></clipPath><clipPath clipPathUnits="userSpaceOnUse" id="clipPath487"><path d="M 0,500 H 500 V 0 H 0 Z" transform="translate(-224.20951,-252.1665)" id="path487" /></clipPath><clipPath clipPathUnits="userSpaceOnUse" id="clipPath489"><path d="M 0,500 H 500 V 0 H 0 Z" transform="translate(-211.53421,-248.99801)" id="path489" /></clipPath><clipPath clipPathUnits="userSpaceOnUse" id="clipPath491"><path d="M 0,500 H 500 V 0 H 0 Z" transform="translate(-217.62211,-256.78221)" id="path491" /></clipPath><clipPath clipPathUnits="userSpaceOnUse" id="clipPath493"><path d="M 0,500 H 500 V 0 H 0 Z" transform="translate(-193.0039,-310.81641)" id="path493" /></clipPath><clipPath clipPathUnits="userSpaceOnUse" id="clipPath495"><path d="M 0,500 H 500 V 0 H 0 Z" transform="translate(-195.34371,-304.73681)" id="path495" /></clipPath><clipPath clipPathUnits="userSpaceOnUse" id="clipPath497"><path d="M 0,500 H 500 V 0 H 0 Z" transform="translate(-205.90621,-306.07471)" id="path497" /></clipPath><clipPath clipPathUnits="userSpaceOnUse" id="clipPath499"><path d="M 0,500 H 500 V 0 H 0 Z" transform="translate(-212.42241,-304.53171)" id="path499" /></clipPath><clipPath clipPathUnits="userSpaceOnUse" id="clipPath501"><path d="M 0,500 H 500 V 0 H 0 Z" transform="translate(-230.47221,-278.2026)" id="path501" /></clipPath><clipPath clipPathUnits="userSpaceOnUse" id="clipPath503"><path d="M 0,500 H 500 V 0 H 0 Z" transform="translate(-236.38531,-277.57761)" id="path503" /></clipPath><clipPath clipPathUnits="userSpaceOnUse" id="clipPath505"><path d="M 0,500 H 500 V 0 H 0 Z" transform="translate(-236.61771,-261.92871)" id="path505" /></clipPath><clipPath clipPathUnits="userSpaceOnUse" id="clipPath507"><path d="M 0,500 H 500 V 0 H 0 Z" transform="translate(-248.12551,-268.7295)" id="path507" /></clipPath><clipPath clipPathUnits="userSpaceOnUse" id="clipPath509"><path d="M 0,500 H 500 V 0 H 0 Z" transform="translate(-253.9453,-252.41061)" id="path509" /></clipPath><clipPath clipPathUnits="userSpaceOnUse" id="clipPath511"><path d="M 0,500 H 500 V 0 H 0 Z" transform="translate(-268.85841,-261.021)" id="path511" /></clipPath><clipPath clipPathUnits="userSpaceOnUse" id="clipPath513"><path d="M 0,500 H 500 V 0 H 0 Z" transform="translate(-278.84671,-263.01861)" id="path513" /></clipPath><clipPath clipPathUnits="userSpaceOnUse" id="clipPath515"><path d="M 0,500 H 500 V 0 H 0 Z" transform="translate(-277.45411,-241.44431)" id="path515" /></clipPath><clipPath clipPathUnits="userSpaceOnUse" id="clipPath517"><path d="M 0,500 H 500 V 0 H 0 Z" transform="translate(-291.00781,-251.98731)" id="path517" /></clipPath><clipPath clipPathUnits="userSpaceOnUse" id="clipPath519"><path d="M 0,500 H 500 V 0 H 0 Z" transform="translate(-291.583,-231.55271)" id="path519" /></clipPath><clipPath clipPathUnits="userSpaceOnUse" id="clipPath521"><path d="M 0,500 H 500 V 0 H 0 Z" transform="translate(-305.82131,-246.04391)" id="path521" /></clipPath><clipPath clipPathUnits="userSpaceOnUse" id="clipPath523"><path d="M 0,500 H 500 V 0 H 0 Z" transform="translate(-304.58111,-219.6426)" id="path523" /></clipPath><clipPath clipPathUnits="userSpaceOnUse" id="clipPath525"><path d="M 0,500 H 500 V 0 H 0 Z" transform="translate(-320.65331,-233.27051)" id="path525" /></clipPath><clipPath clipPathUnits="userSpaceOnUse" id="clipPath527"><path d="M 0,500 H 500 V 0 H 0 Z" transform="translate(-312.40621,-210.22071)" id="path527" /></clipPath><clipPath clipPathUnits="userSpaceOnUse" id="clipPath529"><path d="M 0,500 H 500 V 0 H 0 Z" transform="translate(-320.37791,-199.96481)" id="path529" /></clipPath><clipPath clipPathUnits="userSpaceOnUse" id="clipPath531"><path d="M 0,500 H 500 V 0 H 0 Z" transform="translate(-338.23141,-211.09571)" id="path531" /></clipPath><clipPath clipPathUnits="userSpaceOnUse" id="clipPath533"><path d="M 0,500 H 500 V 0 H 0 Z" transform="translate(-333.24611,-180.9609)" id="path533" /></clipPath><clipPath clipPathUnits="userSpaceOnUse" id="clipPath535"><path d="M 0,500 H 500 V 0 H 0 Z" transform="translate(-349.75291,-190.0703)" id="path535" /></clipPath><clipPath clipPathUnits="userSpaceOnUse" id="clipPath537"><path d="M 0,500 H 500 V 0 H 0 Z" transform="translate(-356.27731,-176.8418)" id="path537" /></clipPath><clipPath clipPathUnits="userSpaceOnUse" id="clipPath539"><path d="M 0,500 H 500 V 0 H 0 Z" transform="translate(-350.46971,-157.752)" id="path539" /></clipPath><clipPath clipPathUnits="userSpaceOnUse" id="clipPath541"><path d="M 0,500 H 500 V 0 H 0 Z" transform="translate(-366.06051,-160.3232)" id="path541" /></clipPath><clipPath clipPathUnits="userSpaceOnUse" id="clipPath543"><path d="M 0,500 H 500 V 0 H 0 Z" transform="translate(-364.13671,-143.793)" id="path543" /></clipPath><clipPath clipPathUnits="userSpaceOnUse" id="clipPath545"><path d="M 0,500 H 500 V 0 H 0 Z" transform="translate(-377.46781,-147.89261)" id="path545" /></clipPath><clipPath clipPathUnits="userSpaceOnUse" id="clipPath547"><path d="M 0,500 H 500 V 0 H 0 Z" transform="translate(-378.89751,-133.4639)" id="path547" /></clipPath><clipPath clipPathUnits="userSpaceOnUse" id="clipPath549"><path d="M 0,500 H 500 V 0 H 0 Z" transform="translate(-391.97171,-136.3086)" id="path549" /></clipPath><clipPath clipPathUnits="userSpaceOnUse" id="clipPath551"><path d="M 0,500 H 500 V 0 H 0 Z" transform="translate(-398.54881,-133.02641)" id="path551" /></clipPath><clipPath clipPathUnits="userSpaceOnUse" id="clipPath553"><path d="M 0,500 H 500 V 0 H 0 Z" transform="translate(-407.65531,-128.1602)" id="path553" /></clipPath><clipPath clipPathUnits="userSpaceOnUse" id="clipPath555"><path d="M 0,500 H 500 V 0 H 0 Z" transform="translate(-419.66311,-123.8027)" id="path555" /></clipPath><clipPath clipPathUnits="userSpaceOnUse" id="clipPath557"><path d="M 0,500 H 500 V 0 H 0 Z" transform="translate(-429.65331,-121.5996)" id="path557" /></clipPath><rect x="14.549811" y="36.058228" width="60.729648" height="58.515546" id="rect27" /><rect x="14.549811" y="36.058228" width="60.729648" height="58.515546" id="rect7" /></defs><g id="Color" style="display:inline" transform="matrix(0.20542448,0,0,0.20542448,12.212384,-8.6657839)"><path id="path14" style="stroke:none;stroke-width:0.0790751;fill:transparent" d="m 131.22506,18.952563 c 0,-0.572599 0.19076,-1.088331 0.55254,-1.493832 l 0.30243,-0.33898 0.0565,0.22119 c 0.11979,0.469172 -0.17378,1.396389 -0.57464,1.814993 -0.11454,0.119601 -0.23717,0.217456 -0.27253,0.217456 -0.0354,0 -0.0643,-0.189372 -0.0643,-0.420827 z m -3.00485,-0.899125 c -0.7611,-0.32607 -2.27341,-0.965369 -3.36069,-1.420664 -1.08728,-0.455296 -2.0046,-0.85505 -2.03848,-0.888343 -0.0796,-0.07821 -0.26289,-2.280293 -0.19542,-2.347763 0.0281,-0.02813 0.32876,0.06333 0.66807,0.203248 3.35285,1.382592 7.11288,2.958671 7.16152,3.001867 0.0332,0.02952 -0.0459,0.2471 -0.1759,0.483509 -0.12998,0.236409 -0.29418,0.687816 -0.3649,1.003128 -0.0712,0.317632 -0.16911,0.569856 -0.21948,0.565583 -0.05,-0.0042 -0.71362,-0.274495 -1.47472,-0.600565 z m -7.24036,-2.684207 c -0.21237,-0.289261 -0.55528,-0.793802 -0.76202,-1.121202 -0.43669,-0.691556 -0.44039,-0.683066 0.41226,-0.94657 l 0.5129,-0.15851 0.0556,0.367362 c 0.0594,0.392812 0.20952,2.330615 0.18318,2.364543 -0.009,0.01117 -0.18952,-0.216363 -0.40188,-0.505623 z m -1.37882,1.288417 c -1.10455,-0.488862 -1.34428,-0.621932 -1.34428,-0.746193 0,-0.149978 0.47862,-1.204277 0.54547,-1.201557 0.0402,0.0016 0.33946,0.433904 1.37987,1.993138 0.0804,0.120465 0.11596,0.218593 0.0791,0.218062 -0.0369,-5.31e-4 -0.33395,-0.119084 -0.66013,-0.26345 z m -3.52753,14.582076 -0.16684,-0.07085 0.38206,-2.596356 c 0.21013,-1.427995 0.66068,-4.490069 1.00122,-6.804609 0.34054,-2.314539 0.6372,-4.226287 0.65924,-4.248328 0.022,-0.02204 0.465,0.149678 0.98434,0.381598 l 0.94427,0.421672 -0.0257,0.268278 c -0.0393,0.411047 -1.33487,9.402052 -1.59867,11.094546 -0.12819,0.822476 -0.25394,1.51636 -0.27943,1.541964 -0.0773,0.0776 -1.72165,0.08806 -1.90053,0.01209 z" transform="matrix(4.867969,0,0,4.867969,-59.449507,42.184767)" /><path id="path24" style="stroke:none;stroke-width:0.0395375;fill:transparent" d="m 119.93658,29.428949 c -8.2e-4,-0.176086 0.16551,-1.254716 0.19922,-1.291912 0.0167,-0.0184 0.4814,0.199197 1.03274,0.483548 0.55134,0.284351 0.99003,0.517356 0.97487,0.517789 -0.0335,9.55e-4 -1.94453,0.346401 -2.09758,0.379167 -0.0984,0.02107 -0.10878,0.01265 -0.10925,-0.08859 z M 94.893756,40.161105 c 0.06253,-1.952143 0.158445,-3.632215 0.213151,-3.733493 0.108464,-0.200797 3.77496,1.907188 3.688899,2.120865 -0.04562,0.113275 -2.829645,3.709732 -3.635611,4.696556 l -0.380124,0.465424 z m -3.279617,-2.126001 c -0.931938,-2.435512 -1.740226,-4.552848 -1.796196,-4.705192 -0.06711,-0.182663 0.550307,0.105528 1.813046,0.846274 l 1.914808,1.123261 -0.02081,1.763204 c -0.01144,0.969762 -0.06482,2.581631 -0.118613,3.58193 l -0.09781,1.818727 z m 6.870269,-1.86273 c -1.484843,-0.873746 -1.856464,-1.15481 -1.581502,-1.196119 0.197681,-0.0297 4.160344,-0.723311 8.805924,-1.541361 l 8.4465,-1.487363 0.8289,0.405546 c 0.65836,0.322102 1.0681,0.406079 1.99141,0.408139 1.70118,0.0038 2.5478,-0.396055 2.74562,-1.296726 0.10772,-0.490415 0.006,-0.457288 3.1189,-1.018114 l 1.38087,-0.248798 2.09844,1.109132 c 1.15413,0.610023 2.01056,1.110243 1.90317,1.111599 -0.22787,0.0029 -27.20774,4.730867 -27.56009,4.829667 -0.13047,0.03659 -1.110636,-0.447435 -2.178142,-1.075602 z m -5.847974,-3.405688 c -0.978554,-0.57791 -1.779189,-1.087894 -1.779189,-1.133298 0,-0.101987 23.738605,-4.151896 23.825725,-4.064772 0.16136,0.161356 -0.35872,2.693464 -0.57766,2.81244 -0.23253,0.126362 -19.220851,3.482189 -19.531537,3.451829 -0.08698,-0.0085 -0.958785,-0.48829 -1.937339,-1.066199 z" transform="matrix(4.867969,0,0,4.867969,-59.449507,42.184767)" /><path id="path28" style="stroke:none;stroke-width:0.3163;fill:transparent" d="m 101.37423,67.896061 c 0,-11.715333 -0.0914,-23.000083 -0.20307,-25.077221 l -0.20307,-3.776616 14.19936,-2.48715 c 7.80964,-1.367933 14.37727,-2.552734 14.59473,-2.63289 0.31416,-0.115806 0.39537,4.928452 0.39537,24.55952 0,13.587895 -0.11258,24.70526 -0.25018,24.70526 -0.1376,0 -6.42263,1.352184 -13.96673,3.004852 -7.54409,1.652669 -13.90776,3.004853 -14.14147,3.004853 -0.35151,0 -0.42494,-3.680653 -0.42494,-21.300608 z m 13.91721,7.015059 c 1.0744,-0.506305 1.94107,-0.654754 3.53514,-0.605516 2.3221,0.07173 3.3453,-0.303126 4.81615,-1.764405 1.35371,-1.344902 2.38719,-3.119659 3.46422,-5.948987 0.89498,-2.351063 0.96846,-2.84939 0.98104,-6.653316 0.0133,-4.024646 -0.007,-4.148819 -0.96684,-5.851554 -1.27123,-2.255608 -2.94107,-3.252185 -5.41209,-3.229981 l -1.7423,0.01566 0.78923,-0.844164 c 1.12563,-1.203976 1.74427,-2.566204 1.98313,-4.366802 0.27798,-2.09552 -0.16898,-2.498273 -2.20385,-1.985887 -1.96536,0.494884 -3.81565,1.89311 -4.63783,3.504709 l -0.67638,1.325817 -0.59038,-0.768052 c -0.32471,-0.422428 -0.59354,-0.874803 -0.59741,-1.005277 -0.0122,-0.410084 -1.28432,-0.257468 -1.44986,0.173934 -0.0868,0.226137 0.34469,1.375161 0.95882,2.553385 1.25077,2.399623 1.45798,3.574664 0.56308,3.193179 -1.05077,-0.447935 -4.125,-0.535153 -5.29164,-0.150127 -1.62425,0.53605 -3.21879,2.027699 -4.19829,3.927388 -0.68284,1.324327 -0.85399,2.154052 -0.96468,4.676514 -0.15932,3.631165 0.4911,6.232229 2.31785,9.26917 1.50224,2.497444 2.47159,3.476722 4.38556,4.430494 1.92408,0.958807 3.0718,0.982944 4.93733,0.103822 z M 94.1959,85.142146 89.389824,81.763613 89.371354,64.6834 c -0.01016,-9.394117 -0.0952,-19.571078 -0.188973,-22.615468 l -0.170504,-5.535254 1.745955,4.428204 c 2.116254,5.367382 2.425397,5.976902 3.097031,6.106247 0.346726,0.06677 1.38848,-0.983418 3.073054,-3.097946 l 2.54851,-3.198963 v 23.896924 c 0,13.143307 -0.106752,23.88716 -0.237225,23.875229 -0.130474,-0.01193 -2.39996,-1.542033 -5.043302,-3.400227 z" transform="matrix(4.867969,0,0,4.867969,-59.449507,42.184767)" /><path style="stroke:none;stroke-width:0.15815;fill:transparent" d="m 111.65399,73.700892 c -2.73815,-1.091157 -5.42274,-5.044472 -6.33832,-9.333792 -0.12068,-0.565387 -0.22066,-1.710476 -0.22217,-2.544642 -0.007,-3.598103 1.52511,-6.554632 3.9622,-7.648332 1.29769,-0.58237 2.46428,-0.586426 4.39739,-0.01529 2.15952,0.638027 2.85587,0.554253 4.85726,-0.584338 1.79595,-1.02172 2.73821,-1.305288 3.92895,-1.182393 2.13068,0.219906 3.71281,1.961929 4.30518,4.74026 0.35168,1.649435 0.20916,4.767329 -0.309,6.760285 -1.10631,4.255058 -3.14238,7.594636 -5.26278,8.632051 -0.73714,0.36065 -0.98374,0.406691 -1.69064,0.315655 -2.64033,-0.340023 -2.67548,-0.336787 -4.07225,0.374904 -1.58475,0.807469 -2.45125,0.925809 -3.55582,0.485633 z m 6.19234,-6.090156 c 1.38948,-0.412631 2.84612,-1.78512 3.14084,-2.959397 0.11466,-0.456824 -0.24613,-0.91684 -0.71906,-0.91684 -0.32205,0 -0.35924,0.0359 -1.14694,1.107051 -1.07985,1.468434 -2.94936,1.922996 -4.40365,1.070725 -0.38042,-0.222938 -0.82715,-0.555053 -0.99275,-0.738034 -0.53556,-0.591792 -1.35911,-0.34654 -1.35911,0.404743 0,0.50668 1.17006,1.575318 2.12876,1.944237 0.96488,0.371295 2.28064,0.405648 3.35191,0.08751 z m -7.0938,-4.856768 c 0.10438,-0.104379 0.18978,-0.309997 0.18978,-0.456929 0,-0.146933 0.12896,-0.42641 0.28658,-0.621061 0.36293,-0.448194 0.80793,-0.329083 1.19057,0.318667 0.46103,0.780457 1.36955,0.608308 1.36955,-0.259507 0,-1.053995 -0.84956,-1.796242 -2.05595,-1.796242 -1.25018,0 -2.21228,0.897054 -2.21351,2.063859 -6.7e-4,0.637979 0.22831,0.940994 0.71109,0.940994 0.18266,0 0.41751,-0.0854 0.52189,-0.189781 z m 9.74873,-1.945246 c 0.43663,-0.84677 0.98433,-0.921841 1.43497,-0.196685 0.40607,0.653432 0.919,0.743461 1.2611,0.221347 0.22581,-0.344634 0.22948,-0.452593 0.0315,-0.926437 -0.34674,-0.829867 -1.11413,-1.391515 -1.90028,-1.390811 -1.18679,0.0011 -2.31865,1.046254 -2.31999,2.142343 -0.001,1.069421 0.9684,1.167025 1.4927,0.150243 z" id="path30" transform="matrix(4.867969,0,0,4.867969,-59.449507,42.184767)" /><path style="stroke:none;stroke-width:0.0559145;fill:transparent" d="m 116.57212,50.065578 c 0.0753,-0.806317 0.44972,-1.854085 0.91075,-2.548578 0.49754,-0.749502 1.38169,-1.528262 2.21766,-1.953321 0.37963,-0.193031 1.26033,-0.496582 1.44073,-0.496582 0.1221,0 0.12474,0.01183 0.0904,0.40538 -0.12467,1.430617 -0.99489,3.055187 -2.06996,3.864311 -0.74796,0.562924 -1.59193,0.934778 -2.40614,1.060133 l -0.21755,0.03349 z" id="path32" transform="matrix(4.867969,0,0,4.867969,-59.449507,42.184767)" /><path style="stroke:none;stroke-width:0.3163;fill:transparent" d="m 24.485378,80.84892 c -3.785772,-1.087807 -8.027072,-4.346772 -9.430823,-7.246533 -0.782068,-1.615539 -0.968563,-4.119374 -0.387671,-5.204781 0.277081,-0.51773 0.665224,-0.709354 1.436828,-0.709354 1.335703,0 1.801098,0.565362 2.118562,2.57363 0.146391,0.926062 0.603352,2.058957 1.085432,2.690995 1.601264,2.099367 5.652471,4.224382 8.053512,4.224382 1.736613,0 2.549157,-1.923953 3.332606,-7.890993 0.568197,-4.327597 1.157028,-19.73911 0.87958,-23.021312 l -0.194355,-2.29922 h -4.539941 c -4.118207,0 -4.598706,-0.05877 -5.172541,-0.632601 -0.869853,-0.869853 -0.829172,-2.392973 0.07907,-2.960575 0.92735,-0.579541 18.471785,-0.986442 20.36339,-0.47228 1.597374,0.434187 2.331152,1.116501 2.331152,2.167654 0,1.67262 -0.728247,1.921333 -4.959593,1.693816 l -3.802226,-0.204444 -0.19159,8.981547 c -0.368497,17.27474 -1.918426,25.364482 -5.346059,27.903367 -1.069341,0.792073 -3.66464,0.978712 -5.655338,0.406702 z" id="path34" transform="matrix(4.867969,0,0,4.867969,-59.449507,42.184767)" /><path id="path38" style="stroke:none;stroke-width:0.111829;fill:transparent" d="m 54.655413,54.908655 c -0.7334,-0.44716 -0.982404,-1.224457 -0.630089,-1.966906 0.496307,-1.045889 2.125506,-1.120457 2.732433,-0.125063 0.817739,1.341137 -0.759573,2.910666 -2.102344,2.091969 z M 52.53916,89.017253 c -1.287858,-0.272449 -2.817858,-1.481427 -3.822834,-3.020734 -0.629046,-0.9635 -1.462729,-2.673123 -1.542133,-3.162432 -0.05435,-0.334921 -0.009,-0.450872 0.312528,-0.799205 0.252831,-0.273904 0.509563,-0.428652 0.783299,-0.472144 0.365978,-0.05815 0.450882,-0.01964 0.838718,0.380348 0.237336,0.244775 0.783781,1.084757 1.214323,1.866628 0.430541,0.78187 0.946487,1.614496 1.146546,1.850277 0.956263,1.127017 2.536912,1.194198 3.339511,0.141936 0.384292,-0.503833 0.901447,-1.826417 0.996979,-2.549695 0.08105,-0.613624 -0.04634,-3.233852 -0.448305,-9.221418 -0.146584,-2.183462 -0.381001,-5.863611 -0.520927,-8.17811 -0.250478,-4.143145 -0.251142,-4.215425 -0.04301,-4.676987 0.425124,-0.942756 1.131464,-1.151263 1.933025,-0.570616 0.429874,0.3114 0.458072,0.367504 0.519905,1.034419 0.116683,1.258519 0.612911,10.63019 0.858331,16.210272 0.274508,6.241448 0.261021,6.432486 -0.573455,8.122383 -1.114439,2.256851 -3.072657,3.451226 -4.992504,3.045078 z" transform="matrix(4.867969,0,0,4.867969,-59.449507,42.184767)" /><path style="stroke:none;stroke-width:0.447316;fill:transparent" d="M 2.9075546,59.716699 V 2.6838966 H 79.398607 155.88966 V 59.716699 116.7495 H 79.398607 2.9075546 Z M 117.19682,87.968955 131.95825,84.753973 V 58.436887 32.119798 l -5.3678,-2.856773 c -2.95228,-1.571225 -5.51213,-2.910381 -5.68855,-2.975903 -0.28871,-0.107224 0.73852,-8.290368 1.08406,-8.635909 0.079,-0.07904 2.03331,0.647475 4.34282,1.61447 5.11131,2.140108 6.0494,2.199203 6.95993,0.438439 0.8933,-1.727447 0.86273,-2.855948 -0.10034,-3.704442 -0.43054,-0.37932 -3.19072,-1.647668 -6.13372,-2.81855 -5.21136,-2.073357 -5.39801,-2.112592 -7.15705,-1.504408 -2.44928,0.846828 -3.48542,2.999241 -4.25961,8.848603 -0.33226,2.51036 -0.80941,4.691176 -1.06034,4.84626 -0.25093,0.155082 -6.40692,1.303532 -13.67997,2.55211 l -13.223725,2.270141 v 26.386188 26.386188 l 6.184887,4.348753 c 5.07608,3.569122 6.399268,4.305744 7.380718,4.108863 0.6577,-0.131941 7.83847,-1.686632 15.95726,-3.454873 z m -60.160511,0.701374 c 2.5051,-2.5051 2.705247,-3.781669 2.216916,-14.139899 C 58.64093,61.54284 58.460474,60.017711 57.473547,59.489525 56.182226,58.79843 55.010495,58.96217 54.107574,59.959886 c -0.786324,0.868876 -0.800427,1.361912 -0.284672,9.952784 0.689336,11.482286 0.674785,13.80829 -0.09295,14.858239 -0.578836,0.791606 -0.723355,0.683271 -2.229634,-1.671424 -1.723513,-2.694283 -2.838601,-3.369238 -4.28629,-2.594455 -1.853216,0.991807 -1.561885,3.639359 0.731299,6.645878 1.559702,2.044878 3.6101,3.203275 5.673404,3.20527 1.405762,0.0014 2.046382,-0.314651 3.41758,-1.685849 z m -26.00857,-7.137407 c 0.648461,-0.479389 1.648573,-1.712111 2.222472,-2.739386 2.112655,-3.781633 3.640043,-15.193485 3.648752,-27.26159 l 0.0046,-6.395486 3.638434,0.10789 c 3.326817,0.09865 3.709924,0.0196 4.473161,-0.922955 1.534824,-1.895428 0.918723,-4.44368 -1.29618,-5.361124 C 42.177594,38.32181 39.9303,38.22674 29.614344,38.363588 c -7.788991,0.103325 -7.983808,0.12921 -9.058151,1.203554 -1.34181,1.34181 -1.400697,2.869684 -0.170859,4.433169 0.764354,0.97172 1.294379,1.179297 3.019383,1.182503 1.150757,0.0021 3.17903,0.134371 4.507273,0.29385 l 2.414987,0.289962 -0.277933,10.329908 C 29.776615,66.221896 29.307427,71.23927 28.361503,74.142643 27.997157,75.260951 27.6337,75.59642 26.78644,75.59642 c -2.867681,0 -7.328205,-3.821283 -7.328205,-6.277992 0,-4.000433 -5.774683,-4.157499 -6.521359,-0.177374 -1.165166,6.210867 7.581509,14.063725 14.959635,13.430916 1.073707,-0.09209 2.482752,-0.55966 3.131213,-1.039048 z M 57.480118,55.467196 c 1.074726,-1.074726 1.135499,-2.140949 0.198295,-3.478997 -1.343898,-1.918682 -5.118772,-0.859786 -5.118772,1.435872 0,2.625208 3.065507,3.898095 4.920477,2.043125 z" id="path40" transform="matrix(4.867969,0,0,4.867969,-59.449507,42.184767)" /></g><g id="Outline" style="display:inline" transform="matrix(0.20542448,0,0,0.20542448,12.212384,-8.6657839)"><rect style="fill:none;stroke:#000000;stroke-width:1.33306;stroke-dasharray:none;stroke-opacity:1" id="rect1" width="154.88843" height="115.74319" x="2.0926507" y="1.7971287" transform="matrix(4.8679691,0,0,4.8679691,-59.449507,42.184767)" /><path style="font-size:22.325px;font-family:'Comic Sans MS';-inkscape-font-specification:'Comic Sans MS';display:inline;fill:#000000;fill-opacity:1;stroke:none;stroke-width:6.43992;stroke-opacity:1" d="m 511.50571,584.74849 q 0,0.38153 -0.67585,1.11189 -0.50144,0.50144 -0.99198,1.00288 -1.21,1.37351 -1.89675,3.92431 -0.59955,2.22378 -0.59955,4.37126 0,5.53764 2.5072,8.12115 0.50144,0.39243 1.01378,0.78486 0.63225,0.50144 0.63225,0.99198 0,0.35973 -0.28342,0.62135 -0.28342,0.27253 -0.65405,0.27253 -0.32703,0 -0.78487,-0.25072 -4.61107,-2.58351 -4.61107,-10.79187 0,-2.95414 1.1882,-5.98459 1.3299,-3.36837 3.48828,-4.88359 0.43603,-0.30523 0.68675,-0.30523 0.39244,0 0.68676,0.31613 0.29432,0.30522 0.29432,0.69766 z m 7.03107,17.17978 q -2.23468,0 -3.7281,-1.35171 -1.56973,-1.41711 -1.56973,-3.739 0,-2.21288 1.47162,-4.56747 1.63513,-2.61621 3.6845,-2.61621 1.06828,0 2.38729,0.50144 1.66784,0.64315 1.66784,1.56973 0,0.41423 -0.27253,0.74126 -0.27252,0.31612 -0.67585,0.31612 -0.31613,0 -0.55595,-0.18531 -0.22891,-0.19622 -0.44693,-0.38153 -0.64315,-0.51234 -2.10387,-0.51234 -1.11189,0 -2.20198,1.98396 -0.99198,1.82044 -0.99198,3.15035 0,1.43892 0.98108,2.26738 0.91567,0.77397 2.35459,0.77397 0.65405,0 1.39531,-0.34883 l 1.2645,-0.67586 q 0.32703,-0.17441 0.46874,-0.17441 0.40333,0 0.69766,0.32703 0.29432,0.31612 0.29432,0.73035 0,0.79577 -1.67873,1.53703 -1.47162,0.65405 -2.4418,0.65405 z m 12.61232,-7.02016 q 0,8.20836 -4.62198,10.79187 -0.44693,0.25072 -0.77396,0.25072 -0.37063,0 -0.65405,-0.27253 -0.28342,-0.26162 -0.28342,-0.62135 0,-0.49054 0.63225,-0.99198 0.50144,-0.39243 1.01378,-0.78486 2.5072,-2.58351 2.5072,-8.12115 0,-2.14748 -0.59955,-4.37126 -0.69765,-2.5508 -1.89675,-3.92431 -0.50144,-0.50144 -0.99198,-1.00288 -0.67586,-0.73036 -0.67586,-1.11189 0,-0.39244 0.28343,-0.69766 0.29432,-0.31613 0.68675,-0.31613 0.25072,0 0.69766,0.30523 2.15837,1.51522 3.48828,4.88359 1.1882,3.03045 1.1882,5.98459 z m 24.97391,7.23818 q -0.58865,0 -0.97018,-0.61045 -0.32703,-0.52324 -0.58865,-1.74414 l -0.39243,-1.87495 q -0.44693,-1.74414 -1.41711,-7.69602 l -2.18018,6.57323 -0.64315,2.07116 q -0.39243,1.2318 -0.81757,2.01667 -0.45783,0.82846 -1.2318,0.82846 -0.64315,0 -1.01378,-0.69765 -0.23982,-0.45784 -0.43603,-1.1664 l -0.31613,-1.20999 q -1.10099,-3.84801 -1.94035,-8.24107 l -0.39244,1.95126 -1.40621,5.75566 q -0.0872,1.01378 -0.54504,2.99774 -0.32703,0.85027 -1.07919,0.85027 -0.53414,0 -0.85027,-0.38153 -0.27252,-0.32702 -0.27252,-0.80666 0,-1.82045 0.75216,-4.46936 l 1.1991,-4.39306 0.63225,-3.43377 q 0.47964,-2.4091 1.01378,-3.15036 0.43603,-0.63225 1.07919,-0.63225 0.70855,0 1.05738,0.80667 0.42514,0.97017 0.91568,3.95701 0.57774,3.58639 1.79864,7.76143 1.61333,-4.19684 2.79063,-8.7425 l 0.32702,-1.59153 q 0.19622,-0.95928 0.51234,-1.54793 0.42514,-0.80666 1.1664,-0.80666 0.93747,0 1.42801,1.80954 0.17442,0.62135 0.42514,2.57261 0.64315,4.9272 1.60243,8.41548 l 0.53414,1.87495 q 0.41423,1.50432 0.41423,1.85315 0,0.46874 -0.35973,0.78486 -0.34882,0.31613 -0.79576,0.31613 z m 12.02367,-0.18532 q -0.20711,0 -0.75216,-0.47963 -0.49054,-0.44694 -0.73036,-0.79577 -1.04648,0.56685 -1.84225,0.85027 -0.79576,0.29432 -1.3299,0.29432 -2.55081,0 -3.7172,-1.43891 -1.10099,-1.35171 -1.10099,-4.14234 0,-2.63801 1.80954,-4.51296 1.82045,-1.87495 4.33855,-1.87495 0.94838,0 2.12568,0.49054 1.48252,0.61045 1.48252,1.47162 0,0.29432 -0.21802,0.52324 -0.10901,0.41423 -0.17442,1.36261 -0.0545,0.94838 -0.0654,2.43089 -0.0109,1.35171 0.18531,2.13658 0.10901,0.47964 0.68676,1.91855 0.0763,0.19622 0.25072,0.57775 l 0.0654,0.18531 q 0,0.43604 -0.30522,0.71946 -0.30522,0.28342 -0.70856,0.28342 z m -2.26738,-7.57611 q 0,-0.46873 0.0545,-1.01378 0.0654,-0.55594 0.18532,-1.17729 -0.40333,-0.20712 -0.69766,-0.30523 -0.28342,-0.0981 -0.45783,-0.0981 -1.68964,0 -2.92144,1.38442 -1.2209,1.37351 -1.2209,3.17215 0,1.78775 0.63225,2.68162 0.63225,0.89387 1.89676,0.89387 1.04648,0 1.77684,-0.38153 0.39243,-0.20712 1.10099,-0.82847 -0.34883,-2.88873 -0.34883,-4.32765 z m 14.14934,2.15838 -0.25072,3.66269 q -0.0654,2.18018 -0.44694,3.56459 -0.49054,1.76594 -1.56972,2.60531 -1.30811,1.01378 -3.78261,1.01378 -1.44982,0 -2.4309,-0.19621 -1.37351,-0.27253 -1.37351,-1.1337 0,-0.97017 0.94838,-0.97017 0.39243,0 1.30811,0.18531 0.91567,0.19622 2.02756,0.17442 2.09297,-0.0327 2.88873,-2.02757 0.52324,-1.32991 0.55595,-4.08783 -0.58865,1.09009 -1.40622,1.63513 -0.80666,0.54505 -1.85315,0.54505 -1.97306,0 -3.21576,-1.34081 -1.2318,-1.35171 -1.2318,-3.49918 0,-2.94324 1.68964,-4.74188 1.74414,-1.85315 4.75278,-1.85315 1.01379,0 1.70054,0.26162 0.68676,0.26162 1.04649,0.78486 1.16639,0.0327 1.16639,1.2972 0,0.77397 -0.22892,2.07117 -0.25072,1.50432 -0.29432,2.04937 z m -3.49918,-4.72008 q -2.07117,0 -3.20486,1.42801 -1.01378,1.28631 -1.01378,3.27027 0,1.58062 0.59954,2.37639 0.59955,0.79576 1.79865,0.79576 1.10099,0 2.13657,-1.2427 0.93748,-1.14459 1.06829,-2.26738 0.22892,-1.1773 0.49054,-3.6954 -0.43604,-0.33793 -0.90478,-0.50144 -0.46873,-0.16351 -0.97017,-0.16351 z m 8.45908,-4.38216 q -0.52324,0 -0.90477,-0.37063 -0.38153,-0.37063 -0.38153,-0.89387 0,-0.52324 0.38153,-0.89387 0.38153,-0.37063 0.90477,-0.37063 0.52324,0 0.89387,0.37063 0.38153,0.37063 0.38153,0.89387 0,0.52324 -0.38153,0.89387 -0.37063,0.37063 -0.89387,0.37063 z m 0.49054,8.85152 q 0,0.65405 0.0327,1.96216 0.0436,1.2972 0.0436,1.95125 0,0.47964 -0.29433,0.78487 -0.29432,0.30522 -0.77396,0.30522 -0.46874,0 -0.77396,-0.30522 -0.29433,-0.30523 -0.29433,-0.78487 0,-0.65405 -0.0436,-1.95125 -0.0327,-1.30811 -0.0327,-1.96216 0,-1.02469 0.10901,-2.55081 0.10901,-1.53702 0.10901,-2.56171 0,-0.49054 0.29432,-0.79576 0.30522,-0.30522 0.77396,-0.30522 0.46874,0 0.76306,0.30522 0.30523,0.30522 0.30523,0.79576 0,1.02469 -0.10901,2.56171 -0.10901,1.52612 -0.10901,2.55081 z m 8.61169,5.63575 q -2.23468,0 -3.7281,-1.35171 -1.56972,-1.41711 -1.56972,-3.739 0,-2.21288 1.47161,-4.56747 1.63514,-2.61621 3.6845,-2.61621 1.06829,0 2.38729,0.50144 1.66784,0.64315 1.66784,1.56973 0,0.41423 -0.27252,0.74126 -0.27253,0.31612 -0.67586,0.31612 -0.31612,0 -0.55594,-0.18531 -0.22892,-0.19622 -0.44694,-0.38153 -0.64315,-0.51234 -2.10387,-0.51234 -1.11189,0 -2.20198,1.98396 -0.99198,1.82044 -0.99198,3.15035 0,1.43892 0.98108,2.26738 0.91568,0.77397 2.35459,0.77397 0.65406,0 1.39532,-0.34883 l 1.2645,-0.67586 q 0.32702,-0.17441 0.46874,-0.17441 0.40333,0 0.69765,0.32703 0.29433,0.31612 0.29433,0.73035 0,0.79577 -1.67874,1.53703 -1.47162,0.65405 -2.4418,0.65405 z m 9.52737,-7.08557 q -0.30522,0 -1.3299,-0.14171 -0.0872,1.64603 -0.0872,5.76656 0,0.43604 -0.28342,0.74126 -0.28343,0.29433 -0.70856,0.29433 -0.43604,0 -0.71946,-0.29433 -0.28342,-0.30522 -0.28342,-0.74126 v -3.20485 q 0,-1.60243 0.19621,-4.51297 0.21802,-3.15035 0.23982,-4.51296 v -1.50432 q 0,-1.07919 0.13081,-1.56973 0.25073,-0.95928 1.06829,-0.82847 0.34883,-0.10901 0.99198,-0.16351 0.64315,-0.0545 1.58063,-0.0545 1.99486,0 3.739,1.36261 1.91855,1.50433 1.91855,3.6191 0,2.70341 -2.04936,4.30584 -1.83135,1.43892 -4.40396,1.43892 z m 0.54505,-8.6553 q -0.47964,0 -0.86117,0.0218 -0.37063,0.0218 -0.63225,0.0654 l -0.0218,2.00576 -0.22892,4.33855 1.19909,0.14171 q 1.83135,0 3.08495,-0.92657 1.37351,-1.01378 1.37351,-2.73612 0,-1.2209 -1.3081,-2.10387 -1.21,-0.80667 -2.60531,-0.80667 z m 13.17916,15.55556 q -2.4636,0 -3.98972,-1.2318 -1.66783,-1.36261 -1.66783,-3.81531 0,-2.83423 1.37351,-4.75278 1.49342,-2.09297 3.98972,-2.09297 1.80954,0 2.95414,0.61045 1.40621,0.75216 1.40621,2.31098 0,1.09009 -1.2318,1.98396 -0.54504,0.39243 -2.31099,1.2209 l -4.16413,1.97306 q 0.61045,0.90477 1.51522,1.36261 0.91567,0.45784 2.12567,0.45784 0.75216,0 1.76594,-0.28343 1.28631,-0.35972 1.65694,-0.93747 0.37063,-0.58865 0.79576,-0.58865 0.38153,0 0.67586,0.29433 0.30522,0.28342 0.30522,0.66495 0,1.21 -1.95126,2.08207 -1.66783,0.74126 -3.24846,0.74126 z m -0.29432,-9.9307 q -1.32991,0 -2.21288,1.03558 -0.88297,1.02468 -1.31901,3.09585 l 3.34657,-1.59153 q 1.97306,-0.95928 2.81243,-1.66783 -0.93747,-0.87207 -2.62711,-0.87207 z m 15.79537,10.20322 q -0.93748,0 -1.05739,-1.02468 l -0.30522,-2.3873 q -0.15261,-1.2754 -0.15261,-2.38729 0,-0.30522 0.0327,-1.03558 0.0436,-0.73036 0.0436,-1.03559 0,-2.35459 -0.87207,-2.35459 -1.2209,0 -2.33279,1.44982 -1.00288,1.31901 -1.56972,3.33567 -0.0218,0.42513 -0.0981,1.06829 -0.0654,0.54504 -0.0654,1.05738 0,0.32703 0.0654,0.98108 0.0654,0.65405 0.0654,0.98108 0,0.49054 -0.30522,0.79576 -0.29432,0.30523 -0.76306,0.30523 -0.47964,0 -0.77396,-0.30523 -0.29433,-0.30522 -0.29433,-0.79576 0,-0.32703 -0.0763,-0.98108 -0.0654,-0.65405 -0.0654,-0.98108 0,-1.12279 0.15261,-3.10675 0.16352,-1.99486 0.16352,-3.11765 0,-0.34883 -0.0436,-1.03558 -0.0327,-0.68676 -0.0327,-1.03559 0,-0.46874 0.30522,-0.76306 0.31613,-0.30522 0.77397,-0.30522 1.00288,0 1.10099,1.41711 l 0.0327,1.2754 q 1.83135,-2.44179 3.7608,-2.44179 1.74414,0 2.4309,1.53702 0.46874,1.02468 0.51234,3.03044 v 1.10099 l -0.0109,1.01379 q 0,0.90477 0.22892,2.34368 0.23982,1.42802 0.23982,2.32189 0,0.47964 -0.31613,0.77396 -0.30522,0.30523 -0.77396,0.30523 z m 8.25196,-0.0872 q -2.23468,0 -3.7281,-1.35171 -1.56973,-1.41711 -1.56973,-3.739 0,-2.21288 1.47162,-4.56747 1.63513,-2.61621 3.6845,-2.61621 1.06828,0 2.38729,0.50144 1.66783,0.64315 1.66783,1.56973 0,0.41423 -0.27252,0.74126 -0.27252,0.31612 -0.67585,0.31612 -0.31613,0 -0.55595,-0.18531 -0.22892,-0.19622 -0.44693,-0.38153 -0.64316,-0.51234 -2.10387,-0.51234 -1.11189,0 -2.20198,1.98396 -0.99198,1.82044 -0.99198,3.15035 0,1.43892 0.98108,2.26738 0.91567,0.77397 2.35459,0.77397 0.65405,0 1.39531,-0.34883 l 1.2645,-0.67586 q 0.32703,-0.17441 0.46874,-0.17441 0.40333,0 0.69766,0.32703 0.29432,0.31612 0.29432,0.73035 0,0.79577 -1.67873,1.53703 -1.47162,0.65405 -2.4418,0.65405 z m 8.6226,-14.48727 q -0.52325,0 -0.90478,-0.37063 -0.38153,-0.37063 -0.38153,-0.89387 0,-0.52324 0.38153,-0.89387 0.38153,-0.37063 0.90478,-0.37063 0.52324,0 0.89387,0.37063 0.38153,0.37063 0.38153,0.89387 0,0.52324 -0.38153,0.89387 -0.37063,0.37063 -0.89387,0.37063 z m 0.49054,8.85152 q 0,0.65405 0.0327,1.96216 0.0436,1.2972 0.0436,1.95125 0,0.47964 -0.29432,0.78487 -0.29433,0.30522 -0.77396,0.30522 -0.46874,0 -0.77397,-0.30522 -0.29432,-0.30523 -0.29432,-0.78487 0,-0.65405 -0.0436,-1.95125 -0.0327,-1.30811 -0.0327,-1.96216 0,-1.02469 0.10901,-2.55081 0.10901,-1.53702 0.10901,-2.56171 0,-0.49054 0.29433,-0.79576 0.30522,-0.30522 0.77396,-0.30522 0.46874,0 0.76306,0.30522 0.30522,0.30522 0.30522,0.79576 0,1.02469 -0.109,2.56171 -0.10901,1.52612 -0.10901,2.55081 z m 6.45332,-3.61909 -0.16351,5.41773 q 0,0.86117 -0.0872,2.52901 -0.10901,1.09008 -1.06828,1.09008 -1.06829,0 -1.06829,-1.11189 0,-1.319 0.11991,-3.95701 0.11991,-2.64892 0.11991,-3.96792 0,-1.72234 0.0545,-3.93522 0.0545,-2.22378 0.0545,-3.94612 0,-1.09009 1.06828,-1.09009 1.07919,0 1.07919,1.09009 0,1.72234 -0.0545,3.94612 -0.0545,2.21288 -0.0545,3.93522 z m 4.74188,9.58187 q -0.56685,0 -0.95928,-0.39243 -0.39243,-0.39244 -0.39243,-0.95928 0,-0.55595 0.39243,-0.94838 0.39243,-0.40333 0.95928,-0.40333 0.55594,0 0.94838,0.40333 0.40333,0.39243 0.40333,0.94838 0,0.56684 -0.40333,0.95928 -0.39244,0.39243 -0.94838,0.39243 z m 11.48953,-16.34042 q -2.63802,0 -2.95414,3.6627 l -0.0327,0.67585 q 1.85315,-0.13081 2.3982,-0.13081 1.73324,0 1.73324,1.09009 0,0.79576 -0.85027,0.94837 -0.37063,0.0654 -0.87207,0.0545 -0.49054,-0.0218 -2.5072,0.14171 l -0.0872,2.4854 q 0,0.67585 0.0436,2.02756 0.0436,1.35171 0.0436,2.01667 0,2.07116 -0.23982,3.22666 -0.18532,0.87207 -1.01378,0.87207 -0.44694,0 -0.76307,-0.29433 -0.31612,-0.28342 -0.31612,-0.71945 0,-0.0872 0.0218,-0.21802 0.22892,-1.41712 0.22892,-3.08495 l -0.0327,-2.97594 v -3.16126 q -1.36261,0.10901 -1.72234,0.10901 -1.10099,0 -1.10099,-1.05738 0,-1.07919 1.90765,-1.13369 l 1.04649,-0.0327 q 0.0327,-0.61045 0.16351,-1.65693 0.28342,-2.42 1.2209,-3.56459 1.13369,-1.38441 3.54278,-1.38441 1.55883,0 1.55883,1.05739 0,1.04648 -1.41711,1.04648 z m 12.91755,8.96052 q 0,0.78487 0.0109,2.35459 0.0109,1.56973 0.0109,2.35459 0,0.23982 0.0327,0.73036 0.0436,0.49054 0.0436,0.73036 0,0.46874 -0.31612,0.76306 -0.31613,0.30523 -0.77396,0.30523 -0.83937,0 -1.06829,-1.03559 -1.36261,0.70856 -3.13945,0.70856 -1.42802,0 -2.36549,-0.63225 -1.03559,-0.69766 -1.2318,-2.03847 -0.42514,-2.88873 -0.42514,-5.14521 0,-1.49342 0.32703,-3.40107 0.15261,-0.94838 1.03558,-0.94838 0.46874,0 0.78487,0.30522 0.31612,0.29433 0.31612,0.76306 0,0.50145 -0.16351,1.60243 -0.15261,1.10099 -0.15261,1.67874 0,1.82045 0.11991,3.11765 0.1199,1.29721 0.35972,2.08207 0.35973,0.19621 0.70856,0.30522 0.34883,0.0981 0.68676,0.0981 1.46071,0 3.08495,-0.46874 l -0.0109,-2.21287 -0.0218,-2.11478 q 0,-2.35459 0.20712,-4.08783 0.11991,-1.00288 1.05738,-1.00288 0.46874,0 0.78487,0.30523 0.31612,0.30522 0.29432,0.76306 z m 11.07529,7.14008 q -0.93748,0 -1.05739,-1.02468 l -0.30522,-2.3873 q -0.15261,-1.2754 -0.15261,-2.38729 0,-0.30522 0.0327,-1.03558 0.0436,-0.73036 0.0436,-1.03559 0,-2.35459 -0.87207,-2.35459 -1.2209,0 -2.33279,1.44982 -1.00288,1.31901 -1.56972,3.33567 -0.0218,0.42513 -0.0981,1.06829 -0.0654,0.54504 -0.0654,1.05738 0,0.32703 0.0654,0.98108 0.0654,0.65405 0.0654,0.98108 0,0.49054 -0.30523,0.79576 -0.29432,0.30523 -0.76306,0.30523 -0.47964,0 -0.77396,-0.30523 -0.29433,-0.30522 -0.29433,-0.79576 0,-0.32703 -0.0763,-0.98108 -0.0654,-0.65405 -0.0654,-0.98108 0,-1.12279 0.15261,-3.10675 0.16352,-1.99486 0.16352,-3.11765 0,-0.34883 -0.0436,-1.03558 -0.0327,-0.68676 -0.0327,-1.03559 0,-0.46874 0.30523,-0.76306 0.31612,-0.30522 0.77396,-0.30522 1.00288,0 1.10099,1.41711 l 0.0327,1.2754 q 1.83135,-2.44179 3.7608,-2.44179 1.74414,0 2.4309,1.53702 0.46874,1.02468 0.51234,3.03044 v 1.10099 l -0.0109,1.01379 q 0,0.90477 0.22892,2.34368 0.23982,1.42802 0.23982,2.32189 0,0.47964 -0.31613,0.77396 -0.30522,0.30523 -0.77396,0.30523 z" id="text1" aria-label="(c) MagicPencil.fun" /><text xml:space="preserve" id="text3" style="font-style:normal;font-variant:normal;font-weight:normal;font-stretch:normal;font-size:12px;font-family:Arial;-inkscape-font-specification:Arial;text-align:start;writing-mode:lr-tb;direction:ltr;white-space:pre;shape-inside:url(#rect3);display:inline;fill:#000000;stroke-width:5" transform="matrix(4.867969,0,0,4.867969,542.52465,51.423206)"><tspan x="-34.792969" y="100.63913" id="tspan5">Juice</tspan></text><g id="text27" style="font-size:48px;font-family:'Comic Sans MS';-inkscape-font-specification:'Comic Sans MS';white-space:pre;fill:none;stroke:#000000;stroke-width:0.890761" ns2:label="BaseText" transform="matrix(5.4649548,0,0,5.4649548,-85.031275,0.67005549)" aria-label="Jj"><path d="m 42.605469,47.436191 q -0.421875,0 -1.453125,-0.164063 -1.007813,-0.1875 -1.570313,-0.1875 -1.148437,0 -2.695312,0.07031 l 0.117187,2.789062 q 0,17.4375 -2.320312,25.382813 -1.546875,5.25 -5.414063,5.25 -4.078125,0 -8.085937,-2.953125 -4.429688,-3.28125 -4.429688,-7.523438 0,-2.882812 2.367188,-2.882812 2.367187,0 2.367187,2.835937 0,1.945313 2.765625,3.867188 2.648438,1.828125 5.015625,1.828125 1.921875,0 2.671875,-11.789063 0.351563,-5.578125 0.351563,-14.015625 0,-0.65625 -0.117188,-2.53125 l -1.429687,0.02344 q -0.914063,0 -2.765625,-0.04687 -1.828125,-0.07031 -2.765625,-0.07031 -1.03125,0 -1.734375,-0.65625 -0.703125,-0.65625 -0.703125,-1.78125 0,-2.414062 3.257812,-2.414062 0.796875,0 2.367188,0.07031 1.570312,0.07031 2.34375,0.07031 1.476562,0 4.40625,-0.164063 2.953125,-0.1875 4.429687,-0.1875 5.34375,0 5.34375,2.71875 0,0.9375 -0.632812,1.664063 -0.679688,0.796875 -1.6875,0.796875 z" id="path1" /><path style="font-size:33.2551px" d="m 54.055728,57.223446 q -0.779416,0 -1.34774,-0.552087 -0.552087,-0.552086 -0.552087,-1.315265 0,-0.779416 0.552087,-1.331503 0.568324,-0.552087 1.34774,-0.552087 0.779417,0 1.347741,0.552087 0.568325,0.552087 0.568325,1.331503 0,0.763179 -0.568325,1.315265 -0.568324,0.552087 -1.347741,0.552087 z m -0.129902,24.308049 q 0.01624,-1.899827 -0.552087,-9.726467 l -0.552087,-8.947051 q 0,-0.811892 0.45466,-1.445168 0.470897,-0.633276 1.185362,-0.633276 0.552087,0 1.104174,0.405946 0.552086,0.405946 0.584562,0.82813 l 0.535849,9.352997 0.438422,10.002511 q 0,2.25706 -1.347741,4.091936 -1.461406,1.997254 -3.556088,1.997254 -3.491136,0 -5.845623,-5.374725 -0.194854,-0.438422 -0.194854,-0.779417 0,-0.649513 0.503373,-1.120411 0.519611,-0.470897 1.169125,-0.470897 0.958032,0 1.997254,2.110919 0.259806,0.552087 0.90932,1.591309 0.633275,0.811892 1.461405,0.811892 0.714465,0 1.217838,-1.071698 0.389709,-0.811892 0.487136,-1.623784 z" id="path4" /></g><text xml:space="preserve" id="text7" style="font-size:48px;font-family:'Comic Sans MS';-inkscape-font-specification:'Comic Sans MS';text-align:start;writing-mode:lr-tb;direction:ltr;white-space:pre;shape-inside:url(#rect7);display:none;fill:none;stroke:#000000;stroke-width:0.890761;stroke-dasharray:none;stroke-opacity:1" transform="matrix(5.4649548,0,0,5.4649548,-85.031275,0.67005549)" ns2:label="BaseText"><tspan x="14.550781" y="79.294806" id="tspan8"><tspan style="font-family:Arial;-inkscape-font-specification:Arial" id="tspan6">A</tspan><tspan style="font-size:33.2551px" id="tspan7">a</tspan></tspan></text><path style="fill:#000000" d="m 99.923488,91.17279 c -0.314396,-0.152038 -1.109984,-0.684839 -2.651853,-1.77593 -0.487501,-0.344976 -1.013663,-0.716292 -1.169248,-0.825146 -0.155586,-0.108853 -0.43564,-0.30748 -0.622342,-0.441391 -0.186703,-0.133912 -0.560108,-0.397433 -0.82979,-0.585602 -0.570478,-0.398049 -0.700822,-0.490057 -1.81045,-1.277969 -0.456384,-0.324064 -1.016492,-0.719606 -1.244684,-0.878983 -0.923675,-0.645123 -2.41252,-1.699672 -2.998558,-2.123878 -0.731674,-0.529627 -0.849213,-0.668533 -0.882332,-1.042728 -0.02618,-0.295834 -0.05478,-4.192473 -0.0798,-10.872406 -0.01064,-2.842029 -0.02749,-5.506785 -0.03744,-5.92168 -0.01,-0.414895 -0.0268,-3.359705 -0.03745,-6.544023 -0.01065,-3.184317 -0.02769,-6.578911 -0.03788,-7.543541 -0.01019,-0.96463 -0.02725,-4.673224 -0.03793,-8.241319 -0.01067,-3.568095 -0.02649,-7.717986 -0.03515,-9.22198 -0.0099,-1.727786 -0.002,-2.79381 0.02157,-2.895541 0.04363,-0.188294 0.382962,-0.547915 0.57561,-0.610036 0.12499,-0.0403 1.101454,-0.210895 4.322567,-0.755163 1.109843,-0.187529 2.756221,-0.468904 3.658617,-0.625277 1.490208,-0.258233 3.309636,-0.567374 7.317239,-1.24328 0.77792,-0.131202 1.6096,-0.274056 1.84816,-0.317453 0.23857,-0.0434 1.0957,-0.188271 1.90475,-0.321941 0.80904,-0.13367 1.81045,-0.304056 2.22534,-0.378635 0.4149,-0.07458 1.20414,-0.211259 1.75388,-0.303733 2.51929,-0.423786 3.99566,-0.680986 4.01395,-0.699275 0.011,-0.01095 0.0636,-0.324449 0.11696,-0.696653 0.0534,-0.372204 0.12956,-0.871923 0.16929,-1.110488 0.0397,-0.238564 0.14181,-0.917483 0.22683,-1.508708 0.085,-0.591225 0.2306,-1.59263 0.32349,-2.225345 0.0929,-0.632714 0.23673,-1.617147 0.31963,-2.187627 0.24212,-1.666244 0.32348,-2.101588 0.48991,-2.621381 0.38438,-1.200476 0.97267,-2.08341 1.87855,-2.819414 0.47117,-0.38281 1.20332,-0.734964 1.87836,-0.903453 0.47753,-0.119194 1.56752,-0.119817 2.06857,-0.0012 0.39155,0.09271 1.26826,0.439976 4.18616,1.658169 0.62234,0.25982 1.47948,0.615127 1.90475,0.78957 0.42526,0.174443 0.84959,0.350096 0.94294,0.39034 0.59503,0.256517 1.38543,0.585263 2.18582,0.909132 0.50726,0.205255 0.98278,0.415112 1.05672,0.46635 0.33804,0.234266 0.6077,0.62231 0.73725,1.060915 0.0966,0.327215 0.11634,1.013639 0.0405,1.410414 -0.11753,0.614632 -0.45967,1.350446 -0.82725,1.7791 -0.29485,0.343845 -0.40494,0.431457 -0.77908,0.619999 -0.25122,0.126599 -0.32106,0.144317 -0.624,0.15829 -0.39179,0.01807 -0.51039,-0.01673 -1.58248,-0.46437 -0.33192,-0.138587 -0.90051,-0.375264 -1.26355,-0.525949 -0.36303,-0.150686 -1.01153,-0.419898 -1.4411,-0.59825 -0.42958,-0.178352 -0.8539,-0.35728 -0.94294,-0.397616 -0.0891,-0.04034 -0.39104,-0.170913 -0.67109,-0.290169 -0.28006,-0.119255 -0.76379,-0.325897 -1.07496,-0.459203 -0.98285,-0.421056 -2.16029,-0.877927 -2.26257,-0.877927 -0.13302,0 -0.29243,0.08706 -0.40554,0.221484 -0.10126,0.120338 -0.14335,0.305546 -0.31395,1.381518 -0.11474,0.723627 -0.2048,1.342129 -0.357,2.451651 -0.12377,0.902378 -0.11876,0.867487 -0.45284,3.149429 -0.12603,0.860907 -0.23821,1.65015 -0.24928,1.753873 l -0.0201,0.188589 1.21972,0.613312 c 3.30541,1.66206 8.79487,4.450279 9.51762,4.834208 0.40976,0.217669 0.50958,0.288254 0.60749,0.429574 0.0644,0.09301 0.12739,0.23444 0.13988,0.314293 0.0125,0.07985 0.0254,11.661347 0.0288,25.736653 0.006,23.813604 0.002,25.601946 -0.0569,25.742335 -0.0735,0.176351 -0.29169,0.412408 -0.43231,0.467751 -0.10662,0.04196 -1.12325,0.290292 -1.70138,0.415593 -0.19707,0.04271 -0.92691,0.204626 -1.62186,0.359805 -0.69495,0.155179 -1.61149,0.357855 -2.03675,0.450392 -0.42527,0.09254 -1.19754,0.263056 -1.71616,0.378931 -1.59738,0.356902 -2.60212,0.576594 -3.54546,0.775231 -0.49788,0.104837 -1.00707,0.214784 -1.13153,0.244327 -0.12447,0.02954 -0.50636,0.11376 -0.84865,0.187146 -0.34229,0.07339 -1.04667,0.226006 -1.56529,0.339155 -0.51862,0.113148 -1.19753,0.258117 -1.50871,0.322153 -0.31117,0.06404 -0.74398,0.157441 -0.9618,0.207568 -1.11216,0.255942 -2.39313,0.537249 -4.46955,0.98154 -0.62234,0.133162 -1.47099,0.318412 -1.88588,0.411665 -0.4149,0.09325 -1.11079,0.247558 -1.54643,0.342899 -0.43564,0.09534 -0.89391,0.197365 -1.01837,0.226721 -0.12447,0.02936 -0.5488,0.121183 -0.94295,0.204059 -1.17026,0.246067 -1.93436,0.409452 -2.39507,0.512128 -0.96795,0.215722 -1.91238,0.395877 -2.07533,0.395877 -0.12387,0 -0.2593,-0.0418 -0.477862,-0.147493 z m 2.006282,-1.75531 c 0.88649,-0.197847 2.07959,-0.455576 2.9797,-0.643666 0.79855,-0.166867 1.06268,-0.224458 2.30078,-0.501653 0.37341,-0.0836 1.35784,-0.299479 2.18763,-0.479729 0.82979,-0.180249 2.31492,-0.504224 3.3003,-0.719942 2.16904,-0.474848 2.35803,-0.515947 3.79063,-0.824337 0.62234,-0.13397 1.50493,-0.327265 1.96132,-0.429546 1.03565,-0.232101 2.62894,-0.580768 3.3003,-0.722222 0.53211,-0.112115 0.98205,-0.211313 1.86702,-0.411618 0.29043,-0.06573 0.92691,-0.205259 1.41442,-0.310051 0.4875,-0.104793 1.07306,-0.231823 1.30126,-0.28229 0.22819,-0.05047 0.49127,-0.107114 0.58462,-0.125882 0.0934,-0.01877 0.63649,-0.138019 1.20697,-0.265001 0.57048,-0.126981 1.23939,-0.272413 1.48647,-0.323181 0.24709,-0.05077 0.51017,-0.10871 0.58463,-0.12876 l 0.13538,-0.03645 -0.009,-24.743902 c -0.005,-13.998517 -0.0237,-24.743902 -0.0423,-24.743902 -0.018,0 -0.506,0.08517 -1.08433,0.189269 -0.57833,0.104098 -1.62859,0.290864 -2.33392,0.415034 -0.70532,0.124171 -1.66429,0.293576 -2.13105,0.376455 -0.46675,0.08288 -1.15416,0.20214 -1.52756,0.265023 -0.37341,0.06288 -1.09476,0.189093 -1.60301,0.280467 -0.50824,0.09137 -1.17019,0.209453 -1.47099,0.262397 -0.30079,0.05294 -1.13247,0.1993 -1.84816,0.325234 -0.7157,0.125935 -1.70013,0.296544 -2.18763,0.379131 -0.4875,0.08259 -1.1616,0.200754 -1.49801,0.262594 -0.58993,0.108447 -2.33216,0.412582 -4.85742,0.847944 -0.66383,0.114446 -1.47005,0.257957 -1.79159,0.318912 -0.32155,0.06095 -1.07684,0.195094 -1.67844,0.298086 -0.6016,0.102991 -1.58603,0.274538 -2.18763,0.381215 -0.6016,0.106677 -1.44176,0.252434 -1.86703,0.323906 -0.42526,0.07147 -0.86278,0.147895 -0.97225,0.16983 l -0.19903,0.03988 0.0198,5.6642 c 0.0367,10.470127 0.0573,17.600642 0.0799,27.672482 0.0124,5.507729 0.0277,10.200755 0.0341,10.428947 0.006,0.228192 0.0132,1.888443 0.0153,3.689447 0.004,3.099737 0.007,3.273534 0.0698,3.255459 0.0363,-0.0105 0.33758,-0.0797 0.66949,-0.153778 z m 10.5421,-14.017475 c -1.49443,-0.19236 -2.81005,-0.89243 -4.18933,-2.229228 -1.02162,-0.990154 -2.11744,-2.541332 -2.90744,-4.115591 -0.75717,-1.508832 -1.3584,-3.373232 -1.61395,-5.004806 -0.19421,-1.239945 -0.22357,-2.749251 -0.0774,-3.979218 0.15932,-1.340653 0.66247,-2.893414 1.30163,-4.016936 0.95492,-1.678542 2.37678,-2.90492 3.99734,-3.447754 0.76794,-0.257235 1.86655,-0.393081 2.64257,-0.326764 0.79928,0.06831 1.10321,0.143782 2.87391,0.713692 0.33178,0.106787 0.57519,0.167553 0.57519,0.143594 0,-0.08716 -0.23017,-1.114163 -0.31832,-1.420304 -0.30094,-1.045186 -0.46544,-1.481086 -0.82556,-2.187627 -0.2841,-0.55738 -0.61679,-1.092053 -0.98202,-1.57819 -0.28109,-0.374139 -0.34132,-0.550527 -0.28388,-0.831378 0.094,-0.459429 0.6779,-0.646147 1.066,-0.340865 0.23724,0.186616 0.99384,1.294655 1.34859,1.975023 l 0.21519,0.412698 0.0631,-0.224109 c 0.0347,-0.123261 0.085,-0.300488 0.11179,-0.393839 0.15807,-0.551191 0.49393,-1.26589 0.8328,-1.772177 0.23485,-0.350864 0.79303,-1.00321 1.09293,-1.277297 1.1156,-1.019602 2.56814,-1.690299 4.07252,-1.88045 0.56922,-0.07195 0.72237,-0.05344 0.90826,0.109776 0.25151,0.220834 0.28549,0.340277 0.28314,0.995299 -0.002,0.658196 -0.0872,1.300974 -0.26428,2.00237 -0.14182,0.561766 -0.25179,0.857179 -0.53101,1.426443 -0.56757,1.157138 -1.33782,2.004691 -2.47933,2.728149 -0.78186,0.495516 -1.82359,0.841227 -2.9238,0.970295 -0.12112,0.01421 -0.21711,0.04434 -0.2174,0.06824 -2.8e-4,0.02354 0.0445,0.275404 0.0995,0.559696 l 0.10002,0.516896 0.11738,-0.05996 c 0.10358,-0.05292 0.39423,-0.230291 1.52198,-0.928815 1.03106,-0.638639 2.05278,-0.976123 3.28081,-1.083687 1.57952,-0.138351 3.23727,0.434743 4.39086,1.517946 1.22755,1.152644 2.04841,2.938085 2.37212,5.159524 0.28376,1.947377 0.13372,4.113481 -0.45721,6.600599 -0.13826,0.581914 -0.5897,2.050527 -0.81739,2.659099 -0.82243,2.198217 -2.01113,4.244651 -3.17036,5.458002 -0.74355,0.778264 -1.72712,1.455046 -2.55862,1.760549 -0.51554,0.189417 -0.83643,0.24216 -1.46512,0.240807 -0.59331,-0.0013 -0.94898,-0.05114 -1.82931,-0.256468 -0.7154,-0.166862 -1.06971,-0.09751 -1.88564,0.369073 -1.12589,0.643841 -1.75622,0.884794 -2.53527,0.969154 -0.41088,0.04449 -0.58004,0.04423 -0.935,-0.0015 z m 0.9898,-1.371412 c 0.47887,-0.08538 0.85333,-0.231704 1.46621,-0.57293 1.0719,-0.596788 1.36593,-0.721862 1.89928,-0.8079 0.44263,-0.0714 0.89049,-0.02778 1.56639,0.15256 1.21758,0.324873 2.0166,0.237053 2.94398,-0.323569 0.9124,-0.551575 1.56605,-1.218752 2.37997,-2.429258 1.07296,-1.595766 1.90226,-3.497884 2.54069,-5.827386 0.41288,-1.506565 0.65366,-3.473348 0.6095,-4.978737 -0.0401,-1.366848 -0.25336,-2.60336 -0.61208,-3.548879 -0.55225,-1.455612 -1.48783,-2.534983 -2.63816,-3.043644 -0.61536,-0.272105 -1.12568,-0.377329 -1.82931,-0.377193 -1.14751,2.22e-4 -2.07975,0.315164 -3.45117,1.165914 -1.06502,0.660683 -1.54982,0.902101 -2.07447,1.033031 -0.29634,0.07395 -0.40175,0.082 -0.82979,0.06337 -0.55277,-0.02406 -0.87367,-0.0994 -1.95398,-0.458719 -1.41643,-0.471115 -2.24381,-0.565135 -3.3265,-0.378008 -1.30148,0.224943 -2.51706,1.003121 -3.41144,2.183905 -0.45676,0.603023 -0.87812,1.389622 -1.1878,2.217385 -0.18,0.481128 -0.40715,1.486421 -0.51817,2.29323 -0.0666,0.484068 -0.0659,2.299686 0.001,2.847687 0.19905,1.627225 0.73465,3.440275 1.46521,4.959878 0.66602,1.385343 1.30692,2.382274 2.1823,3.394594 1.51982,1.757566 3.34882,2.689517 4.77816,2.434671 z m 2.00876,-6.304375 c -0.62604,-0.110887 -1.14151,-0.307463 -1.68049,-0.640868 -0.51978,-0.321519 -1.0977,-0.875878 -1.28275,-1.230446 -0.17553,-0.336327 -0.0192,-0.770857 0.33122,-0.920803 0.30652,-0.131153 0.57357,-0.02308 0.93169,0.377062 0.33057,0.36935 0.63173,0.59661 1.06362,0.80262 0.5127,0.244559 0.87519,0.325174 1.4665,0.326142 0.54128,8.87e-4 0.83099,-0.05 1.33797,-0.23503 0.85816,-0.313188 1.51597,-0.956932 2.03234,-1.988883 0.10235,-0.204532 0.14127,-0.244624 0.32455,-0.334291 0.16546,-0.08096 0.2371,-0.09647 0.34872,-0.07553 0.1971,0.03698 0.32084,0.108122 0.45622,0.262318 0.23403,0.266542 0.20353,0.536642 -0.1266,1.121305 -0.94414,1.672042 -2.53124,2.606065 -4.40643,2.593238 -0.27215,-0.0019 -0.6306,-0.02743 -0.79656,-0.05683 z m -5.49985,-4.897732 c -0.50521,-0.180179 -0.58718,-0.809403 -0.20754,-1.593075 0.54003,-1.114731 1.83574,-1.603817 2.86855,-1.082775 0.32599,0.164456 0.51187,0.31742 0.72652,0.59785 0.46165,0.603114 0.55034,1.106735 0.25642,1.45604 -0.21455,0.25497 -0.56983,0.313574 -0.83544,0.137803 -0.1191,-0.07882 -0.18426,-0.16869 -0.30204,-0.416595 -0.23441,-0.493402 -0.49519,-0.674187 -0.88391,-0.61277 -0.35066,0.0554 -0.63868,0.387936 -0.70924,0.818846 -0.0216,0.132073 -0.0572,0.286886 -0.079,0.34403 -0.0543,0.142323 -0.2629,0.317571 -0.43479,0.365306 -0.18001,0.04999 -0.22269,0.04842 -0.39956,-0.01466 z m 9.41214,-1.421269 c -0.0679,-0.0435 -0.16553,-0.150785 -0.21688,-0.238414 -0.25331,-0.432236 0.0154,-1.379671 0.54783,-1.931405 0.22563,-0.23382 0.55124,-0.441238 0.86032,-0.548034 0.33815,-0.116837 1.0117,-0.124638 1.32731,-0.01537 0.51009,0.176594 0.93249,0.55541 1.20641,1.08192 0.20375,0.391634 0.24539,0.719649 0.12192,0.960488 -0.18552,0.361856 -0.50763,0.482429 -0.86059,0.322133 -0.17857,-0.0811 -0.28037,-0.209724 -0.39333,-0.496979 -0.16361,-0.416063 -0.38041,-0.600029 -0.7074,-0.600261 -0.48036,-3.4e-4 -0.75462,0.285172 -0.87621,0.912187 -0.0516,0.265794 -0.16414,0.437707 -0.35895,0.548039 -0.19786,0.112068 -0.48046,0.114544 -0.65043,0.0057 z m -2.19614,-11.062655 c 0.38217,-0.09782 0.71123,-0.210503 1.00784,-0.345128 0.37061,-0.168206 1.02568,-0.619499 1.36422,-0.939842 0.593,-0.56112 1.15891,-1.479718 1.45298,-2.358537 0.13641,-0.40766 0.28617,-1.200996 0.28619,-1.516015 l 0,-0.178216 -0.12258,0.02195 c -1.62223,0.290547 -3.18729,1.424489 -3.97554,2.880422 -0.34449,0.636289 -0.61728,1.553834 -0.67935,2.285018 l -0.0227,0.26712 0.22187,-0.02701 c 0.12203,-0.01486 0.3322,-0.05525 0.46704,-0.08976 z M 99.670961,88.821485 c -0.01176,-0.171144 -0.0303,-2.755278 -0.04119,-5.742521 -0.0109,-2.987242 -0.02824,-7.179566 -0.03854,-9.316274 -0.0247,-5.122013 -0.05101,-13.105186 -0.07993,-24.252486 -0.01297,-4.999482 -0.02601,-9.093069 -0.02898,-9.096859 -0.003,-0.0038 -0.179494,0.216858 -0.392271,0.49033 -0.212778,0.273472 -0.565864,0.726357 -0.784636,1.006411 -0.218773,0.280054 -0.515336,0.661946 -0.659029,0.848648 -0.143694,0.186703 -0.441145,0.568595 -0.661002,0.848649 -0.219858,0.280054 -0.502767,0.644973 -0.628686,0.81093 -0.12592,0.165958 -0.281327,0.361982 -0.345348,0.435609 -0.06402,0.07363 -0.252185,0.30906 -0.418143,0.523185 -0.573333,0.739736 -1.08772,1.379875 -1.147238,1.427701 -0.284378,0.228518 -0.639089,0.262901 -0.913948,0.08859 -0.09417,-0.05972 -0.20644,-0.165799 -0.249499,-0.235736 -0.07436,-0.120773 -0.423849,-0.912286 -0.423849,-0.959915 0,-0.01239 -0.07832,-0.22046 -0.174037,-0.462388 -0.258926,-0.654418 -0.795899,-2.021655 -0.920831,-2.344613 -0.06019,-0.155585 -0.238688,-0.613855 -0.396671,-1.018378 -0.308258,-0.78931 -0.624397,-1.612154 -1.036123,-2.696816 -0.14174,-0.373405 -0.349816,-0.91654 -0.462391,-1.206967 -0.451163,-1.163937 -0.699809,-1.820104 -0.761083,-2.008468 -0.03543,-0.108909 -0.07391,-0.198017 -0.08552,-0.198017 -0.01161,0 -0.01032,1.939161 0.0029,4.309248 0.01318,2.370086 0.03263,7.389842 0.04321,11.155012 0.01058,3.76517 0.02748,8.152682 0.03755,9.750027 0.01007,1.597345 0.02903,5.552047 0.04215,8.788226 0.01311,3.23618 0.02893,5.951855 0.03515,6.034834 0.0062,0.08298 0.01299,1.470519 0.01506,3.083422 0.0021,1.627524 0.0183,2.932552 0.03646,2.932552 0.03346,0 1.205021,0.818064 2.719008,1.898599 0.466757,0.333125 0.992919,0.707243 1.169249,0.831373 0.677797,0.477146 2.10934,1.481546 2.451651,1.720128 0.197075,0.137356 0.536534,0.377435 0.754354,0.533508 0.21782,0.156074 0.930684,0.663101 1.584143,1.126729 0.65346,0.463627 1.298432,0.923712 1.433273,1.022411 0.134841,0.0987 0.267905,0.180586 0.295698,0.18197 0.03999,0.002 0.04607,-0.06243 0.02915,-0.308654 z M 94.77441,43.90769 c 0.04396,-0.07039 0.229225,-0.308942 0.969658,-1.248552 0.244386,-0.310125 1.345339,-1.713394 2.363193,-3.012115 0.682327,-0.870607 0.942934,-1.213821 0.930154,-1.224994 -0.02123,-0.01857 -1.760471,-1.051325 -2.671004,-1.586046 -0.487502,-0.28629 -0.992746,-0.585628 -1.122766,-0.665194 -0.13002,-0.07957 -0.242066,-0.144666 -0.24899,-0.144666 -0.0069,0 -0.02418,0.335217 -0.03834,0.744925 -0.01416,0.409709 -0.05051,1.338979 -0.08078,2.065045 -0.04968,1.191772 -0.09185,2.253603 -0.149783,3.771771 -0.01108,0.290426 -0.02959,0.718993 -0.04112,0.952372 -0.02084,0.421794 -0.0021,0.494503 0.08978,0.347454 z m -1.350779,-1.544992 c 3.47e-4,-0.38633 0.0372,-1.322404 0.190049,-4.827866 0.04116,-0.943886 0.07482,-1.837404 0.0748,-1.985596 l -2.8e-5,-0.269441 -0.631772,-0.36836 c -0.702173,-0.409408 -1.326236,-0.776993 -1.612432,-0.949753 -0.103724,-0.06261 -0.477129,-0.280905 -0.829789,-0.485095 -0.352661,-0.20419 -0.74241,-0.434643 -0.866109,-0.512117 -0.123699,-0.07747 -0.230964,-0.134806 -0.238367,-0.127404 -0.0074,0.0074 0.01937,0.07875 0.0595,0.158556 0.04013,0.0798 0.210368,0.510016 0.37831,0.956028 0.167942,0.446011 0.417758,1.099471 0.555147,1.452131 0.351613,0.902543 0.582849,1.506284 0.910107,2.376216 0.156078,0.414895 0.392435,1.029996 0.525236,1.366892 0.132802,0.336896 0.241457,0.621818 0.241457,0.633159 0,0.01134 0.125901,0.338239 0.279779,0.72644 0.410921,1.036662 0.798895,2.042988 0.851884,2.209612 0.07174,0.225589 0.111815,0.09939 0.112223,-0.353402 z m 8.996469,-5.355609 c 0.85054,-0.145121 1.82648,-0.31406 2.16877,-0.37542 0.34229,-0.06136 0.95332,-0.170987 1.35784,-0.243616 0.40452,-0.07263 1.17679,-0.207832 1.71615,-0.300451 2.05582,-0.353026 4.10068,-0.711637 4.79015,-0.840059 0.39415,-0.07342 1.2428,-0.22435 1.88589,-0.33541 2.80423,-0.484286 4.47703,-0.777535 4.82786,-0.846345 0.34327,-0.06733 0.58279,-0.110616 1.88589,-0.340835 0.22819,-0.04031 0.61008,-0.10793 0.84865,-0.150255 0.23856,-0.04233 0.92654,-0.1611 1.52884,-0.263942 2.13668,-0.364839 2.42772,-0.415199 3.80821,-0.658965 0.76756,-0.135534 1.40404,-0.246941 1.41442,-0.247573 0.0252,-0.0015 -0.81653,-0.439011 -2.26307,-1.176176 -0.65346,-0.333007 -1.40023,-0.71499 -1.65949,-0.848852 -0.55967,-0.288969 -0.3416,-0.291961 -2.11228,0.02897 -0.6742,0.122199 -1.56528,0.280558 -1.98018,0.351909 -0.41489,0.07135 -0.79871,0.14691 -0.85292,0.167909 -0.0894,0.03462 -0.10103,0.0632 -0.12499,0.306362 -0.043,0.436292 -0.11735,0.629016 -0.32146,0.833126 -0.55874,0.55874 -1.95276,0.820547 -3.21357,0.603532 -0.69811,-0.12016 -1.15767,-0.316639 -1.52425,-0.651676 -0.10824,-0.09893 -0.23057,-0.179868 -0.27184,-0.179868 -0.0839,0 -2.80899,0.475176 -5.94922,1.037383 -0.51862,0.09285 -1.48608,0.262956 -2.14991,0.378012 -0.66383,0.115057 -1.47853,0.25908 -1.81045,0.320051 -0.33192,0.06097 -0.95992,0.171196 -1.39555,0.244944 -0.43564,0.07375 -1.30127,0.226138 -1.92361,0.338645 -0.62234,0.112507 -1.572826,0.282711 -2.112189,0.378231 -0.539363,0.09552 -1.302072,0.232089 -1.694908,0.303488 -0.392836,0.0714 -0.761998,0.129816 -0.82036,0.129816 -0.05836,0 -0.106112,0.01528 -0.106112,0.03396 0,0.0328 0.465272,0.313451 1.350631,0.81469 0.109927,0.06223 0.69541,0.408206 1.301073,0.768825 1.396155,0.831286 1.320765,0.797131 1.619295,0.73367 0.12995,-0.02762 0.93216,-0.16896 1.78269,-0.314082 z m -7.197325,-3.149277 c 0.307456,-0.05404 1.0682,-0.190094 1.690542,-0.302338 0.622342,-0.112243 1.632234,-0.290552 2.244204,-0.396242 0.611969,-0.10569 1.375749,-0.24141 1.697299,-0.301601 0.32154,-0.06019 1.02592,-0.186082 1.56528,-0.27976 0.53937,-0.09368 1.11645,-0.194194 1.2824,-0.223371 0.16596,-0.02918 0.94672,-0.16626 1.73502,-0.30463 0.7883,-0.138371 1.90003,-0.335083 2.47051,-0.437139 1.76496,-0.315742 4.02413,-0.708716 5.97825,-1.039894 0.53151,-0.09008 0.50379,-0.07878 0.52562,-0.214103 0.0108,-0.06725 0.0793,-0.521143 0.15209,-1.008645 0.0728,-0.487501 0.16651,-1.105133 0.20823,-1.372515 0.099,-0.634663 0.10158,-0.60349 -0.0467,-0.573184 -0.12417,0.02538 -2.34405,0.403467 -5.78024,0.984496 -1.03723,0.175387 -2.63269,0.446069 -3.54546,0.601516 -0.91277,0.155446 -2.45731,0.418462 -3.43231,0.58448 -1.971021,0.335614 -4.578454,0.779892 -6.864623,1.169654 -0.829789,0.141469 -2.196113,0.371385 -3.036275,0.510925 -0.840162,0.13954 -1.55649,0.264375 -1.591841,0.277412 -0.0746,0.02751 0.19352,0.190433 2.742231,1.666276 0.311171,0.180186 0.743982,0.43187 0.961802,0.559299 0.217819,0.12743 0.416048,0.224025 0.440508,0.214656 0.02446,-0.0094 0.296027,-0.06125 0.603483,-0.115292 z M 117.7357,31.331029 c 0.16045,-0.0307 0.29919,-0.06328 0.30831,-0.0724 0.0201,-0.02013 0.23278,-1.392172 0.5384,-3.473825 0.12487,-0.850534 0.27721,-1.877399 0.33853,-2.281921 0.0613,-0.404522 0.23019,-1.575657 0.37527,-2.602522 0.14508,-1.026864 0.35005,-2.459949 0.45549,-3.184631 0.10544,-0.724683 0.18669,-1.350348 0.18056,-1.390366 -0.008,-0.0543 -0.0973,-0.103631 -0.3506,-0.194414 -0.3947,-0.141448 -1.2698,-0.541887 -1.49529,-0.684228 -0.18312,-0.115599 -0.20041,-0.100518 -0.23506,0.205013 -0.0133,0.117321 -0.0575,0.425474 -0.0983,0.684783 -0.0407,0.25931 -0.12626,0.836391 -0.19005,1.282403 -0.0638,0.446011 -0.20897,1.43893 -0.32262,2.206485 -0.11365,0.767556 -0.29136,1.98961 -0.39491,2.715675 -0.10355,0.726066 -0.22125,1.506823 -0.26155,1.735015 -0.0403,0.228192 -0.1852,1.204138 -0.32199,2.168768 -0.1368,0.964631 -0.28173,1.957549 -0.32209,2.206486 -0.0404,0.248937 -0.0734,0.473232 -0.0734,0.498433 -3e-5,0.196551 1.18744,0.311693 1.86923,0.181246 z m 3.12836,-1.944732 c 0.3734,-0.06454 0.83159,-0.146442 1.0182,-0.182004 l 0.33928,-0.06466 -0.75418,-0.391525 c -1.11381,-0.57823 -1.31534,-0.680421 -1.34185,-0.680421 -0.0248,0 -0.0691,0.253196 -0.16661,0.953514 -0.0804,0.577123 -0.0843,0.5535 0.0848,0.514807 0.0778,-0.0178 0.44695,-0.08517 0.82036,-0.149711 z m 10.72963,-10.172842 c 0.37863,-0.390853 0.60289,-0.978401 0.60398,-1.582369 8.5e-4,-0.471779 -0.0926,-0.600692 -0.30118,-0.415353 -0.46412,0.412448 -0.78593,1.198195 -0.74595,1.821292 0.0295,0.460057 0.12974,0.499956 0.44315,0.17643 z m -1.75382,-0.546907 c 0.0106,-0.04668 0.0365,-0.197913 0.0575,-0.336084 0.0752,-0.494328 0.31299,-1.109548 0.58519,-1.513749 0.0718,-0.106531 0.1171,-0.207038 0.10079,-0.223349 -0.0163,-0.01631 -0.31733,-0.146788 -0.66894,-0.28995 -0.88682,-0.361088 -1.98075,-0.81683 -2.17458,-0.905953 -0.0891,-0.04097 -0.45902,-0.196161 -0.82205,-0.344878 -0.36303,-0.148717 -0.72795,-0.301823 -0.81093,-0.340235 -0.23683,-0.109634 -1.29315,-0.544076 -2.0179,-0.829925 -0.36303,-0.143184 -0.71098,-0.284894 -0.77321,-0.314911 -0.24,-0.115759 -0.67058,-0.285168 -0.72479,-0.285168 -0.049,0 -0.0534,0.0685 -0.0316,0.499759 0.0228,0.451401 0.0882,1.191203 0.15683,1.77456 0.0229,0.194749 0.0386,0.225468 0.14292,0.28045 0.1163,0.06128 0.92474,0.402346 1.28642,0.542709 0.10372,0.04025 0.22253,0.08844 0.26402,0.107076 0.0415,0.01864 0.17728,0.07676 0.30175,0.12917 0.12446,0.05241 0.45544,0.191795 0.73549,0.309753 0.28005,0.117958 0.61951,0.260571 0.75435,0.316917 0.13485,0.05635 0.32155,0.136745 0.4149,0.178662 0.0934,0.04192 0.48373,0.206727 0.86751,0.366242 0.77806,0.323396 1.61792,0.675413 2.01789,0.845775 0.32348,0.137777 0.31486,0.136934 0.33846,0.03313 z m -9.51033,-1.769297 c 0.0281,-0.04457 -0.0316,-0.14937 -0.25673,-0.450368 -0.26839,-0.358901 -0.47051,-0.658217 -1.03531,-1.533247 -0.11047,-0.171144 -0.21144,-0.310551 -0.22438,-0.309793 -0.0345,0.002 -0.20332,0.280681 -0.35342,0.583247 -0.16033,0.323194 -0.30664,0.757277 -0.27928,0.82859 0.0111,0.02898 0.12728,0.102904 0.25812,0.164268 0.13084,0.06137 0.44157,0.209049 0.69051,0.328188 0.50604,0.242185 1.0755,0.472926 1.12883,0.457395 0.0193,-0.0056 0.0515,-0.03633 0.0717,-0.06828 z m 1.08791,-1.303813 c -0.0424,-0.279342 -0.14583,-1.655943 -0.16649,-2.216798 l -0.01,-0.264024 -0.11316,0.01052 c -0.43907,0.04084 -1.33898,0.397046 -1.33898,0.530007 0,0.01441 0.157,0.267967 0.34889,0.563456 0.19189,0.295488 0.39422,0.609269 0.44962,0.697292 0.13376,0.212513 0.5485,0.76992 0.68796,0.924602 0.16011,0.177595 0.19655,0.114667 0.14188,-0.245059 z" id="path2" transform="matrix(4.867969,0,0,4.867969,-59.449507,42.184767)" /></g></svg>