<?xml version='1.0' encoding='utf-8'?>
<svg xmlns="http://www.w3.org/2000/svg" xmlns:ns1="http://sodipodi.sourceforge.net/DTD/sodipodi-0.dtd" xmlns:ns2="http://www.inkscape.org/namespaces/inkscape" viewBox="0 0 158.75 119.0625" version="1.1" id="svg1" ns1:docname="J.svg" ns2:version="1.4.2 (f4327f4, 2025-05-13)" xml:space="preserve"><ns1:namedview id="namedview1" pagecolor="#ffffff" bordercolor="#000000" borderopacity="0.25" ns2:showpageshadow="2" ns2:pageopacity="0.0" ns2:pagecheckerboard="0" ns2:deskcolor="#d1d1d1" ns2:zoom="2.2355556" ns2:cx="74.701788" ns2:cy="52.559641" ns2:window-width="1366" ns2:window-height="705" ns2:window-x="-8" ns2:window-y="-8" ns2:window-maximized="1" ns2:current-layer="svg1" /><defs id="defs1"><rect x="-34.793027" y="89.829271" width="65.790448" height="16.447613" id="rect3" /><rect x="14.549811" y="36.058228" width="60.729648" height="58.515546" id="rect2" /><clipPath clipPathUnits="userSpaceOnUse" id="clipPath3"><path d="M 0,500 H 500 V 0 H 0 Z" transform="translate(-432.53711,-135.74711)" id="path3" /></clipPath><clipPath clipPathUnits="userSpaceOnUse" id="clipPath5"><path d="M 0,500 H 500 V 0 H 0 Z" transform="translate(-151.34181,-199.4336)" id="path5" /></clipPath><clipPath clipPathUnits="userSpaceOnUse" id="clipPath7"><path d="M 0,500 H 500 V 0 H 0 Z" transform="translate(-151.34181,-199.4336)" id="path7" /></clipPath><clipPath clipPathUnits="userSpaceOnUse" id="clipPath9"><path d="M 0,500 H 500 V 0 H 0 Z" transform="translate(-182.0161,-196.83011)" id="path9" /></clipPath><clipPath clipPathUnits="userSpaceOnUse" id="clipPath11"><path d="M 0,500 H 500 V 0 H 0 Z" transform="translate(-270.2578,-262.13381)" id="path11" /></clipPath><clipPath clipPathUnits="userSpaceOnUse" id="clipPath13"><path d="M 0,500 H 500 V 0 H 0 Z" transform="translate(-270.2578,-262.13381)" id="path13" /></clipPath><clipPath clipPathUnits="userSpaceOnUse" id="clipPath15"><path d="M 0,500 H 500 V 0 H 0 Z" transform="translate(-270.73731,-316.68121)" id="path15" /></clipPath><clipPath clipPathUnits="userSpaceOnUse" id="clipPath17"><path d="M 0,500 H 500 V 0 H 0 Z" transform="translate(-243.895,-297.82131)" id="path17" /></clipPath><clipPath clipPathUnits="userSpaceOnUse" id="clipPath19"><path d="M 0,500 H 500 V 0 H 0 Z" transform="translate(-243.895,-297.82131)" id="path19" /></clipPath><clipPath clipPathUnits="userSpaceOnUse" id="clipPath21"><path d="M 0,500 H 500 V 0 H 0 Z" transform="translate(-227.96341,-327.47461)" id="path21" /></clipPath><clipPath clipPathUnits="userSpaceOnUse" id="clipPath23"><path d="M 0,500 H 500 V 0 H 0 Z" transform="translate(-150.6709,-325.02691)" id="path23" /></clipPath><clipPath clipPathUnits="userSpaceOnUse" id="clipPath25"><path d="M 0,500 H 500 V 0 H 0 Z" transform="translate(-150.6709,-325.02691)" id="path25" /></clipPath><clipPath clipPathUnits="userSpaceOnUse" id="clipPath27"><path d="M 0,500 H 500 V 0 H 0 Z" transform="translate(-115.0161,-334.36131)" id="path27" /></clipPath><clipPath clipPathUnits="userSpaceOnUse" id="clipPath29"><path d="M 0,500 H 500 V 0 H 0 Z" transform="translate(-104.1924,-244.44141)" id="path29" /></clipPath><clipPath clipPathUnits="userSpaceOnUse" id="clipPath31"><path d="M 0,500 H 500 V 0 H 0 Z" transform="translate(-104.1924,-244.44141)" id="path31" /></clipPath><clipPath clipPathUnits="userSpaceOnUse" id="clipPath33"><path d="M 0,500 H 500 V 0 H 0 Z" transform="translate(-79.019004,-177.8154)" id="path33" /></clipPath><clipPath clipPathUnits="userSpaceOnUse" id="clipPath35"><path d="M 0,500 H 500 V 0 H 0 Z" transform="translate(-105.8481,-187.5293)" id="path35" /></clipPath><clipPath clipPathUnits="userSpaceOnUse" id="clipPath37"><path d="M 0,500 H 500 V 0 H 0 Z" transform="translate(-120.3486,-245.5713)" id="path37" /></clipPath><clipPath clipPathUnits="userSpaceOnUse" id="clipPath39"><path d="M 0,500 H 500 V 0 H 0 Z" transform="translate(-43.031301,-294.82521)" id="path39" /></clipPath><clipPath clipPathUnits="userSpaceOnUse" id="clipPath41"><path d="M 0,500 H 500 V 0 H 0 Z" transform="translate(-140.2095,-138.87791)" id="path41" /></clipPath><clipPath clipPathUnits="userSpaceOnUse" id="clipPath43"><path d="M 0,500 H 500 V 0 H 0 Z" transform="translate(-140.2095,-138.87791)" id="path43" /></clipPath><clipPath clipPathUnits="userSpaceOnUse" id="clipPath45"><path d="M 0,500 H 500 V 0 H 0 Z" transform="translate(-131.71041,-136.21781)" id="path45" /></clipPath><clipPath clipPathUnits="userSpaceOnUse" id="clipPath47"><path d="M 0,500 H 500 V 0 H 0 Z" transform="translate(-95.863802,-329.88091)" id="path47" /></clipPath><clipPath clipPathUnits="userSpaceOnUse" id="clipPath49"><path d="M 0,500 H 500 V 0 H 0 Z" transform="translate(-99.722702,-346.67581)" id="path49" /></clipPath><clipPath clipPathUnits="userSpaceOnUse" id="clipPath51"><path d="M 0,500 H 500 V 0 H 0 Z" transform="translate(-99.596702,-349.59371)" id="path51" /></clipPath><clipPath clipPathUnits="userSpaceOnUse" id="clipPath53"><path d="M 0,500 H 500 V 0 H 0 Z" transform="translate(-75.429699,-348.79931)" id="path53" /></clipPath><clipPath clipPathUnits="userSpaceOnUse" id="clipPath55"><path d="M 0,500 H 500 V 0 H 0 Z" transform="translate(-52.736801,-378.31591)" id="path55" /></clipPath><clipPath clipPathUnits="userSpaceOnUse" id="clipPath57"><path d="M 0,500 H 500 V 0 H 0 Z" transform="translate(-71.700202,-397.00241)" id="path57" /></clipPath><clipPath clipPathUnits="userSpaceOnUse" id="clipPath59"><path d="M 0,500 H 500 V 0 H 0 Z" transform="translate(-49.381801,-362.78271)" id="path59" /></clipPath><clipPath clipPathUnits="userSpaceOnUse" id="clipPath61"><path d="M 0,500 H 500 V 0 H 0 Z" transform="translate(-75.429699,-348.79931)" id="path61" /></clipPath><clipPath clipPathUnits="userSpaceOnUse" id="clipPath63"><path d="M 0,500 H 500 V 0 H 0 Z" transform="translate(-52.736801,-378.31591)" id="path63" /></clipPath><clipPath clipPathUnits="userSpaceOnUse" id="clipPath65"><path d="M 0,500 H 500 V 0 H 0 Z" transform="translate(-87.7402,-374.77391)" id="path65" /></clipPath><clipPath clipPathUnits="userSpaceOnUse" id="clipPath67"><path d="M 0,500 H 500 V 0 H 0 Z" transform="translate(-90.202105,-372.51071)" id="path67" /></clipPath><clipPath clipPathUnits="userSpaceOnUse" id="clipPath69"><path d="M 0,500 H 500 V 0 H 0 Z" transform="translate(-43.860801,-338.97661)" id="path69" /></clipPath><clipPath clipPathUnits="userSpaceOnUse" id="clipPath71"><path d="M 0,500 H 500 V 0 H 0 Z" transform="translate(-62.706502,-345.08251)" id="path71" /></clipPath><clipPath clipPathUnits="userSpaceOnUse" id="clipPath73"><path d="M 0,500 H 500 V 0 H 0 Z" transform="translate(-32.944801,-364.06201)" id="path73" /></clipPath><clipPath clipPathUnits="userSpaceOnUse" id="clipPath75"><path d="M 0,500 H 500 V 0 H 0 Z" transform="translate(-32.363801,-386.02201)" id="path75" /></clipPath><clipPath clipPathUnits="userSpaceOnUse" id="clipPath77"><path d="M 0,500 H 500 V 0 H 0 Z" transform="translate(-42.559601,-382.52731)" id="path77" /></clipPath><clipPath clipPathUnits="userSpaceOnUse" id="clipPath79"><path d="M 0,500 H 500 V 0 H 0 Z" transform="translate(-72.010702,-416.37261)" id="path79" /></clipPath><clipPath clipPathUnits="userSpaceOnUse" id="clipPath81"><path d="M 0,500 H 500 V 0 H 0 Z" transform="translate(-88.275902,-375.45461)" id="path81" /></clipPath><clipPath clipPathUnits="userSpaceOnUse" id="clipPath83"><path d="M 0,500 H 500 V 0 H 0 Z" transform="translate(-125.0845,-367.83841)" id="path83" /></clipPath><clipPath clipPathUnits="userSpaceOnUse" id="clipPath85"><path d="M 0,500 H 500 V 0 H 0 Z" transform="translate(-88.761205,-375.09231)" id="path85" /></clipPath><clipPath clipPathUnits="userSpaceOnUse" id="clipPath87"><path d="M 0,500 H 500 V 0 H 0 Z" transform="translate(-125.2983,-381.78861)" id="path87" /></clipPath><clipPath clipPathUnits="userSpaceOnUse" id="clipPath89"><path d="M 0,500 H 500 V 0 H 0 Z" transform="translate(-96.329605,-397.87451)" id="path89" /></clipPath><clipPath clipPathUnits="userSpaceOnUse" id="clipPath91"><path d="M 0,500 H 500 V 0 H 0 Z" transform="translate(-87.3955,-382.24561)" id="path91" /></clipPath><clipPath clipPathUnits="userSpaceOnUse" id="clipPath93"><path d="M 0,500 H 500 V 0 H 0 Z" transform="translate(-125.2983,-381.78861)" id="path93" /></clipPath><clipPath clipPathUnits="userSpaceOnUse" id="clipPath95"><path d="M 0,500 H 500 V 0 H 0 Z" transform="translate(-71.700202,-397.00241)" id="path95" /></clipPath><clipPath clipPathUnits="userSpaceOnUse" id="clipPath97"><path d="M 0,500 H 500 V 0 H 0 Z" transform="translate(-139.3882,-350.70461)" id="path97" /></clipPath><clipPath clipPathUnits="userSpaceOnUse" id="clipPath99"><path d="M 0,500 H 500 V 0 H 0 Z" transform="translate(-97.266602,-377.96481)" id="path99" /></clipPath><clipPath clipPathUnits="userSpaceOnUse" id="clipPath101"><path d="M 0,500 H 500 V 0 H 0 Z" transform="translate(-119.97171,-375.45461)" id="path101" /></clipPath><clipPath clipPathUnits="userSpaceOnUse" id="clipPath103"><path d="M 0,500 H 500 V 0 H 0 Z" transform="translate(-437.25881,-102.749)" id="path103" /></clipPath><clipPath clipPathUnits="userSpaceOnUse" id="clipPath105"><path d="M 0,500 H 500 V 0 H 0 Z" transform="translate(-153.0757,-110.08691)" id="path105" /></clipPath><clipPath clipPathUnits="userSpaceOnUse" id="clipPath107"><path d="M 0,500 H 500 V 0 H 0 Z" transform="translate(-68.039602,-123.2412)" id="path107" /></clipPath><clipPath clipPathUnits="userSpaceOnUse" id="clipPath109"><path d="M 0,500 H 500 V 0 H 0 Z" transform="translate(-98.763205,-118.9268)" id="path109" /></clipPath><clipPath clipPathUnits="userSpaceOnUse" id="clipPath111"><path d="M 0,500 H 500 V 0 H 0 Z" transform="translate(-94.1626,-133.752)" id="path111" /></clipPath><clipPath clipPathUnits="userSpaceOnUse" id="clipPath113"><path d="M 0,500 H 500 V 0 H 0 Z" transform="translate(-130.0093,-133.8818)" id="path113" /></clipPath><clipPath clipPathUnits="userSpaceOnUse" id="clipPath115"><path d="M 0,500 H 500 V 0 H 0 Z" transform="translate(-216.42291,-119.5391)" id="path115" /></clipPath><clipPath clipPathUnits="userSpaceOnUse" id="clipPath117"><path d="M 0,500 H 500 V 0 H 0 Z" transform="translate(-216.4243,-119.54)" id="path117" /></clipPath><clipPath clipPathUnits="userSpaceOnUse" id="clipPath119"><path d="M 0,500 H 500 V 0 H 0 Z" transform="translate(-216.42291,-119.5391)" id="path119" /></clipPath><clipPath clipPathUnits="userSpaceOnUse" id="clipPath121"><path d="M 0,500 H 500 V 0 H 0 Z" transform="translate(-432.46971,-121.0557)" id="path121" /></clipPath><clipPath clipPathUnits="userSpaceOnUse" id="clipPath123"><path d="M 0,500 H 500 V 0 H 0 Z" transform="translate(-427.03711,-133.8525)" id="path123" /></clipPath><clipPath clipPathUnits="userSpaceOnUse" id="clipPath125"><path d="M 0,500 H 500 V 0 H 0 Z" transform="translate(-405.37791,-144.78911)" id="path125" /></clipPath><clipPath clipPathUnits="userSpaceOnUse" id="clipPath127"><path d="M 0,500 H 500 V 0 H 0 Z" transform="translate(-404.70611,-137.2754)" id="path127" /></clipPath><clipPath clipPathUnits="userSpaceOnUse" id="clipPath129"><path d="M 0,500 H 500 V 0 H 0 Z" transform="translate(-432.46971,-121.0557)" id="path129" /></clipPath><clipPath clipPathUnits="userSpaceOnUse" id="clipPath131"><path d="M 0,500 H 500 V 0 H 0 Z" transform="translate(-327.13481,-114.4746)" id="path131" /></clipPath><clipPath clipPathUnits="userSpaceOnUse" id="clipPath133"><path d="M 0,500 H 500 V 0 H 0 Z" transform="translate(-376.72071,-396.30321)" id="path133" /></clipPath><clipPath clipPathUnits="userSpaceOnUse" id="clipPath135"><path d="M 0,500 H 500 V 0 H 0 Z" transform="translate(-345.24221,-355.45311)" id="path135" /></clipPath><clipPath clipPathUnits="userSpaceOnUse" id="clipPath137"><path d="M 0,500 H 500 V 0 H 0 Z" transform="translate(-315.50001,-373.42481)" id="path137" /></clipPath><clipPath clipPathUnits="userSpaceOnUse" id="clipPath139"><path d="M 0,500 H 500 V 0 H 0 Z" transform="translate(-312.87011,-392.23001)" id="path139" /></clipPath><clipPath clipPathUnits="userSpaceOnUse" id="clipPath141"><path d="M 0,500 H 500 V 0 H 0 Z" transform="translate(-328.25681,-433.48831)" id="path141" /></clipPath><clipPath clipPathUnits="userSpaceOnUse" id="clipPath143"><path d="M 0,500 H 500 V 0 H 0 Z" transform="translate(-371.31351,-429.34471)" id="path143" /></clipPath><clipPath clipPathUnits="userSpaceOnUse" id="clipPath145"><path d="M 0,500 H 500 V 0 H 0 Z" transform="translate(-356.50101,-401.37401)" id="path145" /></clipPath><clipPath clipPathUnits="userSpaceOnUse" id="clipPath147"><path d="M 0,500 H 500 V 0 H 0 Z" transform="translate(-356.68651,-383.02541)" id="path147" /></clipPath><clipPath clipPathUnits="userSpaceOnUse" id="clipPath149"><path d="M 0,500 H 500 V 0 H 0 Z" transform="translate(-339.52251,-412.63771)" id="path149" /></clipPath><clipPath clipPathUnits="userSpaceOnUse" id="clipPath151"><path d="M 0,500 H 500 V 0 H 0 Z" transform="translate(-376.35061,-419.38281)" id="path151" /></clipPath><clipPath clipPathUnits="userSpaceOnUse" id="clipPath153"><path d="M 0,500 H 500 V 0 H 0 Z" transform="translate(-364.11821,-384.56741)" id="path153" /></clipPath><clipPath clipPathUnits="userSpaceOnUse" id="clipPath155"><path d="M 0,500 H 500 V 0 H 0 Z" transform="translate(-376.72071,-396.30321)" id="path155" /></clipPath><clipPath clipPathUnits="userSpaceOnUse" id="clipPath157"><path d="M 0,500 H 500 V 0 H 0 Z" transform="translate(-313.61911,-296.27291)" id="path157" /></clipPath><clipPath clipPathUnits="userSpaceOnUse" id="clipPath159"><path d="M 0,500 H 500 V 0 H 0 Z" transform="translate(-305.04881,-316.07621)" id="path159" /></clipPath><clipPath clipPathUnits="userSpaceOnUse" id="clipPath161"><path d="M 0,500 H 500 V 0 H 0 Z" transform="translate(-300.53611,-275.20511)" id="path161" /></clipPath><clipPath clipPathUnits="userSpaceOnUse" id="clipPath163"><path d="M 0,500 H 500 V 0 H 0 Z" transform="translate(-319.84181,-243.67191)" id="path163" /></clipPath><clipPath clipPathUnits="userSpaceOnUse" id="clipPath165"><path d="M 0,500 H 500 V 0 H 0 Z" transform="translate(-338.39361,-241.03421)" id="path165" /></clipPath><clipPath clipPathUnits="userSpaceOnUse" id="clipPath167"><path d="M 0,500 H 500 V 0 H 0 Z" transform="translate(-320.49711,-352.96141)" id="path167" /></clipPath><clipPath clipPathUnits="userSpaceOnUse" id="clipPath169"><path d="M 0,500 H 500 V 0 H 0 Z" transform="translate(-431.04981,-326.64161)" id="path169" /></clipPath><clipPath clipPathUnits="userSpaceOnUse" id="clipPath171"><path d="M 0,500 H 500 V 0 H 0 Z" transform="translate(-372.06351,-226.83401)" id="path171" /></clipPath><clipPath clipPathUnits="userSpaceOnUse" id="clipPath173"><path d="M 0,500 H 500 V 0 H 0 Z" transform="translate(-399.95511,-220.86041)" id="path173" /></clipPath><clipPath clipPathUnits="userSpaceOnUse" id="clipPath175"><path d="M 0,500 H 500 V 0 H 0 Z" transform="translate(-323.42581,-269.89451)" id="path175" /></clipPath><clipPath clipPathUnits="userSpaceOnUse" id="clipPath177"><path d="M 0,500 H 500 V 0 H 0 Z" transform="translate(-355.10741,-259.54641)" id="path177" /></clipPath><clipPath clipPathUnits="userSpaceOnUse" id="clipPath179"><path d="M 0,500 H 500 V 0 H 0 Z" transform="translate(-313.61911,-296.27291)" id="path179" /></clipPath><clipPath clipPathUnits="userSpaceOnUse" id="clipPath181"><path d="M 0,500 H 500 V 0 H 0 Z" transform="translate(-369.42681,-281.5425)" id="path181" /></clipPath><clipPath clipPathUnits="userSpaceOnUse" id="clipPath183"><path d="M 0,500 H 500 V 0 H 0 Z" transform="translate(-336.97751,-317.55571)" id="path183" /></clipPath><clipPath clipPathUnits="userSpaceOnUse" id="clipPath185"><path d="M 0,500 H 500 V 0 H 0 Z" transform="translate(-313.62011,-296.27151)" id="path185" /></clipPath><clipPath clipPathUnits="userSpaceOnUse" id="clipPath187"><path d="M 0,500 H 500 V 0 H 0 Z" transform="translate(-369.07811,-322.24461)" id="path187" /></clipPath><clipPath clipPathUnits="userSpaceOnUse" id="clipPath189"><path d="M 0,500 H 500 V 0 H 0 Z" transform="translate(-336.97751,-317.55571)" id="path189" /></clipPath><clipPath clipPathUnits="userSpaceOnUse" id="clipPath191"><path d="M 0,500 H 500 V 0 H 0 Z" transform="translate(-401.02541,-318.82371)" id="path191" /></clipPath><clipPath clipPathUnits="userSpaceOnUse" id="clipPath193"><path d="M 0,500 H 500 V 0 H 0 Z" transform="translate(-369.07811,-322.24411)" id="path193" /></clipPath><clipPath clipPathUnits="userSpaceOnUse" id="clipPath195"><path d="M 0,500 H 500 V 0 H 0 Z" transform="translate(-401.98341,-287.1846)" id="path195" /></clipPath><clipPath clipPathUnits="userSpaceOnUse" id="clipPath197"><path d="M 0,500 H 500 V 0 H 0 Z" transform="translate(-401.02541,-318.82371)" id="path197" /></clipPath><clipPath clipPathUnits="userSpaceOnUse" id="clipPath199"><path d="M 0,500 H 500 V 0 H 0 Z" transform="translate(-385.65231,-244.13481)" id="path199" /></clipPath><clipPath clipPathUnits="userSpaceOnUse" id="clipPath201"><path d="M 0,500 H 500 V 0 H 0 Z" transform="translate(-361.43161,-257.66991)" id="path201" /></clipPath><clipPath clipPathUnits="userSpaceOnUse" id="clipPath203"><path d="M 0,500 H 500 V 0 H 0 Z" transform="translate(-361.72851,-265.84031)" id="path203" /></clipPath><clipPath clipPathUnits="userSpaceOnUse" id="clipPath205"><path d="M 0,500 H 500 V 0 H 0 Z" transform="translate(-402.13871,-265.52591)" id="path205" /></clipPath><clipPath clipPathUnits="userSpaceOnUse" id="clipPath207"><path d="M 0,500 H 500 V 0 H 0 Z" transform="translate(-385.65231,-244.13571)" id="path207" /></clipPath><clipPath clipPathUnits="userSpaceOnUse" id="clipPath209"><path d="M 0,500 H 500 V 0 H 0 Z" transform="translate(-402.13771,-265.52541)" id="path209" /></clipPath><clipPath clipPathUnits="userSpaceOnUse" id="clipPath211"><path d="M 0,500 H 500 V 0 H 0 Z" transform="translate(-355.10741,-259.54641)" id="path211" /></clipPath><clipPath clipPathUnits="userSpaceOnUse" id="clipPath213"><path d="M 0,500 H 500 V 0 H 0 Z" transform="translate(-242.46831,-133.5723)" id="path213" /></clipPath><clipPath clipPathUnits="userSpaceOnUse" id="clipPath215"><path d="M 0,500 H 500 V 0 H 0 Z" transform="translate(-210.0742,-231.25001)" id="path215" /></clipPath><clipPath clipPathUnits="userSpaceOnUse" id="clipPath217"><path d="M 0,500 H 500 V 0 H 0 Z" transform="translate(-184.9072,-258.88431)" id="path217" /></clipPath><clipPath clipPathUnits="userSpaceOnUse" id="clipPath219"><path d="M 0,500 H 500 V 0 H 0 Z" transform="translate(-148.6821,-295.10451)" id="path219" /></clipPath><clipPath clipPathUnits="userSpaceOnUse" id="clipPath221"><path d="M 0,500 H 500 V 0 H 0 Z" transform="translate(-147.19731,-276.85691)" id="path221" /></clipPath><clipPath clipPathUnits="userSpaceOnUse" id="clipPath223"><path d="M 0,500 H 500 V 0 H 0 Z" transform="translate(-145.4277,-259.17381)" id="path223" /></clipPath><clipPath clipPathUnits="userSpaceOnUse" id="clipPath225"><path d="M 0,500 H 500 V 0 H 0 Z" transform="translate(-144.6172,-243.18261)" id="path225" /></clipPath><clipPath clipPathUnits="userSpaceOnUse" id="clipPath227"><path d="M 0,500 H 500 V 0 H 0 Z" transform="translate(-145.23831,-226.34181)" id="path227" /></clipPath><clipPath clipPathUnits="userSpaceOnUse" id="clipPath229"><path d="M 0,500 H 500 V 0 H 0 Z" transform="translate(-148.04301,-210.12111)" id="path229" /></clipPath><clipPath clipPathUnits="userSpaceOnUse" id="clipPath231"><path d="M 0,500 H 500 V 0 H 0 Z" transform="translate(-154.3618,-192.44921)" id="path231" /></clipPath><clipPath clipPathUnits="userSpaceOnUse" id="clipPath233"><path d="M 0,500 H 500 V 0 H 0 Z" transform="translate(-163.56201,-176.61521)" id="path233" /></clipPath><clipPath clipPathUnits="userSpaceOnUse" id="clipPath235"><path d="M 0,500 H 500 V 0 H 0 Z" transform="translate(-179.42721,-158.4932)" id="path235" /></clipPath><clipPath clipPathUnits="userSpaceOnUse" id="clipPath237"><path d="M 0,500 H 500 V 0 H 0 Z" transform="translate(-168.06741,-111.37211)" id="path237" /></clipPath><clipPath clipPathUnits="userSpaceOnUse" id="clipPath239"><path d="M 0,500 H 500 V 0 H 0 Z" transform="translate(-171.1729,-117.8379)" id="path239" /></clipPath><clipPath clipPathUnits="userSpaceOnUse" id="clipPath241"><path d="M 0,500 H 500 V 0 H 0 Z" transform="translate(-262.65531,-102.97271)" id="path241" /></clipPath><clipPath clipPathUnits="userSpaceOnUse" id="clipPath243"><path d="M 0,500 H 500 V 0 H 0 Z" transform="translate(-256.89841,-105.15821)" id="path243" /></clipPath><clipPath clipPathUnits="userSpaceOnUse" id="clipPath245"><path d="M 0,500 H 500 V 0 H 0 Z" transform="translate(-197.36961,-145.5762)" id="path245" /></clipPath><clipPath clipPathUnits="userSpaceOnUse" id="clipPath247"><path d="M 0,500 H 500 V 0 H 0 Z" transform="translate(-218.4478,-137.4365)" id="path247" /></clipPath><clipPath clipPathUnits="userSpaceOnUse" id="clipPath249"><path d="M 0,500 H 500 V 0 H 0 Z" transform="translate(-252.6064,-248.63481)" id="path249" /></clipPath><clipPath clipPathUnits="userSpaceOnUse" id="clipPath251"><path d="M 0,500 H 500 V 0 H 0 Z" transform="translate(-263.56351,-232.1865)" id="path251" /></clipPath><clipPath clipPathUnits="userSpaceOnUse" id="clipPath253"><path d="M 0,500 H 500 V 0 H 0 Z" transform="translate(-280.915,-228.33591)" id="path253" /></clipPath><clipPath clipPathUnits="userSpaceOnUse" id="clipPath255"><path d="M 0,500 H 500 V 0 H 0 Z" transform="translate(-279.01861,-215.27831)" id="path255" /></clipPath><clipPath clipPathUnits="userSpaceOnUse" id="clipPath257"><path d="M 0,500 H 500 V 0 H 0 Z" transform="translate(-267.748,-214.49321)" id="path257" /></clipPath><clipPath clipPathUnits="userSpaceOnUse" id="clipPath259"><path d="M 0,500 H 500 V 0 H 0 Z" transform="translate(-309.81641,-206.8818)" id="path259" /></clipPath><clipPath clipPathUnits="userSpaceOnUse" id="clipPath261"><path d="M 0,500 H 500 V 0 H 0 Z" transform="translate(-322.25681,-187.8135)" id="path261" /></clipPath><clipPath clipPathUnits="userSpaceOnUse" id="clipPath263"><path d="M 0,500 H 500 V 0 H 0 Z" transform="translate(-329.74901,-169.2236)" id="path263" /></clipPath><clipPath clipPathUnits="userSpaceOnUse" id="clipPath265"><path d="M 0,500 H 500 V 0 H 0 Z" transform="translate(-341.73931,-143.08301)" id="path265" /></clipPath><clipPath clipPathUnits="userSpaceOnUse" id="clipPath267"><path d="M 0,500 H 500 V 0 H 0 Z" transform="translate(-354.48051,-143.9541)" id="path267" /></clipPath><clipPath clipPathUnits="userSpaceOnUse" id="clipPath269"><path d="M 0,500 H 500 V 0 H 0 Z" transform="translate(-341.77441,-168.3789)" id="path269" /></clipPath><clipPath clipPathUnits="userSpaceOnUse" id="clipPath271"><path d="M 0,500 H 500 V 0 H 0 Z" transform="translate(-385.95121,-98.459002)" id="path271" /></clipPath><clipPath clipPathUnits="userSpaceOnUse" id="clipPath273"><path d="M 0,500 H 500 V 0 H 0 Z" transform="translate(-379.38281,-132.7695)" id="path273" /></clipPath><clipPath clipPathUnits="userSpaceOnUse" id="clipPath275"><path d="M 0,500 H 500 V 0 H 0 Z" transform="translate(-180.59571,-341.57131)" id="path275" /></clipPath><clipPath clipPathUnits="userSpaceOnUse" id="clipPath277"><path d="M 0,500 H 500 V 0 H 0 Z" transform="translate(-189.04101,-346.05371)" id="path277" /></clipPath><clipPath clipPathUnits="userSpaceOnUse" id="clipPath279"><path d="M 0,500 H 500 V 0 H 0 Z" transform="translate(-184.69431,-261.6948)" id="path279" /></clipPath><clipPath clipPathUnits="userSpaceOnUse" id="clipPath281"><path d="M 0,500 H 500 V 0 H 0 Z" transform="translate(-198.0361,-215.9238)" id="path281" /></clipPath><clipPath clipPathUnits="userSpaceOnUse" id="clipPath283"><path d="M 0,500 H 500 V 0 H 0 Z" transform="translate(-187.3789,-215.26761)" id="path283" /></clipPath><clipPath clipPathUnits="userSpaceOnUse" id="clipPath285"><path d="M 0,500 H 500 V 0 H 0 Z" transform="translate(-180.43551,-218.77541)" id="path285" /></clipPath><clipPath clipPathUnits="userSpaceOnUse" id="clipPath287"><path d="M 0,500 H 500 V 0 H 0 Z" transform="translate(-175.2612,-228.13961)" id="path287" /></clipPath><clipPath clipPathUnits="userSpaceOnUse" id="clipPath289"><path d="M 0,500 H 500 V 0 H 0 Z" transform="translate(-244.6279,-404.04541)" id="path289" /></clipPath><clipPath clipPathUnits="userSpaceOnUse" id="clipPath291"><path d="M 0,500 H 500 V 0 H 0 Z" transform="translate(-228.89061,-353.46631)" id="path291" /></clipPath><clipPath clipPathUnits="userSpaceOnUse" id="clipPath293"><path d="M 0,500 H 500 V 0 H 0 Z" transform="translate(-183.4443,-384.64701)" id="path293" /></clipPath><clipPath clipPathUnits="userSpaceOnUse" id="clipPath295"><path d="M 0,500 H 500 V 0 H 0 Z" transform="translate(-225.19921,-396.14601)" id="path295" /></clipPath><clipPath clipPathUnits="userSpaceOnUse" id="clipPath297"><path d="M 0,500 H 500 V 0 H 0 Z" transform="translate(-203.1001,-348.71041)" id="path297" /></clipPath><clipPath clipPathUnits="userSpaceOnUse" id="clipPath299"><path d="M 0,500 H 500 V 0 H 0 Z" transform="translate(-165.3213,-379.77441)" id="path299" /></clipPath><clipPath clipPathUnits="userSpaceOnUse" id="clipPath301"><path d="M 0,500 H 500 V 0 H 0 Z" transform="translate(-177.6465,-379.95211)" id="path301" /></clipPath><clipPath clipPathUnits="userSpaceOnUse" id="clipPath303"><path d="M 0,500 H 500 V 0 H 0 Z" transform="translate(-230.05221,-388.11181)" id="path303" /></clipPath><clipPath clipPathUnits="userSpaceOnUse" id="clipPath305"><path d="M 0,500 H 500 V 0 H 0 Z" transform="translate(-211.17331,-139.4316)" id="path305" /></clipPath><clipPath clipPathUnits="userSpaceOnUse" id="clipPath307"><path d="M 0,500 H 500 V 0 H 0 Z" transform="translate(-162.37701,-177.70511)" id="path307" /></clipPath><clipPath clipPathUnits="userSpaceOnUse" id="clipPath309"><path d="M 0,500 H 500 V 0 H 0 Z" transform="translate(-146.4858,-215.95611)" id="path309" /></clipPath><clipPath clipPathUnits="userSpaceOnUse" id="clipPath311"><path d="M 0,500 H 500 V 0 H 0 Z" transform="translate(-147.6426,-281.3652)" id="path311" /></clipPath><clipPath clipPathUnits="userSpaceOnUse" id="clipPath313"><path d="M 0,500 H 500 V 0 H 0 Z" transform="translate(-212.31691,-438.15091)" id="path313" /></clipPath><clipPath clipPathUnits="userSpaceOnUse" id="clipPath315"><path d="M 0,500 H 500 V 0 H 0 Z" transform="translate(-217.1611,-433.01421)" id="path315" /></clipPath><clipPath clipPathUnits="userSpaceOnUse" id="clipPath317"><path d="M 0,500 H 500 V 0 H 0 Z" transform="translate(-147.6421,-281.3652)" id="path317" /></clipPath><clipPath clipPathUnits="userSpaceOnUse" id="clipPath319"><path d="M 0,500 H 500 V 0 H 0 Z" transform="translate(-161.75781,-91.345702)" id="path319" /></clipPath><clipPath clipPathUnits="userSpaceOnUse" id="clipPath321"><path d="M 0,500 H 500 V 0 H 0 Z" transform="translate(-175.57281,-91.524405)" id="path321" /></clipPath><clipPath clipPathUnits="userSpaceOnUse" id="clipPath323"><path d="M 0,500 H 500 V 0 H 0 Z" transform="translate(-151.83351,-93.239302)" id="path323" /></clipPath><clipPath clipPathUnits="userSpaceOnUse" id="clipPath325"><path d="M 0,500 H 500 V 0 H 0 Z" transform="translate(-164.938,-102.69731)" id="path325" /></clipPath><clipPath clipPathUnits="userSpaceOnUse" id="clipPath327"><path d="M 0,500 H 500 V 0 H 0 Z" transform="translate(-149.7358,-106.25591)" id="path327" /></clipPath><clipPath clipPathUnits="userSpaceOnUse" id="clipPath329"><path d="M 0,500 H 500 V 0 H 0 Z" transform="translate(-154.3066,-102.4287)" id="path329" /></clipPath><clipPath clipPathUnits="userSpaceOnUse" id="clipPath331"><path d="M 0,500 H 500 V 0 H 0 Z" transform="translate(-149.7363,-106.2539)" id="path331" /></clipPath><clipPath clipPathUnits="userSpaceOnUse" id="clipPath333"><path d="M 0,500 H 500 V 0 H 0 Z" transform="translate(-200.9458,-119.4854)" id="path333" /></clipPath><clipPath clipPathUnits="userSpaceOnUse" id="clipPath335"><path d="M 0,500 H 500 V 0 H 0 Z" transform="translate(-175.57281,-91.524405)" id="path335" /></clipPath><clipPath clipPathUnits="userSpaceOnUse" id="clipPath337"><path d="M 0,500 H 500 V 0 H 0 Z" transform="translate(-200.9458,-119.4854)" id="path337" /></clipPath><clipPath clipPathUnits="userSpaceOnUse" id="clipPath339"><path d="M 0,500 H 500 V 0 H 0 Z" transform="translate(-148.8901,-300.44871)" id="path339" /></clipPath><clipPath clipPathUnits="userSpaceOnUse" id="clipPath341"><path d="M 0,500 H 500 V 0 H 0 Z" transform="translate(-193.96581,-213.05471)" id="path341" /></clipPath><clipPath clipPathUnits="userSpaceOnUse" id="clipPath343"><path d="M 0,500 H 500 V 0 H 0 Z" transform="translate(-261.6592,-74.062499)" id="path343" /></clipPath><clipPath clipPathUnits="userSpaceOnUse" id="clipPath345"><path d="M 0,500 H 500 V 0 H 0 Z" transform="translate(-281.6641,-73.378904)" id="path345" /></clipPath><clipPath clipPathUnits="userSpaceOnUse" id="clipPath347"><path d="M 0,500 H 500 V 0 H 0 Z" transform="translate(-249.1333,-77.140604)" id="path347" /></clipPath><clipPath clipPathUnits="userSpaceOnUse" id="clipPath349"><path d="M 0,500 H 500 V 0 H 0 Z" transform="translate(-264.82131,-87.2715)" id="path349" /></clipPath><clipPath clipPathUnits="userSpaceOnUse" id="clipPath351"><path d="M 0,500 H 500 V 0 H 0 Z" transform="translate(-246.79251,-92.9004)" id="path351" /></clipPath><clipPath clipPathUnits="userSpaceOnUse" id="clipPath353"><path d="M 0,500 H 500 V 0 H 0 Z" transform="translate(-252.4375,-90.031305)" id="path353" /></clipPath><clipPath clipPathUnits="userSpaceOnUse" id="clipPath355"><path d="M 0,500 H 500 V 0 H 0 Z" transform="translate(-295.7959,-134.51861)" id="path355" /></clipPath><clipPath clipPathUnits="userSpaceOnUse" id="clipPath357"><path d="M 0,500 H 500 V 0 H 0 Z" transform="translate(-281.6641,-73.378904)" id="path357" /></clipPath><clipPath clipPathUnits="userSpaceOnUse" id="clipPath359"><path d="M 0,500 H 500 V 0 H 0 Z" transform="translate(-294.24901,-139.74221)" id="path359" /></clipPath><clipPath clipPathUnits="userSpaceOnUse" id="clipPath361"><path d="M 0,500 H 500 V 0 H 0 Z" transform="translate(-174.46971,-233.32031)" id="path361" /></clipPath><clipPath clipPathUnits="userSpaceOnUse" id="clipPath363"><path d="M 0,500 H 500 V 0 H 0 Z" transform="translate(-435.21781,-118.0029)" id="path363" /></clipPath><clipPath clipPathUnits="userSpaceOnUse" id="clipPath365"><path d="M 0,500 H 500 V 0 H 0 Z" transform="translate(-222.87451,-273.3579)" id="path365" /></clipPath><clipPath clipPathUnits="userSpaceOnUse" id="clipPath367"><path d="M 0,500 H 500 V 0 H 0 Z" transform="translate(-211.97311,-287.7129)" id="path367" /></clipPath><clipPath clipPathUnits="userSpaceOnUse" id="clipPath369"><path d="M 0,500 H 500 V 0 H 0 Z" transform="translate(-192.3208,-318.48581)" id="path369" /></clipPath><clipPath clipPathUnits="userSpaceOnUse" id="clipPath371"><path d="M 0,500 H 500 V 0 H 0 Z" transform="translate(-203.1001,-348.71041)" id="path371" /></clipPath><clipPath clipPathUnits="userSpaceOnUse" id="clipPath373"><path d="M 0,500 H 500 V 0 H 0 Z" transform="translate(-241.7158,-419.51461)" id="path373" /></clipPath><clipPath clipPathUnits="userSpaceOnUse" id="clipPath375"><path d="M 0,500 H 500 V 0 H 0 Z" transform="translate(-229.41751,-435.30081)" id="path375" /></clipPath><clipPath clipPathUnits="userSpaceOnUse" id="clipPath377"><path d="M 0,500 H 500 V 0 H 0 Z" transform="translate(-212.31691,-438.15041)" id="path377" /></clipPath><clipPath clipPathUnits="userSpaceOnUse" id="clipPath379"><path d="M 0,500 H 500 V 0 H 0 Z" transform="translate(-230.53561,-431.04981)" id="path379" /></clipPath><clipPath clipPathUnits="userSpaceOnUse" id="clipPath381"><path d="M 0,500 H 500 V 0 H 0 Z" transform="translate(-200.44921,-304.96681)" id="path381" /></clipPath><clipPath clipPathUnits="userSpaceOnUse" id="clipPath383"><path d="M 0,500 H 500 V 0 H 0 Z" transform="translate(-192.3208,-318.48581)" id="path383" /></clipPath><clipPath clipPathUnits="userSpaceOnUse" id="clipPath385"><path d="M 0,500 H 500 V 0 H 0 Z" transform="translate(-200.44921,-304.96681)" id="path385" /></clipPath><clipPath clipPathUnits="userSpaceOnUse" id="clipPath387"><path d="M 0,500 H 500 V 0 H 0 Z" transform="translate(-242.5444,-263.98241)" id="path387" /></clipPath><clipPath clipPathUnits="userSpaceOnUse" id="clipPath389"><path d="M 0,500 H 500 V 0 H 0 Z" transform="translate(-222.874,-273.3579)" id="path389" /></clipPath><clipPath clipPathUnits="userSpaceOnUse" id="clipPath391"><path d="M 0,500 H 500 V 0 H 0 Z" transform="translate(-261.97951,-254.5728)" id="path391" /></clipPath><clipPath clipPathUnits="userSpaceOnUse" id="clipPath393"><path d="M 0,500 H 500 V 0 H 0 Z" transform="translate(-242.5444,-263.98241)" id="path393" /></clipPath><clipPath clipPathUnits="userSpaceOnUse" id="clipPath395"><path d="M 0,500 H 500 V 0 H 0 Z" transform="translate(-284.5234,-247.34471)" id="path395" /></clipPath><clipPath clipPathUnits="userSpaceOnUse" id="clipPath397"><path d="M 0,500 H 500 V 0 H 0 Z" transform="translate(-261.97951,-254.5728)" id="path397" /></clipPath><clipPath clipPathUnits="userSpaceOnUse" id="clipPath399"><path d="M 0,500 H 500 V 0 H 0 Z" transform="translate(-306.22461,-235.83111)" id="path399" /></clipPath><clipPath clipPathUnits="userSpaceOnUse" id="clipPath401"><path d="M 0,500 H 500 V 0 H 0 Z" transform="translate(-284.5234,-247.34471)" id="path401" /></clipPath><clipPath clipPathUnits="userSpaceOnUse" id="clipPath403"><path d="M 0,500 H 500 V 0 H 0 Z" transform="translate(-323.62701,-215.97171)" id="path403" /></clipPath><clipPath clipPathUnits="userSpaceOnUse" id="clipPath405"><path d="M 0,500 H 500 V 0 H 0 Z" transform="translate(-306.22461,-235.83111)" id="path405" /></clipPath><clipPath clipPathUnits="userSpaceOnUse" id="clipPath407"><path d="M 0,500 H 500 V 0 H 0 Z" transform="translate(-338.43851,-196.10351)" id="path407" /></clipPath><clipPath clipPathUnits="userSpaceOnUse" id="clipPath409"><path d="M 0,500 H 500 V 0 H 0 Z" transform="translate(-323.62701,-215.97171)" id="path409" /></clipPath><clipPath clipPathUnits="userSpaceOnUse" id="clipPath411"><path d="M 0,500 H 500 V 0 H 0 Z" transform="translate(-349.30081,-178.14161)" id="path411" /></clipPath><clipPath clipPathUnits="userSpaceOnUse" id="clipPath413"><path d="M 0,500 H 500 V 0 H 0 Z" transform="translate(-338.43851,-196.10351)" id="path413" /></clipPath><clipPath clipPathUnits="userSpaceOnUse" id="clipPath415"><path d="M 0,500 H 500 V 0 H 0 Z" transform="translate(-360.88771,-160.3232)" id="path415" /></clipPath><clipPath clipPathUnits="userSpaceOnUse" id="clipPath417"><path d="M 0,500 H 500 V 0 H 0 Z" transform="translate(-349.30081,-178.14161)" id="path417" /></clipPath><clipPath clipPathUnits="userSpaceOnUse" id="clipPath419"><path d="M 0,500 H 500 V 0 H 0 Z" transform="translate(-372.44241,-146.8164)" id="path419" /></clipPath><clipPath clipPathUnits="userSpaceOnUse" id="clipPath421"><path d="M 0,500 H 500 V 0 H 0 Z" transform="translate(-360.88771,-160.3232)" id="path421" /></clipPath><clipPath clipPathUnits="userSpaceOnUse" id="clipPath423"><path d="M 0,500 H 500 V 0 H 0 Z" transform="translate(-386.25491,-135.37211)" id="path423" /></clipPath><clipPath clipPathUnits="userSpaceOnUse" id="clipPath425"><path d="M 0,500 H 500 V 0 H 0 Z" transform="translate(-372.44241,-146.8164)" id="path425" /></clipPath><clipPath clipPathUnits="userSpaceOnUse" id="clipPath427"><path d="M 0,500 H 500 V 0 H 0 Z" transform="translate(-401.10251,-128.24711)" id="path427" /></clipPath><clipPath clipPathUnits="userSpaceOnUse" id="clipPath429"><path d="M 0,500 H 500 V 0 H 0 Z" transform="translate(-386.25491,-135.37211)" id="path429" /></clipPath><clipPath clipPathUnits="userSpaceOnUse" id="clipPath431"><path d="M 0,500 H 500 V 0 H 0 Z" transform="translate(-413.76071,-123.0801)" id="path431" /></clipPath><clipPath clipPathUnits="userSpaceOnUse" id="clipPath433"><path d="M 0,500 H 500 V 0 H 0 Z" transform="translate(-401.10161,-128.24711)" id="path433" /></clipPath><clipPath clipPathUnits="userSpaceOnUse" id="clipPath435"><path d="M 0,500 H 500 V 0 H 0 Z" transform="translate(-425.78911,-120.54)" id="path435" /></clipPath><clipPath clipPathUnits="userSpaceOnUse" id="clipPath437"><path d="M 0,500 H 500 V 0 H 0 Z" transform="translate(-413.75981,-123.0801)" id="path437" /></clipPath><clipPath clipPathUnits="userSpaceOnUse" id="clipPath439"><path d="M 0,500 H 500 V 0 H 0 Z" transform="translate(-425.78811,-120.54)" id="path439" /></clipPath><clipPath clipPathUnits="userSpaceOnUse" id="clipPath441"><path d="M 0,500 H 500 V 0 H 0 Z" transform="translate(-229.41751,-435.30081)" id="path441" /></clipPath><clipPath clipPathUnits="userSpaceOnUse" id="clipPath443"><path d="M 0,500 H 500 V 0 H 0 Z" transform="translate(-195.1851,-416.87351)" id="path443" /></clipPath><clipPath clipPathUnits="userSpaceOnUse" id="clipPath445"><path d="M 0,500 H 500 V 0 H 0 Z" transform="translate(-194.6499,-409.87941)" id="path445" /></clipPath><clipPath clipPathUnits="userSpaceOnUse" id="clipPath447"><path d="M 0,500 H 500 V 0 H 0 Z" transform="translate(-180.8179,-416.55571)" id="path447" /></clipPath><clipPath clipPathUnits="userSpaceOnUse" id="clipPath449"><path d="M 0,500 H 500 V 0 H 0 Z" transform="translate(-198.2974,-216.10161)" id="path449" /></clipPath><clipPath clipPathUnits="userSpaceOnUse" id="clipPath451"><path d="M 0,500 H 500 V 0 H 0 Z" transform="translate(-197.6113,-434.94731)" id="path451" /></clipPath><clipPath clipPathUnits="userSpaceOnUse" id="clipPath453"><path d="M 0,500 H 500 V 0 H 0 Z" transform="translate(-181.1304,-402.84721)" id="path453" /></clipPath><clipPath clipPathUnits="userSpaceOnUse" id="clipPath455"><path d="M 0,500 H 500 V 0 H 0 Z" transform="translate(-242.46831,-133.5723)" id="path455" /></clipPath><clipPath clipPathUnits="userSpaceOnUse" id="clipPath457"><path d="M 0,500 H 500 V 0 H 0 Z" transform="translate(-246.79251,-92.899402)" id="path457" /></clipPath><clipPath clipPathUnits="userSpaceOnUse" id="clipPath459"><path d="M 0,500 H 500 V 0 H 0 Z" transform="translate(-318.30371,-121.8018)" id="path459" /></clipPath><clipPath clipPathUnits="userSpaceOnUse" id="clipPath461"><path d="M 0,500 H 500 V 0 H 0 Z" transform="translate(-324.81151,-137.6904)" id="path461" /></clipPath><clipPath clipPathUnits="userSpaceOnUse" id="clipPath463"><path d="M 0,500 H 500 V 0 H 0 Z" transform="translate(-244.49661,-366.76711)" id="path463" /></clipPath><clipPath clipPathUnits="userSpaceOnUse" id="clipPath465"><path d="M 0,500 H 500 V 0 H 0 Z" transform="translate(-243.4399,-375.14401)" id="path465" /></clipPath><clipPath clipPathUnits="userSpaceOnUse" id="clipPath467"><path d="M 0,500 H 500 V 0 H 0 Z" transform="translate(-253.43071,-381.39501)" id="path467" /></clipPath><clipPath clipPathUnits="userSpaceOnUse" id="clipPath469"><path d="M 0,500 H 500 V 0 H 0 Z" transform="translate(-243.12451,-390.81981)" id="path469" /></clipPath><clipPath clipPathUnits="userSpaceOnUse" id="clipPath471"><path d="M 0,500 H 500 V 0 H 0 Z" transform="translate(-253.43551,-396.48051)" id="path471" /></clipPath><clipPath clipPathUnits="userSpaceOnUse" id="clipPath473"><path d="M 0,500 H 500 V 0 H 0 Z" transform="translate(-173.79741,-438.61521)" id="path473" /></clipPath><clipPath clipPathUnits="userSpaceOnUse" id="clipPath475"><path d="M 0,500 H 500 V 0 H 0 Z" transform="translate(-180.8169,-448.72901)" id="path475" /></clipPath><clipPath clipPathUnits="userSpaceOnUse" id="clipPath477"><path d="M 0,500 H 500 V 0 H 0 Z" transform="translate(-188.0278,-438.81051)" id="path477" /></clipPath><clipPath clipPathUnits="userSpaceOnUse" id="clipPath479"><path d="M 0,500 H 500 V 0 H 0 Z" transform="translate(-164.4438,-429.47951)" id="path479" /></clipPath><clipPath clipPathUnits="userSpaceOnUse" id="clipPath481"><path d="M 0,500 H 500 V 0 H 0 Z" transform="translate(-223.02781,-442.81351)" id="path481" /></clipPath><clipPath clipPathUnits="userSpaceOnUse" id="clipPath483"><path d="M 0,500 H 500 V 0 H 0 Z" transform="translate(-224.1406,-432.02691)" id="path483" /></clipPath><clipPath clipPathUnits="userSpaceOnUse" id="clipPath485"><path d="M 0,500 H 500 V 0 H 0 Z" transform="translate(-238.43601,-430.93951)" id="path485" /></clipPath><clipPath clipPathUnits="userSpaceOnUse" id="clipPath487"><path d="M 0,500 H 500 V 0 H 0 Z" transform="translate(-224.20951,-252.1665)" id="path487" /></clipPath><clipPath clipPathUnits="userSpaceOnUse" id="clipPath489"><path d="M 0,500 H 500 V 0 H 0 Z" transform="translate(-211.53421,-248.99801)" id="path489" /></clipPath><clipPath clipPathUnits="userSpaceOnUse" id="clipPath491"><path d="M 0,500 H 500 V 0 H 0 Z" transform="translate(-217.62211,-256.78221)" id="path491" /></clipPath><clipPath clipPathUnits="userSpaceOnUse" id="clipPath493"><path d="M 0,500 H 500 V 0 H 0 Z" transform="translate(-193.0039,-310.81641)" id="path493" /></clipPath><clipPath clipPathUnits="userSpaceOnUse" id="clipPath495"><path d="M 0,500 H 500 V 0 H 0 Z" transform="translate(-195.34371,-304.73681)" id="path495" /></clipPath><clipPath clipPathUnits="userSpaceOnUse" id="clipPath497"><path d="M 0,500 H 500 V 0 H 0 Z" transform="translate(-205.90621,-306.07471)" id="path497" /></clipPath><clipPath clipPathUnits="userSpaceOnUse" id="clipPath499"><path d="M 0,500 H 500 V 0 H 0 Z" transform="translate(-212.42241,-304.53171)" id="path499" /></clipPath><clipPath clipPathUnits="userSpaceOnUse" id="clipPath501"><path d="M 0,500 H 500 V 0 H 0 Z" transform="translate(-230.47221,-278.2026)" id="path501" /></clipPath><clipPath clipPathUnits="userSpaceOnUse" id="clipPath503"><path d="M 0,500 H 500 V 0 H 0 Z" transform="translate(-236.38531,-277.57761)" id="path503" /></clipPath><clipPath clipPathUnits="userSpaceOnUse" id="clipPath505"><path d="M 0,500 H 500 V 0 H 0 Z" transform="translate(-236.61771,-261.92871)" id="path505" /></clipPath><clipPath clipPathUnits="userSpaceOnUse" id="clipPath507"><path d="M 0,500 H 500 V 0 H 0 Z" transform="translate(-248.12551,-268.7295)" id="path507" /></clipPath><clipPath clipPathUnits="userSpaceOnUse" id="clipPath509"><path d="M 0,500 H 500 V 0 H 0 Z" transform="translate(-253.9453,-252.41061)" id="path509" /></clipPath><clipPath clipPathUnits="userSpaceOnUse" id="clipPath511"><path d="M 0,500 H 500 V 0 H 0 Z" transform="translate(-268.85841,-261.021)" id="path511" /></clipPath><clipPath clipPathUnits="userSpaceOnUse" id="clipPath513"><path d="M 0,500 H 500 V 0 H 0 Z" transform="translate(-278.84671,-263.01861)" id="path513" /></clipPath><clipPath clipPathUnits="userSpaceOnUse" id="clipPath515"><path d="M 0,500 H 500 V 0 H 0 Z" transform="translate(-277.45411,-241.44431)" id="path515" /></clipPath><clipPath clipPathUnits="userSpaceOnUse" id="clipPath517"><path d="M 0,500 H 500 V 0 H 0 Z" transform="translate(-291.00781,-251.98731)" id="path517" /></clipPath><clipPath clipPathUnits="userSpaceOnUse" id="clipPath519"><path d="M 0,500 H 500 V 0 H 0 Z" transform="translate(-291.583,-231.55271)" id="path519" /></clipPath><clipPath clipPathUnits="userSpaceOnUse" id="clipPath521"><path d="M 0,500 H 500 V 0 H 0 Z" transform="translate(-305.82131,-246.04391)" id="path521" /></clipPath><clipPath clipPathUnits="userSpaceOnUse" id="clipPath523"><path d="M 0,500 H 500 V 0 H 0 Z" transform="translate(-304.58111,-219.6426)" id="path523" /></clipPath><clipPath clipPathUnits="userSpaceOnUse" id="clipPath525"><path d="M 0,500 H 500 V 0 H 0 Z" transform="translate(-320.65331,-233.27051)" id="path525" /></clipPath><clipPath clipPathUnits="userSpaceOnUse" id="clipPath527"><path d="M 0,500 H 500 V 0 H 0 Z" transform="translate(-312.40621,-210.22071)" id="path527" /></clipPath><clipPath clipPathUnits="userSpaceOnUse" id="clipPath529"><path d="M 0,500 H 500 V 0 H 0 Z" transform="translate(-320.37791,-199.96481)" id="path529" /></clipPath><clipPath clipPathUnits="userSpaceOnUse" id="clipPath531"><path d="M 0,500 H 500 V 0 H 0 Z" transform="translate(-338.23141,-211.09571)" id="path531" /></clipPath><clipPath clipPathUnits="userSpaceOnUse" id="clipPath533"><path d="M 0,500 H 500 V 0 H 0 Z" transform="translate(-333.24611,-180.9609)" id="path533" /></clipPath><clipPath clipPathUnits="userSpaceOnUse" id="clipPath535"><path d="M 0,500 H 500 V 0 H 0 Z" transform="translate(-349.75291,-190.0703)" id="path535" /></clipPath><clipPath clipPathUnits="userSpaceOnUse" id="clipPath537"><path d="M 0,500 H 500 V 0 H 0 Z" transform="translate(-356.27731,-176.8418)" id="path537" /></clipPath><clipPath clipPathUnits="userSpaceOnUse" id="clipPath539"><path d="M 0,500 H 500 V 0 H 0 Z" transform="translate(-350.46971,-157.752)" id="path539" /></clipPath><clipPath clipPathUnits="userSpaceOnUse" id="clipPath541"><path d="M 0,500 H 500 V 0 H 0 Z" transform="translate(-366.06051,-160.3232)" id="path541" /></clipPath><clipPath clipPathUnits="userSpaceOnUse" id="clipPath543"><path d="M 0,500 H 500 V 0 H 0 Z" transform="translate(-364.13671,-143.793)" id="path543" /></clipPath><clipPath clipPathUnits="userSpaceOnUse" id="clipPath545"><path d="M 0,500 H 500 V 0 H 0 Z" transform="translate(-377.46781,-147.89261)" id="path545" /></clipPath><clipPath clipPathUnits="userSpaceOnUse" id="clipPath547"><path d="M 0,500 H 500 V 0 H 0 Z" transform="translate(-378.89751,-133.4639)" id="path547" /></clipPath><clipPath clipPathUnits="userSpaceOnUse" id="clipPath549"><path d="M 0,500 H 500 V 0 H 0 Z" transform="translate(-391.97171,-136.3086)" id="path549" /></clipPath><clipPath clipPathUnits="userSpaceOnUse" id="clipPath551"><path d="M 0,500 H 500 V 0 H 0 Z" transform="translate(-398.54881,-133.02641)" id="path551" /></clipPath><clipPath clipPathUnits="userSpaceOnUse" id="clipPath553"><path d="M 0,500 H 500 V 0 H 0 Z" transform="translate(-407.65531,-128.1602)" id="path553" /></clipPath><clipPath clipPathUnits="userSpaceOnUse" id="clipPath555"><path d="M 0,500 H 500 V 0 H 0 Z" transform="translate(-419.66311,-123.8027)" id="path555" /></clipPath><clipPath clipPathUnits="userSpaceOnUse" id="clipPath557"><path d="M 0,500 H 500 V 0 H 0 Z" transform="translate(-429.65331,-121.5996)" id="path557" /></clipPath><rect x="14.549811" y="36.058228" width="60.729648" height="58.515546" id="rect27" /><rect x="14.549811" y="36.058228" width="60.729648" height="58.515546" id="rect7" /></defs><g id="Color" style="display:inline" transform="matrix(0.20542448,0,0,0.20542448,12.212384,-8.6657839)"><path style="opacity:1;fill:transparent;stroke-width:0.3163;stroke:none" d="M 2.8467022,59.622597 V 2.530402 H 79.549513 156.25232 V 59.622597 116.71479 H 79.549513 2.8467022 Z M 99.656074,91.148831 c 4.355686,-2.762298 7.363486,-9.024381 7.774276,-16.185672 0.15803,-2.755095 0.049,-4.142562 -0.63963,-8.140503 -0.45658,-2.650643 -0.83014,-5.034756 -0.83014,-5.298029 0,-0.362439 0.37749,-0.478679 1.55452,-0.478679 h 1.55451 l 0.22445,2.395199 c 0.25368,2.707126 0.0777,6.033383 -0.52122,9.851491 -1.04316,6.650257 1.46327,12.633007 6.28798,15.00919 1.26407,0.622555 1.98587,0.736692 4.65882,0.736692 3.0003,0 3.26552,-0.05558 5.15575,-1.080497 2.37987,-1.290414 3.19778,-2.335258 3.41654,-4.364504 0.43069,-3.995046 -3.18856,-6.204166 -7.42723,-4.533437 -1.43221,0.564523 -1.60316,0.574 -1.98858,0.110218 -0.55137,-0.663455 -0.54981,-4.363162 0.004,-8.470299 0.28637,-2.125481 0.35232,-4.294529 0.20196,-6.642305 -0.12279,-1.917409 -0.14912,-3.415031 -0.0585,-3.328048 0.0906,0.08698 0.45689,2.150841 0.81394,4.586353 0.77867,5.311536 1.2445,6.947184 2.56421,9.003781 1.40503,2.189544 3.18648,3.695216 5.89252,4.980306 4.18835,1.989041 7.50696,1.395557 8.95807,-1.602017 1.44908,-2.993402 0.5712,-4.751067 -3.25068,-6.508425 -1.44593,-0.664863 -2.91931,-1.577958 -3.27418,-2.029101 -0.61272,-0.778949 -1.26,-3.937409 -1.85943,-9.073284 l -0.20419,-1.749438 1.59773,-0.993205 c 2.76825,-1.720841 3.59498,-4.473605 2.0008,-6.662071 -0.5999,-0.823535 -0.6019,-0.887962 -0.061,-1.965401 2.43399,-4.848035 1.50091,-14.448867 -1.96063,-20.173786 -2.43375,-4.025081 -7.53073,-8.464438 -12.09381,-10.533438 -3.97244,-1.801193 -6.54233,-2.334871 -11.23703,-2.333557 -4.00136,0.0011 -4.45871,0.06638 -7.2683,1.037074 -9.464956,3.270086 -16.773004,10.825113 -18.484027,19.108709 -0.908127,4.396533 -0.462618,9.862523 1.044664,12.817037 0.63811,1.250803 0.638319,1.265836 0.02531,1.820602 -0.850218,0.769438 -1.272384,2.461499 -0.920374,3.688889 0.332021,1.157688 1.645119,2.636521 2.942548,3.313948 0.79249,0.413784 0.878824,0.59589 0.698891,1.474186 -0.112913,0.551147 -0.346773,2.994779 -0.519688,5.430291 -0.329221,4.637123 -0.918242,7.433078 -1.815402,8.617334 -0.311689,0.411434 -1.450452,1.001476 -2.74121,1.420343 -1.754647,0.569407 -2.353818,0.934864 -2.918075,1.779853 -1.035106,1.550096 -1.214062,2.980599 -0.580433,4.63973 0.820172,2.14759 2.016161,2.837428 4.91578,2.835378 1.991936,-0.0014 2.701859,-0.157922 4.428203,-0.976279 3.641644,-1.726288 6.202158,-5.123144 7.411108,-9.831798 0.275839,-1.074342 0.690471,-4.241618 0.921408,-7.038392 0.230934,-2.796775 0.503724,-5.16889 0.606199,-5.271365 0.102475,-0.102475 0.463772,-0.09826 0.802881,0.0094 0.490066,0.15554 0.660137,0.599493 0.828959,2.163904 0.11682,1.082522 0.490601,3.434379 0.830627,5.226353 1.002919,5.28551 0.744204,9.350873 -0.789039,12.398729 -0.306299,0.608878 -1.411677,1.98072 -2.456388,3.04854 -1.62337,1.659273 -1.922764,2.14808 -2.059671,3.362721 -0.208651,1.851147 0.354496,3.492786 1.540505,4.490745 0.795761,0.669592 1.275418,0.801103 2.921811,0.801103 1.618654,0 2.221187,-0.15945 3.380307,-0.894541 z M 56.141061,89.514349 c 0.561737,-0.347171 1.385284,-1.165598 1.830107,-1.818726 1.561473,-2.29269 1.637689,-3.09427 1.204323,-12.666266 -0.628758,-13.887782 -0.700454,-14.576643 -1.592249,-15.298772 -1.089867,-0.882522 -2.772821,-0.674172 -3.605969,0.44642 l -0.647365,0.870711 0.685002,10.986961 c 0.650652,10.436004 0.657749,11.041795 0.141494,12.080377 -0.298933,0.601375 -0.717809,1.147401 -0.930837,1.213387 -0.213032,0.06599 -0.805522,-0.566768 -1.316651,-1.406125 -2.259712,-3.710831 -3.632737,-4.44195 -5.269005,-2.805678 -1.038863,1.03886 -0.981483,1.745652 0.346953,4.273669 1.818207,3.460052 3.563362,4.750032 6.430545,4.753315 1.151741,0.0013 2.032644,-0.202204 2.723652,-0.629273 z m -25.874828,-7.57533 c 2.58225,-1.172361 4.007882,-4.197615 5.150516,-10.929613 0.880577,-5.188068 1.290312,-10.868444 1.365146,-18.92586 l 0.06708,-7.222748 3.361193,0.217089 c 3.742436,0.241711 4.410108,0.05826 5.17564,-1.42212 0.97769,-1.89065 0.417554,-3.614781 -1.518352,-4.673567 -0.914158,-0.499973 -1.987412,-0.541427 -11.442623,-0.441976 -7.98856,0.08402 -10.62821,0.210251 -11.263181,0.538608 -1.845584,0.954389 -1.983156,3.884617 -0.250816,5.342286 0.928014,0.780873 1.114172,0.809818 5.208199,0.809818 h 4.245785 l -0.0016,4.823578 c -0.0035,10.461419 -0.978579,21.811556 -2.118499,24.660498 -0.482657,1.20628 -0.540765,1.24306 -1.641449,1.038967 -3.068418,-0.568954 -6.992634,-3.681551 -6.992634,-5.546394 0,-1.316107 -0.76393,-3.030682 -1.533929,-3.442774 -0.351222,-0.187967 -1.275797,-0.341759 -2.054612,-0.341759 -1.206246,0 -1.542854,0.150724 -2.272097,1.01738 -0.793916,0.943514 -0.845472,1.178902 -0.710108,3.242078 0.19172,2.92213 1.21881,4.915334 3.731674,7.241804 1.9957,1.847665 5.396383,3.789758 7.507768,4.287599 2.057488,0.485135 4.569486,0.370634 5.986922,-0.272894 z m 27.156638,-26.41395 c 1.743226,-1.743222 0.50052,-4.600729 -2.000814,-4.600729 -1.609383,0 -2.726436,1.12187 -2.726436,2.738189 0,2.33831 3.049843,3.53995 4.72725,1.86254 z" id="path8" transform="matrix(4.867969,0,0,4.867969,-59.449507,42.184767)" /><path style="opacity:1;fill:transparent;stroke-width:0.3163;stroke:none" d="m 24.856357,80.93517 c -3.992326,-0.936331 -9.074919,-4.965525 -10.098137,-8.005233 -1.062934,-3.157696 -0.451437,-5.241684 1.53805,-5.241684 1.264344,0 1.598871,0.472418 2.061343,2.911025 0.246908,1.301943 0.605893,1.959648 1.654003,3.030337 1.58595,1.620115 4.710181,3.243428 6.666754,3.463962 2.356763,0.265642 2.963762,-0.769919 3.844371,-6.558622 0.640096,-4.207691 1.100619,-12.617251 1.104224,-20.16414 l 0.0031,-6.40508 h -4.600731 c -4.462993,0 -4.623974,-0.02324 -5.377104,-0.776374 -0.979112,-0.979111 -0.979112,-1.580045 0,-2.559156 0.770101,-0.770101 0.830794,-0.777013 7.512131,-0.855449 11.669835,-0.136999 12.962135,-0.09191 14.067322,0.49083 0.553058,0.291615 1.0947,0.811063 1.203649,1.15433 0.203082,0.639856 -0.291418,1.888837 -0.912284,2.304196 -0.191413,0.128056 -2.056045,0.143951 -4.143627,0.03532 l -3.795603,-0.197505 -0.05394,7.473824 c -0.06018,8.337978 -0.466829,14.018186 -1.40568,19.635081 -1.522599,9.109301 -3.736759,11.561545 -9.267797,10.264334 z" id="path10" transform="matrix(4.867969,0,0,4.867969,-59.449507,42.184767)" /><path id="path14" style="opacity:1;fill:transparent;stroke-width:0.111829;stroke:none" d="m 54.605951,54.912579 c -0.959307,-0.584924 -0.9197,-2.11635 0.06794,-2.62708 0.536845,-0.277614 1.273422,-0.225229 1.68337,0.11972 0.684582,0.576038 0.847961,1.268119 0.452484,1.916752 -0.466479,0.765086 -1.474564,1.035248 -2.203798,0.590608 z m -2.258266,34.044816 c -1.756723,-0.491724 -3.212272,-1.962741 -4.55296,-4.601344 -0.642283,-1.264076 -0.744065,-1.798548 -0.428344,-2.249303 0.205883,-0.293939 0.726699,-0.583388 1.049711,-0.583388 0.415631,0 1.060408,0.735537 1.732784,1.976696 1.032868,1.906598 1.364695,2.35732 2.006502,2.725432 1.48139,0.849662 2.739389,0.109816 3.421767,-2.012382 0.248328,-0.772301 0.256972,-0.90939 0.189656,-3.007542 -0.03879,-1.209097 -0.171604,-3.682888 -0.295136,-5.497314 -0.660917,-9.707455 -0.884477,-13.854466 -0.769354,-14.27141 0.152903,-0.553768 0.758477,-1.160995 1.157835,-1.160995 0.391359,0 1.116464,0.407914 1.267764,0.713192 0.190082,0.383528 1.132283,18.356544 1.134251,21.636471 8.59e-4,1.431857 -0.169942,2.254953 -0.688707,3.318909 -1.159257,2.377569 -3.230157,3.571571 -5.225769,3.012978 z" transform="matrix(4.867969,0,0,4.867969,-59.449507,42.184767)" /><path style="opacity:1;fill:transparent;stroke-width:0.15815;stroke:none" d="m 79.817083,82.173641 c -1.926488,-0.526076 -2.877065,-2.645999 -1.999413,-4.458985 0.591159,-1.221173 1.446902,-1.676457 3.84539,-2.045879 0.763947,-0.117665 1.923586,-1.160779 2.530869,-2.276558 1.06197,-1.951189 1.446284,-3.863707 1.764012,-8.778524 0.252426,-3.904677 0.335994,-4.733922 0.570722,-5.663236 0.14634,-0.579379 0.166989,-0.593152 0.894914,-0.596929 0.930711,-0.0048 1.926619,-0.224899 2.994145,-0.661628 l 0.825677,-0.337788 0.359107,0.462104 c 0.197509,0.254156 0.633198,0.761901 0.968197,1.12832 l 0.609089,0.666218 -0.246955,0.994359 c -0.135826,0.546897 -0.322507,2.275374 -0.414849,3.841061 -0.335799,5.693617 -0.889915,8.646034 -2.10081,11.193446 -1.560098,3.282049 -4.213209,5.636014 -7.151138,6.344828 -1.476437,0.35621 -2.609687,0.418374 -3.448957,0.189191 z" id="path16" transform="matrix(4.867969,0,0,4.867969,-59.449507,42.184767)" /><path style="opacity:1;fill:transparent;stroke-width:0.15815;stroke:none" d="m 95.206375,90.534788 c -1.721157,-0.772744 -2.540664,-2.789473 -1.751279,-4.309733 0.167569,-0.32272 0.989931,-1.262854 1.827471,-2.089189 1.683461,-1.660938 2.375301,-2.676427 2.983272,-4.378862 0.761148,-2.131362 0.940197,-3.6013 0.843988,-6.928872 -0.06698,-2.316778 -0.179843,-3.47564 -0.492859,-5.060804 -0.614157,-3.110191 -0.902723,-5.185928 -0.849282,-6.109139 l 0.04817,-0.832094 0.869826,-0.259608 c 0.945608,-0.282227 2.043038,-0.807954 2.699118,-1.293013 l 0.41565,-0.307303 1.06047,0.802663 c 0.58325,0.441465 1.11505,0.802664 1.18177,0.802664 0.0667,0 0.20921,0.756262 0.31665,1.680582 0.10745,0.924321 0.43835,2.863637 0.73534,4.309591 0.95313,4.640411 1.05091,7.546223 0.38662,11.488623 -0.5438,3.227285 -1.756,6.296783 -3.2777,8.299674 -1.06362,1.399951 -3.337167,3.521738 -4.24407,3.960761 -0.949697,0.45974 -2.032021,0.547822 -2.753151,0.224059 z" id="path18" transform="matrix(4.867969,0,0,4.867969,-59.449507,42.184767)" /><path style="opacity:1;fill:transparent;stroke-width:0.15815;stroke:none" d="m 117.27904,87.540748 c -2.93629,-0.842496 -5.37558,-3.256515 -6.50739,-6.439958 -0.7993,-2.248212 -0.93701,-5.43964 -0.3672,-8.509883 0.41902,-2.257785 0.57991,-7.546321 0.31532,-10.36465 l -0.17762,-1.891985 0.75361,-0.668885 c 0.41448,-0.367887 0.81346,-0.670349 0.88661,-0.672138 0.0732,-0.0018 0.4195,0.241971 0.76965,0.541689 0.77081,0.659777 1.73527,1.007598 3.1615,1.140152 l 1.06981,0.09943 0.12157,0.570627 c 0.0669,0.313845 0.12157,2.527735 0.12157,4.919756 0,4.081225 -0.028,4.509646 -0.45484,6.954963 -0.33476,1.917844 -0.43083,2.878201 -0.36389,3.637453 0.23093,2.619167 1.31206,4.316828 2.74911,4.316828 0.35607,0 1.1697,-0.242852 1.94981,-0.581977 1.58317,-0.688225 2.4263,-0.835617 3.24132,-0.566637 0.89554,0.295555 1.87949,1.361206 2.11296,2.288402 0.53283,2.116028 -0.87276,3.731612 -4.29008,4.931037 -1.42671,0.500752 -3.88063,0.643298 -5.09182,0.295777 z" id="path20" transform="matrix(4.867969,0,0,4.867969,-59.449507,42.184767)" /><path style="opacity:1;fill:transparent;stroke-width:0.15815;stroke:none" d="m 131.65998,78.917135 c -1.55799,-0.32017 -4.27371,-1.669996 -5.72616,-2.846145 -1.68623,-1.365453 -3.26632,-3.95105 -3.84513,-6.292002 -0.16603,-0.6715 -0.58538,-3.211721 -0.93189,-5.644935 l -0.63002,-4.424027 0.99453,-1.032153 c 0.54699,-0.567684 1.02882,-1.136512 1.07073,-1.264062 0.063,-0.191664 0.23889,-0.159765 1.01369,0.183815 1.10385,0.489495 2.03461,0.757662 2.63396,0.758888 0.27218,5.57e-4 0.51712,0.132144 0.66401,0.35672 0.13532,0.206895 0.40384,1.646675 0.64152,3.439765 0.61084,4.608259 0.83666,5.901568 1.20007,6.872872 0.60287,1.611301 1.5816,2.423464 4.21272,3.495752 1.87599,0.764539 2.54401,1.180373 3.02582,1.883535 0.60881,0.888503 0.35778,2.134921 -0.67785,3.365705 -0.75678,0.899378 -2.37371,1.407729 -3.646,1.146272 z" id="path22" transform="matrix(4.867969,0,0,4.867969,-59.449507,42.184767)" /><path id="path36" style="opacity:1;fill:transparent;stroke-width:0.0395375;stroke:none" d="m 94.964464,24.098003 c -0.05694,-0.03094 -0.13458,-0.121695 -0.172531,-0.201669 -0.301699,-0.635784 0.592361,-1.375821 1.196815,-0.990636 0.21856,0.139276 0.274522,0.256175 0.204067,0.42627 -0.08177,0.197415 -0.49306,0.61127 -0.719735,0.724227 -0.228076,0.113655 -0.35692,0.124246 -0.508616,0.04181 z m 1.329193,4.866474 c -0.153846,-0.06871 -0.46925,-0.37528 -0.559299,-0.54363 -0.04776,-0.0893 -0.07093,-0.220913 -0.07188,-0.408506 -0.0025,-0.491077 0.243455,-0.875251 0.797743,-1.245981 0.426057,-0.284964 0.540116,-0.264376 0.947396,0.171007 0.40099,0.42866 0.411224,0.773912 0.03797,1.280943 -0.263638,0.358126 -0.828576,0.809389 -1.002389,0.80069 -0.01701,-8.51e-4 -0.0843,-0.02539 -0.149536,-0.05452 z m -4.319816,5.499391 c -0.232304,-0.129014 -0.288749,-0.388275 -0.169796,-0.779903 0.06578,-0.216581 0.123953,-0.319608 0.253706,-0.449361 0.282654,-0.282654 0.568426,-0.270574 0.85099,0.03597 0.207591,0.225209 0.20921,0.332007 0.0096,0.636611 -0.188472,0.287678 -0.374586,0.467374 -0.567333,0.547767 -0.175535,0.07321 -0.257932,0.07516 -0.377217,0.0089 z m -2.450014,-4.438876 c -0.235219,-0.08657 -0.542105,-0.376341 -0.657502,-0.620837 -0.561909,-1.190532 0.216322,-2.712283 1.563587,-3.057436 1.171214,-0.300051 2.010856,0.808455 1.57183,2.075153 -0.202017,0.582869 -0.747564,1.1882 -1.331724,1.477663 -0.292816,0.145096 -0.365803,0.16463 -0.654353,0.175127 -0.221772,0.0081 -0.37776,-0.0077 -0.491838,-0.04967 z m -3.24001,8.736056 c -0.04725,-0.01043 -0.131335,-0.06439 -0.186843,-0.119894 -0.441666,-0.441666 0.343627,-1.66887 1.070364,-1.672694 0.512728,-0.0027 0.662094,0.807989 0.252937,1.372814 -0.205437,0.283598 -0.784493,0.497484 -1.136458,0.419774 z m -0.125864,-4.779834 c -0.412818,-0.347363 -0.14371,-1.282571 0.464282,-1.613482 0.331913,-0.180649 0.622814,-0.136077 0.846445,0.129694 0.289345,0.343866 0.215775,0.805045 -0.193755,1.214575 -0.355969,0.355969 -0.867381,0.47923 -1.116972,0.269213 z M 105.3974,59.403716 c -1.30307,-0.450592 -2.4535,-1.457468 -2.72787,-2.387482 -0.19434,-0.658746 -0.51926,-0.989892 -0.97128,-0.989892 -0.33228,0 -0.37805,0.04448 -0.54651,0.531188 -0.37527,1.084208 -0.65941,1.528328 -1.215625,1.900051 -0.732171,0.489317 -1.50415,0.699973 -2.565147,0.699973 -1.556816,0 -2.896818,-0.487252 -3.886898,-1.413356 -0.661201,-0.618476 -0.872925,-1.053687 -1.049698,-2.157708 -0.166354,-1.038948 -0.213234,-1.125755 -0.607968,-1.125755 -0.383878,0 -0.562971,0.14293 -1.005141,0.802182 -0.751015,1.119724 -1.627025,1.546228 -3.175844,1.546228 -2.299963,0 -4.624709,-1.53711 -4.950397,-3.273179 -0.105486,-0.56229 0.123482,-1.435057 0.485478,-1.850511 0.164927,-0.189284 0.526321,-0.467157 0.803098,-0.617498 0.809668,-0.439798 0.811883,-0.603206 0.03077,-2.269688 -0.756898,-1.61483 -1.133537,-2.588438 -1.508289,-3.898915 -0.241413,-0.844202 -0.255835,-1.086897 -0.255835,-4.305418 0,-3.386461 0.0023,-3.419558 0.318388,-4.640904 0.951066,-3.67453 2.612807,-6.695391 5.426921,-9.865544 3.691623,-4.158683 9.446287,-7.532491 14.741867,-8.642766 4.72677,-0.991017 10.33826,-0.155776 15.40995,2.293688 5.15146,2.487997 9.8721,7.285382 11.96682,12.161375 1.39831,3.254917 1.90137,6.185086 1.81999,10.600936 -0.0456,2.473537 -0.0516,2.526548 -0.40883,3.604178 -0.19942,0.601544 -0.71435,1.780211 -1.1443,2.619262 -0.42995,0.83905 -0.76678,1.626274 -0.74851,1.749385 0.0186,0.125025 0.32822,0.430336 0.70147,0.691601 0.89898,0.629265 1.21668,1.212024 1.1413,2.09347 -0.0684,0.80008 -0.4315,1.44543 -1.20386,2.139846 -1.15427,1.037788 -3.07931,1.641478 -4.50647,1.413225 -1.30212,-0.208254 -2.00812,-0.719502 -2.81046,-2.035173 -0.25744,-0.422147 -0.49767,-0.502748 -0.94553,-0.317238 -0.32165,0.133232 -0.52997,0.660362 -0.72977,1.846637 -0.10559,0.626968 -0.41262,1.076738 -1.09234,1.600191 -0.83626,0.644003 -1.64182,1.018122 -2.62313,1.21824 -1.48723,0.30329 -3.17038,-0.09338 -3.96683,-0.934866 -0.31744,-0.335401 -0.75483,-1.201428 -0.75898,-1.502788 -0.004,-0.275486 -0.37543,-0.54852 -0.74661,-0.54852 -0.37884,0 -0.82004,0.393106 -0.82391,0.734096 -0.004,0.380137 -0.40391,1.116463 -0.83099,1.531239 -0.56361,0.547371 -1.21554,0.83202 -2.36445,1.032373 -1.24793,0.21762 -1.97761,0.208846 -2.67458,-0.03216 z m 2.34635,-7.390144 c 0.69446,-0.307191 1.43576,-1.111217 1.91089,-2.072564 0.4956,-1.002775 0.50484,-1.554689 0.0269,-1.609831 -0.37138,-0.04285 -0.63758,0.241098 -1.19976,1.279759 -0.51952,0.959849 -1.04894,1.397785 -1.77402,1.467456 -0.95605,0.09186 -1.41979,-0.29821 -2.19177,-1.843628 -0.31127,-0.62314 -0.47204,-0.825808 -0.70057,-0.883166 -0.40476,-0.101589 -0.63357,0.210965 -0.5427,0.741344 0.11559,0.674659 0.72307,1.773461 1.29875,2.349139 0.89386,0.893859 1.995,1.092236 3.17223,0.571491 z M 97.457357,45.97103 c 1.222948,-0.687457 2.075026,-3.778484 1.55162,-5.628709 -0.08013,-0.28326 -0.320846,-0.240277 -0.541655,0.09672 -0.164571,0.251167 -0.247529,0.283343 -0.588042,0.228086 -0.466226,-0.07566 -0.923515,-0.464999 -0.923515,-0.786292 0,-0.294165 0.650284,-0.964334 0.935722,-0.964334 0.121479,0 0.313208,0.08356 0.426064,0.185696 0.454802,0.411589 0.397715,-0.180317 -0.08972,-0.930238 -0.536141,-0.824859 -1.600527,-1.173589 -2.369038,-0.776176 -0.370488,0.191586 -0.934711,0.960069 -1.34016,1.825321 -0.289498,0.617807 -0.302683,0.723882 -0.302683,2.435208 v 1.789264 l 0.407415,0.853134 c 0.847314,1.774284 1.728052,2.294002 2.833988,1.67232 z m 21.615023,-0.0808 c 0.83861,-0.63964 1.45251,-2.090912 1.55978,-3.687363 0.0685,-1.019739 -0.0404,-2.168071 -0.20571,-2.168071 -0.06,0 -0.21996,0.125861 -0.3554,0.279692 -0.13544,0.153831 -0.40646,0.310423 -0.60228,0.347983 -0.28688,0.05503 -0.41177,0.01255 -0.64302,-0.218694 -0.3853,-0.385299 -0.36865,-0.791837 0.0495,-1.210038 0.29953,-0.299523 0.38562,-0.328245 0.78281,-0.261141 0.39348,0.06648 0.44626,0.04964 0.44626,-0.142347 0,-0.271189 -0.81116,-1.206786 -1.23737,-1.427187 -0.17442,-0.0902 -0.5472,-0.163994 -0.82841,-0.163994 -0.44072,0 -0.57799,0.06149 -0.99464,0.445547 -1.04601,0.964174 -1.58437,3.040802 -1.31976,5.090678 0.15095,1.169405 0.49669,1.97492 1.15508,2.691193 0.81966,0.891721 1.42597,1.008868 2.19311,0.423742 z M 87.396914,39.471706 c 0.42317,-0.155318 0.932739,-0.792159 1.041361,-1.301455 0.263029,-1.233259 -0.540852,-2.312036 -1.577903,-2.117483 -0.905887,0.169945 -1.87389,1.486612 -1.715126,2.332895 0.18986,1.012043 1.167953,1.483806 2.251668,1.086043 z m 5.748982,-4.46375 c 0.39907,-0.284164 0.790485,-0.979579 0.790485,-1.404432 0,-0.690227 -0.663747,-1.396765 -1.312171,-1.396765 -1.215077,0 -2.170163,1.345036 -1.658152,2.335156 0.410254,0.793342 1.4177,1.00873 2.179838,0.466041 z M 87.450071,34.72303 c 0.902198,-0.466545 1.298736,-1.831507 0.763494,-2.6281 -0.346423,-0.515576 -0.942945,-0.808374 -1.443117,-0.708339 -0.53864,0.107728 -1.515946,1.104104 -1.618341,1.649921 -0.124174,0.661903 0.01407,1.203231 0.394978,1.546614 0.285463,0.257342 0.442128,0.30753 0.959984,0.30753 0.340367,0 0.764717,-0.07543 0.943002,-0.167626 z m 3.652809,-4.090658 c 0.652123,-0.315686 1.432682,-1.210039 1.664059,-1.906651 0.264031,-0.794922 0.183096,-1.732286 -0.199489,-2.31041 -1.036514,-1.566279 -3.653314,-1.000979 -4.549432,0.9828 -0.422701,0.935752 -0.226404,2.387648 0.39499,2.921516 0.690499,0.593238 1.835458,0.72636 2.689872,0.312745 z m 6.317587,-1.23162 c 0.552873,-0.280145 0.839086,-0.673676 0.994259,-1.36706 0.170584,-0.76225 0.0046,-1.408041 -0.463192,-1.801622 -0.32942,-0.277189 -0.632713,-0.340239 -1.387171,-0.288372 -1.023283,0.07035 -1.837832,1.232822 -1.702867,2.430224 0.137469,1.219626 1.276489,1.676676 2.558971,1.02683 z m -1.546222,-4.615417 c 0.457207,-0.191033 0.928168,-0.741615 1.068208,-1.248798 0.21796,-0.789384 -0.252621,-1.520265 -1.086163,-1.686974 -0.435807,-0.08716 -1.428177,0.438178 -1.714445,0.90759 -0.240183,0.393844 -0.265526,1.219337 -0.04941,1.609265 0.300256,0.541729 1.060239,0.720407 1.781805,0.418917 z" transform="matrix(4.867969,0,0,4.867969,-59.449507,42.184767)" /></g><g id="Outline" style="display:inline" transform="matrix(0.20542448,0,0,0.20542448,12.212384,-8.6657839)"><rect style="fill:none;stroke:#000000;stroke-width:1.33306;stroke-dasharray:none;stroke-opacity:1" id="rect1" width="154.88843" height="115.74319" x="2.0926507" y="1.7971287" transform="matrix(4.8679691,0,0,4.8679691,-59.449507,42.184767)" /><path style="font-size:22.325px;font-family:'Comic Sans MS';-inkscape-font-specification:'Comic Sans MS';display:inline;fill:#000000;fill-opacity:1;stroke:none;stroke-width:6.43992;stroke-opacity:1" d="m 511.50571,584.74849 q 0,0.38153 -0.67585,1.11189 -0.50144,0.50144 -0.99198,1.00288 -1.21,1.37351 -1.89675,3.92431 -0.59955,2.22378 -0.59955,4.37126 0,5.53764 2.5072,8.12115 0.50144,0.39243 1.01378,0.78486 0.63225,0.50144 0.63225,0.99198 0,0.35973 -0.28342,0.62135 -0.28342,0.27253 -0.65405,0.27253 -0.32703,0 -0.78487,-0.25072 -4.61107,-2.58351 -4.61107,-10.79187 0,-2.95414 1.1882,-5.98459 1.3299,-3.36837 3.48828,-4.88359 0.43603,-0.30523 0.68675,-0.30523 0.39244,0 0.68676,0.31613 0.29432,0.30522 0.29432,0.69766 z m 7.03107,17.17978 q -2.23468,0 -3.7281,-1.35171 -1.56973,-1.41711 -1.56973,-3.739 0,-2.21288 1.47162,-4.56747 1.63513,-2.61621 3.6845,-2.61621 1.06828,0 2.38729,0.50144 1.66784,0.64315 1.66784,1.56973 0,0.41423 -0.27253,0.74126 -0.27252,0.31612 -0.67585,0.31612 -0.31613,0 -0.55595,-0.18531 -0.22891,-0.19622 -0.44693,-0.38153 -0.64315,-0.51234 -2.10387,-0.51234 -1.11189,0 -2.20198,1.98396 -0.99198,1.82044 -0.99198,3.15035 0,1.43892 0.98108,2.26738 0.91567,0.77397 2.35459,0.77397 0.65405,0 1.39531,-0.34883 l 1.2645,-0.67586 q 0.32703,-0.17441 0.46874,-0.17441 0.40333,0 0.69766,0.32703 0.29432,0.31612 0.29432,0.73035 0,0.79577 -1.67873,1.53703 -1.47162,0.65405 -2.4418,0.65405 z m 12.61232,-7.02016 q 0,8.20836 -4.62198,10.79187 -0.44693,0.25072 -0.77396,0.25072 -0.37063,0 -0.65405,-0.27253 -0.28342,-0.26162 -0.28342,-0.62135 0,-0.49054 0.63225,-0.99198 0.50144,-0.39243 1.01378,-0.78486 2.5072,-2.58351 2.5072,-8.12115 0,-2.14748 -0.59955,-4.37126 -0.69765,-2.5508 -1.89675,-3.92431 -0.50144,-0.50144 -0.99198,-1.00288 -0.67586,-0.73036 -0.67586,-1.11189 0,-0.39244 0.28343,-0.69766 0.29432,-0.31613 0.68675,-0.31613 0.25072,0 0.69766,0.30523 2.15837,1.51522 3.48828,4.88359 1.1882,3.03045 1.1882,5.98459 z m 24.97391,7.23818 q -0.58865,0 -0.97018,-0.61045 -0.32703,-0.52324 -0.58865,-1.74414 l -0.39243,-1.87495 q -0.44693,-1.74414 -1.41711,-7.69602 l -2.18018,6.57323 -0.64315,2.07116 q -0.39243,1.2318 -0.81757,2.01667 -0.45783,0.82846 -1.2318,0.82846 -0.64315,0 -1.01378,-0.69765 -0.23982,-0.45784 -0.43603,-1.1664 l -0.31613,-1.20999 q -1.10099,-3.84801 -1.94035,-8.24107 l -0.39244,1.95126 -1.40621,5.75566 q -0.0872,1.01378 -0.54504,2.99774 -0.32703,0.85027 -1.07919,0.85027 -0.53414,0 -0.85027,-0.38153 -0.27252,-0.32702 -0.27252,-0.80666 0,-1.82045 0.75216,-4.46936 l 1.1991,-4.39306 0.63225,-3.43377 q 0.47964,-2.4091 1.01378,-3.15036 0.43603,-0.63225 1.07919,-0.63225 0.70855,0 1.05738,0.80667 0.42514,0.97017 0.91568,3.95701 0.57774,3.58639 1.79864,7.76143 1.61333,-4.19684 2.79063,-8.7425 l 0.32702,-1.59153 q 0.19622,-0.95928 0.51234,-1.54793 0.42514,-0.80666 1.1664,-0.80666 0.93747,0 1.42801,1.80954 0.17442,0.62135 0.42514,2.57261 0.64315,4.9272 1.60243,8.41548 l 0.53414,1.87495 q 0.41423,1.50432 0.41423,1.85315 0,0.46874 -0.35973,0.78486 -0.34882,0.31613 -0.79576,0.31613 z m 12.02367,-0.18532 q -0.20711,0 -0.75216,-0.47963 -0.49054,-0.44694 -0.73036,-0.79577 -1.04648,0.56685 -1.84225,0.85027 -0.79576,0.29432 -1.3299,0.29432 -2.55081,0 -3.7172,-1.43891 -1.10099,-1.35171 -1.10099,-4.14234 0,-2.63801 1.80954,-4.51296 1.82045,-1.87495 4.33855,-1.87495 0.94838,0 2.12568,0.49054 1.48252,0.61045 1.48252,1.47162 0,0.29432 -0.21802,0.52324 -0.10901,0.41423 -0.17442,1.36261 -0.0545,0.94838 -0.0654,2.43089 -0.0109,1.35171 0.18531,2.13658 0.10901,0.47964 0.68676,1.91855 0.0763,0.19622 0.25072,0.57775 l 0.0654,0.18531 q 0,0.43604 -0.30522,0.71946 -0.30522,0.28342 -0.70856,0.28342 z m -2.26738,-7.57611 q 0,-0.46873 0.0545,-1.01378 0.0654,-0.55594 0.18532,-1.17729 -0.40333,-0.20712 -0.69766,-0.30523 -0.28342,-0.0981 -0.45783,-0.0981 -1.68964,0 -2.92144,1.38442 -1.2209,1.37351 -1.2209,3.17215 0,1.78775 0.63225,2.68162 0.63225,0.89387 1.89676,0.89387 1.04648,0 1.77684,-0.38153 0.39243,-0.20712 1.10099,-0.82847 -0.34883,-2.88873 -0.34883,-4.32765 z m 14.14934,2.15838 -0.25072,3.66269 q -0.0654,2.18018 -0.44694,3.56459 -0.49054,1.76594 -1.56972,2.60531 -1.30811,1.01378 -3.78261,1.01378 -1.44982,0 -2.4309,-0.19621 -1.37351,-0.27253 -1.37351,-1.1337 0,-0.97017 0.94838,-0.97017 0.39243,0 1.30811,0.18531 0.91567,0.19622 2.02756,0.17442 2.09297,-0.0327 2.88873,-2.02757 0.52324,-1.32991 0.55595,-4.08783 -0.58865,1.09009 -1.40622,1.63513 -0.80666,0.54505 -1.85315,0.54505 -1.97306,0 -3.21576,-1.34081 -1.2318,-1.35171 -1.2318,-3.49918 0,-2.94324 1.68964,-4.74188 1.74414,-1.85315 4.75278,-1.85315 1.01379,0 1.70054,0.26162 0.68676,0.26162 1.04649,0.78486 1.16639,0.0327 1.16639,1.2972 0,0.77397 -0.22892,2.07117 -0.25072,1.50432 -0.29432,2.04937 z m -3.49918,-4.72008 q -2.07117,0 -3.20486,1.42801 -1.01378,1.28631 -1.01378,3.27027 0,1.58062 0.59954,2.37639 0.59955,0.79576 1.79865,0.79576 1.10099,0 2.13657,-1.2427 0.93748,-1.14459 1.06829,-2.26738 0.22892,-1.1773 0.49054,-3.6954 -0.43604,-0.33793 -0.90478,-0.50144 -0.46873,-0.16351 -0.97017,-0.16351 z m 8.45908,-4.38216 q -0.52324,0 -0.90477,-0.37063 -0.38153,-0.37063 -0.38153,-0.89387 0,-0.52324 0.38153,-0.89387 0.38153,-0.37063 0.90477,-0.37063 0.52324,0 0.89387,0.37063 0.38153,0.37063 0.38153,0.89387 0,0.52324 -0.38153,0.89387 -0.37063,0.37063 -0.89387,0.37063 z m 0.49054,8.85152 q 0,0.65405 0.0327,1.96216 0.0436,1.2972 0.0436,1.95125 0,0.47964 -0.29433,0.78487 -0.29432,0.30522 -0.77396,0.30522 -0.46874,0 -0.77396,-0.30522 -0.29433,-0.30523 -0.29433,-0.78487 0,-0.65405 -0.0436,-1.95125 -0.0327,-1.30811 -0.0327,-1.96216 0,-1.02469 0.10901,-2.55081 0.10901,-1.53702 0.10901,-2.56171 0,-0.49054 0.29432,-0.79576 0.30522,-0.30522 0.77396,-0.30522 0.46874,0 0.76306,0.30522 0.30523,0.30522 0.30523,0.79576 0,1.02469 -0.10901,2.56171 -0.10901,1.52612 -0.10901,2.55081 z m 8.61169,5.63575 q -2.23468,0 -3.7281,-1.35171 -1.56972,-1.41711 -1.56972,-3.739 0,-2.21288 1.47161,-4.56747 1.63514,-2.61621 3.6845,-2.61621 1.06829,0 2.38729,0.50144 1.66784,0.64315 1.66784,1.56973 0,0.41423 -0.27252,0.74126 -0.27253,0.31612 -0.67586,0.31612 -0.31612,0 -0.55594,-0.18531 -0.22892,-0.19622 -0.44694,-0.38153 -0.64315,-0.51234 -2.10387,-0.51234 -1.11189,0 -2.20198,1.98396 -0.99198,1.82044 -0.99198,3.15035 0,1.43892 0.98108,2.26738 0.91568,0.77397 2.35459,0.77397 0.65406,0 1.39532,-0.34883 l 1.2645,-0.67586 q 0.32702,-0.17441 0.46874,-0.17441 0.40333,0 0.69765,0.32703 0.29433,0.31612 0.29433,0.73035 0,0.79577 -1.67874,1.53703 -1.47162,0.65405 -2.4418,0.65405 z m 9.52737,-7.08557 q -0.30522,0 -1.3299,-0.14171 -0.0872,1.64603 -0.0872,5.76656 0,0.43604 -0.28342,0.74126 -0.28343,0.29433 -0.70856,0.29433 -0.43604,0 -0.71946,-0.29433 -0.28342,-0.30522 -0.28342,-0.74126 v -3.20485 q 0,-1.60243 0.19621,-4.51297 0.21802,-3.15035 0.23982,-4.51296 v -1.50432 q 0,-1.07919 0.13081,-1.56973 0.25073,-0.95928 1.06829,-0.82847 0.34883,-0.10901 0.99198,-0.16351 0.64315,-0.0545 1.58063,-0.0545 1.99486,0 3.739,1.36261 1.91855,1.50433 1.91855,3.6191 0,2.70341 -2.04936,4.30584 -1.83135,1.43892 -4.40396,1.43892 z m 0.54505,-8.6553 q -0.47964,0 -0.86117,0.0218 -0.37063,0.0218 -0.63225,0.0654 l -0.0218,2.00576 -0.22892,4.33855 1.19909,0.14171 q 1.83135,0 3.08495,-0.92657 1.37351,-1.01378 1.37351,-2.73612 0,-1.2209 -1.3081,-2.10387 -1.21,-0.80667 -2.60531,-0.80667 z m 13.17916,15.55556 q -2.4636,0 -3.98972,-1.2318 -1.66783,-1.36261 -1.66783,-3.81531 0,-2.83423 1.37351,-4.75278 1.49342,-2.09297 3.98972,-2.09297 1.80954,0 2.95414,0.61045 1.40621,0.75216 1.40621,2.31098 0,1.09009 -1.2318,1.98396 -0.54504,0.39243 -2.31099,1.2209 l -4.16413,1.97306 q 0.61045,0.90477 1.51522,1.36261 0.91567,0.45784 2.12567,0.45784 0.75216,0 1.76594,-0.28343 1.28631,-0.35972 1.65694,-0.93747 0.37063,-0.58865 0.79576,-0.58865 0.38153,0 0.67586,0.29433 0.30522,0.28342 0.30522,0.66495 0,1.21 -1.95126,2.08207 -1.66783,0.74126 -3.24846,0.74126 z m -0.29432,-9.9307 q -1.32991,0 -2.21288,1.03558 -0.88297,1.02468 -1.31901,3.09585 l 3.34657,-1.59153 q 1.97306,-0.95928 2.81243,-1.66783 -0.93747,-0.87207 -2.62711,-0.87207 z m 15.79537,10.20322 q -0.93748,0 -1.05739,-1.02468 l -0.30522,-2.3873 q -0.15261,-1.2754 -0.15261,-2.38729 0,-0.30522 0.0327,-1.03558 0.0436,-0.73036 0.0436,-1.03559 0,-2.35459 -0.87207,-2.35459 -1.2209,0 -2.33279,1.44982 -1.00288,1.31901 -1.56972,3.33567 -0.0218,0.42513 -0.0981,1.06829 -0.0654,0.54504 -0.0654,1.05738 0,0.32703 0.0654,0.98108 0.0654,0.65405 0.0654,0.98108 0,0.49054 -0.30522,0.79576 -0.29432,0.30523 -0.76306,0.30523 -0.47964,0 -0.77396,-0.30523 -0.29433,-0.30522 -0.29433,-0.79576 0,-0.32703 -0.0763,-0.98108 -0.0654,-0.65405 -0.0654,-0.98108 0,-1.12279 0.15261,-3.10675 0.16352,-1.99486 0.16352,-3.11765 0,-0.34883 -0.0436,-1.03558 -0.0327,-0.68676 -0.0327,-1.03559 0,-0.46874 0.30522,-0.76306 0.31613,-0.30522 0.77397,-0.30522 1.00288,0 1.10099,1.41711 l 0.0327,1.2754 q 1.83135,-2.44179 3.7608,-2.44179 1.74414,0 2.4309,1.53702 0.46874,1.02468 0.51234,3.03044 v 1.10099 l -0.0109,1.01379 q 0,0.90477 0.22892,2.34368 0.23982,1.42802 0.23982,2.32189 0,0.47964 -0.31613,0.77396 -0.30522,0.30523 -0.77396,0.30523 z m 8.25196,-0.0872 q -2.23468,0 -3.7281,-1.35171 -1.56973,-1.41711 -1.56973,-3.739 0,-2.21288 1.47162,-4.56747 1.63513,-2.61621 3.6845,-2.61621 1.06828,0 2.38729,0.50144 1.66783,0.64315 1.66783,1.56973 0,0.41423 -0.27252,0.74126 -0.27252,0.31612 -0.67585,0.31612 -0.31613,0 -0.55595,-0.18531 -0.22892,-0.19622 -0.44693,-0.38153 -0.64316,-0.51234 -2.10387,-0.51234 -1.11189,0 -2.20198,1.98396 -0.99198,1.82044 -0.99198,3.15035 0,1.43892 0.98108,2.26738 0.91567,0.77397 2.35459,0.77397 0.65405,0 1.39531,-0.34883 l 1.2645,-0.67586 q 0.32703,-0.17441 0.46874,-0.17441 0.40333,0 0.69766,0.32703 0.29432,0.31612 0.29432,0.73035 0,0.79577 -1.67873,1.53703 -1.47162,0.65405 -2.4418,0.65405 z m 8.6226,-14.48727 q -0.52325,0 -0.90478,-0.37063 -0.38153,-0.37063 -0.38153,-0.89387 0,-0.52324 0.38153,-0.89387 0.38153,-0.37063 0.90478,-0.37063 0.52324,0 0.89387,0.37063 0.38153,0.37063 0.38153,0.89387 0,0.52324 -0.38153,0.89387 -0.37063,0.37063 -0.89387,0.37063 z m 0.49054,8.85152 q 0,0.65405 0.0327,1.96216 0.0436,1.2972 0.0436,1.95125 0,0.47964 -0.29432,0.78487 -0.29433,0.30522 -0.77396,0.30522 -0.46874,0 -0.77397,-0.30522 -0.29432,-0.30523 -0.29432,-0.78487 0,-0.65405 -0.0436,-1.95125 -0.0327,-1.30811 -0.0327,-1.96216 0,-1.02469 0.10901,-2.55081 0.10901,-1.53702 0.10901,-2.56171 0,-0.49054 0.29433,-0.79576 0.30522,-0.30522 0.77396,-0.30522 0.46874,0 0.76306,0.30522 0.30522,0.30522 0.30522,0.79576 0,1.02469 -0.109,2.56171 -0.10901,1.52612 -0.10901,2.55081 z m 6.45332,-3.61909 -0.16351,5.41773 q 0,0.86117 -0.0872,2.52901 -0.10901,1.09008 -1.06828,1.09008 -1.06829,0 -1.06829,-1.11189 0,-1.319 0.11991,-3.95701 0.11991,-2.64892 0.11991,-3.96792 0,-1.72234 0.0545,-3.93522 0.0545,-2.22378 0.0545,-3.94612 0,-1.09009 1.06828,-1.09009 1.07919,0 1.07919,1.09009 0,1.72234 -0.0545,3.94612 -0.0545,2.21288 -0.0545,3.93522 z m 4.74188,9.58187 q -0.56685,0 -0.95928,-0.39243 -0.39243,-0.39244 -0.39243,-0.95928 0,-0.55595 0.39243,-0.94838 0.39243,-0.40333 0.95928,-0.40333 0.55594,0 0.94838,0.40333 0.40333,0.39243 0.40333,0.94838 0,0.56684 -0.40333,0.95928 -0.39244,0.39243 -0.94838,0.39243 z m 11.48953,-16.34042 q -2.63802,0 -2.95414,3.6627 l -0.0327,0.67585 q 1.85315,-0.13081 2.3982,-0.13081 1.73324,0 1.73324,1.09009 0,0.79576 -0.85027,0.94837 -0.37063,0.0654 -0.87207,0.0545 -0.49054,-0.0218 -2.5072,0.14171 l -0.0872,2.4854 q 0,0.67585 0.0436,2.02756 0.0436,1.35171 0.0436,2.01667 0,2.07116 -0.23982,3.22666 -0.18532,0.87207 -1.01378,0.87207 -0.44694,0 -0.76307,-0.29433 -0.31612,-0.28342 -0.31612,-0.71945 0,-0.0872 0.0218,-0.21802 0.22892,-1.41712 0.22892,-3.08495 l -0.0327,-2.97594 v -3.16126 q -1.36261,0.10901 -1.72234,0.10901 -1.10099,0 -1.10099,-1.05738 0,-1.07919 1.90765,-1.13369 l 1.04649,-0.0327 q 0.0327,-0.61045 0.16351,-1.65693 0.28342,-2.42 1.2209,-3.56459 1.13369,-1.38441 3.54278,-1.38441 1.55883,0 1.55883,1.05739 0,1.04648 -1.41711,1.04648 z m 12.91755,8.96052 q 0,0.78487 0.0109,2.35459 0.0109,1.56973 0.0109,2.35459 0,0.23982 0.0327,0.73036 0.0436,0.49054 0.0436,0.73036 0,0.46874 -0.31612,0.76306 -0.31613,0.30523 -0.77396,0.30523 -0.83937,0 -1.06829,-1.03559 -1.36261,0.70856 -3.13945,0.70856 -1.42802,0 -2.36549,-0.63225 -1.03559,-0.69766 -1.2318,-2.03847 -0.42514,-2.88873 -0.42514,-5.14521 0,-1.49342 0.32703,-3.40107 0.15261,-0.94838 1.03558,-0.94838 0.46874,0 0.78487,0.30522 0.31612,0.29433 0.31612,0.76306 0,0.50145 -0.16351,1.60243 -0.15261,1.10099 -0.15261,1.67874 0,1.82045 0.11991,3.11765 0.1199,1.29721 0.35972,2.08207 0.35973,0.19621 0.70856,0.30522 0.34883,0.0981 0.68676,0.0981 1.46071,0 3.08495,-0.46874 l -0.0109,-2.21287 -0.0218,-2.11478 q 0,-2.35459 0.20712,-4.08783 0.11991,-1.00288 1.05738,-1.00288 0.46874,0 0.78487,0.30523 0.31612,0.30522 0.29432,0.76306 z m 11.07529,7.14008 q -0.93748,0 -1.05739,-1.02468 l -0.30522,-2.3873 q -0.15261,-1.2754 -0.15261,-2.38729 0,-0.30522 0.0327,-1.03558 0.0436,-0.73036 0.0436,-1.03559 0,-2.35459 -0.87207,-2.35459 -1.2209,0 -2.33279,1.44982 -1.00288,1.31901 -1.56972,3.33567 -0.0218,0.42513 -0.0981,1.06829 -0.0654,0.54504 -0.0654,1.05738 0,0.32703 0.0654,0.98108 0.0654,0.65405 0.0654,0.98108 0,0.49054 -0.30523,0.79576 -0.29432,0.30523 -0.76306,0.30523 -0.47964,0 -0.77396,-0.30523 -0.29433,-0.30522 -0.29433,-0.79576 0,-0.32703 -0.0763,-0.98108 -0.0654,-0.65405 -0.0654,-0.98108 0,-1.12279 0.15261,-3.10675 0.16352,-1.99486 0.16352,-3.11765 0,-0.34883 -0.0436,-1.03558 -0.0327,-0.68676 -0.0327,-1.03559 0,-0.46874 0.30523,-0.76306 0.31612,-0.30522 0.77396,-0.30522 1.00288,0 1.10099,1.41711 l 0.0327,1.2754 q 1.83135,-2.44179 3.7608,-2.44179 1.74414,0 2.4309,1.53702 0.46874,1.02468 0.51234,3.03044 v 1.10099 l -0.0109,1.01379 q 0,0.90477 0.22892,2.34368 0.23982,1.42802 0.23982,2.32189 0,0.47964 -0.31613,0.77396 -0.30522,0.30523 -0.77396,0.30523 z" id="text1" aria-label="(c) MagicPencil.fun" /><text xml:space="preserve" id="text3" style="font-style:normal;font-variant:normal;font-weight:normal;font-stretch:normal;font-size:12px;font-family:Arial;-inkscape-font-specification:Arial;text-align:start;writing-mode:lr-tb;direction:ltr;white-space:pre;shape-inside:url(#rect3);display:inline;fill:#000000;stroke-width:5" transform="matrix(4.867969,0,0,4.867969,542.52465,51.423206)"><tspan x="-34.792969" y="100.63913" id="tspan1">Jellyfish</tspan></text><g id="text27" style="font-size:48px;font-family:'Comic Sans MS';-inkscape-font-specification:'Comic Sans MS';white-space:pre;fill:none;stroke:#000000;stroke-width:0.890761" ns2:label="BaseText" transform="matrix(5.4649548,0,0,5.4649548,-85.031275,0.67005549)" aria-label="Jj"><path d="m 42.605469,47.436191 q -0.421875,0 -1.453125,-0.164063 -1.007813,-0.1875 -1.570313,-0.1875 -1.148437,0 -2.695312,0.07031 l 0.117187,2.789062 q 0,17.4375 -2.320312,25.382813 -1.546875,5.25 -5.414063,5.25 -4.078125,0 -8.085937,-2.953125 -4.429688,-3.28125 -4.429688,-7.523438 0,-2.882812 2.367188,-2.882812 2.367187,0 2.367187,2.835937 0,1.945313 2.765625,3.867188 2.648438,1.828125 5.015625,1.828125 1.921875,0 2.671875,-11.789063 0.351563,-5.578125 0.351563,-14.015625 0,-0.65625 -0.117188,-2.53125 l -1.429687,0.02344 q -0.914063,0 -2.765625,-0.04687 -1.828125,-0.07031 -2.765625,-0.07031 -1.03125,0 -1.734375,-0.65625 -0.703125,-0.65625 -0.703125,-1.78125 0,-2.414062 3.257812,-2.414062 0.796875,0 2.367188,0.07031 1.570312,0.07031 2.34375,0.07031 1.476562,0 4.40625,-0.164063 2.953125,-0.1875 4.429687,-0.1875 5.34375,0 5.34375,2.71875 0,0.9375 -0.632812,1.664063 -0.679688,0.796875 -1.6875,0.796875 z" id="path1" /><path style="font-size:33.2551px" d="m 54.055728,57.223446 q -0.779416,0 -1.34774,-0.552087 -0.552087,-0.552086 -0.552087,-1.315265 0,-0.779416 0.552087,-1.331503 0.568324,-0.552087 1.34774,-0.552087 0.779417,0 1.347741,0.552087 0.568325,0.552087 0.568325,1.331503 0,0.763179 -0.568325,1.315265 -0.568324,0.552087 -1.347741,0.552087 z m -0.129902,24.308049 q 0.01624,-1.899827 -0.552087,-9.726467 l -0.552087,-8.947051 q 0,-0.811892 0.45466,-1.445168 0.470897,-0.633276 1.185362,-0.633276 0.552087,0 1.104174,0.405946 0.552086,0.405946 0.584562,0.82813 l 0.535849,9.352997 0.438422,10.002511 q 0,2.25706 -1.347741,4.091936 -1.461406,1.997254 -3.556088,1.997254 -3.491136,0 -5.845623,-5.374725 -0.194854,-0.438422 -0.194854,-0.779417 0,-0.649513 0.503373,-1.120411 0.519611,-0.470897 1.169125,-0.470897 0.958032,0 1.997254,2.110919 0.259806,0.552087 0.90932,1.591309 0.633275,0.811892 1.461405,0.811892 0.714465,0 1.217838,-1.071698 0.389709,-0.811892 0.487136,-1.623784 z" id="path4" /></g><path style="fill:#000000;stroke-width:4.86797" d="m 401.1121,489.10409 c -8.66654,-3.93336 -13.22744,-11.17072 -13.2639,-21.04735 -0.0292,-8.54456 2.47799,-13.16084 10.6427,-19.57723 7.21472,-5.66981 11.7023,-12.24276 14.87977,-21.7942 5.19544,-15.61749 5.59067,-32.66006 1.19898,-51.69891 -2.38477,-10.33842 -3.8381,-19.7307 -4.94327,-31.94643 -0.5329,-5.89056 -0.73765,-6.33836 -3.11779,-6.81879 -1.40105,-0.28283 -3.26573,-0.79219 -4.14367,-1.13194 -2.62033,-1.01408 -3.71474,4.96622 -4.60733,25.17685 -0.86339,19.54859 -2.37027,29.62744 -6.30816,42.19133 -6.17551,19.70324 -17.77495,34.35 -32.68632,41.27331 -17.80552,8.26708 -32.99198,7.91416 -41.41366,-0.96242 -6.88681,-7.25872 -8.26713,-18.0045 -3.41576,-26.59152 3.95961,-7.00861 8.74735,-10.14107 17.92347,-11.72665 6.66221,-1.15119 7.85515,-1.6809 10.40865,-4.62191 6.14284,-7.07495 8.79233,-18.84665 9.9731,-44.31062 0.4722,-10.18551 1.49685,-21.08329 2.2768,-24.21729 1.93886,-7.79084 1.96812,-7.67318 -2.3358,-9.39527 -8.44407,-3.37864 -16.14369,-13.44838 -16.10124,-21.05746 0.0292,-4.81602 2.81553,-10.91391 6.21333,-13.5866 2.63902,-2.07589 2.6527,-2.13935 1.04598,-4.85933 -7.23527,-12.24829 -11.01578,-33.63838 -9.1753,-51.91366 2.99054,-29.69513 13.61669,-50.4692 37.45966,-73.23344 19.3731,-18.49658 42.25041,-30.98762 67.67562,-36.95092 10.83454,-2.54118 33.47834,-2.29965 46.33718,0.49425 13.79611,2.99754 23.32711,6.34353 35.11071,12.32611 25.11132,12.74907 48.05036,35.8217 58.84703,59.1896 3.77146,8.16284 8.47455,26.00808 10.09884,38.3188 2.34232,17.75249 -0.7907,39.44885 -7.30843,50.61124 l -2.38004,4.07607 2.97613,3.38959 c 3.68247,4.19409 4.7542,6.92024 4.72738,12.02511 -0.0438,8.52216 -7.12695,17.65462 -16.83626,21.71012 -2.74227,1.14541 -4.98208,2.53814 -4.97735,3.09494 0.0438,5.38553 6.86349,49.49993 7.98551,51.66967 2.09741,4.05593 7.80399,8.43865 13.84898,10.63618 2.87283,1.04436 7.11498,2.59559 9.42707,3.44718 6.21352,2.28862 11.88943,8.4055 13.3155,14.35005 2.32976,9.71139 -3.5082,20.64887 -13.75211,25.76494 -6.64225,3.3173 -17.0964,2.52158 -27.71471,-2.1095 -15.48146,-6.75212 -23.98887,-13.5149 -31.71793,-25.21353 -6.69672,-10.13611 -9.63225,-20.29513 -12.66169,-43.81837 -3.10606,-24.11869 -3.21928,-24.69213 -4.87498,-24.69213 -1.62605,0 -1.62103,-0.32679 -0.2765,18.09581 1.17245,16.0631 0.25946,32.48998 -2.53665,45.65049 -3.41332,16.06412 -0.77357,31.22344 5.43699,31.22344 0.97861,0 4.33677,-1.29102 7.46264,-2.86894 3.12582,-1.57791 7.53606,-3.12288 9.80049,-3.43326 5.97563,-0.81905 13.73541,1.70164 18.00584,5.84902 5.4861,5.32807 6.77801,8.49589 6.79943,16.67251 0.0243,10.15134 -2.91903,14.85438 -13.16401,21.0178 -4.08895,2.45991 -9.84702,5.19689 -12.7958,6.08217 -8.11193,2.4354 -20.57169,2.81615 -28.50838,0.87117 -17.83225,-4.37002 -32.7459,-20.3875 -38.22665,-41.05601 -2.544,-9.59352 -2.75858,-28.73058 -0.43958,-39.20261 2.82917,-12.77627 3.56423,-24.60708 2.45326,-39.48622 -0.56585,-7.57808 -1.25642,-14.37153 -1.53467,-15.09656 -0.38409,-1.00067 -2.46198,-1.27928 -8.62629,-1.15655 l -8.12045,0.16167 0.54959,7.12273 c 0.3023,3.9175 1.88663,13.3195 3.52086,20.89334 10.90921,50.55974 -3.16574,97.7473 -35.57405,119.26521 -5.12923,3.40562 -6.21357,3.74165 -12.8087,3.9693 -4.55666,0.15728 -8.25232,-0.22661 -10.05415,-1.04439 z m 16.58775,-6.86267 c 7.33988,-3.41654 20.15242,-16.68358 25.48168,-26.38562 7.95752,-14.48666 12.32059,-31.2031 13.17535,-50.47908 0.62047,-13.99236 -0.54355,-25.72827 -3.95629,-39.88729 -1.25896,-5.22334 -2.74773,-13.74605 -3.30832,-18.93937 -0.5606,-5.19332 -1.11506,-9.49958 -1.23213,-9.56948 -5.54842,-3.3125 -7.27494,-4.54358 -9.10676,-6.49344 l -2.21361,-2.35627 -4.242,3.238 c -2.33312,1.7809 -6.67174,3.91222 -9.6414,4.73626 -2.9697,0.82405 -5.84842,1.63658 -6.39724,1.80564 -1.54845,0.47702 0.11683,15.77325 3.50499,32.19409 5.65224,27.39421 4.43924,49.52866 -3.62124,66.07909 -3.26222,6.69821 -6.88331,10.93218 -17.6016,20.58075 -8.40771,7.56861 -6.08783,21.3495 4.39558,26.11081 5.23088,2.37575 8.60852,2.23068 14.76299,-0.63409 z m 119.87978,-15.26288 c 9.72586,-3.50386 16.4142,-8.00022 18.7704,-12.61873 3.991,-7.82298 1.30768,-17.13012 -6.20866,-21.53499 -5.59787,-3.28056 -10.48453,-3.00816 -18.70746,1.04282 -3.71095,1.82816 -8.10409,3.32394 -9.76261,3.32394 -6.2773,0 -11.06733,-6.66363 -12.79517,-17.79989 -1.04783,-6.75352 -0.92082,-8.12404 2.48783,-26.83589 1.82456,-10.01634 2.33151,-33.06563 1.02578,-46.64221 l -0.78667,-8.17947 -6.02781,-0.56288 c -7.2263,-0.67481 -11.37367,-2.28713 -15.73639,-6.11763 l -3.25575,-2.85857 -4.1346,3.66917 -4.13466,3.66918 1.18476,13.37173 c 1.45197,16.38809 0.76009,33.40373 -1.86608,45.89204 -7.62952,36.2806 6.81369,67.13962 34.72147,74.18517 7.39055,1.8658 16.49112,1.1429 25.22562,-2.00379 z M 346.50449,441.74013 c 7.83563,-1.84141 16.68862,-7.21119 23.1083,-14.01641 14.21613,-15.06985 19.91822,-33.43799 21.51788,-69.31545 0.53606,-12.02287 1.26646,-18.93409 2.30182,-21.78077 l 1.51657,-4.1698 -4.10448,-4.38804 c -2.25747,-2.41341 -4.51124,-5.11481 -5.00836,-6.00311 -0.83135,-1.48558 -1.28938,-1.42427 -5.71241,0.76468 -3.08386,1.52618 -7.20348,2.58054 -11.48539,2.93952 l -6.67676,0.55975 -1.10381,4.38431 c -0.60709,2.41136 -1.51871,12.70364 -2.02591,22.87173 -0.97836,19.61491 -1.84574,26.19641 -4.76014,36.12017 -3.70287,12.60824 -10.98014,20.82788 -18.48884,20.88302 -16.58074,0.12174 -24.75255,17.90018 -13.1753,28.66389 4.85984,4.51832 12.21948,5.27775 24.09683,2.48651 z m 249.44116,-17.46722 c 4.18665,-2.38706 8.87655,-9.98539 8.87655,-14.38134 0,-6.17753 -4.73162,-10.64546 -15.32943,-14.47513 -14.78359,-5.34228 -20.41695,-10.46418 -23.15445,-21.05234 -0.72177,-2.79174 -2.41208,-13.62316 -3.75617,-24.06983 -3.40709,-26.48057 -2.4631,-23.86049 -8.834,-24.51802 -3.18799,-0.32903 -7.62022,-1.70494 -10.8379,-3.36444 -5.3757,-2.77245 -5.45208,-2.78271 -6.07615,-0.81635 -0.34758,1.09527 -2.73157,4.03637 -5.29762,6.53579 l -4.66556,4.54439 2.42488,17.35659 c 4.63339,33.1646 4.97035,34.72145 9.5585,44.163 6.0819,12.51549 14.10572,20.39514 27.36096,26.86941 14.46975,7.06749 21.61028,7.83803 29.73039,3.20827 z M 473.98331,329.91886 c 4.58597,-2.17886 8.32793,-6.75048 8.32793,-10.17449 0,-2.44602 1.79487,-4.11406 4.42693,-4.11406 1.71567,0 2.36165,0.79442 3.21106,3.94886 1.98136,7.35838 8.22502,11.22909 18.13216,11.241 6.6604,0.008 13.7765,-2.69833 18.55884,-7.05814 3.7756,-3.44206 4.31171,-4.4567 4.9718,-9.40958 0.40696,-3.05333 1.34006,-5.93149 2.07361,-6.39592 2.6822,-1.69808 4.7433,-0.90064 6.10682,2.36271 3.8623,9.24375 17.59445,11.83535 29.756,5.6157 13.08549,-6.69217 15.57774,-19.94135 4.79957,-25.51497 -1.5209,-0.78648 -2.76525,-2.00825 -2.76525,-2.71506 0,-0.7068 1.51092,-3.79421 3.35758,-6.86092 1.84672,-3.0667 4.48243,-8.99472 5.85714,-13.17339 2.25032,-6.83996 2.50516,-9.06547 2.55588,-22.31789 0.13485,-35.25155 -10.99538,-61.62531 -35.98977,-85.27996 -15.56109,-14.72701 -31.04713,-23.68603 -51.75663,-29.94245 -23.6282,-7.13816 -45.93533,-7.19233 -67.09069,-0.16293 -41.50255,13.79027 -75.84817,47.6235 -85.55952,84.28311 -2.33015,8.79619 -2.57604,11.28956 -2.55179,25.8789 0.0243,14.87687 0.2322,16.81614 2.64379,24.69214 1.43936,4.701 4.26254,11.55463 6.27384,15.23029 4.04932,7.40031 3.92139,8.88154 -0.94103,10.89561 -5.51969,2.28634 -7.45325,10.83469 -3.80436,16.81918 4.36194,7.1539 15.959,12.34237 25.40758,11.36719 6.27179,-0.6473 10.45173,-3.17874 13.12059,-7.94598 1.47835,-2.6407 2.65596,-3.62991 4.32125,-3.62991 2.08154,0 2.33394,0.4736 2.78404,5.22333 0.57651,6.08411 2.4518,9.26883 7.53016,12.78812 13.05935,9.05016 32.95737,5.51682 34.82852,-6.1846 0.31982,-2.00044 1.20321,-3.8757 1.96296,-4.16724 2.21293,-0.84918 4.74651,1.06952 5.34162,4.04527 1.02222,5.11104 6.70261,10.25802 13.94021,12.63119 4.28401,1.40471 15.33274,0.32275 20.16916,-1.9751 z M 452.85579,294.8861 c -6.41598,-3.39353 -12.49685,-17.24368 -7.57081,-17.24368 1.3901,0 2.51825,1.35979 4.13656,4.98591 2.78238,6.23458 5.47953,8.68973 9.54613,8.68973 4.56324,0 7.62402,-2.44269 10.54704,-8.41717 1.7199,-3.51531 3.14685,-5.25847 4.30465,-5.25847 2.63084,0 3.00319,1.45893 1.36994,5.36783 -4.80921,11.51008 -13.89284,16.34031 -22.33351,11.87585 z m -45.73413,-29.14449 c -1.47811,-0.80271 -3.65901,-3.66163 -5.22333,-6.84729 -2.35829,-4.80257 -2.68074,-6.51097 -2.64555,-14.01646 0.0341,-7.37869 0.38944,-9.21992 2.59414,-13.46708 1.40475,-2.70589 3.51181,-5.59059 4.68231,-6.41045 4.32144,-3.02685 9.83875,-1.18462 12.63252,4.21801 1.71226,3.31112 1.82919,4.57824 0.27943,3.02854 -0.6268,-0.6268 -1.69523,-1.13963 -2.37426,-1.13963 -1.6553,0 -5.03343,3.46004 -5.03343,5.1555 0,3.56498 7.00009,6.0539 8.20384,2.91692 1.9836,-5.16918 3.64845,4.10853 2.18893,12.19822 -1.28134,7.10181 -4.26492,12.69782 -7.72371,14.48642 -3.18171,1.64534 -4.36034,1.62626 -7.58099,-0.12272 z m 102.74277,-2.21746 c -2.08072,-2.18727 -4.03433,-5.54672 -4.83248,-8.30985 -1.90279,-6.58717 -1.48342,-16.91679 0.91187,-22.46157 4.19176,-9.70333 9.98921,-11.89967 15.87483,-6.01409 3.62727,3.62729 4.22808,5.76341 1.36542,4.85484 -4.37392,-1.38822 -7.8679,4.59763 -4.59439,7.8711 1.78591,1.78592 5.26154,1.33808 6.8137,-0.87797 1.37671,-1.96553 1.4303,-1.92652 2.07526,1.51144 1.48303,7.90525 -1.37394,19.32939 -5.98775,23.94319 -4.27588,4.27591 -7.19028,4.14629 -11.62646,-0.51709 z M 357.02009,232.40372 c -2.32139,-2.95117 -2.4706,-5.168 -0.59234,-8.80018 1.67619,-3.24135 5.374,-5.79205 8.39686,-5.79205 3.37598,0 6.37202,3.74702 6.37202,7.96926 0,7.74961 -9.71885,12.29003 -14.17654,6.62297 z m 8.64098,-2.86821 c 2.17934,-1.97227 2.29038,-6.55988 0.17817,-7.37033 -3.33383,-1.27929 -8.42748,4.89646 -6.54742,7.93839 0.93596,1.51448 4.41023,1.2046 6.36901,-0.56806 z m 18.90023,-18.02513 c -2.33219,-2.96494 -2.4317,-4.29347 -0.58854,-7.85775 1.59801,-3.09024 6.13598,-5.29049 9.0222,-4.37444 2.93777,0.93242 5.11959,4.75748 4.38443,7.68664 -1.65389,6.58954 -9.12598,9.23929 -12.81809,4.54555 z m 8.12815,-3.72768 c 1.45046,-2.21367 1.45902,-2.56519 0.0954,-3.92866 -1.85703,-1.85701 -4.28011,-1.02789 -5.34157,1.82775 -1.75681,4.72641 2.4277,6.40221 5.24601,2.10091 z m -35.7383,2.43121 c -3.09047,-3.09051 -2.53353,-8.10307 1.32959,-11.96619 3.89331,-3.89332 7.30035,-4.18233 10.58482,-0.8979 3.6168,3.61684 2.82478,9.32098 -1.81629,13.08039 -2.76691,2.24125 -7.74723,2.13457 -10.09812,-0.21628 z m 8.54728,-3.79879 c 2.26502,-2.26499 2.44879,-5.00967 0.44688,-6.67123 -3.20546,-2.66029 -8.40367,2.8397 -6.75197,7.14395 0.77377,2.01647 4.06261,1.7699 6.30524,-0.47273 z m 9.51162,-14.61969 c -4.45175,-1.47936 -6.97911,-5.26815 -6.97911,-10.46246 0,-11.15548 13.26775,-18.96806 21.06726,-12.40523 9.86066,8.2972 -1.66017,26.99766 -14.08815,22.86769 z m 10.44248,-6.43022 c 6.9591,-6.95911 3.33193,-17.31975 -5.22504,-14.92462 -4.64009,1.29879 -8.08116,5.84451 -8.08116,10.67534 0,8.00703 7.23725,10.31822 13.3062,4.24928 z m 18.56249,-1.00445 c -3.10328,-4.43059 -1.04325,-12.62939 3.7184,-14.79895 8.51174,-3.87821 14.76591,2.9278 10.76317,11.71286 -2.33974,5.13519 -11.65576,7.12048 -14.48157,3.08609 z m 9.31345,-2.8752 c 3.40563,-3.09611 3.95196,-5.9121 1.60282,-8.26127 -2.41203,-2.41203 -2.99263,-2.41882 -5.97874,-0.07 -3.18282,2.5036 -3.8748,6.36129 -1.55687,8.67921 2.29714,2.29714 3.07329,2.25161 5.93279,-0.34796 z m -12.4254,-18.77561 c -2.52569,-1.01629 -3.7181,-5.00232 -2.5201,-8.42414 0.47707,-1.36306 2.41977,-3.31391 4.31677,-4.33522 2.89012,-1.55599 3.85125,-1.67369 5.9306,-0.72626 1.36483,0.62187 2.94746,2.15317 3.51687,3.40291 1.49952,3.29112 -1.23657,8.69562 -5.08066,10.03568 -3.3606,1.17152 -3.36873,1.17158 -6.16348,0.0472 z m 6.38206,-4.7294 c 2.35863,-2.35863 2.39348,-3.46753 0.14701,-4.66991 -2.17199,-1.16242 -5.84502,1.10973 -5.84502,3.61578 0,3.45452 2.78297,3.96935 5.6982,1.05413 z" id="path2" ns1:nodetypes="scsssssssssssssssscsssssssssscscscsssssssssscsssscsssssssscssssssssssssscsssssssssssssssscsscccsssssssscsssscssssssssssssssscsssssssscsssssssssssssscssssssssssssssssssssssssscssssssssssssssssssssssssssssssssssssssssssssssscssccsssssssssssssssssssssssssscsscc" /><text xml:space="preserve" id="text7" style="font-size:48px;font-family:'Comic Sans MS';-inkscape-font-specification:'Comic Sans MS';text-align:start;writing-mode:lr-tb;direction:ltr;white-space:pre;shape-inside:url(#rect7);display:none;fill:none;stroke:#000000;stroke-width:0.890761;stroke-dasharray:none;stroke-opacity:1" transform="matrix(5.4649548,0,0,5.4649548,-85.031275,0.67005549)" ns2:label="BaseText"><tspan x="14.550781" y="79.294806" id="tspan4"><tspan style="font-family:Arial;-inkscape-font-specification:Arial" id="tspan2">A</tspan><tspan style="font-size:33.2551px" id="tspan3">a</tspan></tspan></text></g></svg>