<?xml version='1.0' encoding='utf-8'?>
<svg xmlns="http://www.w3.org/2000/svg" xmlns:ns1="http://sodipodi.sourceforge.net/DTD/sodipodi-0.dtd" xmlns:ns2="http://www.inkscape.org/namespaces/inkscape" viewBox="0 0 158.75 119.0625" version="1.1" id="svg1" ns1:docname="R-Rainbow.svg" ns2:version="1.4.2 (f4327f4, 2025-05-13)" xml:space="preserve"><ns1:namedview id="namedview1" pagecolor="#ffffff" bordercolor="#000000" borderopacity="0.25" ns2:showpageshadow="2" ns2:pageopacity="0.0" ns2:pagecheckerboard="0" ns2:deskcolor="#d1d1d1" ns2:zoom="4.4711111" ns2:cx="99.751491" ns2:cy="54.684394" ns2:window-width="1366" ns2:window-height="705" ns2:window-x="-8" ns2:window-y="-8" ns2:window-maximized="1" ns2:current-layer="svg1" showgrid="false" /><defs id="defs1"><rect x="-34.793027" y="89.829271" width="65.790448" height="16.447613" id="rect3" /><rect x="14.549811" y="36.058228" width="60.729648" height="58.515546" id="rect2" /><clipPath clipPathUnits="userSpaceOnUse" id="clipPath3"><path d="M 0,500 H 500 V 0 H 0 Z" transform="translate(-432.53711,-135.74711)" id="path3" /></clipPath><clipPath clipPathUnits="userSpaceOnUse" id="clipPath5"><path d="M 0,500 H 500 V 0 H 0 Z" transform="translate(-151.34181,-199.4336)" id="path5" /></clipPath><clipPath clipPathUnits="userSpaceOnUse" id="clipPath7"><path d="M 0,500 H 500 V 0 H 0 Z" transform="translate(-151.34181,-199.4336)" id="path7" /></clipPath><clipPath clipPathUnits="userSpaceOnUse" id="clipPath9"><path d="M 0,500 H 500 V 0 H 0 Z" transform="translate(-182.0161,-196.83011)" id="path9" /></clipPath><clipPath clipPathUnits="userSpaceOnUse" id="clipPath11"><path d="M 0,500 H 500 V 0 H 0 Z" transform="translate(-270.2578,-262.13381)" id="path11" /></clipPath><clipPath clipPathUnits="userSpaceOnUse" id="clipPath13"><path d="M 0,500 H 500 V 0 H 0 Z" transform="translate(-270.2578,-262.13381)" id="path13" /></clipPath><clipPath clipPathUnits="userSpaceOnUse" id="clipPath15"><path d="M 0,500 H 500 V 0 H 0 Z" transform="translate(-270.73731,-316.68121)" id="path15" /></clipPath><clipPath clipPathUnits="userSpaceOnUse" id="clipPath17"><path d="M 0,500 H 500 V 0 H 0 Z" transform="translate(-243.895,-297.82131)" id="path17" /></clipPath><clipPath clipPathUnits="userSpaceOnUse" id="clipPath19"><path d="M 0,500 H 500 V 0 H 0 Z" transform="translate(-243.895,-297.82131)" id="path19" /></clipPath><clipPath clipPathUnits="userSpaceOnUse" id="clipPath21"><path d="M 0,500 H 500 V 0 H 0 Z" transform="translate(-227.96341,-327.47461)" id="path21" /></clipPath><clipPath clipPathUnits="userSpaceOnUse" id="clipPath23"><path d="M 0,500 H 500 V 0 H 0 Z" transform="translate(-150.6709,-325.02691)" id="path23" /></clipPath><clipPath clipPathUnits="userSpaceOnUse" id="clipPath25"><path d="M 0,500 H 500 V 0 H 0 Z" transform="translate(-150.6709,-325.02691)" id="path25" /></clipPath><clipPath clipPathUnits="userSpaceOnUse" id="clipPath27"><path d="M 0,500 H 500 V 0 H 0 Z" transform="translate(-115.0161,-334.36131)" id="path27" /></clipPath><clipPath clipPathUnits="userSpaceOnUse" id="clipPath29"><path d="M 0,500 H 500 V 0 H 0 Z" transform="translate(-104.1924,-244.44141)" id="path29" /></clipPath><clipPath clipPathUnits="userSpaceOnUse" id="clipPath31"><path d="M 0,500 H 500 V 0 H 0 Z" transform="translate(-104.1924,-244.44141)" id="path31" /></clipPath><clipPath clipPathUnits="userSpaceOnUse" id="clipPath33"><path d="M 0,500 H 500 V 0 H 0 Z" transform="translate(-79.019004,-177.8154)" id="path33" /></clipPath><clipPath clipPathUnits="userSpaceOnUse" id="clipPath35"><path d="M 0,500 H 500 V 0 H 0 Z" transform="translate(-105.8481,-187.5293)" id="path35" /></clipPath><clipPath clipPathUnits="userSpaceOnUse" id="clipPath37"><path d="M 0,500 H 500 V 0 H 0 Z" transform="translate(-120.3486,-245.5713)" id="path37" /></clipPath><clipPath clipPathUnits="userSpaceOnUse" id="clipPath39"><path d="M 0,500 H 500 V 0 H 0 Z" transform="translate(-43.031301,-294.82521)" id="path39" /></clipPath><clipPath clipPathUnits="userSpaceOnUse" id="clipPath41"><path d="M 0,500 H 500 V 0 H 0 Z" transform="translate(-140.2095,-138.87791)" id="path41" /></clipPath><clipPath clipPathUnits="userSpaceOnUse" id="clipPath43"><path d="M 0,500 H 500 V 0 H 0 Z" transform="translate(-140.2095,-138.87791)" id="path43" /></clipPath><clipPath clipPathUnits="userSpaceOnUse" id="clipPath45"><path d="M 0,500 H 500 V 0 H 0 Z" transform="translate(-131.71041,-136.21781)" id="path45" /></clipPath><clipPath clipPathUnits="userSpaceOnUse" id="clipPath47"><path d="M 0,500 H 500 V 0 H 0 Z" transform="translate(-95.863802,-329.88091)" id="path47" /></clipPath><clipPath clipPathUnits="userSpaceOnUse" id="clipPath49"><path d="M 0,500 H 500 V 0 H 0 Z" transform="translate(-99.722702,-346.67581)" id="path49" /></clipPath><clipPath clipPathUnits="userSpaceOnUse" id="clipPath51"><path d="M 0,500 H 500 V 0 H 0 Z" transform="translate(-99.596702,-349.59371)" id="path51" /></clipPath><clipPath clipPathUnits="userSpaceOnUse" id="clipPath53"><path d="M 0,500 H 500 V 0 H 0 Z" transform="translate(-75.429699,-348.79931)" id="path53" /></clipPath><clipPath clipPathUnits="userSpaceOnUse" id="clipPath55"><path d="M 0,500 H 500 V 0 H 0 Z" transform="translate(-52.736801,-378.31591)" id="path55" /></clipPath><clipPath clipPathUnits="userSpaceOnUse" id="clipPath57"><path d="M 0,500 H 500 V 0 H 0 Z" transform="translate(-71.700202,-397.00241)" id="path57" /></clipPath><clipPath clipPathUnits="userSpaceOnUse" id="clipPath59"><path d="M 0,500 H 500 V 0 H 0 Z" transform="translate(-49.381801,-362.78271)" id="path59" /></clipPath><clipPath clipPathUnits="userSpaceOnUse" id="clipPath61"><path d="M 0,500 H 500 V 0 H 0 Z" transform="translate(-75.429699,-348.79931)" id="path61" /></clipPath><clipPath clipPathUnits="userSpaceOnUse" id="clipPath63"><path d="M 0,500 H 500 V 0 H 0 Z" transform="translate(-52.736801,-378.31591)" id="path63" /></clipPath><clipPath clipPathUnits="userSpaceOnUse" id="clipPath65"><path d="M 0,500 H 500 V 0 H 0 Z" transform="translate(-87.7402,-374.77391)" id="path65" /></clipPath><clipPath clipPathUnits="userSpaceOnUse" id="clipPath67"><path d="M 0,500 H 500 V 0 H 0 Z" transform="translate(-90.202105,-372.51071)" id="path67" /></clipPath><clipPath clipPathUnits="userSpaceOnUse" id="clipPath69"><path d="M 0,500 H 500 V 0 H 0 Z" transform="translate(-43.860801,-338.97661)" id="path69" /></clipPath><clipPath clipPathUnits="userSpaceOnUse" id="clipPath71"><path d="M 0,500 H 500 V 0 H 0 Z" transform="translate(-62.706502,-345.08251)" id="path71" /></clipPath><clipPath clipPathUnits="userSpaceOnUse" id="clipPath73"><path d="M 0,500 H 500 V 0 H 0 Z" transform="translate(-32.944801,-364.06201)" id="path73" /></clipPath><clipPath clipPathUnits="userSpaceOnUse" id="clipPath75"><path d="M 0,500 H 500 V 0 H 0 Z" transform="translate(-32.363801,-386.02201)" id="path75" /></clipPath><clipPath clipPathUnits="userSpaceOnUse" id="clipPath77"><path d="M 0,500 H 500 V 0 H 0 Z" transform="translate(-42.559601,-382.52731)" id="path77" /></clipPath><clipPath clipPathUnits="userSpaceOnUse" id="clipPath79"><path d="M 0,500 H 500 V 0 H 0 Z" transform="translate(-72.010702,-416.37261)" id="path79" /></clipPath><clipPath clipPathUnits="userSpaceOnUse" id="clipPath81"><path d="M 0,500 H 500 V 0 H 0 Z" transform="translate(-88.275902,-375.45461)" id="path81" /></clipPath><clipPath clipPathUnits="userSpaceOnUse" id="clipPath83"><path d="M 0,500 H 500 V 0 H 0 Z" transform="translate(-125.0845,-367.83841)" id="path83" /></clipPath><clipPath clipPathUnits="userSpaceOnUse" id="clipPath85"><path d="M 0,500 H 500 V 0 H 0 Z" transform="translate(-88.761205,-375.09231)" id="path85" /></clipPath><clipPath clipPathUnits="userSpaceOnUse" id="clipPath87"><path d="M 0,500 H 500 V 0 H 0 Z" transform="translate(-125.2983,-381.78861)" id="path87" /></clipPath><clipPath clipPathUnits="userSpaceOnUse" id="clipPath89"><path d="M 0,500 H 500 V 0 H 0 Z" transform="translate(-96.329605,-397.87451)" id="path89" /></clipPath><clipPath clipPathUnits="userSpaceOnUse" id="clipPath91"><path d="M 0,500 H 500 V 0 H 0 Z" transform="translate(-87.3955,-382.24561)" id="path91" /></clipPath><clipPath clipPathUnits="userSpaceOnUse" id="clipPath93"><path d="M 0,500 H 500 V 0 H 0 Z" transform="translate(-125.2983,-381.78861)" id="path93" /></clipPath><clipPath clipPathUnits="userSpaceOnUse" id="clipPath95"><path d="M 0,500 H 500 V 0 H 0 Z" transform="translate(-71.700202,-397.00241)" id="path95" /></clipPath><clipPath clipPathUnits="userSpaceOnUse" id="clipPath97"><path d="M 0,500 H 500 V 0 H 0 Z" transform="translate(-139.3882,-350.70461)" id="path97" /></clipPath><clipPath clipPathUnits="userSpaceOnUse" id="clipPath99"><path d="M 0,500 H 500 V 0 H 0 Z" transform="translate(-97.266602,-377.96481)" id="path99" /></clipPath><clipPath clipPathUnits="userSpaceOnUse" id="clipPath101"><path d="M 0,500 H 500 V 0 H 0 Z" transform="translate(-119.97171,-375.45461)" id="path101" /></clipPath><clipPath clipPathUnits="userSpaceOnUse" id="clipPath103"><path d="M 0,500 H 500 V 0 H 0 Z" transform="translate(-437.25881,-102.749)" id="path103" /></clipPath><clipPath clipPathUnits="userSpaceOnUse" id="clipPath105"><path d="M 0,500 H 500 V 0 H 0 Z" transform="translate(-153.0757,-110.08691)" id="path105" /></clipPath><clipPath clipPathUnits="userSpaceOnUse" id="clipPath107"><path d="M 0,500 H 500 V 0 H 0 Z" transform="translate(-68.039602,-123.2412)" id="path107" /></clipPath><clipPath clipPathUnits="userSpaceOnUse" id="clipPath109"><path d="M 0,500 H 500 V 0 H 0 Z" transform="translate(-98.763205,-118.9268)" id="path109" /></clipPath><clipPath clipPathUnits="userSpaceOnUse" id="clipPath111"><path d="M 0,500 H 500 V 0 H 0 Z" transform="translate(-94.1626,-133.752)" id="path111" /></clipPath><clipPath clipPathUnits="userSpaceOnUse" id="clipPath113"><path d="M 0,500 H 500 V 0 H 0 Z" transform="translate(-130.0093,-133.8818)" id="path113" /></clipPath><clipPath clipPathUnits="userSpaceOnUse" id="clipPath115"><path d="M 0,500 H 500 V 0 H 0 Z" transform="translate(-216.42291,-119.5391)" id="path115" /></clipPath><clipPath clipPathUnits="userSpaceOnUse" id="clipPath117"><path d="M 0,500 H 500 V 0 H 0 Z" transform="translate(-216.4243,-119.54)" id="path117" /></clipPath><clipPath clipPathUnits="userSpaceOnUse" id="clipPath119"><path d="M 0,500 H 500 V 0 H 0 Z" transform="translate(-216.42291,-119.5391)" id="path119" /></clipPath><clipPath clipPathUnits="userSpaceOnUse" id="clipPath121"><path d="M 0,500 H 500 V 0 H 0 Z" transform="translate(-432.46971,-121.0557)" id="path121" /></clipPath><clipPath clipPathUnits="userSpaceOnUse" id="clipPath123"><path d="M 0,500 H 500 V 0 H 0 Z" transform="translate(-427.03711,-133.8525)" id="path123" /></clipPath><clipPath clipPathUnits="userSpaceOnUse" id="clipPath125"><path d="M 0,500 H 500 V 0 H 0 Z" transform="translate(-405.37791,-144.78911)" id="path125" /></clipPath><clipPath clipPathUnits="userSpaceOnUse" id="clipPath127"><path d="M 0,500 H 500 V 0 H 0 Z" transform="translate(-404.70611,-137.2754)" id="path127" /></clipPath><clipPath clipPathUnits="userSpaceOnUse" id="clipPath129"><path d="M 0,500 H 500 V 0 H 0 Z" transform="translate(-432.46971,-121.0557)" id="path129" /></clipPath><clipPath clipPathUnits="userSpaceOnUse" id="clipPath131"><path d="M 0,500 H 500 V 0 H 0 Z" transform="translate(-327.13481,-114.4746)" id="path131" /></clipPath><clipPath clipPathUnits="userSpaceOnUse" id="clipPath133"><path d="M 0,500 H 500 V 0 H 0 Z" transform="translate(-376.72071,-396.30321)" id="path133" /></clipPath><clipPath clipPathUnits="userSpaceOnUse" id="clipPath135"><path d="M 0,500 H 500 V 0 H 0 Z" transform="translate(-345.24221,-355.45311)" id="path135" /></clipPath><clipPath clipPathUnits="userSpaceOnUse" id="clipPath137"><path d="M 0,500 H 500 V 0 H 0 Z" transform="translate(-315.50001,-373.42481)" id="path137" /></clipPath><clipPath clipPathUnits="userSpaceOnUse" id="clipPath139"><path d="M 0,500 H 500 V 0 H 0 Z" transform="translate(-312.87011,-392.23001)" id="path139" /></clipPath><clipPath clipPathUnits="userSpaceOnUse" id="clipPath141"><path d="M 0,500 H 500 V 0 H 0 Z" transform="translate(-328.25681,-433.48831)" id="path141" /></clipPath><clipPath clipPathUnits="userSpaceOnUse" id="clipPath143"><path d="M 0,500 H 500 V 0 H 0 Z" transform="translate(-371.31351,-429.34471)" id="path143" /></clipPath><clipPath clipPathUnits="userSpaceOnUse" id="clipPath145"><path d="M 0,500 H 500 V 0 H 0 Z" transform="translate(-356.50101,-401.37401)" id="path145" /></clipPath><clipPath clipPathUnits="userSpaceOnUse" id="clipPath147"><path d="M 0,500 H 500 V 0 H 0 Z" transform="translate(-356.68651,-383.02541)" id="path147" /></clipPath><clipPath clipPathUnits="userSpaceOnUse" id="clipPath149"><path d="M 0,500 H 500 V 0 H 0 Z" transform="translate(-339.52251,-412.63771)" id="path149" /></clipPath><clipPath clipPathUnits="userSpaceOnUse" id="clipPath151"><path d="M 0,500 H 500 V 0 H 0 Z" transform="translate(-376.35061,-419.38281)" id="path151" /></clipPath><clipPath clipPathUnits="userSpaceOnUse" id="clipPath153"><path d="M 0,500 H 500 V 0 H 0 Z" transform="translate(-364.11821,-384.56741)" id="path153" /></clipPath><clipPath clipPathUnits="userSpaceOnUse" id="clipPath155"><path d="M 0,500 H 500 V 0 H 0 Z" transform="translate(-376.72071,-396.30321)" id="path155" /></clipPath><clipPath clipPathUnits="userSpaceOnUse" id="clipPath157"><path d="M 0,500 H 500 V 0 H 0 Z" transform="translate(-313.61911,-296.27291)" id="path157" /></clipPath><clipPath clipPathUnits="userSpaceOnUse" id="clipPath159"><path d="M 0,500 H 500 V 0 H 0 Z" transform="translate(-305.04881,-316.07621)" id="path159" /></clipPath><clipPath clipPathUnits="userSpaceOnUse" id="clipPath161"><path d="M 0,500 H 500 V 0 H 0 Z" transform="translate(-300.53611,-275.20511)" id="path161" /></clipPath><clipPath clipPathUnits="userSpaceOnUse" id="clipPath163"><path d="M 0,500 H 500 V 0 H 0 Z" transform="translate(-319.84181,-243.67191)" id="path163" /></clipPath><clipPath clipPathUnits="userSpaceOnUse" id="clipPath165"><path d="M 0,500 H 500 V 0 H 0 Z" transform="translate(-338.39361,-241.03421)" id="path165" /></clipPath><clipPath clipPathUnits="userSpaceOnUse" id="clipPath167"><path d="M 0,500 H 500 V 0 H 0 Z" transform="translate(-320.49711,-352.96141)" id="path167" /></clipPath><clipPath clipPathUnits="userSpaceOnUse" id="clipPath169"><path d="M 0,500 H 500 V 0 H 0 Z" transform="translate(-431.04981,-326.64161)" id="path169" /></clipPath><clipPath clipPathUnits="userSpaceOnUse" id="clipPath171"><path d="M 0,500 H 500 V 0 H 0 Z" transform="translate(-372.06351,-226.83401)" id="path171" /></clipPath><clipPath clipPathUnits="userSpaceOnUse" id="clipPath173"><path d="M 0,500 H 500 V 0 H 0 Z" transform="translate(-399.95511,-220.86041)" id="path173" /></clipPath><clipPath clipPathUnits="userSpaceOnUse" id="clipPath175"><path d="M 0,500 H 500 V 0 H 0 Z" transform="translate(-323.42581,-269.89451)" id="path175" /></clipPath><clipPath clipPathUnits="userSpaceOnUse" id="clipPath177"><path d="M 0,500 H 500 V 0 H 0 Z" transform="translate(-355.10741,-259.54641)" id="path177" /></clipPath><clipPath clipPathUnits="userSpaceOnUse" id="clipPath179"><path d="M 0,500 H 500 V 0 H 0 Z" transform="translate(-313.61911,-296.27291)" id="path179" /></clipPath><clipPath clipPathUnits="userSpaceOnUse" id="clipPath181"><path d="M 0,500 H 500 V 0 H 0 Z" transform="translate(-369.42681,-281.5425)" id="path181" /></clipPath><clipPath clipPathUnits="userSpaceOnUse" id="clipPath183"><path d="M 0,500 H 500 V 0 H 0 Z" transform="translate(-336.97751,-317.55571)" id="path183" /></clipPath><clipPath clipPathUnits="userSpaceOnUse" id="clipPath185"><path d="M 0,500 H 500 V 0 H 0 Z" transform="translate(-313.62011,-296.27151)" id="path185" /></clipPath><clipPath clipPathUnits="userSpaceOnUse" id="clipPath187"><path d="M 0,500 H 500 V 0 H 0 Z" transform="translate(-369.07811,-322.24461)" id="path187" /></clipPath><clipPath clipPathUnits="userSpaceOnUse" id="clipPath189"><path d="M 0,500 H 500 V 0 H 0 Z" transform="translate(-336.97751,-317.55571)" id="path189" /></clipPath><clipPath clipPathUnits="userSpaceOnUse" id="clipPath191"><path d="M 0,500 H 500 V 0 H 0 Z" transform="translate(-401.02541,-318.82371)" id="path191" /></clipPath><clipPath clipPathUnits="userSpaceOnUse" id="clipPath193"><path d="M 0,500 H 500 V 0 H 0 Z" transform="translate(-369.07811,-322.24411)" id="path193" /></clipPath><clipPath clipPathUnits="userSpaceOnUse" id="clipPath195"><path d="M 0,500 H 500 V 0 H 0 Z" transform="translate(-401.98341,-287.1846)" id="path195" /></clipPath><clipPath clipPathUnits="userSpaceOnUse" id="clipPath197"><path d="M 0,500 H 500 V 0 H 0 Z" transform="translate(-401.02541,-318.82371)" id="path197" /></clipPath><clipPath clipPathUnits="userSpaceOnUse" id="clipPath199"><path d="M 0,500 H 500 V 0 H 0 Z" transform="translate(-385.65231,-244.13481)" id="path199" /></clipPath><clipPath clipPathUnits="userSpaceOnUse" id="clipPath201"><path d="M 0,500 H 500 V 0 H 0 Z" transform="translate(-361.43161,-257.66991)" id="path201" /></clipPath><clipPath clipPathUnits="userSpaceOnUse" id="clipPath203"><path d="M 0,500 H 500 V 0 H 0 Z" transform="translate(-361.72851,-265.84031)" id="path203" /></clipPath><clipPath clipPathUnits="userSpaceOnUse" id="clipPath205"><path d="M 0,500 H 500 V 0 H 0 Z" transform="translate(-402.13871,-265.52591)" id="path205" /></clipPath><clipPath clipPathUnits="userSpaceOnUse" id="clipPath207"><path d="M 0,500 H 500 V 0 H 0 Z" transform="translate(-385.65231,-244.13571)" id="path207" /></clipPath><clipPath clipPathUnits="userSpaceOnUse" id="clipPath209"><path d="M 0,500 H 500 V 0 H 0 Z" transform="translate(-402.13771,-265.52541)" id="path209" /></clipPath><clipPath clipPathUnits="userSpaceOnUse" id="clipPath211"><path d="M 0,500 H 500 V 0 H 0 Z" transform="translate(-355.10741,-259.54641)" id="path211" /></clipPath><clipPath clipPathUnits="userSpaceOnUse" id="clipPath213"><path d="M 0,500 H 500 V 0 H 0 Z" transform="translate(-242.46831,-133.5723)" id="path213" /></clipPath><clipPath clipPathUnits="userSpaceOnUse" id="clipPath215"><path d="M 0,500 H 500 V 0 H 0 Z" transform="translate(-210.0742,-231.25001)" id="path215" /></clipPath><clipPath clipPathUnits="userSpaceOnUse" id="clipPath217"><path d="M 0,500 H 500 V 0 H 0 Z" transform="translate(-184.9072,-258.88431)" id="path217" /></clipPath><clipPath clipPathUnits="userSpaceOnUse" id="clipPath219"><path d="M 0,500 H 500 V 0 H 0 Z" transform="translate(-148.6821,-295.10451)" id="path219" /></clipPath><clipPath clipPathUnits="userSpaceOnUse" id="clipPath221"><path d="M 0,500 H 500 V 0 H 0 Z" transform="translate(-147.19731,-276.85691)" id="path221" /></clipPath><clipPath clipPathUnits="userSpaceOnUse" id="clipPath223"><path d="M 0,500 H 500 V 0 H 0 Z" transform="translate(-145.4277,-259.17381)" id="path223" /></clipPath><clipPath clipPathUnits="userSpaceOnUse" id="clipPath225"><path d="M 0,500 H 500 V 0 H 0 Z" transform="translate(-144.6172,-243.18261)" id="path225" /></clipPath><clipPath clipPathUnits="userSpaceOnUse" id="clipPath227"><path d="M 0,500 H 500 V 0 H 0 Z" transform="translate(-145.23831,-226.34181)" id="path227" /></clipPath><clipPath clipPathUnits="userSpaceOnUse" id="clipPath229"><path d="M 0,500 H 500 V 0 H 0 Z" transform="translate(-148.04301,-210.12111)" id="path229" /></clipPath><clipPath clipPathUnits="userSpaceOnUse" id="clipPath231"><path d="M 0,500 H 500 V 0 H 0 Z" transform="translate(-154.3618,-192.44921)" id="path231" /></clipPath><clipPath clipPathUnits="userSpaceOnUse" id="clipPath233"><path d="M 0,500 H 500 V 0 H 0 Z" transform="translate(-163.56201,-176.61521)" id="path233" /></clipPath><clipPath clipPathUnits="userSpaceOnUse" id="clipPath235"><path d="M 0,500 H 500 V 0 H 0 Z" transform="translate(-179.42721,-158.4932)" id="path235" /></clipPath><clipPath clipPathUnits="userSpaceOnUse" id="clipPath237"><path d="M 0,500 H 500 V 0 H 0 Z" transform="translate(-168.06741,-111.37211)" id="path237" /></clipPath><clipPath clipPathUnits="userSpaceOnUse" id="clipPath239"><path d="M 0,500 H 500 V 0 H 0 Z" transform="translate(-171.1729,-117.8379)" id="path239" /></clipPath><clipPath clipPathUnits="userSpaceOnUse" id="clipPath241"><path d="M 0,500 H 500 V 0 H 0 Z" transform="translate(-262.65531,-102.97271)" id="path241" /></clipPath><clipPath clipPathUnits="userSpaceOnUse" id="clipPath243"><path d="M 0,500 H 500 V 0 H 0 Z" transform="translate(-256.89841,-105.15821)" id="path243" /></clipPath><clipPath clipPathUnits="userSpaceOnUse" id="clipPath245"><path d="M 0,500 H 500 V 0 H 0 Z" transform="translate(-197.36961,-145.5762)" id="path245" /></clipPath><clipPath clipPathUnits="userSpaceOnUse" id="clipPath247"><path d="M 0,500 H 500 V 0 H 0 Z" transform="translate(-218.4478,-137.4365)" id="path247" /></clipPath><clipPath clipPathUnits="userSpaceOnUse" id="clipPath249"><path d="M 0,500 H 500 V 0 H 0 Z" transform="translate(-252.6064,-248.63481)" id="path249" /></clipPath><clipPath clipPathUnits="userSpaceOnUse" id="clipPath251"><path d="M 0,500 H 500 V 0 H 0 Z" transform="translate(-263.56351,-232.1865)" id="path251" /></clipPath><clipPath clipPathUnits="userSpaceOnUse" id="clipPath253"><path d="M 0,500 H 500 V 0 H 0 Z" transform="translate(-280.915,-228.33591)" id="path253" /></clipPath><clipPath clipPathUnits="userSpaceOnUse" id="clipPath255"><path d="M 0,500 H 500 V 0 H 0 Z" transform="translate(-279.01861,-215.27831)" id="path255" /></clipPath><clipPath clipPathUnits="userSpaceOnUse" id="clipPath257"><path d="M 0,500 H 500 V 0 H 0 Z" transform="translate(-267.748,-214.49321)" id="path257" /></clipPath><clipPath clipPathUnits="userSpaceOnUse" id="clipPath259"><path d="M 0,500 H 500 V 0 H 0 Z" transform="translate(-309.81641,-206.8818)" id="path259" /></clipPath><clipPath clipPathUnits="userSpaceOnUse" id="clipPath261"><path d="M 0,500 H 500 V 0 H 0 Z" transform="translate(-322.25681,-187.8135)" id="path261" /></clipPath><clipPath clipPathUnits="userSpaceOnUse" id="clipPath263"><path d="M 0,500 H 500 V 0 H 0 Z" transform="translate(-329.74901,-169.2236)" id="path263" /></clipPath><clipPath clipPathUnits="userSpaceOnUse" id="clipPath265"><path d="M 0,500 H 500 V 0 H 0 Z" transform="translate(-341.73931,-143.08301)" id="path265" /></clipPath><clipPath clipPathUnits="userSpaceOnUse" id="clipPath267"><path d="M 0,500 H 500 V 0 H 0 Z" transform="translate(-354.48051,-143.9541)" id="path267" /></clipPath><clipPath clipPathUnits="userSpaceOnUse" id="clipPath269"><path d="M 0,500 H 500 V 0 H 0 Z" transform="translate(-341.77441,-168.3789)" id="path269" /></clipPath><clipPath clipPathUnits="userSpaceOnUse" id="clipPath271"><path d="M 0,500 H 500 V 0 H 0 Z" transform="translate(-385.95121,-98.459002)" id="path271" /></clipPath><clipPath clipPathUnits="userSpaceOnUse" id="clipPath273"><path d="M 0,500 H 500 V 0 H 0 Z" transform="translate(-379.38281,-132.7695)" id="path273" /></clipPath><clipPath clipPathUnits="userSpaceOnUse" id="clipPath275"><path d="M 0,500 H 500 V 0 H 0 Z" transform="translate(-180.59571,-341.57131)" id="path275" /></clipPath><clipPath clipPathUnits="userSpaceOnUse" id="clipPath277"><path d="M 0,500 H 500 V 0 H 0 Z" transform="translate(-189.04101,-346.05371)" id="path277" /></clipPath><clipPath clipPathUnits="userSpaceOnUse" id="clipPath279"><path d="M 0,500 H 500 V 0 H 0 Z" transform="translate(-184.69431,-261.6948)" id="path279" /></clipPath><clipPath clipPathUnits="userSpaceOnUse" id="clipPath281"><path d="M 0,500 H 500 V 0 H 0 Z" transform="translate(-198.0361,-215.9238)" id="path281" /></clipPath><clipPath clipPathUnits="userSpaceOnUse" id="clipPath283"><path d="M 0,500 H 500 V 0 H 0 Z" transform="translate(-187.3789,-215.26761)" id="path283" /></clipPath><clipPath clipPathUnits="userSpaceOnUse" id="clipPath285"><path d="M 0,500 H 500 V 0 H 0 Z" transform="translate(-180.43551,-218.77541)" id="path285" /></clipPath><clipPath clipPathUnits="userSpaceOnUse" id="clipPath287"><path d="M 0,500 H 500 V 0 H 0 Z" transform="translate(-175.2612,-228.13961)" id="path287" /></clipPath><clipPath clipPathUnits="userSpaceOnUse" id="clipPath289"><path d="M 0,500 H 500 V 0 H 0 Z" transform="translate(-244.6279,-404.04541)" id="path289" /></clipPath><clipPath clipPathUnits="userSpaceOnUse" id="clipPath291"><path d="M 0,500 H 500 V 0 H 0 Z" transform="translate(-228.89061,-353.46631)" id="path291" /></clipPath><clipPath clipPathUnits="userSpaceOnUse" id="clipPath293"><path d="M 0,500 H 500 V 0 H 0 Z" transform="translate(-183.4443,-384.64701)" id="path293" /></clipPath><clipPath clipPathUnits="userSpaceOnUse" id="clipPath295"><path d="M 0,500 H 500 V 0 H 0 Z" transform="translate(-225.19921,-396.14601)" id="path295" /></clipPath><clipPath clipPathUnits="userSpaceOnUse" id="clipPath297"><path d="M 0,500 H 500 V 0 H 0 Z" transform="translate(-203.1001,-348.71041)" id="path297" /></clipPath><clipPath clipPathUnits="userSpaceOnUse" id="clipPath299"><path d="M 0,500 H 500 V 0 H 0 Z" transform="translate(-165.3213,-379.77441)" id="path299" /></clipPath><clipPath clipPathUnits="userSpaceOnUse" id="clipPath301"><path d="M 0,500 H 500 V 0 H 0 Z" transform="translate(-177.6465,-379.95211)" id="path301" /></clipPath><clipPath clipPathUnits="userSpaceOnUse" id="clipPath303"><path d="M 0,500 H 500 V 0 H 0 Z" transform="translate(-230.05221,-388.11181)" id="path303" /></clipPath><clipPath clipPathUnits="userSpaceOnUse" id="clipPath305"><path d="M 0,500 H 500 V 0 H 0 Z" transform="translate(-211.17331,-139.4316)" id="path305" /></clipPath><clipPath clipPathUnits="userSpaceOnUse" id="clipPath307"><path d="M 0,500 H 500 V 0 H 0 Z" transform="translate(-162.37701,-177.70511)" id="path307" /></clipPath><clipPath clipPathUnits="userSpaceOnUse" id="clipPath309"><path d="M 0,500 H 500 V 0 H 0 Z" transform="translate(-146.4858,-215.95611)" id="path309" /></clipPath><clipPath clipPathUnits="userSpaceOnUse" id="clipPath311"><path d="M 0,500 H 500 V 0 H 0 Z" transform="translate(-147.6426,-281.3652)" id="path311" /></clipPath><clipPath clipPathUnits="userSpaceOnUse" id="clipPath313"><path d="M 0,500 H 500 V 0 H 0 Z" transform="translate(-212.31691,-438.15091)" id="path313" /></clipPath><clipPath clipPathUnits="userSpaceOnUse" id="clipPath315"><path d="M 0,500 H 500 V 0 H 0 Z" transform="translate(-217.1611,-433.01421)" id="path315" /></clipPath><clipPath clipPathUnits="userSpaceOnUse" id="clipPath317"><path d="M 0,500 H 500 V 0 H 0 Z" transform="translate(-147.6421,-281.3652)" id="path317" /></clipPath><clipPath clipPathUnits="userSpaceOnUse" id="clipPath319"><path d="M 0,500 H 500 V 0 H 0 Z" transform="translate(-161.75781,-91.345702)" id="path319" /></clipPath><clipPath clipPathUnits="userSpaceOnUse" id="clipPath321"><path d="M 0,500 H 500 V 0 H 0 Z" transform="translate(-175.57281,-91.524405)" id="path321" /></clipPath><clipPath clipPathUnits="userSpaceOnUse" id="clipPath323"><path d="M 0,500 H 500 V 0 H 0 Z" transform="translate(-151.83351,-93.239302)" id="path323" /></clipPath><clipPath clipPathUnits="userSpaceOnUse" id="clipPath325"><path d="M 0,500 H 500 V 0 H 0 Z" transform="translate(-164.938,-102.69731)" id="path325" /></clipPath><clipPath clipPathUnits="userSpaceOnUse" id="clipPath327"><path d="M 0,500 H 500 V 0 H 0 Z" transform="translate(-149.7358,-106.25591)" id="path327" /></clipPath><clipPath clipPathUnits="userSpaceOnUse" id="clipPath329"><path d="M 0,500 H 500 V 0 H 0 Z" transform="translate(-154.3066,-102.4287)" id="path329" /></clipPath><clipPath clipPathUnits="userSpaceOnUse" id="clipPath331"><path d="M 0,500 H 500 V 0 H 0 Z" transform="translate(-149.7363,-106.2539)" id="path331" /></clipPath><clipPath clipPathUnits="userSpaceOnUse" id="clipPath333"><path d="M 0,500 H 500 V 0 H 0 Z" transform="translate(-200.9458,-119.4854)" id="path333" /></clipPath><clipPath clipPathUnits="userSpaceOnUse" id="clipPath335"><path d="M 0,500 H 500 V 0 H 0 Z" transform="translate(-175.57281,-91.524405)" id="path335" /></clipPath><clipPath clipPathUnits="userSpaceOnUse" id="clipPath337"><path d="M 0,500 H 500 V 0 H 0 Z" transform="translate(-200.9458,-119.4854)" id="path337" /></clipPath><clipPath clipPathUnits="userSpaceOnUse" id="clipPath339"><path d="M 0,500 H 500 V 0 H 0 Z" transform="translate(-148.8901,-300.44871)" id="path339" /></clipPath><clipPath clipPathUnits="userSpaceOnUse" id="clipPath341"><path d="M 0,500 H 500 V 0 H 0 Z" transform="translate(-193.96581,-213.05471)" id="path341" /></clipPath><clipPath clipPathUnits="userSpaceOnUse" id="clipPath343"><path d="M 0,500 H 500 V 0 H 0 Z" transform="translate(-261.6592,-74.062499)" id="path343" /></clipPath><clipPath clipPathUnits="userSpaceOnUse" id="clipPath345"><path d="M 0,500 H 500 V 0 H 0 Z" transform="translate(-281.6641,-73.378904)" id="path345" /></clipPath><clipPath clipPathUnits="userSpaceOnUse" id="clipPath347"><path d="M 0,500 H 500 V 0 H 0 Z" transform="translate(-249.1333,-77.140604)" id="path347" /></clipPath><clipPath clipPathUnits="userSpaceOnUse" id="clipPath349"><path d="M 0,500 H 500 V 0 H 0 Z" transform="translate(-264.82131,-87.2715)" id="path349" /></clipPath><clipPath clipPathUnits="userSpaceOnUse" id="clipPath351"><path d="M 0,500 H 500 V 0 H 0 Z" transform="translate(-246.79251,-92.9004)" id="path351" /></clipPath><clipPath clipPathUnits="userSpaceOnUse" id="clipPath353"><path d="M 0,500 H 500 V 0 H 0 Z" transform="translate(-252.4375,-90.031305)" id="path353" /></clipPath><clipPath clipPathUnits="userSpaceOnUse" id="clipPath355"><path d="M 0,500 H 500 V 0 H 0 Z" transform="translate(-295.7959,-134.51861)" id="path355" /></clipPath><clipPath clipPathUnits="userSpaceOnUse" id="clipPath357"><path d="M 0,500 H 500 V 0 H 0 Z" transform="translate(-281.6641,-73.378904)" id="path357" /></clipPath><clipPath clipPathUnits="userSpaceOnUse" id="clipPath359"><path d="M 0,500 H 500 V 0 H 0 Z" transform="translate(-294.24901,-139.74221)" id="path359" /></clipPath><clipPath clipPathUnits="userSpaceOnUse" id="clipPath361"><path d="M 0,500 H 500 V 0 H 0 Z" transform="translate(-174.46971,-233.32031)" id="path361" /></clipPath><clipPath clipPathUnits="userSpaceOnUse" id="clipPath363"><path d="M 0,500 H 500 V 0 H 0 Z" transform="translate(-435.21781,-118.0029)" id="path363" /></clipPath><clipPath clipPathUnits="userSpaceOnUse" id="clipPath365"><path d="M 0,500 H 500 V 0 H 0 Z" transform="translate(-222.87451,-273.3579)" id="path365" /></clipPath><clipPath clipPathUnits="userSpaceOnUse" id="clipPath367"><path d="M 0,500 H 500 V 0 H 0 Z" transform="translate(-211.97311,-287.7129)" id="path367" /></clipPath><clipPath clipPathUnits="userSpaceOnUse" id="clipPath369"><path d="M 0,500 H 500 V 0 H 0 Z" transform="translate(-192.3208,-318.48581)" id="path369" /></clipPath><clipPath clipPathUnits="userSpaceOnUse" id="clipPath371"><path d="M 0,500 H 500 V 0 H 0 Z" transform="translate(-203.1001,-348.71041)" id="path371" /></clipPath><clipPath clipPathUnits="userSpaceOnUse" id="clipPath373"><path d="M 0,500 H 500 V 0 H 0 Z" transform="translate(-241.7158,-419.51461)" id="path373" /></clipPath><clipPath clipPathUnits="userSpaceOnUse" id="clipPath375"><path d="M 0,500 H 500 V 0 H 0 Z" transform="translate(-229.41751,-435.30081)" id="path375" /></clipPath><clipPath clipPathUnits="userSpaceOnUse" id="clipPath377"><path d="M 0,500 H 500 V 0 H 0 Z" transform="translate(-212.31691,-438.15041)" id="path377" /></clipPath><clipPath clipPathUnits="userSpaceOnUse" id="clipPath379"><path d="M 0,500 H 500 V 0 H 0 Z" transform="translate(-230.53561,-431.04981)" id="path379" /></clipPath><clipPath clipPathUnits="userSpaceOnUse" id="clipPath381"><path d="M 0,500 H 500 V 0 H 0 Z" transform="translate(-200.44921,-304.96681)" id="path381" /></clipPath><clipPath clipPathUnits="userSpaceOnUse" id="clipPath383"><path d="M 0,500 H 500 V 0 H 0 Z" transform="translate(-192.3208,-318.48581)" id="path383" /></clipPath><clipPath clipPathUnits="userSpaceOnUse" id="clipPath385"><path d="M 0,500 H 500 V 0 H 0 Z" transform="translate(-200.44921,-304.96681)" id="path385" /></clipPath><clipPath clipPathUnits="userSpaceOnUse" id="clipPath387"><path d="M 0,500 H 500 V 0 H 0 Z" transform="translate(-242.5444,-263.98241)" id="path387" /></clipPath><clipPath clipPathUnits="userSpaceOnUse" id="clipPath389"><path d="M 0,500 H 500 V 0 H 0 Z" transform="translate(-222.874,-273.3579)" id="path389" /></clipPath><clipPath clipPathUnits="userSpaceOnUse" id="clipPath391"><path d="M 0,500 H 500 V 0 H 0 Z" transform="translate(-261.97951,-254.5728)" id="path391" /></clipPath><clipPath clipPathUnits="userSpaceOnUse" id="clipPath393"><path d="M 0,500 H 500 V 0 H 0 Z" transform="translate(-242.5444,-263.98241)" id="path393" /></clipPath><clipPath clipPathUnits="userSpaceOnUse" id="clipPath395"><path d="M 0,500 H 500 V 0 H 0 Z" transform="translate(-284.5234,-247.34471)" id="path395" /></clipPath><clipPath clipPathUnits="userSpaceOnUse" id="clipPath397"><path d="M 0,500 H 500 V 0 H 0 Z" transform="translate(-261.97951,-254.5728)" id="path397" /></clipPath><clipPath clipPathUnits="userSpaceOnUse" id="clipPath399"><path d="M 0,500 H 500 V 0 H 0 Z" transform="translate(-306.22461,-235.83111)" id="path399" /></clipPath><clipPath clipPathUnits="userSpaceOnUse" id="clipPath401"><path d="M 0,500 H 500 V 0 H 0 Z" transform="translate(-284.5234,-247.34471)" id="path401" /></clipPath><clipPath clipPathUnits="userSpaceOnUse" id="clipPath403"><path d="M 0,500 H 500 V 0 H 0 Z" transform="translate(-323.62701,-215.97171)" id="path403" /></clipPath><clipPath clipPathUnits="userSpaceOnUse" id="clipPath405"><path d="M 0,500 H 500 V 0 H 0 Z" transform="translate(-306.22461,-235.83111)" id="path405" /></clipPath><clipPath clipPathUnits="userSpaceOnUse" id="clipPath407"><path d="M 0,500 H 500 V 0 H 0 Z" transform="translate(-338.43851,-196.10351)" id="path407" /></clipPath><clipPath clipPathUnits="userSpaceOnUse" id="clipPath409"><path d="M 0,500 H 500 V 0 H 0 Z" transform="translate(-323.62701,-215.97171)" id="path409" /></clipPath><clipPath clipPathUnits="userSpaceOnUse" id="clipPath411"><path d="M 0,500 H 500 V 0 H 0 Z" transform="translate(-349.30081,-178.14161)" id="path411" /></clipPath><clipPath clipPathUnits="userSpaceOnUse" id="clipPath413"><path d="M 0,500 H 500 V 0 H 0 Z" transform="translate(-338.43851,-196.10351)" id="path413" /></clipPath><clipPath clipPathUnits="userSpaceOnUse" id="clipPath415"><path d="M 0,500 H 500 V 0 H 0 Z" transform="translate(-360.88771,-160.3232)" id="path415" /></clipPath><clipPath clipPathUnits="userSpaceOnUse" id="clipPath417"><path d="M 0,500 H 500 V 0 H 0 Z" transform="translate(-349.30081,-178.14161)" id="path417" /></clipPath><clipPath clipPathUnits="userSpaceOnUse" id="clipPath419"><path d="M 0,500 H 500 V 0 H 0 Z" transform="translate(-372.44241,-146.8164)" id="path419" /></clipPath><clipPath clipPathUnits="userSpaceOnUse" id="clipPath421"><path d="M 0,500 H 500 V 0 H 0 Z" transform="translate(-360.88771,-160.3232)" id="path421" /></clipPath><clipPath clipPathUnits="userSpaceOnUse" id="clipPath423"><path d="M 0,500 H 500 V 0 H 0 Z" transform="translate(-386.25491,-135.37211)" id="path423" /></clipPath><clipPath clipPathUnits="userSpaceOnUse" id="clipPath425"><path d="M 0,500 H 500 V 0 H 0 Z" transform="translate(-372.44241,-146.8164)" id="path425" /></clipPath><clipPath clipPathUnits="userSpaceOnUse" id="clipPath427"><path d="M 0,500 H 500 V 0 H 0 Z" transform="translate(-401.10251,-128.24711)" id="path427" /></clipPath><clipPath clipPathUnits="userSpaceOnUse" id="clipPath429"><path d="M 0,500 H 500 V 0 H 0 Z" transform="translate(-386.25491,-135.37211)" id="path429" /></clipPath><clipPath clipPathUnits="userSpaceOnUse" id="clipPath431"><path d="M 0,500 H 500 V 0 H 0 Z" transform="translate(-413.76071,-123.0801)" id="path431" /></clipPath><clipPath clipPathUnits="userSpaceOnUse" id="clipPath433"><path d="M 0,500 H 500 V 0 H 0 Z" transform="translate(-401.10161,-128.24711)" id="path433" /></clipPath><clipPath clipPathUnits="userSpaceOnUse" id="clipPath435"><path d="M 0,500 H 500 V 0 H 0 Z" transform="translate(-425.78911,-120.54)" id="path435" /></clipPath><clipPath clipPathUnits="userSpaceOnUse" id="clipPath437"><path d="M 0,500 H 500 V 0 H 0 Z" transform="translate(-413.75981,-123.0801)" id="path437" /></clipPath><clipPath clipPathUnits="userSpaceOnUse" id="clipPath439"><path d="M 0,500 H 500 V 0 H 0 Z" transform="translate(-425.78811,-120.54)" id="path439" /></clipPath><clipPath clipPathUnits="userSpaceOnUse" id="clipPath441"><path d="M 0,500 H 500 V 0 H 0 Z" transform="translate(-229.41751,-435.30081)" id="path441" /></clipPath><clipPath clipPathUnits="userSpaceOnUse" id="clipPath443"><path d="M 0,500 H 500 V 0 H 0 Z" transform="translate(-195.1851,-416.87351)" id="path443" /></clipPath><clipPath clipPathUnits="userSpaceOnUse" id="clipPath445"><path d="M 0,500 H 500 V 0 H 0 Z" transform="translate(-194.6499,-409.87941)" id="path445" /></clipPath><clipPath clipPathUnits="userSpaceOnUse" id="clipPath447"><path d="M 0,500 H 500 V 0 H 0 Z" transform="translate(-180.8179,-416.55571)" id="path447" /></clipPath><clipPath clipPathUnits="userSpaceOnUse" id="clipPath449"><path d="M 0,500 H 500 V 0 H 0 Z" transform="translate(-198.2974,-216.10161)" id="path449" /></clipPath><clipPath clipPathUnits="userSpaceOnUse" id="clipPath451"><path d="M 0,500 H 500 V 0 H 0 Z" transform="translate(-197.6113,-434.94731)" id="path451" /></clipPath><clipPath clipPathUnits="userSpaceOnUse" id="clipPath453"><path d="M 0,500 H 500 V 0 H 0 Z" transform="translate(-181.1304,-402.84721)" id="path453" /></clipPath><clipPath clipPathUnits="userSpaceOnUse" id="clipPath455"><path d="M 0,500 H 500 V 0 H 0 Z" transform="translate(-242.46831,-133.5723)" id="path455" /></clipPath><clipPath clipPathUnits="userSpaceOnUse" id="clipPath457"><path d="M 0,500 H 500 V 0 H 0 Z" transform="translate(-246.79251,-92.899402)" id="path457" /></clipPath><clipPath clipPathUnits="userSpaceOnUse" id="clipPath459"><path d="M 0,500 H 500 V 0 H 0 Z" transform="translate(-318.30371,-121.8018)" id="path459" /></clipPath><clipPath clipPathUnits="userSpaceOnUse" id="clipPath461"><path d="M 0,500 H 500 V 0 H 0 Z" transform="translate(-324.81151,-137.6904)" id="path461" /></clipPath><clipPath clipPathUnits="userSpaceOnUse" id="clipPath463"><path d="M 0,500 H 500 V 0 H 0 Z" transform="translate(-244.49661,-366.76711)" id="path463" /></clipPath><clipPath clipPathUnits="userSpaceOnUse" id="clipPath465"><path d="M 0,500 H 500 V 0 H 0 Z" transform="translate(-243.4399,-375.14401)" id="path465" /></clipPath><clipPath clipPathUnits="userSpaceOnUse" id="clipPath467"><path d="M 0,500 H 500 V 0 H 0 Z" transform="translate(-253.43071,-381.39501)" id="path467" /></clipPath><clipPath clipPathUnits="userSpaceOnUse" id="clipPath469"><path d="M 0,500 H 500 V 0 H 0 Z" transform="translate(-243.12451,-390.81981)" id="path469" /></clipPath><clipPath clipPathUnits="userSpaceOnUse" id="clipPath471"><path d="M 0,500 H 500 V 0 H 0 Z" transform="translate(-253.43551,-396.48051)" id="path471" /></clipPath><clipPath clipPathUnits="userSpaceOnUse" id="clipPath473"><path d="M 0,500 H 500 V 0 H 0 Z" transform="translate(-173.79741,-438.61521)" id="path473" /></clipPath><clipPath clipPathUnits="userSpaceOnUse" id="clipPath475"><path d="M 0,500 H 500 V 0 H 0 Z" transform="translate(-180.8169,-448.72901)" id="path475" /></clipPath><clipPath clipPathUnits="userSpaceOnUse" id="clipPath477"><path d="M 0,500 H 500 V 0 H 0 Z" transform="translate(-188.0278,-438.81051)" id="path477" /></clipPath><clipPath clipPathUnits="userSpaceOnUse" id="clipPath479"><path d="M 0,500 H 500 V 0 H 0 Z" transform="translate(-164.4438,-429.47951)" id="path479" /></clipPath><clipPath clipPathUnits="userSpaceOnUse" id="clipPath481"><path d="M 0,500 H 500 V 0 H 0 Z" transform="translate(-223.02781,-442.81351)" id="path481" /></clipPath><clipPath clipPathUnits="userSpaceOnUse" id="clipPath483"><path d="M 0,500 H 500 V 0 H 0 Z" transform="translate(-224.1406,-432.02691)" id="path483" /></clipPath><clipPath clipPathUnits="userSpaceOnUse" id="clipPath485"><path d="M 0,500 H 500 V 0 H 0 Z" transform="translate(-238.43601,-430.93951)" id="path485" /></clipPath><clipPath clipPathUnits="userSpaceOnUse" id="clipPath487"><path d="M 0,500 H 500 V 0 H 0 Z" transform="translate(-224.20951,-252.1665)" id="path487" /></clipPath><clipPath clipPathUnits="userSpaceOnUse" id="clipPath489"><path d="M 0,500 H 500 V 0 H 0 Z" transform="translate(-211.53421,-248.99801)" id="path489" /></clipPath><clipPath clipPathUnits="userSpaceOnUse" id="clipPath491"><path d="M 0,500 H 500 V 0 H 0 Z" transform="translate(-217.62211,-256.78221)" id="path491" /></clipPath><clipPath clipPathUnits="userSpaceOnUse" id="clipPath493"><path d="M 0,500 H 500 V 0 H 0 Z" transform="translate(-193.0039,-310.81641)" id="path493" /></clipPath><clipPath clipPathUnits="userSpaceOnUse" id="clipPath495"><path d="M 0,500 H 500 V 0 H 0 Z" transform="translate(-195.34371,-304.73681)" id="path495" /></clipPath><clipPath clipPathUnits="userSpaceOnUse" id="clipPath497"><path d="M 0,500 H 500 V 0 H 0 Z" transform="translate(-205.90621,-306.07471)" id="path497" /></clipPath><clipPath clipPathUnits="userSpaceOnUse" id="clipPath499"><path d="M 0,500 H 500 V 0 H 0 Z" transform="translate(-212.42241,-304.53171)" id="path499" /></clipPath><clipPath clipPathUnits="userSpaceOnUse" id="clipPath501"><path d="M 0,500 H 500 V 0 H 0 Z" transform="translate(-230.47221,-278.2026)" id="path501" /></clipPath><clipPath clipPathUnits="userSpaceOnUse" id="clipPath503"><path d="M 0,500 H 500 V 0 H 0 Z" transform="translate(-236.38531,-277.57761)" id="path503" /></clipPath><clipPath clipPathUnits="userSpaceOnUse" id="clipPath505"><path d="M 0,500 H 500 V 0 H 0 Z" transform="translate(-236.61771,-261.92871)" id="path505" /></clipPath><clipPath clipPathUnits="userSpaceOnUse" id="clipPath507"><path d="M 0,500 H 500 V 0 H 0 Z" transform="translate(-248.12551,-268.7295)" id="path507" /></clipPath><clipPath clipPathUnits="userSpaceOnUse" id="clipPath509"><path d="M 0,500 H 500 V 0 H 0 Z" transform="translate(-253.9453,-252.41061)" id="path509" /></clipPath><clipPath clipPathUnits="userSpaceOnUse" id="clipPath511"><path d="M 0,500 H 500 V 0 H 0 Z" transform="translate(-268.85841,-261.021)" id="path511" /></clipPath><clipPath clipPathUnits="userSpaceOnUse" id="clipPath513"><path d="M 0,500 H 500 V 0 H 0 Z" transform="translate(-278.84671,-263.01861)" id="path513" /></clipPath><clipPath clipPathUnits="userSpaceOnUse" id="clipPath515"><path d="M 0,500 H 500 V 0 H 0 Z" transform="translate(-277.45411,-241.44431)" id="path515" /></clipPath><clipPath clipPathUnits="userSpaceOnUse" id="clipPath517"><path d="M 0,500 H 500 V 0 H 0 Z" transform="translate(-291.00781,-251.98731)" id="path517" /></clipPath><clipPath clipPathUnits="userSpaceOnUse" id="clipPath519"><path d="M 0,500 H 500 V 0 H 0 Z" transform="translate(-291.583,-231.55271)" id="path519" /></clipPath><clipPath clipPathUnits="userSpaceOnUse" id="clipPath521"><path d="M 0,500 H 500 V 0 H 0 Z" transform="translate(-305.82131,-246.04391)" id="path521" /></clipPath><clipPath clipPathUnits="userSpaceOnUse" id="clipPath523"><path d="M 0,500 H 500 V 0 H 0 Z" transform="translate(-304.58111,-219.6426)" id="path523" /></clipPath><clipPath clipPathUnits="userSpaceOnUse" id="clipPath525"><path d="M 0,500 H 500 V 0 H 0 Z" transform="translate(-320.65331,-233.27051)" id="path525" /></clipPath><clipPath clipPathUnits="userSpaceOnUse" id="clipPath527"><path d="M 0,500 H 500 V 0 H 0 Z" transform="translate(-312.40621,-210.22071)" id="path527" /></clipPath><clipPath clipPathUnits="userSpaceOnUse" id="clipPath529"><path d="M 0,500 H 500 V 0 H 0 Z" transform="translate(-320.37791,-199.96481)" id="path529" /></clipPath><clipPath clipPathUnits="userSpaceOnUse" id="clipPath531"><path d="M 0,500 H 500 V 0 H 0 Z" transform="translate(-338.23141,-211.09571)" id="path531" /></clipPath><clipPath clipPathUnits="userSpaceOnUse" id="clipPath533"><path d="M 0,500 H 500 V 0 H 0 Z" transform="translate(-333.24611,-180.9609)" id="path533" /></clipPath><clipPath clipPathUnits="userSpaceOnUse" id="clipPath535"><path d="M 0,500 H 500 V 0 H 0 Z" transform="translate(-349.75291,-190.0703)" id="path535" /></clipPath><clipPath clipPathUnits="userSpaceOnUse" id="clipPath537"><path d="M 0,500 H 500 V 0 H 0 Z" transform="translate(-356.27731,-176.8418)" id="path537" /></clipPath><clipPath clipPathUnits="userSpaceOnUse" id="clipPath539"><path d="M 0,500 H 500 V 0 H 0 Z" transform="translate(-350.46971,-157.752)" id="path539" /></clipPath><clipPath clipPathUnits="userSpaceOnUse" id="clipPath541"><path d="M 0,500 H 500 V 0 H 0 Z" transform="translate(-366.06051,-160.3232)" id="path541" /></clipPath><clipPath clipPathUnits="userSpaceOnUse" id="clipPath543"><path d="M 0,500 H 500 V 0 H 0 Z" transform="translate(-364.13671,-143.793)" id="path543" /></clipPath><clipPath clipPathUnits="userSpaceOnUse" id="clipPath545"><path d="M 0,500 H 500 V 0 H 0 Z" transform="translate(-377.46781,-147.89261)" id="path545" /></clipPath><clipPath clipPathUnits="userSpaceOnUse" id="clipPath547"><path d="M 0,500 H 500 V 0 H 0 Z" transform="translate(-378.89751,-133.4639)" id="path547" /></clipPath><clipPath clipPathUnits="userSpaceOnUse" id="clipPath549"><path d="M 0,500 H 500 V 0 H 0 Z" transform="translate(-391.97171,-136.3086)" id="path549" /></clipPath><clipPath clipPathUnits="userSpaceOnUse" id="clipPath551"><path d="M 0,500 H 500 V 0 H 0 Z" transform="translate(-398.54881,-133.02641)" id="path551" /></clipPath><clipPath clipPathUnits="userSpaceOnUse" id="clipPath553"><path d="M 0,500 H 500 V 0 H 0 Z" transform="translate(-407.65531,-128.1602)" id="path553" /></clipPath><clipPath clipPathUnits="userSpaceOnUse" id="clipPath555"><path d="M 0,500 H 500 V 0 H 0 Z" transform="translate(-419.66311,-123.8027)" id="path555" /></clipPath><clipPath clipPathUnits="userSpaceOnUse" id="clipPath557"><path d="M 0,500 H 500 V 0 H 0 Z" transform="translate(-429.65331,-121.5996)" id="path557" /></clipPath><rect x="14.549811" y="36.058228" width="60.729648" height="58.515546" id="rect27" /></defs><g id="Color" style="display:inline" transform="matrix(0.20542448,0,0,0.20542448,12.212384,-8.6657839)"><path id="color-region-0" d="M 142,1515 L 139,1621 L 232,1621 L 235,1522 L 246,1423 L 262,1342 L 285,1263 L 313,1194 L 356,1116 L 408,1047 L 468,987 L 511,953 L 569,916 L 628,887 L 697,862 L 776,843 L 828,836 L 870,833 L 954,834 L 1058,849 L 1133,871 L 1180,890 L 1227,914 L 1278,946 L 1330,987 L 1375,1031 L 1418,1084 L 1460,1151 L 1491,1216 L 1511,1269 L 1534,1354 L 1546,1419 L 1556,1502 L 1561,1621 L 1654,1621 L 1650,1514 L 1639,1411 L 1625,1336 L 1609,1273 L 1588,1211 L 1561,1147 L 1518,1069 L 1480,1015 L 1442,970 L 1380,911 L 1313,861 L 1262,831 L 1194,799 L 1128,776 L 1049,757 L 965,746 L 888,744 L 809,749 L 735,761 L 662,780 L 593,805 L 523,839 L 443,891 L 389,936 L 340,986 L 284,1059 L 248,1119 L 216,1186 L 188,1261 L 167,1341 L 154,1407 Z" transform="matrix(0.188618125,0,0,0.188618125,307.37811500000004,68.360344)" style="fill:transparent;stroke:none" /><path id="color-region-1" d="M 282,1406 L 270,1500 L 265,1621 L 358,1621 L 366,1478 L 380,1392 L 397,1326 L 422,1258 L 447,1207 L 484,1150 L 524,1103 L 562,1068 L 612,1032 L 663,1004 L 733,977 L 796,962 L 862,954 L 946,954 L 1007,962 L 1089,984 L 1139,1005 L 1176,1025 L 1209,1047 L 1250,1080 L 1302,1136 L 1333,1180 L 1361,1231 L 1380,1275 L 1399,1332 L 1414,1394 L 1425,1463 L 1431,1527 L 1434,1621 L 1527,1621 L 1525,1536 L 1518,1459 L 1508,1391 L 1492,1321 L 1473,1260 L 1450,1204 L 1427,1159 L 1399,1114 L 1361,1065 L 1319,1021 L 1280,988 L 1240,960 L 1193,933 L 1135,907 L 1084,890 L 1026,876 L 953,867 L 875,866 L 821,870 L 764,879 L 705,894 L 642,917 L 590,942 L 538,974 L 496,1006 L 443,1057 L 405,1103 L 374,1150 L 348,1197 L 317,1272 L 300,1326 Z" transform="matrix(0.188618125,0,0,0.188618125,307.37811500000004,68.360344)" style="fill:transparent;stroke:none" /><path id="color-region-2" d="M 414,1390 L 397,1500 L 391,1621 L 486,1621 L 486,1570 L 491,1497 L 502,1424 L 518,1359 L 535,1312 L 555,1270 L 583,1226 L 612,1191 L 648,1158 L 693,1127 L 733,1107 L 779,1091 L 834,1079 L 878,1075 L 938,1076 L 998,1085 L 1061,1105 L 1114,1132 L 1156,1163 L 1203,1212 L 1224,1241 L 1250,1289 L 1280,1372 L 1301,1486 L 1306,1548 L 1307,1621 L 1401,1621 L 1396,1505 L 1380,1392 L 1350,1289 L 1310,1206 L 1285,1168 L 1260,1137 L 1234,1110 L 1192,1075 L 1125,1035 L 1086,1018 L 1032,1001 L 981,991 L 921,986 L 822,991 L 755,1005 L 715,1018 L 677,1034 L 623,1064 L 574,1101 L 540,1134 L 491,1198 L 469,1236 L 448,1281 L 429,1334 Z" transform="matrix(0.188618125,0,0,0.188618125,307.37811500000004,68.360344)" style="fill:transparent;stroke:none" /><path style="display:inline;fill:transparent;stroke-width:0.122535;stroke-opacity:1;stroke:none" d="M 46.100761,70.614031 V 63.1019 h 0.711676 0.711675 v 0.939567 c 0,1.001191 0.0097,1.018328 0.661382,1.173907 0.336092,0.08023 0.44494,0.03577 0.524264,-0.214158 0.05506,-0.173477 0.37364,-0.661457 0.707958,-1.084401 0.992421,-1.255506 2.178184,-1.535201 3.756296,-0.886024 l 0.510021,0.209804 -0.270589,0.730086 c -0.224738,0.606373 -0.32456,0.714529 -0.589096,0.638278 -1.431349,-0.412581 -2.582833,-0.218941 -3.503153,0.58911 -1.31926,1.158326 -1.50533,2.098717 -1.595772,8.064976 l -0.07372,4.863116 h -0.77547 -0.775471 z" id="path10" transform="matrix(4.867969,0,0,4.867969,-59.449507,42.184767)" /><path style="display:inline;fill:transparent;stroke-width:0.122535;stroke-opacity:1;stroke:none" d="M 15.261487,62.627449 V 47.128737 l 6.681843,0.0056 c 11.508311,0.0096 13.422742,0.32043 15.520632,2.519848 1.496364,1.568782 2.213318,3.443464 2.209529,5.777453 -0.0038,2.316547 -0.613665,3.828169 -2.174188,5.388625 -1.521265,1.521201 -3.469385,2.336678 -6.620491,2.771317 -0.761098,0.104978 -1.383492,0.233463 -1.383098,0.285518 3.94e-4,0.05205 0.765445,0.48113 1.700114,0.9535 2.772208,1.401036 3.695708,2.458401 7.921525,9.069768 l 2.707043,4.235218 -1.992511,-0.04424 -1.992511,-0.04424 -2.55115,-3.99184 C 30.927976,67.232685 29.537803,65.494723 27.747257,64.62772 26.496807,64.022237 25.432923,63.894621 21.62703,63.893584 l -3.360691,-9.16e-4 v 7.116756 7.116755 H 16.763913 15.261487 Z M 31.291221,61.12973 c 2.269757,-0.404533 3.772151,-1.446661 4.643443,-3.220902 0.396255,-0.806903 0.439865,-1.060346 0.439865,-2.556284 0,-1.495641 -0.04188,-1.739118 -0.421599,-2.451327 -0.505914,-0.948892 -1.545952,-1.978698 -2.459663,-2.435462 -1.461353,-0.730533 -2.253478,-0.801792 -8.94046,-0.804278 l -6.286468,-0.0023 v 5.851555 5.851554 l 5.891093,-0.0055 c 4.332294,-0.0041 6.219913,-0.06412 7.133789,-0.227001 z" id="path8" transform="matrix(4.867969,0,0,4.867969,-59.449507,42.184767)" /><path id="path2" style="display:inline;fill:transparent;stroke-width:0.122535;stroke-opacity:1;stroke:none" d="m 19.37339,55.515331 v -4.769677 l 5.970167,0.05604 c 5.241002,0.04919 6.067155,0.09059 6.764267,0.338905 1.193661,0.425196 2.146021,1.194324 2.685179,2.168557 0.409858,0.740592 0.474429,1.020217 0.474451,2.054573 4.4e-5,2.209337 -1.136816,3.708402 -3.367327,4.440156 -0.995559,0.326608 -1.413708,0.352125 -6.793795,0.414578 l -5.732942,0.06655 z M 3.0048524,59.622597 V 2.530402 H 79.549513 156.09417 V 59.622597 116.71479 H 79.549513 3.0048524 Z m 16.4476126,12.65201 v -7.116756 h 3.175604 c 5.063248,0 5.782844,0.570815 10.965453,8.698257 1.66398,2.609477 3.194085,4.927496 3.400234,5.151152 0.271009,0.29403 1.303312,0.381629 3.727396,0.3163 l 3.352583,-0.09035 -3.433907,-5.377104 c -1.888651,-2.957407 -4.242994,-6.273325 -5.231875,-7.368704 -0.988878,-1.09538 -1.745282,-2.030888 -1.680894,-2.078906 0.06439,-0.04802 0.759344,-0.324923 1.544347,-0.61534 1.99558,-0.73828 3.665974,-2.213842 4.667953,-4.123489 0.732083,-1.395267 0.855133,-2.013729 0.858935,-4.317125 0.005,-3.043312 -0.627884,-4.759269 -2.445203,-6.629511 -2.306164,-2.373324 -5.097256,-2.853494 -16.607449,-2.857096 l -7.670281,-0.0024 v 16.763913 16.763913 h 2.688552 2.688552 z m 29.471829,1.344276 c 0.131714,-6.06965 0.286388,-6.783783 1.664929,-7.687039 0.678107,-0.444313 0.862858,-0.443914 1.935239,0.0042 0.652056,0.272449 1.222956,0.457908 1.268664,0.412133 0.04571,-0.04577 0.389549,-0.86077 0.764096,-1.8111 0.648226,-1.644736 0.654008,-1.747607 0.120166,-2.137959 -0.599262,-0.438193 -2.487638,-1.032148 -3.290794,-1.035058 -0.267657,-9.71e-4 -1.014916,0.267562 -1.660576,0.596739 -0.956733,0.487769 -1.17393,0.514111 -1.17393,0.142366 0,-0.355429 -0.401546,-0.435194 -1.818726,-0.361278 l -1.818727,0.09486 -0.08408,8.777332 -0.08408,8.777331 h 2.026277 2.026273 z m 46.80348,-7.828431 c 0.35597,-6.313173 1.711149,-10.228252 4.615046,-13.332752 2.78636,-2.978846 7.71571,-4.515186 12.14174,-3.784241 7.12263,1.176276 11.24473,6.415445 11.83163,15.037923 0.0956,1.404436 0.2497,3.303202 0.34246,4.21948 l 0.16866,1.665956 7.96315,-0.08446 7.96315,-0.08446 -0.0739,-3.614009 c -0.36019,-17.622194 -9.6521,-29.822695 -24.71806,-32.455431 -3.09242,-0.540392 -7.86579,-0.597676 -10.79185,-0.12951 -13.521773,2.163471 -22.932208,12.031295 -25.123211,26.344312 -0.564365,3.686773 -0.904511,8.774735 -0.633786,9.48023 0.190609,0.496721 0.889696,0.536034 8.159158,0.458838 l 7.950684,-0.08443 z" transform="matrix(4.867969,0,0,4.867969,-59.449507,42.184767)" /></g><g id="Outline" style="display:inline" transform="matrix(0.20542448,0,0,0.20542448,12.212384,-8.6657839)"><rect style="display:inline;fill:none;stroke:#000000;stroke-width:1.33306;stroke-dasharray:none;stroke-opacity:1" id="rect1" width="154.88843" height="115.74319" x="2.0926507" y="1.7971287" transform="matrix(4.8679691,0,0,4.8679691,-59.449507,42.184767)" ns2:label="CardBoundary" /><path style="font-size:22.325px;font-family:'Comic Sans MS';-inkscape-font-specification:'Comic Sans MS';display:inline;fill:#000000;fill-opacity:1;stroke:none;stroke-width:6.43992;stroke-opacity:1" d="m 511.50571,584.74849 q 0,0.38153 -0.67585,1.11189 -0.50144,0.50144 -0.99198,1.00288 -1.21,1.37351 -1.89675,3.92431 -0.59955,2.22378 -0.59955,4.37126 0,5.53764 2.5072,8.12115 0.50144,0.39243 1.01378,0.78486 0.63225,0.50144 0.63225,0.99198 0,0.35973 -0.28342,0.62135 -0.28342,0.27253 -0.65405,0.27253 -0.32703,0 -0.78487,-0.25072 -4.61107,-2.58351 -4.61107,-10.79187 0,-2.95414 1.1882,-5.98459 1.3299,-3.36837 3.48828,-4.88359 0.43603,-0.30523 0.68675,-0.30523 0.39244,0 0.68676,0.31613 0.29432,0.30522 0.29432,0.69766 z m 7.03107,17.17978 q -2.23468,0 -3.7281,-1.35171 -1.56973,-1.41711 -1.56973,-3.739 0,-2.21288 1.47162,-4.56747 1.63513,-2.61621 3.6845,-2.61621 1.06828,0 2.38729,0.50144 1.66784,0.64315 1.66784,1.56973 0,0.41423 -0.27253,0.74126 -0.27252,0.31612 -0.67585,0.31612 -0.31613,0 -0.55595,-0.18531 -0.22891,-0.19622 -0.44693,-0.38153 -0.64315,-0.51234 -2.10387,-0.51234 -1.11189,0 -2.20198,1.98396 -0.99198,1.82044 -0.99198,3.15035 0,1.43892 0.98108,2.26738 0.91567,0.77397 2.35459,0.77397 0.65405,0 1.39531,-0.34883 l 1.2645,-0.67586 q 0.32703,-0.17441 0.46874,-0.17441 0.40333,0 0.69766,0.32703 0.29432,0.31612 0.29432,0.73035 0,0.79577 -1.67873,1.53703 -1.47162,0.65405 -2.4418,0.65405 z m 12.61232,-7.02016 q 0,8.20836 -4.62198,10.79187 -0.44693,0.25072 -0.77396,0.25072 -0.37063,0 -0.65405,-0.27253 -0.28342,-0.26162 -0.28342,-0.62135 0,-0.49054 0.63225,-0.99198 0.50144,-0.39243 1.01378,-0.78486 2.5072,-2.58351 2.5072,-8.12115 0,-2.14748 -0.59955,-4.37126 -0.69765,-2.5508 -1.89675,-3.92431 -0.50144,-0.50144 -0.99198,-1.00288 -0.67586,-0.73036 -0.67586,-1.11189 0,-0.39244 0.28343,-0.69766 0.29432,-0.31613 0.68675,-0.31613 0.25072,0 0.69766,0.30523 2.15837,1.51522 3.48828,4.88359 1.1882,3.03045 1.1882,5.98459 z m 24.97391,7.23818 q -0.58865,0 -0.97018,-0.61045 -0.32703,-0.52324 -0.58865,-1.74414 l -0.39243,-1.87495 q -0.44693,-1.74414 -1.41711,-7.69602 l -2.18018,6.57323 -0.64315,2.07116 q -0.39243,1.2318 -0.81757,2.01667 -0.45783,0.82846 -1.2318,0.82846 -0.64315,0 -1.01378,-0.69765 -0.23982,-0.45784 -0.43603,-1.1664 l -0.31613,-1.20999 q -1.10099,-3.84801 -1.94035,-8.24107 l -0.39244,1.95126 -1.40621,5.75566 q -0.0872,1.01378 -0.54504,2.99774 -0.32703,0.85027 -1.07919,0.85027 -0.53414,0 -0.85027,-0.38153 -0.27252,-0.32702 -0.27252,-0.80666 0,-1.82045 0.75216,-4.46936 l 1.1991,-4.39306 0.63225,-3.43377 q 0.47964,-2.4091 1.01378,-3.15036 0.43603,-0.63225 1.07919,-0.63225 0.70855,0 1.05738,0.80667 0.42514,0.97017 0.91568,3.95701 0.57774,3.58639 1.79864,7.76143 1.61333,-4.19684 2.79063,-8.7425 l 0.32702,-1.59153 q 0.19622,-0.95928 0.51234,-1.54793 0.42514,-0.80666 1.1664,-0.80666 0.93747,0 1.42801,1.80954 0.17442,0.62135 0.42514,2.57261 0.64315,4.9272 1.60243,8.41548 l 0.53414,1.87495 q 0.41423,1.50432 0.41423,1.85315 0,0.46874 -0.35973,0.78486 -0.34882,0.31613 -0.79576,0.31613 z m 12.02367,-0.18532 q -0.20711,0 -0.75216,-0.47963 -0.49054,-0.44694 -0.73036,-0.79577 -1.04648,0.56685 -1.84225,0.85027 -0.79576,0.29432 -1.3299,0.29432 -2.55081,0 -3.7172,-1.43891 -1.10099,-1.35171 -1.10099,-4.14234 0,-2.63801 1.80954,-4.51296 1.82045,-1.87495 4.33855,-1.87495 0.94838,0 2.12568,0.49054 1.48252,0.61045 1.48252,1.47162 0,0.29432 -0.21802,0.52324 -0.10901,0.41423 -0.17442,1.36261 -0.0545,0.94838 -0.0654,2.43089 -0.0109,1.35171 0.18531,2.13658 0.10901,0.47964 0.68676,1.91855 0.0763,0.19622 0.25072,0.57775 l 0.0654,0.18531 q 0,0.43604 -0.30522,0.71946 -0.30522,0.28342 -0.70856,0.28342 z m -2.26738,-7.57611 q 0,-0.46873 0.0545,-1.01378 0.0654,-0.55594 0.18532,-1.17729 -0.40333,-0.20712 -0.69766,-0.30523 -0.28342,-0.0981 -0.45783,-0.0981 -1.68964,0 -2.92144,1.38442 -1.2209,1.37351 -1.2209,3.17215 0,1.78775 0.63225,2.68162 0.63225,0.89387 1.89676,0.89387 1.04648,0 1.77684,-0.38153 0.39243,-0.20712 1.10099,-0.82847 -0.34883,-2.88873 -0.34883,-4.32765 z m 14.14934,2.15838 -0.25072,3.66269 q -0.0654,2.18018 -0.44694,3.56459 -0.49054,1.76594 -1.56972,2.60531 -1.30811,1.01378 -3.78261,1.01378 -1.44982,0 -2.4309,-0.19621 -1.37351,-0.27253 -1.37351,-1.1337 0,-0.97017 0.94838,-0.97017 0.39243,0 1.30811,0.18531 0.91567,0.19622 2.02756,0.17442 2.09297,-0.0327 2.88873,-2.02757 0.52324,-1.32991 0.55595,-4.08783 -0.58865,1.09009 -1.40622,1.63513 -0.80666,0.54505 -1.85315,0.54505 -1.97306,0 -3.21576,-1.34081 -1.2318,-1.35171 -1.2318,-3.49918 0,-2.94324 1.68964,-4.74188 1.74414,-1.85315 4.75278,-1.85315 1.01379,0 1.70054,0.26162 0.68676,0.26162 1.04649,0.78486 1.16639,0.0327 1.16639,1.2972 0,0.77397 -0.22892,2.07117 -0.25072,1.50432 -0.29432,2.04937 z m -3.49918,-4.72008 q -2.07117,0 -3.20486,1.42801 -1.01378,1.28631 -1.01378,3.27027 0,1.58062 0.59954,2.37639 0.59955,0.79576 1.79865,0.79576 1.10099,0 2.13657,-1.2427 0.93748,-1.14459 1.06829,-2.26738 0.22892,-1.1773 0.49054,-3.6954 -0.43604,-0.33793 -0.90478,-0.50144 -0.46873,-0.16351 -0.97017,-0.16351 z m 8.45908,-4.38216 q -0.52324,0 -0.90477,-0.37063 -0.38153,-0.37063 -0.38153,-0.89387 0,-0.52324 0.38153,-0.89387 0.38153,-0.37063 0.90477,-0.37063 0.52324,0 0.89387,0.37063 0.38153,0.37063 0.38153,0.89387 0,0.52324 -0.38153,0.89387 -0.37063,0.37063 -0.89387,0.37063 z m 0.49054,8.85152 q 0,0.65405 0.0327,1.96216 0.0436,1.2972 0.0436,1.95125 0,0.47964 -0.29433,0.78487 -0.29432,0.30522 -0.77396,0.30522 -0.46874,0 -0.77396,-0.30522 -0.29433,-0.30523 -0.29433,-0.78487 0,-0.65405 -0.0436,-1.95125 -0.0327,-1.30811 -0.0327,-1.96216 0,-1.02469 0.10901,-2.55081 0.10901,-1.53702 0.10901,-2.56171 0,-0.49054 0.29432,-0.79576 0.30522,-0.30522 0.77396,-0.30522 0.46874,0 0.76306,0.30522 0.30523,0.30522 0.30523,0.79576 0,1.02469 -0.10901,2.56171 -0.10901,1.52612 -0.10901,2.55081 z m 8.61169,5.63575 q -2.23468,0 -3.7281,-1.35171 -1.56972,-1.41711 -1.56972,-3.739 0,-2.21288 1.47161,-4.56747 1.63514,-2.61621 3.6845,-2.61621 1.06829,0 2.38729,0.50144 1.66784,0.64315 1.66784,1.56973 0,0.41423 -0.27252,0.74126 -0.27253,0.31612 -0.67586,0.31612 -0.31612,0 -0.55594,-0.18531 -0.22892,-0.19622 -0.44694,-0.38153 -0.64315,-0.51234 -2.10387,-0.51234 -1.11189,0 -2.20198,1.98396 -0.99198,1.82044 -0.99198,3.15035 0,1.43892 0.98108,2.26738 0.91568,0.77397 2.35459,0.77397 0.65406,0 1.39532,-0.34883 l 1.2645,-0.67586 q 0.32702,-0.17441 0.46874,-0.17441 0.40333,0 0.69765,0.32703 0.29433,0.31612 0.29433,0.73035 0,0.79577 -1.67874,1.53703 -1.47162,0.65405 -2.4418,0.65405 z m 9.52737,-7.08557 q -0.30522,0 -1.3299,-0.14171 -0.0872,1.64603 -0.0872,5.76656 0,0.43604 -0.28342,0.74126 -0.28343,0.29433 -0.70856,0.29433 -0.43604,0 -0.71946,-0.29433 -0.28342,-0.30522 -0.28342,-0.74126 v -3.20485 q 0,-1.60243 0.19621,-4.51297 0.21802,-3.15035 0.23982,-4.51296 v -1.50432 q 0,-1.07919 0.13081,-1.56973 0.25073,-0.95928 1.06829,-0.82847 0.34883,-0.10901 0.99198,-0.16351 0.64315,-0.0545 1.58063,-0.0545 1.99486,0 3.739,1.36261 1.91855,1.50433 1.91855,3.6191 0,2.70341 -2.04936,4.30584 -1.83135,1.43892 -4.40396,1.43892 z m 0.54505,-8.6553 q -0.47964,0 -0.86117,0.0218 -0.37063,0.0218 -0.63225,0.0654 l -0.0218,2.00576 -0.22892,4.33855 1.19909,0.14171 q 1.83135,0 3.08495,-0.92657 1.37351,-1.01378 1.37351,-2.73612 0,-1.2209 -1.3081,-2.10387 -1.21,-0.80667 -2.60531,-0.80667 z m 13.17916,15.55556 q -2.4636,0 -3.98972,-1.2318 -1.66783,-1.36261 -1.66783,-3.81531 0,-2.83423 1.37351,-4.75278 1.49342,-2.09297 3.98972,-2.09297 1.80954,0 2.95414,0.61045 1.40621,0.75216 1.40621,2.31098 0,1.09009 -1.2318,1.98396 -0.54504,0.39243 -2.31099,1.2209 l -4.16413,1.97306 q 0.61045,0.90477 1.51522,1.36261 0.91567,0.45784 2.12567,0.45784 0.75216,0 1.76594,-0.28343 1.28631,-0.35972 1.65694,-0.93747 0.37063,-0.58865 0.79576,-0.58865 0.38153,0 0.67586,0.29433 0.30522,0.28342 0.30522,0.66495 0,1.21 -1.95126,2.08207 -1.66783,0.74126 -3.24846,0.74126 z m -0.29432,-9.9307 q -1.32991,0 -2.21288,1.03558 -0.88297,1.02468 -1.31901,3.09585 l 3.34657,-1.59153 q 1.97306,-0.95928 2.81243,-1.66783 -0.93747,-0.87207 -2.62711,-0.87207 z m 15.79537,10.20322 q -0.93748,0 -1.05739,-1.02468 l -0.30522,-2.3873 q -0.15261,-1.2754 -0.15261,-2.38729 0,-0.30522 0.0327,-1.03558 0.0436,-0.73036 0.0436,-1.03559 0,-2.35459 -0.87207,-2.35459 -1.2209,0 -2.33279,1.44982 -1.00288,1.31901 -1.56972,3.33567 -0.0218,0.42513 -0.0981,1.06829 -0.0654,0.54504 -0.0654,1.05738 0,0.32703 0.0654,0.98108 0.0654,0.65405 0.0654,0.98108 0,0.49054 -0.30522,0.79576 -0.29432,0.30523 -0.76306,0.30523 -0.47964,0 -0.77396,-0.30523 -0.29433,-0.30522 -0.29433,-0.79576 0,-0.32703 -0.0763,-0.98108 -0.0654,-0.65405 -0.0654,-0.98108 0,-1.12279 0.15261,-3.10675 0.16352,-1.99486 0.16352,-3.11765 0,-0.34883 -0.0436,-1.03558 -0.0327,-0.68676 -0.0327,-1.03559 0,-0.46874 0.30522,-0.76306 0.31613,-0.30522 0.77397,-0.30522 1.00288,0 1.10099,1.41711 l 0.0327,1.2754 q 1.83135,-2.44179 3.7608,-2.44179 1.74414,0 2.4309,1.53702 0.46874,1.02468 0.51234,3.03044 v 1.10099 l -0.0109,1.01379 q 0,0.90477 0.22892,2.34368 0.23982,1.42802 0.23982,2.32189 0,0.47964 -0.31613,0.77396 -0.30522,0.30523 -0.77396,0.30523 z m 8.25196,-0.0872 q -2.23468,0 -3.7281,-1.35171 -1.56973,-1.41711 -1.56973,-3.739 0,-2.21288 1.47162,-4.56747 1.63513,-2.61621 3.6845,-2.61621 1.06828,0 2.38729,0.50144 1.66783,0.64315 1.66783,1.56973 0,0.41423 -0.27252,0.74126 -0.27252,0.31612 -0.67585,0.31612 -0.31613,0 -0.55595,-0.18531 -0.22892,-0.19622 -0.44693,-0.38153 -0.64316,-0.51234 -2.10387,-0.51234 -1.11189,0 -2.20198,1.98396 -0.99198,1.82044 -0.99198,3.15035 0,1.43892 0.98108,2.26738 0.91567,0.77397 2.35459,0.77397 0.65405,0 1.39531,-0.34883 l 1.2645,-0.67586 q 0.32703,-0.17441 0.46874,-0.17441 0.40333,0 0.69766,0.32703 0.29432,0.31612 0.29432,0.73035 0,0.79577 -1.67873,1.53703 -1.47162,0.65405 -2.4418,0.65405 z m 8.6226,-14.48727 q -0.52325,0 -0.90478,-0.37063 -0.38153,-0.37063 -0.38153,-0.89387 0,-0.52324 0.38153,-0.89387 0.38153,-0.37063 0.90478,-0.37063 0.52324,0 0.89387,0.37063 0.38153,0.37063 0.38153,0.89387 0,0.52324 -0.38153,0.89387 -0.37063,0.37063 -0.89387,0.37063 z m 0.49054,8.85152 q 0,0.65405 0.0327,1.96216 0.0436,1.2972 0.0436,1.95125 0,0.47964 -0.29432,0.78487 -0.29433,0.30522 -0.77396,0.30522 -0.46874,0 -0.77397,-0.30522 -0.29432,-0.30523 -0.29432,-0.78487 0,-0.65405 -0.0436,-1.95125 -0.0327,-1.30811 -0.0327,-1.96216 0,-1.02469 0.10901,-2.55081 0.10901,-1.53702 0.10901,-2.56171 0,-0.49054 0.29433,-0.79576 0.30522,-0.30522 0.77396,-0.30522 0.46874,0 0.76306,0.30522 0.30522,0.30522 0.30522,0.79576 0,1.02469 -0.109,2.56171 -0.10901,1.52612 -0.10901,2.55081 z m 6.45332,-3.61909 -0.16351,5.41773 q 0,0.86117 -0.0872,2.52901 -0.10901,1.09008 -1.06828,1.09008 -1.06829,0 -1.06829,-1.11189 0,-1.319 0.11991,-3.95701 0.11991,-2.64892 0.11991,-3.96792 0,-1.72234 0.0545,-3.93522 0.0545,-2.22378 0.0545,-3.94612 0,-1.09009 1.06828,-1.09009 1.07919,0 1.07919,1.09009 0,1.72234 -0.0545,3.94612 -0.0545,2.21288 -0.0545,3.93522 z m 4.74188,9.58187 q -0.56685,0 -0.95928,-0.39243 -0.39243,-0.39244 -0.39243,-0.95928 0,-0.55595 0.39243,-0.94838 0.39243,-0.40333 0.95928,-0.40333 0.55594,0 0.94838,0.40333 0.40333,0.39243 0.40333,0.94838 0,0.56684 -0.40333,0.95928 -0.39244,0.39243 -0.94838,0.39243 z m 11.48953,-16.34042 q -2.63802,0 -2.95414,3.6627 l -0.0327,0.67585 q 1.85315,-0.13081 2.3982,-0.13081 1.73324,0 1.73324,1.09009 0,0.79576 -0.85027,0.94837 -0.37063,0.0654 -0.87207,0.0545 -0.49054,-0.0218 -2.5072,0.14171 l -0.0872,2.4854 q 0,0.67585 0.0436,2.02756 0.0436,1.35171 0.0436,2.01667 0,2.07116 -0.23982,3.22666 -0.18532,0.87207 -1.01378,0.87207 -0.44694,0 -0.76307,-0.29433 -0.31612,-0.28342 -0.31612,-0.71945 0,-0.0872 0.0218,-0.21802 0.22892,-1.41712 0.22892,-3.08495 l -0.0327,-2.97594 v -3.16126 q -1.36261,0.10901 -1.72234,0.10901 -1.10099,0 -1.10099,-1.05738 0,-1.07919 1.90765,-1.13369 l 1.04649,-0.0327 q 0.0327,-0.61045 0.16351,-1.65693 0.28342,-2.42 1.2209,-3.56459 1.13369,-1.38441 3.54278,-1.38441 1.55883,0 1.55883,1.05739 0,1.04648 -1.41711,1.04648 z m 12.91755,8.96052 q 0,0.78487 0.0109,2.35459 0.0109,1.56973 0.0109,2.35459 0,0.23982 0.0327,0.73036 0.0436,0.49054 0.0436,0.73036 0,0.46874 -0.31612,0.76306 -0.31613,0.30523 -0.77396,0.30523 -0.83937,0 -1.06829,-1.03559 -1.36261,0.70856 -3.13945,0.70856 -1.42802,0 -2.36549,-0.63225 -1.03559,-0.69766 -1.2318,-2.03847 -0.42514,-2.88873 -0.42514,-5.14521 0,-1.49342 0.32703,-3.40107 0.15261,-0.94838 1.03558,-0.94838 0.46874,0 0.78487,0.30522 0.31612,0.29433 0.31612,0.76306 0,0.50145 -0.16351,1.60243 -0.15261,1.10099 -0.15261,1.67874 0,1.82045 0.11991,3.11765 0.1199,1.29721 0.35972,2.08207 0.35973,0.19621 0.70856,0.30522 0.34883,0.0981 0.68676,0.0981 1.46071,0 3.08495,-0.46874 l -0.0109,-2.21287 -0.0218,-2.11478 q 0,-2.35459 0.20712,-4.08783 0.11991,-1.00288 1.05738,-1.00288 0.46874,0 0.78487,0.30523 0.31612,0.30522 0.29432,0.76306 z m 11.07529,7.14008 q -0.93748,0 -1.05739,-1.02468 l -0.30522,-2.3873 q -0.15261,-1.2754 -0.15261,-2.38729 0,-0.30522 0.0327,-1.03558 0.0436,-0.73036 0.0436,-1.03559 0,-2.35459 -0.87207,-2.35459 -1.2209,0 -2.33279,1.44982 -1.00288,1.31901 -1.56972,3.33567 -0.0218,0.42513 -0.0981,1.06829 -0.0654,0.54504 -0.0654,1.05738 0,0.32703 0.0654,0.98108 0.0654,0.65405 0.0654,0.98108 0,0.49054 -0.30523,0.79576 -0.29432,0.30523 -0.76306,0.30523 -0.47964,0 -0.77396,-0.30523 -0.29433,-0.30522 -0.29433,-0.79576 0,-0.32703 -0.0763,-0.98108 -0.0654,-0.65405 -0.0654,-0.98108 0,-1.12279 0.15261,-3.10675 0.16352,-1.99486 0.16352,-3.11765 0,-0.34883 -0.0436,-1.03558 -0.0327,-0.68676 -0.0327,-1.03559 0,-0.46874 0.30523,-0.76306 0.31612,-0.30522 0.77396,-0.30522 1.00288,0 1.10099,1.41711 l 0.0327,1.2754 q 1.83135,-2.44179 3.7608,-2.44179 1.74414,0 2.4309,1.53702 0.46874,1.02468 0.51234,3.03044 v 1.10099 l -0.0109,1.01379 q 0,0.90477 0.22892,2.34368 0.23982,1.42802 0.23982,2.32189 0,0.47964 -0.31613,0.77396 -0.30522,0.30523 -0.77396,0.30523 z" id="text1" aria-label="(c) MagicPencil.fun" ns2:label="websitetext" /><text xml:space="preserve" id="text3" style="font-style:normal;font-variant:normal;font-weight:normal;font-stretch:normal;font-size:12px;font-family:Arial;-inkscape-font-specification:Arial;text-align:start;writing-mode:lr-tb;direction:ltr;white-space:pre;shape-inside:url(#rect3);display:inline;fill:#000000;stroke-width:5" transform="matrix(4.867969,0,0,4.867969,579.5425,74.519303)" ns2:label="ImageTitle"><tspan x="-34.792969" y="100.63913" id="tspan2">Rainbow</tspan></text><g id="text27" style="font-size:48px;font-family:'Comic Sans MS';-inkscape-font-specification:'Comic Sans MS';white-space:pre;fill:none;stroke:#000000;stroke-width:0.890761" ns2:label="Letter" transform="matrix(5.4649548,0,0,5.4649548,-85.031275,0.67005549)" aria-label="Rr"><path style="font-size:40px;font-family:Arial;-inkscape-font-specification:Arial" d="M 17.695312,77.764316 V 49.131503 h 12.695313 q 3.828125,0 5.820312,0.78125 1.992188,0.761719 3.183594,2.714844 1.191406,1.953125 1.191406,4.316406 0,3.046875 -1.972656,5.136719 -1.972656,2.089844 -6.09375,2.65625 1.503906,0.722656 2.285156,1.425781 1.660157,1.523438 3.144532,3.808594 l 4.980468,7.792969 H 38.164062 L 34.375,71.807285 Q 32.714844,69.22916 31.640625,67.861972 30.566406,66.494785 29.707031,65.94791 28.867187,65.401035 27.988281,65.186191 27.34375,65.049472 25.878906,65.049472 h -4.394531 v 12.714844 z m 3.789063,-15.996094 h 8.144531 q 2.597656,0 4.0625,-0.527344 1.464844,-0.546875 2.226563,-1.71875 0.761718,-1.191406 0.761718,-2.578125 0,-2.03125 -1.484375,-3.339843 -1.464843,-1.308594 -4.648437,-1.308594 h -9.0625 z" id="path4" /><path style="font-size:28px;font-family:Arial;-inkscape-font-specification:Arial" d="M 45.255859,77.764316 V 63.244785 h 2.214844 v 2.201171 q 0.847656,-1.544921 1.558594,-2.037109 0.724609,-0.492187 1.585937,-0.492187 1.244141,0 2.529297,0.792968 l -0.847656,2.283203 q -0.902344,-0.533203 -1.804688,-0.533203 -0.80664,0 -1.449218,0.492188 -0.642578,0.478515 -0.916016,1.339844 -0.410156,1.3125 -0.410156,2.871093 v 7.601563 z" id="path6" /></g><path id="outline-0" d="m 116.50223,1652.4301 c -4.00635,-2.0963 -6.41766,-4.3659 -8.10461,-7.6281 -2.62113,-5.0687 -1.63336,-79.5147 1.64264,-123.802 11.59248,-156.7154 43.7601,-283.8515 100.44784,-397 29.84308,-59.5667 66.43878,-113.7283 109.42189,-161.94439 23.09328,-25.90476 59.10002,-59.72606 89.59655,-84.15844 C 430.8717,860.7804 468.30995,835.05856 493,820.53322 c 84.99963,-50.00591 186.4782,-84.96476 288.86043,-99.51094 44.32566,-6.29767 82.86864,-8.47851 136.13957,-7.70307 48.28584,0.70288 70.65087,2.45982 111.5,8.75919 58.81,9.06913 119.5606,25.52158 172.5,46.71638 71.6183,28.6731 129.7384,62.70287 190.5,111.53939 77.1221,61.98607 142.9034,144.57173 189.8265,238.31923 36.381,72.6854 61.2052,146.6451 79.0205,235.4289 15.016,74.8334 23.3633,157.7617 25.2761,251.113 0.7835,38.2378 0.4906,40.3279 -6.3845,45.5719 l -3.5828,2.7328 -194.0779,0.2526 c -183.2625,0.2385 -194.269,0.1549 -197.5068,-1.5 -1.8859,-0.9639 -4.6963,-3.3403 -6.2454,-5.2808 l -2.8164,-3.5282 -0.4826,-31.9718 c -0.7366,-48.7997 -2.115,-74.3745 -6.116,-113.4718 -3.1203,-30.4906 -3.6377,-34.2434 -8.548,-62 -6.513,-36.8163 -9.9841,-51.1104 -19.5482,-80.5 -12.4506,-38.2598 -28.3994,-71.7667 -48.3166,-101.5085 -28.4398,-42.4686 -59.2618,-71.5251 -104.9979,-98.9838 -26.0025,-15.6112 -63.8996,-30.0911 -100.5,-38.3995 -44.87242,-10.1862 -109.6465,-11.2338 -160.65291,-2.5983 -40.16364,6.7998 -83.28888,22.2202 -116.84709,41.7814 -47.59061,27.7408 -88.04784,67.3897 -116.53715,114.2087 -7.46841,12.2735 -23.09946,43.0891 -27.39124,54 -9.08231,23.0898 -12.50733,32.9434 -18.0401,51.9006 -9.5279,32.646 -15.57854,62.408 -20.96018,103.0994 -5.64101,42.6526 -9.03466,97.0605 -9.06186,145.2821 -0.0108,19.1103 -0.69502,21.8508 -6.57543,26.3361 l -3.77816,2.8818 -194.07794,0.2494 c -174.65946,0.2244 -194.37788,0.092 -197.07571,-1.3193 z M 233.018,1621.1015 c 0.1204,-10.7115 2.18415,-68.2744 2.99728,-83.6015 2.2534,-42.475 9.15905,-102.558 16.09096,-140 15.34002,-82.8577 38.71437,-155.1999 70.98515,-219.6947 29.18414,-58.326 66.29881,-110.598 110.75998,-155.9936 C 486.25039,968.3115 547.21558,925.75648 617,893.97001 670.05867,869.80205 736.49494,850.39136 794.80223,842.02153 939.28975,821.28079 1079.4536,841.46333 1197,899.935 c 39.0457,19.4227 65.2601,35.50471 98.5,60.42791 109.3625,81.99969 186.4962,201.70159 227.3798,352.86529 13.375,49.453 18.6276,77.0427 27.5617,144.7718 4.8931,37.0937 8.4501,93.0992 9.8445,155 l 0.214,9.5 47.4037,0.2599 47.4037,0.2599 -0.71,-30.9555 c -0.3906,-17.0254 -0.8687,-31.9924 -1.0625,-33.2598 -0.1938,-1.2675 -0.634,-8.6045 -0.9782,-16.3045 -2.1992,-49.1962 -10.9888,-127.9988 -18.6829,-167.5 -12.1065,-62.1547 -25.7135,-112.4426 -42.3458,-156.5 -6.9789,-18.4867 -20.2773,-51.0402 -24.5104,-60 -2.5986,-5.5 -6.0063,-12.7 -7.5729,-16 -1.5665,-3.3 -6.9749,-13.875 -12.0186,-23.5 C 1495.5086,1019.9243 1419.3324,933.83585 1328,871.02173 1230.225,803.77667 1116.7965,762.63458 990.3327,748.54508 c -33.44356,-3.726 -49.38369,-4.41441 -93.3327,-4.03082 -50.59029,0.44155 -79.25944,2.65467 -122.5,9.45642 -13.93,2.19119 -59.70729,11.31963 -65.5,13.06133 -1.925,0.5788 -8.675,2.40184 -15,4.05121 -76.62666,19.98192 -152.06396,53.3986 -215,95.23918 C 399.4283,919.22255 341.34831,976.55655 285.84147,1057 c -12.74125,18.4653 -28.86285,45.6634 -42.38145,71.5 -26.08907,49.8612 -48.99993,108.4838 -64.28982,164.5 -17.81429,65.2646 -28.45972,125.762 -35.10506,199.5 -3.19903,35.4971 -5.93471,91.6296 -6.04326,124 l -0.0201,6 47.49912,0.1015 c 42.92821,0.092 47.50085,-0.053 47.51712,-1.5 z M 359.71306,1610 c 1.02432,-60.0969 5.3088,-115.0037 12.83625,-164.5 5.59299,-36.7763 7.68441,-47.4317 15.40781,-78.5 15.52783,-62.4626 36.1684,-116.0055 62.81011,-162.9335 10.97323,-19.3288 20.97392,-34.5977 34.68092,-52.9503 26.44412,-35.4067 58.78216,-68.0888 92.11556,-93.0956 69.95989,-52.484 149.51943,-84.78032 239.93629,-97.39935 136.98069,-19.11771 269.2624,7.51925 373,75.10935 92.4401,60.2292 157.7319,147.7715 197.4164,264.6935 27.8676,82.1058 41.013,166.5247 45.0918,289.5759 0.5378,16.225 0.981,30.2031 0.9848,31.0624 0.01,1.3989 4.9529,1.5295 47.257,1.2476 l 47.25,-0.3148 0.08,-9.2476 c 0.096,-11.1361 -1.1727,-52.3194 -2.0412,-66.2476 -3.27,-52.4422 -6.9586,-87.0764 -14.5908,-137 -9.6747,-63.2835 -31.6169,-138.5401 -57.4385,-197 -73.7981,-167.0784 -211.6235,-282.63809 -391.0094,-327.84188 -26.5229,-6.68356 -37.545,-8.91906 -59.9342,-12.15582 -21.67782,-3.13392 -43.95135,-5.24 -63.0658,-5.96323 -8.25,-0.31215 -19.275,-0.79562 -24.5,-1.07439 -12.14167,-0.64778 -57.71813,1.1318 -78.5,3.06512 -80.36393,7.47619 -156.39864,28.59373 -225,62.4905 -26.07198,12.88249 -41.91704,21.81979 -61.18865,34.51306 -131.68747,86.73614 -217.48911,216.46954 -258.72259,391.19264 -8.48406,35.9504 -11.74182,53.93 -16.53806,91.274 -6.77171,52.7251 -9.57741,90.4329 -10.71449,144 l -0.64743,30.5 H 312.09439 359.5 Z m 127.61799,-18.2999 c 1.36954,-65.5653 5.922,-111.3197 16.73555,-168.2001 18.17414,-95.5979 55.97597,-175.2575 110.05619,-231.9206 19.23082,-20.1493 39.59134,-37.0123 64.87721,-53.7326 28.64481,-18.9415 64.26397,-34.9999 99,-44.6329 36.8982,-10.2325 59.98301,-14.0807 97.5,-16.2528 74.03025,-4.2862 149.5559,10.4571 210.7013,41.1306 49.9348,25.0498 94.2427,63.1594 127.4592,109.6284 30.6086,42.8209 57.6192,106.4497 71.223,167.7799 13.5755,61.2031 19.9665,119.0789 21.6984,196.5 0.363,16.225 0.868,29.725 1.1223,30 0.2543,0.275 21.6446,0.5401 47.5342,0.5891 l 47.0719,0.089 -0.6313,-29.589 c -1.8732,-87.8015 -12.2571,-171.2656 -29.3053,-235.5493 -16.9752,-64.0087 -39.5349,-117.0391 -70.4467,-165.5967 -23.5813,-37.0426 -54.8681,-72.5574 -88.7667,-100.7625 -50.96,-42.4008 -121.1645,-76.5228 -188.6603,-91.69581 -47.38513,-10.65214 -82.87915,-14.14898 -133.5,-13.15232 -16.225,0.31945 -34.225,1.05562 -40,1.63595 -37.61332,3.77973 -74.07319,10.6528 -103.5,19.51088 -159.3693,47.9732 -267.82229,160.3532 -319.45352,331.0207 -5.41095,17.886 -13.84259,50.777 -16.91912,66 -4.00015,19.7931 -10.92135,66.2271 -13.62504,91.4096 -3.0583,28.4856 -6.44313,90.7361 -6.48969,119.3523 l -0.0126,7.7619 47.83967,-0.062 47.83967,-0.062 z" style="fill:#000000;stroke:none" transform="matrix(0.188618125,0,0,0.188618125,307.37811500000004,68.360344)" /></g></svg>