<?xml version='1.0' encoding='utf-8'?>
<svg xmlns="http://www.w3.org/2000/svg" xmlns:ns1="http://sodipodi.sourceforge.net/DTD/sodipodi-0.dtd" xmlns:ns2="http://www.inkscape.org/namespaces/inkscape" viewBox="0 0 158.75 119.0625" version="1.1" id="svg1" ns1:docname="T.svg" ns2:version="1.4.2 (f4327f4, 2025-05-13)" xml:space="preserve"><ns1:namedview id="namedview1" pagecolor="#ffffff" bordercolor="#000000" borderopacity="0.25" ns2:showpageshadow="2" ns2:pageopacity="0.0" ns2:pagecheckerboard="0" ns2:deskcolor="#d1d1d1" ns2:zoom="3.161553" ns2:cx="68.320854" ns2:cy="57.408495" ns2:window-width="1366" ns2:window-height="705" ns2:window-x="-8" ns2:window-y="-8" ns2:window-maximized="1" ns2:current-layer="svg1" /><defs id="defs1"><rect x="-34.793027" y="89.829271" width="65.790448" height="16.447613" id="rect3" /><rect x="14.549811" y="36.058228" width="60.729648" height="58.515546" id="rect2" /><clipPath clipPathUnits="userSpaceOnUse" id="clipPath3"><path d="M 0,500 H 500 V 0 H 0 Z" transform="translate(-432.53711,-135.74711)" id="path3" /></clipPath><clipPath clipPathUnits="userSpaceOnUse" id="clipPath5"><path d="M 0,500 H 500 V 0 H 0 Z" transform="translate(-151.34181,-199.4336)" id="path5" /></clipPath><clipPath clipPathUnits="userSpaceOnUse" id="clipPath7"><path d="M 0,500 H 500 V 0 H 0 Z" transform="translate(-151.34181,-199.4336)" id="path7" /></clipPath><clipPath clipPathUnits="userSpaceOnUse" id="clipPath9"><path d="M 0,500 H 500 V 0 H 0 Z" transform="translate(-182.0161,-196.83011)" id="path9" /></clipPath><clipPath clipPathUnits="userSpaceOnUse" id="clipPath11"><path d="M 0,500 H 500 V 0 H 0 Z" transform="translate(-270.2578,-262.13381)" id="path11" /></clipPath><clipPath clipPathUnits="userSpaceOnUse" id="clipPath13"><path d="M 0,500 H 500 V 0 H 0 Z" transform="translate(-270.2578,-262.13381)" id="path13" /></clipPath><clipPath clipPathUnits="userSpaceOnUse" id="clipPath15"><path d="M 0,500 H 500 V 0 H 0 Z" transform="translate(-270.73731,-316.68121)" id="path15" /></clipPath><clipPath clipPathUnits="userSpaceOnUse" id="clipPath17"><path d="M 0,500 H 500 V 0 H 0 Z" transform="translate(-243.895,-297.82131)" id="path17" /></clipPath><clipPath clipPathUnits="userSpaceOnUse" id="clipPath19"><path d="M 0,500 H 500 V 0 H 0 Z" transform="translate(-243.895,-297.82131)" id="path19" /></clipPath><clipPath clipPathUnits="userSpaceOnUse" id="clipPath21"><path d="M 0,500 H 500 V 0 H 0 Z" transform="translate(-227.96341,-327.47461)" id="path21" /></clipPath><clipPath clipPathUnits="userSpaceOnUse" id="clipPath23"><path d="M 0,500 H 500 V 0 H 0 Z" transform="translate(-150.6709,-325.02691)" id="path23" /></clipPath><clipPath clipPathUnits="userSpaceOnUse" id="clipPath25"><path d="M 0,500 H 500 V 0 H 0 Z" transform="translate(-150.6709,-325.02691)" id="path25" /></clipPath><clipPath clipPathUnits="userSpaceOnUse" id="clipPath27"><path d="M 0,500 H 500 V 0 H 0 Z" transform="translate(-115.0161,-334.36131)" id="path27" /></clipPath><clipPath clipPathUnits="userSpaceOnUse" id="clipPath29"><path d="M 0,500 H 500 V 0 H 0 Z" transform="translate(-104.1924,-244.44141)" id="path29" /></clipPath><clipPath clipPathUnits="userSpaceOnUse" id="clipPath31"><path d="M 0,500 H 500 V 0 H 0 Z" transform="translate(-104.1924,-244.44141)" id="path31" /></clipPath><clipPath clipPathUnits="userSpaceOnUse" id="clipPath33"><path d="M 0,500 H 500 V 0 H 0 Z" transform="translate(-79.019004,-177.8154)" id="path33" /></clipPath><clipPath clipPathUnits="userSpaceOnUse" id="clipPath35"><path d="M 0,500 H 500 V 0 H 0 Z" transform="translate(-105.8481,-187.5293)" id="path35" /></clipPath><clipPath clipPathUnits="userSpaceOnUse" id="clipPath37"><path d="M 0,500 H 500 V 0 H 0 Z" transform="translate(-120.3486,-245.5713)" id="path37" /></clipPath><clipPath clipPathUnits="userSpaceOnUse" id="clipPath39"><path d="M 0,500 H 500 V 0 H 0 Z" transform="translate(-43.031301,-294.82521)" id="path39" /></clipPath><clipPath clipPathUnits="userSpaceOnUse" id="clipPath41"><path d="M 0,500 H 500 V 0 H 0 Z" transform="translate(-140.2095,-138.87791)" id="path41" /></clipPath><clipPath clipPathUnits="userSpaceOnUse" id="clipPath43"><path d="M 0,500 H 500 V 0 H 0 Z" transform="translate(-140.2095,-138.87791)" id="path43" /></clipPath><clipPath clipPathUnits="userSpaceOnUse" id="clipPath45"><path d="M 0,500 H 500 V 0 H 0 Z" transform="translate(-131.71041,-136.21781)" id="path45" /></clipPath><clipPath clipPathUnits="userSpaceOnUse" id="clipPath47"><path d="M 0,500 H 500 V 0 H 0 Z" transform="translate(-95.863802,-329.88091)" id="path47" /></clipPath><clipPath clipPathUnits="userSpaceOnUse" id="clipPath49"><path d="M 0,500 H 500 V 0 H 0 Z" transform="translate(-99.722702,-346.67581)" id="path49" /></clipPath><clipPath clipPathUnits="userSpaceOnUse" id="clipPath51"><path d="M 0,500 H 500 V 0 H 0 Z" transform="translate(-99.596702,-349.59371)" id="path51" /></clipPath><clipPath clipPathUnits="userSpaceOnUse" id="clipPath53"><path d="M 0,500 H 500 V 0 H 0 Z" transform="translate(-75.429699,-348.79931)" id="path53" /></clipPath><clipPath clipPathUnits="userSpaceOnUse" id="clipPath55"><path d="M 0,500 H 500 V 0 H 0 Z" transform="translate(-52.736801,-378.31591)" id="path55" /></clipPath><clipPath clipPathUnits="userSpaceOnUse" id="clipPath57"><path d="M 0,500 H 500 V 0 H 0 Z" transform="translate(-71.700202,-397.00241)" id="path57" /></clipPath><clipPath clipPathUnits="userSpaceOnUse" id="clipPath59"><path d="M 0,500 H 500 V 0 H 0 Z" transform="translate(-49.381801,-362.78271)" id="path59" /></clipPath><clipPath clipPathUnits="userSpaceOnUse" id="clipPath61"><path d="M 0,500 H 500 V 0 H 0 Z" transform="translate(-75.429699,-348.79931)" id="path61" /></clipPath><clipPath clipPathUnits="userSpaceOnUse" id="clipPath63"><path d="M 0,500 H 500 V 0 H 0 Z" transform="translate(-52.736801,-378.31591)" id="path63" /></clipPath><clipPath clipPathUnits="userSpaceOnUse" id="clipPath65"><path d="M 0,500 H 500 V 0 H 0 Z" transform="translate(-87.7402,-374.77391)" id="path65" /></clipPath><clipPath clipPathUnits="userSpaceOnUse" id="clipPath67"><path d="M 0,500 H 500 V 0 H 0 Z" transform="translate(-90.202105,-372.51071)" id="path67" /></clipPath><clipPath clipPathUnits="userSpaceOnUse" id="clipPath69"><path d="M 0,500 H 500 V 0 H 0 Z" transform="translate(-43.860801,-338.97661)" id="path69" /></clipPath><clipPath clipPathUnits="userSpaceOnUse" id="clipPath71"><path d="M 0,500 H 500 V 0 H 0 Z" transform="translate(-62.706502,-345.08251)" id="path71" /></clipPath><clipPath clipPathUnits="userSpaceOnUse" id="clipPath73"><path d="M 0,500 H 500 V 0 H 0 Z" transform="translate(-32.944801,-364.06201)" id="path73" /></clipPath><clipPath clipPathUnits="userSpaceOnUse" id="clipPath75"><path d="M 0,500 H 500 V 0 H 0 Z" transform="translate(-32.363801,-386.02201)" id="path75" /></clipPath><clipPath clipPathUnits="userSpaceOnUse" id="clipPath77"><path d="M 0,500 H 500 V 0 H 0 Z" transform="translate(-42.559601,-382.52731)" id="path77" /></clipPath><clipPath clipPathUnits="userSpaceOnUse" id="clipPath79"><path d="M 0,500 H 500 V 0 H 0 Z" transform="translate(-72.010702,-416.37261)" id="path79" /></clipPath><clipPath clipPathUnits="userSpaceOnUse" id="clipPath81"><path d="M 0,500 H 500 V 0 H 0 Z" transform="translate(-88.275902,-375.45461)" id="path81" /></clipPath><clipPath clipPathUnits="userSpaceOnUse" id="clipPath83"><path d="M 0,500 H 500 V 0 H 0 Z" transform="translate(-125.0845,-367.83841)" id="path83" /></clipPath><clipPath clipPathUnits="userSpaceOnUse" id="clipPath85"><path d="M 0,500 H 500 V 0 H 0 Z" transform="translate(-88.761205,-375.09231)" id="path85" /></clipPath><clipPath clipPathUnits="userSpaceOnUse" id="clipPath87"><path d="M 0,500 H 500 V 0 H 0 Z" transform="translate(-125.2983,-381.78861)" id="path87" /></clipPath><clipPath clipPathUnits="userSpaceOnUse" id="clipPath89"><path d="M 0,500 H 500 V 0 H 0 Z" transform="translate(-96.329605,-397.87451)" id="path89" /></clipPath><clipPath clipPathUnits="userSpaceOnUse" id="clipPath91"><path d="M 0,500 H 500 V 0 H 0 Z" transform="translate(-87.3955,-382.24561)" id="path91" /></clipPath><clipPath clipPathUnits="userSpaceOnUse" id="clipPath93"><path d="M 0,500 H 500 V 0 H 0 Z" transform="translate(-125.2983,-381.78861)" id="path93" /></clipPath><clipPath clipPathUnits="userSpaceOnUse" id="clipPath95"><path d="M 0,500 H 500 V 0 H 0 Z" transform="translate(-71.700202,-397.00241)" id="path95" /></clipPath><clipPath clipPathUnits="userSpaceOnUse" id="clipPath97"><path d="M 0,500 H 500 V 0 H 0 Z" transform="translate(-139.3882,-350.70461)" id="path97" /></clipPath><clipPath clipPathUnits="userSpaceOnUse" id="clipPath99"><path d="M 0,500 H 500 V 0 H 0 Z" transform="translate(-97.266602,-377.96481)" id="path99" /></clipPath><clipPath clipPathUnits="userSpaceOnUse" id="clipPath101"><path d="M 0,500 H 500 V 0 H 0 Z" transform="translate(-119.97171,-375.45461)" id="path101" /></clipPath><clipPath clipPathUnits="userSpaceOnUse" id="clipPath103"><path d="M 0,500 H 500 V 0 H 0 Z" transform="translate(-437.25881,-102.749)" id="path103" /></clipPath><clipPath clipPathUnits="userSpaceOnUse" id="clipPath105"><path d="M 0,500 H 500 V 0 H 0 Z" transform="translate(-153.0757,-110.08691)" id="path105" /></clipPath><clipPath clipPathUnits="userSpaceOnUse" id="clipPath107"><path d="M 0,500 H 500 V 0 H 0 Z" transform="translate(-68.039602,-123.2412)" id="path107" /></clipPath><clipPath clipPathUnits="userSpaceOnUse" id="clipPath109"><path d="M 0,500 H 500 V 0 H 0 Z" transform="translate(-98.763205,-118.9268)" id="path109" /></clipPath><clipPath clipPathUnits="userSpaceOnUse" id="clipPath111"><path d="M 0,500 H 500 V 0 H 0 Z" transform="translate(-94.1626,-133.752)" id="path111" /></clipPath><clipPath clipPathUnits="userSpaceOnUse" id="clipPath113"><path d="M 0,500 H 500 V 0 H 0 Z" transform="translate(-130.0093,-133.8818)" id="path113" /></clipPath><clipPath clipPathUnits="userSpaceOnUse" id="clipPath115"><path d="M 0,500 H 500 V 0 H 0 Z" transform="translate(-216.42291,-119.5391)" id="path115" /></clipPath><clipPath clipPathUnits="userSpaceOnUse" id="clipPath117"><path d="M 0,500 H 500 V 0 H 0 Z" transform="translate(-216.4243,-119.54)" id="path117" /></clipPath><clipPath clipPathUnits="userSpaceOnUse" id="clipPath119"><path d="M 0,500 H 500 V 0 H 0 Z" transform="translate(-216.42291,-119.5391)" id="path119" /></clipPath><clipPath clipPathUnits="userSpaceOnUse" id="clipPath121"><path d="M 0,500 H 500 V 0 H 0 Z" transform="translate(-432.46971,-121.0557)" id="path121" /></clipPath><clipPath clipPathUnits="userSpaceOnUse" id="clipPath123"><path d="M 0,500 H 500 V 0 H 0 Z" transform="translate(-427.03711,-133.8525)" id="path123" /></clipPath><clipPath clipPathUnits="userSpaceOnUse" id="clipPath125"><path d="M 0,500 H 500 V 0 H 0 Z" transform="translate(-405.37791,-144.78911)" id="path125" /></clipPath><clipPath clipPathUnits="userSpaceOnUse" id="clipPath127"><path d="M 0,500 H 500 V 0 H 0 Z" transform="translate(-404.70611,-137.2754)" id="path127" /></clipPath><clipPath clipPathUnits="userSpaceOnUse" id="clipPath129"><path d="M 0,500 H 500 V 0 H 0 Z" transform="translate(-432.46971,-121.0557)" id="path129" /></clipPath><clipPath clipPathUnits="userSpaceOnUse" id="clipPath131"><path d="M 0,500 H 500 V 0 H 0 Z" transform="translate(-327.13481,-114.4746)" id="path131" /></clipPath><clipPath clipPathUnits="userSpaceOnUse" id="clipPath133"><path d="M 0,500 H 500 V 0 H 0 Z" transform="translate(-376.72071,-396.30321)" id="path133" /></clipPath><clipPath clipPathUnits="userSpaceOnUse" id="clipPath135"><path d="M 0,500 H 500 V 0 H 0 Z" transform="translate(-345.24221,-355.45311)" id="path135" /></clipPath><clipPath clipPathUnits="userSpaceOnUse" id="clipPath137"><path d="M 0,500 H 500 V 0 H 0 Z" transform="translate(-315.50001,-373.42481)" id="path137" /></clipPath><clipPath clipPathUnits="userSpaceOnUse" id="clipPath139"><path d="M 0,500 H 500 V 0 H 0 Z" transform="translate(-312.87011,-392.23001)" id="path139" /></clipPath><clipPath clipPathUnits="userSpaceOnUse" id="clipPath141"><path d="M 0,500 H 500 V 0 H 0 Z" transform="translate(-328.25681,-433.48831)" id="path141" /></clipPath><clipPath clipPathUnits="userSpaceOnUse" id="clipPath143"><path d="M 0,500 H 500 V 0 H 0 Z" transform="translate(-371.31351,-429.34471)" id="path143" /></clipPath><clipPath clipPathUnits="userSpaceOnUse" id="clipPath145"><path d="M 0,500 H 500 V 0 H 0 Z" transform="translate(-356.50101,-401.37401)" id="path145" /></clipPath><clipPath clipPathUnits="userSpaceOnUse" id="clipPath147"><path d="M 0,500 H 500 V 0 H 0 Z" transform="translate(-356.68651,-383.02541)" id="path147" /></clipPath><clipPath clipPathUnits="userSpaceOnUse" id="clipPath149"><path d="M 0,500 H 500 V 0 H 0 Z" transform="translate(-339.52251,-412.63771)" id="path149" /></clipPath><clipPath clipPathUnits="userSpaceOnUse" id="clipPath151"><path d="M 0,500 H 500 V 0 H 0 Z" transform="translate(-376.35061,-419.38281)" id="path151" /></clipPath><clipPath clipPathUnits="userSpaceOnUse" id="clipPath153"><path d="M 0,500 H 500 V 0 H 0 Z" transform="translate(-364.11821,-384.56741)" id="path153" /></clipPath><clipPath clipPathUnits="userSpaceOnUse" id="clipPath155"><path d="M 0,500 H 500 V 0 H 0 Z" transform="translate(-376.72071,-396.30321)" id="path155" /></clipPath><clipPath clipPathUnits="userSpaceOnUse" id="clipPath157"><path d="M 0,500 H 500 V 0 H 0 Z" transform="translate(-313.61911,-296.27291)" id="path157" /></clipPath><clipPath clipPathUnits="userSpaceOnUse" id="clipPath159"><path d="M 0,500 H 500 V 0 H 0 Z" transform="translate(-305.04881,-316.07621)" id="path159" /></clipPath><clipPath clipPathUnits="userSpaceOnUse" id="clipPath161"><path d="M 0,500 H 500 V 0 H 0 Z" transform="translate(-300.53611,-275.20511)" id="path161" /></clipPath><clipPath clipPathUnits="userSpaceOnUse" id="clipPath163"><path d="M 0,500 H 500 V 0 H 0 Z" transform="translate(-319.84181,-243.67191)" id="path163" /></clipPath><clipPath clipPathUnits="userSpaceOnUse" id="clipPath165"><path d="M 0,500 H 500 V 0 H 0 Z" transform="translate(-338.39361,-241.03421)" id="path165" /></clipPath><clipPath clipPathUnits="userSpaceOnUse" id="clipPath167"><path d="M 0,500 H 500 V 0 H 0 Z" transform="translate(-320.49711,-352.96141)" id="path167" /></clipPath><clipPath clipPathUnits="userSpaceOnUse" id="clipPath169"><path d="M 0,500 H 500 V 0 H 0 Z" transform="translate(-431.04981,-326.64161)" id="path169" /></clipPath><clipPath clipPathUnits="userSpaceOnUse" id="clipPath171"><path d="M 0,500 H 500 V 0 H 0 Z" transform="translate(-372.06351,-226.83401)" id="path171" /></clipPath><clipPath clipPathUnits="userSpaceOnUse" id="clipPath173"><path d="M 0,500 H 500 V 0 H 0 Z" transform="translate(-399.95511,-220.86041)" id="path173" /></clipPath><clipPath clipPathUnits="userSpaceOnUse" id="clipPath175"><path d="M 0,500 H 500 V 0 H 0 Z" transform="translate(-323.42581,-269.89451)" id="path175" /></clipPath><clipPath clipPathUnits="userSpaceOnUse" id="clipPath177"><path d="M 0,500 H 500 V 0 H 0 Z" transform="translate(-355.10741,-259.54641)" id="path177" /></clipPath><clipPath clipPathUnits="userSpaceOnUse" id="clipPath179"><path d="M 0,500 H 500 V 0 H 0 Z" transform="translate(-313.61911,-296.27291)" id="path179" /></clipPath><clipPath clipPathUnits="userSpaceOnUse" id="clipPath181"><path d="M 0,500 H 500 V 0 H 0 Z" transform="translate(-369.42681,-281.5425)" id="path181" /></clipPath><clipPath clipPathUnits="userSpaceOnUse" id="clipPath183"><path d="M 0,500 H 500 V 0 H 0 Z" transform="translate(-336.97751,-317.55571)" id="path183" /></clipPath><clipPath clipPathUnits="userSpaceOnUse" id="clipPath185"><path d="M 0,500 H 500 V 0 H 0 Z" transform="translate(-313.62011,-296.27151)" id="path185" /></clipPath><clipPath clipPathUnits="userSpaceOnUse" id="clipPath187"><path d="M 0,500 H 500 V 0 H 0 Z" transform="translate(-369.07811,-322.24461)" id="path187" /></clipPath><clipPath clipPathUnits="userSpaceOnUse" id="clipPath189"><path d="M 0,500 H 500 V 0 H 0 Z" transform="translate(-336.97751,-317.55571)" id="path189" /></clipPath><clipPath clipPathUnits="userSpaceOnUse" id="clipPath191"><path d="M 0,500 H 500 V 0 H 0 Z" transform="translate(-401.02541,-318.82371)" id="path191" /></clipPath><clipPath clipPathUnits="userSpaceOnUse" id="clipPath193"><path d="M 0,500 H 500 V 0 H 0 Z" transform="translate(-369.07811,-322.24411)" id="path193" /></clipPath><clipPath clipPathUnits="userSpaceOnUse" id="clipPath195"><path d="M 0,500 H 500 V 0 H 0 Z" transform="translate(-401.98341,-287.1846)" id="path195" /></clipPath><clipPath clipPathUnits="userSpaceOnUse" id="clipPath197"><path d="M 0,500 H 500 V 0 H 0 Z" transform="translate(-401.02541,-318.82371)" id="path197" /></clipPath><clipPath clipPathUnits="userSpaceOnUse" id="clipPath199"><path d="M 0,500 H 500 V 0 H 0 Z" transform="translate(-385.65231,-244.13481)" id="path199" /></clipPath><clipPath clipPathUnits="userSpaceOnUse" id="clipPath201"><path d="M 0,500 H 500 V 0 H 0 Z" transform="translate(-361.43161,-257.66991)" id="path201" /></clipPath><clipPath clipPathUnits="userSpaceOnUse" id="clipPath203"><path d="M 0,500 H 500 V 0 H 0 Z" transform="translate(-361.72851,-265.84031)" id="path203" /></clipPath><clipPath clipPathUnits="userSpaceOnUse" id="clipPath205"><path d="M 0,500 H 500 V 0 H 0 Z" transform="translate(-402.13871,-265.52591)" id="path205" /></clipPath><clipPath clipPathUnits="userSpaceOnUse" id="clipPath207"><path d="M 0,500 H 500 V 0 H 0 Z" transform="translate(-385.65231,-244.13571)" id="path207" /></clipPath><clipPath clipPathUnits="userSpaceOnUse" id="clipPath209"><path d="M 0,500 H 500 V 0 H 0 Z" transform="translate(-402.13771,-265.52541)" id="path209" /></clipPath><clipPath clipPathUnits="userSpaceOnUse" id="clipPath211"><path d="M 0,500 H 500 V 0 H 0 Z" transform="translate(-355.10741,-259.54641)" id="path211" /></clipPath><clipPath clipPathUnits="userSpaceOnUse" id="clipPath213"><path d="M 0,500 H 500 V 0 H 0 Z" transform="translate(-242.46831,-133.5723)" id="path213" /></clipPath><clipPath clipPathUnits="userSpaceOnUse" id="clipPath215"><path d="M 0,500 H 500 V 0 H 0 Z" transform="translate(-210.0742,-231.25001)" id="path215" /></clipPath><clipPath clipPathUnits="userSpaceOnUse" id="clipPath217"><path d="M 0,500 H 500 V 0 H 0 Z" transform="translate(-184.9072,-258.88431)" id="path217" /></clipPath><clipPath clipPathUnits="userSpaceOnUse" id="clipPath219"><path d="M 0,500 H 500 V 0 H 0 Z" transform="translate(-148.6821,-295.10451)" id="path219" /></clipPath><clipPath clipPathUnits="userSpaceOnUse" id="clipPath221"><path d="M 0,500 H 500 V 0 H 0 Z" transform="translate(-147.19731,-276.85691)" id="path221" /></clipPath><clipPath clipPathUnits="userSpaceOnUse" id="clipPath223"><path d="M 0,500 H 500 V 0 H 0 Z" transform="translate(-145.4277,-259.17381)" id="path223" /></clipPath><clipPath clipPathUnits="userSpaceOnUse" id="clipPath225"><path d="M 0,500 H 500 V 0 H 0 Z" transform="translate(-144.6172,-243.18261)" id="path225" /></clipPath><clipPath clipPathUnits="userSpaceOnUse" id="clipPath227"><path d="M 0,500 H 500 V 0 H 0 Z" transform="translate(-145.23831,-226.34181)" id="path227" /></clipPath><clipPath clipPathUnits="userSpaceOnUse" id="clipPath229"><path d="M 0,500 H 500 V 0 H 0 Z" transform="translate(-148.04301,-210.12111)" id="path229" /></clipPath><clipPath clipPathUnits="userSpaceOnUse" id="clipPath231"><path d="M 0,500 H 500 V 0 H 0 Z" transform="translate(-154.3618,-192.44921)" id="path231" /></clipPath><clipPath clipPathUnits="userSpaceOnUse" id="clipPath233"><path d="M 0,500 H 500 V 0 H 0 Z" transform="translate(-163.56201,-176.61521)" id="path233" /></clipPath><clipPath clipPathUnits="userSpaceOnUse" id="clipPath235"><path d="M 0,500 H 500 V 0 H 0 Z" transform="translate(-179.42721,-158.4932)" id="path235" /></clipPath><clipPath clipPathUnits="userSpaceOnUse" id="clipPath237"><path d="M 0,500 H 500 V 0 H 0 Z" transform="translate(-168.06741,-111.37211)" id="path237" /></clipPath><clipPath clipPathUnits="userSpaceOnUse" id="clipPath239"><path d="M 0,500 H 500 V 0 H 0 Z" transform="translate(-171.1729,-117.8379)" id="path239" /></clipPath><clipPath clipPathUnits="userSpaceOnUse" id="clipPath241"><path d="M 0,500 H 500 V 0 H 0 Z" transform="translate(-262.65531,-102.97271)" id="path241" /></clipPath><clipPath clipPathUnits="userSpaceOnUse" id="clipPath243"><path d="M 0,500 H 500 V 0 H 0 Z" transform="translate(-256.89841,-105.15821)" id="path243" /></clipPath><clipPath clipPathUnits="userSpaceOnUse" id="clipPath245"><path d="M 0,500 H 500 V 0 H 0 Z" transform="translate(-197.36961,-145.5762)" id="path245" /></clipPath><clipPath clipPathUnits="userSpaceOnUse" id="clipPath247"><path d="M 0,500 H 500 V 0 H 0 Z" transform="translate(-218.4478,-137.4365)" id="path247" /></clipPath><clipPath clipPathUnits="userSpaceOnUse" id="clipPath249"><path d="M 0,500 H 500 V 0 H 0 Z" transform="translate(-252.6064,-248.63481)" id="path249" /></clipPath><clipPath clipPathUnits="userSpaceOnUse" id="clipPath251"><path d="M 0,500 H 500 V 0 H 0 Z" transform="translate(-263.56351,-232.1865)" id="path251" /></clipPath><clipPath clipPathUnits="userSpaceOnUse" id="clipPath253"><path d="M 0,500 H 500 V 0 H 0 Z" transform="translate(-280.915,-228.33591)" id="path253" /></clipPath><clipPath clipPathUnits="userSpaceOnUse" id="clipPath255"><path d="M 0,500 H 500 V 0 H 0 Z" transform="translate(-279.01861,-215.27831)" id="path255" /></clipPath><clipPath clipPathUnits="userSpaceOnUse" id="clipPath257"><path d="M 0,500 H 500 V 0 H 0 Z" transform="translate(-267.748,-214.49321)" id="path257" /></clipPath><clipPath clipPathUnits="userSpaceOnUse" id="clipPath259"><path d="M 0,500 H 500 V 0 H 0 Z" transform="translate(-309.81641,-206.8818)" id="path259" /></clipPath><clipPath clipPathUnits="userSpaceOnUse" id="clipPath261"><path d="M 0,500 H 500 V 0 H 0 Z" transform="translate(-322.25681,-187.8135)" id="path261" /></clipPath><clipPath clipPathUnits="userSpaceOnUse" id="clipPath263"><path d="M 0,500 H 500 V 0 H 0 Z" transform="translate(-329.74901,-169.2236)" id="path263" /></clipPath><clipPath clipPathUnits="userSpaceOnUse" id="clipPath265"><path d="M 0,500 H 500 V 0 H 0 Z" transform="translate(-341.73931,-143.08301)" id="path265" /></clipPath><clipPath clipPathUnits="userSpaceOnUse" id="clipPath267"><path d="M 0,500 H 500 V 0 H 0 Z" transform="translate(-354.48051,-143.9541)" id="path267" /></clipPath><clipPath clipPathUnits="userSpaceOnUse" id="clipPath269"><path d="M 0,500 H 500 V 0 H 0 Z" transform="translate(-341.77441,-168.3789)" id="path269" /></clipPath><clipPath clipPathUnits="userSpaceOnUse" id="clipPath271"><path d="M 0,500 H 500 V 0 H 0 Z" transform="translate(-385.95121,-98.459002)" id="path271" /></clipPath><clipPath clipPathUnits="userSpaceOnUse" id="clipPath273"><path d="M 0,500 H 500 V 0 H 0 Z" transform="translate(-379.38281,-132.7695)" id="path273" /></clipPath><clipPath clipPathUnits="userSpaceOnUse" id="clipPath275"><path d="M 0,500 H 500 V 0 H 0 Z" transform="translate(-180.59571,-341.57131)" id="path275" /></clipPath><clipPath clipPathUnits="userSpaceOnUse" id="clipPath277"><path d="M 0,500 H 500 V 0 H 0 Z" transform="translate(-189.04101,-346.05371)" id="path277" /></clipPath><clipPath clipPathUnits="userSpaceOnUse" id="clipPath279"><path d="M 0,500 H 500 V 0 H 0 Z" transform="translate(-184.69431,-261.6948)" id="path279" /></clipPath><clipPath clipPathUnits="userSpaceOnUse" id="clipPath281"><path d="M 0,500 H 500 V 0 H 0 Z" transform="translate(-198.0361,-215.9238)" id="path281" /></clipPath><clipPath clipPathUnits="userSpaceOnUse" id="clipPath283"><path d="M 0,500 H 500 V 0 H 0 Z" transform="translate(-187.3789,-215.26761)" id="path283" /></clipPath><clipPath clipPathUnits="userSpaceOnUse" id="clipPath285"><path d="M 0,500 H 500 V 0 H 0 Z" transform="translate(-180.43551,-218.77541)" id="path285" /></clipPath><clipPath clipPathUnits="userSpaceOnUse" id="clipPath287"><path d="M 0,500 H 500 V 0 H 0 Z" transform="translate(-175.2612,-228.13961)" id="path287" /></clipPath><clipPath clipPathUnits="userSpaceOnUse" id="clipPath289"><path d="M 0,500 H 500 V 0 H 0 Z" transform="translate(-244.6279,-404.04541)" id="path289" /></clipPath><clipPath clipPathUnits="userSpaceOnUse" id="clipPath291"><path d="M 0,500 H 500 V 0 H 0 Z" transform="translate(-228.89061,-353.46631)" id="path291" /></clipPath><clipPath clipPathUnits="userSpaceOnUse" id="clipPath293"><path d="M 0,500 H 500 V 0 H 0 Z" transform="translate(-183.4443,-384.64701)" id="path293" /></clipPath><clipPath clipPathUnits="userSpaceOnUse" id="clipPath295"><path d="M 0,500 H 500 V 0 H 0 Z" transform="translate(-225.19921,-396.14601)" id="path295" /></clipPath><clipPath clipPathUnits="userSpaceOnUse" id="clipPath297"><path d="M 0,500 H 500 V 0 H 0 Z" transform="translate(-203.1001,-348.71041)" id="path297" /></clipPath><clipPath clipPathUnits="userSpaceOnUse" id="clipPath299"><path d="M 0,500 H 500 V 0 H 0 Z" transform="translate(-165.3213,-379.77441)" id="path299" /></clipPath><clipPath clipPathUnits="userSpaceOnUse" id="clipPath301"><path d="M 0,500 H 500 V 0 H 0 Z" transform="translate(-177.6465,-379.95211)" id="path301" /></clipPath><clipPath clipPathUnits="userSpaceOnUse" id="clipPath303"><path d="M 0,500 H 500 V 0 H 0 Z" transform="translate(-230.05221,-388.11181)" id="path303" /></clipPath><clipPath clipPathUnits="userSpaceOnUse" id="clipPath305"><path d="M 0,500 H 500 V 0 H 0 Z" transform="translate(-211.17331,-139.4316)" id="path305" /></clipPath><clipPath clipPathUnits="userSpaceOnUse" id="clipPath307"><path d="M 0,500 H 500 V 0 H 0 Z" transform="translate(-162.37701,-177.70511)" id="path307" /></clipPath><clipPath clipPathUnits="userSpaceOnUse" id="clipPath309"><path d="M 0,500 H 500 V 0 H 0 Z" transform="translate(-146.4858,-215.95611)" id="path309" /></clipPath><clipPath clipPathUnits="userSpaceOnUse" id="clipPath311"><path d="M 0,500 H 500 V 0 H 0 Z" transform="translate(-147.6426,-281.3652)" id="path311" /></clipPath><clipPath clipPathUnits="userSpaceOnUse" id="clipPath313"><path d="M 0,500 H 500 V 0 H 0 Z" transform="translate(-212.31691,-438.15091)" id="path313" /></clipPath><clipPath clipPathUnits="userSpaceOnUse" id="clipPath315"><path d="M 0,500 H 500 V 0 H 0 Z" transform="translate(-217.1611,-433.01421)" id="path315" /></clipPath><clipPath clipPathUnits="userSpaceOnUse" id="clipPath317"><path d="M 0,500 H 500 V 0 H 0 Z" transform="translate(-147.6421,-281.3652)" id="path317" /></clipPath><clipPath clipPathUnits="userSpaceOnUse" id="clipPath319"><path d="M 0,500 H 500 V 0 H 0 Z" transform="translate(-161.75781,-91.345702)" id="path319" /></clipPath><clipPath clipPathUnits="userSpaceOnUse" id="clipPath321"><path d="M 0,500 H 500 V 0 H 0 Z" transform="translate(-175.57281,-91.524405)" id="path321" /></clipPath><clipPath clipPathUnits="userSpaceOnUse" id="clipPath323"><path d="M 0,500 H 500 V 0 H 0 Z" transform="translate(-151.83351,-93.239302)" id="path323" /></clipPath><clipPath clipPathUnits="userSpaceOnUse" id="clipPath325"><path d="M 0,500 H 500 V 0 H 0 Z" transform="translate(-164.938,-102.69731)" id="path325" /></clipPath><clipPath clipPathUnits="userSpaceOnUse" id="clipPath327"><path d="M 0,500 H 500 V 0 H 0 Z" transform="translate(-149.7358,-106.25591)" id="path327" /></clipPath><clipPath clipPathUnits="userSpaceOnUse" id="clipPath329"><path d="M 0,500 H 500 V 0 H 0 Z" transform="translate(-154.3066,-102.4287)" id="path329" /></clipPath><clipPath clipPathUnits="userSpaceOnUse" id="clipPath331"><path d="M 0,500 H 500 V 0 H 0 Z" transform="translate(-149.7363,-106.2539)" id="path331" /></clipPath><clipPath clipPathUnits="userSpaceOnUse" id="clipPath333"><path d="M 0,500 H 500 V 0 H 0 Z" transform="translate(-200.9458,-119.4854)" id="path333" /></clipPath><clipPath clipPathUnits="userSpaceOnUse" id="clipPath335"><path d="M 0,500 H 500 V 0 H 0 Z" transform="translate(-175.57281,-91.524405)" id="path335" /></clipPath><clipPath clipPathUnits="userSpaceOnUse" id="clipPath337"><path d="M 0,500 H 500 V 0 H 0 Z" transform="translate(-200.9458,-119.4854)" id="path337" /></clipPath><clipPath clipPathUnits="userSpaceOnUse" id="clipPath339"><path d="M 0,500 H 500 V 0 H 0 Z" transform="translate(-148.8901,-300.44871)" id="path339" /></clipPath><clipPath clipPathUnits="userSpaceOnUse" id="clipPath341"><path d="M 0,500 H 500 V 0 H 0 Z" transform="translate(-193.96581,-213.05471)" id="path341" /></clipPath><clipPath clipPathUnits="userSpaceOnUse" id="clipPath343"><path d="M 0,500 H 500 V 0 H 0 Z" transform="translate(-261.6592,-74.062499)" id="path343" /></clipPath><clipPath clipPathUnits="userSpaceOnUse" id="clipPath345"><path d="M 0,500 H 500 V 0 H 0 Z" transform="translate(-281.6641,-73.378904)" id="path345" /></clipPath><clipPath clipPathUnits="userSpaceOnUse" id="clipPath347"><path d="M 0,500 H 500 V 0 H 0 Z" transform="translate(-249.1333,-77.140604)" id="path347" /></clipPath><clipPath clipPathUnits="userSpaceOnUse" id="clipPath349"><path d="M 0,500 H 500 V 0 H 0 Z" transform="translate(-264.82131,-87.2715)" id="path349" /></clipPath><clipPath clipPathUnits="userSpaceOnUse" id="clipPath351"><path d="M 0,500 H 500 V 0 H 0 Z" transform="translate(-246.79251,-92.9004)" id="path351" /></clipPath><clipPath clipPathUnits="userSpaceOnUse" id="clipPath353"><path d="M 0,500 H 500 V 0 H 0 Z" transform="translate(-252.4375,-90.031305)" id="path353" /></clipPath><clipPath clipPathUnits="userSpaceOnUse" id="clipPath355"><path d="M 0,500 H 500 V 0 H 0 Z" transform="translate(-295.7959,-134.51861)" id="path355" /></clipPath><clipPath clipPathUnits="userSpaceOnUse" id="clipPath357"><path d="M 0,500 H 500 V 0 H 0 Z" transform="translate(-281.6641,-73.378904)" id="path357" /></clipPath><clipPath clipPathUnits="userSpaceOnUse" id="clipPath359"><path d="M 0,500 H 500 V 0 H 0 Z" transform="translate(-294.24901,-139.74221)" id="path359" /></clipPath><clipPath clipPathUnits="userSpaceOnUse" id="clipPath361"><path d="M 0,500 H 500 V 0 H 0 Z" transform="translate(-174.46971,-233.32031)" id="path361" /></clipPath><clipPath clipPathUnits="userSpaceOnUse" id="clipPath363"><path d="M 0,500 H 500 V 0 H 0 Z" transform="translate(-435.21781,-118.0029)" id="path363" /></clipPath><clipPath clipPathUnits="userSpaceOnUse" id="clipPath365"><path d="M 0,500 H 500 V 0 H 0 Z" transform="translate(-222.87451,-273.3579)" id="path365" /></clipPath><clipPath clipPathUnits="userSpaceOnUse" id="clipPath367"><path d="M 0,500 H 500 V 0 H 0 Z" transform="translate(-211.97311,-287.7129)" id="path367" /></clipPath><clipPath clipPathUnits="userSpaceOnUse" id="clipPath369"><path d="M 0,500 H 500 V 0 H 0 Z" transform="translate(-192.3208,-318.48581)" id="path369" /></clipPath><clipPath clipPathUnits="userSpaceOnUse" id="clipPath371"><path d="M 0,500 H 500 V 0 H 0 Z" transform="translate(-203.1001,-348.71041)" id="path371" /></clipPath><clipPath clipPathUnits="userSpaceOnUse" id="clipPath373"><path d="M 0,500 H 500 V 0 H 0 Z" transform="translate(-241.7158,-419.51461)" id="path373" /></clipPath><clipPath clipPathUnits="userSpaceOnUse" id="clipPath375"><path d="M 0,500 H 500 V 0 H 0 Z" transform="translate(-229.41751,-435.30081)" id="path375" /></clipPath><clipPath clipPathUnits="userSpaceOnUse" id="clipPath377"><path d="M 0,500 H 500 V 0 H 0 Z" transform="translate(-212.31691,-438.15041)" id="path377" /></clipPath><clipPath clipPathUnits="userSpaceOnUse" id="clipPath379"><path d="M 0,500 H 500 V 0 H 0 Z" transform="translate(-230.53561,-431.04981)" id="path379" /></clipPath><clipPath clipPathUnits="userSpaceOnUse" id="clipPath381"><path d="M 0,500 H 500 V 0 H 0 Z" transform="translate(-200.44921,-304.96681)" id="path381" /></clipPath><clipPath clipPathUnits="userSpaceOnUse" id="clipPath383"><path d="M 0,500 H 500 V 0 H 0 Z" transform="translate(-192.3208,-318.48581)" id="path383" /></clipPath><clipPath clipPathUnits="userSpaceOnUse" id="clipPath385"><path d="M 0,500 H 500 V 0 H 0 Z" transform="translate(-200.44921,-304.96681)" id="path385" /></clipPath><clipPath clipPathUnits="userSpaceOnUse" id="clipPath387"><path d="M 0,500 H 500 V 0 H 0 Z" transform="translate(-242.5444,-263.98241)" id="path387" /></clipPath><clipPath clipPathUnits="userSpaceOnUse" id="clipPath389"><path d="M 0,500 H 500 V 0 H 0 Z" transform="translate(-222.874,-273.3579)" id="path389" /></clipPath><clipPath clipPathUnits="userSpaceOnUse" id="clipPath391"><path d="M 0,500 H 500 V 0 H 0 Z" transform="translate(-261.97951,-254.5728)" id="path391" /></clipPath><clipPath clipPathUnits="userSpaceOnUse" id="clipPath393"><path d="M 0,500 H 500 V 0 H 0 Z" transform="translate(-242.5444,-263.98241)" id="path393" /></clipPath><clipPath clipPathUnits="userSpaceOnUse" id="clipPath395"><path d="M 0,500 H 500 V 0 H 0 Z" transform="translate(-284.5234,-247.34471)" id="path395" /></clipPath><clipPath clipPathUnits="userSpaceOnUse" id="clipPath397"><path d="M 0,500 H 500 V 0 H 0 Z" transform="translate(-261.97951,-254.5728)" id="path397" /></clipPath><clipPath clipPathUnits="userSpaceOnUse" id="clipPath399"><path d="M 0,500 H 500 V 0 H 0 Z" transform="translate(-306.22461,-235.83111)" id="path399" /></clipPath><clipPath clipPathUnits="userSpaceOnUse" id="clipPath401"><path d="M 0,500 H 500 V 0 H 0 Z" transform="translate(-284.5234,-247.34471)" id="path401" /></clipPath><clipPath clipPathUnits="userSpaceOnUse" id="clipPath403"><path d="M 0,500 H 500 V 0 H 0 Z" transform="translate(-323.62701,-215.97171)" id="path403" /></clipPath><clipPath clipPathUnits="userSpaceOnUse" id="clipPath405"><path d="M 0,500 H 500 V 0 H 0 Z" transform="translate(-306.22461,-235.83111)" id="path405" /></clipPath><clipPath clipPathUnits="userSpaceOnUse" id="clipPath407"><path d="M 0,500 H 500 V 0 H 0 Z" transform="translate(-338.43851,-196.10351)" id="path407" /></clipPath><clipPath clipPathUnits="userSpaceOnUse" id="clipPath409"><path d="M 0,500 H 500 V 0 H 0 Z" transform="translate(-323.62701,-215.97171)" id="path409" /></clipPath><clipPath clipPathUnits="userSpaceOnUse" id="clipPath411"><path d="M 0,500 H 500 V 0 H 0 Z" transform="translate(-349.30081,-178.14161)" id="path411" /></clipPath><clipPath clipPathUnits="userSpaceOnUse" id="clipPath413"><path d="M 0,500 H 500 V 0 H 0 Z" transform="translate(-338.43851,-196.10351)" id="path413" /></clipPath><clipPath clipPathUnits="userSpaceOnUse" id="clipPath415"><path d="M 0,500 H 500 V 0 H 0 Z" transform="translate(-360.88771,-160.3232)" id="path415" /></clipPath><clipPath clipPathUnits="userSpaceOnUse" id="clipPath417"><path d="M 0,500 H 500 V 0 H 0 Z" transform="translate(-349.30081,-178.14161)" id="path417" /></clipPath><clipPath clipPathUnits="userSpaceOnUse" id="clipPath419"><path d="M 0,500 H 500 V 0 H 0 Z" transform="translate(-372.44241,-146.8164)" id="path419" /></clipPath><clipPath clipPathUnits="userSpaceOnUse" id="clipPath421"><path d="M 0,500 H 500 V 0 H 0 Z" transform="translate(-360.88771,-160.3232)" id="path421" /></clipPath><clipPath clipPathUnits="userSpaceOnUse" id="clipPath423"><path d="M 0,500 H 500 V 0 H 0 Z" transform="translate(-386.25491,-135.37211)" id="path423" /></clipPath><clipPath clipPathUnits="userSpaceOnUse" id="clipPath425"><path d="M 0,500 H 500 V 0 H 0 Z" transform="translate(-372.44241,-146.8164)" id="path425" /></clipPath><clipPath clipPathUnits="userSpaceOnUse" id="clipPath427"><path d="M 0,500 H 500 V 0 H 0 Z" transform="translate(-401.10251,-128.24711)" id="path427" /></clipPath><clipPath clipPathUnits="userSpaceOnUse" id="clipPath429"><path d="M 0,500 H 500 V 0 H 0 Z" transform="translate(-386.25491,-135.37211)" id="path429" /></clipPath><clipPath clipPathUnits="userSpaceOnUse" id="clipPath431"><path d="M 0,500 H 500 V 0 H 0 Z" transform="translate(-413.76071,-123.0801)" id="path431" /></clipPath><clipPath clipPathUnits="userSpaceOnUse" id="clipPath433"><path d="M 0,500 H 500 V 0 H 0 Z" transform="translate(-401.10161,-128.24711)" id="path433" /></clipPath><clipPath clipPathUnits="userSpaceOnUse" id="clipPath435"><path d="M 0,500 H 500 V 0 H 0 Z" transform="translate(-425.78911,-120.54)" id="path435" /></clipPath><clipPath clipPathUnits="userSpaceOnUse" id="clipPath437"><path d="M 0,500 H 500 V 0 H 0 Z" transform="translate(-413.75981,-123.0801)" id="path437" /></clipPath><clipPath clipPathUnits="userSpaceOnUse" id="clipPath439"><path d="M 0,500 H 500 V 0 H 0 Z" transform="translate(-425.78811,-120.54)" id="path439" /></clipPath><clipPath clipPathUnits="userSpaceOnUse" id="clipPath441"><path d="M 0,500 H 500 V 0 H 0 Z" transform="translate(-229.41751,-435.30081)" id="path441" /></clipPath><clipPath clipPathUnits="userSpaceOnUse" id="clipPath443"><path d="M 0,500 H 500 V 0 H 0 Z" transform="translate(-195.1851,-416.87351)" id="path443" /></clipPath><clipPath clipPathUnits="userSpaceOnUse" id="clipPath445"><path d="M 0,500 H 500 V 0 H 0 Z" transform="translate(-194.6499,-409.87941)" id="path445" /></clipPath><clipPath clipPathUnits="userSpaceOnUse" id="clipPath447"><path d="M 0,500 H 500 V 0 H 0 Z" transform="translate(-180.8179,-416.55571)" id="path447" /></clipPath><clipPath clipPathUnits="userSpaceOnUse" id="clipPath449"><path d="M 0,500 H 500 V 0 H 0 Z" transform="translate(-198.2974,-216.10161)" id="path449" /></clipPath><clipPath clipPathUnits="userSpaceOnUse" id="clipPath451"><path d="M 0,500 H 500 V 0 H 0 Z" transform="translate(-197.6113,-434.94731)" id="path451" /></clipPath><clipPath clipPathUnits="userSpaceOnUse" id="clipPath453"><path d="M 0,500 H 500 V 0 H 0 Z" transform="translate(-181.1304,-402.84721)" id="path453" /></clipPath><clipPath clipPathUnits="userSpaceOnUse" id="clipPath455"><path d="M 0,500 H 500 V 0 H 0 Z" transform="translate(-242.46831,-133.5723)" id="path455" /></clipPath><clipPath clipPathUnits="userSpaceOnUse" id="clipPath457"><path d="M 0,500 H 500 V 0 H 0 Z" transform="translate(-246.79251,-92.899402)" id="path457" /></clipPath><clipPath clipPathUnits="userSpaceOnUse" id="clipPath459"><path d="M 0,500 H 500 V 0 H 0 Z" transform="translate(-318.30371,-121.8018)" id="path459" /></clipPath><clipPath clipPathUnits="userSpaceOnUse" id="clipPath461"><path d="M 0,500 H 500 V 0 H 0 Z" transform="translate(-324.81151,-137.6904)" id="path461" /></clipPath><clipPath clipPathUnits="userSpaceOnUse" id="clipPath463"><path d="M 0,500 H 500 V 0 H 0 Z" transform="translate(-244.49661,-366.76711)" id="path463" /></clipPath><clipPath clipPathUnits="userSpaceOnUse" id="clipPath465"><path d="M 0,500 H 500 V 0 H 0 Z" transform="translate(-243.4399,-375.14401)" id="path465" /></clipPath><clipPath clipPathUnits="userSpaceOnUse" id="clipPath467"><path d="M 0,500 H 500 V 0 H 0 Z" transform="translate(-253.43071,-381.39501)" id="path467" /></clipPath><clipPath clipPathUnits="userSpaceOnUse" id="clipPath469"><path d="M 0,500 H 500 V 0 H 0 Z" transform="translate(-243.12451,-390.81981)" id="path469" /></clipPath><clipPath clipPathUnits="userSpaceOnUse" id="clipPath471"><path d="M 0,500 H 500 V 0 H 0 Z" transform="translate(-253.43551,-396.48051)" id="path471" /></clipPath><clipPath clipPathUnits="userSpaceOnUse" id="clipPath473"><path d="M 0,500 H 500 V 0 H 0 Z" transform="translate(-173.79741,-438.61521)" id="path473" /></clipPath><clipPath clipPathUnits="userSpaceOnUse" id="clipPath475"><path d="M 0,500 H 500 V 0 H 0 Z" transform="translate(-180.8169,-448.72901)" id="path475" /></clipPath><clipPath clipPathUnits="userSpaceOnUse" id="clipPath477"><path d="M 0,500 H 500 V 0 H 0 Z" transform="translate(-188.0278,-438.81051)" id="path477" /></clipPath><clipPath clipPathUnits="userSpaceOnUse" id="clipPath479"><path d="M 0,500 H 500 V 0 H 0 Z" transform="translate(-164.4438,-429.47951)" id="path479" /></clipPath><clipPath clipPathUnits="userSpaceOnUse" id="clipPath481"><path d="M 0,500 H 500 V 0 H 0 Z" transform="translate(-223.02781,-442.81351)" id="path481" /></clipPath><clipPath clipPathUnits="userSpaceOnUse" id="clipPath483"><path d="M 0,500 H 500 V 0 H 0 Z" transform="translate(-224.1406,-432.02691)" id="path483" /></clipPath><clipPath clipPathUnits="userSpaceOnUse" id="clipPath485"><path d="M 0,500 H 500 V 0 H 0 Z" transform="translate(-238.43601,-430.93951)" id="path485" /></clipPath><clipPath clipPathUnits="userSpaceOnUse" id="clipPath487"><path d="M 0,500 H 500 V 0 H 0 Z" transform="translate(-224.20951,-252.1665)" id="path487" /></clipPath><clipPath clipPathUnits="userSpaceOnUse" id="clipPath489"><path d="M 0,500 H 500 V 0 H 0 Z" transform="translate(-211.53421,-248.99801)" id="path489" /></clipPath><clipPath clipPathUnits="userSpaceOnUse" id="clipPath491"><path d="M 0,500 H 500 V 0 H 0 Z" transform="translate(-217.62211,-256.78221)" id="path491" /></clipPath><clipPath clipPathUnits="userSpaceOnUse" id="clipPath493"><path d="M 0,500 H 500 V 0 H 0 Z" transform="translate(-193.0039,-310.81641)" id="path493" /></clipPath><clipPath clipPathUnits="userSpaceOnUse" id="clipPath495"><path d="M 0,500 H 500 V 0 H 0 Z" transform="translate(-195.34371,-304.73681)" id="path495" /></clipPath><clipPath clipPathUnits="userSpaceOnUse" id="clipPath497"><path d="M 0,500 H 500 V 0 H 0 Z" transform="translate(-205.90621,-306.07471)" id="path497" /></clipPath><clipPath clipPathUnits="userSpaceOnUse" id="clipPath499"><path d="M 0,500 H 500 V 0 H 0 Z" transform="translate(-212.42241,-304.53171)" id="path499" /></clipPath><clipPath clipPathUnits="userSpaceOnUse" id="clipPath501"><path d="M 0,500 H 500 V 0 H 0 Z" transform="translate(-230.47221,-278.2026)" id="path501" /></clipPath><clipPath clipPathUnits="userSpaceOnUse" id="clipPath503"><path d="M 0,500 H 500 V 0 H 0 Z" transform="translate(-236.38531,-277.57761)" id="path503" /></clipPath><clipPath clipPathUnits="userSpaceOnUse" id="clipPath505"><path d="M 0,500 H 500 V 0 H 0 Z" transform="translate(-236.61771,-261.92871)" id="path505" /></clipPath><clipPath clipPathUnits="userSpaceOnUse" id="clipPath507"><path d="M 0,500 H 500 V 0 H 0 Z" transform="translate(-248.12551,-268.7295)" id="path507" /></clipPath><clipPath clipPathUnits="userSpaceOnUse" id="clipPath509"><path d="M 0,500 H 500 V 0 H 0 Z" transform="translate(-253.9453,-252.41061)" id="path509" /></clipPath><clipPath clipPathUnits="userSpaceOnUse" id="clipPath511"><path d="M 0,500 H 500 V 0 H 0 Z" transform="translate(-268.85841,-261.021)" id="path511" /></clipPath><clipPath clipPathUnits="userSpaceOnUse" id="clipPath513"><path d="M 0,500 H 500 V 0 H 0 Z" transform="translate(-278.84671,-263.01861)" id="path513" /></clipPath><clipPath clipPathUnits="userSpaceOnUse" id="clipPath515"><path d="M 0,500 H 500 V 0 H 0 Z" transform="translate(-277.45411,-241.44431)" id="path515" /></clipPath><clipPath clipPathUnits="userSpaceOnUse" id="clipPath517"><path d="M 0,500 H 500 V 0 H 0 Z" transform="translate(-291.00781,-251.98731)" id="path517" /></clipPath><clipPath clipPathUnits="userSpaceOnUse" id="clipPath519"><path d="M 0,500 H 500 V 0 H 0 Z" transform="translate(-291.583,-231.55271)" id="path519" /></clipPath><clipPath clipPathUnits="userSpaceOnUse" id="clipPath521"><path d="M 0,500 H 500 V 0 H 0 Z" transform="translate(-305.82131,-246.04391)" id="path521" /></clipPath><clipPath clipPathUnits="userSpaceOnUse" id="clipPath523"><path d="M 0,500 H 500 V 0 H 0 Z" transform="translate(-304.58111,-219.6426)" id="path523" /></clipPath><clipPath clipPathUnits="userSpaceOnUse" id="clipPath525"><path d="M 0,500 H 500 V 0 H 0 Z" transform="translate(-320.65331,-233.27051)" id="path525" /></clipPath><clipPath clipPathUnits="userSpaceOnUse" id="clipPath527"><path d="M 0,500 H 500 V 0 H 0 Z" transform="translate(-312.40621,-210.22071)" id="path527" /></clipPath><clipPath clipPathUnits="userSpaceOnUse" id="clipPath529"><path d="M 0,500 H 500 V 0 H 0 Z" transform="translate(-320.37791,-199.96481)" id="path529" /></clipPath><clipPath clipPathUnits="userSpaceOnUse" id="clipPath531"><path d="M 0,500 H 500 V 0 H 0 Z" transform="translate(-338.23141,-211.09571)" id="path531" /></clipPath><clipPath clipPathUnits="userSpaceOnUse" id="clipPath533"><path d="M 0,500 H 500 V 0 H 0 Z" transform="translate(-333.24611,-180.9609)" id="path533" /></clipPath><clipPath clipPathUnits="userSpaceOnUse" id="clipPath535"><path d="M 0,500 H 500 V 0 H 0 Z" transform="translate(-349.75291,-190.0703)" id="path535" /></clipPath><clipPath clipPathUnits="userSpaceOnUse" id="clipPath537"><path d="M 0,500 H 500 V 0 H 0 Z" transform="translate(-356.27731,-176.8418)" id="path537" /></clipPath><clipPath clipPathUnits="userSpaceOnUse" id="clipPath539"><path d="M 0,500 H 500 V 0 H 0 Z" transform="translate(-350.46971,-157.752)" id="path539" /></clipPath><clipPath clipPathUnits="userSpaceOnUse" id="clipPath541"><path d="M 0,500 H 500 V 0 H 0 Z" transform="translate(-366.06051,-160.3232)" id="path541" /></clipPath><clipPath clipPathUnits="userSpaceOnUse" id="clipPath543"><path d="M 0,500 H 500 V 0 H 0 Z" transform="translate(-364.13671,-143.793)" id="path543" /></clipPath><clipPath clipPathUnits="userSpaceOnUse" id="clipPath545"><path d="M 0,500 H 500 V 0 H 0 Z" transform="translate(-377.46781,-147.89261)" id="path545" /></clipPath><clipPath clipPathUnits="userSpaceOnUse" id="clipPath547"><path d="M 0,500 H 500 V 0 H 0 Z" transform="translate(-378.89751,-133.4639)" id="path547" /></clipPath><clipPath clipPathUnits="userSpaceOnUse" id="clipPath549"><path d="M 0,500 H 500 V 0 H 0 Z" transform="translate(-391.97171,-136.3086)" id="path549" /></clipPath><clipPath clipPathUnits="userSpaceOnUse" id="clipPath551"><path d="M 0,500 H 500 V 0 H 0 Z" transform="translate(-398.54881,-133.02641)" id="path551" /></clipPath><clipPath clipPathUnits="userSpaceOnUse" id="clipPath553"><path d="M 0,500 H 500 V 0 H 0 Z" transform="translate(-407.65531,-128.1602)" id="path553" /></clipPath><clipPath clipPathUnits="userSpaceOnUse" id="clipPath555"><path d="M 0,500 H 500 V 0 H 0 Z" transform="translate(-419.66311,-123.8027)" id="path555" /></clipPath><clipPath clipPathUnits="userSpaceOnUse" id="clipPath557"><path d="M 0,500 H 500 V 0 H 0 Z" transform="translate(-429.65331,-121.5996)" id="path557" /></clipPath><rect x="14.549811" y="36.058228" width="60.729648" height="58.515546" id="rect27" /><rect x="14.549811" y="36.058228" width="60.729648" height="58.515546" id="rect7" /></defs><g id="Color" style="display:inline" transform="matrix(0.20542448,0,0,0.20542448,12.212384,-8.6657839)"><path style="opacity:1;fill:transparent;stroke-width:0.223658;stroke:none" d="M 104.7838,89.682126 C 96.645469,88.7647 90.138625,85.868564 84.883735,80.824795 80.360268,76.483062 77.585856,71.338987 76.105323,64.548622 c -0.42793,-1.962669 -0.49379,-2.951048 -0.500814,-7.515819 -0.0087,-5.682049 0.183304,-7.192603 1.379111,-10.847416 1.433761,-4.382083 3.265244,-7.329678 6.44032,-10.365071 1.801239,-1.721996 2.507,-2.225898 4.426576,-3.160507 2.503048,-1.218691 4.901488,-1.866526 8.257716,-2.230464 1.194518,-0.129529 2.276464,-0.235508 2.404325,-0.235508 0.565041,0 0.129637,0.477398 -1.137363,1.247059 -2.060389,1.251621 -3.652194,2.996123 -4.659912,5.106927 -0.801598,1.679056 -1.312199,3.26331 -1.051757,3.26331 0.0611,0 1.251691,-0.595292 2.645753,-1.322872 3.75499,-1.959779 8.901072,-3.517105 11.013902,-3.333069 0.81135,0.07067 0.8184,0.08038 1.78745,2.461979 1.17179,2.879861 2.82705,5.99772 3.35553,6.320499 0.30494,0.186247 0.481,0.119183 0.85149,-0.32435 0.4651,-0.5568 2.18437,-4.065396 3.45228,-7.045229 l 0.66616,-1.565606 1.10402,0.072 c 2.55051,0.166342 5.62455,1.101208 9.97163,3.03253 1.55586,0.691239 2.94653,1.256798 3.09037,1.256798 0.34072,0 0.15645,-0.573126 -0.86134,-2.679012 -0.94658,-1.95853 -2.96051,-4.212161 -4.80122,-5.372678 -0.68289,-0.430542 -1.24645,-0.870013 -1.25236,-0.976602 -0.0129,-0.232401 2.44119,0.0017 4.46241,0.425697 5.09394,1.068547 9.43294,3.832567 12.51454,7.971992 2.53142,3.400372 4.65266,8.307559 5.62411,13.010576 0.65609,3.17631 0.66167,9.3159 0.0114,12.59954 -2.70178,13.64398 -12.49537,22.280914 -28.2147,24.882455 -2.95701,0.489384 -9.76702,0.742017 -12.30119,0.456341 z m 28.56172,-9.678125 c 1.86964,-2.028317 4.54373,-6.53822 4.53635,-7.650622 -0.002,-0.251501 -0.39739,0.276276 -0.90397,1.205654 -1.21613,2.231127 -2.65927,4.438322 -3.88937,5.948546 -0.56015,0.68771 -1.01845,1.296791 -1.01845,1.353509 0,0.32149 0.49678,-0.01234 1.27544,-0.857087 z m -19.89019,-4.422706 c 1.51661,-0.652902 2.86105,-1.731603 3.99411,-3.204633 2.34361,-3.046802 4.14368,-4.522999 5.24638,-4.302458 0.68832,0.137664 0.82841,-0.03954 0.38321,-0.484741 -0.48139,-0.481384 -1.21596,-0.284453 -2.21628,0.594163 -1.37496,1.207666 -3.10761,2.132522 -5.4552,2.911869 -3.92829,1.30411 -6.66787,1.108262 -10.93298,-0.781573 -2.19929,-0.974489 -3.57937,-1.984428 -3.84186,-2.81146 -0.16837,-0.530485 -0.60154,-0.513915 -1.104877,0.04227 -0.386298,0.426856 -0.386578,0.447316 -0.0061,0.447316 0.21929,0 1.065227,0.487995 1.879847,1.084436 0.81462,0.596437 1.78767,1.260192 2.16233,1.475009 0.37466,0.214817 0.91925,0.737984 1.2102,1.162597 0.88816,1.296183 2.83744,2.916827 4.52187,3.759515 1.75869,0.879837 2.33133,0.894663 4.15936,0.107691 z m 8.12536,-13.884788 c 1.01744,-0.34363 2.35141,-1.32862 3.01204,-2.224067 0.85435,-1.157996 0.44587,-1.03848 -0.98808,0.289107 -0.90147,0.834605 -1.65259,1.316541 -2.36102,1.514888 -0.57142,0.159989 -1.09262,0.377729 -1.15822,0.483866 -0.16825,0.272237 0.59702,0.239587 1.49528,-0.06379 z m -20.15176,-0.05247 c 0,-0.04707 -0.55919,-0.359165 -1.24264,-0.693548 -0.849815,-0.415776 -1.501226,-0.95434 -2.060661,-1.703681 -1.042044,-1.395774 -1.529438,-1.5362 -0.853459,-0.245892 0.447557,0.854295 1.671287,1.974835 2.59115,2.372654 0.73553,0.318095 1.56561,0.461498 1.56561,0.270467 z m 3.53403,-0.628125 c 0.40607,-0.25035 0.90272,-0.720575 1.10367,-1.044942 0.20095,-0.324367 0.55717,-0.807236 0.79162,-1.073038 0.23445,-0.265802 0.38853,-0.668386 0.34241,-0.894632 -0.0626,-0.307178 -0.24511,-0.138809 -0.72057,0.664848 -0.60665,1.025383 -2.55329,2.614156 -3.203,2.614156 -0.15541,0 -0.28256,0.111556 -0.28256,0.247905 0,0.334308 1.02737,0.06589 1.96843,-0.514297 z m 14.35861,0.54091 c 0,-0.09504 -0.35327,-0.363046 -0.78505,-0.595573 -0.43177,-0.232526 -1.20338,-0.808982 -1.71468,-1.28101 -0.5113,-0.472028 -0.96053,-0.827338 -0.99829,-0.789575 -0.0378,0.03776 0.17987,0.434406 0.48364,0.881434 0.74841,1.101388 3.01438,2.443001 3.01438,1.784724 z M 104.44925,59.13637 c 1.34837,-0.883485 2.03052,-3.615406 1.43671,-5.753843 -0.32015,-1.152909 -1.62236,-2.549022 -2.67049,-2.863048 -2.39444,-0.717392 -4.77105,2.724642 -4.025916,5.830711 0.296305,1.235136 1.348536,2.615195 2.333826,3.060953 0.84861,0.383918 2.09993,0.266405 2.92587,-0.274773 z m 18.19683,-0.253608 c 2.25415,-1.666432 2.28557,-5.639968 0.0613,-7.752811 -0.9174,-0.871446 -2.5009,-1.036305 -3.56106,-0.370746 -0.71511,0.448937 -1.11829,1.028759 -0.88062,1.266433 0.0647,0.06472 0.33001,-0.01493 0.58954,-0.177001 0.39625,-0.247464 0.56996,-0.239869 1.08415,0.0474 1.21316,0.67776 0.78686,2.452871 -0.58906,2.452871 -0.7516,0 -1.14705,-0.36883 -1.14705,-1.06983 0,-0.866442 -0.53803,-0.446656 -0.76052,0.593381 -0.39414,1.842425 0.52232,4.302326 1.93268,5.187571 0.88975,0.558472 2.38504,0.47743 3.27064,-0.177264 z m 3.16157,-4.264363 c 0,-2.377925 -0.0708,-2.958416 -0.4585,-3.759311 -0.45785,-0.945783 -1.02394,-1.588381 -1.22348,-1.388837 -0.0581,0.05806 0.20303,0.675324 0.5802,1.371694 0.64566,1.192079 0.68547,1.406868 0.68072,3.672578 -0.003,1.323546 -0.10706,2.75871 -0.23175,3.189252 l -0.22671,0.782803 0.43976,-0.528007 c 0.38593,-0.463377 0.43976,-0.872244 0.43976,-3.340172 z m -28.938465,2.358487 c -0.07631,-0.276776 -0.203466,-1.232915 -0.282562,-2.124751 -0.0791,-0.891837 -0.229689,-1.621521 -0.334651,-1.621521 -0.263119,0 -0.241075,2.969964 0.02728,3.675798 0.272578,0.716936 0.785052,0.778155 0.58993,0.07047 z M 107.8798,54.793709 c 0.0909,-2.631423 -0.23059,-3.821795 -1.47623,-5.465885 -1.59694,-2.10775 -4.30755,-2.937254 -6.29124,-1.925252 -1.647057,0.840267 -3.834874,3.683293 -3.822459,4.967213 0.0037,0.379975 0.220597,0.125356 0.783928,-0.920156 1.780946,-3.305338 4.171581,-4.677516 6.473551,-3.715691 1.18679,0.495869 2.69849,2.032299 3.2677,3.321145 0.44356,1.004358 0.51638,1.539414 0.51682,3.797609 6.5e-4,3.27491 0.43436,3.228224 0.54793,-0.05898 z m 6.96861,0.3248 c 0,-0.324608 -0.0968,-0.512512 -0.22366,-0.434116 -0.12301,0.07603 -0.22366,0.333582 -0.22366,0.572346 0,0.238764 0.10065,0.434116 0.22366,0.434116 0.12301,0 0.22366,-0.257556 0.22366,-0.572346 z m 0,-1.999722 c 0,-0.30753 -0.10065,-0.559145 -0.22366,-0.559145 -0.12301,0 -0.22366,0.251615 -0.22366,0.559145 0,0.30753 0.10065,0.559145 0.22366,0.559145 0.12301,0 0.22366,-0.251615 0.22366,-0.559145 z m 2.02051,-4.033576 c 0.66057,-0.673067 1.42851,-1.172127 2.28315,-1.483746 0.70828,-0.258254 1.28779,-0.519642 1.28779,-0.580862 0,-0.06122 -0.4114,-0.05613 -0.91423,0.01131 -1.12911,0.151445 -3.08512,1.428097 -3.62749,2.367596 -0.57249,0.991664 -0.18911,0.867541 0.97078,-0.314302 z m 23.23884,-1.617283 c -0.60368,-1.835137 -1.48194,-3.63095 -1.77576,-3.63095 -0.11914,0 -0.007,0.528392 0.24886,1.174205 0.25602,0.645812 0.67149,1.727758 0.92327,2.404324 0.85788,2.305227 0.90173,2.390426 1.0054,1.953514 0.0515,-0.217192 -0.12926,-1.072684 -0.40177,-1.901093 z M 96.037736,46.790394 c 0.481603,-0.944021 2.076698,-2.507836 3.095246,-3.034547 0.364523,-0.188502 1.134938,-0.461625 1.712048,-0.606941 1.35135,-0.340274 1.22023,-0.775004 -0.2221,-0.736378 -2.237769,0.05993 -3.943348,0.898828 -4.655436,2.289809 -0.320484,0.626029 -0.706851,2.936828 -0.49104,2.936828 0.07055,0 0.323126,-0.381947 0.561282,-0.848771 z m 30.664554,-0.390259 c 0,-0.552511 -0.79998,-1.953054 -1.48921,-2.607207 -0.94199,-0.894045 -2.1145,-1.299958 -3.70366,-1.282179 -1.97619,0.02211 -2.63242,0.314994 -1.14721,0.512014 1.59102,0.211056 3.56771,1.262128 4.87789,2.593737 1.17058,1.189728 1.46219,1.346006 1.46219,0.783635 z m 10.84587,-4.038839 c -0.65552,-0.859426 -0.98089,-0.891051 -0.54698,-0.05316 0.41691,0.805089 0.97295,1.373843 1.06707,1.091477 0.0455,-0.136418 -0.18857,-0.603658 -0.52009,-1.038312 z" id="path8" transform="matrix(4.867969,0,0,4.867969,-59.449507,42.184767)" /><path style="opacity:1;fill:transparent;stroke-width:0.223658;stroke:none" d="m 109.93361,41.87997 c -1.74122,-3.204031 -3.13689,-6.829336 -3.13689,-8.148198 0,-0.770799 -0.0575,-0.776174 -0.76247,-0.07124 -0.30753,0.307529 -0.76926,0.559145 -1.02606,0.559145 -1.81764,0 -6.569778,1.443237 -10.010677,3.040267 -1.174927,0.54532 -2.178132,0.949592 -2.229344,0.898379 -0.156299,-0.156299 0.737728,-1.754049 1.705978,-3.048819 1.648039,-2.203802 3.938564,-3.66053 7.356053,-4.678301 0.88641,-0.263984 1.61165,-0.539028 1.61165,-0.611209 0,-0.07218 -0.79124,-0.06222 -1.75831,0.02214 -1.739603,0.151748 -1.777387,0.143759 -3.551723,-0.750925 -1.982009,-0.999401 -3.73417,-1.461848 -6.430679,-1.697245 L 89.91321,27.237883 90.975602,26.69796 c 1.906695,-0.96901 3.589879,-1.270535 6.31565,-1.131383 2.796568,0.142766 3.403778,0.308418 7.597408,2.072626 l 3.02635,1.273145 v 0.858656 c 0,0.72464 0.10299,0.911914 0.65987,1.199886 0.84523,0.437087 2.45615,0.438815 3.07793,0.0033 0.26535,-0.185861 0.5142,-0.603455 0.553,-0.927988 0.0825,-0.690408 -0.0268,-0.620953 3.43336,-2.180642 6.09353,-2.746681 8.68226,-3.048002 13.32946,-1.551515 l 1.87133,0.602603 -1.91332,0.264157 c -2.77438,0.383036 -5.25858,1.268976 -6.687,2.384779 -0.42051,0.328475 -0.74697,0.395055 -1.39787,0.285087 -0.46707,-0.07891 -0.84923,-0.09135 -0.84923,-0.02764 0,0.06371 0.82838,0.550626 1.84084,1.082035 1.28608,0.675019 2.35128,1.471717 3.53458,2.643633 1.60923,1.593742 3.51953,4.151771 3.27964,4.391665 -0.0615,0.06145 -1.15332,-0.336433 -2.42638,-0.884181 -3.10858,-1.337501 -4.93575,-1.92219 -8.12977,-2.60151 -2.2779,-0.484475 -2.71729,-0.646924 -2.90468,-1.073887 -0.30515,-0.69532 -0.56202,-0.629345 -0.56202,0.144354 0,1.105168 -0.87556,3.58912 -2.35368,6.677386 -0.78012,1.629908 -1.46794,2.963469 -1.52848,2.963469 -0.0606,0 -0.42459,-0.578715 -0.80898,-1.286034 z" id="path10" transform="matrix(4.867969,0,0,4.867969,-59.449507,42.184767)" /><path style="opacity:1;fill:transparent;stroke-width:0.223658;stroke:none" d="m 109.0333,29.452585 c 0,-1.338972 0.57442,-4.616691 1.14259,-6.519752 0.82421,-2.760637 2.7444,-6.072076 4.32649,-7.461166 0.88323,-0.775486 1.05691,-0.824316 1.70268,-0.478708 0.66469,0.355729 0.52905,0.775542 -0.68301,2.113934 -1.64052,1.811526 -2.59146,3.351942 -3.38594,5.484833 -0.61196,1.642926 -0.72553,2.29068 -0.84267,4.806385 l -0.13539,2.907555 -1.06237,0.06817 -1.06238,0.06817 z" id="path12" transform="matrix(4.867969,0,0,4.867969,-59.449507,42.184767)" /><path style="opacity:1;fill:transparent;stroke-width:0.3163;stroke:none" d="M 28.697372,83.430456 C 28.30217,83.239993 27.918739,82.787035 27.845305,82.423888 27.771872,82.060737 27.62651,78.561074 27.52228,74.646859 27.41805,70.732643 27.133445,64.896904 26.889826,61.678548 26.646207,58.460193 26.350731,54.439227 26.233212,52.743066 l -0.21367,-3.083927 h -3.934285 c -8.167214,0 -11.134224,-1.334083 -8.856419,-3.98219 l 0.734979,-0.854463 3.139699,0.403901 c 1.791346,0.230444 5.788505,0.37958 9.307555,0.34727 3.39232,-0.03115 9.074219,0.116579 12.626443,0.328282 5.51312,0.328566 6.54336,0.469686 7.037681,0.964006 0.774388,0.77439 0.732054,2.00763 -0.09739,2.837078 -0.622628,0.622626 -0.893333,0.660445 -3.400228,0.475026 -1.498059,-0.110802 -4.894354,-0.295169 -7.547322,-0.409704 l -4.823579,-0.208246 0.0045,1.868246 c 0.0025,1.027536 0.209439,4.656398 0.459947,8.064138 0.250509,3.40774 0.613088,9.570649 0.805732,13.695352 0.376337,8.057765 0.253869,9.244128 -1.048441,10.1563 -0.780634,0.546776 -0.776061,0.546548 -1.731017,0.08632 z" id="path14" transform="matrix(4.867969,0,0,4.867969,-59.449507,42.184767)" /><path style="opacity:1;fill:transparent;stroke-width:0.3163;stroke:none" d="m 53.839286,84.351367 c -0.379803,-0.303432 -0.5032,-1.823747 -0.656627,-8.089932 -0.103913,-4.243954 -0.262589,-7.789936 -0.352614,-7.879961 -0.09002,-0.09002 -1.196144,-0.249945 -2.458044,-0.355378 -2.544375,-0.212586 -3.085114,-0.430302 -3.085114,-1.242151 0,-1.08177 0.620635,-1.290915 3.232974,-1.089466 l 2.501294,0.192886 -0.221654,-2.731775 c -0.237047,-2.921473 0.0082,-3.691143 1.17625,-3.691143 0.848631,0 1.218642,1.214908 1.218642,4.00133 v 2.378648 l 2.330858,-0.218419 c 2.529606,-0.237044 3.678847,0.09447 3.678847,1.061215 0,1.000283 -0.694129,1.317332 -2.884093,1.317332 -1.168734,0 -2.334672,0.08047 -2.590971,0.178821 -0.398582,0.15295 -0.441429,1.221541 -0.296165,7.38638 0.09341,3.964158 0.07919,7.568702 -0.03159,8.010098 -0.239823,0.955534 -0.914525,1.288789 -1.561993,0.771515 z" id="path16" transform="matrix(4.867969,0,0,4.867969,-59.449507,42.184767)" /><path style="opacity:1;fill:transparent;stroke-width:0.3163;stroke:none" d="M 3.0048524,59.622597 V 2.530402 H 79.549513 156.09417 V 59.622597 116.71479 H 79.549513 3.0048524 Z M 119.24519,89.830605 c 11.91534,-2.533172 20.02524,-8.257979 24.34599,-17.185917 2.49836,-5.162356 2.85603,-6.972311 2.85457,-14.445442 -0.001,-5.854838 -0.0741,-6.745094 -0.75168,-9.172707 -2.88147,-10.323557 -9.60292,-17.350547 -18.40796,-19.244732 -1.44797,-0.311494 -2.47821,-0.661816 -2.28942,-0.778493 0.18878,-0.116676 1.26876,-0.42678 2.39994,-0.689119 2.10002,-0.487027 4.4862,-0.300321 5.91164,0.462555 1.28403,0.687192 1.37782,0.245512 0.17358,-0.817424 -2.1996,-1.941502 -4.99646,-3.066459 -8.02834,-3.229173 -3.04835,-0.163597 -5.18767,0.238888 -8.39437,1.579295 -3.1928,1.334592 -4.94139,1.936023 -5.1173,1.760107 -0.29894,-0.298936 0.8829,-5.126344 1.60172,-6.542445 0.40259,-0.793125 1.5299,-2.414585 2.50513,-3.603246 0.97523,-1.188661 1.77315,-2.281428 1.77315,-2.42837 0,-0.438509 -1.62179,-1.578283 -2.24575,-1.578283 -0.31841,0 -1.09041,0.449084 -1.71556,0.997964 -2.46351,2.162992 -4.1571,5.534152 -5.0699,10.091822 -0.29403,1.468101 -0.57122,2.711316 -0.61598,2.762699 -0.0448,0.05138 -1.27291,-0.398292 -2.72922,-0.999278 -4.48728,-1.851791 -6.021027,-2.18408 -9.412582,-2.03925 -2.633746,0.112469 -3.315661,0.265554 -5.096527,1.144129 -2.02676,0.999886 -4.373553,2.75181 -4.079751,3.045611 0.08288,0.08289 0.785649,-0.0714 1.561701,-0.342853 1.599926,-0.559638 5.496109,-0.439468 7.104404,0.219119 0.91859,0.376157 0.857965,0.406942 -1.897801,0.963693 -3.959083,0.799859 -6.58837,1.902936 -9.163345,3.844344 -3.822739,2.882158 -6.733381,7.237429 -8.509359,12.732775 -1.098207,3.398137 -1.458581,5.93689 -1.459207,10.279759 -9.49e-4,6.572975 1.12544,11.769364 3.633806,16.763913 4.437762,8.836271 12.071988,14.383171 23.089311,16.776312 3.91175,0.849693 13.29386,0.67934 18.02911,-0.327365 z M 55.338373,85.837188 c 0.281609,-0.108064 0.746273,-0.64182 1.032585,-1.186126 0.442004,-0.840296 0.509366,-1.968197 0.446369,-7.473801 -0.04081,-3.566286 -0.153422,-6.804409 -0.250254,-7.195831 -0.170264,-0.68826 -0.101399,-0.711676 2.093127,-0.711676 1.248054,0 2.529529,-0.13933 2.847723,-0.309623 0.851737,-0.455836 1.313396,-2.023913 0.924394,-3.139808 -0.429048,-1.230772 -1.716704,-1.720708 -4.074187,-1.550184 l -1.898536,0.137328 v -1.849069 c 0,-3.421768 -1.322385,-5.06366 -3.474143,-4.313554 -1.321408,0.460643 -1.586661,1.105504 -1.586661,3.857367 v 2.36305 l -1.870704,-0.169628 c -1.705475,-0.154646 -1.942944,-0.09739 -2.688552,0.648216 -1.069126,1.069126 -1.085903,2.505104 -0.04147,3.549531 0.627024,0.627027 1.098574,0.777308 2.451327,0.781217 0.921224,0.0027 1.851767,0.117132 2.067873,0.254375 0.284778,0.180854 0.451152,2.317086 0.604494,7.761651 0.211298,7.502186 0.212611,7.512931 0.994011,8.127581 0.806974,0.634764 1.533051,0.760339 2.422607,0.418984 z M 31.697448,84.072524 c 1.605904,-1.508667 1.640596,-3.649672 0.37497,-23.141706 -0.348628,-5.369257 -0.559033,-9.837121 -0.467566,-9.928589 0.09147,-0.09146 3.070486,0.01108 6.620039,0.227885 3.549557,0.216805 6.896529,0.296936 7.437712,0.178074 2.273231,-0.499287 3.103627,-3.799437 1.387059,-5.512421 -0.857518,-0.855728 -0.957102,-0.87334 -7.037681,-1.244717 -3.39232,-0.20719 -9.150334,-0.374977 -12.795588,-0.372861 -3.645253,0.0021 -8.157459,-0.166251 -10.027124,-0.374149 -2.848635,-0.316752 -3.534375,-0.305755 -4.232535,0.06789 -2.200341,1.177586 -2.271337,4.746601 -0.116587,5.860866 1.081341,0.559181 4.225875,1.025879 8.589195,1.274766 2.245621,0.128092 3.400364,0.317873 3.400628,0.55889 2.2e-4,0.200715 0.280519,3.994483 0.622887,8.430594 0.342367,4.436111 0.697733,11.38376 0.789702,15.439223 0.09848,4.342536 0.30774,7.636136 0.509069,8.012321 0.464879,0.868634 2.144804,1.571541 3.281689,1.37311 0.513533,-0.08963 1.262391,-0.471761 1.664131,-0.849176 z" id="path18" transform="matrix(4.867969,0,0,4.867969,-59.449507,42.184767)" /></g><g id="Outline" style="display:inline" transform="matrix(0.20542448,0,0,0.20542448,12.212384,-8.6657839)"><rect style="fill:none;stroke:#000000;stroke-width:1.33306;stroke-dasharray:none;stroke-opacity:1" id="rect1" width="154.88843" height="115.74319" x="2.0926507" y="1.7971287" transform="matrix(4.8679691,0,0,4.8679691,-59.449507,42.184767)" /><path style="font-size:22.325px;font-family:'Comic Sans MS';-inkscape-font-specification:'Comic Sans MS';display:inline;fill:#000000;fill-opacity:1;stroke:none;stroke-width:6.43992;stroke-opacity:1" d="m 511.50571,584.74849 q 0,0.38153 -0.67585,1.11189 -0.50144,0.50144 -0.99198,1.00288 -1.21,1.37351 -1.89675,3.92431 -0.59955,2.22378 -0.59955,4.37126 0,5.53764 2.5072,8.12115 0.50144,0.39243 1.01378,0.78486 0.63225,0.50144 0.63225,0.99198 0,0.35973 -0.28342,0.62135 -0.28342,0.27253 -0.65405,0.27253 -0.32703,0 -0.78487,-0.25072 -4.61107,-2.58351 -4.61107,-10.79187 0,-2.95414 1.1882,-5.98459 1.3299,-3.36837 3.48828,-4.88359 0.43603,-0.30523 0.68675,-0.30523 0.39244,0 0.68676,0.31613 0.29432,0.30522 0.29432,0.69766 z m 7.03107,17.17978 q -2.23468,0 -3.7281,-1.35171 -1.56973,-1.41711 -1.56973,-3.739 0,-2.21288 1.47162,-4.56747 1.63513,-2.61621 3.6845,-2.61621 1.06828,0 2.38729,0.50144 1.66784,0.64315 1.66784,1.56973 0,0.41423 -0.27253,0.74126 -0.27252,0.31612 -0.67585,0.31612 -0.31613,0 -0.55595,-0.18531 -0.22891,-0.19622 -0.44693,-0.38153 -0.64315,-0.51234 -2.10387,-0.51234 -1.11189,0 -2.20198,1.98396 -0.99198,1.82044 -0.99198,3.15035 0,1.43892 0.98108,2.26738 0.91567,0.77397 2.35459,0.77397 0.65405,0 1.39531,-0.34883 l 1.2645,-0.67586 q 0.32703,-0.17441 0.46874,-0.17441 0.40333,0 0.69766,0.32703 0.29432,0.31612 0.29432,0.73035 0,0.79577 -1.67873,1.53703 -1.47162,0.65405 -2.4418,0.65405 z m 12.61232,-7.02016 q 0,8.20836 -4.62198,10.79187 -0.44693,0.25072 -0.77396,0.25072 -0.37063,0 -0.65405,-0.27253 -0.28342,-0.26162 -0.28342,-0.62135 0,-0.49054 0.63225,-0.99198 0.50144,-0.39243 1.01378,-0.78486 2.5072,-2.58351 2.5072,-8.12115 0,-2.14748 -0.59955,-4.37126 -0.69765,-2.5508 -1.89675,-3.92431 -0.50144,-0.50144 -0.99198,-1.00288 -0.67586,-0.73036 -0.67586,-1.11189 0,-0.39244 0.28343,-0.69766 0.29432,-0.31613 0.68675,-0.31613 0.25072,0 0.69766,0.30523 2.15837,1.51522 3.48828,4.88359 1.1882,3.03045 1.1882,5.98459 z m 24.97391,7.23818 q -0.58865,0 -0.97018,-0.61045 -0.32703,-0.52324 -0.58865,-1.74414 l -0.39243,-1.87495 q -0.44693,-1.74414 -1.41711,-7.69602 l -2.18018,6.57323 -0.64315,2.07116 q -0.39243,1.2318 -0.81757,2.01667 -0.45783,0.82846 -1.2318,0.82846 -0.64315,0 -1.01378,-0.69765 -0.23982,-0.45784 -0.43603,-1.1664 l -0.31613,-1.20999 q -1.10099,-3.84801 -1.94035,-8.24107 l -0.39244,1.95126 -1.40621,5.75566 q -0.0872,1.01378 -0.54504,2.99774 -0.32703,0.85027 -1.07919,0.85027 -0.53414,0 -0.85027,-0.38153 -0.27252,-0.32702 -0.27252,-0.80666 0,-1.82045 0.75216,-4.46936 l 1.1991,-4.39306 0.63225,-3.43377 q 0.47964,-2.4091 1.01378,-3.15036 0.43603,-0.63225 1.07919,-0.63225 0.70855,0 1.05738,0.80667 0.42514,0.97017 0.91568,3.95701 0.57774,3.58639 1.79864,7.76143 1.61333,-4.19684 2.79063,-8.7425 l 0.32702,-1.59153 q 0.19622,-0.95928 0.51234,-1.54793 0.42514,-0.80666 1.1664,-0.80666 0.93747,0 1.42801,1.80954 0.17442,0.62135 0.42514,2.57261 0.64315,4.9272 1.60243,8.41548 l 0.53414,1.87495 q 0.41423,1.50432 0.41423,1.85315 0,0.46874 -0.35973,0.78486 -0.34882,0.31613 -0.79576,0.31613 z m 12.02367,-0.18532 q -0.20711,0 -0.75216,-0.47963 -0.49054,-0.44694 -0.73036,-0.79577 -1.04648,0.56685 -1.84225,0.85027 -0.79576,0.29432 -1.3299,0.29432 -2.55081,0 -3.7172,-1.43891 -1.10099,-1.35171 -1.10099,-4.14234 0,-2.63801 1.80954,-4.51296 1.82045,-1.87495 4.33855,-1.87495 0.94838,0 2.12568,0.49054 1.48252,0.61045 1.48252,1.47162 0,0.29432 -0.21802,0.52324 -0.10901,0.41423 -0.17442,1.36261 -0.0545,0.94838 -0.0654,2.43089 -0.0109,1.35171 0.18531,2.13658 0.10901,0.47964 0.68676,1.91855 0.0763,0.19622 0.25072,0.57775 l 0.0654,0.18531 q 0,0.43604 -0.30522,0.71946 -0.30522,0.28342 -0.70856,0.28342 z m -2.26738,-7.57611 q 0,-0.46873 0.0545,-1.01378 0.0654,-0.55594 0.18532,-1.17729 -0.40333,-0.20712 -0.69766,-0.30523 -0.28342,-0.0981 -0.45783,-0.0981 -1.68964,0 -2.92144,1.38442 -1.2209,1.37351 -1.2209,3.17215 0,1.78775 0.63225,2.68162 0.63225,0.89387 1.89676,0.89387 1.04648,0 1.77684,-0.38153 0.39243,-0.20712 1.10099,-0.82847 -0.34883,-2.88873 -0.34883,-4.32765 z m 14.14934,2.15838 -0.25072,3.66269 q -0.0654,2.18018 -0.44694,3.56459 -0.49054,1.76594 -1.56972,2.60531 -1.30811,1.01378 -3.78261,1.01378 -1.44982,0 -2.4309,-0.19621 -1.37351,-0.27253 -1.37351,-1.1337 0,-0.97017 0.94838,-0.97017 0.39243,0 1.30811,0.18531 0.91567,0.19622 2.02756,0.17442 2.09297,-0.0327 2.88873,-2.02757 0.52324,-1.32991 0.55595,-4.08783 -0.58865,1.09009 -1.40622,1.63513 -0.80666,0.54505 -1.85315,0.54505 -1.97306,0 -3.21576,-1.34081 -1.2318,-1.35171 -1.2318,-3.49918 0,-2.94324 1.68964,-4.74188 1.74414,-1.85315 4.75278,-1.85315 1.01379,0 1.70054,0.26162 0.68676,0.26162 1.04649,0.78486 1.16639,0.0327 1.16639,1.2972 0,0.77397 -0.22892,2.07117 -0.25072,1.50432 -0.29432,2.04937 z m -3.49918,-4.72008 q -2.07117,0 -3.20486,1.42801 -1.01378,1.28631 -1.01378,3.27027 0,1.58062 0.59954,2.37639 0.59955,0.79576 1.79865,0.79576 1.10099,0 2.13657,-1.2427 0.93748,-1.14459 1.06829,-2.26738 0.22892,-1.1773 0.49054,-3.6954 -0.43604,-0.33793 -0.90478,-0.50144 -0.46873,-0.16351 -0.97017,-0.16351 z m 8.45908,-4.38216 q -0.52324,0 -0.90477,-0.37063 -0.38153,-0.37063 -0.38153,-0.89387 0,-0.52324 0.38153,-0.89387 0.38153,-0.37063 0.90477,-0.37063 0.52324,0 0.89387,0.37063 0.38153,0.37063 0.38153,0.89387 0,0.52324 -0.38153,0.89387 -0.37063,0.37063 -0.89387,0.37063 z m 0.49054,8.85152 q 0,0.65405 0.0327,1.96216 0.0436,1.2972 0.0436,1.95125 0,0.47964 -0.29433,0.78487 -0.29432,0.30522 -0.77396,0.30522 -0.46874,0 -0.77396,-0.30522 -0.29433,-0.30523 -0.29433,-0.78487 0,-0.65405 -0.0436,-1.95125 -0.0327,-1.30811 -0.0327,-1.96216 0,-1.02469 0.10901,-2.55081 0.10901,-1.53702 0.10901,-2.56171 0,-0.49054 0.29432,-0.79576 0.30522,-0.30522 0.77396,-0.30522 0.46874,0 0.76306,0.30522 0.30523,0.30522 0.30523,0.79576 0,1.02469 -0.10901,2.56171 -0.10901,1.52612 -0.10901,2.55081 z m 8.61169,5.63575 q -2.23468,0 -3.7281,-1.35171 -1.56972,-1.41711 -1.56972,-3.739 0,-2.21288 1.47161,-4.56747 1.63514,-2.61621 3.6845,-2.61621 1.06829,0 2.38729,0.50144 1.66784,0.64315 1.66784,1.56973 0,0.41423 -0.27252,0.74126 -0.27253,0.31612 -0.67586,0.31612 -0.31612,0 -0.55594,-0.18531 -0.22892,-0.19622 -0.44694,-0.38153 -0.64315,-0.51234 -2.10387,-0.51234 -1.11189,0 -2.20198,1.98396 -0.99198,1.82044 -0.99198,3.15035 0,1.43892 0.98108,2.26738 0.91568,0.77397 2.35459,0.77397 0.65406,0 1.39532,-0.34883 l 1.2645,-0.67586 q 0.32702,-0.17441 0.46874,-0.17441 0.40333,0 0.69765,0.32703 0.29433,0.31612 0.29433,0.73035 0,0.79577 -1.67874,1.53703 -1.47162,0.65405 -2.4418,0.65405 z m 9.52737,-7.08557 q -0.30522,0 -1.3299,-0.14171 -0.0872,1.64603 -0.0872,5.76656 0,0.43604 -0.28342,0.74126 -0.28343,0.29433 -0.70856,0.29433 -0.43604,0 -0.71946,-0.29433 -0.28342,-0.30522 -0.28342,-0.74126 v -3.20485 q 0,-1.60243 0.19621,-4.51297 0.21802,-3.15035 0.23982,-4.51296 v -1.50432 q 0,-1.07919 0.13081,-1.56973 0.25073,-0.95928 1.06829,-0.82847 0.34883,-0.10901 0.99198,-0.16351 0.64315,-0.0545 1.58063,-0.0545 1.99486,0 3.739,1.36261 1.91855,1.50433 1.91855,3.6191 0,2.70341 -2.04936,4.30584 -1.83135,1.43892 -4.40396,1.43892 z m 0.54505,-8.6553 q -0.47964,0 -0.86117,0.0218 -0.37063,0.0218 -0.63225,0.0654 l -0.0218,2.00576 -0.22892,4.33855 1.19909,0.14171 q 1.83135,0 3.08495,-0.92657 1.37351,-1.01378 1.37351,-2.73612 0,-1.2209 -1.3081,-2.10387 -1.21,-0.80667 -2.60531,-0.80667 z m 13.17916,15.55556 q -2.4636,0 -3.98972,-1.2318 -1.66783,-1.36261 -1.66783,-3.81531 0,-2.83423 1.37351,-4.75278 1.49342,-2.09297 3.98972,-2.09297 1.80954,0 2.95414,0.61045 1.40621,0.75216 1.40621,2.31098 0,1.09009 -1.2318,1.98396 -0.54504,0.39243 -2.31099,1.2209 l -4.16413,1.97306 q 0.61045,0.90477 1.51522,1.36261 0.91567,0.45784 2.12567,0.45784 0.75216,0 1.76594,-0.28343 1.28631,-0.35972 1.65694,-0.93747 0.37063,-0.58865 0.79576,-0.58865 0.38153,0 0.67586,0.29433 0.30522,0.28342 0.30522,0.66495 0,1.21 -1.95126,2.08207 -1.66783,0.74126 -3.24846,0.74126 z m -0.29432,-9.9307 q -1.32991,0 -2.21288,1.03558 -0.88297,1.02468 -1.31901,3.09585 l 3.34657,-1.59153 q 1.97306,-0.95928 2.81243,-1.66783 -0.93747,-0.87207 -2.62711,-0.87207 z m 15.79537,10.20322 q -0.93748,0 -1.05739,-1.02468 l -0.30522,-2.3873 q -0.15261,-1.2754 -0.15261,-2.38729 0,-0.30522 0.0327,-1.03558 0.0436,-0.73036 0.0436,-1.03559 0,-2.35459 -0.87207,-2.35459 -1.2209,0 -2.33279,1.44982 -1.00288,1.31901 -1.56972,3.33567 -0.0218,0.42513 -0.0981,1.06829 -0.0654,0.54504 -0.0654,1.05738 0,0.32703 0.0654,0.98108 0.0654,0.65405 0.0654,0.98108 0,0.49054 -0.30522,0.79576 -0.29432,0.30523 -0.76306,0.30523 -0.47964,0 -0.77396,-0.30523 -0.29433,-0.30522 -0.29433,-0.79576 0,-0.32703 -0.0763,-0.98108 -0.0654,-0.65405 -0.0654,-0.98108 0,-1.12279 0.15261,-3.10675 0.16352,-1.99486 0.16352,-3.11765 0,-0.34883 -0.0436,-1.03558 -0.0327,-0.68676 -0.0327,-1.03559 0,-0.46874 0.30522,-0.76306 0.31613,-0.30522 0.77397,-0.30522 1.00288,0 1.10099,1.41711 l 0.0327,1.2754 q 1.83135,-2.44179 3.7608,-2.44179 1.74414,0 2.4309,1.53702 0.46874,1.02468 0.51234,3.03044 v 1.10099 l -0.0109,1.01379 q 0,0.90477 0.22892,2.34368 0.23982,1.42802 0.23982,2.32189 0,0.47964 -0.31613,0.77396 -0.30522,0.30523 -0.77396,0.30523 z m 8.25196,-0.0872 q -2.23468,0 -3.7281,-1.35171 -1.56973,-1.41711 -1.56973,-3.739 0,-2.21288 1.47162,-4.56747 1.63513,-2.61621 3.6845,-2.61621 1.06828,0 2.38729,0.50144 1.66783,0.64315 1.66783,1.56973 0,0.41423 -0.27252,0.74126 -0.27252,0.31612 -0.67585,0.31612 -0.31613,0 -0.55595,-0.18531 -0.22892,-0.19622 -0.44693,-0.38153 -0.64316,-0.51234 -2.10387,-0.51234 -1.11189,0 -2.20198,1.98396 -0.99198,1.82044 -0.99198,3.15035 0,1.43892 0.98108,2.26738 0.91567,0.77397 2.35459,0.77397 0.65405,0 1.39531,-0.34883 l 1.2645,-0.67586 q 0.32703,-0.17441 0.46874,-0.17441 0.40333,0 0.69766,0.32703 0.29432,0.31612 0.29432,0.73035 0,0.79577 -1.67873,1.53703 -1.47162,0.65405 -2.4418,0.65405 z m 8.6226,-14.48727 q -0.52325,0 -0.90478,-0.37063 -0.38153,-0.37063 -0.38153,-0.89387 0,-0.52324 0.38153,-0.89387 0.38153,-0.37063 0.90478,-0.37063 0.52324,0 0.89387,0.37063 0.38153,0.37063 0.38153,0.89387 0,0.52324 -0.38153,0.89387 -0.37063,0.37063 -0.89387,0.37063 z m 0.49054,8.85152 q 0,0.65405 0.0327,1.96216 0.0436,1.2972 0.0436,1.95125 0,0.47964 -0.29432,0.78487 -0.29433,0.30522 -0.77396,0.30522 -0.46874,0 -0.77397,-0.30522 -0.29432,-0.30523 -0.29432,-0.78487 0,-0.65405 -0.0436,-1.95125 -0.0327,-1.30811 -0.0327,-1.96216 0,-1.02469 0.10901,-2.55081 0.10901,-1.53702 0.10901,-2.56171 0,-0.49054 0.29433,-0.79576 0.30522,-0.30522 0.77396,-0.30522 0.46874,0 0.76306,0.30522 0.30522,0.30522 0.30522,0.79576 0,1.02469 -0.109,2.56171 -0.10901,1.52612 -0.10901,2.55081 z m 6.45332,-3.61909 -0.16351,5.41773 q 0,0.86117 -0.0872,2.52901 -0.10901,1.09008 -1.06828,1.09008 -1.06829,0 -1.06829,-1.11189 0,-1.319 0.11991,-3.95701 0.11991,-2.64892 0.11991,-3.96792 0,-1.72234 0.0545,-3.93522 0.0545,-2.22378 0.0545,-3.94612 0,-1.09009 1.06828,-1.09009 1.07919,0 1.07919,1.09009 0,1.72234 -0.0545,3.94612 -0.0545,2.21288 -0.0545,3.93522 z m 4.74188,9.58187 q -0.56685,0 -0.95928,-0.39243 -0.39243,-0.39244 -0.39243,-0.95928 0,-0.55595 0.39243,-0.94838 0.39243,-0.40333 0.95928,-0.40333 0.55594,0 0.94838,0.40333 0.40333,0.39243 0.40333,0.94838 0,0.56684 -0.40333,0.95928 -0.39244,0.39243 -0.94838,0.39243 z m 11.48953,-16.34042 q -2.63802,0 -2.95414,3.6627 l -0.0327,0.67585 q 1.85315,-0.13081 2.3982,-0.13081 1.73324,0 1.73324,1.09009 0,0.79576 -0.85027,0.94837 -0.37063,0.0654 -0.87207,0.0545 -0.49054,-0.0218 -2.5072,0.14171 l -0.0872,2.4854 q 0,0.67585 0.0436,2.02756 0.0436,1.35171 0.0436,2.01667 0,2.07116 -0.23982,3.22666 -0.18532,0.87207 -1.01378,0.87207 -0.44694,0 -0.76307,-0.29433 -0.31612,-0.28342 -0.31612,-0.71945 0,-0.0872 0.0218,-0.21802 0.22892,-1.41712 0.22892,-3.08495 l -0.0327,-2.97594 v -3.16126 q -1.36261,0.10901 -1.72234,0.10901 -1.10099,0 -1.10099,-1.05738 0,-1.07919 1.90765,-1.13369 l 1.04649,-0.0327 q 0.0327,-0.61045 0.16351,-1.65693 0.28342,-2.42 1.2209,-3.56459 1.13369,-1.38441 3.54278,-1.38441 1.55883,0 1.55883,1.05739 0,1.04648 -1.41711,1.04648 z m 12.91755,8.96052 q 0,0.78487 0.0109,2.35459 0.0109,1.56973 0.0109,2.35459 0,0.23982 0.0327,0.73036 0.0436,0.49054 0.0436,0.73036 0,0.46874 -0.31612,0.76306 -0.31613,0.30523 -0.77396,0.30523 -0.83937,0 -1.06829,-1.03559 -1.36261,0.70856 -3.13945,0.70856 -1.42802,0 -2.36549,-0.63225 -1.03559,-0.69766 -1.2318,-2.03847 -0.42514,-2.88873 -0.42514,-5.14521 0,-1.49342 0.32703,-3.40107 0.15261,-0.94838 1.03558,-0.94838 0.46874,0 0.78487,0.30522 0.31612,0.29433 0.31612,0.76306 0,0.50145 -0.16351,1.60243 -0.15261,1.10099 -0.15261,1.67874 0,1.82045 0.11991,3.11765 0.1199,1.29721 0.35972,2.08207 0.35973,0.19621 0.70856,0.30522 0.34883,0.0981 0.68676,0.0981 1.46071,0 3.08495,-0.46874 l -0.0109,-2.21287 -0.0218,-2.11478 q 0,-2.35459 0.20712,-4.08783 0.11991,-1.00288 1.05738,-1.00288 0.46874,0 0.78487,0.30523 0.31612,0.30522 0.29432,0.76306 z m 11.07529,7.14008 q -0.93748,0 -1.05739,-1.02468 l -0.30522,-2.3873 q -0.15261,-1.2754 -0.15261,-2.38729 0,-0.30522 0.0327,-1.03558 0.0436,-0.73036 0.0436,-1.03559 0,-2.35459 -0.87207,-2.35459 -1.2209,0 -2.33279,1.44982 -1.00288,1.31901 -1.56972,3.33567 -0.0218,0.42513 -0.0981,1.06829 -0.0654,0.54504 -0.0654,1.05738 0,0.32703 0.0654,0.98108 0.0654,0.65405 0.0654,0.98108 0,0.49054 -0.30523,0.79576 -0.29432,0.30523 -0.76306,0.30523 -0.47964,0 -0.77396,-0.30523 -0.29433,-0.30522 -0.29433,-0.79576 0,-0.32703 -0.0763,-0.98108 -0.0654,-0.65405 -0.0654,-0.98108 0,-1.12279 0.15261,-3.10675 0.16352,-1.99486 0.16352,-3.11765 0,-0.34883 -0.0436,-1.03558 -0.0327,-0.68676 -0.0327,-1.03559 0,-0.46874 0.30523,-0.76306 0.31612,-0.30522 0.77396,-0.30522 1.00288,0 1.10099,1.41711 l 0.0327,1.2754 q 1.83135,-2.44179 3.7608,-2.44179 1.74414,0 2.4309,1.53702 0.46874,1.02468 0.51234,3.03044 v 1.10099 l -0.0109,1.01379 q 0,0.90477 0.22892,2.34368 0.23982,1.42802 0.23982,2.32189 0,0.47964 -0.31613,0.77396 -0.30522,0.30523 -0.77396,0.30523 z" id="text1" aria-label="(c) MagicPencil.fun" /><text xml:space="preserve" id="text3" style="font-style:normal;font-variant:normal;font-weight:normal;font-stretch:normal;font-size:12px;font-family:Arial;-inkscape-font-specification:Arial;text-align:start;writing-mode:lr-tb;direction:ltr;white-space:pre;shape-inside:url(#rect3);display:inline;fill:#000000;stroke-width:5" transform="matrix(4.867969,0,0,4.867969,557.76729,47.068164)"><tspan x="-34.792969" y="100.63913" id="tspan1">Tomato</tspan></text><g id="text27" style="font-size:48px;font-family:'Comic Sans MS';-inkscape-font-specification:'Comic Sans MS';white-space:pre;fill:none;stroke:#000000;stroke-width:0.890761" ns2:label="BaseText" transform="matrix(5.4649548,0,0,5.4649548,-95.91888,26.800306)" aria-label="Tt"><path d="m 46.472656,48.162753 q -1.734375,0 -5.34375,-0.28125 -3.515625,-0.257812 -5.34375,-0.234375 h -1.664062 q 0.07031,3.234375 0.632812,10.5 0.515625,6.773438 0.515625,10.523438 0,0.820312 0.164063,2.484375 0.164062,1.664062 0.164062,2.507812 0,1.59375 -0.515625,2.742188 -0.65625,1.546875 -2.039062,1.546875 -0.9375,0 -1.6875,-0.65625 -0.75,-0.65625 -0.75,-1.6875 0,-0.351563 0.117187,-1.054688 0.117188,-0.703125 0.117188,-1.054687 0,-1.148438 -0.164063,-3.445313 -0.140625,-2.296875 -0.140625,-3.46875 0,-3.351562 -0.539062,-9.421875 -0.5625,-6.5625 -0.632813,-9.421875 l -2.132812,0.02344 q -5.132813,0 -8.0625,-0.75 -1.898438,-0.492188 -1.898438,-2.320313 0,-0.960937 0.609375,-1.6875 0.703125,-0.820312 1.804688,-0.75 0.820312,0.04687 3.75,0.421875 2.34375,0.28125 3.796875,0.28125 1.40625,0 4.265625,-0.04687 2.859375,-0.07031 4.265625,-0.07031 1.804687,0 5.34375,0.257812 3.5625,0.257813 5.367187,0.257813 1.007813,0 1.6875,0.703125 0.679688,0.679687 0.679688,1.710937 0,1.007813 -0.679688,1.710938 -0.679687,0.679687 -1.6875,0.679687 z" id="path1" /><path style="font-size:33.2551px" d="m 60.295958,63.929675 q -0.340995,0 -0.811893,-0.03248 -0.454659,-0.03248 -0.795654,-0.03248 -0.37347,0 -2.208346,0.243568 l 0.308519,9.596564 0.01624,0.714465 0.01624,0.82813 q 0.06495,3.556088 -1.704973,3.556088 -0.649514,0 -1.136649,-0.422184 -0.470897,-0.422184 -0.470897,-1.05546 0,-0.617038 0.04871,-1.851114 0.04871,-1.234076 0.04871,-1.851114 l -0.324757,-9.4829 q -1.185363,-0.04871 -3.604801,-0.276043 -1.445168,-0.194854 -1.445168,-1.607546 0,-0.714465 0.438422,-1.185363 0.438421,-0.470897 1.120411,-0.470897 l 3.409947,0.276043 q 0,-0.82813 -0.08119,-2.208346 -0.06495,-1.396455 -0.06495,-2.013493 0,-0.681989 0.470897,-1.120411 0.470898,-0.454659 1.152887,-0.454659 1.461406,0 1.704974,2.386962 0.04871,0.600801 0.04871,1.445168 l -0.03248,0.941795 -0.01624,1.006746 q 2.013492,-0.259805 2.305773,-0.259805 1.688736,0 2.208347,0.162378 0.990508,0.324757 0.990508,1.526357 0,0.714466 -0.45466,1.185363 -0.438421,0.45466 -1.136648,0.45466 z" id="path4" /></g><text xml:space="preserve" id="text7" style="font-size:48px;font-family:'Comic Sans MS';-inkscape-font-specification:'Comic Sans MS';text-align:start;writing-mode:lr-tb;direction:ltr;white-space:pre;shape-inside:url(#rect7);display:none;fill:none;stroke:#000000;stroke-width:0.890761;stroke-dasharray:none;stroke-opacity:1" transform="matrix(5.4649548,0,0,5.4649548,-85.031275,0.67005549)" ns2:label="BaseText"><tspan x="14.550781" y="79.294806" id="tspan4"><tspan style="font-family:Arial;-inkscape-font-specification:Arial" id="tspan2">A</tspan><tspan style="font-size:33.2551px" id="tspan3">a</tspan></tspan></text><path style="fill:#000000;stroke-width:4.86797" d="m 450.03737,483.01301 c -17.12089,-2.59615 -28.4378,-5.05795 -38.86917,-8.45529 -52.14199,-16.98192 -88.30832,-55.33069 -102.04592,-108.20373 -6.7326,-25.91246 -7.44215,-64.73913 -1.58857,-86.92641 7.29646,-27.65616 17.89213,-47.64534 33.66707,-63.51417 16.39235,-16.48994 32.6576,-24.49197 58.04751,-28.55769 6.94119,-1.11149 12.62036,-2.39125 12.62036,-2.8439 0,-0.45267 -1.52368,-1.41549 -3.38597,-2.13964 -12.11671,-4.71164 -30.68091,-5.37912 -39.70782,-1.42769 l -5.54063,2.42533 5.54063,-5.05046 c 3.04734,-2.77776 8.72267,-6.65769 12.61183,-8.62207 21.04472,-10.62949 43.67897,-9.59701 71.15291,3.24571 6.49723,3.03714 12.72254,5.52207 13.83404,5.52207 1.39039,0 2.23868,-1.44062 2.71886,-4.61719 3.93687,-26.04472 10.90776,-42.59486 23.28306,-55.2782 5.46804,-5.60411 8.53175,-7.82337 10.80032,-7.82337 4.05974,0 9.65527,4.3802 9.65527,7.55816 0,1.38024 -3.37564,5.78672 -7.71305,10.06845 -11.38701,11.2408 -17.76044,25.31344 -20.03778,44.24371 l -0.85165,7.07969 h 3.67736 c 2.02255,0 9.4277,-2.71954 16.45593,-6.04342 21.12917,-9.99272 39.3457,-13.21698 55.5039,-9.82401 9.56828,2.00919 22.96975,8.61041 29.30279,14.43379 l 5.54062,5.09475 -5.63793,-2.41068 c -7.85252,-3.3576 -17.69897,-4.2811 -26.42947,-2.47884 -8.21256,1.69535 -16.56697,4.74473 -16.56697,6.047 0,0.47161 4.26225,1.57364 9.47161,2.44898 34.68822,5.82865 63.41873,27.66841 80.81758,61.43429 13.2677,25.74856 18.83744,52.23284 17.65978,83.97316 -0.80429,21.67604 -3.20673,34.10084 -10.0176,51.80735 -7.48324,19.45463 -16.47146,33.1239 -31.97336,48.62496 -7.49643,7.49605 -16.76212,15.66249 -20.59039,18.14766 -25.58989,16.6119 -53.34904,26.15477 -90.06351,30.96148 -12.94836,1.69522 -43.14967,2.34241 -51.34164,1.10022 z m 50.08439,-4.17026 c 28.06321,-3.72556 50.9247,-10.30089 71.76862,-20.64179 41.19577,-20.43768 68.87222,-58.09417 77.09738,-104.89837 2.75138,-15.65664 2.7374,-42.65697 -0.0292,-57.20846 -6.6956,-35.21079 -23.79964,-67.0143 -45.19763,-84.04119 -16.21783,-12.90495 -33.00507,-19.88912 -53.91733,-22.4318 -12.71168,-1.54559 -16.58284,-0.43987 -10.13443,2.89473 6.82216,3.52788 18.19953,13.90685 22.73517,20.74003 4.30975,6.4929 10.06136,19.22052 9.1139,20.16798 -0.25508,0.25498 -6.78556,-2.52983 -14.51234,-6.18853 -7.72678,-3.6587 -18.48119,-8.03697 -23.89866,-9.72949 -11.04002,-3.4491 -27.89468,-6.45948 -30.52163,-5.45142 -0.94803,0.36378 -3.49432,5.55994 -5.65838,11.54698 -5.07807,14.04869 -15.09601,33.04803 -17.42548,33.04803 -2.19628,0 -13.21249,-20.79796 -18.26072,-34.475 l -3.6356,-9.85 -6.70733,0.30356 c -14.54705,0.6584 -40.78681,9.24234 -55.69565,18.21996 -3.886,2.34003 -7.31938,4.2546 -7.62976,4.2546 -1.26134,0 1.39954,-8.48024 4.96372,-15.81936 4.70299,-9.68406 14.23131,-19.38989 24.30777,-24.76057 9.92656,-5.29082 7.91273,-6.48558 -8.18929,-4.85849 -30.83513,3.11586 -49.8796,11.85427 -67.84265,31.12909 -24.51621,26.30657 -36.10708,64.50505 -33.5035,110.41263 2.94215,51.87568 25.45198,93.93614 64.51446,120.54759 22.27554,15.17527 42.12259,22.28569 76.94336,27.56579 6.89339,1.04529 42.33133,0.71622 51.31565,-0.47652 z m 86.40893,-46.3951 c 1.51394,-2.18038 3.28978,-4.29631 3.94632,-4.70206 2.30985,-1.42758 13.80585,-19.45754 17.9319,-28.12385 4.84805,-10.18287 4.227,-6.17005 -0.7395,4.77773 -3.48322,7.67825 -15.98607,25.26697 -21.00548,29.55001 l -2.88583,2.4625 z m -97.70894,-22.24453 c 6.45453,-1.95115 14.15941,-5.83906 14.15941,-7.14488 0,-0.24331 -1.74639,-1.34549 -3.88084,-2.44927 -5.74844,-2.97263 -18.89614,-2.00247 -24.218,1.78703 -4.95394,3.52753 -4.53958,5.23956 1.72564,7.12991 2.65446,0.8009 7.18264,2.93687 5.82823,2.98229 -5.26398,0.17657 -18.33487,-7.21204 -25.93474,-15.34966 -4.23241,-4.53188 -7.69533,-8.76232 -7.69533,-9.40096 0,-0.63865 -4.56032,-3.49751 -7.2231,-4.85597 -9.80472,-5.002 -3.28188,-2.95317 7.26447,2.19638 13.55847,6.62035 25.69193,8.99216 38.5972,7.54489 9.79446,-1.0984 25.49813,-6.59784 33.3896,-11.69305 4.3176,-2.78773 6.28518,-3.64509 3.37759,-1.1473 -1.82412,1.56703 -7.26067,6.99009 -9.91883,11.05321 -8.78809,13.43312 -20.74188,20.17155 -31.36233,21.4929 -4.87288,0.60625 -0.84293,-0.10987 5.89103,-2.1455 z m -57.57644,-34.81796 c -2.77265,-2.28546 -5.18974,-3.40617 -6.12897,-2.84178 -1.07587,0.64652 -1.03332,0.29393 0.13874,-1.15131 1.83649,-2.26402 5.75014,-2.92908 4.40225,-0.74809 -0.4537,0.73432 3.48683,5.30972 5.76294,7.25663 5.55796,4.75401 1.61398,2.25649 -4.17521,-2.51544 z m 99.17124,-1.68898 c 4.6822,-4.304 4.74933,-4.55769 7.69528,-2.62742 3.87914,2.5417 3.91818,3.5133 0.0706,1.76028 -2.51859,-1.14755 -3.68233,-0.83503 -7.69534,2.06658 l -5.61257,3.89492 z m -2.46256,-31.58759 c 7.20785,-1.69726 11.23264,-4.22345 16.91906,-10.61941 2.87999,-3.23934 4.56367,-4.60114 3.74152,-3.02621 -4.15432,7.95812 -15.46252,15.26773 -22.99813,14.86594 -1.2758,-0.068 -0.22393,-0.61717 2.33755,-1.22032 z m -102.87104,-2.44467 c -4.41058,-2.32811 -11.98305,-11.10681 -11.98305,-13.89179 0,-0.71761 1.78256,1.25641 3.96131,4.3867 4.01053,5.76218 8.36196,9.06441 14.31368,10.86242 2.45399,0.74135 2.65631,1.00128 0.80935,1.03984 -1.35437,0.0282 -4.54994,-1.05045 -7.10129,-2.39717 z m 19.4138,1.08982 c 2.03159,-0.70026 5.91,-2.96978 8.61878,-5.04338 l 4.92498,-3.77019 -3.07812,3.4524 c -3.06268,3.43504 -9.57008,6.91695 -12.58078,6.73156 -0.86825,-0.0534 0.0837,-0.67014 2.11514,-1.37039 z m 73.25938,0.57921 c -3.70949,-1.39388 -8.58442,-5.46076 -11.16985,-9.31839 -2.42464,-3.61769 -2.29836,-3.56324 1.49008,0.64261 2.27656,2.52737 6.63247,5.70105 9.67977,7.05265 4.87585,2.16258 4.87585,3.45527 0,1.62313 z M 432.7407,329.59684 c -11.67811,-7.86989 -12.89992,-26.41861 -2.42985,-36.88868 3.48216,-3.48217 5.6743,-4.66183 8.66289,-4.66183 9.78009,0 17.78712,10.25381 17.78712,22.77813 0,16.60004 -12.61451,26.45863 -24.02016,18.77238 z m 5.51185,-22.55407 c 2.48841,-2.48841 2.48841,-8.41696 0,-10.90537 -5.99081,-5.99083 -14.51886,2.63976 -10.33435,10.45863 1.56923,2.93212 7.58877,3.19233 10.33435,0.44674 z m 21.1891,21.01919 c 2.84674,-4.8615 2.90823,-4.93382 2.90823,-3.41973 0,0.71503 -1.14101,2.60807 -2.53558,4.20677 l -2.53558,2.90672 z m 61.52432,0.49924 c -5.35394,-4.21139 -8.62784,-11.82754 -8.57284,-19.94287 0.0243,-3.92212 0.69014,-7.77285 1.47446,-8.55719 1.08059,-1.08057 1.42607,-0.68034 1.42607,1.65207 0,3.99632 2.13179,6.03313 6.31454,6.03313 4.30693,0 7.22922,-2.94466 7.22922,-7.28463 0,-5.86722 -7.06176,-9.78613 -10.83502,-6.01288 -0.90569,0.90569 -1.47748,0.97955 -1.47748,0.19083 0,-1.85822 3.75345,-4.97762 7.87491,-6.54459 7.97047,-3.03038 17.69152,4.48464 20.39874,15.76966 1.64873,6.87251 0.95675,11.95252 -2.57973,18.93904 -4.0814,8.06295 -14.67386,10.93247 -21.25287,5.75743 z m 29.48879,-5.42424 c 1.61855,-4.5704 2.05545,-22.12481 0.67757,-27.22641 -0.7522,-2.78515 -2.81909,-7.20272 -4.59307,-9.81684 -1.77399,-2.61411 -2.28663,-3.97382 -1.13925,-3.02158 1.14738,0.95224 3.29225,3.98466 4.76647,6.73871 2.26482,4.23113 2.6803,7.01147 2.6803,17.9355 0,8.67591 -0.53679,13.73807 -1.63203,15.39062 l -1.63204,2.4625 z m -140.90628,-4.43025 c -1.64382,-4.71552 -1.84365,-17.55245 -0.25801,-16.57244 0.61361,0.37921 0.84017,1.74307 0.50345,3.03075 -0.33686,1.28768 0.0389,5.48655 0.83875,9.3308 1.62654,7.83486 1.01161,10.22302 -1.08424,4.21089 z m 53.69238,-0.49475 c 1.44764,-7.57191 0.79231,-19.55045 -1.43663,-26.26125 -3.66179,-11.02464 -15.01973,-19.94417 -25.31062,-19.87672 -8.90877,0.0584 -20.0885,9.81073 -24.55486,21.41979 -1.32239,3.43719 -2.42099,5.41833 -2.44144,4.40255 -0.14457,-7.19556 11.76618,-22.07583 20.26994,-25.32344 14.29746,-5.46025 30.6775,5.88581 35.09771,24.31139 1.66426,6.93734 1.01711,20.35805 -1.15385,23.92985 -1.13541,1.86802 -1.22746,1.35851 -0.47025,-2.60217 z m 35.05532,-7.3875 c 0.0243,-2.03156 0.30084,-2.71359 0.61321,-1.51563 0.31204,1.19797 0.2916,2.86015 -0.0438,3.69375 -0.33735,0.8336 -0.59267,-0.14657 -0.5676,-2.17812 z m 0,-9.85 c 0.0243,-2.03156 0.30084,-2.7136 0.61321,-1.51563 0.31204,1.19797 0.2916,2.86016 -0.0438,3.69375 -0.33735,0.8336 -0.59267,-0.14657 -0.5676,-2.17812 z m 6.64015,-17.57328 c 3.65682,-6.39956 14.77789,-12.87709 21.43045,-12.48225 1.02023,0.0606 -0.64145,0.79971 -3.69264,1.64256 -7.82974,2.16289 -10.23077,3.65826 -15.44865,9.62159 -4.06305,4.64349 -4.3266,4.78372 -2.28916,1.2181 z m 116.32431,-8.00326 c -1.5673,-4.89415 -4.18918,-11.66878 -5.82638,-15.05472 -1.74838,-3.61578 -2.14254,-5.14006 -0.95519,-3.69375 2.62836,3.20152 6.16995,11.33426 8.64824,19.85916 2.93212,10.0862 1.43342,9.19445 -1.86667,-1.11069 z m -215.18069,-8.04465 c 0.65669,-8.32192 5.84595,-14.20351 14.90514,-16.89381 6.99829,-2.07827 15.50852,-2.39758 15.50852,-0.58188 0,0.67719 -1.00942,1.23125 -2.24316,1.23125 -8.72676,0 -22.19833,9.10384 -26.31682,17.78441 l -2.36924,4.99372 z m 147.38244,-0.91233 c -6.00138,-8.14276 -18.51133,-15.16201 -27.55008,-15.45814 l -3.84677,-0.12604 4.30937,-1.09646 c 10.9522,-2.78664 23.34391,2.67827 28.35772,12.50614 3.46381,6.78965 2.6437,9.48496 -1.27024,4.1745 z m 57.10697,-14.40868 c -0.49892,-0.84648 -1.69819,-2.92422 -2.66507,-4.61718 -1.68772,-2.95527 -1.67541,-2.97985 0.30912,-0.61563 2.50087,2.9794 4.65665,6.77188 3.84939,6.77188 -0.32226,0 -0.99447,-0.69258 -1.49339,-1.53907 z M 486.39764,241.56664 c 8.21032,-16.96109 13.17424,-30.95979 12.63039,-35.61858 -0.25168,-2.15408 -0.0195,-3.64564 0.51668,-3.31458 0.53567,0.33107 0.97394,1.36761 0.97394,2.30346 0,2.52912 1.77724,3.24306 12.77408,5.1314 14.00982,2.40573 28.30345,6.94159 42.20077,13.39178 6.53977,3.03532 12.13745,5.27181 12.43931,4.96998 1.4787,-1.4787 -7.40681,-14.63791 -15.25227,-22.5882 -6.89406,-6.98622 -11.07789,-10.01207 -19.10541,-13.81768 -9.34212,-4.4288 -11.87459,-6.65665 -4.2881,-3.77226 2.36705,0.89994 3.72823,0.65542 5.9286,-1.065 8.55867,-6.69183 21.52597,-11.28664 34.8403,-12.34527 l 9.87837,-0.78543 -4.92502,-2.20819 c -2.70873,-1.2145 -9.34051,-3.34004 -14.73729,-4.72341 -16.78251,-4.30193 -32.88546,-1.55408 -55.44397,9.46109 -7.44907,3.63733 -14.63171,6.79852 -15.96144,7.02487 -1.75198,0.29821 -2.43004,1.41444 -2.46251,4.0538 -0.0759,6.16513 -9.11907,8.86305 -16.65167,4.96778 -3.08225,-1.5939 -3.47183,-2.37369 -2.9218,-5.84844 0.6119,-3.86541 0.39917,-4.10454 -5.92456,-6.66219 -3.60761,-1.45909 -10.99178,-4.61086 -16.40929,-7.00395 -23.36591,-10.3215 -45.69529,-10.33531 -64.74793,-0.0399 l -4.20208,2.27062 12.3125,0.83228 c 13.38205,0.90458 22.63343,3.60145 33.31088,9.71048 5.97801,3.42026 7.08484,3.66543 11.28366,2.49941 2.5605,-0.71106 6.59469,-1.24844 8.96485,-1.19419 3.3902,0.0776 2.33974,0.60251 -4.92502,2.46097 -20.0831,5.13763 -33.71536,15.3886 -42.37207,31.86229 -2.50233,4.76197 -4.22622,8.65813 -3.83085,8.65813 0.39528,0 6.93584,-3.03418 14.53435,-6.74261 13.92599,-6.79656 31.47083,-12.25225 44.72656,-13.90807 5.9599,-0.74447 7.4512,-1.42253 8.74258,-3.97502 1.53073,-3.02574 1.55721,-3.0011 1.57508,1.46638 0.01,2.49909 1.4654,8.59378 3.23423,13.54375 3.71737,10.40269 15.00522,33.00932 16.48206,33.00932 0.55057,0 3.61603,-5.40211 6.81209,-12.00469 z m -4.11431,-60.02345 c -0.88947,-20.0597 6.75947,-40.7774 20.14478,-54.56348 6.29229,-6.48067 7.57738,-8.45515 6.64127,-10.2042 -1.54446,-2.88585 -5.43075,-4.00522 -8.39593,-2.41829 -8.71946,4.66649 -21.98355,27.08852 -25.90602,43.79222 -2.45866,10.47017 -5.00042,30.11994 -4.1092,31.7676 0.29354,0.54249 3.11511,0.81952 6.27039,0.61562 l 5.7369,-0.3707 z" id="path2" ns1:nodetypes="ssssssssscsssssssssscsssscssssssssssscsscssssssssssscssssssssssccssssscsssssssssssssssssscscssccsssscsssssssssssssscsssssssssssssssssssscsscsssssssssssssssssscsssscsssssscssssccccccccccssssssssssssssscssscsssssssssssccssssssssscsssssssssscsssssssssscssssssssssscs" /></g></svg>