<?xml version='1.0' encoding='utf-8'?>
<svg xmlns="http://www.w3.org/2000/svg" xmlns:ns1="http://sodipodi.sourceforge.net/DTD/sodipodi-0.dtd" xmlns:ns2="http://www.inkscape.org/namespaces/inkscape" viewBox="0 0 158.75 119.0625" version="1.1" id="svg1" ns1:docname="W-Whale.svg" ns2:version="1.4.2 (f4327f4, 2025-05-13)" xml:space="preserve"><ns1:namedview id="namedview1" pagecolor="#ffffff" bordercolor="#000000" borderopacity="0.25" ns2:showpageshadow="2" ns2:pageopacity="0.0" ns2:pagecheckerboard="0" ns2:deskcolor="#d1d1d1" ns2:zoom="2.2355556" ns2:cx="62.624254" ns2:cy="35.56163" ns2:window-width="1366" ns2:window-height="705" ns2:window-x="-8" ns2:window-y="-8" ns2:window-maximized="1" ns2:current-layer="Color" showgrid="false" /><defs id="defs1"><rect x="-34.793027" y="89.829271" width="65.790448" height="16.447613" id="rect3" /><rect x="14.549811" y="36.058228" width="60.729648" height="58.515546" id="rect2" /><clipPath clipPathUnits="userSpaceOnUse" id="clipPath3"><path d="M 0,500 H 500 V 0 H 0 Z" transform="translate(-432.53711,-135.74711)" id="path3" /></clipPath><clipPath clipPathUnits="userSpaceOnUse" id="clipPath5"><path d="M 0,500 H 500 V 0 H 0 Z" transform="translate(-151.34181,-199.4336)" id="path5" /></clipPath><clipPath clipPathUnits="userSpaceOnUse" id="clipPath7"><path d="M 0,500 H 500 V 0 H 0 Z" transform="translate(-151.34181,-199.4336)" id="path7" /></clipPath><clipPath clipPathUnits="userSpaceOnUse" id="clipPath9"><path d="M 0,500 H 500 V 0 H 0 Z" transform="translate(-182.0161,-196.83011)" id="path9" /></clipPath><clipPath clipPathUnits="userSpaceOnUse" id="clipPath11"><path d="M 0,500 H 500 V 0 H 0 Z" transform="translate(-270.2578,-262.13381)" id="path11" /></clipPath><clipPath clipPathUnits="userSpaceOnUse" id="clipPath13"><path d="M 0,500 H 500 V 0 H 0 Z" transform="translate(-270.2578,-262.13381)" id="path13" /></clipPath><clipPath clipPathUnits="userSpaceOnUse" id="clipPath15"><path d="M 0,500 H 500 V 0 H 0 Z" transform="translate(-270.73731,-316.68121)" id="path15" /></clipPath><clipPath clipPathUnits="userSpaceOnUse" id="clipPath17"><path d="M 0,500 H 500 V 0 H 0 Z" transform="translate(-243.895,-297.82131)" id="path17" /></clipPath><clipPath clipPathUnits="userSpaceOnUse" id="clipPath19"><path d="M 0,500 H 500 V 0 H 0 Z" transform="translate(-243.895,-297.82131)" id="path19" /></clipPath><clipPath clipPathUnits="userSpaceOnUse" id="clipPath21"><path d="M 0,500 H 500 V 0 H 0 Z" transform="translate(-227.96341,-327.47461)" id="path21" /></clipPath><clipPath clipPathUnits="userSpaceOnUse" id="clipPath23"><path d="M 0,500 H 500 V 0 H 0 Z" transform="translate(-150.6709,-325.02691)" id="path23" /></clipPath><clipPath clipPathUnits="userSpaceOnUse" id="clipPath25"><path d="M 0,500 H 500 V 0 H 0 Z" transform="translate(-150.6709,-325.02691)" id="path25" /></clipPath><clipPath clipPathUnits="userSpaceOnUse" id="clipPath27"><path d="M 0,500 H 500 V 0 H 0 Z" transform="translate(-115.0161,-334.36131)" id="path27" /></clipPath><clipPath clipPathUnits="userSpaceOnUse" id="clipPath29"><path d="M 0,500 H 500 V 0 H 0 Z" transform="translate(-104.1924,-244.44141)" id="path29" /></clipPath><clipPath clipPathUnits="userSpaceOnUse" id="clipPath31"><path d="M 0,500 H 500 V 0 H 0 Z" transform="translate(-104.1924,-244.44141)" id="path31" /></clipPath><clipPath clipPathUnits="userSpaceOnUse" id="clipPath33"><path d="M 0,500 H 500 V 0 H 0 Z" transform="translate(-79.019004,-177.8154)" id="path33" /></clipPath><clipPath clipPathUnits="userSpaceOnUse" id="clipPath35"><path d="M 0,500 H 500 V 0 H 0 Z" transform="translate(-105.8481,-187.5293)" id="path35" /></clipPath><clipPath clipPathUnits="userSpaceOnUse" id="clipPath37"><path d="M 0,500 H 500 V 0 H 0 Z" transform="translate(-120.3486,-245.5713)" id="path37" /></clipPath><clipPath clipPathUnits="userSpaceOnUse" id="clipPath39"><path d="M 0,500 H 500 V 0 H 0 Z" transform="translate(-43.031301,-294.82521)" id="path39" /></clipPath><clipPath clipPathUnits="userSpaceOnUse" id="clipPath41"><path d="M 0,500 H 500 V 0 H 0 Z" transform="translate(-140.2095,-138.87791)" id="path41" /></clipPath><clipPath clipPathUnits="userSpaceOnUse" id="clipPath43"><path d="M 0,500 H 500 V 0 H 0 Z" transform="translate(-140.2095,-138.87791)" id="path43" /></clipPath><clipPath clipPathUnits="userSpaceOnUse" id="clipPath45"><path d="M 0,500 H 500 V 0 H 0 Z" transform="translate(-131.71041,-136.21781)" id="path45" /></clipPath><clipPath clipPathUnits="userSpaceOnUse" id="clipPath47"><path d="M 0,500 H 500 V 0 H 0 Z" transform="translate(-95.863802,-329.88091)" id="path47" /></clipPath><clipPath clipPathUnits="userSpaceOnUse" id="clipPath49"><path d="M 0,500 H 500 V 0 H 0 Z" transform="translate(-99.722702,-346.67581)" id="path49" /></clipPath><clipPath clipPathUnits="userSpaceOnUse" id="clipPath51"><path d="M 0,500 H 500 V 0 H 0 Z" transform="translate(-99.596702,-349.59371)" id="path51" /></clipPath><clipPath clipPathUnits="userSpaceOnUse" id="clipPath53"><path d="M 0,500 H 500 V 0 H 0 Z" transform="translate(-75.429699,-348.79931)" id="path53" /></clipPath><clipPath clipPathUnits="userSpaceOnUse" id="clipPath55"><path d="M 0,500 H 500 V 0 H 0 Z" transform="translate(-52.736801,-378.31591)" id="path55" /></clipPath><clipPath clipPathUnits="userSpaceOnUse" id="clipPath57"><path d="M 0,500 H 500 V 0 H 0 Z" transform="translate(-71.700202,-397.00241)" id="path57" /></clipPath><clipPath clipPathUnits="userSpaceOnUse" id="clipPath59"><path d="M 0,500 H 500 V 0 H 0 Z" transform="translate(-49.381801,-362.78271)" id="path59" /></clipPath><clipPath clipPathUnits="userSpaceOnUse" id="clipPath61"><path d="M 0,500 H 500 V 0 H 0 Z" transform="translate(-75.429699,-348.79931)" id="path61" /></clipPath><clipPath clipPathUnits="userSpaceOnUse" id="clipPath63"><path d="M 0,500 H 500 V 0 H 0 Z" transform="translate(-52.736801,-378.31591)" id="path63" /></clipPath><clipPath clipPathUnits="userSpaceOnUse" id="clipPath65"><path d="M 0,500 H 500 V 0 H 0 Z" transform="translate(-87.7402,-374.77391)" id="path65" /></clipPath><clipPath clipPathUnits="userSpaceOnUse" id="clipPath67"><path d="M 0,500 H 500 V 0 H 0 Z" transform="translate(-90.202105,-372.51071)" id="path67" /></clipPath><clipPath clipPathUnits="userSpaceOnUse" id="clipPath69"><path d="M 0,500 H 500 V 0 H 0 Z" transform="translate(-43.860801,-338.97661)" id="path69" /></clipPath><clipPath clipPathUnits="userSpaceOnUse" id="clipPath71"><path d="M 0,500 H 500 V 0 H 0 Z" transform="translate(-62.706502,-345.08251)" id="path71" /></clipPath><clipPath clipPathUnits="userSpaceOnUse" id="clipPath73"><path d="M 0,500 H 500 V 0 H 0 Z" transform="translate(-32.944801,-364.06201)" id="path73" /></clipPath><clipPath clipPathUnits="userSpaceOnUse" id="clipPath75"><path d="M 0,500 H 500 V 0 H 0 Z" transform="translate(-32.363801,-386.02201)" id="path75" /></clipPath><clipPath clipPathUnits="userSpaceOnUse" id="clipPath77"><path d="M 0,500 H 500 V 0 H 0 Z" transform="translate(-42.559601,-382.52731)" id="path77" /></clipPath><clipPath clipPathUnits="userSpaceOnUse" id="clipPath79"><path d="M 0,500 H 500 V 0 H 0 Z" transform="translate(-72.010702,-416.37261)" id="path79" /></clipPath><clipPath clipPathUnits="userSpaceOnUse" id="clipPath81"><path d="M 0,500 H 500 V 0 H 0 Z" transform="translate(-88.275902,-375.45461)" id="path81" /></clipPath><clipPath clipPathUnits="userSpaceOnUse" id="clipPath83"><path d="M 0,500 H 500 V 0 H 0 Z" transform="translate(-125.0845,-367.83841)" id="path83" /></clipPath><clipPath clipPathUnits="userSpaceOnUse" id="clipPath85"><path d="M 0,500 H 500 V 0 H 0 Z" transform="translate(-88.761205,-375.09231)" id="path85" /></clipPath><clipPath clipPathUnits="userSpaceOnUse" id="clipPath87"><path d="M 0,500 H 500 V 0 H 0 Z" transform="translate(-125.2983,-381.78861)" id="path87" /></clipPath><clipPath clipPathUnits="userSpaceOnUse" id="clipPath89"><path d="M 0,500 H 500 V 0 H 0 Z" transform="translate(-96.329605,-397.87451)" id="path89" /></clipPath><clipPath clipPathUnits="userSpaceOnUse" id="clipPath91"><path d="M 0,500 H 500 V 0 H 0 Z" transform="translate(-87.3955,-382.24561)" id="path91" /></clipPath><clipPath clipPathUnits="userSpaceOnUse" id="clipPath93"><path d="M 0,500 H 500 V 0 H 0 Z" transform="translate(-125.2983,-381.78861)" id="path93" /></clipPath><clipPath clipPathUnits="userSpaceOnUse" id="clipPath95"><path d="M 0,500 H 500 V 0 H 0 Z" transform="translate(-71.700202,-397.00241)" id="path95" /></clipPath><clipPath clipPathUnits="userSpaceOnUse" id="clipPath97"><path d="M 0,500 H 500 V 0 H 0 Z" transform="translate(-139.3882,-350.70461)" id="path97" /></clipPath><clipPath clipPathUnits="userSpaceOnUse" id="clipPath99"><path d="M 0,500 H 500 V 0 H 0 Z" transform="translate(-97.266602,-377.96481)" id="path99" /></clipPath><clipPath clipPathUnits="userSpaceOnUse" id="clipPath101"><path d="M 0,500 H 500 V 0 H 0 Z" transform="translate(-119.97171,-375.45461)" id="path101" /></clipPath><clipPath clipPathUnits="userSpaceOnUse" id="clipPath103"><path d="M 0,500 H 500 V 0 H 0 Z" transform="translate(-437.25881,-102.749)" id="path103" /></clipPath><clipPath clipPathUnits="userSpaceOnUse" id="clipPath105"><path d="M 0,500 H 500 V 0 H 0 Z" transform="translate(-153.0757,-110.08691)" id="path105" /></clipPath><clipPath clipPathUnits="userSpaceOnUse" id="clipPath107"><path d="M 0,500 H 500 V 0 H 0 Z" transform="translate(-68.039602,-123.2412)" id="path107" /></clipPath><clipPath clipPathUnits="userSpaceOnUse" id="clipPath109"><path d="M 0,500 H 500 V 0 H 0 Z" transform="translate(-98.763205,-118.9268)" id="path109" /></clipPath><clipPath clipPathUnits="userSpaceOnUse" id="clipPath111"><path d="M 0,500 H 500 V 0 H 0 Z" transform="translate(-94.1626,-133.752)" id="path111" /></clipPath><clipPath clipPathUnits="userSpaceOnUse" id="clipPath113"><path d="M 0,500 H 500 V 0 H 0 Z" transform="translate(-130.0093,-133.8818)" id="path113" /></clipPath><clipPath clipPathUnits="userSpaceOnUse" id="clipPath115"><path d="M 0,500 H 500 V 0 H 0 Z" transform="translate(-216.42291,-119.5391)" id="path115" /></clipPath><clipPath clipPathUnits="userSpaceOnUse" id="clipPath117"><path d="M 0,500 H 500 V 0 H 0 Z" transform="translate(-216.4243,-119.54)" id="path117" /></clipPath><clipPath clipPathUnits="userSpaceOnUse" id="clipPath119"><path d="M 0,500 H 500 V 0 H 0 Z" transform="translate(-216.42291,-119.5391)" id="path119" /></clipPath><clipPath clipPathUnits="userSpaceOnUse" id="clipPath121"><path d="M 0,500 H 500 V 0 H 0 Z" transform="translate(-432.46971,-121.0557)" id="path121" /></clipPath><clipPath clipPathUnits="userSpaceOnUse" id="clipPath123"><path d="M 0,500 H 500 V 0 H 0 Z" transform="translate(-427.03711,-133.8525)" id="path123" /></clipPath><clipPath clipPathUnits="userSpaceOnUse" id="clipPath125"><path d="M 0,500 H 500 V 0 H 0 Z" transform="translate(-405.37791,-144.78911)" id="path125" /></clipPath><clipPath clipPathUnits="userSpaceOnUse" id="clipPath127"><path d="M 0,500 H 500 V 0 H 0 Z" transform="translate(-404.70611,-137.2754)" id="path127" /></clipPath><clipPath clipPathUnits="userSpaceOnUse" id="clipPath129"><path d="M 0,500 H 500 V 0 H 0 Z" transform="translate(-432.46971,-121.0557)" id="path129" /></clipPath><clipPath clipPathUnits="userSpaceOnUse" id="clipPath131"><path d="M 0,500 H 500 V 0 H 0 Z" transform="translate(-327.13481,-114.4746)" id="path131" /></clipPath><clipPath clipPathUnits="userSpaceOnUse" id="clipPath133"><path d="M 0,500 H 500 V 0 H 0 Z" transform="translate(-376.72071,-396.30321)" id="path133" /></clipPath><clipPath clipPathUnits="userSpaceOnUse" id="clipPath135"><path d="M 0,500 H 500 V 0 H 0 Z" transform="translate(-345.24221,-355.45311)" id="path135" /></clipPath><clipPath clipPathUnits="userSpaceOnUse" id="clipPath137"><path d="M 0,500 H 500 V 0 H 0 Z" transform="translate(-315.50001,-373.42481)" id="path137" /></clipPath><clipPath clipPathUnits="userSpaceOnUse" id="clipPath139"><path d="M 0,500 H 500 V 0 H 0 Z" transform="translate(-312.87011,-392.23001)" id="path139" /></clipPath><clipPath clipPathUnits="userSpaceOnUse" id="clipPath141"><path d="M 0,500 H 500 V 0 H 0 Z" transform="translate(-328.25681,-433.48831)" id="path141" /></clipPath><clipPath clipPathUnits="userSpaceOnUse" id="clipPath143"><path d="M 0,500 H 500 V 0 H 0 Z" transform="translate(-371.31351,-429.34471)" id="path143" /></clipPath><clipPath clipPathUnits="userSpaceOnUse" id="clipPath145"><path d="M 0,500 H 500 V 0 H 0 Z" transform="translate(-356.50101,-401.37401)" id="path145" /></clipPath><clipPath clipPathUnits="userSpaceOnUse" id="clipPath147"><path d="M 0,500 H 500 V 0 H 0 Z" transform="translate(-356.68651,-383.02541)" id="path147" /></clipPath><clipPath clipPathUnits="userSpaceOnUse" id="clipPath149"><path d="M 0,500 H 500 V 0 H 0 Z" transform="translate(-339.52251,-412.63771)" id="path149" /></clipPath><clipPath clipPathUnits="userSpaceOnUse" id="clipPath151"><path d="M 0,500 H 500 V 0 H 0 Z" transform="translate(-376.35061,-419.38281)" id="path151" /></clipPath><clipPath clipPathUnits="userSpaceOnUse" id="clipPath153"><path d="M 0,500 H 500 V 0 H 0 Z" transform="translate(-364.11821,-384.56741)" id="path153" /></clipPath><clipPath clipPathUnits="userSpaceOnUse" id="clipPath155"><path d="M 0,500 H 500 V 0 H 0 Z" transform="translate(-376.72071,-396.30321)" id="path155" /></clipPath><clipPath clipPathUnits="userSpaceOnUse" id="clipPath157"><path d="M 0,500 H 500 V 0 H 0 Z" transform="translate(-313.61911,-296.27291)" id="path157" /></clipPath><clipPath clipPathUnits="userSpaceOnUse" id="clipPath159"><path d="M 0,500 H 500 V 0 H 0 Z" transform="translate(-305.04881,-316.07621)" id="path159" /></clipPath><clipPath clipPathUnits="userSpaceOnUse" id="clipPath161"><path d="M 0,500 H 500 V 0 H 0 Z" transform="translate(-300.53611,-275.20511)" id="path161" /></clipPath><clipPath clipPathUnits="userSpaceOnUse" id="clipPath163"><path d="M 0,500 H 500 V 0 H 0 Z" transform="translate(-319.84181,-243.67191)" id="path163" /></clipPath><clipPath clipPathUnits="userSpaceOnUse" id="clipPath165"><path d="M 0,500 H 500 V 0 H 0 Z" transform="translate(-338.39361,-241.03421)" id="path165" /></clipPath><clipPath clipPathUnits="userSpaceOnUse" id="clipPath167"><path d="M 0,500 H 500 V 0 H 0 Z" transform="translate(-320.49711,-352.96141)" id="path167" /></clipPath><clipPath clipPathUnits="userSpaceOnUse" id="clipPath169"><path d="M 0,500 H 500 V 0 H 0 Z" transform="translate(-431.04981,-326.64161)" id="path169" /></clipPath><clipPath clipPathUnits="userSpaceOnUse" id="clipPath171"><path d="M 0,500 H 500 V 0 H 0 Z" transform="translate(-372.06351,-226.83401)" id="path171" /></clipPath><clipPath clipPathUnits="userSpaceOnUse" id="clipPath173"><path d="M 0,500 H 500 V 0 H 0 Z" transform="translate(-399.95511,-220.86041)" id="path173" /></clipPath><clipPath clipPathUnits="userSpaceOnUse" id="clipPath175"><path d="M 0,500 H 500 V 0 H 0 Z" transform="translate(-323.42581,-269.89451)" id="path175" /></clipPath><clipPath clipPathUnits="userSpaceOnUse" id="clipPath177"><path d="M 0,500 H 500 V 0 H 0 Z" transform="translate(-355.10741,-259.54641)" id="path177" /></clipPath><clipPath clipPathUnits="userSpaceOnUse" id="clipPath179"><path d="M 0,500 H 500 V 0 H 0 Z" transform="translate(-313.61911,-296.27291)" id="path179" /></clipPath><clipPath clipPathUnits="userSpaceOnUse" id="clipPath181"><path d="M 0,500 H 500 V 0 H 0 Z" transform="translate(-369.42681,-281.5425)" id="path181" /></clipPath><clipPath clipPathUnits="userSpaceOnUse" id="clipPath183"><path d="M 0,500 H 500 V 0 H 0 Z" transform="translate(-336.97751,-317.55571)" id="path183" /></clipPath><clipPath clipPathUnits="userSpaceOnUse" id="clipPath185"><path d="M 0,500 H 500 V 0 H 0 Z" transform="translate(-313.62011,-296.27151)" id="path185" /></clipPath><clipPath clipPathUnits="userSpaceOnUse" id="clipPath187"><path d="M 0,500 H 500 V 0 H 0 Z" transform="translate(-369.07811,-322.24461)" id="path187" /></clipPath><clipPath clipPathUnits="userSpaceOnUse" id="clipPath189"><path d="M 0,500 H 500 V 0 H 0 Z" transform="translate(-336.97751,-317.55571)" id="path189" /></clipPath><clipPath clipPathUnits="userSpaceOnUse" id="clipPath191"><path d="M 0,500 H 500 V 0 H 0 Z" transform="translate(-401.02541,-318.82371)" id="path191" /></clipPath><clipPath clipPathUnits="userSpaceOnUse" id="clipPath193"><path d="M 0,500 H 500 V 0 H 0 Z" transform="translate(-369.07811,-322.24411)" id="path193" /></clipPath><clipPath clipPathUnits="userSpaceOnUse" id="clipPath195"><path d="M 0,500 H 500 V 0 H 0 Z" transform="translate(-401.98341,-287.1846)" id="path195" /></clipPath><clipPath clipPathUnits="userSpaceOnUse" id="clipPath197"><path d="M 0,500 H 500 V 0 H 0 Z" transform="translate(-401.02541,-318.82371)" id="path197" /></clipPath><clipPath clipPathUnits="userSpaceOnUse" id="clipPath199"><path d="M 0,500 H 500 V 0 H 0 Z" transform="translate(-385.65231,-244.13481)" id="path199" /></clipPath><clipPath clipPathUnits="userSpaceOnUse" id="clipPath201"><path d="M 0,500 H 500 V 0 H 0 Z" transform="translate(-361.43161,-257.66991)" id="path201" /></clipPath><clipPath clipPathUnits="userSpaceOnUse" id="clipPath203"><path d="M 0,500 H 500 V 0 H 0 Z" transform="translate(-361.72851,-265.84031)" id="path203" /></clipPath><clipPath clipPathUnits="userSpaceOnUse" id="clipPath205"><path d="M 0,500 H 500 V 0 H 0 Z" transform="translate(-402.13871,-265.52591)" id="path205" /></clipPath><clipPath clipPathUnits="userSpaceOnUse" id="clipPath207"><path d="M 0,500 H 500 V 0 H 0 Z" transform="translate(-385.65231,-244.13571)" id="path207" /></clipPath><clipPath clipPathUnits="userSpaceOnUse" id="clipPath209"><path d="M 0,500 H 500 V 0 H 0 Z" transform="translate(-402.13771,-265.52541)" id="path209" /></clipPath><clipPath clipPathUnits="userSpaceOnUse" id="clipPath211"><path d="M 0,500 H 500 V 0 H 0 Z" transform="translate(-355.10741,-259.54641)" id="path211" /></clipPath><clipPath clipPathUnits="userSpaceOnUse" id="clipPath213"><path d="M 0,500 H 500 V 0 H 0 Z" transform="translate(-242.46831,-133.5723)" id="path213" /></clipPath><clipPath clipPathUnits="userSpaceOnUse" id="clipPath215"><path d="M 0,500 H 500 V 0 H 0 Z" transform="translate(-210.0742,-231.25001)" id="path215" /></clipPath><clipPath clipPathUnits="userSpaceOnUse" id="clipPath217"><path d="M 0,500 H 500 V 0 H 0 Z" transform="translate(-184.9072,-258.88431)" id="path217" /></clipPath><clipPath clipPathUnits="userSpaceOnUse" id="clipPath219"><path d="M 0,500 H 500 V 0 H 0 Z" transform="translate(-148.6821,-295.10451)" id="path219" /></clipPath><clipPath clipPathUnits="userSpaceOnUse" id="clipPath221"><path d="M 0,500 H 500 V 0 H 0 Z" transform="translate(-147.19731,-276.85691)" id="path221" /></clipPath><clipPath clipPathUnits="userSpaceOnUse" id="clipPath223"><path d="M 0,500 H 500 V 0 H 0 Z" transform="translate(-145.4277,-259.17381)" id="path223" /></clipPath><clipPath clipPathUnits="userSpaceOnUse" id="clipPath225"><path d="M 0,500 H 500 V 0 H 0 Z" transform="translate(-144.6172,-243.18261)" id="path225" /></clipPath><clipPath clipPathUnits="userSpaceOnUse" id="clipPath227"><path d="M 0,500 H 500 V 0 H 0 Z" transform="translate(-145.23831,-226.34181)" id="path227" /></clipPath><clipPath clipPathUnits="userSpaceOnUse" id="clipPath229"><path d="M 0,500 H 500 V 0 H 0 Z" transform="translate(-148.04301,-210.12111)" id="path229" /></clipPath><clipPath clipPathUnits="userSpaceOnUse" id="clipPath231"><path d="M 0,500 H 500 V 0 H 0 Z" transform="translate(-154.3618,-192.44921)" id="path231" /></clipPath><clipPath clipPathUnits="userSpaceOnUse" id="clipPath233"><path d="M 0,500 H 500 V 0 H 0 Z" transform="translate(-163.56201,-176.61521)" id="path233" /></clipPath><clipPath clipPathUnits="userSpaceOnUse" id="clipPath235"><path d="M 0,500 H 500 V 0 H 0 Z" transform="translate(-179.42721,-158.4932)" id="path235" /></clipPath><clipPath clipPathUnits="userSpaceOnUse" id="clipPath237"><path d="M 0,500 H 500 V 0 H 0 Z" transform="translate(-168.06741,-111.37211)" id="path237" /></clipPath><clipPath clipPathUnits="userSpaceOnUse" id="clipPath239"><path d="M 0,500 H 500 V 0 H 0 Z" transform="translate(-171.1729,-117.8379)" id="path239" /></clipPath><clipPath clipPathUnits="userSpaceOnUse" id="clipPath241"><path d="M 0,500 H 500 V 0 H 0 Z" transform="translate(-262.65531,-102.97271)" id="path241" /></clipPath><clipPath clipPathUnits="userSpaceOnUse" id="clipPath243"><path d="M 0,500 H 500 V 0 H 0 Z" transform="translate(-256.89841,-105.15821)" id="path243" /></clipPath><clipPath clipPathUnits="userSpaceOnUse" id="clipPath245"><path d="M 0,500 H 500 V 0 H 0 Z" transform="translate(-197.36961,-145.5762)" id="path245" /></clipPath><clipPath clipPathUnits="userSpaceOnUse" id="clipPath247"><path d="M 0,500 H 500 V 0 H 0 Z" transform="translate(-218.4478,-137.4365)" id="path247" /></clipPath><clipPath clipPathUnits="userSpaceOnUse" id="clipPath249"><path d="M 0,500 H 500 V 0 H 0 Z" transform="translate(-252.6064,-248.63481)" id="path249" /></clipPath><clipPath clipPathUnits="userSpaceOnUse" id="clipPath251"><path d="M 0,500 H 500 V 0 H 0 Z" transform="translate(-263.56351,-232.1865)" id="path251" /></clipPath><clipPath clipPathUnits="userSpaceOnUse" id="clipPath253"><path d="M 0,500 H 500 V 0 H 0 Z" transform="translate(-280.915,-228.33591)" id="path253" /></clipPath><clipPath clipPathUnits="userSpaceOnUse" id="clipPath255"><path d="M 0,500 H 500 V 0 H 0 Z" transform="translate(-279.01861,-215.27831)" id="path255" /></clipPath><clipPath clipPathUnits="userSpaceOnUse" id="clipPath257"><path d="M 0,500 H 500 V 0 H 0 Z" transform="translate(-267.748,-214.49321)" id="path257" /></clipPath><clipPath clipPathUnits="userSpaceOnUse" id="clipPath259"><path d="M 0,500 H 500 V 0 H 0 Z" transform="translate(-309.81641,-206.8818)" id="path259" /></clipPath><clipPath clipPathUnits="userSpaceOnUse" id="clipPath261"><path d="M 0,500 H 500 V 0 H 0 Z" transform="translate(-322.25681,-187.8135)" id="path261" /></clipPath><clipPath clipPathUnits="userSpaceOnUse" id="clipPath263"><path d="M 0,500 H 500 V 0 H 0 Z" transform="translate(-329.74901,-169.2236)" id="path263" /></clipPath><clipPath clipPathUnits="userSpaceOnUse" id="clipPath265"><path d="M 0,500 H 500 V 0 H 0 Z" transform="translate(-341.73931,-143.08301)" id="path265" /></clipPath><clipPath clipPathUnits="userSpaceOnUse" id="clipPath267"><path d="M 0,500 H 500 V 0 H 0 Z" transform="translate(-354.48051,-143.9541)" id="path267" /></clipPath><clipPath clipPathUnits="userSpaceOnUse" id="clipPath269"><path d="M 0,500 H 500 V 0 H 0 Z" transform="translate(-341.77441,-168.3789)" id="path269" /></clipPath><clipPath clipPathUnits="userSpaceOnUse" id="clipPath271"><path d="M 0,500 H 500 V 0 H 0 Z" transform="translate(-385.95121,-98.459002)" id="path271" /></clipPath><clipPath clipPathUnits="userSpaceOnUse" id="clipPath273"><path d="M 0,500 H 500 V 0 H 0 Z" transform="translate(-379.38281,-132.7695)" id="path273" /></clipPath><clipPath clipPathUnits="userSpaceOnUse" id="clipPath275"><path d="M 0,500 H 500 V 0 H 0 Z" transform="translate(-180.59571,-341.57131)" id="path275" /></clipPath><clipPath clipPathUnits="userSpaceOnUse" id="clipPath277"><path d="M 0,500 H 500 V 0 H 0 Z" transform="translate(-189.04101,-346.05371)" id="path277" /></clipPath><clipPath clipPathUnits="userSpaceOnUse" id="clipPath279"><path d="M 0,500 H 500 V 0 H 0 Z" transform="translate(-184.69431,-261.6948)" id="path279" /></clipPath><clipPath clipPathUnits="userSpaceOnUse" id="clipPath281"><path d="M 0,500 H 500 V 0 H 0 Z" transform="translate(-198.0361,-215.9238)" id="path281" /></clipPath><clipPath clipPathUnits="userSpaceOnUse" id="clipPath283"><path d="M 0,500 H 500 V 0 H 0 Z" transform="translate(-187.3789,-215.26761)" id="path283" /></clipPath><clipPath clipPathUnits="userSpaceOnUse" id="clipPath285"><path d="M 0,500 H 500 V 0 H 0 Z" transform="translate(-180.43551,-218.77541)" id="path285" /></clipPath><clipPath clipPathUnits="userSpaceOnUse" id="clipPath287"><path d="M 0,500 H 500 V 0 H 0 Z" transform="translate(-175.2612,-228.13961)" id="path287" /></clipPath><clipPath clipPathUnits="userSpaceOnUse" id="clipPath289"><path d="M 0,500 H 500 V 0 H 0 Z" transform="translate(-244.6279,-404.04541)" id="path289" /></clipPath><clipPath clipPathUnits="userSpaceOnUse" id="clipPath291"><path d="M 0,500 H 500 V 0 H 0 Z" transform="translate(-228.89061,-353.46631)" id="path291" /></clipPath><clipPath clipPathUnits="userSpaceOnUse" id="clipPath293"><path d="M 0,500 H 500 V 0 H 0 Z" transform="translate(-183.4443,-384.64701)" id="path293" /></clipPath><clipPath clipPathUnits="userSpaceOnUse" id="clipPath295"><path d="M 0,500 H 500 V 0 H 0 Z" transform="translate(-225.19921,-396.14601)" id="path295" /></clipPath><clipPath clipPathUnits="userSpaceOnUse" id="clipPath297"><path d="M 0,500 H 500 V 0 H 0 Z" transform="translate(-203.1001,-348.71041)" id="path297" /></clipPath><clipPath clipPathUnits="userSpaceOnUse" id="clipPath299"><path d="M 0,500 H 500 V 0 H 0 Z" transform="translate(-165.3213,-379.77441)" id="path299" /></clipPath><clipPath clipPathUnits="userSpaceOnUse" id="clipPath301"><path d="M 0,500 H 500 V 0 H 0 Z" transform="translate(-177.6465,-379.95211)" id="path301" /></clipPath><clipPath clipPathUnits="userSpaceOnUse" id="clipPath303"><path d="M 0,500 H 500 V 0 H 0 Z" transform="translate(-230.05221,-388.11181)" id="path303" /></clipPath><clipPath clipPathUnits="userSpaceOnUse" id="clipPath305"><path d="M 0,500 H 500 V 0 H 0 Z" transform="translate(-211.17331,-139.4316)" id="path305" /></clipPath><clipPath clipPathUnits="userSpaceOnUse" id="clipPath307"><path d="M 0,500 H 500 V 0 H 0 Z" transform="translate(-162.37701,-177.70511)" id="path307" /></clipPath><clipPath clipPathUnits="userSpaceOnUse" id="clipPath309"><path d="M 0,500 H 500 V 0 H 0 Z" transform="translate(-146.4858,-215.95611)" id="path309" /></clipPath><clipPath clipPathUnits="userSpaceOnUse" id="clipPath311"><path d="M 0,500 H 500 V 0 H 0 Z" transform="translate(-147.6426,-281.3652)" id="path311" /></clipPath><clipPath clipPathUnits="userSpaceOnUse" id="clipPath313"><path d="M 0,500 H 500 V 0 H 0 Z" transform="translate(-212.31691,-438.15091)" id="path313" /></clipPath><clipPath clipPathUnits="userSpaceOnUse" id="clipPath315"><path d="M 0,500 H 500 V 0 H 0 Z" transform="translate(-217.1611,-433.01421)" id="path315" /></clipPath><clipPath clipPathUnits="userSpaceOnUse" id="clipPath317"><path d="M 0,500 H 500 V 0 H 0 Z" transform="translate(-147.6421,-281.3652)" id="path317" /></clipPath><clipPath clipPathUnits="userSpaceOnUse" id="clipPath319"><path d="M 0,500 H 500 V 0 H 0 Z" transform="translate(-161.75781,-91.345702)" id="path319" /></clipPath><clipPath clipPathUnits="userSpaceOnUse" id="clipPath321"><path d="M 0,500 H 500 V 0 H 0 Z" transform="translate(-175.57281,-91.524405)" id="path321" /></clipPath><clipPath clipPathUnits="userSpaceOnUse" id="clipPath323"><path d="M 0,500 H 500 V 0 H 0 Z" transform="translate(-151.83351,-93.239302)" id="path323" /></clipPath><clipPath clipPathUnits="userSpaceOnUse" id="clipPath325"><path d="M 0,500 H 500 V 0 H 0 Z" transform="translate(-164.938,-102.69731)" id="path325" /></clipPath><clipPath clipPathUnits="userSpaceOnUse" id="clipPath327"><path d="M 0,500 H 500 V 0 H 0 Z" transform="translate(-149.7358,-106.25591)" id="path327" /></clipPath><clipPath clipPathUnits="userSpaceOnUse" id="clipPath329"><path d="M 0,500 H 500 V 0 H 0 Z" transform="translate(-154.3066,-102.4287)" id="path329" /></clipPath><clipPath clipPathUnits="userSpaceOnUse" id="clipPath331"><path d="M 0,500 H 500 V 0 H 0 Z" transform="translate(-149.7363,-106.2539)" id="path331" /></clipPath><clipPath clipPathUnits="userSpaceOnUse" id="clipPath333"><path d="M 0,500 H 500 V 0 H 0 Z" transform="translate(-200.9458,-119.4854)" id="path333" /></clipPath><clipPath clipPathUnits="userSpaceOnUse" id="clipPath335"><path d="M 0,500 H 500 V 0 H 0 Z" transform="translate(-175.57281,-91.524405)" id="path335" /></clipPath><clipPath clipPathUnits="userSpaceOnUse" id="clipPath337"><path d="M 0,500 H 500 V 0 H 0 Z" transform="translate(-200.9458,-119.4854)" id="path337" /></clipPath><clipPath clipPathUnits="userSpaceOnUse" id="clipPath339"><path d="M 0,500 H 500 V 0 H 0 Z" transform="translate(-148.8901,-300.44871)" id="path339" /></clipPath><clipPath clipPathUnits="userSpaceOnUse" id="clipPath341"><path d="M 0,500 H 500 V 0 H 0 Z" transform="translate(-193.96581,-213.05471)" id="path341" /></clipPath><clipPath clipPathUnits="userSpaceOnUse" id="clipPath343"><path d="M 0,500 H 500 V 0 H 0 Z" transform="translate(-261.6592,-74.062499)" id="path343" /></clipPath><clipPath clipPathUnits="userSpaceOnUse" id="clipPath345"><path d="M 0,500 H 500 V 0 H 0 Z" transform="translate(-281.6641,-73.378904)" id="path345" /></clipPath><clipPath clipPathUnits="userSpaceOnUse" id="clipPath347"><path d="M 0,500 H 500 V 0 H 0 Z" transform="translate(-249.1333,-77.140604)" id="path347" /></clipPath><clipPath clipPathUnits="userSpaceOnUse" id="clipPath349"><path d="M 0,500 H 500 V 0 H 0 Z" transform="translate(-264.82131,-87.2715)" id="path349" /></clipPath><clipPath clipPathUnits="userSpaceOnUse" id="clipPath351"><path d="M 0,500 H 500 V 0 H 0 Z" transform="translate(-246.79251,-92.9004)" id="path351" /></clipPath><clipPath clipPathUnits="userSpaceOnUse" id="clipPath353"><path d="M 0,500 H 500 V 0 H 0 Z" transform="translate(-252.4375,-90.031305)" id="path353" /></clipPath><clipPath clipPathUnits="userSpaceOnUse" id="clipPath355"><path d="M 0,500 H 500 V 0 H 0 Z" transform="translate(-295.7959,-134.51861)" id="path355" /></clipPath><clipPath clipPathUnits="userSpaceOnUse" id="clipPath357"><path d="M 0,500 H 500 V 0 H 0 Z" transform="translate(-281.6641,-73.378904)" id="path357" /></clipPath><clipPath clipPathUnits="userSpaceOnUse" id="clipPath359"><path d="M 0,500 H 500 V 0 H 0 Z" transform="translate(-294.24901,-139.74221)" id="path359" /></clipPath><clipPath clipPathUnits="userSpaceOnUse" id="clipPath361"><path d="M 0,500 H 500 V 0 H 0 Z" transform="translate(-174.46971,-233.32031)" id="path361" /></clipPath><clipPath clipPathUnits="userSpaceOnUse" id="clipPath363"><path d="M 0,500 H 500 V 0 H 0 Z" transform="translate(-435.21781,-118.0029)" id="path363" /></clipPath><clipPath clipPathUnits="userSpaceOnUse" id="clipPath365"><path d="M 0,500 H 500 V 0 H 0 Z" transform="translate(-222.87451,-273.3579)" id="path365" /></clipPath><clipPath clipPathUnits="userSpaceOnUse" id="clipPath367"><path d="M 0,500 H 500 V 0 H 0 Z" transform="translate(-211.97311,-287.7129)" id="path367" /></clipPath><clipPath clipPathUnits="userSpaceOnUse" id="clipPath369"><path d="M 0,500 H 500 V 0 H 0 Z" transform="translate(-192.3208,-318.48581)" id="path369" /></clipPath><clipPath clipPathUnits="userSpaceOnUse" id="clipPath371"><path d="M 0,500 H 500 V 0 H 0 Z" transform="translate(-203.1001,-348.71041)" id="path371" /></clipPath><clipPath clipPathUnits="userSpaceOnUse" id="clipPath373"><path d="M 0,500 H 500 V 0 H 0 Z" transform="translate(-241.7158,-419.51461)" id="path373" /></clipPath><clipPath clipPathUnits="userSpaceOnUse" id="clipPath375"><path d="M 0,500 H 500 V 0 H 0 Z" transform="translate(-229.41751,-435.30081)" id="path375" /></clipPath><clipPath clipPathUnits="userSpaceOnUse" id="clipPath377"><path d="M 0,500 H 500 V 0 H 0 Z" transform="translate(-212.31691,-438.15041)" id="path377" /></clipPath><clipPath clipPathUnits="userSpaceOnUse" id="clipPath379"><path d="M 0,500 H 500 V 0 H 0 Z" transform="translate(-230.53561,-431.04981)" id="path379" /></clipPath><clipPath clipPathUnits="userSpaceOnUse" id="clipPath381"><path d="M 0,500 H 500 V 0 H 0 Z" transform="translate(-200.44921,-304.96681)" id="path381" /></clipPath><clipPath clipPathUnits="userSpaceOnUse" id="clipPath383"><path d="M 0,500 H 500 V 0 H 0 Z" transform="translate(-192.3208,-318.48581)" id="path383" /></clipPath><clipPath clipPathUnits="userSpaceOnUse" id="clipPath385"><path d="M 0,500 H 500 V 0 H 0 Z" transform="translate(-200.44921,-304.96681)" id="path385" /></clipPath><clipPath clipPathUnits="userSpaceOnUse" id="clipPath387"><path d="M 0,500 H 500 V 0 H 0 Z" transform="translate(-242.5444,-263.98241)" id="path387" /></clipPath><clipPath clipPathUnits="userSpaceOnUse" id="clipPath389"><path d="M 0,500 H 500 V 0 H 0 Z" transform="translate(-222.874,-273.3579)" id="path389" /></clipPath><clipPath clipPathUnits="userSpaceOnUse" id="clipPath391"><path d="M 0,500 H 500 V 0 H 0 Z" transform="translate(-261.97951,-254.5728)" id="path391" /></clipPath><clipPath clipPathUnits="userSpaceOnUse" id="clipPath393"><path d="M 0,500 H 500 V 0 H 0 Z" transform="translate(-242.5444,-263.98241)" id="path393" /></clipPath><clipPath clipPathUnits="userSpaceOnUse" id="clipPath395"><path d="M 0,500 H 500 V 0 H 0 Z" transform="translate(-284.5234,-247.34471)" id="path395" /></clipPath><clipPath clipPathUnits="userSpaceOnUse" id="clipPath397"><path d="M 0,500 H 500 V 0 H 0 Z" transform="translate(-261.97951,-254.5728)" id="path397" /></clipPath><clipPath clipPathUnits="userSpaceOnUse" id="clipPath399"><path d="M 0,500 H 500 V 0 H 0 Z" transform="translate(-306.22461,-235.83111)" id="path399" /></clipPath><clipPath clipPathUnits="userSpaceOnUse" id="clipPath401"><path d="M 0,500 H 500 V 0 H 0 Z" transform="translate(-284.5234,-247.34471)" id="path401" /></clipPath><clipPath clipPathUnits="userSpaceOnUse" id="clipPath403"><path d="M 0,500 H 500 V 0 H 0 Z" transform="translate(-323.62701,-215.97171)" id="path403" /></clipPath><clipPath clipPathUnits="userSpaceOnUse" id="clipPath405"><path d="M 0,500 H 500 V 0 H 0 Z" transform="translate(-306.22461,-235.83111)" id="path405" /></clipPath><clipPath clipPathUnits="userSpaceOnUse" id="clipPath407"><path d="M 0,500 H 500 V 0 H 0 Z" transform="translate(-338.43851,-196.10351)" id="path407" /></clipPath><clipPath clipPathUnits="userSpaceOnUse" id="clipPath409"><path d="M 0,500 H 500 V 0 H 0 Z" transform="translate(-323.62701,-215.97171)" id="path409" /></clipPath><clipPath clipPathUnits="userSpaceOnUse" id="clipPath411"><path d="M 0,500 H 500 V 0 H 0 Z" transform="translate(-349.30081,-178.14161)" id="path411" /></clipPath><clipPath clipPathUnits="userSpaceOnUse" id="clipPath413"><path d="M 0,500 H 500 V 0 H 0 Z" transform="translate(-338.43851,-196.10351)" id="path413" /></clipPath><clipPath clipPathUnits="userSpaceOnUse" id="clipPath415"><path d="M 0,500 H 500 V 0 H 0 Z" transform="translate(-360.88771,-160.3232)" id="path415" /></clipPath><clipPath clipPathUnits="userSpaceOnUse" id="clipPath417"><path d="M 0,500 H 500 V 0 H 0 Z" transform="translate(-349.30081,-178.14161)" id="path417" /></clipPath><clipPath clipPathUnits="userSpaceOnUse" id="clipPath419"><path d="M 0,500 H 500 V 0 H 0 Z" transform="translate(-372.44241,-146.8164)" id="path419" /></clipPath><clipPath clipPathUnits="userSpaceOnUse" id="clipPath421"><path d="M 0,500 H 500 V 0 H 0 Z" transform="translate(-360.88771,-160.3232)" id="path421" /></clipPath><clipPath clipPathUnits="userSpaceOnUse" id="clipPath423"><path d="M 0,500 H 500 V 0 H 0 Z" transform="translate(-386.25491,-135.37211)" id="path423" /></clipPath><clipPath clipPathUnits="userSpaceOnUse" id="clipPath425"><path d="M 0,500 H 500 V 0 H 0 Z" transform="translate(-372.44241,-146.8164)" id="path425" /></clipPath><clipPath clipPathUnits="userSpaceOnUse" id="clipPath427"><path d="M 0,500 H 500 V 0 H 0 Z" transform="translate(-401.10251,-128.24711)" id="path427" /></clipPath><clipPath clipPathUnits="userSpaceOnUse" id="clipPath429"><path d="M 0,500 H 500 V 0 H 0 Z" transform="translate(-386.25491,-135.37211)" id="path429" /></clipPath><clipPath clipPathUnits="userSpaceOnUse" id="clipPath431"><path d="M 0,500 H 500 V 0 H 0 Z" transform="translate(-413.76071,-123.0801)" id="path431" /></clipPath><clipPath clipPathUnits="userSpaceOnUse" id="clipPath433"><path d="M 0,500 H 500 V 0 H 0 Z" transform="translate(-401.10161,-128.24711)" id="path433" /></clipPath><clipPath clipPathUnits="userSpaceOnUse" id="clipPath435"><path d="M 0,500 H 500 V 0 H 0 Z" transform="translate(-425.78911,-120.54)" id="path435" /></clipPath><clipPath clipPathUnits="userSpaceOnUse" id="clipPath437"><path d="M 0,500 H 500 V 0 H 0 Z" transform="translate(-413.75981,-123.0801)" id="path437" /></clipPath><clipPath clipPathUnits="userSpaceOnUse" id="clipPath439"><path d="M 0,500 H 500 V 0 H 0 Z" transform="translate(-425.78811,-120.54)" id="path439" /></clipPath><clipPath clipPathUnits="userSpaceOnUse" id="clipPath441"><path d="M 0,500 H 500 V 0 H 0 Z" transform="translate(-229.41751,-435.30081)" id="path441" /></clipPath><clipPath clipPathUnits="userSpaceOnUse" id="clipPath443"><path d="M 0,500 H 500 V 0 H 0 Z" transform="translate(-195.1851,-416.87351)" id="path443" /></clipPath><clipPath clipPathUnits="userSpaceOnUse" id="clipPath445"><path d="M 0,500 H 500 V 0 H 0 Z" transform="translate(-194.6499,-409.87941)" id="path445" /></clipPath><clipPath clipPathUnits="userSpaceOnUse" id="clipPath447"><path d="M 0,500 H 500 V 0 H 0 Z" transform="translate(-180.8179,-416.55571)" id="path447" /></clipPath><clipPath clipPathUnits="userSpaceOnUse" id="clipPath449"><path d="M 0,500 H 500 V 0 H 0 Z" transform="translate(-198.2974,-216.10161)" id="path449" /></clipPath><clipPath clipPathUnits="userSpaceOnUse" id="clipPath451"><path d="M 0,500 H 500 V 0 H 0 Z" transform="translate(-197.6113,-434.94731)" id="path451" /></clipPath><clipPath clipPathUnits="userSpaceOnUse" id="clipPath453"><path d="M 0,500 H 500 V 0 H 0 Z" transform="translate(-181.1304,-402.84721)" id="path453" /></clipPath><clipPath clipPathUnits="userSpaceOnUse" id="clipPath455"><path d="M 0,500 H 500 V 0 H 0 Z" transform="translate(-242.46831,-133.5723)" id="path455" /></clipPath><clipPath clipPathUnits="userSpaceOnUse" id="clipPath457"><path d="M 0,500 H 500 V 0 H 0 Z" transform="translate(-246.79251,-92.899402)" id="path457" /></clipPath><clipPath clipPathUnits="userSpaceOnUse" id="clipPath459"><path d="M 0,500 H 500 V 0 H 0 Z" transform="translate(-318.30371,-121.8018)" id="path459" /></clipPath><clipPath clipPathUnits="userSpaceOnUse" id="clipPath461"><path d="M 0,500 H 500 V 0 H 0 Z" transform="translate(-324.81151,-137.6904)" id="path461" /></clipPath><clipPath clipPathUnits="userSpaceOnUse" id="clipPath463"><path d="M 0,500 H 500 V 0 H 0 Z" transform="translate(-244.49661,-366.76711)" id="path463" /></clipPath><clipPath clipPathUnits="userSpaceOnUse" id="clipPath465"><path d="M 0,500 H 500 V 0 H 0 Z" transform="translate(-243.4399,-375.14401)" id="path465" /></clipPath><clipPath clipPathUnits="userSpaceOnUse" id="clipPath467"><path d="M 0,500 H 500 V 0 H 0 Z" transform="translate(-253.43071,-381.39501)" id="path467" /></clipPath><clipPath clipPathUnits="userSpaceOnUse" id="clipPath469"><path d="M 0,500 H 500 V 0 H 0 Z" transform="translate(-243.12451,-390.81981)" id="path469" /></clipPath><clipPath clipPathUnits="userSpaceOnUse" id="clipPath471"><path d="M 0,500 H 500 V 0 H 0 Z" transform="translate(-253.43551,-396.48051)" id="path471" /></clipPath><clipPath clipPathUnits="userSpaceOnUse" id="clipPath473"><path d="M 0,500 H 500 V 0 H 0 Z" transform="translate(-173.79741,-438.61521)" id="path473" /></clipPath><clipPath clipPathUnits="userSpaceOnUse" id="clipPath475"><path d="M 0,500 H 500 V 0 H 0 Z" transform="translate(-180.8169,-448.72901)" id="path475" /></clipPath><clipPath clipPathUnits="userSpaceOnUse" id="clipPath477"><path d="M 0,500 H 500 V 0 H 0 Z" transform="translate(-188.0278,-438.81051)" id="path477" /></clipPath><clipPath clipPathUnits="userSpaceOnUse" id="clipPath479"><path d="M 0,500 H 500 V 0 H 0 Z" transform="translate(-164.4438,-429.47951)" id="path479" /></clipPath><clipPath clipPathUnits="userSpaceOnUse" id="clipPath481"><path d="M 0,500 H 500 V 0 H 0 Z" transform="translate(-223.02781,-442.81351)" id="path481" /></clipPath><clipPath clipPathUnits="userSpaceOnUse" id="clipPath483"><path d="M 0,500 H 500 V 0 H 0 Z" transform="translate(-224.1406,-432.02691)" id="path483" /></clipPath><clipPath clipPathUnits="userSpaceOnUse" id="clipPath485"><path d="M 0,500 H 500 V 0 H 0 Z" transform="translate(-238.43601,-430.93951)" id="path485" /></clipPath><clipPath clipPathUnits="userSpaceOnUse" id="clipPath487"><path d="M 0,500 H 500 V 0 H 0 Z" transform="translate(-224.20951,-252.1665)" id="path487" /></clipPath><clipPath clipPathUnits="userSpaceOnUse" id="clipPath489"><path d="M 0,500 H 500 V 0 H 0 Z" transform="translate(-211.53421,-248.99801)" id="path489" /></clipPath><clipPath clipPathUnits="userSpaceOnUse" id="clipPath491"><path d="M 0,500 H 500 V 0 H 0 Z" transform="translate(-217.62211,-256.78221)" id="path491" /></clipPath><clipPath clipPathUnits="userSpaceOnUse" id="clipPath493"><path d="M 0,500 H 500 V 0 H 0 Z" transform="translate(-193.0039,-310.81641)" id="path493" /></clipPath><clipPath clipPathUnits="userSpaceOnUse" id="clipPath495"><path d="M 0,500 H 500 V 0 H 0 Z" transform="translate(-195.34371,-304.73681)" id="path495" /></clipPath><clipPath clipPathUnits="userSpaceOnUse" id="clipPath497"><path d="M 0,500 H 500 V 0 H 0 Z" transform="translate(-205.90621,-306.07471)" id="path497" /></clipPath><clipPath clipPathUnits="userSpaceOnUse" id="clipPath499"><path d="M 0,500 H 500 V 0 H 0 Z" transform="translate(-212.42241,-304.53171)" id="path499" /></clipPath><clipPath clipPathUnits="userSpaceOnUse" id="clipPath501"><path d="M 0,500 H 500 V 0 H 0 Z" transform="translate(-230.47221,-278.2026)" id="path501" /></clipPath><clipPath clipPathUnits="userSpaceOnUse" id="clipPath503"><path d="M 0,500 H 500 V 0 H 0 Z" transform="translate(-236.38531,-277.57761)" id="path503" /></clipPath><clipPath clipPathUnits="userSpaceOnUse" id="clipPath505"><path d="M 0,500 H 500 V 0 H 0 Z" transform="translate(-236.61771,-261.92871)" id="path505" /></clipPath><clipPath clipPathUnits="userSpaceOnUse" id="clipPath507"><path d="M 0,500 H 500 V 0 H 0 Z" transform="translate(-248.12551,-268.7295)" id="path507" /></clipPath><clipPath clipPathUnits="userSpaceOnUse" id="clipPath509"><path d="M 0,500 H 500 V 0 H 0 Z" transform="translate(-253.9453,-252.41061)" id="path509" /></clipPath><clipPath clipPathUnits="userSpaceOnUse" id="clipPath511"><path d="M 0,500 H 500 V 0 H 0 Z" transform="translate(-268.85841,-261.021)" id="path511" /></clipPath><clipPath clipPathUnits="userSpaceOnUse" id="clipPath513"><path d="M 0,500 H 500 V 0 H 0 Z" transform="translate(-278.84671,-263.01861)" id="path513" /></clipPath><clipPath clipPathUnits="userSpaceOnUse" id="clipPath515"><path d="M 0,500 H 500 V 0 H 0 Z" transform="translate(-277.45411,-241.44431)" id="path515" /></clipPath><clipPath clipPathUnits="userSpaceOnUse" id="clipPath517"><path d="M 0,500 H 500 V 0 H 0 Z" transform="translate(-291.00781,-251.98731)" id="path517" /></clipPath><clipPath clipPathUnits="userSpaceOnUse" id="clipPath519"><path d="M 0,500 H 500 V 0 H 0 Z" transform="translate(-291.583,-231.55271)" id="path519" /></clipPath><clipPath clipPathUnits="userSpaceOnUse" id="clipPath521"><path d="M 0,500 H 500 V 0 H 0 Z" transform="translate(-305.82131,-246.04391)" id="path521" /></clipPath><clipPath clipPathUnits="userSpaceOnUse" id="clipPath523"><path d="M 0,500 H 500 V 0 H 0 Z" transform="translate(-304.58111,-219.6426)" id="path523" /></clipPath><clipPath clipPathUnits="userSpaceOnUse" id="clipPath525"><path d="M 0,500 H 500 V 0 H 0 Z" transform="translate(-320.65331,-233.27051)" id="path525" /></clipPath><clipPath clipPathUnits="userSpaceOnUse" id="clipPath527"><path d="M 0,500 H 500 V 0 H 0 Z" transform="translate(-312.40621,-210.22071)" id="path527" /></clipPath><clipPath clipPathUnits="userSpaceOnUse" id="clipPath529"><path d="M 0,500 H 500 V 0 H 0 Z" transform="translate(-320.37791,-199.96481)" id="path529" /></clipPath><clipPath clipPathUnits="userSpaceOnUse" id="clipPath531"><path d="M 0,500 H 500 V 0 H 0 Z" transform="translate(-338.23141,-211.09571)" id="path531" /></clipPath><clipPath clipPathUnits="userSpaceOnUse" id="clipPath533"><path d="M 0,500 H 500 V 0 H 0 Z" transform="translate(-333.24611,-180.9609)" id="path533" /></clipPath><clipPath clipPathUnits="userSpaceOnUse" id="clipPath535"><path d="M 0,500 H 500 V 0 H 0 Z" transform="translate(-349.75291,-190.0703)" id="path535" /></clipPath><clipPath clipPathUnits="userSpaceOnUse" id="clipPath537"><path d="M 0,500 H 500 V 0 H 0 Z" transform="translate(-356.27731,-176.8418)" id="path537" /></clipPath><clipPath clipPathUnits="userSpaceOnUse" id="clipPath539"><path d="M 0,500 H 500 V 0 H 0 Z" transform="translate(-350.46971,-157.752)" id="path539" /></clipPath><clipPath clipPathUnits="userSpaceOnUse" id="clipPath541"><path d="M 0,500 H 500 V 0 H 0 Z" transform="translate(-366.06051,-160.3232)" id="path541" /></clipPath><clipPath clipPathUnits="userSpaceOnUse" id="clipPath543"><path d="M 0,500 H 500 V 0 H 0 Z" transform="translate(-364.13671,-143.793)" id="path543" /></clipPath><clipPath clipPathUnits="userSpaceOnUse" id="clipPath545"><path d="M 0,500 H 500 V 0 H 0 Z" transform="translate(-377.46781,-147.89261)" id="path545" /></clipPath><clipPath clipPathUnits="userSpaceOnUse" id="clipPath547"><path d="M 0,500 H 500 V 0 H 0 Z" transform="translate(-378.89751,-133.4639)" id="path547" /></clipPath><clipPath clipPathUnits="userSpaceOnUse" id="clipPath549"><path d="M 0,500 H 500 V 0 H 0 Z" transform="translate(-391.97171,-136.3086)" id="path549" /></clipPath><clipPath clipPathUnits="userSpaceOnUse" id="clipPath551"><path d="M 0,500 H 500 V 0 H 0 Z" transform="translate(-398.54881,-133.02641)" id="path551" /></clipPath><clipPath clipPathUnits="userSpaceOnUse" id="clipPath553"><path d="M 0,500 H 500 V 0 H 0 Z" transform="translate(-407.65531,-128.1602)" id="path553" /></clipPath><clipPath clipPathUnits="userSpaceOnUse" id="clipPath555"><path d="M 0,500 H 500 V 0 H 0 Z" transform="translate(-419.66311,-123.8027)" id="path555" /></clipPath><clipPath clipPathUnits="userSpaceOnUse" id="clipPath557"><path d="M 0,500 H 500 V 0 H 0 Z" transform="translate(-429.65331,-121.5996)" id="path557" /></clipPath><rect x="14.549811" y="36.058228" width="60.729648" height="58.515546" id="rect27" /></defs><g id="Color" style="display:inline" transform="matrix(0.20542448,0,0,0.20542448,12.212384,-8.6657839)"><path id="color-region-0" d="M 453,270 L 435,273 L 421,291 L 416,312 L 419,347 L 465,299 L 465,281 Z" transform="matrix(0.2829271875,0,0,0.2829271875,307.4724240625,68.36034399999997)" style="fill:transparent;stroke:none" /><path id="color-region-1" d="M 337,291 L 337,304 L 360,313 L 354,297 L 348,291 Z" transform="matrix(0.2829271875,0,0,0.2829271875,307.4724240625,68.36034399999997)" style="fill:transparent;stroke:none" /><path id="color-region-2" d="M 507,374 L 500,369 L 487,368 L 471,377 L 459,392 L 449,418 L 470,409 L 501,402 L 510,390 Z" transform="matrix(0.2829271875,0,0,0.2829271875,307.4724240625,68.36034399999997)" style="fill:transparent;stroke:none" /><path id="color-region-3" d="M 323,380 L 321,397 L 330,410 L 372,423 L 391,435 L 384,410 L 364,380 L 344,371 L 332,373 Z" transform="matrix(0.2829271875,0,0,0.2829271875,307.4724240625,68.36034399999997)" style="fill:transparent;stroke:none" /><path id="color-region-4" d="M 182,588 L 145,625 L 109,678 L 82,743 L 69,810 L 69,880 L 79,933 L 99,988 L 132,1043 L 165,1019 L 195,1007 L 236,999 L 287,998 L 336,1005 L 385,1019 L 479,1060 L 543,1081 L 544,1060 L 552,1054 L 557,1054 L 566,1063 L 571,1101 L 582,1136 L 610,1183 L 629,1203 L 658,1224 L 685,1237 L 715,1245 L 751,1244 L 762,1236 L 764,1222 L 742,1174 L 730,1128 L 720,1104 L 697,1076 L 668,1058 L 665,1052 L 666,1044 L 674,1038 L 684,1039 L 713,1058 L 733,1080 L 803,1056 L 850,1028 L 898,986 L 934,939 L 954,890 L 969,826 L 979,819 L 1014,818 L 1036,814 L 1054,808 L 1078,794 L 1095,778 L 1108,760 L 1118,739 L 1124,717 L 1126,691 L 1095,704 L 1031,703 L 1004,715 L 974,748 L 965,749 L 956,740 L 954,709 L 940,679 L 919,661 L 885,643 L 870,628 L 861,612 L 847,637 L 840,663 L 839,697 L 843,716 L 852,738 L 866,759 L 885,778 L 909,794 L 916,802 L 917,810 L 910,830 L 888,854 L 862,865 L 838,866 L 822,862 L 805,853 L 779,826 L 758,788 L 718,691 L 693,650 L 667,617 L 614,570 L 575,546 L 542,531 L 496,517 L 450,509 L 411,507 L 356,511 L 295,525 L 257,540 L 217,562 Z" transform="matrix(0.2829271875,0,0,0.2829271875,307.4724240625,68.36034399999997)" style="fill:transparent;stroke:none" /><path id="color-region-5" d="M 166,763 L 157,772 L 157,786 L 167,795 L 180,795 L 189,785 L 189,773 L 179,763 Z" transform="matrix(0.2829271875,0,0,0.2829271875,307.4724240625,68.36034399999997)" style="fill:transparent;stroke:none" /><path id="color-region-6" d="M 418,763 L 407,771 L 404,784 L 413,797 L 428,799 L 437,793 L 440,776 L 432,765 Z" transform="matrix(0.2829271875,0,0,0.2829271875,307.4724240625,68.36034399999997)" style="fill:transparent;stroke:none" /><path id="color-region-7" d="M 313,944 L 290,939 L 272,941 L 254,949 L 244,958 L 263,963 L 279,962 L 301,953 Z" transform="matrix(0.2829271875,0,0,0.2829271875,307.4724240625,68.36034399999997)" style="fill:transparent;stroke:none" /><path id="color-region-8" d="M 144,1057 L 178,1094 L 231,1134 L 275,1158 L 331,1179 L 396,1194 L 465,1200 L 529,1198 L 584,1189 L 561,1149 L 546,1100 L 477,1078 L 365,1031 L 300,1017 L 234,1017 L 203,1023 L 181,1031 L 158,1044 Z" transform="matrix(0.2829271875,0,0,0.2829271875,307.4724240625,68.36034399999997)" style="fill:transparent;stroke:none" /><path id="color-region-9" d="M 892,1016 L 859,1043 L 816,1069 L 779,1085 L 743,1096 L 756,1134 L 796,1110 L 837,1078 L 875,1039 Z" transform="matrix(0.2829271875,0,0,0.2829271875,307.4724240625,68.36034399999997)" style="fill:transparent;stroke:none" /><path id="color-region-10" d="M 168,1117 L 161,1150 L 161,1183 L 167,1205 L 177,1218 L 195,1221 L 210,1216 L 238,1198 L 260,1178 L 214,1152 Z" transform="matrix(0.2829271875,0,0,0.2829271875,307.4724240625,68.36034399999997)" style="fill:transparent;stroke:none" /><path style="fill:transparent;stroke-width:0.0612676;stroke-opacity:1;stroke:none" d="m 20.554863,78.10301 c -0.02222,-0.05789 -1.883408,-7.051493 -4.135981,-15.541331 l -4.095587,-15.436068 1.618403,0.02133 1.618403,0.02133 2.598632,11.189121 c 2.177013,9.37372 3.206583,14.002923 3.504189,15.755706 l 0.05035,0.296532 h 0.541142 0.541142 l 0.05365,-0.296532 c 0.254432,-1.406273 2.026457,-8.016564 4.45682,-16.625532 l 2.913198,-10.319295 2.142544,-0.02103 2.142543,-0.02103 0.120927,0.416404 c 1.341058,4.617824 5.016435,17.787407 5.390542,19.315344 0.55908,2.283414 1.038664,4.61791 1.311757,6.385311 l 0.180221,1.166358 h 0.5308 0.530798 l 0.05217,-0.256994 c 0.370348,-1.824288 1.290367,-5.694273 3.661042,-15.399869 l 2.829613,-11.584496 1.568117,-0.02147 1.568116,-0.02147 -0.0454,0.179623 c -0.02497,0.09879 -1.94011,7.091772 -4.255869,15.539954 l -4.21047,15.360331 h -1.639563 c -1.492732,0 -1.643331,-0.01239 -1.681661,-0.138382 C 40.276174,77.60905 33.195167,51.967494 32.859898,50.706884 l -0.08938,-0.336069 h -0.513421 c -0.342089,0 -0.523391,0.03298 -0.543295,0.09884 -0.01643,0.05436 -0.194623,0.774936 -0.395984,1.60127 -0.201362,0.826335 -1.907052,7.035704 -3.790422,13.798599 l -3.42431,12.296172 -1.753915,0.02129 c -1.402244,0.01702 -1.762014,1.8e-4 -1.794307,-0.08398 z" id="path2" transform="matrix(4.867969,0,0,4.867969,-59.449507,42.184767)" /><path style="fill:transparent;stroke-width:0.122535;stroke-opacity:1;stroke:none" d="m 57.333615,72.79516 c -0.89938,-2.939272 -1.936315,-6.322686 -2.3043,-7.518696 l -0.669064,-2.174564 0.812447,0.0011 0.812446,0.0011 1.09292,3.992146 c 0.601105,2.19568 1.375732,5.010009 1.721393,6.254063 l 0.628474,2.261918 0.56281,-0.04782 c 0.540929,-0.04596 0.571054,-0.08163 0.774821,-0.917641 0.163208,-0.669605 2.609556,-9.833736 3.008024,-11.268197 0.06262,-0.225444 0.258154,-0.276762 1.054495,-0.276762 h 0.977615 l 1.797725,6.964078 c 0.988748,3.830243 1.846555,6.908239 1.906238,6.839992 0.08043,-0.09198 3.547285,-11.613305 4.070463,-13.527308 0.05778,-0.211374 0.243793,-0.276762 0.787327,-0.276762 0.600507,0 0.700132,0.04323 0.637772,0.276762 -0.04065,0.15222 -1.092242,3.532679 -2.33688,7.512131 l -2.262975,7.235368 h -0.990454 c -0.978828,0 -0.992352,-0.006 -1.152174,-0.513987 -0.317865,-1.010257 -2.534679,-9.547438 -2.730901,-10.516984 l -0.200045,-0.988438 h -0.583396 c -0.582006,0 -0.584026,0.0024 -0.84771,0.988438 -0.145373,0.543641 -0.855121,3.230217 -1.577218,5.970167 l -1.312904,4.981729 -1.020856,0.0461 -1.020856,0.0461 z" id="path8" transform="matrix(4.867969,0,0,4.867969,-59.449507,42.184767)" /><path style="fill:transparent;stroke-width:0.346582;stroke-opacity:1;stroke:none" d="M 2.9075547,59.7167 V 2.6838966 H 79.398608 155.88966 V 59.7167 116.7495 H 79.398608 2.9075547 Z m 25.7282843,6.95674 c 1.964006,-7.121858 3.659004,-12.707718 3.766662,-12.413022 0.107658,0.294692 1.735782,6.071341 3.618053,12.836997 l 3.42231,12.301193 2.644373,0.124895 2.644373,0.124895 4.420306,-16.228275 c 2.431168,-8.925553 4.515952,-16.47989 4.632849,-16.787419 0.156645,-0.412093 -0.55919,-0.559146 -2.721847,-0.559146 h -2.934385 l -0.416353,1.507907 c -0.228994,0.829351 -1.579766,6.314565 -3.001711,12.189364 L 42.125113,70.452286 41.514727,67.768389 C 40.911313,65.115152 38.135837,54.959546 36.405601,49.073842 l -0.89323,-3.038483 -3.194959,0.130929 -3.194959,0.130928 -3.241404,11.406561 C 24.098276,63.977385 22.610063,69.512922 22.573909,70.00497 22.490422,71.141189 21.889772,68.844399 18.976744,56.25 L 16.62298,46.073558 h -2.831868 c -1.743988,0 -2.831868,0.187133 -2.831868,0.487126 0,0.267919 1.945793,7.816376 4.323983,16.774355 l 4.323983,16.287227 h 2.728855 2.728854 z m 33.914635,10.821149 c 0.34752,-1.170219 0.890579,-3.283788 1.206801,-4.696819 0.632335,-2.825566 1.075593,-3.214807 1.524851,-1.339023 0.162045,0.676566 0.709148,2.790134 1.215787,4.696819 l 0.921167,3.4667 h 1.944711 1.944712 l 2.281052,-7.268887 c 1.254579,-3.997887 2.470974,-7.852477 2.703105,-8.565754 0.640561,-1.968303 0.572059,-2.058003 -1.571663,-2.058003 h -1.993711 l -1.36116,4.410912 c -0.748637,2.426006 -1.361156,4.640221 -1.361156,4.920478 0,0.280261 -0.164487,0.509564 -0.365529,0.509564 -0.201037,0 -0.726933,-1.533015 -1.168658,-3.406701 -1.611358,-6.835017 -1.385978,-6.434253 -3.618479,-6.434253 h -1.9794 l -0.668501,2.34841 c -0.367671,1.291625 -1.035053,3.709646 -1.483067,5.373375 l -0.814572,3.024966 -0.796093,-3.024966 c -0.437851,-1.663729 -1.098774,-4.08175 -1.468722,-5.373375 l -0.672629,-2.34841 h -2.234984 c -2.114892,0 -2.21769,0.05408 -1.913189,1.006461 0.969643,3.0327 5.106288,16.576689 5.106288,16.718735 0,0.0921 0.898019,0.167448 1.995594,0.167448 1.994323,0 1.995996,-0.0014 2.627445,-2.127677 z m 58.077826,0.940057 c 1.02346,-0.926226 1.03208,-1.908532 0.0352,-4.013539 -0.63031,-1.330985 -0.66587,-1.69242 -0.18252,-1.855431 0.33016,-0.111346 1.83985,-1.152743 3.35487,-2.314222 3.58671,-2.749719 6.95953,-7.668563 8.36674,-12.201879 l 1.05627,-3.402774 1.88898,-0.283272 c 3.53099,-0.529501 6.50566,-3.438094 7.09723,-6.939577 0.44835,-2.653761 -0.0365,-3.745093 -1.49637,-3.368365 -0.65235,0.168339 -2.51393,0.439633 -4.13684,0.602876 -1.62291,0.163243 -3.26664,0.559018 -3.65274,0.879501 -0.59343,0.492586 -0.74571,0.444966 -0.98467,-0.307938 -0.15547,-0.489848 -1.02789,-1.500484 -1.93871,-2.245857 -0.91082,-0.745372 -2.18454,-1.884461 -2.83048,-2.531308 -1.49909,-1.501182 -2.64259,-1.280402 -3.63351,0.701534 -1.68119,3.362545 -0.60408,8.546843 2.22006,10.685488 1.21408,0.919387 1.22373,0.960679 0.37764,1.61444 -2.12761,1.643985 -3.86496,0.197607 -6.04121,-5.02943 -1.84709,-4.436435 -3.61215,-7.20184 -6.00371,-9.406299 -4.21236,-3.882824 -8.52231,-5.469886 -14.854448,-5.469886 -9.988707,0 -17.286333,4.996477 -20.365121,13.94342 -1.294166,3.760845 -1.326663,9.729563 -0.07413,13.613121 0.783425,2.429034 3.645873,7.419364 4.590676,8.003286 0.195974,0.121115 0.167569,1.060278 -0.06312,2.08702 -0.464417,2.066976 -0.178873,4.099111 0.791239,5.630985 0.95642,1.510251 3.176853,1.332716 5.78153,-0.462252 l 2.131242,-1.468713 3.173564,0.823196 c 2.491909,0.646381 4.471998,0.795055 9.218698,0.69219 5.64807,-0.122403 6.13714,-0.06551 7.44565,0.866241 2.02744,1.443659 3.23001,1.837472 5.70858,1.869393 1.45317,0.01872 2.47939,-0.223256 3.01939,-0.711949 z M 99.527833,31.826193 c 0,-1.385239 -0.965174,-3.80998 -1.949086,-4.896566 -0.692477,-0.764735 -1.323036,-0.993606 -2.464802,-0.894632 -3.168541,0.274662 -3.053451,3.578648 0.163351,4.689494 0.983528,0.339638 2.083447,0.912738 2.444265,1.273555 0.906799,0.906801 1.806272,0.821224 1.806272,-0.171851 z m 4.424907,-1.628795 c 1.85449,-0.552996 2.51131,-1.500547 2.12023,-3.058727 -0.3503,-1.3957 -1.97558,-1.964118 -3.41434,-1.194117 -1.13135,0.605482 -2.874266,4.225195 -2.50181,5.1958 0.21133,0.550716 0.41713,0.56431 1.26547,0.08359 0.5572,-0.315744 1.69591,-0.777689 2.53045,-1.026545 z m -2.28309,-4.750404 c 2.60447,-2.851811 2.46769,-5.317769 -0.29497,-5.317769 -1.886542,0 -2.74148,1.195928 -2.74148,3.83493 0,2.43989 0.340198,3.902784 0.854982,3.67652 0.163588,-0.0719 1.145248,-1.059061 2.181468,-2.193681 z m -3.931082,-0.777859 c 0,-1.170123 -1.090328,-3.199787 -1.848118,-3.440299 -2.123016,-0.67382 -2.945921,2.033593 -0.947607,3.117696 1.368371,0.742354 2.795725,0.907059 2.795725,0.322603 z" id="path10" transform="matrix(4.867969,0,0,4.867969,-59.449507,42.184767)" /></g><g id="Outline" style="display:inline" transform="matrix(0.20542448,0,0,0.20542448,12.212384,-8.6657839)"><rect style="display:inline;fill:none;stroke:#000000;stroke-width:1.33306;stroke-dasharray:none;stroke-opacity:1" id="rect1" width="154.88843" height="115.74319" x="2.0926507" y="1.7971287" transform="matrix(4.8679691,0,0,4.8679691,-59.449507,42.184767)" ns2:label="CardBoundary" /><path style="font-size:22.325px;font-family:'Comic Sans MS';-inkscape-font-specification:'Comic Sans MS';display:inline;fill:#000000;fill-opacity:1;stroke:none;stroke-width:6.43992;stroke-opacity:1" d="m 511.50571,584.74849 q 0,0.38153 -0.67585,1.11189 -0.50144,0.50144 -0.99198,1.00288 -1.21,1.37351 -1.89675,3.92431 -0.59955,2.22378 -0.59955,4.37126 0,5.53764 2.5072,8.12115 0.50144,0.39243 1.01378,0.78486 0.63225,0.50144 0.63225,0.99198 0,0.35973 -0.28342,0.62135 -0.28342,0.27253 -0.65405,0.27253 -0.32703,0 -0.78487,-0.25072 -4.61107,-2.58351 -4.61107,-10.79187 0,-2.95414 1.1882,-5.98459 1.3299,-3.36837 3.48828,-4.88359 0.43603,-0.30523 0.68675,-0.30523 0.39244,0 0.68676,0.31613 0.29432,0.30522 0.29432,0.69766 z m 7.03107,17.17978 q -2.23468,0 -3.7281,-1.35171 -1.56973,-1.41711 -1.56973,-3.739 0,-2.21288 1.47162,-4.56747 1.63513,-2.61621 3.6845,-2.61621 1.06828,0 2.38729,0.50144 1.66784,0.64315 1.66784,1.56973 0,0.41423 -0.27253,0.74126 -0.27252,0.31612 -0.67585,0.31612 -0.31613,0 -0.55595,-0.18531 -0.22891,-0.19622 -0.44693,-0.38153 -0.64315,-0.51234 -2.10387,-0.51234 -1.11189,0 -2.20198,1.98396 -0.99198,1.82044 -0.99198,3.15035 0,1.43892 0.98108,2.26738 0.91567,0.77397 2.35459,0.77397 0.65405,0 1.39531,-0.34883 l 1.2645,-0.67586 q 0.32703,-0.17441 0.46874,-0.17441 0.40333,0 0.69766,0.32703 0.29432,0.31612 0.29432,0.73035 0,0.79577 -1.67873,1.53703 -1.47162,0.65405 -2.4418,0.65405 z m 12.61232,-7.02016 q 0,8.20836 -4.62198,10.79187 -0.44693,0.25072 -0.77396,0.25072 -0.37063,0 -0.65405,-0.27253 -0.28342,-0.26162 -0.28342,-0.62135 0,-0.49054 0.63225,-0.99198 0.50144,-0.39243 1.01378,-0.78486 2.5072,-2.58351 2.5072,-8.12115 0,-2.14748 -0.59955,-4.37126 -0.69765,-2.5508 -1.89675,-3.92431 -0.50144,-0.50144 -0.99198,-1.00288 -0.67586,-0.73036 -0.67586,-1.11189 0,-0.39244 0.28343,-0.69766 0.29432,-0.31613 0.68675,-0.31613 0.25072,0 0.69766,0.30523 2.15837,1.51522 3.48828,4.88359 1.1882,3.03045 1.1882,5.98459 z m 24.97391,7.23818 q -0.58865,0 -0.97018,-0.61045 -0.32703,-0.52324 -0.58865,-1.74414 l -0.39243,-1.87495 q -0.44693,-1.74414 -1.41711,-7.69602 l -2.18018,6.57323 -0.64315,2.07116 q -0.39243,1.2318 -0.81757,2.01667 -0.45783,0.82846 -1.2318,0.82846 -0.64315,0 -1.01378,-0.69765 -0.23982,-0.45784 -0.43603,-1.1664 l -0.31613,-1.20999 q -1.10099,-3.84801 -1.94035,-8.24107 l -0.39244,1.95126 -1.40621,5.75566 q -0.0872,1.01378 -0.54504,2.99774 -0.32703,0.85027 -1.07919,0.85027 -0.53414,0 -0.85027,-0.38153 -0.27252,-0.32702 -0.27252,-0.80666 0,-1.82045 0.75216,-4.46936 l 1.1991,-4.39306 0.63225,-3.43377 q 0.47964,-2.4091 1.01378,-3.15036 0.43603,-0.63225 1.07919,-0.63225 0.70855,0 1.05738,0.80667 0.42514,0.97017 0.91568,3.95701 0.57774,3.58639 1.79864,7.76143 1.61333,-4.19684 2.79063,-8.7425 l 0.32702,-1.59153 q 0.19622,-0.95928 0.51234,-1.54793 0.42514,-0.80666 1.1664,-0.80666 0.93747,0 1.42801,1.80954 0.17442,0.62135 0.42514,2.57261 0.64315,4.9272 1.60243,8.41548 l 0.53414,1.87495 q 0.41423,1.50432 0.41423,1.85315 0,0.46874 -0.35973,0.78486 -0.34882,0.31613 -0.79576,0.31613 z m 12.02367,-0.18532 q -0.20711,0 -0.75216,-0.47963 -0.49054,-0.44694 -0.73036,-0.79577 -1.04648,0.56685 -1.84225,0.85027 -0.79576,0.29432 -1.3299,0.29432 -2.55081,0 -3.7172,-1.43891 -1.10099,-1.35171 -1.10099,-4.14234 0,-2.63801 1.80954,-4.51296 1.82045,-1.87495 4.33855,-1.87495 0.94838,0 2.12568,0.49054 1.48252,0.61045 1.48252,1.47162 0,0.29432 -0.21802,0.52324 -0.10901,0.41423 -0.17442,1.36261 -0.0545,0.94838 -0.0654,2.43089 -0.0109,1.35171 0.18531,2.13658 0.10901,0.47964 0.68676,1.91855 0.0763,0.19622 0.25072,0.57775 l 0.0654,0.18531 q 0,0.43604 -0.30522,0.71946 -0.30522,0.28342 -0.70856,0.28342 z m -2.26738,-7.57611 q 0,-0.46873 0.0545,-1.01378 0.0654,-0.55594 0.18532,-1.17729 -0.40333,-0.20712 -0.69766,-0.30523 -0.28342,-0.0981 -0.45783,-0.0981 -1.68964,0 -2.92144,1.38442 -1.2209,1.37351 -1.2209,3.17215 0,1.78775 0.63225,2.68162 0.63225,0.89387 1.89676,0.89387 1.04648,0 1.77684,-0.38153 0.39243,-0.20712 1.10099,-0.82847 -0.34883,-2.88873 -0.34883,-4.32765 z m 14.14934,2.15838 -0.25072,3.66269 q -0.0654,2.18018 -0.44694,3.56459 -0.49054,1.76594 -1.56972,2.60531 -1.30811,1.01378 -3.78261,1.01378 -1.44982,0 -2.4309,-0.19621 -1.37351,-0.27253 -1.37351,-1.1337 0,-0.97017 0.94838,-0.97017 0.39243,0 1.30811,0.18531 0.91567,0.19622 2.02756,0.17442 2.09297,-0.0327 2.88873,-2.02757 0.52324,-1.32991 0.55595,-4.08783 -0.58865,1.09009 -1.40622,1.63513 -0.80666,0.54505 -1.85315,0.54505 -1.97306,0 -3.21576,-1.34081 -1.2318,-1.35171 -1.2318,-3.49918 0,-2.94324 1.68964,-4.74188 1.74414,-1.85315 4.75278,-1.85315 1.01379,0 1.70054,0.26162 0.68676,0.26162 1.04649,0.78486 1.16639,0.0327 1.16639,1.2972 0,0.77397 -0.22892,2.07117 -0.25072,1.50432 -0.29432,2.04937 z m -3.49918,-4.72008 q -2.07117,0 -3.20486,1.42801 -1.01378,1.28631 -1.01378,3.27027 0,1.58062 0.59954,2.37639 0.59955,0.79576 1.79865,0.79576 1.10099,0 2.13657,-1.2427 0.93748,-1.14459 1.06829,-2.26738 0.22892,-1.1773 0.49054,-3.6954 -0.43604,-0.33793 -0.90478,-0.50144 -0.46873,-0.16351 -0.97017,-0.16351 z m 8.45908,-4.38216 q -0.52324,0 -0.90477,-0.37063 -0.38153,-0.37063 -0.38153,-0.89387 0,-0.52324 0.38153,-0.89387 0.38153,-0.37063 0.90477,-0.37063 0.52324,0 0.89387,0.37063 0.38153,0.37063 0.38153,0.89387 0,0.52324 -0.38153,0.89387 -0.37063,0.37063 -0.89387,0.37063 z m 0.49054,8.85152 q 0,0.65405 0.0327,1.96216 0.0436,1.2972 0.0436,1.95125 0,0.47964 -0.29433,0.78487 -0.29432,0.30522 -0.77396,0.30522 -0.46874,0 -0.77396,-0.30522 -0.29433,-0.30523 -0.29433,-0.78487 0,-0.65405 -0.0436,-1.95125 -0.0327,-1.30811 -0.0327,-1.96216 0,-1.02469 0.10901,-2.55081 0.10901,-1.53702 0.10901,-2.56171 0,-0.49054 0.29432,-0.79576 0.30522,-0.30522 0.77396,-0.30522 0.46874,0 0.76306,0.30522 0.30523,0.30522 0.30523,0.79576 0,1.02469 -0.10901,2.56171 -0.10901,1.52612 -0.10901,2.55081 z m 8.61169,5.63575 q -2.23468,0 -3.7281,-1.35171 -1.56972,-1.41711 -1.56972,-3.739 0,-2.21288 1.47161,-4.56747 1.63514,-2.61621 3.6845,-2.61621 1.06829,0 2.38729,0.50144 1.66784,0.64315 1.66784,1.56973 0,0.41423 -0.27252,0.74126 -0.27253,0.31612 -0.67586,0.31612 -0.31612,0 -0.55594,-0.18531 -0.22892,-0.19622 -0.44694,-0.38153 -0.64315,-0.51234 -2.10387,-0.51234 -1.11189,0 -2.20198,1.98396 -0.99198,1.82044 -0.99198,3.15035 0,1.43892 0.98108,2.26738 0.91568,0.77397 2.35459,0.77397 0.65406,0 1.39532,-0.34883 l 1.2645,-0.67586 q 0.32702,-0.17441 0.46874,-0.17441 0.40333,0 0.69765,0.32703 0.29433,0.31612 0.29433,0.73035 0,0.79577 -1.67874,1.53703 -1.47162,0.65405 -2.4418,0.65405 z m 9.52737,-7.08557 q -0.30522,0 -1.3299,-0.14171 -0.0872,1.64603 -0.0872,5.76656 0,0.43604 -0.28342,0.74126 -0.28343,0.29433 -0.70856,0.29433 -0.43604,0 -0.71946,-0.29433 -0.28342,-0.30522 -0.28342,-0.74126 v -3.20485 q 0,-1.60243 0.19621,-4.51297 0.21802,-3.15035 0.23982,-4.51296 v -1.50432 q 0,-1.07919 0.13081,-1.56973 0.25073,-0.95928 1.06829,-0.82847 0.34883,-0.10901 0.99198,-0.16351 0.64315,-0.0545 1.58063,-0.0545 1.99486,0 3.739,1.36261 1.91855,1.50433 1.91855,3.6191 0,2.70341 -2.04936,4.30584 -1.83135,1.43892 -4.40396,1.43892 z m 0.54505,-8.6553 q -0.47964,0 -0.86117,0.0218 -0.37063,0.0218 -0.63225,0.0654 l -0.0218,2.00576 -0.22892,4.33855 1.19909,0.14171 q 1.83135,0 3.08495,-0.92657 1.37351,-1.01378 1.37351,-2.73612 0,-1.2209 -1.3081,-2.10387 -1.21,-0.80667 -2.60531,-0.80667 z m 13.17916,15.55556 q -2.4636,0 -3.98972,-1.2318 -1.66783,-1.36261 -1.66783,-3.81531 0,-2.83423 1.37351,-4.75278 1.49342,-2.09297 3.98972,-2.09297 1.80954,0 2.95414,0.61045 1.40621,0.75216 1.40621,2.31098 0,1.09009 -1.2318,1.98396 -0.54504,0.39243 -2.31099,1.2209 l -4.16413,1.97306 q 0.61045,0.90477 1.51522,1.36261 0.91567,0.45784 2.12567,0.45784 0.75216,0 1.76594,-0.28343 1.28631,-0.35972 1.65694,-0.93747 0.37063,-0.58865 0.79576,-0.58865 0.38153,0 0.67586,0.29433 0.30522,0.28342 0.30522,0.66495 0,1.21 -1.95126,2.08207 -1.66783,0.74126 -3.24846,0.74126 z m -0.29432,-9.9307 q -1.32991,0 -2.21288,1.03558 -0.88297,1.02468 -1.31901,3.09585 l 3.34657,-1.59153 q 1.97306,-0.95928 2.81243,-1.66783 -0.93747,-0.87207 -2.62711,-0.87207 z m 15.79537,10.20322 q -0.93748,0 -1.05739,-1.02468 l -0.30522,-2.3873 q -0.15261,-1.2754 -0.15261,-2.38729 0,-0.30522 0.0327,-1.03558 0.0436,-0.73036 0.0436,-1.03559 0,-2.35459 -0.87207,-2.35459 -1.2209,0 -2.33279,1.44982 -1.00288,1.31901 -1.56972,3.33567 -0.0218,0.42513 -0.0981,1.06829 -0.0654,0.54504 -0.0654,1.05738 0,0.32703 0.0654,0.98108 0.0654,0.65405 0.0654,0.98108 0,0.49054 -0.30522,0.79576 -0.29432,0.30523 -0.76306,0.30523 -0.47964,0 -0.77396,-0.30523 -0.29433,-0.30522 -0.29433,-0.79576 0,-0.32703 -0.0763,-0.98108 -0.0654,-0.65405 -0.0654,-0.98108 0,-1.12279 0.15261,-3.10675 0.16352,-1.99486 0.16352,-3.11765 0,-0.34883 -0.0436,-1.03558 -0.0327,-0.68676 -0.0327,-1.03559 0,-0.46874 0.30522,-0.76306 0.31613,-0.30522 0.77397,-0.30522 1.00288,0 1.10099,1.41711 l 0.0327,1.2754 q 1.83135,-2.44179 3.7608,-2.44179 1.74414,0 2.4309,1.53702 0.46874,1.02468 0.51234,3.03044 v 1.10099 l -0.0109,1.01379 q 0,0.90477 0.22892,2.34368 0.23982,1.42802 0.23982,2.32189 0,0.47964 -0.31613,0.77396 -0.30522,0.30523 -0.77396,0.30523 z m 8.25196,-0.0872 q -2.23468,0 -3.7281,-1.35171 -1.56973,-1.41711 -1.56973,-3.739 0,-2.21288 1.47162,-4.56747 1.63513,-2.61621 3.6845,-2.61621 1.06828,0 2.38729,0.50144 1.66783,0.64315 1.66783,1.56973 0,0.41423 -0.27252,0.74126 -0.27252,0.31612 -0.67585,0.31612 -0.31613,0 -0.55595,-0.18531 -0.22892,-0.19622 -0.44693,-0.38153 -0.64316,-0.51234 -2.10387,-0.51234 -1.11189,0 -2.20198,1.98396 -0.99198,1.82044 -0.99198,3.15035 0,1.43892 0.98108,2.26738 0.91567,0.77397 2.35459,0.77397 0.65405,0 1.39531,-0.34883 l 1.2645,-0.67586 q 0.32703,-0.17441 0.46874,-0.17441 0.40333,0 0.69766,0.32703 0.29432,0.31612 0.29432,0.73035 0,0.79577 -1.67873,1.53703 -1.47162,0.65405 -2.4418,0.65405 z m 8.6226,-14.48727 q -0.52325,0 -0.90478,-0.37063 -0.38153,-0.37063 -0.38153,-0.89387 0,-0.52324 0.38153,-0.89387 0.38153,-0.37063 0.90478,-0.37063 0.52324,0 0.89387,0.37063 0.38153,0.37063 0.38153,0.89387 0,0.52324 -0.38153,0.89387 -0.37063,0.37063 -0.89387,0.37063 z m 0.49054,8.85152 q 0,0.65405 0.0327,1.96216 0.0436,1.2972 0.0436,1.95125 0,0.47964 -0.29432,0.78487 -0.29433,0.30522 -0.77396,0.30522 -0.46874,0 -0.77397,-0.30522 -0.29432,-0.30523 -0.29432,-0.78487 0,-0.65405 -0.0436,-1.95125 -0.0327,-1.30811 -0.0327,-1.96216 0,-1.02469 0.10901,-2.55081 0.10901,-1.53702 0.10901,-2.56171 0,-0.49054 0.29433,-0.79576 0.30522,-0.30522 0.77396,-0.30522 0.46874,0 0.76306,0.30522 0.30522,0.30522 0.30522,0.79576 0,1.02469 -0.109,2.56171 -0.10901,1.52612 -0.10901,2.55081 z m 6.45332,-3.61909 -0.16351,5.41773 q 0,0.86117 -0.0872,2.52901 -0.10901,1.09008 -1.06828,1.09008 -1.06829,0 -1.06829,-1.11189 0,-1.319 0.11991,-3.95701 0.11991,-2.64892 0.11991,-3.96792 0,-1.72234 0.0545,-3.93522 0.0545,-2.22378 0.0545,-3.94612 0,-1.09009 1.06828,-1.09009 1.07919,0 1.07919,1.09009 0,1.72234 -0.0545,3.94612 -0.0545,2.21288 -0.0545,3.93522 z m 4.74188,9.58187 q -0.56685,0 -0.95928,-0.39243 -0.39243,-0.39244 -0.39243,-0.95928 0,-0.55595 0.39243,-0.94838 0.39243,-0.40333 0.95928,-0.40333 0.55594,0 0.94838,0.40333 0.40333,0.39243 0.40333,0.94838 0,0.56684 -0.40333,0.95928 -0.39244,0.39243 -0.94838,0.39243 z m 11.48953,-16.34042 q -2.63802,0 -2.95414,3.6627 l -0.0327,0.67585 q 1.85315,-0.13081 2.3982,-0.13081 1.73324,0 1.73324,1.09009 0,0.79576 -0.85027,0.94837 -0.37063,0.0654 -0.87207,0.0545 -0.49054,-0.0218 -2.5072,0.14171 l -0.0872,2.4854 q 0,0.67585 0.0436,2.02756 0.0436,1.35171 0.0436,2.01667 0,2.07116 -0.23982,3.22666 -0.18532,0.87207 -1.01378,0.87207 -0.44694,0 -0.76307,-0.29433 -0.31612,-0.28342 -0.31612,-0.71945 0,-0.0872 0.0218,-0.21802 0.22892,-1.41712 0.22892,-3.08495 l -0.0327,-2.97594 v -3.16126 q -1.36261,0.10901 -1.72234,0.10901 -1.10099,0 -1.10099,-1.05738 0,-1.07919 1.90765,-1.13369 l 1.04649,-0.0327 q 0.0327,-0.61045 0.16351,-1.65693 0.28342,-2.42 1.2209,-3.56459 1.13369,-1.38441 3.54278,-1.38441 1.55883,0 1.55883,1.05739 0,1.04648 -1.41711,1.04648 z m 12.91755,8.96052 q 0,0.78487 0.0109,2.35459 0.0109,1.56973 0.0109,2.35459 0,0.23982 0.0327,0.73036 0.0436,0.49054 0.0436,0.73036 0,0.46874 -0.31612,0.76306 -0.31613,0.30523 -0.77396,0.30523 -0.83937,0 -1.06829,-1.03559 -1.36261,0.70856 -3.13945,0.70856 -1.42802,0 -2.36549,-0.63225 -1.03559,-0.69766 -1.2318,-2.03847 -0.42514,-2.88873 -0.42514,-5.14521 0,-1.49342 0.32703,-3.40107 0.15261,-0.94838 1.03558,-0.94838 0.46874,0 0.78487,0.30522 0.31612,0.29433 0.31612,0.76306 0,0.50145 -0.16351,1.60243 -0.15261,1.10099 -0.15261,1.67874 0,1.82045 0.11991,3.11765 0.1199,1.29721 0.35972,2.08207 0.35973,0.19621 0.70856,0.30522 0.34883,0.0981 0.68676,0.0981 1.46071,0 3.08495,-0.46874 l -0.0109,-2.21287 -0.0218,-2.11478 q 0,-2.35459 0.20712,-4.08783 0.11991,-1.00288 1.05738,-1.00288 0.46874,0 0.78487,0.30523 0.31612,0.30522 0.29432,0.76306 z m 11.07529,7.14008 q -0.93748,0 -1.05739,-1.02468 l -0.30522,-2.3873 q -0.15261,-1.2754 -0.15261,-2.38729 0,-0.30522 0.0327,-1.03558 0.0436,-0.73036 0.0436,-1.03559 0,-2.35459 -0.87207,-2.35459 -1.2209,0 -2.33279,1.44982 -1.00288,1.31901 -1.56972,3.33567 -0.0218,0.42513 -0.0981,1.06829 -0.0654,0.54504 -0.0654,1.05738 0,0.32703 0.0654,0.98108 0.0654,0.65405 0.0654,0.98108 0,0.49054 -0.30523,0.79576 -0.29432,0.30523 -0.76306,0.30523 -0.47964,0 -0.77396,-0.30523 -0.29433,-0.30522 -0.29433,-0.79576 0,-0.32703 -0.0763,-0.98108 -0.0654,-0.65405 -0.0654,-0.98108 0,-1.12279 0.15261,-3.10675 0.16352,-1.99486 0.16352,-3.11765 0,-0.34883 -0.0436,-1.03558 -0.0327,-0.68676 -0.0327,-1.03559 0,-0.46874 0.30523,-0.76306 0.31612,-0.30522 0.77396,-0.30522 1.00288,0 1.10099,1.41711 l 0.0327,1.2754 q 1.83135,-2.44179 3.7608,-2.44179 1.74414,0 2.4309,1.53702 0.46874,1.02468 0.51234,3.03044 v 1.10099 l -0.0109,1.01379 q 0,0.90477 0.22892,2.34368 0.23982,1.42802 0.23982,2.32189 0,0.47964 -0.31613,0.77396 -0.30522,0.30523 -0.77396,0.30523 z" id="text1" aria-label="(c) MagicPencil.fun" ns2:label="websitetext" /><text xml:space="preserve" id="text3" style="font-style:normal;font-variant:normal;font-weight:normal;font-stretch:normal;font-size:12px;font-family:Arial;-inkscape-font-specification:Arial;text-align:start;writing-mode:lr-tb;direction:ltr;white-space:pre;shape-inside:url(#rect3);display:inline;fill:#000000;stroke-width:5" transform="matrix(4.867969,0,0,4.867969,562.60536,28.327109)" ns2:label="ImageTitle"><tspan x="-34.792969" y="100.63913" id="tspan1">Whale</tspan></text><g id="text27" style="font-size:48px;font-family:'Comic Sans MS';-inkscape-font-specification:'Comic Sans MS';white-space:pre;fill:none;stroke:#000000;stroke-width:0.890761" ns2:label="Letter" transform="matrix(5.4649548,0,0,5.4649548,-85.031275,0.67005549)" aria-label="Ww"><path style="font-size:40px;font-family:Arial;-inkscape-font-specification:Arial" d="M 22.636719,77.764316 15.039063,49.131503 h 3.886718 l 4.355469,18.769532 q 0.703125,2.949218 1.210937,5.859375 1.09375,-4.589844 1.289063,-5.292969 l 5.449219,-19.335938 h 4.570312 l 4.101563,14.492188 q 1.542968,5.390625 2.226562,10.136719 0.546875,-2.714844 1.425781,-6.230469 l 4.492188,-18.398438 h 3.808594 L 44.003906,77.764316 H 40.351562 L 34.316406,55.94791 q -0.761719,-2.734375 -0.898437,-3.359375 -0.449219,1.972656 -0.839844,3.359375 l -6.074219,21.816406 z" id="path4" /><path style="font-size:28px;font-family:Arial;-inkscape-font-specification:Arial" d="M 56.830078,77.764316 52.386719,63.244785 h 2.542968 l 2.310547,8.380859 0.861328,3.117187 q 0.05469,-0.232421 0.751954,-2.99414 l 2.310546,-8.503906 h 2.529297 l 2.173828,8.421875 0.72461,2.77539 0.833984,-2.802734 2.488281,-8.394531 h 2.392579 l -4.539063,14.519531 h -2.556641 l -2.310546,-8.695313 -0.560547,-2.474609 -2.939453,11.169922 z" id="path6" /></g><path id="outline-0" d="m 716.5,1269.0122 c -38.09619,-5.4961 -77.15108,-24.6488 -106.33222,-52.1459 l -7.03999,-6.6337 -9.3139,1.9301 c -22.85344,4.7359 -44.37999,7.8225 -69.31389,9.9388 -18.02923,1.5302 -72.91772,1.5183 -91,-0.02 -47.73409,-4.0603 -92.51007,-13.6565 -134.13444,-28.7471 l -15.13445,-5.4869 -9.2165,9.1378 c -29.07323,28.8251 -63.27799,48.0458 -85.42457,48.0026 -19.83243,-0.039 -36.41462,-12.6504 -44.8794,-34.1334 -6.09904,-15.479 -8.54809,-36.0363 -6.71368,-56.3547 1.33009,-14.7324 5.03961,-34.3954 8.58378,-45.5 1.31655,-4.125 2.39947,-8.1992 2.40649,-9.0538 0.007,-0.8546 -1.60828,-3.1046 -3.58956,-5 -1.98128,-1.8954 -7.55433,-7.9842 -12.38455,-13.5307 C 96.03735,1038.9568 70.061288,989.79301 55.966226,935.59227 43.556451,887.87207 41.487037,833.87774 50.06041,781.5 61.184332,713.54005 88.926222,654.4279 133.22587,604.29186 161.93639,571.79878 202.73103,541.02952 242,522.24923 c 23.50979,-11.2435 56.99643,-22.91863 79,-27.54338 25.82364,-5.42766 35.562,-6.98692 55,-8.80634 16.98798,-1.59009 54.43502,-1.59898 71.5,-0.017 55.48385,5.1436 109.18505,22.30395 155.76046,49.77363 51.79914,30.55059 95.71313,75.42978 127.49271,130.2949 12.54706,21.66159 24.24267,47.49465 38.27852,84.54894 8.11517,21.42382 20.4081,47.69212 27.31627,58.37105 6.4616,9.98861 19.72156,23.51071 27.10264,27.63845 11.23828,6.2848 23.32068,7.98992 35.0893,4.95195 14.76334,-3.81104 25.59906,-11.8508 31.36402,-23.27111 l 3.08951,-6.12028 -6.24672,-4.20982 c -29.9439,-20.17996 -52.39733,-47.82456 -63.14905,-77.74896 -5.89183,-16.39824 -7.03109,-23.88691 -7.01498,-46.11128 0.0126,-17.42414 0.34453,-21.97647 2.21205,-30.34043 3.29556,-14.75968 7.64217,-26.80328 14.37373,-39.82687 C 843.65435,593.54564 852.57031,585 863.25062,585 c 9.91287,0 14.08097,3.5717 19.70724,16.88739 6.61766,15.66202 12.93657,21.54047 35.04214,32.59954 15.09464,7.5516 23.72552,13.4199 32.46126,22.07101 12.11429,11.99693 22.117,29.46703 25.70298,44.89118 0.70979,3.05298 1.5466,5.55088 1.85958,5.55088 0.31298,0 3.47315,-2.45848 7.02262,-5.46329 12.34702,-10.45242 26.48146,-17.12433 43.95356,-20.74756 7.8897,-1.6361 11.7883,-1.86809 23,-1.36865 43.6,1.94221 40.3365,1.96494 47.1613,-0.32858 5.9975,-2.01549 8.7952,-3.58417 18.7885,-10.53465 4.9391,-3.43517 14.0159,-4.64255 19.0927,-2.53967 4.7312,1.95973 9.703,8.48593 11.0499,14.50472 1.7312,7.73563 0.5826,34.60341 -1.9738,46.17199 -7.8203,35.38932 -26.8607,65.84906 -54.1374,86.60559 -10.6074,8.07184 -28.3828,17.04688 -42.9066,21.66412 -10.4032,3.30727 -26.7071,6.05039 -43.626,7.34003 l -15.81197,1.20526 -3.17436,15.49534 c -8.76445,42.78282 -27.04177,92.01513 -48.2408,129.94275 -37.39893,66.9112 -89.14909,118.9168 -158.72147,159.5048 -8.25,4.813 -15.44716,9.1749 -15.9937,9.693 -1.52158,1.4427 3.62833,15.1385 12.54206,33.3548 9.55398,19.5247 11.01188,23.7745 11.66357,34 1.2741,19.9914 -10.06198,34.6759 -32.21193,41.7265 -6.9147,2.201 -29.08488,3.2161 -39,1.7857 z m 32.64753,-23.4444 c 9.65061,-2.9289 13.28597,-6.0921 15.75539,-13.7093 1.73406,-5.3488 0.0758,-10.9162 -8.44673,-28.3585 -11.43421,-23.4014 -11.73696,-24.2657 -23.43149,-66.8929 -5.20373,-18.9678 -8.6415,-27.1562 -16.24956,-38.7048 -9.68172,-14.6961 -22.54992,-26.165 -39.59842,-35.2924 -6.12696,-3.2802 -8.05605,-4.8867 -9.55574,-7.9576 -3.42822,-7.0199 0.58653,-14.0003 8.82079,-15.3366 4.3018,-0.698 9.85356,1.8072 22.53601,10.1697 13.58936,8.9603 20.96699,15.26 28.21913,24.0961 4.22879,5.1523 6.76423,7.4185 8.29997,7.4185 3.80219,0 39.4492,-11.6206 51.50312,-16.7895 42.69872,-18.31 76.09527,-41.0708 107.22825,-73.07925 15.07386,-15.49778 22.43758,-24.47405 33.32175,-40.61878 10.22075,-15.16068 14.78085,-24.09231 20.80947,-40.75843 7.78694,-21.52703 12.13889,-37.67387 18.66555,-69.25404 3.97891,-19.25248 5.25395,-20.09829 31.47498,-20.87915 25.6071,-0.76258 44.5859,-5.00546 62.5446,-13.98246 29.7577,-14.8749 53.8928,-45.64882 61.6025,-78.54747 3.317,-14.15384 5.6302,-36.09092 3.8058,-36.09092 -0.3009,0 -3.7884,1.76455 -7.75,3.92122 -16.1092,8.76978 -28.8708,10.51681 -55.5129,7.59958 -22.2159,-2.43257 -33.517,-0.82301 -49.1905,7.006 -12.989,6.48808 -22.4003,15.12523 -33.28245,30.54462 -6.21102,8.80067 -10.45817,10.66517 -16.81093,7.38003 -5.46526,-2.82619 -6.89731,-6.65048 -6.90939,-18.45145 -0.022,-21.53219 -7.77216,-41.75113 -21.13062,-55.12668 -7.44466,-7.45419 -14.889,-12.40031 -32.06096,-21.30178 -7.8218,-4.0546 -16.57005,-9.18922 -19.44056,-11.41025 -7.19328,-5.56574 -15.56677,-16.00624 -18.99665,-23.68599 -1.57737,-3.53184 -3.10015,-6.43363 -3.38396,-6.44842 -0.91489,-0.0477 -6.90654,9.6817 -10.93944,17.76371 -9.49843,19.03499 -14.5367,46.96499 -12.12385,67.20941 1.64359,13.79013 5.34424,25.87285 12.09793,39.5 11.52531,23.25503 26.62379,39.47963 52.81637,56.7557 10.7188,7.06989 13.68238,11.18637 12.62045,17.53011 -6.44442,38.4976 -47.55899,63.81309 -87.12877,53.64785 -14.27649,-3.66755 -26.93378,-11.96882 -39.17654,-25.69389 C 773.88659,819.50709 762.92201,798.82241 746.44152,755.28348 720.01568,685.47042 696.13307,645.99319 656.07685,605.9134 646.95958,596.79077 634.775,585.59314 629,581.02978 572.47637,536.36523 507.73531,512.40875 431.17261,507.82665 404.65154,506.23943 378.41023,507.64209 351,512.11209 c -50.4891,8.23363 -92.32171,23.93998 -133.36399,50.07244 -73.41826,46.74691 -122.933169,119.19013 -142.042199,207.81608 -5.212535,24.17527 -6.805214,38.88704 -7.338007,67.78207 -0.695802,37.73555 1.271359,56.77202 9.167734,88.71732 9.990244,40.41619 26.253802,76.1871 50.374762,110.797 l 5.43401,7.7969 6.13385,-5.8615 c 31.16389,-29.7806 92.08525,-44.96113 155.63384,-38.7813 28.05121,2.7279 51.49786,7.7337 81.5,17.4003 10.79289,3.4774 41.0865,15.9927 73,30.1587 30.3223,13.4596 65.98224,26.9129 86,32.445 3.3,0.912 6.7398,1.8728 7.644,2.1353 1.47309,0.4275 1.58942,-0.5924 1.11898,-9.8099 l -0.52502,-10.287 3.21878,-3.1469 c 3.64236,-3.5611 6.18711,-4.3251 10.59843,-3.1821 5.9752,1.5484 7.46179,4.4351 9.00383,17.4843 3.41186,28.8721 9.58576,50.6559 20.93068,73.8512 10.15006,20.7524 20.59137,35.3634 36.1887,50.6405 23.83448,23.3452 55.5872,40.658 84.82162,46.2479 4.4,0.8414 8.9,1.721 10,1.9547 5.10664,1.085 26.28321,0.5493 30.64753,-0.7753 z M 259,979.02616 c -17.39204,-1.84792 -32.34803,-9.71089 -43.51532,-22.87776 -6.34575,-7.48202 -12.3953,-18.69914 -14.91116,-27.6484 -0.92771,-3.3 -1.91269,-6.77519 -2.18884,-7.72265 -0.27615,-0.94746 -3.20436,-3.16294 -6.50712,-4.92329 -9.2001,-4.9036 -11.87706,-9.55436 -8.37632,-14.55237 3.12935,-4.46778 6.44364,-3.97977 20.74897,3.05513 13.84816,6.81007 25.51023,10.6853 39.63078,13.16901 10.92101,1.92094 35.87522,1.91114 47.77436,-0.0188 C 306.22309,915.14434 333,906.4476 333,904.07893 c 0,-0.45511 -0.675,-2.74063 -1.5,-5.07893 -3.27998,-9.29644 -1.23425,-16.37016 5.08685,-17.58936 4.65733,-0.89829 7.90604,2.56617 9.87687,10.53282 2.36319,9.55265 8.48712,16.82958 16.44486,19.54106 8.85071,3.01574 11.68254,9.01527 6.63687,14.06093 -3.4074,3.40741 -7.89867,3.16218 -15.90733,-0.86856 l -6.60268,-3.32311 -4.20589,8.49031 C 326.15802,963.49837 293.45199,982.68672 259,979.02616 Z m 26.08597,-17.41009 c 9.9249,-3.07677 29.75625,-15.44432 28.36766,-17.6911 -1.43349,-2.31944 -12.30401,-4.34009 -23.45363,-4.35965 -12.54648,-0.022 -20.58802,1.61569 -29.21828,5.95043 C 255.5157,948.16072 244,956.77195 244,958.06481 c 0,0.9891 7.20132,3.71357 13,4.91828 5.91055,1.22795 22.28634,0.43089 28.08597,-1.36702 z m 114.2953,-99.56592 C 370.67998,857.56602 349.83994,834.69495 348.30858,806 c -1.46589,-27.46799 13.37445,-50.92682 38.41135,-60.71865 6.05214,-2.36697 8.17578,-2.65862 19.78007,-2.7165 10.19841,-0.0509 14.07576,0.32742 17.99176,1.75536 19.12553,6.97401 31.42177,19.77665 38.11027,39.67979 2.48328,7.38957 2.61807,28.1756 0.23019,35.5 -6.98774,21.43375 -21.44665,35.82048 -41.11661,40.91138 -7.72665,1.99977 -16.09401,2.61373 -22.33434,1.63877 z m 33.93366,-64.70388 c 7.98616,-5.61288 10.49194,-14.27532 6.68758,-23.1188 -3.13723,-7.29268 -7.7235,-10.55124 -15.55194,-11.04972 -11.23397,-0.71533 -19.31637,6.15878 -20.23265,17.20792 -1.2931,15.59315 16.38286,25.89644 29.09701,16.9606 z m -291.45889,55.74755 c -14.71973,-4.76152 -26.20046,-14.65846 -32.63551,-28.13338 -6.70391,-14.03789 -8.01746,-26.98925 -4.15633,-40.98054 6.41781,-23.25571 24.28867,-38.72017 47.9358,-41.481 18.22705,-2.12804 38.86231,8.39022 49.86866,25.41918 11.68595,18.08045 11.5941,44.4933 -0.21662,62.28691 -5.75215,8.66597 -13.53494,15.35049 -23.37944,20.08025 -8.59923,4.13146 -8.99987,4.21891 -20.2726,4.42452 -8.84868,0.1614 -12.80121,-0.21115 -17.14396,-1.61594 z m 40.56685,-58.49576 c 10.14673,-5.94638 11.34972,-19.97948 2.42443,-28.28145 -10.86647,-10.10758 -28.88139,-1.81506 -28.83087,13.27125 0.0457,13.66223 14.59475,21.93231 26.40644,15.0102 z M 393.65975,551.0128 c -19.44715,-3.50684 -28.35927,-10.28598 -23.20204,-17.64896 3.90601,-5.57661 22.18756,-9.64275 43.04229,-9.57337 16.14928,0.0537 27.44995,2.00605 34.97214,6.04187 12.32354,6.61184 9.00919,14.12284 -8.47262,19.2007 -6.08482,1.76743 -10.70638,2.24195 -24.49952,2.51547 -9.35,0.18542 -19.17811,-0.0557 -21.84025,-0.53571 z M 209.15219,1217.276 c 14.35434,-6.7267 29.94831,-17.8672 48.4251,-34.5953 l 4.8162,-4.3604 -12.94674,-6.8538 c -15.96953,-8.454 -32.92631,-18.6101 -45.44675,-27.2197 -9.96105,-6.8497 -30.81776,-23.1174 -32.98196,-25.7251 -2.50943,-3.0236 -3.58401,-1.4011 -5.78053,8.7283 -3.84564,17.7344 -4.6553,24.8103 -4.66281,40.75 -0.008,17.011 2.08839,28.3684 7.10654,38.5 6.30236,12.7244 11.25712,15.8098 24.3806,15.1821 7.4224,-0.355 9.69685,-0.9414 17.09035,-4.4061 z m 310.57905,-17.7805 c 25.63378,-2.0047 57.49311,-6.4165 65.02051,-9.0038 0.81793,-0.2812 -0.78188,-3.5273 -4.61622,-9.3667 -13.99183,-21.3084 -25.06653,-47.5305 -30.74586,-72.7985 l -1.82938,-8.1392 -10.53015,-2.7364 c -20.14555,-5.2352 -60.57518,-19.9635 -87.03014,-31.7047 -62.58172,-27.7748 -77.69896,-33.5415 -108,-41.1981 -47.07641,-11.8955 -100.53551,-12.2856 -139.53318,-1.0182 -11.02399,3.1851 -25.73001,9.3785 -34.71672,14.6208 -7.35073,4.2879 -23.7501,17.4873 -23.7501,19.1157 0,1.739 11.05199,14.6278 22,25.6563 31.2834,31.5136 76.40941,62.0275 117.55526,79.49 42.38603,17.9888 90.57903,30.5517 136.44474,35.5682 28.94179,3.1654 70.5448,3.7973 99.73124,1.5146 z m 248.42573,-70.6162 c 22.22296,-13.1508 44.73293,-28.9094 61.4917,-43.0487 10.84057,-9.1461 36.09513,-34.3651 44.95438,-44.8912 9.41077,-11.1813 21.46963,-27.2 20.90282,-27.7669 -0.24867,-0.2486 -3.30223,2.1983 -6.78569,5.4377 -14.3876,13.3795 -40.41947,32.0494 -60.14827,43.138 -20.44095,11.4889 -47.1037,22.6275 -74.00529,30.9164 -6.01335,1.8529 -11.06878,3.5042 -11.23428,3.6697 -0.1655,0.1655 1.23828,3.9505 3.11952,8.4111 3.16498,7.5045 5.76171,15.4325 8.51742,26.0046 0.6093,2.3375 1.4986,4.25 1.97623,4.25 0.47763,0 5.52279,-2.7543 11.21146,-6.1207 z M 401.5,469.26929 c -2.81192,-0.66891 -5.1142,-2.90943 -9.69367,-9.43361 -4.62641,-6.59106 -14.15691,-14.96617 -20.94539,-18.40615 -6.56463,-3.32655 -17.62794,-6.92916 -28.67778,-9.33853 -21.53118,-4.69476 -34.07835,-15.85803 -37.1933,-33.091 -3.85163,-21.30853 9.03828,-39.56985 30.33181,-42.97151 8.92667,-1.42604 17.91269,0.10285 27.6053,4.6968 9.87705,4.68136 22.6838,17.3295 29.05338,28.69355 11.02706,19.67354 19.00527,49.13341 19.01683,70.22038 0.004,7.26092 -3.69392,11.01057 -9.49718,9.63007 z m -11.98316,-44.98368 c -5.06808,-18.9574 -17.05515,-38.74377 -28.05822,-46.31408 -11.65894,-8.02156 -23.75184,-9.02354 -33.17529,-2.7488 -11.22216,7.47246 -9.79395,28.05823 2.487,35.84657 5.00965,3.17703 8.70921,4.41407 25.22967,8.43616 11.21835,2.73123 26.09624,9.41331 32.0057,14.37466 4.58363,3.84824 4.7769,2.62119 1.51114,-9.59451 z m 42.07205,19.63766 c -3.01499,-3.58311 -3.08148,-4.57082 -1.07847,-16.02119 6.01484,-34.38432 22.94877,-62.0191 44.04625,-71.87987 15.53844,-7.26253 35.6654,-3.99245 44.79265,7.27758 6.46214,7.97923 7.15068,10.1169 7.15068,22.20021 0,12.48503 -0.99187,15.25345 -8.52753,23.8013 -6.0562,6.86966 -13.6853,10.36196 -30.02429,13.74391 -20.10745,4.16197 -29.51121,8.36531 -41.53524,18.56561 -7.65542,6.4943 -10.88177,6.99759 -14.82405,2.31245 z m 22.40471,-26.92001 c 7.18837,-3.66723 14.39193,-5.87966 28.82911,-8.85429 17.9711,-3.70275 22.40546,-6.1053 26.54348,-14.38135 2.39341,-4.78684 2.75625,-6.46548 2.19971,-10.17674 -1.42359,-9.49318 -9.0767,-15.59955 -19.52779,-15.58111 -16.23086,0.0286 -33.05363,17.8749 -40.95048,43.44194 -1.1482,3.71743 -2.08763,6.93656 -2.08763,7.15363 0,0.74106 1.07961,0.3947 4.9936,-1.60208 z m -41.24267,-37.98454 c -3.29282,-2.59013 -5.31417,-7.83731 -8.24645,-21.4068 -6.76424,-31.3023 -5.39695,-56.97443 4.06699,-76.36163 7.32989,-15.01552 18.53793,-24.33717 32.745,-27.23379 15.06234,-3.07099 31.91969,5.52051 38.33762,19.53912 5.54793,12.11826 5.35838,22.77972 -0.62221,34.99701 -3.29473,6.73056 -11.2307,14.82703 -24.88492,25.3882 -14.11902,10.92068 -22.73017,22.04714 -27.65338,35.7309 -2.4993,6.94665 -6.14069,11.32827 -9.41449,11.32827 -0.99515,0 -2.94283,-0.89158 -4.32816,-1.98128 z m 17.32965,-44.44282 c 2.98068,-3.25825 10.62112,-10.06016 16.97874,-15.11535 6.35763,-5.05519 13.00075,-11.01119 14.7625,-13.23557 7.55287,-9.53628 8.07124,-20.11295 1.42425,-29.06012 -7.91917,-10.65958 -22.05199,-10.48937 -32.93804,0.39668 -12.0132,12.01319 -16.99476,34.89606 -13.2662,60.93846 1.58842,11.09448 1.7199,11.26465 4.87507,6.30966 1.50934,-2.37031 5.18299,-6.9755 8.16368,-10.23376 z m -66.1363,-0.1549 C 358.69355,330.48936 352.27099,327.45596 344,325.00121 334.25232,322.10819 330.32142,320.02053 325.79883,315.33473 320.94384,310.30455 319,305.3925 319,298.15424 c 0,-7.09068 1.83436,-11.85825 6.5863,-17.11809 4.90063,-5.4244 10.60717,-7.43414 19.33559,-6.80963 11.27349,0.80662 19.00749,6.65901 25.90723,19.60425 6.79301,12.745 10.09348,36.24394 5.76589,41.05252 -2.71418,3.01584 -8.27714,2.81255 -12.65073,-0.46229 z m -3.31181,-23.671 c -0.33964,-1.7875 -2.08339,-6.15759 -3.875,-9.71132 -2.54692,-5.05191 -4.28468,-7.09549 -7.96662,-9.36866 -3.28195,-2.02622 -5.44087,-2.72369 -7.12355,-2.30137 -3.94797,0.99088 -6.69079,3.89805 -7.30628,7.74407 -0.93255,5.8273 2.92421,9.21121 15.13898,13.28289 5.5,1.83337 10.39375,3.39438 10.875,3.4689 0.48125,0.0745 0.59711,-1.32701 0.25747,-3.11451 z" style="fill:#000000;stroke:none" transform="matrix(0.2829271875,0,0,0.2829271875,307.4724240625,68.36034399999997)" /></g></svg>