<?xml version='1.0' encoding='utf-8'?>
<svg xmlns="http://www.w3.org/2000/svg" xmlns:ns1="http://sodipodi.sourceforge.net/DTD/sodipodi-0.dtd" xmlns:ns2="http://www.inkscape.org/namespaces/inkscape" viewBox="0 0 158.75 119.0625" version="1.1" id="svg1" ns1:docname="X-Xylophone.svg" ns2:version="1.4.2 (f4327f4, 2025-05-13)" xml:space="preserve"><ns1:namedview id="namedview1" pagecolor="#ffffff" bordercolor="#000000" borderopacity="0.25" ns2:showpageshadow="2" ns2:pageopacity="0.0" ns2:pagecheckerboard="0" ns2:deskcolor="#d1d1d1" ns2:zoom="6.323106" ns2:cx="52.347691" ns2:cy="51.477865" ns2:window-width="1366" ns2:window-height="705" ns2:window-x="-8" ns2:window-y="-8" ns2:window-maximized="1" ns2:current-layer="Color" showgrid="false" /><defs id="defs1"><rect x="-34.793027" y="89.829271" width="65.790448" height="16.447613" id="rect3" /><rect x="14.549811" y="36.058228" width="60.729648" height="58.515546" id="rect2" /><clipPath clipPathUnits="userSpaceOnUse" id="clipPath3"><path d="M 0,500 H 500 V 0 H 0 Z" transform="translate(-432.53711,-135.74711)" id="path3" /></clipPath><clipPath clipPathUnits="userSpaceOnUse" id="clipPath5"><path d="M 0,500 H 500 V 0 H 0 Z" transform="translate(-151.34181,-199.4336)" id="path5" /></clipPath><clipPath clipPathUnits="userSpaceOnUse" id="clipPath7"><path d="M 0,500 H 500 V 0 H 0 Z" transform="translate(-151.34181,-199.4336)" id="path7" /></clipPath><clipPath clipPathUnits="userSpaceOnUse" id="clipPath9"><path d="M 0,500 H 500 V 0 H 0 Z" transform="translate(-182.0161,-196.83011)" id="path9" /></clipPath><clipPath clipPathUnits="userSpaceOnUse" id="clipPath11"><path d="M 0,500 H 500 V 0 H 0 Z" transform="translate(-270.2578,-262.13381)" id="path11" /></clipPath><clipPath clipPathUnits="userSpaceOnUse" id="clipPath13"><path d="M 0,500 H 500 V 0 H 0 Z" transform="translate(-270.2578,-262.13381)" id="path13" /></clipPath><clipPath clipPathUnits="userSpaceOnUse" id="clipPath15"><path d="M 0,500 H 500 V 0 H 0 Z" transform="translate(-270.73731,-316.68121)" id="path15" /></clipPath><clipPath clipPathUnits="userSpaceOnUse" id="clipPath17"><path d="M 0,500 H 500 V 0 H 0 Z" transform="translate(-243.895,-297.82131)" id="path17" /></clipPath><clipPath clipPathUnits="userSpaceOnUse" id="clipPath19"><path d="M 0,500 H 500 V 0 H 0 Z" transform="translate(-243.895,-297.82131)" id="path19" /></clipPath><clipPath clipPathUnits="userSpaceOnUse" id="clipPath21"><path d="M 0,500 H 500 V 0 H 0 Z" transform="translate(-227.96341,-327.47461)" id="path21" /></clipPath><clipPath clipPathUnits="userSpaceOnUse" id="clipPath23"><path d="M 0,500 H 500 V 0 H 0 Z" transform="translate(-150.6709,-325.02691)" id="path23" /></clipPath><clipPath clipPathUnits="userSpaceOnUse" id="clipPath25"><path d="M 0,500 H 500 V 0 H 0 Z" transform="translate(-150.6709,-325.02691)" id="path25" /></clipPath><clipPath clipPathUnits="userSpaceOnUse" id="clipPath27"><path d="M 0,500 H 500 V 0 H 0 Z" transform="translate(-115.0161,-334.36131)" id="path27" /></clipPath><clipPath clipPathUnits="userSpaceOnUse" id="clipPath29"><path d="M 0,500 H 500 V 0 H 0 Z" transform="translate(-104.1924,-244.44141)" id="path29" /></clipPath><clipPath clipPathUnits="userSpaceOnUse" id="clipPath31"><path d="M 0,500 H 500 V 0 H 0 Z" transform="translate(-104.1924,-244.44141)" id="path31" /></clipPath><clipPath clipPathUnits="userSpaceOnUse" id="clipPath33"><path d="M 0,500 H 500 V 0 H 0 Z" transform="translate(-79.019004,-177.8154)" id="path33" /></clipPath><clipPath clipPathUnits="userSpaceOnUse" id="clipPath35"><path d="M 0,500 H 500 V 0 H 0 Z" transform="translate(-105.8481,-187.5293)" id="path35" /></clipPath><clipPath clipPathUnits="userSpaceOnUse" id="clipPath37"><path d="M 0,500 H 500 V 0 H 0 Z" transform="translate(-120.3486,-245.5713)" id="path37" /></clipPath><clipPath clipPathUnits="userSpaceOnUse" id="clipPath39"><path d="M 0,500 H 500 V 0 H 0 Z" transform="translate(-43.031301,-294.82521)" id="path39" /></clipPath><clipPath clipPathUnits="userSpaceOnUse" id="clipPath41"><path d="M 0,500 H 500 V 0 H 0 Z" transform="translate(-140.2095,-138.87791)" id="path41" /></clipPath><clipPath clipPathUnits="userSpaceOnUse" id="clipPath43"><path d="M 0,500 H 500 V 0 H 0 Z" transform="translate(-140.2095,-138.87791)" id="path43" /></clipPath><clipPath clipPathUnits="userSpaceOnUse" id="clipPath45"><path d="M 0,500 H 500 V 0 H 0 Z" transform="translate(-131.71041,-136.21781)" id="path45" /></clipPath><clipPath clipPathUnits="userSpaceOnUse" id="clipPath47"><path d="M 0,500 H 500 V 0 H 0 Z" transform="translate(-95.863802,-329.88091)" id="path47" /></clipPath><clipPath clipPathUnits="userSpaceOnUse" id="clipPath49"><path d="M 0,500 H 500 V 0 H 0 Z" transform="translate(-99.722702,-346.67581)" id="path49" /></clipPath><clipPath clipPathUnits="userSpaceOnUse" id="clipPath51"><path d="M 0,500 H 500 V 0 H 0 Z" transform="translate(-99.596702,-349.59371)" id="path51" /></clipPath><clipPath clipPathUnits="userSpaceOnUse" id="clipPath53"><path d="M 0,500 H 500 V 0 H 0 Z" transform="translate(-75.429699,-348.79931)" id="path53" /></clipPath><clipPath clipPathUnits="userSpaceOnUse" id="clipPath55"><path d="M 0,500 H 500 V 0 H 0 Z" transform="translate(-52.736801,-378.31591)" id="path55" /></clipPath><clipPath clipPathUnits="userSpaceOnUse" id="clipPath57"><path d="M 0,500 H 500 V 0 H 0 Z" transform="translate(-71.700202,-397.00241)" id="path57" /></clipPath><clipPath clipPathUnits="userSpaceOnUse" id="clipPath59"><path d="M 0,500 H 500 V 0 H 0 Z" transform="translate(-49.381801,-362.78271)" id="path59" /></clipPath><clipPath clipPathUnits="userSpaceOnUse" id="clipPath61"><path d="M 0,500 H 500 V 0 H 0 Z" transform="translate(-75.429699,-348.79931)" id="path61" /></clipPath><clipPath clipPathUnits="userSpaceOnUse" id="clipPath63"><path d="M 0,500 H 500 V 0 H 0 Z" transform="translate(-52.736801,-378.31591)" id="path63" /></clipPath><clipPath clipPathUnits="userSpaceOnUse" id="clipPath65"><path d="M 0,500 H 500 V 0 H 0 Z" transform="translate(-87.7402,-374.77391)" id="path65" /></clipPath><clipPath clipPathUnits="userSpaceOnUse" id="clipPath67"><path d="M 0,500 H 500 V 0 H 0 Z" transform="translate(-90.202105,-372.51071)" id="path67" /></clipPath><clipPath clipPathUnits="userSpaceOnUse" id="clipPath69"><path d="M 0,500 H 500 V 0 H 0 Z" transform="translate(-43.860801,-338.97661)" id="path69" /></clipPath><clipPath clipPathUnits="userSpaceOnUse" id="clipPath71"><path d="M 0,500 H 500 V 0 H 0 Z" transform="translate(-62.706502,-345.08251)" id="path71" /></clipPath><clipPath clipPathUnits="userSpaceOnUse" id="clipPath73"><path d="M 0,500 H 500 V 0 H 0 Z" transform="translate(-32.944801,-364.06201)" id="path73" /></clipPath><clipPath clipPathUnits="userSpaceOnUse" id="clipPath75"><path d="M 0,500 H 500 V 0 H 0 Z" transform="translate(-32.363801,-386.02201)" id="path75" /></clipPath><clipPath clipPathUnits="userSpaceOnUse" id="clipPath77"><path d="M 0,500 H 500 V 0 H 0 Z" transform="translate(-42.559601,-382.52731)" id="path77" /></clipPath><clipPath clipPathUnits="userSpaceOnUse" id="clipPath79"><path d="M 0,500 H 500 V 0 H 0 Z" transform="translate(-72.010702,-416.37261)" id="path79" /></clipPath><clipPath clipPathUnits="userSpaceOnUse" id="clipPath81"><path d="M 0,500 H 500 V 0 H 0 Z" transform="translate(-88.275902,-375.45461)" id="path81" /></clipPath><clipPath clipPathUnits="userSpaceOnUse" id="clipPath83"><path d="M 0,500 H 500 V 0 H 0 Z" transform="translate(-125.0845,-367.83841)" id="path83" /></clipPath><clipPath clipPathUnits="userSpaceOnUse" id="clipPath85"><path d="M 0,500 H 500 V 0 H 0 Z" transform="translate(-88.761205,-375.09231)" id="path85" /></clipPath><clipPath clipPathUnits="userSpaceOnUse" id="clipPath87"><path d="M 0,500 H 500 V 0 H 0 Z" transform="translate(-125.2983,-381.78861)" id="path87" /></clipPath><clipPath clipPathUnits="userSpaceOnUse" id="clipPath89"><path d="M 0,500 H 500 V 0 H 0 Z" transform="translate(-96.329605,-397.87451)" id="path89" /></clipPath><clipPath clipPathUnits="userSpaceOnUse" id="clipPath91"><path d="M 0,500 H 500 V 0 H 0 Z" transform="translate(-87.3955,-382.24561)" id="path91" /></clipPath><clipPath clipPathUnits="userSpaceOnUse" id="clipPath93"><path d="M 0,500 H 500 V 0 H 0 Z" transform="translate(-125.2983,-381.78861)" id="path93" /></clipPath><clipPath clipPathUnits="userSpaceOnUse" id="clipPath95"><path d="M 0,500 H 500 V 0 H 0 Z" transform="translate(-71.700202,-397.00241)" id="path95" /></clipPath><clipPath clipPathUnits="userSpaceOnUse" id="clipPath97"><path d="M 0,500 H 500 V 0 H 0 Z" transform="translate(-139.3882,-350.70461)" id="path97" /></clipPath><clipPath clipPathUnits="userSpaceOnUse" id="clipPath99"><path d="M 0,500 H 500 V 0 H 0 Z" transform="translate(-97.266602,-377.96481)" id="path99" /></clipPath><clipPath clipPathUnits="userSpaceOnUse" id="clipPath101"><path d="M 0,500 H 500 V 0 H 0 Z" transform="translate(-119.97171,-375.45461)" id="path101" /></clipPath><clipPath clipPathUnits="userSpaceOnUse" id="clipPath103"><path d="M 0,500 H 500 V 0 H 0 Z" transform="translate(-437.25881,-102.749)" id="path103" /></clipPath><clipPath clipPathUnits="userSpaceOnUse" id="clipPath105"><path d="M 0,500 H 500 V 0 H 0 Z" transform="translate(-153.0757,-110.08691)" id="path105" /></clipPath><clipPath clipPathUnits="userSpaceOnUse" id="clipPath107"><path d="M 0,500 H 500 V 0 H 0 Z" transform="translate(-68.039602,-123.2412)" id="path107" /></clipPath><clipPath clipPathUnits="userSpaceOnUse" id="clipPath109"><path d="M 0,500 H 500 V 0 H 0 Z" transform="translate(-98.763205,-118.9268)" id="path109" /></clipPath><clipPath clipPathUnits="userSpaceOnUse" id="clipPath111"><path d="M 0,500 H 500 V 0 H 0 Z" transform="translate(-94.1626,-133.752)" id="path111" /></clipPath><clipPath clipPathUnits="userSpaceOnUse" id="clipPath113"><path d="M 0,500 H 500 V 0 H 0 Z" transform="translate(-130.0093,-133.8818)" id="path113" /></clipPath><clipPath clipPathUnits="userSpaceOnUse" id="clipPath115"><path d="M 0,500 H 500 V 0 H 0 Z" transform="translate(-216.42291,-119.5391)" id="path115" /></clipPath><clipPath clipPathUnits="userSpaceOnUse" id="clipPath117"><path d="M 0,500 H 500 V 0 H 0 Z" transform="translate(-216.4243,-119.54)" id="path117" /></clipPath><clipPath clipPathUnits="userSpaceOnUse" id="clipPath119"><path d="M 0,500 H 500 V 0 H 0 Z" transform="translate(-216.42291,-119.5391)" id="path119" /></clipPath><clipPath clipPathUnits="userSpaceOnUse" id="clipPath121"><path d="M 0,500 H 500 V 0 H 0 Z" transform="translate(-432.46971,-121.0557)" id="path121" /></clipPath><clipPath clipPathUnits="userSpaceOnUse" id="clipPath123"><path d="M 0,500 H 500 V 0 H 0 Z" transform="translate(-427.03711,-133.8525)" id="path123" /></clipPath><clipPath clipPathUnits="userSpaceOnUse" id="clipPath125"><path d="M 0,500 H 500 V 0 H 0 Z" transform="translate(-405.37791,-144.78911)" id="path125" /></clipPath><clipPath clipPathUnits="userSpaceOnUse" id="clipPath127"><path d="M 0,500 H 500 V 0 H 0 Z" transform="translate(-404.70611,-137.2754)" id="path127" /></clipPath><clipPath clipPathUnits="userSpaceOnUse" id="clipPath129"><path d="M 0,500 H 500 V 0 H 0 Z" transform="translate(-432.46971,-121.0557)" id="path129" /></clipPath><clipPath clipPathUnits="userSpaceOnUse" id="clipPath131"><path d="M 0,500 H 500 V 0 H 0 Z" transform="translate(-327.13481,-114.4746)" id="path131" /></clipPath><clipPath clipPathUnits="userSpaceOnUse" id="clipPath133"><path d="M 0,500 H 500 V 0 H 0 Z" transform="translate(-376.72071,-396.30321)" id="path133" /></clipPath><clipPath clipPathUnits="userSpaceOnUse" id="clipPath135"><path d="M 0,500 H 500 V 0 H 0 Z" transform="translate(-345.24221,-355.45311)" id="path135" /></clipPath><clipPath clipPathUnits="userSpaceOnUse" id="clipPath137"><path d="M 0,500 H 500 V 0 H 0 Z" transform="translate(-315.50001,-373.42481)" id="path137" /></clipPath><clipPath clipPathUnits="userSpaceOnUse" id="clipPath139"><path d="M 0,500 H 500 V 0 H 0 Z" transform="translate(-312.87011,-392.23001)" id="path139" /></clipPath><clipPath clipPathUnits="userSpaceOnUse" id="clipPath141"><path d="M 0,500 H 500 V 0 H 0 Z" transform="translate(-328.25681,-433.48831)" id="path141" /></clipPath><clipPath clipPathUnits="userSpaceOnUse" id="clipPath143"><path d="M 0,500 H 500 V 0 H 0 Z" transform="translate(-371.31351,-429.34471)" id="path143" /></clipPath><clipPath clipPathUnits="userSpaceOnUse" id="clipPath145"><path d="M 0,500 H 500 V 0 H 0 Z" transform="translate(-356.50101,-401.37401)" id="path145" /></clipPath><clipPath clipPathUnits="userSpaceOnUse" id="clipPath147"><path d="M 0,500 H 500 V 0 H 0 Z" transform="translate(-356.68651,-383.02541)" id="path147" /></clipPath><clipPath clipPathUnits="userSpaceOnUse" id="clipPath149"><path d="M 0,500 H 500 V 0 H 0 Z" transform="translate(-339.52251,-412.63771)" id="path149" /></clipPath><clipPath clipPathUnits="userSpaceOnUse" id="clipPath151"><path d="M 0,500 H 500 V 0 H 0 Z" transform="translate(-376.35061,-419.38281)" id="path151" /></clipPath><clipPath clipPathUnits="userSpaceOnUse" id="clipPath153"><path d="M 0,500 H 500 V 0 H 0 Z" transform="translate(-364.11821,-384.56741)" id="path153" /></clipPath><clipPath clipPathUnits="userSpaceOnUse" id="clipPath155"><path d="M 0,500 H 500 V 0 H 0 Z" transform="translate(-376.72071,-396.30321)" id="path155" /></clipPath><clipPath clipPathUnits="userSpaceOnUse" id="clipPath157"><path d="M 0,500 H 500 V 0 H 0 Z" transform="translate(-313.61911,-296.27291)" id="path157" /></clipPath><clipPath clipPathUnits="userSpaceOnUse" id="clipPath159"><path d="M 0,500 H 500 V 0 H 0 Z" transform="translate(-305.04881,-316.07621)" id="path159" /></clipPath><clipPath clipPathUnits="userSpaceOnUse" id="clipPath161"><path d="M 0,500 H 500 V 0 H 0 Z" transform="translate(-300.53611,-275.20511)" id="path161" /></clipPath><clipPath clipPathUnits="userSpaceOnUse" id="clipPath163"><path d="M 0,500 H 500 V 0 H 0 Z" transform="translate(-319.84181,-243.67191)" id="path163" /></clipPath><clipPath clipPathUnits="userSpaceOnUse" id="clipPath165"><path d="M 0,500 H 500 V 0 H 0 Z" transform="translate(-338.39361,-241.03421)" id="path165" /></clipPath><clipPath clipPathUnits="userSpaceOnUse" id="clipPath167"><path d="M 0,500 H 500 V 0 H 0 Z" transform="translate(-320.49711,-352.96141)" id="path167" /></clipPath><clipPath clipPathUnits="userSpaceOnUse" id="clipPath169"><path d="M 0,500 H 500 V 0 H 0 Z" transform="translate(-431.04981,-326.64161)" id="path169" /></clipPath><clipPath clipPathUnits="userSpaceOnUse" id="clipPath171"><path d="M 0,500 H 500 V 0 H 0 Z" transform="translate(-372.06351,-226.83401)" id="path171" /></clipPath><clipPath clipPathUnits="userSpaceOnUse" id="clipPath173"><path d="M 0,500 H 500 V 0 H 0 Z" transform="translate(-399.95511,-220.86041)" id="path173" /></clipPath><clipPath clipPathUnits="userSpaceOnUse" id="clipPath175"><path d="M 0,500 H 500 V 0 H 0 Z" transform="translate(-323.42581,-269.89451)" id="path175" /></clipPath><clipPath clipPathUnits="userSpaceOnUse" id="clipPath177"><path d="M 0,500 H 500 V 0 H 0 Z" transform="translate(-355.10741,-259.54641)" id="path177" /></clipPath><clipPath clipPathUnits="userSpaceOnUse" id="clipPath179"><path d="M 0,500 H 500 V 0 H 0 Z" transform="translate(-313.61911,-296.27291)" id="path179" /></clipPath><clipPath clipPathUnits="userSpaceOnUse" id="clipPath181"><path d="M 0,500 H 500 V 0 H 0 Z" transform="translate(-369.42681,-281.5425)" id="path181" /></clipPath><clipPath clipPathUnits="userSpaceOnUse" id="clipPath183"><path d="M 0,500 H 500 V 0 H 0 Z" transform="translate(-336.97751,-317.55571)" id="path183" /></clipPath><clipPath clipPathUnits="userSpaceOnUse" id="clipPath185"><path d="M 0,500 H 500 V 0 H 0 Z" transform="translate(-313.62011,-296.27151)" id="path185" /></clipPath><clipPath clipPathUnits="userSpaceOnUse" id="clipPath187"><path d="M 0,500 H 500 V 0 H 0 Z" transform="translate(-369.07811,-322.24461)" id="path187" /></clipPath><clipPath clipPathUnits="userSpaceOnUse" id="clipPath189"><path d="M 0,500 H 500 V 0 H 0 Z" transform="translate(-336.97751,-317.55571)" id="path189" /></clipPath><clipPath clipPathUnits="userSpaceOnUse" id="clipPath191"><path d="M 0,500 H 500 V 0 H 0 Z" transform="translate(-401.02541,-318.82371)" id="path191" /></clipPath><clipPath clipPathUnits="userSpaceOnUse" id="clipPath193"><path d="M 0,500 H 500 V 0 H 0 Z" transform="translate(-369.07811,-322.24411)" id="path193" /></clipPath><clipPath clipPathUnits="userSpaceOnUse" id="clipPath195"><path d="M 0,500 H 500 V 0 H 0 Z" transform="translate(-401.98341,-287.1846)" id="path195" /></clipPath><clipPath clipPathUnits="userSpaceOnUse" id="clipPath197"><path d="M 0,500 H 500 V 0 H 0 Z" transform="translate(-401.02541,-318.82371)" id="path197" /></clipPath><clipPath clipPathUnits="userSpaceOnUse" id="clipPath199"><path d="M 0,500 H 500 V 0 H 0 Z" transform="translate(-385.65231,-244.13481)" id="path199" /></clipPath><clipPath clipPathUnits="userSpaceOnUse" id="clipPath201"><path d="M 0,500 H 500 V 0 H 0 Z" transform="translate(-361.43161,-257.66991)" id="path201" /></clipPath><clipPath clipPathUnits="userSpaceOnUse" id="clipPath203"><path d="M 0,500 H 500 V 0 H 0 Z" transform="translate(-361.72851,-265.84031)" id="path203" /></clipPath><clipPath clipPathUnits="userSpaceOnUse" id="clipPath205"><path d="M 0,500 H 500 V 0 H 0 Z" transform="translate(-402.13871,-265.52591)" id="path205" /></clipPath><clipPath clipPathUnits="userSpaceOnUse" id="clipPath207"><path d="M 0,500 H 500 V 0 H 0 Z" transform="translate(-385.65231,-244.13571)" id="path207" /></clipPath><clipPath clipPathUnits="userSpaceOnUse" id="clipPath209"><path d="M 0,500 H 500 V 0 H 0 Z" transform="translate(-402.13771,-265.52541)" id="path209" /></clipPath><clipPath clipPathUnits="userSpaceOnUse" id="clipPath211"><path d="M 0,500 H 500 V 0 H 0 Z" transform="translate(-355.10741,-259.54641)" id="path211" /></clipPath><clipPath clipPathUnits="userSpaceOnUse" id="clipPath213"><path d="M 0,500 H 500 V 0 H 0 Z" transform="translate(-242.46831,-133.5723)" id="path213" /></clipPath><clipPath clipPathUnits="userSpaceOnUse" id="clipPath215"><path d="M 0,500 H 500 V 0 H 0 Z" transform="translate(-210.0742,-231.25001)" id="path215" /></clipPath><clipPath clipPathUnits="userSpaceOnUse" id="clipPath217"><path d="M 0,500 H 500 V 0 H 0 Z" transform="translate(-184.9072,-258.88431)" id="path217" /></clipPath><clipPath clipPathUnits="userSpaceOnUse" id="clipPath219"><path d="M 0,500 H 500 V 0 H 0 Z" transform="translate(-148.6821,-295.10451)" id="path219" /></clipPath><clipPath clipPathUnits="userSpaceOnUse" id="clipPath221"><path d="M 0,500 H 500 V 0 H 0 Z" transform="translate(-147.19731,-276.85691)" id="path221" /></clipPath><clipPath clipPathUnits="userSpaceOnUse" id="clipPath223"><path d="M 0,500 H 500 V 0 H 0 Z" transform="translate(-145.4277,-259.17381)" id="path223" /></clipPath><clipPath clipPathUnits="userSpaceOnUse" id="clipPath225"><path d="M 0,500 H 500 V 0 H 0 Z" transform="translate(-144.6172,-243.18261)" id="path225" /></clipPath><clipPath clipPathUnits="userSpaceOnUse" id="clipPath227"><path d="M 0,500 H 500 V 0 H 0 Z" transform="translate(-145.23831,-226.34181)" id="path227" /></clipPath><clipPath clipPathUnits="userSpaceOnUse" id="clipPath229"><path d="M 0,500 H 500 V 0 H 0 Z" transform="translate(-148.04301,-210.12111)" id="path229" /></clipPath><clipPath clipPathUnits="userSpaceOnUse" id="clipPath231"><path d="M 0,500 H 500 V 0 H 0 Z" transform="translate(-154.3618,-192.44921)" id="path231" /></clipPath><clipPath clipPathUnits="userSpaceOnUse" id="clipPath233"><path d="M 0,500 H 500 V 0 H 0 Z" transform="translate(-163.56201,-176.61521)" id="path233" /></clipPath><clipPath clipPathUnits="userSpaceOnUse" id="clipPath235"><path d="M 0,500 H 500 V 0 H 0 Z" transform="translate(-179.42721,-158.4932)" id="path235" /></clipPath><clipPath clipPathUnits="userSpaceOnUse" id="clipPath237"><path d="M 0,500 H 500 V 0 H 0 Z" transform="translate(-168.06741,-111.37211)" id="path237" /></clipPath><clipPath clipPathUnits="userSpaceOnUse" id="clipPath239"><path d="M 0,500 H 500 V 0 H 0 Z" transform="translate(-171.1729,-117.8379)" id="path239" /></clipPath><clipPath clipPathUnits="userSpaceOnUse" id="clipPath241"><path d="M 0,500 H 500 V 0 H 0 Z" transform="translate(-262.65531,-102.97271)" id="path241" /></clipPath><clipPath clipPathUnits="userSpaceOnUse" id="clipPath243"><path d="M 0,500 H 500 V 0 H 0 Z" transform="translate(-256.89841,-105.15821)" id="path243" /></clipPath><clipPath clipPathUnits="userSpaceOnUse" id="clipPath245"><path d="M 0,500 H 500 V 0 H 0 Z" transform="translate(-197.36961,-145.5762)" id="path245" /></clipPath><clipPath clipPathUnits="userSpaceOnUse" id="clipPath247"><path d="M 0,500 H 500 V 0 H 0 Z" transform="translate(-218.4478,-137.4365)" id="path247" /></clipPath><clipPath clipPathUnits="userSpaceOnUse" id="clipPath249"><path d="M 0,500 H 500 V 0 H 0 Z" transform="translate(-252.6064,-248.63481)" id="path249" /></clipPath><clipPath clipPathUnits="userSpaceOnUse" id="clipPath251"><path d="M 0,500 H 500 V 0 H 0 Z" transform="translate(-263.56351,-232.1865)" id="path251" /></clipPath><clipPath clipPathUnits="userSpaceOnUse" id="clipPath253"><path d="M 0,500 H 500 V 0 H 0 Z" transform="translate(-280.915,-228.33591)" id="path253" /></clipPath><clipPath clipPathUnits="userSpaceOnUse" id="clipPath255"><path d="M 0,500 H 500 V 0 H 0 Z" transform="translate(-279.01861,-215.27831)" id="path255" /></clipPath><clipPath clipPathUnits="userSpaceOnUse" id="clipPath257"><path d="M 0,500 H 500 V 0 H 0 Z" transform="translate(-267.748,-214.49321)" id="path257" /></clipPath><clipPath clipPathUnits="userSpaceOnUse" id="clipPath259"><path d="M 0,500 H 500 V 0 H 0 Z" transform="translate(-309.81641,-206.8818)" id="path259" /></clipPath><clipPath clipPathUnits="userSpaceOnUse" id="clipPath261"><path d="M 0,500 H 500 V 0 H 0 Z" transform="translate(-322.25681,-187.8135)" id="path261" /></clipPath><clipPath clipPathUnits="userSpaceOnUse" id="clipPath263"><path d="M 0,500 H 500 V 0 H 0 Z" transform="translate(-329.74901,-169.2236)" id="path263" /></clipPath><clipPath clipPathUnits="userSpaceOnUse" id="clipPath265"><path d="M 0,500 H 500 V 0 H 0 Z" transform="translate(-341.73931,-143.08301)" id="path265" /></clipPath><clipPath clipPathUnits="userSpaceOnUse" id="clipPath267"><path d="M 0,500 H 500 V 0 H 0 Z" transform="translate(-354.48051,-143.9541)" id="path267" /></clipPath><clipPath clipPathUnits="userSpaceOnUse" id="clipPath269"><path d="M 0,500 H 500 V 0 H 0 Z" transform="translate(-341.77441,-168.3789)" id="path269" /></clipPath><clipPath clipPathUnits="userSpaceOnUse" id="clipPath271"><path d="M 0,500 H 500 V 0 H 0 Z" transform="translate(-385.95121,-98.459002)" id="path271" /></clipPath><clipPath clipPathUnits="userSpaceOnUse" id="clipPath273"><path d="M 0,500 H 500 V 0 H 0 Z" transform="translate(-379.38281,-132.7695)" id="path273" /></clipPath><clipPath clipPathUnits="userSpaceOnUse" id="clipPath275"><path d="M 0,500 H 500 V 0 H 0 Z" transform="translate(-180.59571,-341.57131)" id="path275" /></clipPath><clipPath clipPathUnits="userSpaceOnUse" id="clipPath277"><path d="M 0,500 H 500 V 0 H 0 Z" transform="translate(-189.04101,-346.05371)" id="path277" /></clipPath><clipPath clipPathUnits="userSpaceOnUse" id="clipPath279"><path d="M 0,500 H 500 V 0 H 0 Z" transform="translate(-184.69431,-261.6948)" id="path279" /></clipPath><clipPath clipPathUnits="userSpaceOnUse" id="clipPath281"><path d="M 0,500 H 500 V 0 H 0 Z" transform="translate(-198.0361,-215.9238)" id="path281" /></clipPath><clipPath clipPathUnits="userSpaceOnUse" id="clipPath283"><path d="M 0,500 H 500 V 0 H 0 Z" transform="translate(-187.3789,-215.26761)" id="path283" /></clipPath><clipPath clipPathUnits="userSpaceOnUse" id="clipPath285"><path d="M 0,500 H 500 V 0 H 0 Z" transform="translate(-180.43551,-218.77541)" id="path285" /></clipPath><clipPath clipPathUnits="userSpaceOnUse" id="clipPath287"><path d="M 0,500 H 500 V 0 H 0 Z" transform="translate(-175.2612,-228.13961)" id="path287" /></clipPath><clipPath clipPathUnits="userSpaceOnUse" id="clipPath289"><path d="M 0,500 H 500 V 0 H 0 Z" transform="translate(-244.6279,-404.04541)" id="path289" /></clipPath><clipPath clipPathUnits="userSpaceOnUse" id="clipPath291"><path d="M 0,500 H 500 V 0 H 0 Z" transform="translate(-228.89061,-353.46631)" id="path291" /></clipPath><clipPath clipPathUnits="userSpaceOnUse" id="clipPath293"><path d="M 0,500 H 500 V 0 H 0 Z" transform="translate(-183.4443,-384.64701)" id="path293" /></clipPath><clipPath clipPathUnits="userSpaceOnUse" id="clipPath295"><path d="M 0,500 H 500 V 0 H 0 Z" transform="translate(-225.19921,-396.14601)" id="path295" /></clipPath><clipPath clipPathUnits="userSpaceOnUse" id="clipPath297"><path d="M 0,500 H 500 V 0 H 0 Z" transform="translate(-203.1001,-348.71041)" id="path297" /></clipPath><clipPath clipPathUnits="userSpaceOnUse" id="clipPath299"><path d="M 0,500 H 500 V 0 H 0 Z" transform="translate(-165.3213,-379.77441)" id="path299" /></clipPath><clipPath clipPathUnits="userSpaceOnUse" id="clipPath301"><path d="M 0,500 H 500 V 0 H 0 Z" transform="translate(-177.6465,-379.95211)" id="path301" /></clipPath><clipPath clipPathUnits="userSpaceOnUse" id="clipPath303"><path d="M 0,500 H 500 V 0 H 0 Z" transform="translate(-230.05221,-388.11181)" id="path303" /></clipPath><clipPath clipPathUnits="userSpaceOnUse" id="clipPath305"><path d="M 0,500 H 500 V 0 H 0 Z" transform="translate(-211.17331,-139.4316)" id="path305" /></clipPath><clipPath clipPathUnits="userSpaceOnUse" id="clipPath307"><path d="M 0,500 H 500 V 0 H 0 Z" transform="translate(-162.37701,-177.70511)" id="path307" /></clipPath><clipPath clipPathUnits="userSpaceOnUse" id="clipPath309"><path d="M 0,500 H 500 V 0 H 0 Z" transform="translate(-146.4858,-215.95611)" id="path309" /></clipPath><clipPath clipPathUnits="userSpaceOnUse" id="clipPath311"><path d="M 0,500 H 500 V 0 H 0 Z" transform="translate(-147.6426,-281.3652)" id="path311" /></clipPath><clipPath clipPathUnits="userSpaceOnUse" id="clipPath313"><path d="M 0,500 H 500 V 0 H 0 Z" transform="translate(-212.31691,-438.15091)" id="path313" /></clipPath><clipPath clipPathUnits="userSpaceOnUse" id="clipPath315"><path d="M 0,500 H 500 V 0 H 0 Z" transform="translate(-217.1611,-433.01421)" id="path315" /></clipPath><clipPath clipPathUnits="userSpaceOnUse" id="clipPath317"><path d="M 0,500 H 500 V 0 H 0 Z" transform="translate(-147.6421,-281.3652)" id="path317" /></clipPath><clipPath clipPathUnits="userSpaceOnUse" id="clipPath319"><path d="M 0,500 H 500 V 0 H 0 Z" transform="translate(-161.75781,-91.345702)" id="path319" /></clipPath><clipPath clipPathUnits="userSpaceOnUse" id="clipPath321"><path d="M 0,500 H 500 V 0 H 0 Z" transform="translate(-175.57281,-91.524405)" id="path321" /></clipPath><clipPath clipPathUnits="userSpaceOnUse" id="clipPath323"><path d="M 0,500 H 500 V 0 H 0 Z" transform="translate(-151.83351,-93.239302)" id="path323" /></clipPath><clipPath clipPathUnits="userSpaceOnUse" id="clipPath325"><path d="M 0,500 H 500 V 0 H 0 Z" transform="translate(-164.938,-102.69731)" id="path325" /></clipPath><clipPath clipPathUnits="userSpaceOnUse" id="clipPath327"><path d="M 0,500 H 500 V 0 H 0 Z" transform="translate(-149.7358,-106.25591)" id="path327" /></clipPath><clipPath clipPathUnits="userSpaceOnUse" id="clipPath329"><path d="M 0,500 H 500 V 0 H 0 Z" transform="translate(-154.3066,-102.4287)" id="path329" /></clipPath><clipPath clipPathUnits="userSpaceOnUse" id="clipPath331"><path d="M 0,500 H 500 V 0 H 0 Z" transform="translate(-149.7363,-106.2539)" id="path331" /></clipPath><clipPath clipPathUnits="userSpaceOnUse" id="clipPath333"><path d="M 0,500 H 500 V 0 H 0 Z" transform="translate(-200.9458,-119.4854)" id="path333" /></clipPath><clipPath clipPathUnits="userSpaceOnUse" id="clipPath335"><path d="M 0,500 H 500 V 0 H 0 Z" transform="translate(-175.57281,-91.524405)" id="path335" /></clipPath><clipPath clipPathUnits="userSpaceOnUse" id="clipPath337"><path d="M 0,500 H 500 V 0 H 0 Z" transform="translate(-200.9458,-119.4854)" id="path337" /></clipPath><clipPath clipPathUnits="userSpaceOnUse" id="clipPath339"><path d="M 0,500 H 500 V 0 H 0 Z" transform="translate(-148.8901,-300.44871)" id="path339" /></clipPath><clipPath clipPathUnits="userSpaceOnUse" id="clipPath341"><path d="M 0,500 H 500 V 0 H 0 Z" transform="translate(-193.96581,-213.05471)" id="path341" /></clipPath><clipPath clipPathUnits="userSpaceOnUse" id="clipPath343"><path d="M 0,500 H 500 V 0 H 0 Z" transform="translate(-261.6592,-74.062499)" id="path343" /></clipPath><clipPath clipPathUnits="userSpaceOnUse" id="clipPath345"><path d="M 0,500 H 500 V 0 H 0 Z" transform="translate(-281.6641,-73.378904)" id="path345" /></clipPath><clipPath clipPathUnits="userSpaceOnUse" id="clipPath347"><path d="M 0,500 H 500 V 0 H 0 Z" transform="translate(-249.1333,-77.140604)" id="path347" /></clipPath><clipPath clipPathUnits="userSpaceOnUse" id="clipPath349"><path d="M 0,500 H 500 V 0 H 0 Z" transform="translate(-264.82131,-87.2715)" id="path349" /></clipPath><clipPath clipPathUnits="userSpaceOnUse" id="clipPath351"><path d="M 0,500 H 500 V 0 H 0 Z" transform="translate(-246.79251,-92.9004)" id="path351" /></clipPath><clipPath clipPathUnits="userSpaceOnUse" id="clipPath353"><path d="M 0,500 H 500 V 0 H 0 Z" transform="translate(-252.4375,-90.031305)" id="path353" /></clipPath><clipPath clipPathUnits="userSpaceOnUse" id="clipPath355"><path d="M 0,500 H 500 V 0 H 0 Z" transform="translate(-295.7959,-134.51861)" id="path355" /></clipPath><clipPath clipPathUnits="userSpaceOnUse" id="clipPath357"><path d="M 0,500 H 500 V 0 H 0 Z" transform="translate(-281.6641,-73.378904)" id="path357" /></clipPath><clipPath clipPathUnits="userSpaceOnUse" id="clipPath359"><path d="M 0,500 H 500 V 0 H 0 Z" transform="translate(-294.24901,-139.74221)" id="path359" /></clipPath><clipPath clipPathUnits="userSpaceOnUse" id="clipPath361"><path d="M 0,500 H 500 V 0 H 0 Z" transform="translate(-174.46971,-233.32031)" id="path361" /></clipPath><clipPath clipPathUnits="userSpaceOnUse" id="clipPath363"><path d="M 0,500 H 500 V 0 H 0 Z" transform="translate(-435.21781,-118.0029)" id="path363" /></clipPath><clipPath clipPathUnits="userSpaceOnUse" id="clipPath365"><path d="M 0,500 H 500 V 0 H 0 Z" transform="translate(-222.87451,-273.3579)" id="path365" /></clipPath><clipPath clipPathUnits="userSpaceOnUse" id="clipPath367"><path d="M 0,500 H 500 V 0 H 0 Z" transform="translate(-211.97311,-287.7129)" id="path367" /></clipPath><clipPath clipPathUnits="userSpaceOnUse" id="clipPath369"><path d="M 0,500 H 500 V 0 H 0 Z" transform="translate(-192.3208,-318.48581)" id="path369" /></clipPath><clipPath clipPathUnits="userSpaceOnUse" id="clipPath371"><path d="M 0,500 H 500 V 0 H 0 Z" transform="translate(-203.1001,-348.71041)" id="path371" /></clipPath><clipPath clipPathUnits="userSpaceOnUse" id="clipPath373"><path d="M 0,500 H 500 V 0 H 0 Z" transform="translate(-241.7158,-419.51461)" id="path373" /></clipPath><clipPath clipPathUnits="userSpaceOnUse" id="clipPath375"><path d="M 0,500 H 500 V 0 H 0 Z" transform="translate(-229.41751,-435.30081)" id="path375" /></clipPath><clipPath clipPathUnits="userSpaceOnUse" id="clipPath377"><path d="M 0,500 H 500 V 0 H 0 Z" transform="translate(-212.31691,-438.15041)" id="path377" /></clipPath><clipPath clipPathUnits="userSpaceOnUse" id="clipPath379"><path d="M 0,500 H 500 V 0 H 0 Z" transform="translate(-230.53561,-431.04981)" id="path379" /></clipPath><clipPath clipPathUnits="userSpaceOnUse" id="clipPath381"><path d="M 0,500 H 500 V 0 H 0 Z" transform="translate(-200.44921,-304.96681)" id="path381" /></clipPath><clipPath clipPathUnits="userSpaceOnUse" id="clipPath383"><path d="M 0,500 H 500 V 0 H 0 Z" transform="translate(-192.3208,-318.48581)" id="path383" /></clipPath><clipPath clipPathUnits="userSpaceOnUse" id="clipPath385"><path d="M 0,500 H 500 V 0 H 0 Z" transform="translate(-200.44921,-304.96681)" id="path385" /></clipPath><clipPath clipPathUnits="userSpaceOnUse" id="clipPath387"><path d="M 0,500 H 500 V 0 H 0 Z" transform="translate(-242.5444,-263.98241)" id="path387" /></clipPath><clipPath clipPathUnits="userSpaceOnUse" id="clipPath389"><path d="M 0,500 H 500 V 0 H 0 Z" transform="translate(-222.874,-273.3579)" id="path389" /></clipPath><clipPath clipPathUnits="userSpaceOnUse" id="clipPath391"><path d="M 0,500 H 500 V 0 H 0 Z" transform="translate(-261.97951,-254.5728)" id="path391" /></clipPath><clipPath clipPathUnits="userSpaceOnUse" id="clipPath393"><path d="M 0,500 H 500 V 0 H 0 Z" transform="translate(-242.5444,-263.98241)" id="path393" /></clipPath><clipPath clipPathUnits="userSpaceOnUse" id="clipPath395"><path d="M 0,500 H 500 V 0 H 0 Z" transform="translate(-284.5234,-247.34471)" id="path395" /></clipPath><clipPath clipPathUnits="userSpaceOnUse" id="clipPath397"><path d="M 0,500 H 500 V 0 H 0 Z" transform="translate(-261.97951,-254.5728)" id="path397" /></clipPath><clipPath clipPathUnits="userSpaceOnUse" id="clipPath399"><path d="M 0,500 H 500 V 0 H 0 Z" transform="translate(-306.22461,-235.83111)" id="path399" /></clipPath><clipPath clipPathUnits="userSpaceOnUse" id="clipPath401"><path d="M 0,500 H 500 V 0 H 0 Z" transform="translate(-284.5234,-247.34471)" id="path401" /></clipPath><clipPath clipPathUnits="userSpaceOnUse" id="clipPath403"><path d="M 0,500 H 500 V 0 H 0 Z" transform="translate(-323.62701,-215.97171)" id="path403" /></clipPath><clipPath clipPathUnits="userSpaceOnUse" id="clipPath405"><path d="M 0,500 H 500 V 0 H 0 Z" transform="translate(-306.22461,-235.83111)" id="path405" /></clipPath><clipPath clipPathUnits="userSpaceOnUse" id="clipPath407"><path d="M 0,500 H 500 V 0 H 0 Z" transform="translate(-338.43851,-196.10351)" id="path407" /></clipPath><clipPath clipPathUnits="userSpaceOnUse" id="clipPath409"><path d="M 0,500 H 500 V 0 H 0 Z" transform="translate(-323.62701,-215.97171)" id="path409" /></clipPath><clipPath clipPathUnits="userSpaceOnUse" id="clipPath411"><path d="M 0,500 H 500 V 0 H 0 Z" transform="translate(-349.30081,-178.14161)" id="path411" /></clipPath><clipPath clipPathUnits="userSpaceOnUse" id="clipPath413"><path d="M 0,500 H 500 V 0 H 0 Z" transform="translate(-338.43851,-196.10351)" id="path413" /></clipPath><clipPath clipPathUnits="userSpaceOnUse" id="clipPath415"><path d="M 0,500 H 500 V 0 H 0 Z" transform="translate(-360.88771,-160.3232)" id="path415" /></clipPath><clipPath clipPathUnits="userSpaceOnUse" id="clipPath417"><path d="M 0,500 H 500 V 0 H 0 Z" transform="translate(-349.30081,-178.14161)" id="path417" /></clipPath><clipPath clipPathUnits="userSpaceOnUse" id="clipPath419"><path d="M 0,500 H 500 V 0 H 0 Z" transform="translate(-372.44241,-146.8164)" id="path419" /></clipPath><clipPath clipPathUnits="userSpaceOnUse" id="clipPath421"><path d="M 0,500 H 500 V 0 H 0 Z" transform="translate(-360.88771,-160.3232)" id="path421" /></clipPath><clipPath clipPathUnits="userSpaceOnUse" id="clipPath423"><path d="M 0,500 H 500 V 0 H 0 Z" transform="translate(-386.25491,-135.37211)" id="path423" /></clipPath><clipPath clipPathUnits="userSpaceOnUse" id="clipPath425"><path d="M 0,500 H 500 V 0 H 0 Z" transform="translate(-372.44241,-146.8164)" id="path425" /></clipPath><clipPath clipPathUnits="userSpaceOnUse" id="clipPath427"><path d="M 0,500 H 500 V 0 H 0 Z" transform="translate(-401.10251,-128.24711)" id="path427" /></clipPath><clipPath clipPathUnits="userSpaceOnUse" id="clipPath429"><path d="M 0,500 H 500 V 0 H 0 Z" transform="translate(-386.25491,-135.37211)" id="path429" /></clipPath><clipPath clipPathUnits="userSpaceOnUse" id="clipPath431"><path d="M 0,500 H 500 V 0 H 0 Z" transform="translate(-413.76071,-123.0801)" id="path431" /></clipPath><clipPath clipPathUnits="userSpaceOnUse" id="clipPath433"><path d="M 0,500 H 500 V 0 H 0 Z" transform="translate(-401.10161,-128.24711)" id="path433" /></clipPath><clipPath clipPathUnits="userSpaceOnUse" id="clipPath435"><path d="M 0,500 H 500 V 0 H 0 Z" transform="translate(-425.78911,-120.54)" id="path435" /></clipPath><clipPath clipPathUnits="userSpaceOnUse" id="clipPath437"><path d="M 0,500 H 500 V 0 H 0 Z" transform="translate(-413.75981,-123.0801)" id="path437" /></clipPath><clipPath clipPathUnits="userSpaceOnUse" id="clipPath439"><path d="M 0,500 H 500 V 0 H 0 Z" transform="translate(-425.78811,-120.54)" id="path439" /></clipPath><clipPath clipPathUnits="userSpaceOnUse" id="clipPath441"><path d="M 0,500 H 500 V 0 H 0 Z" transform="translate(-229.41751,-435.30081)" id="path441" /></clipPath><clipPath clipPathUnits="userSpaceOnUse" id="clipPath443"><path d="M 0,500 H 500 V 0 H 0 Z" transform="translate(-195.1851,-416.87351)" id="path443" /></clipPath><clipPath clipPathUnits="userSpaceOnUse" id="clipPath445"><path d="M 0,500 H 500 V 0 H 0 Z" transform="translate(-194.6499,-409.87941)" id="path445" /></clipPath><clipPath clipPathUnits="userSpaceOnUse" id="clipPath447"><path d="M 0,500 H 500 V 0 H 0 Z" transform="translate(-180.8179,-416.55571)" id="path447" /></clipPath><clipPath clipPathUnits="userSpaceOnUse" id="clipPath449"><path d="M 0,500 H 500 V 0 H 0 Z" transform="translate(-198.2974,-216.10161)" id="path449" /></clipPath><clipPath clipPathUnits="userSpaceOnUse" id="clipPath451"><path d="M 0,500 H 500 V 0 H 0 Z" transform="translate(-197.6113,-434.94731)" id="path451" /></clipPath><clipPath clipPathUnits="userSpaceOnUse" id="clipPath453"><path d="M 0,500 H 500 V 0 H 0 Z" transform="translate(-181.1304,-402.84721)" id="path453" /></clipPath><clipPath clipPathUnits="userSpaceOnUse" id="clipPath455"><path d="M 0,500 H 500 V 0 H 0 Z" transform="translate(-242.46831,-133.5723)" id="path455" /></clipPath><clipPath clipPathUnits="userSpaceOnUse" id="clipPath457"><path d="M 0,500 H 500 V 0 H 0 Z" transform="translate(-246.79251,-92.899402)" id="path457" /></clipPath><clipPath clipPathUnits="userSpaceOnUse" id="clipPath459"><path d="M 0,500 H 500 V 0 H 0 Z" transform="translate(-318.30371,-121.8018)" id="path459" /></clipPath><clipPath clipPathUnits="userSpaceOnUse" id="clipPath461"><path d="M 0,500 H 500 V 0 H 0 Z" transform="translate(-324.81151,-137.6904)" id="path461" /></clipPath><clipPath clipPathUnits="userSpaceOnUse" id="clipPath463"><path d="M 0,500 H 500 V 0 H 0 Z" transform="translate(-244.49661,-366.76711)" id="path463" /></clipPath><clipPath clipPathUnits="userSpaceOnUse" id="clipPath465"><path d="M 0,500 H 500 V 0 H 0 Z" transform="translate(-243.4399,-375.14401)" id="path465" /></clipPath><clipPath clipPathUnits="userSpaceOnUse" id="clipPath467"><path d="M 0,500 H 500 V 0 H 0 Z" transform="translate(-253.43071,-381.39501)" id="path467" /></clipPath><clipPath clipPathUnits="userSpaceOnUse" id="clipPath469"><path d="M 0,500 H 500 V 0 H 0 Z" transform="translate(-243.12451,-390.81981)" id="path469" /></clipPath><clipPath clipPathUnits="userSpaceOnUse" id="clipPath471"><path d="M 0,500 H 500 V 0 H 0 Z" transform="translate(-253.43551,-396.48051)" id="path471" /></clipPath><clipPath clipPathUnits="userSpaceOnUse" id="clipPath473"><path d="M 0,500 H 500 V 0 H 0 Z" transform="translate(-173.79741,-438.61521)" id="path473" /></clipPath><clipPath clipPathUnits="userSpaceOnUse" id="clipPath475"><path d="M 0,500 H 500 V 0 H 0 Z" transform="translate(-180.8169,-448.72901)" id="path475" /></clipPath><clipPath clipPathUnits="userSpaceOnUse" id="clipPath477"><path d="M 0,500 H 500 V 0 H 0 Z" transform="translate(-188.0278,-438.81051)" id="path477" /></clipPath><clipPath clipPathUnits="userSpaceOnUse" id="clipPath479"><path d="M 0,500 H 500 V 0 H 0 Z" transform="translate(-164.4438,-429.47951)" id="path479" /></clipPath><clipPath clipPathUnits="userSpaceOnUse" id="clipPath481"><path d="M 0,500 H 500 V 0 H 0 Z" transform="translate(-223.02781,-442.81351)" id="path481" /></clipPath><clipPath clipPathUnits="userSpaceOnUse" id="clipPath483"><path d="M 0,500 H 500 V 0 H 0 Z" transform="translate(-224.1406,-432.02691)" id="path483" /></clipPath><clipPath clipPathUnits="userSpaceOnUse" id="clipPath485"><path d="M 0,500 H 500 V 0 H 0 Z" transform="translate(-238.43601,-430.93951)" id="path485" /></clipPath><clipPath clipPathUnits="userSpaceOnUse" id="clipPath487"><path d="M 0,500 H 500 V 0 H 0 Z" transform="translate(-224.20951,-252.1665)" id="path487" /></clipPath><clipPath clipPathUnits="userSpaceOnUse" id="clipPath489"><path d="M 0,500 H 500 V 0 H 0 Z" transform="translate(-211.53421,-248.99801)" id="path489" /></clipPath><clipPath clipPathUnits="userSpaceOnUse" id="clipPath491"><path d="M 0,500 H 500 V 0 H 0 Z" transform="translate(-217.62211,-256.78221)" id="path491" /></clipPath><clipPath clipPathUnits="userSpaceOnUse" id="clipPath493"><path d="M 0,500 H 500 V 0 H 0 Z" transform="translate(-193.0039,-310.81641)" id="path493" /></clipPath><clipPath clipPathUnits="userSpaceOnUse" id="clipPath495"><path d="M 0,500 H 500 V 0 H 0 Z" transform="translate(-195.34371,-304.73681)" id="path495" /></clipPath><clipPath clipPathUnits="userSpaceOnUse" id="clipPath497"><path d="M 0,500 H 500 V 0 H 0 Z" transform="translate(-205.90621,-306.07471)" id="path497" /></clipPath><clipPath clipPathUnits="userSpaceOnUse" id="clipPath499"><path d="M 0,500 H 500 V 0 H 0 Z" transform="translate(-212.42241,-304.53171)" id="path499" /></clipPath><clipPath clipPathUnits="userSpaceOnUse" id="clipPath501"><path d="M 0,500 H 500 V 0 H 0 Z" transform="translate(-230.47221,-278.2026)" id="path501" /></clipPath><clipPath clipPathUnits="userSpaceOnUse" id="clipPath503"><path d="M 0,500 H 500 V 0 H 0 Z" transform="translate(-236.38531,-277.57761)" id="path503" /></clipPath><clipPath clipPathUnits="userSpaceOnUse" id="clipPath505"><path d="M 0,500 H 500 V 0 H 0 Z" transform="translate(-236.61771,-261.92871)" id="path505" /></clipPath><clipPath clipPathUnits="userSpaceOnUse" id="clipPath507"><path d="M 0,500 H 500 V 0 H 0 Z" transform="translate(-248.12551,-268.7295)" id="path507" /></clipPath><clipPath clipPathUnits="userSpaceOnUse" id="clipPath509"><path d="M 0,500 H 500 V 0 H 0 Z" transform="translate(-253.9453,-252.41061)" id="path509" /></clipPath><clipPath clipPathUnits="userSpaceOnUse" id="clipPath511"><path d="M 0,500 H 500 V 0 H 0 Z" transform="translate(-268.85841,-261.021)" id="path511" /></clipPath><clipPath clipPathUnits="userSpaceOnUse" id="clipPath513"><path d="M 0,500 H 500 V 0 H 0 Z" transform="translate(-278.84671,-263.01861)" id="path513" /></clipPath><clipPath clipPathUnits="userSpaceOnUse" id="clipPath515"><path d="M 0,500 H 500 V 0 H 0 Z" transform="translate(-277.45411,-241.44431)" id="path515" /></clipPath><clipPath clipPathUnits="userSpaceOnUse" id="clipPath517"><path d="M 0,500 H 500 V 0 H 0 Z" transform="translate(-291.00781,-251.98731)" id="path517" /></clipPath><clipPath clipPathUnits="userSpaceOnUse" id="clipPath519"><path d="M 0,500 H 500 V 0 H 0 Z" transform="translate(-291.583,-231.55271)" id="path519" /></clipPath><clipPath clipPathUnits="userSpaceOnUse" id="clipPath521"><path d="M 0,500 H 500 V 0 H 0 Z" transform="translate(-305.82131,-246.04391)" id="path521" /></clipPath><clipPath clipPathUnits="userSpaceOnUse" id="clipPath523"><path d="M 0,500 H 500 V 0 H 0 Z" transform="translate(-304.58111,-219.6426)" id="path523" /></clipPath><clipPath clipPathUnits="userSpaceOnUse" id="clipPath525"><path d="M 0,500 H 500 V 0 H 0 Z" transform="translate(-320.65331,-233.27051)" id="path525" /></clipPath><clipPath clipPathUnits="userSpaceOnUse" id="clipPath527"><path d="M 0,500 H 500 V 0 H 0 Z" transform="translate(-312.40621,-210.22071)" id="path527" /></clipPath><clipPath clipPathUnits="userSpaceOnUse" id="clipPath529"><path d="M 0,500 H 500 V 0 H 0 Z" transform="translate(-320.37791,-199.96481)" id="path529" /></clipPath><clipPath clipPathUnits="userSpaceOnUse" id="clipPath531"><path d="M 0,500 H 500 V 0 H 0 Z" transform="translate(-338.23141,-211.09571)" id="path531" /></clipPath><clipPath clipPathUnits="userSpaceOnUse" id="clipPath533"><path d="M 0,500 H 500 V 0 H 0 Z" transform="translate(-333.24611,-180.9609)" id="path533" /></clipPath><clipPath clipPathUnits="userSpaceOnUse" id="clipPath535"><path d="M 0,500 H 500 V 0 H 0 Z" transform="translate(-349.75291,-190.0703)" id="path535" /></clipPath><clipPath clipPathUnits="userSpaceOnUse" id="clipPath537"><path d="M 0,500 H 500 V 0 H 0 Z" transform="translate(-356.27731,-176.8418)" id="path537" /></clipPath><clipPath clipPathUnits="userSpaceOnUse" id="clipPath539"><path d="M 0,500 H 500 V 0 H 0 Z" transform="translate(-350.46971,-157.752)" id="path539" /></clipPath><clipPath clipPathUnits="userSpaceOnUse" id="clipPath541"><path d="M 0,500 H 500 V 0 H 0 Z" transform="translate(-366.06051,-160.3232)" id="path541" /></clipPath><clipPath clipPathUnits="userSpaceOnUse" id="clipPath543"><path d="M 0,500 H 500 V 0 H 0 Z" transform="translate(-364.13671,-143.793)" id="path543" /></clipPath><clipPath clipPathUnits="userSpaceOnUse" id="clipPath545"><path d="M 0,500 H 500 V 0 H 0 Z" transform="translate(-377.46781,-147.89261)" id="path545" /></clipPath><clipPath clipPathUnits="userSpaceOnUse" id="clipPath547"><path d="M 0,500 H 500 V 0 H 0 Z" transform="translate(-378.89751,-133.4639)" id="path547" /></clipPath><clipPath clipPathUnits="userSpaceOnUse" id="clipPath549"><path d="M 0,500 H 500 V 0 H 0 Z" transform="translate(-391.97171,-136.3086)" id="path549" /></clipPath><clipPath clipPathUnits="userSpaceOnUse" id="clipPath551"><path d="M 0,500 H 500 V 0 H 0 Z" transform="translate(-398.54881,-133.02641)" id="path551" /></clipPath><clipPath clipPathUnits="userSpaceOnUse" id="clipPath553"><path d="M 0,500 H 500 V 0 H 0 Z" transform="translate(-407.65531,-128.1602)" id="path553" /></clipPath><clipPath clipPathUnits="userSpaceOnUse" id="clipPath555"><path d="M 0,500 H 500 V 0 H 0 Z" transform="translate(-419.66311,-123.8027)" id="path555" /></clipPath><clipPath clipPathUnits="userSpaceOnUse" id="clipPath557"><path d="M 0,500 H 500 V 0 H 0 Z" transform="translate(-429.65331,-121.5996)" id="path557" /></clipPath><rect x="14.549811" y="36.058228" width="60.729648" height="58.515546" id="rect27" /></defs><g id="Color" style="display:inline" transform="matrix(0.20542448,0,0,0.20542448,12.212384,-8.6657839)"><path id="color-region-0" d="M 305,602 L 305,1747 L 465,1747 L 506,1646 L 506,602 Z" transform="matrix(0.188618125,0,0,0.188618125,307.37811500000004,68.360344)" style="fill:transparent;stroke:none" /><path id="color-region-1" d="M 114,608 L 114,1723 L 175,1724 L 176,608 Z" transform="matrix(0.188618125,0,0,0.188618125,307.37811500000004,68.360344)" style="fill:transparent;stroke:none" /><path id="color-region-2" d="M 835,668 L 634,668 L 634,1330 L 679,1221 L 658,1186 L 649,1150 L 653,1110 L 671,1071 L 688,1051 L 703,1039 L 745,1021 L 790,1021 L 815,1029 L 835,1040 Z" transform="matrix(0.188618125,0,0,0.188618125,307.37811500000004,68.360344)" style="fill:transparent;stroke:none" /><path id="color-region-3" d="M 214,730 L 214,812 L 266,822 L 266,739 Z" transform="matrix(0.188618125,0,0,0.188618125,307.37811500000004,68.360344)" style="fill:transparent;stroke:none" /><path id="color-region-4" d="M 963,764 L 963,1041 L 1000,1023 L 1021,1019 L 1047,1020 L 1070,1026 L 1091,1036 L 1111,1051 L 1126,1068 L 1145,1107 L 1149,1128 L 1149,1152 L 1143,1180 L 1124,1218 L 1164,1288 L 1164,764 Z" transform="matrix(0.188618125,0,0,0.188618125,307.37811500000004,68.360344)" style="fill:transparent;stroke:none" /><path id="color-region-5" d="M 545,787 L 544,870 L 596,879 L 596,797 Z" transform="matrix(0.188618125,0,0,0.188618125,307.37811500000004,68.360344)" style="fill:transparent;stroke:none" /><path id="color-region-6" d="M 873,846 L 873,928 L 925,937 L 925,855 Z" transform="matrix(0.188618125,0,0,0.188618125,307.37811500000004,68.360344)" style="fill:transparent;stroke:none" /><path id="color-region-7" d="M 214,852 L 214,1513 L 266,1501 L 266,861 Z" transform="matrix(0.188618125,0,0,0.188618125,307.37811500000004,68.360344)" style="fill:transparent;stroke:none" /><path id="color-region-8" d="M 1300,859 L 1300,1469 L 1478,1469 L 1478,859 Z" transform="matrix(0.188618125,0,0,0.188618125,307.37811500000004,68.360344)" style="fill:transparent;stroke:none" /><path id="color-region-9" d="M 1614,883 L 1614,1447 L 1677,1447 L 1677,886 L 1672,883 Z" transform="matrix(0.188618125,0,0,0.188618125,307.37811500000004,68.360344)" style="fill:transparent;stroke:none" /><path id="color-region-10" d="M 1202,905 L 1203,986 L 1261,997 L 1261,915 Z" transform="matrix(0.188618125,0,0,0.188618125,307.37811500000004,68.360344)" style="fill:transparent;stroke:none" /><path id="color-region-11" d="M 546,909 L 544,1449 L 589,1440 L 596,1424 L 596,919 Z" transform="matrix(0.188618125,0,0,0.188618125,307.37811500000004,68.360344)" style="fill:transparent;stroke:none" /><path id="color-region-12" d="M 1516,960 L 1516,1042 L 1576,1053 L 1576,971 Z" transform="matrix(0.188618125,0,0,0.188618125,307.37811500000004,68.360344)" style="fill:transparent;stroke:none" /><path id="color-region-13" d="M 873,967 L 873,1085 L 885,1115 L 887,1153 L 883,1173 L 873,1196 L 873,1387 L 925,1376 L 925,1196 L 916,1175 L 911,1147 L 914,1114 L 925,1085 L 925,976 Z" transform="matrix(0.188618125,0,0,0.188618125,307.37811500000004,68.360344)" style="fill:transparent;stroke:none" /><path id="color-region-14" d="M 1202,1026 L 1203,1322 L 1261,1310 L 1261,1036 Z" transform="matrix(0.188618125,0,0,0.188618125,307.37811500000004,68.360344)" style="fill:transparent;stroke:none" /><path id="color-region-15" d="M 760,1057 L 729,1067 L 707,1086 L 691,1116 L 688,1150 L 698,1181 L 719,1206 L 748,1221 L 779,1223 L 810,1212 L 832,1192 L 847,1161 L 849,1130 L 837,1096 L 817,1073 L 788,1059 Z" transform="matrix(0.188618125,0,0,0.188618125,307.37811500000004,68.360344)" style="fill:transparent;stroke:none" /><path id="color-region-16" d="M 1017,1058 L 988,1069 L 966,1090 L 952,1119 L 950,1151 L 962,1185 L 982,1207 L 999,1217 L 1015,1222 L 1047,1222 L 1076,1209 L 1099,1184 L 1111,1152 L 1110,1124 L 1099,1096 L 1075,1070 L 1045,1058 Z" transform="matrix(0.188618125,0,0,0.188618125,307.37811500000004,68.360344)" style="fill:transparent;stroke:none" /><path id="color-region-17" d="M 1516,1081 L 1518,1262 L 1576,1250 L 1576,1092 Z" transform="matrix(0.188618125,0,0,0.188618125,307.37811500000004,68.360344)" style="fill:transparent;stroke:none" /><path id="color-region-18" d="M 835,1239 L 807,1255 L 769,1263 L 636,1597 L 635,1660 L 835,1659 Z" transform="matrix(0.188618125,0,0,0.188618125,307.37811500000004,68.360344)" style="fill:transparent;stroke:none" /><path id="color-region-19" d="M 963,1240 L 963,1563 L 1164,1563 L 1164,1496 L 1035,1261 L 998,1257 Z" transform="matrix(0.188618125,0,0,0.188618125,307.37811500000004,68.360344)" style="fill:transparent;stroke:none" /><path id="color-region-20" d="M 1074,1252 L 1468,1970 L 1483,1993 L 1491,1996 L 1501,1993 L 1507,1984 L 1504,1971 L 1094,1242 Z" transform="matrix(0.188618125,0,0,0.188618125,307.37811500000004,68.360344)" style="fill:transparent;stroke:none" /><path id="color-region-21" d="M 709,1244 L 398,2012 L 397,2020 L 407,2031 L 420,2030 L 428,2018 L 732,1256 Z" transform="matrix(0.188618125,0,0,0.188618125,307.37811500000004,68.360344)" style="fill:transparent;stroke:none" /><path id="color-region-22" d="M 1576,1289 L 1516,1301 L 1516,1376 L 1576,1364 Z" transform="matrix(0.188618125,0,0,0.188618125,307.37811500000004,68.360344)" style="fill:transparent;stroke:none" /><path id="color-region-23" d="M 1261,1349 L 1205,1361 L 1242,1428 L 1261,1424 Z" transform="matrix(0.188618125,0,0,0.188618125,307.37811500000004,68.360344)" style="fill:transparent;stroke:none" /><path id="color-region-24" d="M 925,1415 L 873,1425 L 873,1500 L 925,1489 Z" transform="matrix(0.188618125,0,0,0.188618125,307.37811500000004,68.360344)" style="fill:transparent;stroke:none" /><path id="color-region-25" d="M 572,1483 L 544,1488 L 545,1550 Z" transform="matrix(0.188618125,0,0,0.188618125,307.37811500000004,68.360344)" style="fill:transparent;stroke:none" /><path id="color-region-26" d="M 266,1541 L 214,1552 L 214,1626 L 266,1615 Z" transform="matrix(0.188618125,0,0,0.188618125,307.37811500000004,68.360344)" style="fill:transparent;stroke:none" /><path style="display:inline;fill:transparent;stroke-width:0.24507;stroke-opacity:1;stroke:none" d="M 3.0048524,59.622597 V 2.530402 H 79.549513 156.09417 V 59.622597 116.71479 H 79.549513 3.0048524 Z M 92.614411,85.321992 c 0.29359,-0.217456 1.77973,-3.505397 3.302532,-7.306539 l 2.768735,-6.911163 4.852772,0.04613 c 3.29888,0.03136 4.99536,-0.0722 5.29803,-0.323395 0.31713,-0.26319 0.44526,-1.122306 0.44526,-2.985511 0,-2.093648 0.0999,-2.654315 0.50032,-2.807971 1.00902,-0.387199 1.39744,-0.199449 1.40232,0.677835 0.01,1.725095 0.23365,1.810158 5.06235,1.922033 3.57296,0.08278 4.60369,0.0084 5.18766,-0.374202 0.72678,-0.476206 0.74159,-0.454293 5.42531,8.030695 5.02434,9.102052 5.50094,9.69082 7.14383,8.8251 2.02534,-1.067251 1.79399,-1.79626 -3.65777,-11.526133 l -4.87259,-8.69622 h 3.9011 c 4.45231,0 4.89519,-0.199297 4.89519,-2.202854 0,-1.179189 0.36462,-1.592749 1.40428,-1.592749 0.222,0 0.53077,0.604924 0.68615,1.344276 l 0.28251,1.344276 2.16315,0.09418 c 1.32247,0.05758 2.33648,-0.04967 2.60913,-0.275953 0.36921,-0.306413 0.44598,-2.403503 0.44598,-12.181533 0,-13.495902 0.24499,-12.466259 -2.96612,-12.466259 -1.98857,0 -2.72728,0.646774 -2.72728,2.387848 0,0.911075 -0.0684,0.971849 -0.9489,0.842624 -0.90368,-0.132631 -0.9489,-0.211861 -0.9489,-1.662278 0,-2.373343 -0.28903,-2.517095 -5.06081,-2.517095 -4.3405,0 -5.0608,0.233126 -5.0608,1.637936 0,0.457155 -0.14508,0.588176 -0.50032,0.451857 -0.27518,-0.105597 -0.77335,-0.191991 -1.10705,-0.191991 -0.5427,0 -0.60673,-0.243684 -0.60673,-2.308992 0,-1.374148 -0.15368,-2.462663 -0.37956,-2.688552 -0.52979,-0.529785 -9.46531,-0.529785 -9.99509,0 -0.20876,0.208758 -0.37956,0.920433 -0.37956,1.581501 0,1.124624 -0.061,1.201941 -0.9489,1.201941 h -0.9489 v -3.099743 c 0,-1.989177 -0.13599,-3.23573 -0.37956,-3.479302 -0.26089,-0.260888 -1.83759,-0.379561 -5.04287,-0.379561 -4.460369,0 -4.68474,0.03059 -5.155698,0.70298 -0.296608,0.42347 -0.492385,1.375439 -0.492385,2.39425 0,1.572994 -0.04977,1.684202 -0.711675,1.590198 -0.671338,-0.09535 -0.72064,-0.280359 -0.869826,-3.264077 -0.08698,-1.739651 -0.273302,-3.340921 -0.414043,-3.558377 -0.186472,-0.288118 -1.577807,-0.395376 -5.128749,-0.395376 -5.650827,0 -5.527717,-0.07045 -5.527717,3.163218 0,1.929329 -0.0046,1.939075 -0.869825,1.839521 -0.838829,-0.09652 -0.875463,-0.178986 -1.027976,-2.314187 l -0.15815,-2.214101 h -2.530402 -2.530402 l -0.0812,22.580504 c -0.05903,16.417751 0.01628,22.697955 0.275953,23.010843 0.453578,0.546526 4.108924,0.58649 4.644635,0.05078 0.208759,-0.208759 0.379561,-1.046616 0.379561,-1.861902 0,-1.40523 0.04936,-1.489587 0.948901,-1.621611 l 0.9489,-0.139267 v 1.978575 c 0,2.773903 0.265873,2.972666 3.976347,2.972666 1.640241,0 2.982259,0.0562 2.982259,0.124881 0,0.06869 -0.780193,2.011575 -1.733762,4.31753 -1.834187,4.435504 -1.930178,5.292456 -0.69012,6.161026 0.815387,0.571118 1.808074,0.599358 2.52047,0.0717 z M 19.142724,76.149285 c 1.284053,-1.783143 3.350361,-4.685378 4.591795,-6.449416 l 2.257152,-3.207335 4.524922,6.449413 4.52492,6.449415 h 5.007479 5.007476 l 1.943993,-2.891133 1.943994,-2.891132 1.860219,2.891132 1.860222,2.891133 h 2.551487 2.551489 l -0.603943,-0.869825 c -0.332166,-0.478404 -1.774578,-2.540698 -3.205359,-4.582871 -1.627368,-2.322773 -2.511563,-3.86239 -2.361444,-4.111904 0.131989,-0.219373 1.422371,-2.001279 2.867522,-3.959794 1.44515,-1.958512 2.627547,-3.702117 2.627547,-3.874678 0,-0.178868 -0.99484,-0.313742 -2.314189,-0.313742 h -2.314192 l -1.646089,2.357617 c -0.90535,1.296692 -1.756722,2.425995 -1.891941,2.509564 -0.135218,0.08357 -0.949736,-0.977358 -1.810034,-2.357616 l -1.564184,-2.509565 h -2.487331 c -2.096831,0 -2.458337,0.07557 -2.302628,0.481337 0.101589,0.264737 1.407846,2.200782 2.902795,4.302325 l 2.718088,3.820986 -1.153462,1.628308 c -0.6344,0.895566 -1.813539,2.57865 -2.620304,3.740187 -0.806765,1.161533 -1.576921,2.043853 -1.711456,1.960704 -0.620619,-0.383562 -11.345091,-15.733372 -11.213562,-16.049837 0.08194,-0.197153 2.652827,-3.699375 5.713078,-7.782716 3.060256,-4.083345 5.564098,-7.540124 5.564098,-7.681738 0,-0.14161 -1.378253,-0.216738 -3.062786,-0.166946 l -3.062786,0.09053 -4.303055,5.693405 -4.303057,5.693404 -3.982257,-5.693404 -3.982257,-5.693405 -3.359863,-0.08978 c -1.847924,-0.04938 -3.359862,-0.02108 -3.359862,0.06288 0,0.08396 2.490865,3.644386 5.535254,7.912061 3.04439,4.267672 5.535255,7.904716 5.535255,8.082316 0,0.177602 -2.773262,4.058999 -6.162805,8.62533 -3.389542,4.566329 -6.165077,8.409168 -6.167855,8.539642 -0.0028,0.130474 1.463823,0.237225 3.259112,0.237225 h 3.264161 z" id="path1" transform="matrix(4.867969,0,0,4.867969,-59.449507,42.184767)" /><path style="display:inline;fill:transparent;stroke-width:0.122535;stroke-opacity:1;stroke:none" d="m 12.676032,77.928474 c 0.104235,-0.169229 11.230944,-15.210716 11.629174,-15.720738 0.09526,-0.121995 -1.493841,-2.481157 -4.793737,-7.116756 -2.714924,-3.813847 -5.110521,-7.165562 -5.32355,-7.448255 l -0.387324,-0.513988 h 1.813739 1.813739 l 3.160525,4.467741 c 3.365869,4.758019 4.46656,6.375948 5.177516,7.610544 l 0.443731,0.770552 0.970439,-1.507006 c 0.533741,-0.828852 2.642876,-3.716991 4.686966,-6.418084 l 3.716528,-4.911079 1.551298,-0.0063 c 1.200864,-0.0049 1.524175,0.03832 1.431235,0.191354 -0.06603,0.108728 -2.499636,3.394307 -5.408004,7.301287 -4.868881,6.540649 -5.271697,7.129709 -5.08294,7.433056 0.112751,0.181201 2.600046,3.674331 5.527323,7.762512 2.927276,4.088181 5.450532,7.628767 5.607233,7.867969 l 0.284911,0.434912 -1.876453,-0.0034 -1.876453,-0.0034 -3.637453,-5.159527 c -2.000599,-2.83774 -4.160282,-5.949785 -4.799297,-6.915655 -0.639014,-0.965872 -1.227294,-1.756129 -1.307289,-1.756129 -0.08,0 -0.660263,0.790981 -1.289483,1.757735 -0.629221,0.966755 -2.816475,4.079182 -4.860565,6.916506 l -3.716528,5.158769 -1.788523,0.0026 c -1.390815,0.002 -1.761446,-0.0414 -1.666758,-0.195125 z" id="path2" transform="matrix(4.867969,0,0,4.867969,-59.449507,42.184767)" /><path style="display:inline;fill:transparent;stroke-width:0.122535;stroke-opacity:1;stroke:none" d="m 43.303953,76.900498 c 0.474336,-0.674115 1.69128,-2.399928 2.70432,-3.835141 1.01304,-1.435212 1.815051,-2.716228 1.782246,-2.846702 -0.0328,-0.130474 -1.087975,-1.69616 -2.344823,-3.479303 -1.256848,-1.783142 -2.3395,-3.331036 -2.405892,-3.439765 -0.09138,-0.149653 0.111363,-0.197687 0.834399,-0.197687 h 0.955112 l 1.241242,1.858264 c 0.682683,1.022045 1.54621,2.374228 1.918948,3.004852 0.372738,0.630624 0.722971,1.14623 0.778295,1.145792 0.05532,-4.38e-4 0.450967,-0.516402 0.879207,-1.146588 0.428241,-0.630186 1.375463,-1.982011 2.10494,-3.004056 l 1.32632,-1.858264 h 0.869709 c 0.651723,0 0.840859,0.04955 0.754604,0.197687 -0.06331,0.108729 -1.182466,1.650945 -2.487018,3.427147 -1.304553,1.776203 -2.371914,3.310645 -2.371914,3.409873 0,0.09923 1.172288,1.848511 2.605084,3.887296 1.432797,2.038786 2.658706,3.795843 2.724244,3.904571 0.09002,0.149351 -0.110906,0.197687 -0.821761,0.197687 h -0.94092 l -2.237803,-3.400227 c -1.230792,-1.870125 -2.259771,-3.400228 -2.28662,-3.400228 -0.02685,0 -1.066646,1.530103 -2.31066,3.400228 l -2.261844,3.400227 h -0.935923 -0.935922 z" id="path8" transform="matrix(4.867969,0,0,4.867969,-59.449507,42.184767)" /></g><g id="Outline" style="display:inline" transform="matrix(0.20542448,0,0,0.20542448,12.212384,-8.6657839)"><rect style="display:inline;fill:none;stroke:#000000;stroke-width:1.33306;stroke-dasharray:none;stroke-opacity:1" id="rect1" width="154.88843" height="115.74319" x="2.0926507" y="1.7971287" transform="matrix(4.8679691,0,0,4.8679691,-59.449507,42.184767)" ns2:label="CardBoundary" /><rect style="display:inline;fill:none;stroke-width:3.76223;stroke-opacity:0.967872" id="rect4" width="418.80923" height="452.6835" x="266.97534" y="68.360344" ns2:label="ImageContainer" /><path style="font-size:22.325px;font-family:'Comic Sans MS';-inkscape-font-specification:'Comic Sans MS';display:inline;fill:#000000;fill-opacity:1;stroke:none;stroke-width:6.43992;stroke-opacity:1" d="m 511.50571,584.74849 q 0,0.38153 -0.67585,1.11189 -0.50144,0.50144 -0.99198,1.00288 -1.21,1.37351 -1.89675,3.92431 -0.59955,2.22378 -0.59955,4.37126 0,5.53764 2.5072,8.12115 0.50144,0.39243 1.01378,0.78486 0.63225,0.50144 0.63225,0.99198 0,0.35973 -0.28342,0.62135 -0.28342,0.27253 -0.65405,0.27253 -0.32703,0 -0.78487,-0.25072 -4.61107,-2.58351 -4.61107,-10.79187 0,-2.95414 1.1882,-5.98459 1.3299,-3.36837 3.48828,-4.88359 0.43603,-0.30523 0.68675,-0.30523 0.39244,0 0.68676,0.31613 0.29432,0.30522 0.29432,0.69766 z m 7.03107,17.17978 q -2.23468,0 -3.7281,-1.35171 -1.56973,-1.41711 -1.56973,-3.739 0,-2.21288 1.47162,-4.56747 1.63513,-2.61621 3.6845,-2.61621 1.06828,0 2.38729,0.50144 1.66784,0.64315 1.66784,1.56973 0,0.41423 -0.27253,0.74126 -0.27252,0.31612 -0.67585,0.31612 -0.31613,0 -0.55595,-0.18531 -0.22891,-0.19622 -0.44693,-0.38153 -0.64315,-0.51234 -2.10387,-0.51234 -1.11189,0 -2.20198,1.98396 -0.99198,1.82044 -0.99198,3.15035 0,1.43892 0.98108,2.26738 0.91567,0.77397 2.35459,0.77397 0.65405,0 1.39531,-0.34883 l 1.2645,-0.67586 q 0.32703,-0.17441 0.46874,-0.17441 0.40333,0 0.69766,0.32703 0.29432,0.31612 0.29432,0.73035 0,0.79577 -1.67873,1.53703 -1.47162,0.65405 -2.4418,0.65405 z m 12.61232,-7.02016 q 0,8.20836 -4.62198,10.79187 -0.44693,0.25072 -0.77396,0.25072 -0.37063,0 -0.65405,-0.27253 -0.28342,-0.26162 -0.28342,-0.62135 0,-0.49054 0.63225,-0.99198 0.50144,-0.39243 1.01378,-0.78486 2.5072,-2.58351 2.5072,-8.12115 0,-2.14748 -0.59955,-4.37126 -0.69765,-2.5508 -1.89675,-3.92431 -0.50144,-0.50144 -0.99198,-1.00288 -0.67586,-0.73036 -0.67586,-1.11189 0,-0.39244 0.28343,-0.69766 0.29432,-0.31613 0.68675,-0.31613 0.25072,0 0.69766,0.30523 2.15837,1.51522 3.48828,4.88359 1.1882,3.03045 1.1882,5.98459 z m 24.97391,7.23818 q -0.58865,0 -0.97018,-0.61045 -0.32703,-0.52324 -0.58865,-1.74414 l -0.39243,-1.87495 q -0.44693,-1.74414 -1.41711,-7.69602 l -2.18018,6.57323 -0.64315,2.07116 q -0.39243,1.2318 -0.81757,2.01667 -0.45783,0.82846 -1.2318,0.82846 -0.64315,0 -1.01378,-0.69765 -0.23982,-0.45784 -0.43603,-1.1664 l -0.31613,-1.20999 q -1.10099,-3.84801 -1.94035,-8.24107 l -0.39244,1.95126 -1.40621,5.75566 q -0.0872,1.01378 -0.54504,2.99774 -0.32703,0.85027 -1.07919,0.85027 -0.53414,0 -0.85027,-0.38153 -0.27252,-0.32702 -0.27252,-0.80666 0,-1.82045 0.75216,-4.46936 l 1.1991,-4.39306 0.63225,-3.43377 q 0.47964,-2.4091 1.01378,-3.15036 0.43603,-0.63225 1.07919,-0.63225 0.70855,0 1.05738,0.80667 0.42514,0.97017 0.91568,3.95701 0.57774,3.58639 1.79864,7.76143 1.61333,-4.19684 2.79063,-8.7425 l 0.32702,-1.59153 q 0.19622,-0.95928 0.51234,-1.54793 0.42514,-0.80666 1.1664,-0.80666 0.93747,0 1.42801,1.80954 0.17442,0.62135 0.42514,2.57261 0.64315,4.9272 1.60243,8.41548 l 0.53414,1.87495 q 0.41423,1.50432 0.41423,1.85315 0,0.46874 -0.35973,0.78486 -0.34882,0.31613 -0.79576,0.31613 z m 12.02367,-0.18532 q -0.20711,0 -0.75216,-0.47963 -0.49054,-0.44694 -0.73036,-0.79577 -1.04648,0.56685 -1.84225,0.85027 -0.79576,0.29432 -1.3299,0.29432 -2.55081,0 -3.7172,-1.43891 -1.10099,-1.35171 -1.10099,-4.14234 0,-2.63801 1.80954,-4.51296 1.82045,-1.87495 4.33855,-1.87495 0.94838,0 2.12568,0.49054 1.48252,0.61045 1.48252,1.47162 0,0.29432 -0.21802,0.52324 -0.10901,0.41423 -0.17442,1.36261 -0.0545,0.94838 -0.0654,2.43089 -0.0109,1.35171 0.18531,2.13658 0.10901,0.47964 0.68676,1.91855 0.0763,0.19622 0.25072,0.57775 l 0.0654,0.18531 q 0,0.43604 -0.30522,0.71946 -0.30522,0.28342 -0.70856,0.28342 z m -2.26738,-7.57611 q 0,-0.46873 0.0545,-1.01378 0.0654,-0.55594 0.18532,-1.17729 -0.40333,-0.20712 -0.69766,-0.30523 -0.28342,-0.0981 -0.45783,-0.0981 -1.68964,0 -2.92144,1.38442 -1.2209,1.37351 -1.2209,3.17215 0,1.78775 0.63225,2.68162 0.63225,0.89387 1.89676,0.89387 1.04648,0 1.77684,-0.38153 0.39243,-0.20712 1.10099,-0.82847 -0.34883,-2.88873 -0.34883,-4.32765 z m 14.14934,2.15838 -0.25072,3.66269 q -0.0654,2.18018 -0.44694,3.56459 -0.49054,1.76594 -1.56972,2.60531 -1.30811,1.01378 -3.78261,1.01378 -1.44982,0 -2.4309,-0.19621 -1.37351,-0.27253 -1.37351,-1.1337 0,-0.97017 0.94838,-0.97017 0.39243,0 1.30811,0.18531 0.91567,0.19622 2.02756,0.17442 2.09297,-0.0327 2.88873,-2.02757 0.52324,-1.32991 0.55595,-4.08783 -0.58865,1.09009 -1.40622,1.63513 -0.80666,0.54505 -1.85315,0.54505 -1.97306,0 -3.21576,-1.34081 -1.2318,-1.35171 -1.2318,-3.49918 0,-2.94324 1.68964,-4.74188 1.74414,-1.85315 4.75278,-1.85315 1.01379,0 1.70054,0.26162 0.68676,0.26162 1.04649,0.78486 1.16639,0.0327 1.16639,1.2972 0,0.77397 -0.22892,2.07117 -0.25072,1.50432 -0.29432,2.04937 z m -3.49918,-4.72008 q -2.07117,0 -3.20486,1.42801 -1.01378,1.28631 -1.01378,3.27027 0,1.58062 0.59954,2.37639 0.59955,0.79576 1.79865,0.79576 1.10099,0 2.13657,-1.2427 0.93748,-1.14459 1.06829,-2.26738 0.22892,-1.1773 0.49054,-3.6954 -0.43604,-0.33793 -0.90478,-0.50144 -0.46873,-0.16351 -0.97017,-0.16351 z m 8.45908,-4.38216 q -0.52324,0 -0.90477,-0.37063 -0.38153,-0.37063 -0.38153,-0.89387 0,-0.52324 0.38153,-0.89387 0.38153,-0.37063 0.90477,-0.37063 0.52324,0 0.89387,0.37063 0.38153,0.37063 0.38153,0.89387 0,0.52324 -0.38153,0.89387 -0.37063,0.37063 -0.89387,0.37063 z m 0.49054,8.85152 q 0,0.65405 0.0327,1.96216 0.0436,1.2972 0.0436,1.95125 0,0.47964 -0.29433,0.78487 -0.29432,0.30522 -0.77396,0.30522 -0.46874,0 -0.77396,-0.30522 -0.29433,-0.30523 -0.29433,-0.78487 0,-0.65405 -0.0436,-1.95125 -0.0327,-1.30811 -0.0327,-1.96216 0,-1.02469 0.10901,-2.55081 0.10901,-1.53702 0.10901,-2.56171 0,-0.49054 0.29432,-0.79576 0.30522,-0.30522 0.77396,-0.30522 0.46874,0 0.76306,0.30522 0.30523,0.30522 0.30523,0.79576 0,1.02469 -0.10901,2.56171 -0.10901,1.52612 -0.10901,2.55081 z m 8.61169,5.63575 q -2.23468,0 -3.7281,-1.35171 -1.56972,-1.41711 -1.56972,-3.739 0,-2.21288 1.47161,-4.56747 1.63514,-2.61621 3.6845,-2.61621 1.06829,0 2.38729,0.50144 1.66784,0.64315 1.66784,1.56973 0,0.41423 -0.27252,0.74126 -0.27253,0.31612 -0.67586,0.31612 -0.31612,0 -0.55594,-0.18531 -0.22892,-0.19622 -0.44694,-0.38153 -0.64315,-0.51234 -2.10387,-0.51234 -1.11189,0 -2.20198,1.98396 -0.99198,1.82044 -0.99198,3.15035 0,1.43892 0.98108,2.26738 0.91568,0.77397 2.35459,0.77397 0.65406,0 1.39532,-0.34883 l 1.2645,-0.67586 q 0.32702,-0.17441 0.46874,-0.17441 0.40333,0 0.69765,0.32703 0.29433,0.31612 0.29433,0.73035 0,0.79577 -1.67874,1.53703 -1.47162,0.65405 -2.4418,0.65405 z m 9.52737,-7.08557 q -0.30522,0 -1.3299,-0.14171 -0.0872,1.64603 -0.0872,5.76656 0,0.43604 -0.28342,0.74126 -0.28343,0.29433 -0.70856,0.29433 -0.43604,0 -0.71946,-0.29433 -0.28342,-0.30522 -0.28342,-0.74126 v -3.20485 q 0,-1.60243 0.19621,-4.51297 0.21802,-3.15035 0.23982,-4.51296 v -1.50432 q 0,-1.07919 0.13081,-1.56973 0.25073,-0.95928 1.06829,-0.82847 0.34883,-0.10901 0.99198,-0.16351 0.64315,-0.0545 1.58063,-0.0545 1.99486,0 3.739,1.36261 1.91855,1.50433 1.91855,3.6191 0,2.70341 -2.04936,4.30584 -1.83135,1.43892 -4.40396,1.43892 z m 0.54505,-8.6553 q -0.47964,0 -0.86117,0.0218 -0.37063,0.0218 -0.63225,0.0654 l -0.0218,2.00576 -0.22892,4.33855 1.19909,0.14171 q 1.83135,0 3.08495,-0.92657 1.37351,-1.01378 1.37351,-2.73612 0,-1.2209 -1.3081,-2.10387 -1.21,-0.80667 -2.60531,-0.80667 z m 13.17916,15.55556 q -2.4636,0 -3.98972,-1.2318 -1.66783,-1.36261 -1.66783,-3.81531 0,-2.83423 1.37351,-4.75278 1.49342,-2.09297 3.98972,-2.09297 1.80954,0 2.95414,0.61045 1.40621,0.75216 1.40621,2.31098 0,1.09009 -1.2318,1.98396 -0.54504,0.39243 -2.31099,1.2209 l -4.16413,1.97306 q 0.61045,0.90477 1.51522,1.36261 0.91567,0.45784 2.12567,0.45784 0.75216,0 1.76594,-0.28343 1.28631,-0.35972 1.65694,-0.93747 0.37063,-0.58865 0.79576,-0.58865 0.38153,0 0.67586,0.29433 0.30522,0.28342 0.30522,0.66495 0,1.21 -1.95126,2.08207 -1.66783,0.74126 -3.24846,0.74126 z m -0.29432,-9.9307 q -1.32991,0 -2.21288,1.03558 -0.88297,1.02468 -1.31901,3.09585 l 3.34657,-1.59153 q 1.97306,-0.95928 2.81243,-1.66783 -0.93747,-0.87207 -2.62711,-0.87207 z m 15.79537,10.20322 q -0.93748,0 -1.05739,-1.02468 l -0.30522,-2.3873 q -0.15261,-1.2754 -0.15261,-2.38729 0,-0.30522 0.0327,-1.03558 0.0436,-0.73036 0.0436,-1.03559 0,-2.35459 -0.87207,-2.35459 -1.2209,0 -2.33279,1.44982 -1.00288,1.31901 -1.56972,3.33567 -0.0218,0.42513 -0.0981,1.06829 -0.0654,0.54504 -0.0654,1.05738 0,0.32703 0.0654,0.98108 0.0654,0.65405 0.0654,0.98108 0,0.49054 -0.30522,0.79576 -0.29432,0.30523 -0.76306,0.30523 -0.47964,0 -0.77396,-0.30523 -0.29433,-0.30522 -0.29433,-0.79576 0,-0.32703 -0.0763,-0.98108 -0.0654,-0.65405 -0.0654,-0.98108 0,-1.12279 0.15261,-3.10675 0.16352,-1.99486 0.16352,-3.11765 0,-0.34883 -0.0436,-1.03558 -0.0327,-0.68676 -0.0327,-1.03559 0,-0.46874 0.30522,-0.76306 0.31613,-0.30522 0.77397,-0.30522 1.00288,0 1.10099,1.41711 l 0.0327,1.2754 q 1.83135,-2.44179 3.7608,-2.44179 1.74414,0 2.4309,1.53702 0.46874,1.02468 0.51234,3.03044 v 1.10099 l -0.0109,1.01379 q 0,0.90477 0.22892,2.34368 0.23982,1.42802 0.23982,2.32189 0,0.47964 -0.31613,0.77396 -0.30522,0.30523 -0.77396,0.30523 z m 8.25196,-0.0872 q -2.23468,0 -3.7281,-1.35171 -1.56973,-1.41711 -1.56973,-3.739 0,-2.21288 1.47162,-4.56747 1.63513,-2.61621 3.6845,-2.61621 1.06828,0 2.38729,0.50144 1.66783,0.64315 1.66783,1.56973 0,0.41423 -0.27252,0.74126 -0.27252,0.31612 -0.67585,0.31612 -0.31613,0 -0.55595,-0.18531 -0.22892,-0.19622 -0.44693,-0.38153 -0.64316,-0.51234 -2.10387,-0.51234 -1.11189,0 -2.20198,1.98396 -0.99198,1.82044 -0.99198,3.15035 0,1.43892 0.98108,2.26738 0.91567,0.77397 2.35459,0.77397 0.65405,0 1.39531,-0.34883 l 1.2645,-0.67586 q 0.32703,-0.17441 0.46874,-0.17441 0.40333,0 0.69766,0.32703 0.29432,0.31612 0.29432,0.73035 0,0.79577 -1.67873,1.53703 -1.47162,0.65405 -2.4418,0.65405 z m 8.6226,-14.48727 q -0.52325,0 -0.90478,-0.37063 -0.38153,-0.37063 -0.38153,-0.89387 0,-0.52324 0.38153,-0.89387 0.38153,-0.37063 0.90478,-0.37063 0.52324,0 0.89387,0.37063 0.38153,0.37063 0.38153,0.89387 0,0.52324 -0.38153,0.89387 -0.37063,0.37063 -0.89387,0.37063 z m 0.49054,8.85152 q 0,0.65405 0.0327,1.96216 0.0436,1.2972 0.0436,1.95125 0,0.47964 -0.29432,0.78487 -0.29433,0.30522 -0.77396,0.30522 -0.46874,0 -0.77397,-0.30522 -0.29432,-0.30523 -0.29432,-0.78487 0,-0.65405 -0.0436,-1.95125 -0.0327,-1.30811 -0.0327,-1.96216 0,-1.02469 0.10901,-2.55081 0.10901,-1.53702 0.10901,-2.56171 0,-0.49054 0.29433,-0.79576 0.30522,-0.30522 0.77396,-0.30522 0.46874,0 0.76306,0.30522 0.30522,0.30522 0.30522,0.79576 0,1.02469 -0.109,2.56171 -0.10901,1.52612 -0.10901,2.55081 z m 6.45332,-3.61909 -0.16351,5.41773 q 0,0.86117 -0.0872,2.52901 -0.10901,1.09008 -1.06828,1.09008 -1.06829,0 -1.06829,-1.11189 0,-1.319 0.11991,-3.95701 0.11991,-2.64892 0.11991,-3.96792 0,-1.72234 0.0545,-3.93522 0.0545,-2.22378 0.0545,-3.94612 0,-1.09009 1.06828,-1.09009 1.07919,0 1.07919,1.09009 0,1.72234 -0.0545,3.94612 -0.0545,2.21288 -0.0545,3.93522 z m 4.74188,9.58187 q -0.56685,0 -0.95928,-0.39243 -0.39243,-0.39244 -0.39243,-0.95928 0,-0.55595 0.39243,-0.94838 0.39243,-0.40333 0.95928,-0.40333 0.55594,0 0.94838,0.40333 0.40333,0.39243 0.40333,0.94838 0,0.56684 -0.40333,0.95928 -0.39244,0.39243 -0.94838,0.39243 z m 11.48953,-16.34042 q -2.63802,0 -2.95414,3.6627 l -0.0327,0.67585 q 1.85315,-0.13081 2.3982,-0.13081 1.73324,0 1.73324,1.09009 0,0.79576 -0.85027,0.94837 -0.37063,0.0654 -0.87207,0.0545 -0.49054,-0.0218 -2.5072,0.14171 l -0.0872,2.4854 q 0,0.67585 0.0436,2.02756 0.0436,1.35171 0.0436,2.01667 0,2.07116 -0.23982,3.22666 -0.18532,0.87207 -1.01378,0.87207 -0.44694,0 -0.76307,-0.29433 -0.31612,-0.28342 -0.31612,-0.71945 0,-0.0872 0.0218,-0.21802 0.22892,-1.41712 0.22892,-3.08495 l -0.0327,-2.97594 v -3.16126 q -1.36261,0.10901 -1.72234,0.10901 -1.10099,0 -1.10099,-1.05738 0,-1.07919 1.90765,-1.13369 l 1.04649,-0.0327 q 0.0327,-0.61045 0.16351,-1.65693 0.28342,-2.42 1.2209,-3.56459 1.13369,-1.38441 3.54278,-1.38441 1.55883,0 1.55883,1.05739 0,1.04648 -1.41711,1.04648 z m 12.91755,8.96052 q 0,0.78487 0.0109,2.35459 0.0109,1.56973 0.0109,2.35459 0,0.23982 0.0327,0.73036 0.0436,0.49054 0.0436,0.73036 0,0.46874 -0.31612,0.76306 -0.31613,0.30523 -0.77396,0.30523 -0.83937,0 -1.06829,-1.03559 -1.36261,0.70856 -3.13945,0.70856 -1.42802,0 -2.36549,-0.63225 -1.03559,-0.69766 -1.2318,-2.03847 -0.42514,-2.88873 -0.42514,-5.14521 0,-1.49342 0.32703,-3.40107 0.15261,-0.94838 1.03558,-0.94838 0.46874,0 0.78487,0.30522 0.31612,0.29433 0.31612,0.76306 0,0.50145 -0.16351,1.60243 -0.15261,1.10099 -0.15261,1.67874 0,1.82045 0.11991,3.11765 0.1199,1.29721 0.35972,2.08207 0.35973,0.19621 0.70856,0.30522 0.34883,0.0981 0.68676,0.0981 1.46071,0 3.08495,-0.46874 l -0.0109,-2.21287 -0.0218,-2.11478 q 0,-2.35459 0.20712,-4.08783 0.11991,-1.00288 1.05738,-1.00288 0.46874,0 0.78487,0.30523 0.31612,0.30522 0.29432,0.76306 z m 11.07529,7.14008 q -0.93748,0 -1.05739,-1.02468 l -0.30522,-2.3873 q -0.15261,-1.2754 -0.15261,-2.38729 0,-0.30522 0.0327,-1.03558 0.0436,-0.73036 0.0436,-1.03559 0,-2.35459 -0.87207,-2.35459 -1.2209,0 -2.33279,1.44982 -1.00288,1.31901 -1.56972,3.33567 -0.0218,0.42513 -0.0981,1.06829 -0.0654,0.54504 -0.0654,1.05738 0,0.32703 0.0654,0.98108 0.0654,0.65405 0.0654,0.98108 0,0.49054 -0.30523,0.79576 -0.29432,0.30523 -0.76306,0.30523 -0.47964,0 -0.77396,-0.30523 -0.29433,-0.30522 -0.29433,-0.79576 0,-0.32703 -0.0763,-0.98108 -0.0654,-0.65405 -0.0654,-0.98108 0,-1.12279 0.15261,-3.10675 0.16352,-1.99486 0.16352,-3.11765 0,-0.34883 -0.0436,-1.03558 -0.0327,-0.68676 -0.0327,-1.03559 0,-0.46874 0.30523,-0.76306 0.31612,-0.30522 0.77396,-0.30522 1.00288,0 1.10099,1.41711 l 0.0327,1.2754 q 1.83135,-2.44179 3.7608,-2.44179 1.74414,0 2.4309,1.53702 0.46874,1.02468 0.51234,3.03044 v 1.10099 l -0.0109,1.01379 q 0,0.90477 0.22892,2.34368 0.23982,1.42802 0.23982,2.32189 0,0.47964 -0.31613,0.77396 -0.30522,0.30523 -0.77396,0.30523 z" id="text1" aria-label="(c) MagicPencil.fun" ns2:label="websitetext" /><text xml:space="preserve" id="text3" style="font-style:normal;font-variant:normal;font-weight:normal;font-stretch:normal;font-size:12px;font-family:Arial;-inkscape-font-specification:Arial;text-align:start;writing-mode:lr-tb;direction:ltr;white-space:pre;shape-inside:url(#rect3);display:inline;fill:#000000;stroke-width:5" transform="matrix(4.867969,0,0,4.867969,579.5425,74.519303)" ns2:label="ImageTitle"><tspan x="-34.792969" y="100.63913" id="tspan1">Xylophone</tspan></text><g id="text27" style="font-size:48px;font-family:'Comic Sans MS';-inkscape-font-specification:'Comic Sans MS';white-space:pre;fill:none;stroke:#000000;stroke-width:0.890761" ns2:label="Letter" transform="matrix(5.4649548,0,0,5.4649548,-85.031275,0.67005549)" aria-label="Xx"><path style="font-size:40px;font-family:Arial;-inkscape-font-specification:Arial" d="M 14.726563,77.764316 25.800781,62.842441 16.035156,49.131503 h 4.511719 l 5.195312,7.34375 q 1.621094,2.285157 2.304688,3.515625 0.957031,-1.5625 2.265625,-3.261718 l 5.761719,-7.597657 h 4.121093 L 30.136719,62.627597 40.976562,77.764316 h -4.6875 L 29.082031,67.549472 q -0.605469,-0.878906 -1.25,-1.914062 -0.957031,1.5625 -1.367187,2.148437 l -7.1875,9.980469 z" id="path4" /><path style="font-size:28px;font-family:Arial;-inkscape-font-specification:Arial" d="m 41.435547,77.764316 5.304687,-7.546875 -4.908203,-6.972656 h 3.076172 l 2.228516,3.404296 q 0.628906,0.970704 1.011718,1.626954 0.601563,-0.902344 1.107422,-1.59961 l 2.447266,-3.43164 h 2.939453 L 49.625,70.080722 55.025391,77.764316 H 52.003906 L 49.023437,73.252597 48.230469,72.0358 44.416016,77.764316 Z" id="path6" /></g><path id="outline-0" d="m 405,2068.9848 c -13.92209,-2.4132 -28.87559,-12.0832 -36.19345,-23.4054 -5.66065,-8.7581 -7.91769,-17.0565 -7.88425,-28.9878 l 0.0278,-9.9083 10.16279,-25.0917 c 30.6303,-75.6253 36.05004,-88.959 39.8712,-98.0916 4.06552,-9.7166 30.00082,-73.6725 36.58843,-90.2262 l 3.27365,-8.2262 -77.17307,-0.2738 L 296.5,1784.5 l -5.67515,-2.6604 c -6.33817,-2.9712 -13.9427,-9.501 -17.36495,-14.9107 -5.32927,-8.4242 -5.37721,-8.9725 -5.50352,-62.9434 l -0.11739,-50.1619 -2.1695,0.5399 c -1.19322,0.2969 -12.16971,2.5749 -24.3922,5.0623 -12.22249,2.4873 -23.33364,4.8012 -24.69144,5.142 l -2.46874,0.6196 -0.30855,34.6807 -0.30856,34.6807 -3.24128,6.5806 c -4.06163,8.2461 -10.92858,14.8037 -18.8093,17.9619 -5.81392,2.33 -6.7549,2.3916 -41.31574,2.7055 -38.20033,0.3469 -46.21457,-0.2839 -54.049162,-4.254 -6.483801,-3.2856 -14.443484,-12.2135 -17.013919,-19.0837 L 77,1732.925 77,1169.099 c 0,-377.22024 0.335895,-565.59719 1.014899,-569.17756 2.130459,-11.23387 9.289403,-20.46758 19.914078,-25.68546 L 103.5,571.5 h 42 42 l 5.6965,2.67018 c 7.2549,3.40067 13.66646,9.81224 17.38429,17.38429 L 213.5,597.5 l 0.5,47.42982 0.5,47.42982 24,4.36693 c 13.2,2.40182 25.125,4.4584 26.5,4.57018 l 2.5,0.20325 0.23264,-52 c 0.14833,-33.15683 0.62603,-53.63066 1.31825,-56.5 2.51433,-10.42218 13.29659,-21.99558 24.00785,-25.76941 l 6.44126,-2.2694 108.5,0.2694 108.5,0.26941 5.41733,2.85164 c 8.00764,4.21515 15.33944,11.63218 18.7085,18.92599 L 543.5,593.5 l 0.5,77.94536 0.5,77.94536 24,4.24406 c 13.2,2.33423 25.0125,4.27132 26.25,4.30464 L 597,758 l 0.008,-44.75 c 0.008,-46.01206 0.56202,-54.5258 3.98668,-61.23869 3.43825,-6.73953 11.67285,-14.72209 18.81301,-18.2372 l 6.65064,-3.27411 104.02106,-0.16064 c 64.98977,-0.10037 106.27241,0.21211 110.02106,0.83277 15.60612,2.58389 28.53899,15.21453 31.4851,30.74931 0.6262,3.30192 1.0149,32.29321 1.0149,75.696 v 70.34446 l 2.25,0.47602 c 4.06746,0.86054 47.21022,7.88687 48.97065,7.97548 1.58206,0.0796 1.74704,-2.20895 2.04827,-28.4134 0.30134,-26.21448 0.49939,-28.95976 2.46966,-34.23308 3.78656,-10.1345 10.76615,-18.43296 19.06382,-22.66611 8.05336,-4.10852 11.35624,-4.21569 120.2501,-3.902 l 104.5526,0.30119 7.6321,3.77234 c 8.685,4.29271 14.1932,9.83196 18.5023,18.60651 l 2.7605,5.62115 0.29,55.28965 0.2899,55.28964 2.2101,0.92653 c 2.3228,0.97379 53.8624,10.00248 57.0684,9.99722 1.7064,-0.003 1.8068,-0.6422 1.227,-7.81514 -1.7745,-21.95212 6.9857,-39.14224 23.0005,-45.13415 5.4009,-2.02075 7.0754,-2.05374 104.2016,-2.05296 l 98.7125,7.9e-4 6.1694,2.91865 c 11.1946,5.29595 18.2657,14.78463 20.2832,27.21787 0.5678,3.49904 1.0357,20.60452 1.0398,38.01216 l 0.01,31.65026 4.75,1.03977 c 8.1857,1.79184 14.3902,3.01765 25.75,5.08737 6.05,1.1023 14.7622,2.69451 19.3605,3.53826 4.5982,0.84374 8.9505,1.53408 9.6717,1.53408 1.0451,0 1.378,-6.04167 1.6396,-29.75 l 0.3282,-29.75 3.3865,-6.74849 c 3.6136,-7.20083 9.4987,-13.38388 15.7641,-16.5621 7.8083,-3.96089 13.096,-4.36295 52.8494,-4.01859 l 38,0.32918 6.5,3.11311 c 8.2387,3.94584 13.4411,9.14821 17.3869,17.38689 l 3.1131,6.5 v 292.5 292.5 l -2.8795,6.2343 c -3.6692,7.9441 -10.3202,14.2614 -18.0656,17.1593 -5.7241,2.1416 -6.7183,2.1805 -48.4495,1.8964 l -42.6054,-0.29 -5.7244,-2.811 c -6.8653,-3.3713 -14.9281,-11.9725 -17.4277,-18.5914 -1.4525,-3.8463 -1.7979,-9.0508 -2.1136,-31.8476 -0.2779,-20.069 -0.6879,-27.239 -1.5558,-27.2083 -0.6482,0.023 -6.3535,1.154 -12.6785,2.5135 -6.325,1.3595 -18.25,3.8267 -26.5,5.4827 -8.25,1.656 -16.2409,3.3374 -17.7576,3.7365 l -2.7575,0.7256 -0.2762,32 -0.2763,32 -3.0477,6.5167 c -3.3856,7.2391 -8.8726,12.7221 -17.5305,17.5177 l -5.3542,2.9656 -96.8922,0.2694 c -56.7812,0.1579 -99.0067,-0.1159 -102,-0.6615 -2.8093,-0.5121 -5.1947,-0.8464 -5.301,-0.743 -0.1062,0.1035 2.1014,4.2262 4.9059,9.1616 2.8045,4.9354 7.2424,12.9333 9.862,17.7732 2.6195,4.8398 5.2073,9.3398 5.7506,10 0.5433,0.6601 4.797,8.1753 9.4527,16.7003 4.6556,8.525 12.5114,22.7 17.4573,31.5 4.9458,8.8 16.3086,29.05 25.2506,45 8.942,15.95 20.3241,36.2 25.2937,45 4.9696,8.8 16.3355,29.05 25.2576,45 8.9222,15.95 21.0393,37.55 26.9269,48 15.817,28.0736 28.8714,51.3367 31.9862,57 6.1117,11.1124 28.1133,50.5057 41.6091,74.5 36.614,65.0969 34.3271,60.0748 34.3816,75.5 0.032,8.9795 -0.3885,12.2428 -2.288,17.7662 -5.9129,17.194 -19.4414,29.4483 -37.7851,34.2262 -7.7954,2.0304 -14.5243,1.8973 -23.7825,-0.4705 -16.3156,-4.1729 -25.2293,-11.7311 -35.474,-30.0797 -12.3325,-22.0878 -15.9487,-28.6105 -26.8572,-48.4422 -6.0505,-11 -15.1634,-27.425 -20.2507,-36.5 -5.0874,-9.075 -12.1826,-21.9 -15.7671,-28.5 -3.5846,-6.6 -9.8874,-18.075 -14.0064,-25.5 -14.0526,-25.3321 -33.9257,-61.4687 -46.1954,-84 -6.7389,-12.375 -15.0718,-27.45 -18.5175,-33.5 -7.7543,-13.6149 -31.0713,-55.9346 -42.9759,-78 -2.0772,-3.85 -7.2814,-13.3 -11.565,-21 -4.2836,-7.7 -12.2823,-22.1 -17.7748,-32 -5.4925,-9.9 -13.9396,-25.0869 -18.7714,-33.7486 l -8.785,-15.7486 -1.8155,7.1487 c -2.0483,8.0658 -5.5004,14.54 -10.1637,19.0617 -4.6068,4.4668 -14.7806,8.9327 -22.5115,9.8818 -3.6599,0.4492 -52.5543,0.6426 -108.6543,0.4295 -111.10853,-0.4218 -104.37584,-0.066 -115.44951,-6.0935 -8.24213,-4.486 -14.97998,-14.5133 -17.03559,-25.3524 -0.5582,-2.9434 -1.0149,-13.3902 -1.0149,-23.2151 0,-13.6258 -0.29653,-17.8627 -1.25,-17.8603 -2.35152,0.01 -19.24051,3.1065 -33.25,6.104 -7.7,1.6475 -14.99118,3.2006 -16.20263,3.4513 l -2.20262,0.4558 -0.31441,64.7429 c -0.28614,58.9228 -0.47218,65.1418 -2.0695,69.1812 -2.60895,6.5978 -9.13142,14.6579 -15.01033,18.5489 -10.29055,6.811 -5.71485,6.578 -123.31622,6.2806 l -105.92746,-0.2679 -6.75805,-3.3272 c -3.75121,-1.8469 -8.99597,-5.5652 -11.78793,-8.3572 -2.76645,-2.7664 -5.18854,-4.8692 -5.38243,-4.6727 -0.19389,0.1964 -1.89758,4.4071 -3.78598,9.3571 -1.88839,4.95 -10.41628,26.325 -18.95087,47.5 -14.06859,34.9053 -37.61262,94.0179 -69.30262,174 -6.42857,16.225 -20.02263,50.425 -30.20903,76 -10.18639,25.575 -19.13046,48.2127 -19.8757,50.306 -2.13721,6.0031 -9.18499,15.2882 -14.85206,19.5669 -13.1234,9.9082 -26.44178,13.5577 -40.55216,11.1119 z m 15.01923,-37.9946 c 2.16676,-1.1054 4.57426,-3.2429 5.35001,-4.75 0.77575,-1.5071 11.62622,-28.3902 24.11216,-59.7402 12.48593,-31.35 27.22806,-68.25 32.76028,-82 5.53222,-13.75 12.63165,-31.525 15.77652,-39.5 3.14487,-7.975 9.3346,-23.5 13.75495,-34.5 4.42035,-11 10.59424,-26.525 13.71975,-34.5 3.12551,-7.975 19.85726,-50.05 37.18167,-93.5 33.93219,-85.1027 45.7533,-114.8001 80.80458,-203 12.45872,-31.35 24.59017,-61.725 26.9588,-67.5 2.36862,-5.775 9.57923,-23.775 16.02358,-40 6.44434,-16.225 14.58031,-36.475 18.07993,-45 9.41333,-22.9307 28.52801,-71.2894 28.22304,-71.4022 -0.14547,-0.054 -5.2062,-2.5728 -11.24606,-5.5978 -6.03986,-3.025 -11.28477,-5.6358 -11.65536,-5.8018 -0.37059,-0.166 -1.22477,1.409 -1.89818,3.5 -0.67342,2.091 -3.46357,9.1958 -6.20034,15.7885 -4.89723,11.797 -18.88945,46.3191 -37.49681,92.5133 -5.20628,12.925 -12.84376,31.825 -16.97218,42 -16.58326,40.8715 -20.46404,50.4429 -29.59818,73 -5.23377,12.925 -12.98252,32.05 -17.21944,42.5 -4.23693,10.45 -9.49891,23.5 -11.69329,29 -2.19439,5.5 -6.46568,15.85 -9.49177,23 -5.65647,13.3651 -13.1222,31.7501 -39.99847,98.5 -8.52594,21.175 -18.33252,45.475 -21.79241,54 -3.45988,8.525 -13.48847,33.275 -22.28575,55 -15.5011,38.2802 -31.00403,76.3428 -40.73009,100 -11.321,27.5367 -21.01978,51.4942 -26.11165,64.5 -3.01461,7.7 -8.10324,20.3 -11.30807,28 -9.78456,23.5086 -19.07392,47.2874 -19.70411,50.4383 -0.81991,4.0996 0.14937,7.3279 3.33779,11.1172 5.04115,5.991 12.36461,7.4826 19.3191,3.9347 z m 1079.48097,-35.9903 c 7.3903,-3.5776 10.578,-12.9712 6.8886,-20.2996 -0.8861,-1.7601 -9.4952,-17.1503 -19.1313,-34.2003 -21.0926,-37.3212 -34.7275,-61.6901 -42.6395,-76.2074 -3.2351,-5.9359 -7.6905,-13.9426 -9.901,-17.7926 -9.0404,-15.7455 -11.9118,-20.8491 -22.2237,-39.5 -5.9298,-10.725 -13.2582,-23.775 -16.2854,-29 -6.0021,-10.3598 -19.5143,-34.3009 -30.4772,-54 -3.8261,-6.875 -8.8758,-15.875 -11.2217,-20 -5.4166,-9.5247 -20.193,-35.765 -26.7481,-47.5 -2.765,-4.95 -6.9298,-12.375 -9.2552,-16.5 -22.1369,-39.2696 -32.8654,-58.4023 -42.0556,-75 -21.1754,-38.2435 -29.2347,-52.7098 -37.8837,-68 -4.8222,-8.525 -12.3928,-22.025 -16.8236,-30 -4.4308,-7.975 -13.3109,-23.725 -19.7335,-35 -6.4227,-11.275 -18.5621,-32.875 -26.9765,-48 -8.4144,-15.125 -21.2522,-38.075 -28.5285,-51 -7.2762,-12.925 -16.6135,-29.575 -20.7493,-37 -4.1359,-7.425 -12.5227,-22.1817 -18.6374,-32.7926 -6.1147,-10.611 -11.1176,-19.7565 -11.1176,-20.3234 0,-0.5668 -0.5625,-0.8819 -1.25,-0.7002 -1.8967,0.5014 -21.75,10.7737 -21.75,11.2536 0,0.2306 1.5135,3.039 3.3633,6.2409 1.8498,3.2019 6.7253,11.8967 10.8342,19.3217 4.109,7.425 10.0913,18.225 13.2939,24 9.3439,16.849 40.8623,73.8355 52.2665,94.5 5.7671,10.45 12.3899,22.375 14.7174,26.5 2.3274,4.125 8.5321,15.375 13.7881,25 8.3177,15.2316 36.3994,66.2758 69.0433,125.5 20.771,37.6836 27.1881,49.3978 33.9641,62 3.8444,7.15 8.4462,15.475 10.2261,18.5 1.78,3.025 4.4718,7.75 5.9819,10.5 8.4647,15.4153 15.6543,28.4017 21.8682,39.5 3.8493,6.875 8.5532,15.425 10.4531,19 4.7323,8.9047 19.5581,35.8573 24.7531,45 2.3438,4.125 6.9343,12.45 10.2009,18.5 10.3723,19.21 23.8891,43.9381 28.481,52.104 2.442,4.3428 6.3703,11.496 8.7295,15.896 2.3591,4.4 8.7957,16.1 14.3035,26 5.5078,9.9 11.245,20.25 12.7493,23 25.3175,46.2809 39.0385,71.0238 44.7061,80.6173 6.7579,11.4392 13.5096,14.3687 22.7767,9.8826 z M 466.29199,1746.75 c 0.27828,-0.6875 4.20332,-10.25 8.72232,-21.25 4.51899,-11 11.04477,-26.975 14.50172,-35.5 3.45695,-8.525 8.6125,-21.125 11.45677,-28 2.84428,-6.875 5.57823,-14.075 6.07545,-16 0.53292,-2.0632 0.91383,-217.0668 0.92789,-523.75 L 508,602 l -101.99571,0 -101.99571,0 0.007,571.4474 c 0.004,314.296 0.27501,572.146 0.6027,573 0.53174,1.3856 9.22908,1.5526 80.88183,1.5526 63.2923,0 80.39312,-0.2646 80.79199,-1.25 z m -289.03188,-24 c 0.26231,-1.2375 0.57146,-252.5625 0.68701,-558.5 L 178.15719,608 176.0786,607.86364 c -1.14323,-0.075 -3.4286,-0.13637 -5.0786,-0.13637 -1.65,0 -15.15,0.0614 -30,0.13637 L 114,608 v 557.8333 c 0,306.8084 0.3,558.1334 0.66667,558.5 0.36666,0.3667 14.49288,0.6667 31.39159,0.6667 h 30.72492 z m 658.27768,-63 c 0.26126,-0.6875 0.35964,-95.6099 0.21861,-210.9386 l -0.2564,-209.6887 -5.5,3.5394 c -15.56306,10.0154 -30.66122,15.3413 -49.97192,17.628 l -10.21802,1.2099 -2.48126,6 c -1.36469,3.3 -4.86853,12.075 -7.7863,19.5 -8.24612,20.9843 -23.43684,58.9038 -26.03929,65 -1.29136,3.025 -6.86947,16.975 -12.39579,31 -5.52633,14.025 -19.5748,49.35 -31.21884,78.5 -11.64403,29.15 -23.52084,59.075 -26.39289,66.5 -2.87206,7.425 -6.82443,17.55 -8.78305,22.5 -1.95862,4.95 -5.8218,14.85 -8.58486,22 -2.76305,7.15 -6.61391,16.825 -8.55746,21.5 l -3.53372,8.5 -0.0183,29.25 L 634,1661 h 100.53138 c 79.5051,0 100.63074,-0.2614 101.00641,-1.25 z M 242,1621.7069 l 25.5,-5.2069 0.26257,-36.996 c 0.14442,-20.3479 0.0735,-37.4889 -0.15768,-38.0913 -0.28904,-0.7532 -3.80554,-0.3944 -11.26258,1.1491 -5.96327,1.2344 -17.92981,3.7043 -26.59231,5.4887 l -15.75,3.2444 v 37.8526 c 0,29.6383 0.27126,37.8431 1.25,37.8094 0.6875,-0.024 12.725,-2.3862 26.75,-5.25 z m 923.393,-58.2887 c 0.3339,-0.87 0.6042,-15.8325 0.6008,-33.25 -0,-24.4819 -0.309,-32.2355 -1.3409,-34.1682 -8.0548,-15.0869 -12.1543,-22.6566 -18.9551,-35 -4.394,-7.975 -11.7975,-21.475 -16.4523,-30 -4.6548,-8.525 -10.1573,-18.425 -12.2278,-22 -2.0706,-3.575 -11.6558,-20.9 -21.3006,-38.5 -9.6447,-17.6 -23.0293,-41.9 -29.7435,-54 -10.9796,-19.7871 -20.8194,-37.6581 -27.8661,-50.6107 l -2.5084,-4.6107 -10.0496,-0.5844 c -20.9967,-1.2212 -42.94104,-8.3351 -58.36978,-18.9224 -2.37615,-1.6305 -4.40115,-2.8087 -4.5,-2.6182 -0.0988,0.1905 -0.0632,73.5839 0.0792,163.0964 l 0.25892,162.75 h 100.88405 c 91.0706,0 100.9432,-0.1539 101.4911,-1.5818 z M 549.47103,1542.5 c 2.57105,-6.6 7.3003,-18.3 10.50943,-26 11.98946,-28.7675 14.01588,-33.837 13.66569,-34.1872 -0.19752,-0.1975 -6.73942,1.0013 -14.53758,2.6641 -7.79816,1.6627 -14.38774,3.0231 -14.64352,3.0231 -0.25578,0 -0.46505,15.15 -0.46505,33.6667 0,18.5166 0.17919,33.4791 0.39819,33.25 0.21901,-0.2292 2.50178,-5.8167 5.07284,-12.4167 z m -315.27404,-32.4178 c 24.23299,-4.9185 31.70035,-6.6462 32.59566,-7.5415 0.38904,-0.3891 0.70735,-144.9932 0.70735,-321.3425 V 860.56318 l -23.5,-4.2245 c -12.925,-2.32347 -24.9625,-4.49557 -26.75,-4.8269 l -3.25,-0.60241 0,331.54533 c 0,182.3499 0.20114,331.5453 0.44699,331.5453 0.24584,0 9.13334,-1.763 19.75,-3.9178 z M 902.25,1495.4562 926,1490.6603 v -38.4385 -38.4386 l -2.67956,0.6725 C 916.77473,1416.0986 876.74979,1424 874.97349,1424 873.04291,1424 873,1424.8395 873,1462.6135 v 38.6135 l 2.75,-0.4875 c 1.5125,-0.2681 13.4375,-2.6456 26.5,-5.2833 z m 576.2597,-25.6322 c 0.6919,-0.6922 1.3269,-604.09601 0.641,-609.07933 l -0.3793,-2.75532 -89.6357,0.25532 L 1299.5,858.5 v 305.5 305.5 l 4,0.6189 c 5.431,0.8404 174.1591,0.5561 175.0097,-0.2949 z m -894.96723,-27.3225 7.04248,-1.5742 3.21121,-8.2137 3.21121,-8.2136 -0.004,-253.1192 -0.004,-253.11912 -3.25,-0.55811 c -1.7875,-0.30696 -13.21689,-2.39084 -25.39865,-4.63084 C 556.1696,910.83273 545.7071,909 545.10135,909 544.30226,909 544,983.33936 544,1179.8737 v 270.8736 l 16.25,-3.3358 c 8.9375,-1.8347 19.41911,-4.0442 23.29247,-4.91 z M 1677.7517,1165.75 1677.5,883.5 1645.75,883.23595 1614,882.97191 V 1165.486 1448 h 32.0017 32.0018 z m -420.6639,260.9053 5.4122,-1.2016 0.2624,-37.4145 c 0.1443,-20.578 -0.1112,-37.788 -0.5677,-38.2445 -0.6652,-0.6652 -52.0169,9.0131 -57.0403,10.7505 -1.0418,0.3603 -0.8413,1.311 0.888,4.2101 1.2284,2.0596 5.4697,9.5947 9.425,16.7447 3.9552,7.15 10.7293,19.075 15.0535,26.5 4.3242,7.425 8.7885,15.2054 9.9206,17.2898 2.0215,3.7217 2.1409,3.7787 6.6463,3.1784 2.5233,-0.3362 7.0233,-1.152 10,-1.8129 z m -354.3066,-44.5515 23.2812,-4.6921 -0.0465,-90.7693 -0.0465,-90.7694 -2.3681,-4.6865 c -7.25639,-14.3605 -11.00442,-34.0241 -10.3284,-54.1865 0.54461,-16.2429 2.86668,-27.1025 9.1571,-42.8249 L 926,1085.252 v -54.5586 c 0,-51.08722 -0.11135,-54.59315 -1.75,-55.10122 C 921.80461,974.83397 876.52107,967 874.58373,967 873.15649,967 873,972.88281 873,1026.5352 c 0,50.1173 0.22773,59.8855 1.43958,61.75 2.71112,4.1711 7.67488,17.833 9.81889,27.0249 1.76557,7.5694 2.13312,12.1876 2.08439,26.1899 -0.068,19.5578 -1.88711,28.526 -9.22902,45.5 l -4.10911,9.5 -0.002,95.875 -0.002,95.875 3.25,-0.727 c 1.7875,-0.3998 13.72654,-2.8385 26.5312,-5.4192 z m 659.4688,-13.8221 14.75,-2.7801 v -38.8578 c 0,-31.1188 -0.2544,-38.7602 -1.2773,-38.3676 -0.7026,0.2696 -13.8651,3.0581 -29.25,6.1967 -15.385,3.1386 -28.5482,6.0036 -29.2516,6.3668 -1.0042,0.5185 -1.2777,8.7147 -1.2735,38.1603 0,20.625 0.016,37.7673 0.029,38.0941 0.013,0.3267 7.111,-0.8969 15.7735,-2.7191 8.6625,-1.8223 22.3875,-4.5642 30.5,-6.0933 z M 641.83641,1315 c 3.8518,-9.625 12.49581,-30.775 19.20891,-47 14.11889,-34.1241 17.95545,-43.7098 18.62303,-46.5294 0.32976,-1.3929 -1.1282,-4.0419 -4.64772,-8.4448 -9.99171,-12.4995 -18.48071,-31.6075 -22.64554,-50.9732 -1.95578,-9.0941 -2.21419,-29.7486 -0.4886,-39.0526 5.94438,-32.0509 23.11474,-60.7752 47.17656,-78.9217 12.99476,-9.8002 32.77405,-18.4215 49.68734,-21.6576 9.28398,-1.7763 29.34922,-1.7806 39.24961,-0.01 13.89214,2.4867 33.42312,10.1879 44.75262,17.6462 l 3.25262,2.1412 L 835.75262,854.84986 835.5,667.5 H 735 634.5 l -0.25149,332.9182 c -0.13832,183.1049 -0.0634,332.7299 0.16657,332.5 0.22994,-0.23 3.56953,-8.2932 7.42133,-17.9182 z m 589.66359,3.0374 c 13.75,-2.7632 26.35,-5.3969 28,-5.8527 l 3,-0.8286 v -137.8727 -137.8727 l -16,-2.7791 c -8.8,-1.5285 -21.4,-3.696 -28,-4.8166 -6.6,-1.1206 -13.0125,-2.266 -14.25,-2.5453 l -2.25,-0.5078 v 148.8524 c 0,81.8688 0.3049,149.1573 0.6777,149.53 0.3727,0.3727 1.3852,0.4616 2.25,0.1974 0.8647,-0.2642 12.8223,-2.7411 26.5723,-5.5043 z m -65.8403,-54.2874 c -0.3344,-14.4375 -0.6197,-132.7875 -0.6339,-263 L 1165,764 h -100.9896 l -100.98964,0 -0.26038,139.25 c -0.14321,76.5875 -0.25432,139.3311 -0.24691,139.4301 0.007,0.099 2.48241,-1.4076 5.5,-3.3481 12.29944,-7.9097 29.47183,-14.5517 44.98653,-17.4003 9.3662,-1.7196 28.9752,-1.44 38.5,0.549 49.0817,10.2495 84.8779,46.0523 95.0016,95.0193 6.3483,30.706 -0.9363,65.5944 -19.4101,92.9607 l -4.0238,5.9607 4.6271,8.5393 c 2.5448,4.6966 10.7832,19.3393 18.3075,32.5393 7.5242,13.2 14.7347,25.9125 16.0232,28.25 1.2885,2.3375 2.7702,4.25 3.2925,4.25 0.591,0 0.7201,-9.9155 0.3417,-26.25 z m 382.3403,-6.6349 28.5,-5.7976 0.2559,-79.9597 0.2559,-79.9597 -9.7559,-1.604 c -5.3657,-0.8821 -18.669,-3.26 -29.5628,-5.2842 -10.8938,-2.0241 -20.481,-3.4215 -21.3048,-3.1054 -1.3184,0.5059 -1.4614,11.4216 -1.1931,91.0841 0.3023,89.7575 0.3214,90.509 2.3048,90.4667 1.1,-0.023 14.825,-2.6515 30.5,-5.8402 z m -765.87113,-33.6527 c 2.54588,-0.2745 7.90539,-1.6136 11.91003,-2.9756 30.07806,-10.2302 51.7753,-37.5768 55.89744,-70.4514 3.64506,-29.07 -11.27306,-62.2663 -35.5121,-79.0227 -22.22548,-15.3645 -51.22134,-18.238 -77.26188,-7.6568 -17.5162,7.1175 -35.54006,25.8946 -43.12649,44.9289 -15.44846,38.7602 -1.40297,82.5785 33.38675,104.1582 16.50647,10.2387 32.35119,13.4303 54.70625,11.0194 z m 269.88683,-1.7642 c 25.1865,-6.5015 47.1242,-28.1785 56.5431,-55.8711 10.4933,-30.8514 -0.7034,-68.7356 -26.7293,-90.4394 -9.1935,-7.6668 -16.0164,-11.4682 -26.8295,-14.9482 -7.5597,-2.4329 -10.104,-2.7468 -23,-2.8375 -17.1087,-0.1203 -22.959,1.142 -36.5,7.8756 -17.07718,8.4921 -28.09085,19.9658 -37.45772,39.0224 -23.14584,47.0895 2.84198,104.2343 53.45772,117.5486 10.3313,2.7176 29.2647,2.5538 40.5157,-0.3504 z M 1577,1012.6813 v -42.31875 l -15.75,-2.75305 c -38.4298,-6.71741 -44.5098,-7.68302 -45.0397,-7.15312 -0.8065,0.80644 -0.2087,81.92072 0.6091,82.65352 0.3743,0.3354 8.7806,2.0916 18.6806,3.9026 16.3649,2.9935 40.633,7.6325 41.25,7.8851 0.1375,0.056 0.25,-18.941 0.25,-42.2163 z M 1262.5288,956.49976 C 1262.5447,933.67489 1262.4817,915 1262.3889,915 c -0.093,0 -4.3808,-0.86515 -9.5288,-1.92256 -5.1481,-1.05742 -17.4601,-3.32026 -27.3601,-5.02854 -9.9,-1.70829 -19.2425,-3.35498 -20.761,-3.65932 l -2.7611,-0.55334 0.2611,41.76851 0.261,41.7685 3.5,0.9213 c 4.2444,1.11724 51.6843,9.48573 54.5,9.61392 1.9689,0.0896 2.0004,-0.55442 2.0288,-41.40871 z m -336.25463,-60.2326 -0.22584,-41.73313 -18.77416,-3.21631 C 896.94838,849.54876 885.125,847.44953 881,846.65277 c -4.125,-0.79676 -7.725,-1.31283 -8,-1.14683 -0.275,0.166 -0.275,19.12353 0,42.12786 l 0.5,41.82605 24,4.16203 c 13.2,2.28911 25.125,4.21071 26.5,4.27022 l 2.5,0.1082 z M 596.76074,838.28739 596.5,795.57478 571,791.32512 c -14.025,-2.33731 -25.8375,-4.26663 -26.25,-4.28739 -0.4125,-0.0208 -0.75,18.87639 -0.75,41.99365 0,32.70971 0.27722,42.13482 1.25,42.49777 0.6875,0.25652 12.02384,2.27873 25.19187,4.49382 13.16802,2.21509 24.15552,4.24109 24.41666,4.50223 1.85734,1.85734 2.1339,-4.28354 1.90221,-42.23781 z m -328.79518,-56.81059 0.0426,-41.5232 -2.25408,-0.84401 C 264.51434,738.64539 257.875,737.2598 251,736.03051 c -6.875,-1.22929 -17.9,-3.2467 -24.5,-4.48313 -14.12736,-2.64659 -13.33465,-3.22384 -12.98081,9.45262 0.1305,4.675 0.29207,22.96073 0.35904,40.63496 L 214,813.76992 l 7.75,1.18251 c 4.2625,0.65038 15.4,2.67879 24.75,4.50756 9.35,1.82878 17.99517,3.37342 19.21148,3.43253 L 267.92296,823 Z" style="fill:#000000;stroke:none" transform="matrix(0.188618125,0,0,0.188618125,307.37811500000004,68.360344)" /></g></svg>