<?xml version='1.0' encoding='utf-8'?>
<svg xmlns="http://www.w3.org/2000/svg" xmlns:ns1="http://www.inkscape.org/namespaces/inkscape" xmlns:ns2="http://sodipodi.sourceforge.net/DTD/sodipodi-0.dtd" viewBox="0 0 158.75 119.0625" version="1.1" id="svg1" ns1:version="1.4.2 (f4327f4, 2025-05-13)" ns2:docname="48 Sea Shell.svg" ns1:export-filename="Dinosore 1.svg" ns1:export-xdpi="96" ns1:export-ydpi="96">
  <ns2:namedview id="namedview1" pagecolor="#ffffff" bordercolor="#000000" borderopacity="0.25" ns1:showpageshadow="2" ns1:pageopacity="0.0" ns1:pagecheckerboard="0" ns1:deskcolor="#d1d1d1" ns1:document-units="mm" ns1:zoom="0.89619809" ns1:cx="333.6316" ns1:cy="169.04745" ns1:window-width="1366" ns1:window-height="705" ns1:window-x="-8" ns1:window-y="-8" ns1:window-maximized="1" ns1:current-layer="layer2" showgrid="false" />
  <defs id="defs1">
    <clipPath clipPathUnits="userSpaceOnUse" id="clipPath3">
      <path d="M 0,500 H 500 V 0 H 0 Z" transform="translate(-432.53711,-135.74711)" id="path3" />
    </clipPath>
    <clipPath clipPathUnits="userSpaceOnUse" id="clipPath5">
      <path d="M 0,500 H 500 V 0 H 0 Z" transform="translate(-151.34181,-199.4336)" id="path5" />
    </clipPath>
    <clipPath clipPathUnits="userSpaceOnUse" id="clipPath7">
      <path d="M 0,500 H 500 V 0 H 0 Z" transform="translate(-151.34181,-199.4336)" id="path7" />
    </clipPath>
    <clipPath clipPathUnits="userSpaceOnUse" id="clipPath9">
      <path d="M 0,500 H 500 V 0 H 0 Z" transform="translate(-182.0161,-196.83011)" id="path9" />
    </clipPath>
    <clipPath clipPathUnits="userSpaceOnUse" id="clipPath11">
      <path d="M 0,500 H 500 V 0 H 0 Z" transform="translate(-270.2578,-262.13381)" id="path11" />
    </clipPath>
    <clipPath clipPathUnits="userSpaceOnUse" id="clipPath13">
      <path d="M 0,500 H 500 V 0 H 0 Z" transform="translate(-270.2578,-262.13381)" id="path13" />
    </clipPath>
    <clipPath clipPathUnits="userSpaceOnUse" id="clipPath15">
      <path d="M 0,500 H 500 V 0 H 0 Z" transform="translate(-270.73731,-316.68121)" id="path15" />
    </clipPath>
    <clipPath clipPathUnits="userSpaceOnUse" id="clipPath17">
      <path d="M 0,500 H 500 V 0 H 0 Z" transform="translate(-243.895,-297.82131)" id="path17" />
    </clipPath>
    <clipPath clipPathUnits="userSpaceOnUse" id="clipPath19">
      <path d="M 0,500 H 500 V 0 H 0 Z" transform="translate(-243.895,-297.82131)" id="path19" />
    </clipPath>
    <clipPath clipPathUnits="userSpaceOnUse" id="clipPath21">
      <path d="M 0,500 H 500 V 0 H 0 Z" transform="translate(-227.96341,-327.47461)" id="path21" />
    </clipPath>
    <clipPath clipPathUnits="userSpaceOnUse" id="clipPath23">
      <path d="M 0,500 H 500 V 0 H 0 Z" transform="translate(-150.6709,-325.02691)" id="path23" />
    </clipPath>
    <clipPath clipPathUnits="userSpaceOnUse" id="clipPath25">
      <path d="M 0,500 H 500 V 0 H 0 Z" transform="translate(-150.6709,-325.02691)" id="path25" />
    </clipPath>
    <clipPath clipPathUnits="userSpaceOnUse" id="clipPath27">
      <path d="M 0,500 H 500 V 0 H 0 Z" transform="translate(-115.0161,-334.36131)" id="path27" />
    </clipPath>
    <clipPath clipPathUnits="userSpaceOnUse" id="clipPath29">
      <path d="M 0,500 H 500 V 0 H 0 Z" transform="translate(-104.1924,-244.44141)" id="path29" />
    </clipPath>
    <clipPath clipPathUnits="userSpaceOnUse" id="clipPath31">
      <path d="M 0,500 H 500 V 0 H 0 Z" transform="translate(-104.1924,-244.44141)" id="path31" />
    </clipPath>
    <clipPath clipPathUnits="userSpaceOnUse" id="clipPath33">
      <path d="M 0,500 H 500 V 0 H 0 Z" transform="translate(-79.019004,-177.8154)" id="path33" />
    </clipPath>
    <clipPath clipPathUnits="userSpaceOnUse" id="clipPath35">
      <path d="M 0,500 H 500 V 0 H 0 Z" transform="translate(-105.8481,-187.5293)" id="path35" />
    </clipPath>
    <clipPath clipPathUnits="userSpaceOnUse" id="clipPath37">
      <path d="M 0,500 H 500 V 0 H 0 Z" transform="translate(-120.3486,-245.5713)" id="path37" />
    </clipPath>
    <clipPath clipPathUnits="userSpaceOnUse" id="clipPath39">
      <path d="M 0,500 H 500 V 0 H 0 Z" transform="translate(-43.031301,-294.82521)" id="path39" />
    </clipPath>
    <clipPath clipPathUnits="userSpaceOnUse" id="clipPath41">
      <path d="M 0,500 H 500 V 0 H 0 Z" transform="translate(-140.2095,-138.87791)" id="path41" />
    </clipPath>
    <clipPath clipPathUnits="userSpaceOnUse" id="clipPath43">
      <path d="M 0,500 H 500 V 0 H 0 Z" transform="translate(-140.2095,-138.87791)" id="path43" />
    </clipPath>
    <clipPath clipPathUnits="userSpaceOnUse" id="clipPath45">
      <path d="M 0,500 H 500 V 0 H 0 Z" transform="translate(-131.71041,-136.21781)" id="path45" />
    </clipPath>
    <clipPath clipPathUnits="userSpaceOnUse" id="clipPath47">
      <path d="M 0,500 H 500 V 0 H 0 Z" transform="translate(-95.863802,-329.88091)" id="path47" />
    </clipPath>
    <clipPath clipPathUnits="userSpaceOnUse" id="clipPath49">
      <path d="M 0,500 H 500 V 0 H 0 Z" transform="translate(-99.722702,-346.67581)" id="path49" />
    </clipPath>
    <clipPath clipPathUnits="userSpaceOnUse" id="clipPath51">
      <path d="M 0,500 H 500 V 0 H 0 Z" transform="translate(-99.596702,-349.59371)" id="path51" />
    </clipPath>
    <clipPath clipPathUnits="userSpaceOnUse" id="clipPath53">
      <path d="M 0,500 H 500 V 0 H 0 Z" transform="translate(-75.429699,-348.79931)" id="path53" />
    </clipPath>
    <clipPath clipPathUnits="userSpaceOnUse" id="clipPath55">
      <path d="M 0,500 H 500 V 0 H 0 Z" transform="translate(-52.736801,-378.31591)" id="path55" />
    </clipPath>
    <clipPath clipPathUnits="userSpaceOnUse" id="clipPath57">
      <path d="M 0,500 H 500 V 0 H 0 Z" transform="translate(-71.700202,-397.00241)" id="path57" />
    </clipPath>
    <clipPath clipPathUnits="userSpaceOnUse" id="clipPath59">
      <path d="M 0,500 H 500 V 0 H 0 Z" transform="translate(-49.381801,-362.78271)" id="path59" />
    </clipPath>
    <clipPath clipPathUnits="userSpaceOnUse" id="clipPath61">
      <path d="M 0,500 H 500 V 0 H 0 Z" transform="translate(-75.429699,-348.79931)" id="path61" />
    </clipPath>
    <clipPath clipPathUnits="userSpaceOnUse" id="clipPath63">
      <path d="M 0,500 H 500 V 0 H 0 Z" transform="translate(-52.736801,-378.31591)" id="path63" />
    </clipPath>
    <clipPath clipPathUnits="userSpaceOnUse" id="clipPath65">
      <path d="M 0,500 H 500 V 0 H 0 Z" transform="translate(-87.7402,-374.77391)" id="path65" />
    </clipPath>
    <clipPath clipPathUnits="userSpaceOnUse" id="clipPath67">
      <path d="M 0,500 H 500 V 0 H 0 Z" transform="translate(-90.202105,-372.51071)" id="path67" />
    </clipPath>
    <clipPath clipPathUnits="userSpaceOnUse" id="clipPath69">
      <path d="M 0,500 H 500 V 0 H 0 Z" transform="translate(-43.860801,-338.97661)" id="path69" />
    </clipPath>
    <clipPath clipPathUnits="userSpaceOnUse" id="clipPath71">
      <path d="M 0,500 H 500 V 0 H 0 Z" transform="translate(-62.706502,-345.08251)" id="path71" />
    </clipPath>
    <clipPath clipPathUnits="userSpaceOnUse" id="clipPath73">
      <path d="M 0,500 H 500 V 0 H 0 Z" transform="translate(-32.944801,-364.06201)" id="path73" />
    </clipPath>
    <clipPath clipPathUnits="userSpaceOnUse" id="clipPath75">
      <path d="M 0,500 H 500 V 0 H 0 Z" transform="translate(-32.363801,-386.02201)" id="path75" />
    </clipPath>
    <clipPath clipPathUnits="userSpaceOnUse" id="clipPath77">
      <path d="M 0,500 H 500 V 0 H 0 Z" transform="translate(-42.559601,-382.52731)" id="path77" />
    </clipPath>
    <clipPath clipPathUnits="userSpaceOnUse" id="clipPath79">
      <path d="M 0,500 H 500 V 0 H 0 Z" transform="translate(-72.010702,-416.37261)" id="path79" />
    </clipPath>
    <clipPath clipPathUnits="userSpaceOnUse" id="clipPath81">
      <path d="M 0,500 H 500 V 0 H 0 Z" transform="translate(-88.275902,-375.45461)" id="path81" />
    </clipPath>
    <clipPath clipPathUnits="userSpaceOnUse" id="clipPath83">
      <path d="M 0,500 H 500 V 0 H 0 Z" transform="translate(-125.0845,-367.83841)" id="path83" />
    </clipPath>
    <clipPath clipPathUnits="userSpaceOnUse" id="clipPath85">
      <path d="M 0,500 H 500 V 0 H 0 Z" transform="translate(-88.761205,-375.09231)" id="path85" />
    </clipPath>
    <clipPath clipPathUnits="userSpaceOnUse" id="clipPath87">
      <path d="M 0,500 H 500 V 0 H 0 Z" transform="translate(-125.2983,-381.78861)" id="path87" />
    </clipPath>
    <clipPath clipPathUnits="userSpaceOnUse" id="clipPath89">
      <path d="M 0,500 H 500 V 0 H 0 Z" transform="translate(-96.329605,-397.87451)" id="path89" />
    </clipPath>
    <clipPath clipPathUnits="userSpaceOnUse" id="clipPath91">
      <path d="M 0,500 H 500 V 0 H 0 Z" transform="translate(-87.3955,-382.24561)" id="path91" />
    </clipPath>
    <clipPath clipPathUnits="userSpaceOnUse" id="clipPath93">
      <path d="M 0,500 H 500 V 0 H 0 Z" transform="translate(-125.2983,-381.78861)" id="path93" />
    </clipPath>
    <clipPath clipPathUnits="userSpaceOnUse" id="clipPath95">
      <path d="M 0,500 H 500 V 0 H 0 Z" transform="translate(-71.700202,-397.00241)" id="path95" />
    </clipPath>
    <clipPath clipPathUnits="userSpaceOnUse" id="clipPath97">
      <path d="M 0,500 H 500 V 0 H 0 Z" transform="translate(-139.3882,-350.70461)" id="path97" />
    </clipPath>
    <clipPath clipPathUnits="userSpaceOnUse" id="clipPath99">
      <path d="M 0,500 H 500 V 0 H 0 Z" transform="translate(-97.266602,-377.96481)" id="path99" />
    </clipPath>
    <clipPath clipPathUnits="userSpaceOnUse" id="clipPath101">
      <path d="M 0,500 H 500 V 0 H 0 Z" transform="translate(-119.97171,-375.45461)" id="path101" />
    </clipPath>
    <clipPath clipPathUnits="userSpaceOnUse" id="clipPath103">
      <path d="M 0,500 H 500 V 0 H 0 Z" transform="translate(-437.25881,-102.749)" id="path103" />
    </clipPath>
    <clipPath clipPathUnits="userSpaceOnUse" id="clipPath105">
      <path d="M 0,500 H 500 V 0 H 0 Z" transform="translate(-153.0757,-110.08691)" id="path105" />
    </clipPath>
    <clipPath clipPathUnits="userSpaceOnUse" id="clipPath107">
      <path d="M 0,500 H 500 V 0 H 0 Z" transform="translate(-68.039602,-123.2412)" id="path107" />
    </clipPath>
    <clipPath clipPathUnits="userSpaceOnUse" id="clipPath109">
      <path d="M 0,500 H 500 V 0 H 0 Z" transform="translate(-98.763205,-118.9268)" id="path109" />
    </clipPath>
    <clipPath clipPathUnits="userSpaceOnUse" id="clipPath111">
      <path d="M 0,500 H 500 V 0 H 0 Z" transform="translate(-94.1626,-133.752)" id="path111" />
    </clipPath>
    <clipPath clipPathUnits="userSpaceOnUse" id="clipPath113">
      <path d="M 0,500 H 500 V 0 H 0 Z" transform="translate(-130.0093,-133.8818)" id="path113" />
    </clipPath>
    <clipPath clipPathUnits="userSpaceOnUse" id="clipPath115">
      <path d="M 0,500 H 500 V 0 H 0 Z" transform="translate(-216.42291,-119.5391)" id="path115" />
    </clipPath>
    <clipPath clipPathUnits="userSpaceOnUse" id="clipPath117">
      <path d="M 0,500 H 500 V 0 H 0 Z" transform="translate(-216.4243,-119.54)" id="path117" />
    </clipPath>
    <clipPath clipPathUnits="userSpaceOnUse" id="clipPath119">
      <path d="M 0,500 H 500 V 0 H 0 Z" transform="translate(-216.42291,-119.5391)" id="path119" />
    </clipPath>
    <clipPath clipPathUnits="userSpaceOnUse" id="clipPath121">
      <path d="M 0,500 H 500 V 0 H 0 Z" transform="translate(-432.46971,-121.0557)" id="path121" />
    </clipPath>
    <clipPath clipPathUnits="userSpaceOnUse" id="clipPath123">
      <path d="M 0,500 H 500 V 0 H 0 Z" transform="translate(-427.03711,-133.8525)" id="path123" />
    </clipPath>
    <clipPath clipPathUnits="userSpaceOnUse" id="clipPath125">
      <path d="M 0,500 H 500 V 0 H 0 Z" transform="translate(-405.37791,-144.78911)" id="path125" />
    </clipPath>
    <clipPath clipPathUnits="userSpaceOnUse" id="clipPath127">
      <path d="M 0,500 H 500 V 0 H 0 Z" transform="translate(-404.70611,-137.2754)" id="path127" />
    </clipPath>
    <clipPath clipPathUnits="userSpaceOnUse" id="clipPath129">
      <path d="M 0,500 H 500 V 0 H 0 Z" transform="translate(-432.46971,-121.0557)" id="path129" />
    </clipPath>
    <clipPath clipPathUnits="userSpaceOnUse" id="clipPath131">
      <path d="M 0,500 H 500 V 0 H 0 Z" transform="translate(-327.13481,-114.4746)" id="path131" />
    </clipPath>
    <clipPath clipPathUnits="userSpaceOnUse" id="clipPath133">
      <path d="M 0,500 H 500 V 0 H 0 Z" transform="translate(-376.72071,-396.30321)" id="path133" />
    </clipPath>
    <clipPath clipPathUnits="userSpaceOnUse" id="clipPath135">
      <path d="M 0,500 H 500 V 0 H 0 Z" transform="translate(-345.24221,-355.45311)" id="path135" />
    </clipPath>
    <clipPath clipPathUnits="userSpaceOnUse" id="clipPath137">
      <path d="M 0,500 H 500 V 0 H 0 Z" transform="translate(-315.50001,-373.42481)" id="path137" />
    </clipPath>
    <clipPath clipPathUnits="userSpaceOnUse" id="clipPath139">
      <path d="M 0,500 H 500 V 0 H 0 Z" transform="translate(-312.87011,-392.23001)" id="path139" />
    </clipPath>
    <clipPath clipPathUnits="userSpaceOnUse" id="clipPath141">
      <path d="M 0,500 H 500 V 0 H 0 Z" transform="translate(-328.25681,-433.48831)" id="path141" />
    </clipPath>
    <clipPath clipPathUnits="userSpaceOnUse" id="clipPath143">
      <path d="M 0,500 H 500 V 0 H 0 Z" transform="translate(-371.31351,-429.34471)" id="path143" />
    </clipPath>
    <clipPath clipPathUnits="userSpaceOnUse" id="clipPath145">
      <path d="M 0,500 H 500 V 0 H 0 Z" transform="translate(-356.50101,-401.37401)" id="path145" />
    </clipPath>
    <clipPath clipPathUnits="userSpaceOnUse" id="clipPath147">
      <path d="M 0,500 H 500 V 0 H 0 Z" transform="translate(-356.68651,-383.02541)" id="path147" />
    </clipPath>
    <clipPath clipPathUnits="userSpaceOnUse" id="clipPath149">
      <path d="M 0,500 H 500 V 0 H 0 Z" transform="translate(-339.52251,-412.63771)" id="path149" />
    </clipPath>
    <clipPath clipPathUnits="userSpaceOnUse" id="clipPath151">
      <path d="M 0,500 H 500 V 0 H 0 Z" transform="translate(-376.35061,-419.38281)" id="path151" />
    </clipPath>
    <clipPath clipPathUnits="userSpaceOnUse" id="clipPath153">
      <path d="M 0,500 H 500 V 0 H 0 Z" transform="translate(-364.11821,-384.56741)" id="path153" />
    </clipPath>
    <clipPath clipPathUnits="userSpaceOnUse" id="clipPath155">
      <path d="M 0,500 H 500 V 0 H 0 Z" transform="translate(-376.72071,-396.30321)" id="path155" />
    </clipPath>
    <clipPath clipPathUnits="userSpaceOnUse" id="clipPath157">
      <path d="M 0,500 H 500 V 0 H 0 Z" transform="translate(-313.61911,-296.27291)" id="path157" />
    </clipPath>
    <clipPath clipPathUnits="userSpaceOnUse" id="clipPath159">
      <path d="M 0,500 H 500 V 0 H 0 Z" transform="translate(-305.04881,-316.07621)" id="path159" />
    </clipPath>
    <clipPath clipPathUnits="userSpaceOnUse" id="clipPath161">
      <path d="M 0,500 H 500 V 0 H 0 Z" transform="translate(-300.53611,-275.20511)" id="path161" />
    </clipPath>
    <clipPath clipPathUnits="userSpaceOnUse" id="clipPath163">
      <path d="M 0,500 H 500 V 0 H 0 Z" transform="translate(-319.84181,-243.67191)" id="path163" />
    </clipPath>
    <clipPath clipPathUnits="userSpaceOnUse" id="clipPath165">
      <path d="M 0,500 H 500 V 0 H 0 Z" transform="translate(-338.39361,-241.03421)" id="path165" />
    </clipPath>
    <clipPath clipPathUnits="userSpaceOnUse" id="clipPath167">
      <path d="M 0,500 H 500 V 0 H 0 Z" transform="translate(-320.49711,-352.96141)" id="path167" />
    </clipPath>
    <clipPath clipPathUnits="userSpaceOnUse" id="clipPath169">
      <path d="M 0,500 H 500 V 0 H 0 Z" transform="translate(-431.04981,-326.64161)" id="path169" />
    </clipPath>
    <clipPath clipPathUnits="userSpaceOnUse" id="clipPath171">
      <path d="M 0,500 H 500 V 0 H 0 Z" transform="translate(-372.06351,-226.83401)" id="path171" />
    </clipPath>
    <clipPath clipPathUnits="userSpaceOnUse" id="clipPath173">
      <path d="M 0,500 H 500 V 0 H 0 Z" transform="translate(-399.95511,-220.86041)" id="path173" />
    </clipPath>
    <clipPath clipPathUnits="userSpaceOnUse" id="clipPath175">
      <path d="M 0,500 H 500 V 0 H 0 Z" transform="translate(-323.42581,-269.89451)" id="path175" />
    </clipPath>
    <clipPath clipPathUnits="userSpaceOnUse" id="clipPath177">
      <path d="M 0,500 H 500 V 0 H 0 Z" transform="translate(-355.10741,-259.54641)" id="path177" />
    </clipPath>
    <clipPath clipPathUnits="userSpaceOnUse" id="clipPath179">
      <path d="M 0,500 H 500 V 0 H 0 Z" transform="translate(-313.61911,-296.27291)" id="path179" />
    </clipPath>
    <clipPath clipPathUnits="userSpaceOnUse" id="clipPath181">
      <path d="M 0,500 H 500 V 0 H 0 Z" transform="translate(-369.42681,-281.5425)" id="path181" />
    </clipPath>
    <clipPath clipPathUnits="userSpaceOnUse" id="clipPath183">
      <path d="M 0,500 H 500 V 0 H 0 Z" transform="translate(-336.97751,-317.55571)" id="path183" />
    </clipPath>
    <clipPath clipPathUnits="userSpaceOnUse" id="clipPath185">
      <path d="M 0,500 H 500 V 0 H 0 Z" transform="translate(-313.62011,-296.27151)" id="path185" />
    </clipPath>
    <clipPath clipPathUnits="userSpaceOnUse" id="clipPath187">
      <path d="M 0,500 H 500 V 0 H 0 Z" transform="translate(-369.07811,-322.24461)" id="path187" />
    </clipPath>
    <clipPath clipPathUnits="userSpaceOnUse" id="clipPath189">
      <path d="M 0,500 H 500 V 0 H 0 Z" transform="translate(-336.97751,-317.55571)" id="path189" />
    </clipPath>
    <clipPath clipPathUnits="userSpaceOnUse" id="clipPath191">
      <path d="M 0,500 H 500 V 0 H 0 Z" transform="translate(-401.02541,-318.82371)" id="path191" />
    </clipPath>
    <clipPath clipPathUnits="userSpaceOnUse" id="clipPath193">
      <path d="M 0,500 H 500 V 0 H 0 Z" transform="translate(-369.07811,-322.24411)" id="path193" />
    </clipPath>
    <clipPath clipPathUnits="userSpaceOnUse" id="clipPath195">
      <path d="M 0,500 H 500 V 0 H 0 Z" transform="translate(-401.98341,-287.1846)" id="path195" />
    </clipPath>
    <clipPath clipPathUnits="userSpaceOnUse" id="clipPath197">
      <path d="M 0,500 H 500 V 0 H 0 Z" transform="translate(-401.02541,-318.82371)" id="path197" />
    </clipPath>
    <clipPath clipPathUnits="userSpaceOnUse" id="clipPath199">
      <path d="M 0,500 H 500 V 0 H 0 Z" transform="translate(-385.65231,-244.13481)" id="path199" />
    </clipPath>
    <clipPath clipPathUnits="userSpaceOnUse" id="clipPath201">
      <path d="M 0,500 H 500 V 0 H 0 Z" transform="translate(-361.43161,-257.66991)" id="path201" />
    </clipPath>
    <clipPath clipPathUnits="userSpaceOnUse" id="clipPath203">
      <path d="M 0,500 H 500 V 0 H 0 Z" transform="translate(-361.72851,-265.84031)" id="path203" />
    </clipPath>
    <clipPath clipPathUnits="userSpaceOnUse" id="clipPath205">
      <path d="M 0,500 H 500 V 0 H 0 Z" transform="translate(-402.13871,-265.52591)" id="path205" />
    </clipPath>
    <clipPath clipPathUnits="userSpaceOnUse" id="clipPath207">
      <path d="M 0,500 H 500 V 0 H 0 Z" transform="translate(-385.65231,-244.13571)" id="path207" />
    </clipPath>
    <clipPath clipPathUnits="userSpaceOnUse" id="clipPath209">
      <path d="M 0,500 H 500 V 0 H 0 Z" transform="translate(-402.13771,-265.52541)" id="path209" />
    </clipPath>
    <clipPath clipPathUnits="userSpaceOnUse" id="clipPath211">
      <path d="M 0,500 H 500 V 0 H 0 Z" transform="translate(-355.10741,-259.54641)" id="path211" />
    </clipPath>
    <clipPath clipPathUnits="userSpaceOnUse" id="clipPath213">
      <path d="M 0,500 H 500 V 0 H 0 Z" transform="translate(-242.46831,-133.5723)" id="path213" />
    </clipPath>
    <clipPath clipPathUnits="userSpaceOnUse" id="clipPath215">
      <path d="M 0,500 H 500 V 0 H 0 Z" transform="translate(-210.0742,-231.25001)" id="path215" />
    </clipPath>
    <clipPath clipPathUnits="userSpaceOnUse" id="clipPath217">
      <path d="M 0,500 H 500 V 0 H 0 Z" transform="translate(-184.9072,-258.88431)" id="path217" />
    </clipPath>
    <clipPath clipPathUnits="userSpaceOnUse" id="clipPath219">
      <path d="M 0,500 H 500 V 0 H 0 Z" transform="translate(-148.6821,-295.10451)" id="path219" />
    </clipPath>
    <clipPath clipPathUnits="userSpaceOnUse" id="clipPath221">
      <path d="M 0,500 H 500 V 0 H 0 Z" transform="translate(-147.19731,-276.85691)" id="path221" />
    </clipPath>
    <clipPath clipPathUnits="userSpaceOnUse" id="clipPath223">
      <path d="M 0,500 H 500 V 0 H 0 Z" transform="translate(-145.4277,-259.17381)" id="path223" />
    </clipPath>
    <clipPath clipPathUnits="userSpaceOnUse" id="clipPath225">
      <path d="M 0,500 H 500 V 0 H 0 Z" transform="translate(-144.6172,-243.18261)" id="path225" />
    </clipPath>
    <clipPath clipPathUnits="userSpaceOnUse" id="clipPath227">
      <path d="M 0,500 H 500 V 0 H 0 Z" transform="translate(-145.23831,-226.34181)" id="path227" />
    </clipPath>
    <clipPath clipPathUnits="userSpaceOnUse" id="clipPath229">
      <path d="M 0,500 H 500 V 0 H 0 Z" transform="translate(-148.04301,-210.12111)" id="path229" />
    </clipPath>
    <clipPath clipPathUnits="userSpaceOnUse" id="clipPath231">
      <path d="M 0,500 H 500 V 0 H 0 Z" transform="translate(-154.3618,-192.44921)" id="path231" />
    </clipPath>
    <clipPath clipPathUnits="userSpaceOnUse" id="clipPath233">
      <path d="M 0,500 H 500 V 0 H 0 Z" transform="translate(-163.56201,-176.61521)" id="path233" />
    </clipPath>
    <clipPath clipPathUnits="userSpaceOnUse" id="clipPath235">
      <path d="M 0,500 H 500 V 0 H 0 Z" transform="translate(-179.42721,-158.4932)" id="path235" />
    </clipPath>
    <clipPath clipPathUnits="userSpaceOnUse" id="clipPath237">
      <path d="M 0,500 H 500 V 0 H 0 Z" transform="translate(-168.06741,-111.37211)" id="path237" />
    </clipPath>
    <clipPath clipPathUnits="userSpaceOnUse" id="clipPath239">
      <path d="M 0,500 H 500 V 0 H 0 Z" transform="translate(-171.1729,-117.8379)" id="path239" />
    </clipPath>
    <clipPath clipPathUnits="userSpaceOnUse" id="clipPath241">
      <path d="M 0,500 H 500 V 0 H 0 Z" transform="translate(-262.65531,-102.97271)" id="path241" />
    </clipPath>
    <clipPath clipPathUnits="userSpaceOnUse" id="clipPath243">
      <path d="M 0,500 H 500 V 0 H 0 Z" transform="translate(-256.89841,-105.15821)" id="path243" />
    </clipPath>
    <clipPath clipPathUnits="userSpaceOnUse" id="clipPath245">
      <path d="M 0,500 H 500 V 0 H 0 Z" transform="translate(-197.36961,-145.5762)" id="path245" />
    </clipPath>
    <clipPath clipPathUnits="userSpaceOnUse" id="clipPath247">
      <path d="M 0,500 H 500 V 0 H 0 Z" transform="translate(-218.4478,-137.4365)" id="path247" />
    </clipPath>
    <clipPath clipPathUnits="userSpaceOnUse" id="clipPath249">
      <path d="M 0,500 H 500 V 0 H 0 Z" transform="translate(-252.6064,-248.63481)" id="path249" />
    </clipPath>
    <clipPath clipPathUnits="userSpaceOnUse" id="clipPath251">
      <path d="M 0,500 H 500 V 0 H 0 Z" transform="translate(-263.56351,-232.1865)" id="path251" />
    </clipPath>
    <clipPath clipPathUnits="userSpaceOnUse" id="clipPath253">
      <path d="M 0,500 H 500 V 0 H 0 Z" transform="translate(-280.915,-228.33591)" id="path253" />
    </clipPath>
    <clipPath clipPathUnits="userSpaceOnUse" id="clipPath255">
      <path d="M 0,500 H 500 V 0 H 0 Z" transform="translate(-279.01861,-215.27831)" id="path255" />
    </clipPath>
    <clipPath clipPathUnits="userSpaceOnUse" id="clipPath257">
      <path d="M 0,500 H 500 V 0 H 0 Z" transform="translate(-267.748,-214.49321)" id="path257" />
    </clipPath>
    <clipPath clipPathUnits="userSpaceOnUse" id="clipPath259">
      <path d="M 0,500 H 500 V 0 H 0 Z" transform="translate(-309.81641,-206.8818)" id="path259" />
    </clipPath>
    <clipPath clipPathUnits="userSpaceOnUse" id="clipPath261">
      <path d="M 0,500 H 500 V 0 H 0 Z" transform="translate(-322.25681,-187.8135)" id="path261" />
    </clipPath>
    <clipPath clipPathUnits="userSpaceOnUse" id="clipPath263">
      <path d="M 0,500 H 500 V 0 H 0 Z" transform="translate(-329.74901,-169.2236)" id="path263" />
    </clipPath>
    <clipPath clipPathUnits="userSpaceOnUse" id="clipPath265">
      <path d="M 0,500 H 500 V 0 H 0 Z" transform="translate(-341.73931,-143.08301)" id="path265" />
    </clipPath>
    <clipPath clipPathUnits="userSpaceOnUse" id="clipPath267">
      <path d="M 0,500 H 500 V 0 H 0 Z" transform="translate(-354.48051,-143.9541)" id="path267" />
    </clipPath>
    <clipPath clipPathUnits="userSpaceOnUse" id="clipPath269">
      <path d="M 0,500 H 500 V 0 H 0 Z" transform="translate(-341.77441,-168.3789)" id="path269" />
    </clipPath>
    <clipPath clipPathUnits="userSpaceOnUse" id="clipPath271">
      <path d="M 0,500 H 500 V 0 H 0 Z" transform="translate(-385.95121,-98.459002)" id="path271" />
    </clipPath>
    <clipPath clipPathUnits="userSpaceOnUse" id="clipPath273">
      <path d="M 0,500 H 500 V 0 H 0 Z" transform="translate(-379.38281,-132.7695)" id="path273" />
    </clipPath>
    <clipPath clipPathUnits="userSpaceOnUse" id="clipPath275">
      <path d="M 0,500 H 500 V 0 H 0 Z" transform="translate(-180.59571,-341.57131)" id="path275" />
    </clipPath>
    <clipPath clipPathUnits="userSpaceOnUse" id="clipPath277">
      <path d="M 0,500 H 500 V 0 H 0 Z" transform="translate(-189.04101,-346.05371)" id="path277" />
    </clipPath>
    <clipPath clipPathUnits="userSpaceOnUse" id="clipPath279">
      <path d="M 0,500 H 500 V 0 H 0 Z" transform="translate(-184.69431,-261.6948)" id="path279" />
    </clipPath>
    <clipPath clipPathUnits="userSpaceOnUse" id="clipPath281">
      <path d="M 0,500 H 500 V 0 H 0 Z" transform="translate(-198.0361,-215.9238)" id="path281" />
    </clipPath>
    <clipPath clipPathUnits="userSpaceOnUse" id="clipPath283">
      <path d="M 0,500 H 500 V 0 H 0 Z" transform="translate(-187.3789,-215.26761)" id="path283" />
    </clipPath>
    <clipPath clipPathUnits="userSpaceOnUse" id="clipPath285">
      <path d="M 0,500 H 500 V 0 H 0 Z" transform="translate(-180.43551,-218.77541)" id="path285" />
    </clipPath>
    <clipPath clipPathUnits="userSpaceOnUse" id="clipPath287">
      <path d="M 0,500 H 500 V 0 H 0 Z" transform="translate(-175.2612,-228.13961)" id="path287" />
    </clipPath>
    <clipPath clipPathUnits="userSpaceOnUse" id="clipPath289">
      <path d="M 0,500 H 500 V 0 H 0 Z" transform="translate(-244.6279,-404.04541)" id="path289" />
    </clipPath>
    <clipPath clipPathUnits="userSpaceOnUse" id="clipPath291">
      <path d="M 0,500 H 500 V 0 H 0 Z" transform="translate(-228.89061,-353.46631)" id="path291" />
    </clipPath>
    <clipPath clipPathUnits="userSpaceOnUse" id="clipPath293">
      <path d="M 0,500 H 500 V 0 H 0 Z" transform="translate(-183.4443,-384.64701)" id="path293" />
    </clipPath>
    <clipPath clipPathUnits="userSpaceOnUse" id="clipPath295">
      <path d="M 0,500 H 500 V 0 H 0 Z" transform="translate(-225.19921,-396.14601)" id="path295" />
    </clipPath>
    <clipPath clipPathUnits="userSpaceOnUse" id="clipPath297">
      <path d="M 0,500 H 500 V 0 H 0 Z" transform="translate(-203.1001,-348.71041)" id="path297" />
    </clipPath>
    <clipPath clipPathUnits="userSpaceOnUse" id="clipPath299">
      <path d="M 0,500 H 500 V 0 H 0 Z" transform="translate(-165.3213,-379.77441)" id="path299" />
    </clipPath>
    <clipPath clipPathUnits="userSpaceOnUse" id="clipPath301">
      <path d="M 0,500 H 500 V 0 H 0 Z" transform="translate(-177.6465,-379.95211)" id="path301" />
    </clipPath>
    <clipPath clipPathUnits="userSpaceOnUse" id="clipPath303">
      <path d="M 0,500 H 500 V 0 H 0 Z" transform="translate(-230.05221,-388.11181)" id="path303" />
    </clipPath>
    <clipPath clipPathUnits="userSpaceOnUse" id="clipPath305">
      <path d="M 0,500 H 500 V 0 H 0 Z" transform="translate(-211.17331,-139.4316)" id="path305" />
    </clipPath>
    <clipPath clipPathUnits="userSpaceOnUse" id="clipPath307">
      <path d="M 0,500 H 500 V 0 H 0 Z" transform="translate(-162.37701,-177.70511)" id="path307" />
    </clipPath>
    <clipPath clipPathUnits="userSpaceOnUse" id="clipPath309">
      <path d="M 0,500 H 500 V 0 H 0 Z" transform="translate(-146.4858,-215.95611)" id="path309" />
    </clipPath>
    <clipPath clipPathUnits="userSpaceOnUse" id="clipPath311">
      <path d="M 0,500 H 500 V 0 H 0 Z" transform="translate(-147.6426,-281.3652)" id="path311" />
    </clipPath>
    <clipPath clipPathUnits="userSpaceOnUse" id="clipPath313">
      <path d="M 0,500 H 500 V 0 H 0 Z" transform="translate(-212.31691,-438.15091)" id="path313" />
    </clipPath>
    <clipPath clipPathUnits="userSpaceOnUse" id="clipPath315">
      <path d="M 0,500 H 500 V 0 H 0 Z" transform="translate(-217.1611,-433.01421)" id="path315" />
    </clipPath>
    <clipPath clipPathUnits="userSpaceOnUse" id="clipPath317">
      <path d="M 0,500 H 500 V 0 H 0 Z" transform="translate(-147.6421,-281.3652)" id="path317" />
    </clipPath>
    <clipPath clipPathUnits="userSpaceOnUse" id="clipPath319">
      <path d="M 0,500 H 500 V 0 H 0 Z" transform="translate(-161.75781,-91.345702)" id="path319" />
    </clipPath>
    <clipPath clipPathUnits="userSpaceOnUse" id="clipPath321">
      <path d="M 0,500 H 500 V 0 H 0 Z" transform="translate(-175.57281,-91.524405)" id="path321" />
    </clipPath>
    <clipPath clipPathUnits="userSpaceOnUse" id="clipPath323">
      <path d="M 0,500 H 500 V 0 H 0 Z" transform="translate(-151.83351,-93.239302)" id="path323" />
    </clipPath>
    <clipPath clipPathUnits="userSpaceOnUse" id="clipPath325">
      <path d="M 0,500 H 500 V 0 H 0 Z" transform="translate(-164.938,-102.69731)" id="path325" />
    </clipPath>
    <clipPath clipPathUnits="userSpaceOnUse" id="clipPath327">
      <path d="M 0,500 H 500 V 0 H 0 Z" transform="translate(-149.7358,-106.25591)" id="path327" />
    </clipPath>
    <clipPath clipPathUnits="userSpaceOnUse" id="clipPath329">
      <path d="M 0,500 H 500 V 0 H 0 Z" transform="translate(-154.3066,-102.4287)" id="path329" />
    </clipPath>
    <clipPath clipPathUnits="userSpaceOnUse" id="clipPath331">
      <path d="M 0,500 H 500 V 0 H 0 Z" transform="translate(-149.7363,-106.2539)" id="path331" />
    </clipPath>
    <clipPath clipPathUnits="userSpaceOnUse" id="clipPath333">
      <path d="M 0,500 H 500 V 0 H 0 Z" transform="translate(-200.9458,-119.4854)" id="path333" />
    </clipPath>
    <clipPath clipPathUnits="userSpaceOnUse" id="clipPath335">
      <path d="M 0,500 H 500 V 0 H 0 Z" transform="translate(-175.57281,-91.524405)" id="path335" />
    </clipPath>
    <clipPath clipPathUnits="userSpaceOnUse" id="clipPath337">
      <path d="M 0,500 H 500 V 0 H 0 Z" transform="translate(-200.9458,-119.4854)" id="path337" />
    </clipPath>
    <clipPath clipPathUnits="userSpaceOnUse" id="clipPath339">
      <path d="M 0,500 H 500 V 0 H 0 Z" transform="translate(-148.8901,-300.44871)" id="path339" />
    </clipPath>
    <clipPath clipPathUnits="userSpaceOnUse" id="clipPath341">
      <path d="M 0,500 H 500 V 0 H 0 Z" transform="translate(-193.96581,-213.05471)" id="path341" />
    </clipPath>
    <clipPath clipPathUnits="userSpaceOnUse" id="clipPath343">
      <path d="M 0,500 H 500 V 0 H 0 Z" transform="translate(-261.6592,-74.062499)" id="path343" />
    </clipPath>
    <clipPath clipPathUnits="userSpaceOnUse" id="clipPath345">
      <path d="M 0,500 H 500 V 0 H 0 Z" transform="translate(-281.6641,-73.378904)" id="path345" />
    </clipPath>
    <clipPath clipPathUnits="userSpaceOnUse" id="clipPath347">
      <path d="M 0,500 H 500 V 0 H 0 Z" transform="translate(-249.1333,-77.140604)" id="path347" />
    </clipPath>
    <clipPath clipPathUnits="userSpaceOnUse" id="clipPath349">
      <path d="M 0,500 H 500 V 0 H 0 Z" transform="translate(-264.82131,-87.2715)" id="path349" />
    </clipPath>
    <clipPath clipPathUnits="userSpaceOnUse" id="clipPath351">
      <path d="M 0,500 H 500 V 0 H 0 Z" transform="translate(-246.79251,-92.9004)" id="path351" />
    </clipPath>
    <clipPath clipPathUnits="userSpaceOnUse" id="clipPath353">
      <path d="M 0,500 H 500 V 0 H 0 Z" transform="translate(-252.4375,-90.031305)" id="path353" />
    </clipPath>
    <clipPath clipPathUnits="userSpaceOnUse" id="clipPath355">
      <path d="M 0,500 H 500 V 0 H 0 Z" transform="translate(-295.7959,-134.51861)" id="path355" />
    </clipPath>
    <clipPath clipPathUnits="userSpaceOnUse" id="clipPath357">
      <path d="M 0,500 H 500 V 0 H 0 Z" transform="translate(-281.6641,-73.378904)" id="path357" />
    </clipPath>
    <clipPath clipPathUnits="userSpaceOnUse" id="clipPath359">
      <path d="M 0,500 H 500 V 0 H 0 Z" transform="translate(-294.24901,-139.74221)" id="path359" />
    </clipPath>
    <clipPath clipPathUnits="userSpaceOnUse" id="clipPath361">
      <path d="M 0,500 H 500 V 0 H 0 Z" transform="translate(-174.46971,-233.32031)" id="path361" />
    </clipPath>
    <clipPath clipPathUnits="userSpaceOnUse" id="clipPath363">
      <path d="M 0,500 H 500 V 0 H 0 Z" transform="translate(-435.21781,-118.0029)" id="path363" />
    </clipPath>
    <clipPath clipPathUnits="userSpaceOnUse" id="clipPath365">
      <path d="M 0,500 H 500 V 0 H 0 Z" transform="translate(-222.87451,-273.3579)" id="path365" />
    </clipPath>
    <clipPath clipPathUnits="userSpaceOnUse" id="clipPath367">
      <path d="M 0,500 H 500 V 0 H 0 Z" transform="translate(-211.97311,-287.7129)" id="path367" />
    </clipPath>
    <clipPath clipPathUnits="userSpaceOnUse" id="clipPath369">
      <path d="M 0,500 H 500 V 0 H 0 Z" transform="translate(-192.3208,-318.48581)" id="path369" />
    </clipPath>
    <clipPath clipPathUnits="userSpaceOnUse" id="clipPath371">
      <path d="M 0,500 H 500 V 0 H 0 Z" transform="translate(-203.1001,-348.71041)" id="path371" />
    </clipPath>
    <clipPath clipPathUnits="userSpaceOnUse" id="clipPath373">
      <path d="M 0,500 H 500 V 0 H 0 Z" transform="translate(-241.7158,-419.51461)" id="path373" />
    </clipPath>
    <clipPath clipPathUnits="userSpaceOnUse" id="clipPath375">
      <path d="M 0,500 H 500 V 0 H 0 Z" transform="translate(-229.41751,-435.30081)" id="path375" />
    </clipPath>
    <clipPath clipPathUnits="userSpaceOnUse" id="clipPath377">
      <path d="M 0,500 H 500 V 0 H 0 Z" transform="translate(-212.31691,-438.15041)" id="path377" />
    </clipPath>
    <clipPath clipPathUnits="userSpaceOnUse" id="clipPath379">
      <path d="M 0,500 H 500 V 0 H 0 Z" transform="translate(-230.53561,-431.04981)" id="path379" />
    </clipPath>
    <clipPath clipPathUnits="userSpaceOnUse" id="clipPath381">
      <path d="M 0,500 H 500 V 0 H 0 Z" transform="translate(-200.44921,-304.96681)" id="path381" />
    </clipPath>
    <clipPath clipPathUnits="userSpaceOnUse" id="clipPath383">
      <path d="M 0,500 H 500 V 0 H 0 Z" transform="translate(-192.3208,-318.48581)" id="path383" />
    </clipPath>
    <clipPath clipPathUnits="userSpaceOnUse" id="clipPath385">
      <path d="M 0,500 H 500 V 0 H 0 Z" transform="translate(-200.44921,-304.96681)" id="path385" />
    </clipPath>
    <clipPath clipPathUnits="userSpaceOnUse" id="clipPath387">
      <path d="M 0,500 H 500 V 0 H 0 Z" transform="translate(-242.5444,-263.98241)" id="path387" />
    </clipPath>
    <clipPath clipPathUnits="userSpaceOnUse" id="clipPath389">
      <path d="M 0,500 H 500 V 0 H 0 Z" transform="translate(-222.874,-273.3579)" id="path389" />
    </clipPath>
    <clipPath clipPathUnits="userSpaceOnUse" id="clipPath391">
      <path d="M 0,500 H 500 V 0 H 0 Z" transform="translate(-261.97951,-254.5728)" id="path391" />
    </clipPath>
    <clipPath clipPathUnits="userSpaceOnUse" id="clipPath393">
      <path d="M 0,500 H 500 V 0 H 0 Z" transform="translate(-242.5444,-263.98241)" id="path393" />
    </clipPath>
    <clipPath clipPathUnits="userSpaceOnUse" id="clipPath395">
      <path d="M 0,500 H 500 V 0 H 0 Z" transform="translate(-284.5234,-247.34471)" id="path395" />
    </clipPath>
    <clipPath clipPathUnits="userSpaceOnUse" id="clipPath397">
      <path d="M 0,500 H 500 V 0 H 0 Z" transform="translate(-261.97951,-254.5728)" id="path397" />
    </clipPath>
    <clipPath clipPathUnits="userSpaceOnUse" id="clipPath399">
      <path d="M 0,500 H 500 V 0 H 0 Z" transform="translate(-306.22461,-235.83111)" id="path399" />
    </clipPath>
    <clipPath clipPathUnits="userSpaceOnUse" id="clipPath401">
      <path d="M 0,500 H 500 V 0 H 0 Z" transform="translate(-284.5234,-247.34471)" id="path401" />
    </clipPath>
    <clipPath clipPathUnits="userSpaceOnUse" id="clipPath403">
      <path d="M 0,500 H 500 V 0 H 0 Z" transform="translate(-323.62701,-215.97171)" id="path403" />
    </clipPath>
    <clipPath clipPathUnits="userSpaceOnUse" id="clipPath405">
      <path d="M 0,500 H 500 V 0 H 0 Z" transform="translate(-306.22461,-235.83111)" id="path405" />
    </clipPath>
    <clipPath clipPathUnits="userSpaceOnUse" id="clipPath407">
      <path d="M 0,500 H 500 V 0 H 0 Z" transform="translate(-338.43851,-196.10351)" id="path407" />
    </clipPath>
    <clipPath clipPathUnits="userSpaceOnUse" id="clipPath409">
      <path d="M 0,500 H 500 V 0 H 0 Z" transform="translate(-323.62701,-215.97171)" id="path409" />
    </clipPath>
    <clipPath clipPathUnits="userSpaceOnUse" id="clipPath411">
      <path d="M 0,500 H 500 V 0 H 0 Z" transform="translate(-349.30081,-178.14161)" id="path411" />
    </clipPath>
    <clipPath clipPathUnits="userSpaceOnUse" id="clipPath413">
      <path d="M 0,500 H 500 V 0 H 0 Z" transform="translate(-338.43851,-196.10351)" id="path413" />
    </clipPath>
    <clipPath clipPathUnits="userSpaceOnUse" id="clipPath415">
      <path d="M 0,500 H 500 V 0 H 0 Z" transform="translate(-360.88771,-160.3232)" id="path415" />
    </clipPath>
    <clipPath clipPathUnits="userSpaceOnUse" id="clipPath417">
      <path d="M 0,500 H 500 V 0 H 0 Z" transform="translate(-349.30081,-178.14161)" id="path417" />
    </clipPath>
    <clipPath clipPathUnits="userSpaceOnUse" id="clipPath419">
      <path d="M 0,500 H 500 V 0 H 0 Z" transform="translate(-372.44241,-146.8164)" id="path419" />
    </clipPath>
    <clipPath clipPathUnits="userSpaceOnUse" id="clipPath421">
      <path d="M 0,500 H 500 V 0 H 0 Z" transform="translate(-360.88771,-160.3232)" id="path421" />
    </clipPath>
    <clipPath clipPathUnits="userSpaceOnUse" id="clipPath423">
      <path d="M 0,500 H 500 V 0 H 0 Z" transform="translate(-386.25491,-135.37211)" id="path423" />
    </clipPath>
    <clipPath clipPathUnits="userSpaceOnUse" id="clipPath425">
      <path d="M 0,500 H 500 V 0 H 0 Z" transform="translate(-372.44241,-146.8164)" id="path425" />
    </clipPath>
    <clipPath clipPathUnits="userSpaceOnUse" id="clipPath427">
      <path d="M 0,500 H 500 V 0 H 0 Z" transform="translate(-401.10251,-128.24711)" id="path427" />
    </clipPath>
    <clipPath clipPathUnits="userSpaceOnUse" id="clipPath429">
      <path d="M 0,500 H 500 V 0 H 0 Z" transform="translate(-386.25491,-135.37211)" id="path429" />
    </clipPath>
    <clipPath clipPathUnits="userSpaceOnUse" id="clipPath431">
      <path d="M 0,500 H 500 V 0 H 0 Z" transform="translate(-413.76071,-123.0801)" id="path431" />
    </clipPath>
    <clipPath clipPathUnits="userSpaceOnUse" id="clipPath433">
      <path d="M 0,500 H 500 V 0 H 0 Z" transform="translate(-401.10161,-128.24711)" id="path433" />
    </clipPath>
    <clipPath clipPathUnits="userSpaceOnUse" id="clipPath435">
      <path d="M 0,500 H 500 V 0 H 0 Z" transform="translate(-425.78911,-120.54)" id="path435" />
    </clipPath>
    <clipPath clipPathUnits="userSpaceOnUse" id="clipPath437">
      <path d="M 0,500 H 500 V 0 H 0 Z" transform="translate(-413.75981,-123.0801)" id="path437" />
    </clipPath>
    <clipPath clipPathUnits="userSpaceOnUse" id="clipPath439">
      <path d="M 0,500 H 500 V 0 H 0 Z" transform="translate(-425.78811,-120.54)" id="path439" />
    </clipPath>
    <clipPath clipPathUnits="userSpaceOnUse" id="clipPath441">
      <path d="M 0,500 H 500 V 0 H 0 Z" transform="translate(-229.41751,-435.30081)" id="path441" />
    </clipPath>
    <clipPath clipPathUnits="userSpaceOnUse" id="clipPath443">
      <path d="M 0,500 H 500 V 0 H 0 Z" transform="translate(-195.1851,-416.87351)" id="path443" />
    </clipPath>
    <clipPath clipPathUnits="userSpaceOnUse" id="clipPath445">
      <path d="M 0,500 H 500 V 0 H 0 Z" transform="translate(-194.6499,-409.87941)" id="path445" />
    </clipPath>
    <clipPath clipPathUnits="userSpaceOnUse" id="clipPath447">
      <path d="M 0,500 H 500 V 0 H 0 Z" transform="translate(-180.8179,-416.55571)" id="path447" />
    </clipPath>
    <clipPath clipPathUnits="userSpaceOnUse" id="clipPath449">
      <path d="M 0,500 H 500 V 0 H 0 Z" transform="translate(-198.2974,-216.10161)" id="path449" />
    </clipPath>
    <clipPath clipPathUnits="userSpaceOnUse" id="clipPath451">
      <path d="M 0,500 H 500 V 0 H 0 Z" transform="translate(-197.6113,-434.94731)" id="path451" />
    </clipPath>
    <clipPath clipPathUnits="userSpaceOnUse" id="clipPath453">
      <path d="M 0,500 H 500 V 0 H 0 Z" transform="translate(-181.1304,-402.84721)" id="path453" />
    </clipPath>
    <clipPath clipPathUnits="userSpaceOnUse" id="clipPath455">
      <path d="M 0,500 H 500 V 0 H 0 Z" transform="translate(-242.46831,-133.5723)" id="path455" />
    </clipPath>
    <clipPath clipPathUnits="userSpaceOnUse" id="clipPath457">
      <path d="M 0,500 H 500 V 0 H 0 Z" transform="translate(-246.79251,-92.899402)" id="path457" />
    </clipPath>
    <clipPath clipPathUnits="userSpaceOnUse" id="clipPath459">
      <path d="M 0,500 H 500 V 0 H 0 Z" transform="translate(-318.30371,-121.8018)" id="path459" />
    </clipPath>
    <clipPath clipPathUnits="userSpaceOnUse" id="clipPath461">
      <path d="M 0,500 H 500 V 0 H 0 Z" transform="translate(-324.81151,-137.6904)" id="path461" />
    </clipPath>
    <clipPath clipPathUnits="userSpaceOnUse" id="clipPath463">
      <path d="M 0,500 H 500 V 0 H 0 Z" transform="translate(-244.49661,-366.76711)" id="path463" />
    </clipPath>
    <clipPath clipPathUnits="userSpaceOnUse" id="clipPath465">
      <path d="M 0,500 H 500 V 0 H 0 Z" transform="translate(-243.4399,-375.14401)" id="path465" />
    </clipPath>
    <clipPath clipPathUnits="userSpaceOnUse" id="clipPath467">
      <path d="M 0,500 H 500 V 0 H 0 Z" transform="translate(-253.43071,-381.39501)" id="path467" />
    </clipPath>
    <clipPath clipPathUnits="userSpaceOnUse" id="clipPath469">
      <path d="M 0,500 H 500 V 0 H 0 Z" transform="translate(-243.12451,-390.81981)" id="path469" />
    </clipPath>
    <clipPath clipPathUnits="userSpaceOnUse" id="clipPath471">
      <path d="M 0,500 H 500 V 0 H 0 Z" transform="translate(-253.43551,-396.48051)" id="path471" />
    </clipPath>
    <clipPath clipPathUnits="userSpaceOnUse" id="clipPath473">
      <path d="M 0,500 H 500 V 0 H 0 Z" transform="translate(-173.79741,-438.61521)" id="path473" />
    </clipPath>
    <clipPath clipPathUnits="userSpaceOnUse" id="clipPath475">
      <path d="M 0,500 H 500 V 0 H 0 Z" transform="translate(-180.8169,-448.72901)" id="path475" />
    </clipPath>
    <clipPath clipPathUnits="userSpaceOnUse" id="clipPath477">
      <path d="M 0,500 H 500 V 0 H 0 Z" transform="translate(-188.0278,-438.81051)" id="path477" />
    </clipPath>
    <clipPath clipPathUnits="userSpaceOnUse" id="clipPath479">
      <path d="M 0,500 H 500 V 0 H 0 Z" transform="translate(-164.4438,-429.47951)" id="path479" />
    </clipPath>
    <clipPath clipPathUnits="userSpaceOnUse" id="clipPath481">
      <path d="M 0,500 H 500 V 0 H 0 Z" transform="translate(-223.02781,-442.81351)" id="path481" />
    </clipPath>
    <clipPath clipPathUnits="userSpaceOnUse" id="clipPath483">
      <path d="M 0,500 H 500 V 0 H 0 Z" transform="translate(-224.1406,-432.02691)" id="path483" />
    </clipPath>
    <clipPath clipPathUnits="userSpaceOnUse" id="clipPath485">
      <path d="M 0,500 H 500 V 0 H 0 Z" transform="translate(-238.43601,-430.93951)" id="path485" />
    </clipPath>
    <clipPath clipPathUnits="userSpaceOnUse" id="clipPath487">
      <path d="M 0,500 H 500 V 0 H 0 Z" transform="translate(-224.20951,-252.1665)" id="path487" />
    </clipPath>
    <clipPath clipPathUnits="userSpaceOnUse" id="clipPath489">
      <path d="M 0,500 H 500 V 0 H 0 Z" transform="translate(-211.53421,-248.99801)" id="path489" />
    </clipPath>
    <clipPath clipPathUnits="userSpaceOnUse" id="clipPath491">
      <path d="M 0,500 H 500 V 0 H 0 Z" transform="translate(-217.62211,-256.78221)" id="path491" />
    </clipPath>
    <clipPath clipPathUnits="userSpaceOnUse" id="clipPath493">
      <path d="M 0,500 H 500 V 0 H 0 Z" transform="translate(-193.0039,-310.81641)" id="path493" />
    </clipPath>
    <clipPath clipPathUnits="userSpaceOnUse" id="clipPath495">
      <path d="M 0,500 H 500 V 0 H 0 Z" transform="translate(-195.34371,-304.73681)" id="path495" />
    </clipPath>
    <clipPath clipPathUnits="userSpaceOnUse" id="clipPath497">
      <path d="M 0,500 H 500 V 0 H 0 Z" transform="translate(-205.90621,-306.07471)" id="path497" />
    </clipPath>
    <clipPath clipPathUnits="userSpaceOnUse" id="clipPath499">
      <path d="M 0,500 H 500 V 0 H 0 Z" transform="translate(-212.42241,-304.53171)" id="path499" />
    </clipPath>
    <clipPath clipPathUnits="userSpaceOnUse" id="clipPath501">
      <path d="M 0,500 H 500 V 0 H 0 Z" transform="translate(-230.47221,-278.2026)" id="path501" />
    </clipPath>
    <clipPath clipPathUnits="userSpaceOnUse" id="clipPath503">
      <path d="M 0,500 H 500 V 0 H 0 Z" transform="translate(-236.38531,-277.57761)" id="path503" />
    </clipPath>
    <clipPath clipPathUnits="userSpaceOnUse" id="clipPath505">
      <path d="M 0,500 H 500 V 0 H 0 Z" transform="translate(-236.61771,-261.92871)" id="path505" />
    </clipPath>
    <clipPath clipPathUnits="userSpaceOnUse" id="clipPath507">
      <path d="M 0,500 H 500 V 0 H 0 Z" transform="translate(-248.12551,-268.7295)" id="path507" />
    </clipPath>
    <clipPath clipPathUnits="userSpaceOnUse" id="clipPath509">
      <path d="M 0,500 H 500 V 0 H 0 Z" transform="translate(-253.9453,-252.41061)" id="path509" />
    </clipPath>
    <clipPath clipPathUnits="userSpaceOnUse" id="clipPath511">
      <path d="M 0,500 H 500 V 0 H 0 Z" transform="translate(-268.85841,-261.021)" id="path511" />
    </clipPath>
    <clipPath clipPathUnits="userSpaceOnUse" id="clipPath513">
      <path d="M 0,500 H 500 V 0 H 0 Z" transform="translate(-278.84671,-263.01861)" id="path513" />
    </clipPath>
    <clipPath clipPathUnits="userSpaceOnUse" id="clipPath515">
      <path d="M 0,500 H 500 V 0 H 0 Z" transform="translate(-277.45411,-241.44431)" id="path515" />
    </clipPath>
    <clipPath clipPathUnits="userSpaceOnUse" id="clipPath517">
      <path d="M 0,500 H 500 V 0 H 0 Z" transform="translate(-291.00781,-251.98731)" id="path517" />
    </clipPath>
    <clipPath clipPathUnits="userSpaceOnUse" id="clipPath519">
      <path d="M 0,500 H 500 V 0 H 0 Z" transform="translate(-291.583,-231.55271)" id="path519" />
    </clipPath>
    <clipPath clipPathUnits="userSpaceOnUse" id="clipPath521">
      <path d="M 0,500 H 500 V 0 H 0 Z" transform="translate(-305.82131,-246.04391)" id="path521" />
    </clipPath>
    <clipPath clipPathUnits="userSpaceOnUse" id="clipPath523">
      <path d="M 0,500 H 500 V 0 H 0 Z" transform="translate(-304.58111,-219.6426)" id="path523" />
    </clipPath>
    <clipPath clipPathUnits="userSpaceOnUse" id="clipPath525">
      <path d="M 0,500 H 500 V 0 H 0 Z" transform="translate(-320.65331,-233.27051)" id="path525" />
    </clipPath>
    <clipPath clipPathUnits="userSpaceOnUse" id="clipPath527">
      <path d="M 0,500 H 500 V 0 H 0 Z" transform="translate(-312.40621,-210.22071)" id="path527" />
    </clipPath>
    <clipPath clipPathUnits="userSpaceOnUse" id="clipPath529">
      <path d="M 0,500 H 500 V 0 H 0 Z" transform="translate(-320.37791,-199.96481)" id="path529" />
    </clipPath>
    <clipPath clipPathUnits="userSpaceOnUse" id="clipPath531">
      <path d="M 0,500 H 500 V 0 H 0 Z" transform="translate(-338.23141,-211.09571)" id="path531" />
    </clipPath>
    <clipPath clipPathUnits="userSpaceOnUse" id="clipPath533">
      <path d="M 0,500 H 500 V 0 H 0 Z" transform="translate(-333.24611,-180.9609)" id="path533" />
    </clipPath>
    <clipPath clipPathUnits="userSpaceOnUse" id="clipPath535">
      <path d="M 0,500 H 500 V 0 H 0 Z" transform="translate(-349.75291,-190.0703)" id="path535" />
    </clipPath>
    <clipPath clipPathUnits="userSpaceOnUse" id="clipPath537">
      <path d="M 0,500 H 500 V 0 H 0 Z" transform="translate(-356.27731,-176.8418)" id="path537" />
    </clipPath>
    <clipPath clipPathUnits="userSpaceOnUse" id="clipPath539">
      <path d="M 0,500 H 500 V 0 H 0 Z" transform="translate(-350.46971,-157.752)" id="path539" />
    </clipPath>
    <clipPath clipPathUnits="userSpaceOnUse" id="clipPath541">
      <path d="M 0,500 H 500 V 0 H 0 Z" transform="translate(-366.06051,-160.3232)" id="path541" />
    </clipPath>
    <clipPath clipPathUnits="userSpaceOnUse" id="clipPath543">
      <path d="M 0,500 H 500 V 0 H 0 Z" transform="translate(-364.13671,-143.793)" id="path543" />
    </clipPath>
    <clipPath clipPathUnits="userSpaceOnUse" id="clipPath545">
      <path d="M 0,500 H 500 V 0 H 0 Z" transform="translate(-377.46781,-147.89261)" id="path545" />
    </clipPath>
    <clipPath clipPathUnits="userSpaceOnUse" id="clipPath547">
      <path d="M 0,500 H 500 V 0 H 0 Z" transform="translate(-378.89751,-133.4639)" id="path547" />
    </clipPath>
    <clipPath clipPathUnits="userSpaceOnUse" id="clipPath549">
      <path d="M 0,500 H 500 V 0 H 0 Z" transform="translate(-391.97171,-136.3086)" id="path549" />
    </clipPath>
    <clipPath clipPathUnits="userSpaceOnUse" id="clipPath551">
      <path d="M 0,500 H 500 V 0 H 0 Z" transform="translate(-398.54881,-133.02641)" id="path551" />
    </clipPath>
    <clipPath clipPathUnits="userSpaceOnUse" id="clipPath553">
      <path d="M 0,500 H 500 V 0 H 0 Z" transform="translate(-407.65531,-128.1602)" id="path553" />
    </clipPath>
    <clipPath clipPathUnits="userSpaceOnUse" id="clipPath555">
      <path d="M 0,500 H 500 V 0 H 0 Z" transform="translate(-419.66311,-123.8027)" id="path555" />
    </clipPath>
    <clipPath clipPathUnits="userSpaceOnUse" id="clipPath557">
      <path d="M 0,500 H 500 V 0 H 0 Z" transform="translate(-429.65331,-121.5996)" id="path557" />
    </clipPath>
  </defs>
  <g ns1:groupmode="layer" id="layer2" ns1:label="Color" style="display:inline" transform="matrix(0.20542448,0,0,0.20542448,12.212384,-8.6657839)">
    <path id="color-region-1" d="M 286.88,90.84 L 283.13,84.97 L 276.55,77.70 L 270.92,73.24 L 263.17,68.78 L 254.96,65.72 L 245.80,64.08 L 236.64,64.08 L 229.37,65.25 L 220.68,68.07 L 213.40,71.83 L 207.53,76.05 L 200.02,83.80 L 194.86,91.55 L 191.80,98.12 L 189.46,105.63 L 188.52,113.85 L 205.66,105.87 L 220.21,100.94 L 231.95,97.89 L 261.53,92.25 Z" style="fill:transparent;stroke:none" />
    <path id="color-region-2" d="M 358.25,149.30 L 351.91,137.80 L 346.05,130.05 L 340.18,123.94 L 326.56,114.32 L 319.05,110.80 L 309.66,107.75 L 290.88,104.69 L 277.49,104.46 L 267.63,105.16 L 240.87,109.62 L 214.34,117.14 L 195.09,125.59 L 181.48,134.51 L 169.27,146.25 L 161.05,158.22 L 154.71,173.71 L 151.66,190.62 L 151.43,203.06 L 152.13,211.28 L 155.89,228.18 L 172.79,212.69 L 193.21,198.83 L 214.11,188.04 L 237.58,178.64 L 273.97,168.08 L 304.73,162.21 L 327.26,160.10 L 346.75,160.10 L 362.71,161.74 Z" style="fill:transparent;stroke:none" />
    <path id="color-region-3" d="M 372.34,177.24 L 358.02,174.65 L 344.17,173.48 L 323.98,173.71 L 299.56,176.53 L 276.79,181.23 L 251.67,188.27 L 229.60,196.02 L 211.76,204.00 L 198.61,211.28 L 181.71,222.78 L 169.50,233.34 L 159.41,244.38 L 150.72,256.59 L 142.74,271.38 L 138.28,282.41 L 133.82,297.67 L 131.24,311.52 L 130.30,321.15 L 130.53,345.80 L 131.94,357.77 L 134.76,372.09 L 138.04,383.59 L 142.74,396.27 L 151.19,412.94 L 157.29,422.33 L 165.04,432.19 L 179.60,447.22 L 201.43,466.00 L 202.84,449.56 L 206.13,430.31 L 210.12,414.58 L 218.10,391.81 L 226.78,373.03 L 230.54,366.93 L 233.12,365.28 L 235.94,365.05 L 239.23,366.46 L 241.34,369.04 L 241.58,374.20 L 236.18,384.30 L 228.90,401.20 L 220.45,428.43 L 217.39,443.93 L 215.75,456.84 L 215.28,477.73 L 235.24,497.45 L 244.16,509.43 L 250.97,522.34 L 254.49,532.43 L 257.30,547.46 L 257.54,561.31 L 256.37,575.87 L 257.30,586.90 L 260.36,593.47 L 263.64,596.53 L 267.63,598.17 L 273.50,598.40 L 277.02,597.70 L 283.60,595.12 L 286.65,593.00 L 293.46,577.98 L 296.28,568.12 L 298.39,556.62 L 299.09,536.66 L 298.15,527.04 L 295.34,512.95 L 286.65,481.02 L 283.83,461.77 L 284.07,450.50 L 285.24,442.52 L 288.29,431.49 L 292.75,420.92 L 298.39,411.30 L 307.31,399.79 L 315.29,391.81 L 325.15,383.59 L 344.40,371.15 L 386.19,349.08 L 400.04,339.22 L 406.61,332.65 L 411.78,325.61 L 416.00,317.16 L 418.35,309.88 L 420.70,307.30 L 422.81,306.36 L 426.33,306.36 L 431.03,308.94 L 447.70,321.15 L 463.66,335.94 L 472.58,346.27 L 480.57,357.30 L 486.43,367.16 L 493.48,382.19 L 498.17,395.80 L 502.16,415.29 L 503.10,426.32 L 503.10,440.41 L 501.93,453.55 L 498.64,469.05 L 493.48,484.78 L 483.62,504.97 L 475.17,517.88 L 463.66,531.73 L 450.52,544.17 L 430.33,558.73 L 414.36,567.18 L 404.97,571.17 L 393.47,575.16 L 379.38,578.92 L 362.71,581.74 L 346.75,582.91 L 332.43,582.91 L 317.40,581.74 L 310.83,590.19 L 304.02,596.99 L 319.28,599.58 L 337.59,600.99 L 358.02,600.52 L 372.57,598.87 L 391.35,595.12 L 412.01,588.78 L 426.57,582.67 L 440.42,575.40 L 453.33,567.18 L 467.42,556.15 L 480.10,543.94 L 493.01,528.68 L 500.99,516.94 L 509.44,501.68 L 516.48,485.01 L 521.18,469.28 L 523.76,456.61 L 525.17,444.40 L 525.17,421.16 L 522.12,399.79 L 515.54,377.73 L 505.45,355.89 L 492.30,336.17 L 483.15,325.14 L 474.70,316.45 L 456.85,301.19 L 437.37,288.28 L 421.17,280.77 L 404.03,275.60 L 385.25,273.25 L 366.23,274.19 L 355.67,276.07 L 344.17,279.12 L 325.39,286.64 L 304.02,299.08 L 300.03,298.84 L 296.28,295.56 L 295.57,290.86 L 298.15,287.11 L 310.83,279.12 L 324.45,272.32 L 337.59,267.15 L 349.57,263.63 L 361.54,261.28 L 374.92,259.87 L 396.28,260.58 L 406.14,262.22 L 418.82,265.51 L 440.19,274.43 L 459.44,286.17 L 457.09,267.15 L 452.16,248.84 L 444.18,231.00 L 434.08,215.74 L 423.05,203.76 L 406.61,191.32 L 395.82,185.45 L 388.07,182.17 Z" style="fill:transparent;stroke:none" />
    <path id="color-region-4" d="M 428.21,323.49 L 420.70,336.64 L 412.48,346.97 L 377.97,381.25 L 364.83,395.80 L 354.03,410.83 L 346.28,425.62 L 341.58,440.41 L 338.53,460.36 L 335.95,519.05 L 333.84,537.83 L 330.08,555.21 L 325.15,568.82 L 349.10,569.29 L 363.89,567.88 L 374.69,566.01 L 388.54,562.48 L 400.04,558.49 L 420.70,548.63 L 430.09,542.76 L 440.19,535.25 L 448.40,527.97 L 456.85,519.05 L 470.24,500.98 L 479.39,483.37 L 485.96,464.12 L 488.08,453.55 L 489.49,441.11 L 489.02,420.45 L 486.90,406.84 L 484.09,396.27 L 479.39,383.59 L 474.23,373.03 L 462.96,355.89 L 454.98,346.50 L 443.94,335.70 Z" style="fill:transparent;stroke:none" />
    <path id="color-region-6" d="M 373.04,367.40 L 342.52,383.59 L 330.79,391.58 L 322.10,398.85 L 311.77,409.65 L 305.20,418.81 L 299.56,429.37 L 296.51,437.59 L 294.63,445.57 L 293.69,454.02 L 294.40,468.34 L 296.51,480.08 L 306.14,516.47 L 308.95,536.66 L 308.25,557.08 L 304.02,577.27 L 308.25,571.17 L 313.65,560.61 L 316.93,551.69 L 319.99,539.01 L 322.80,512.71 L 324.68,462.71 L 327.03,444.16 L 330.32,430.31 L 335.72,416.23 L 346.05,398.38 L 356.37,384.77 Z" style="fill:transparent;stroke:none" />
    <path id="color-region-7" d="M 455.21,421.86 L 453.10,422.80 L 451.22,424.91 L 450.52,429.14 L 451.45,431.49 L 453.33,433.36 L 455.45,434.30 L 458.26,434.30 L 462.02,431.72 L 462.96,429.84 L 462.96,426.56 L 462.02,424.44 L 459.67,422.33 Z" style="fill:transparent;stroke:none" />
    <path id="color-region-8" d="M 384.31,422.10 L 381.73,423.97 L 380.56,426.09 L 380.79,430.55 L 383.84,433.83 L 389.01,434.07 L 392.53,430.31 L 392.53,425.85 L 389.48,422.33 Z" style="fill:transparent;stroke:none" />
    <path id="path2" style="fill:transparent;stroke-width:0.864545;stroke-opacity:1;stroke:none" transform="matrix(1.2879835,0,0,1.2879835,-59.449507,42.184767)" d="M 10.600335,225.3966 V 10.042423 l 101.261095,0.01344 101.2611,0.01344 -5.02122,2.848823 c -14.82992,8.413876 -24.59566,23.822997 -26.36359,41.598464 -0.72947,7.334481 -0.82082,7.499723 -8.77049,15.864057 -9.40471,9.895277 -15.1502,20.457632 -17.93365,32.968723 -2.51677,11.31243 -1.76481,33.51898 1.47637,43.59877 l 2.22261,6.91213 -3.90346,5.79632 c -5.74445,8.53001 -11.30943,21.36589 -14.47235,33.38109 -3.75043,14.24706 -4.75894,40.34631 -2.14011,55.38473 3.31464,19.03412 9.80077,35.89271 19.4361,50.51782 5.63913,8.55943 21.57266,24.89253 37.61773,38.56109 24.67499,21.02025 35.08712,34.19119 38.39964,48.57404 0.63605,2.76167 1.17152,12.30197 1.18994,21.20067 0.0395,19.08646 0.94816,23.08281 6.59886,29.02292 l 4.23491,4.45182 H 128.14707 10.600335 Z M 360.22507,437.92441 c 39.96333,-12.24981 72.27863,-38.79172 89.93484,-73.86725 10.53644,-20.93152 14.58109,-37.659 14.58109,-60.30299 0,-17.02363 -1.98878,-29.69466 -6.8031,-43.34431 -7.67881,-21.77108 -18.33241,-38.27425 -35.41408,-54.85889 l -8.3731,-8.12946 -0.87267,-11.95538 c -1.97547,-27.06367 -12.54044,-50.15382 -30.71347,-67.12542 -10.31264,-9.63087 -20.13844,-15.67294 -32.97885,-20.279318 l -9.70984,-3.483313 -2.36963,-7.398305 C 331.6423,68.871707 319.27881,54.009418 303.27467,46.029599 c -5.03594,-2.510968 -11.95082,-5.145545 -15.36639,-5.854615 -5.82603,-1.209479 -6.37505,-1.61183 -8.87675,-6.505335 -3.81142,-7.455436 -9.68438,-13.854018 -17.51627,-19.083952 l -6.80361,-4.543274 H 422.21252 589.71337 V 225.3966 440.75077 l -119.11429,-0.0736 -119.11429,-0.0736 z" />
  </g>
  <g id="layer-MC1" ns1:groupmode="layer" ns1:label="Outline" style="display:inline" transform="matrix(0.20542448,0,0,0.20542448,12.212384,-8.6657839)">
    <rect style="fill:none;stroke:#000000;stroke-width:1.33306;stroke-dasharray:none;stroke-opacity:1" id="rect1" width="154.88843" height="115.74319" x="2.0926507" y="1.7971287" transform="matrix(4.8679691,0,0,4.8679691,-59.449507,42.184767)" />
    <path style="font-size:22.325px;font-family:'Comic Sans MS';-inkscape-font-specification:'Comic Sans MS';display:inline;fill:#000000;fill-opacity:1;stroke:none;stroke-width:6.43992;stroke-opacity:1" d="m 511.50571,584.74849 q 0,0.38153 -0.67585,1.11189 -0.50144,0.50144 -0.99198,1.00288 -1.21,1.37351 -1.89675,3.92431 -0.59955,2.22378 -0.59955,4.37126 0,5.53764 2.5072,8.12115 0.50144,0.39243 1.01378,0.78486 0.63225,0.50144 0.63225,0.99198 0,0.35973 -0.28342,0.62135 -0.28342,0.27253 -0.65405,0.27253 -0.32703,0 -0.78487,-0.25072 -4.61107,-2.58351 -4.61107,-10.79187 0,-2.95414 1.1882,-5.98459 1.3299,-3.36837 3.48828,-4.88359 0.43603,-0.30523 0.68675,-0.30523 0.39244,0 0.68676,0.31613 0.29432,0.30522 0.29432,0.69766 z m 7.03107,17.17978 q -2.23468,0 -3.7281,-1.35171 -1.56973,-1.41711 -1.56973,-3.739 0,-2.21288 1.47162,-4.56747 1.63513,-2.61621 3.6845,-2.61621 1.06828,0 2.38729,0.50144 1.66784,0.64315 1.66784,1.56973 0,0.41423 -0.27253,0.74126 -0.27252,0.31612 -0.67585,0.31612 -0.31613,0 -0.55595,-0.18531 -0.22891,-0.19622 -0.44693,-0.38153 -0.64315,-0.51234 -2.10387,-0.51234 -1.11189,0 -2.20198,1.98396 -0.99198,1.82044 -0.99198,3.15035 0,1.43892 0.98108,2.26738 0.91567,0.77397 2.35459,0.77397 0.65405,0 1.39531,-0.34883 l 1.2645,-0.67586 q 0.32703,-0.17441 0.46874,-0.17441 0.40333,0 0.69766,0.32703 0.29432,0.31612 0.29432,0.73035 0,0.79577 -1.67873,1.53703 -1.47162,0.65405 -2.4418,0.65405 z m 12.61232,-7.02016 q 0,8.20836 -4.62198,10.79187 -0.44693,0.25072 -0.77396,0.25072 -0.37063,0 -0.65405,-0.27253 -0.28342,-0.26162 -0.28342,-0.62135 0,-0.49054 0.63225,-0.99198 0.50144,-0.39243 1.01378,-0.78486 2.5072,-2.58351 2.5072,-8.12115 0,-2.14748 -0.59955,-4.37126 -0.69765,-2.5508 -1.89675,-3.92431 -0.50144,-0.50144 -0.99198,-1.00288 -0.67586,-0.73036 -0.67586,-1.11189 0,-0.39244 0.28343,-0.69766 0.29432,-0.31613 0.68675,-0.31613 0.25072,0 0.69766,0.30523 2.15837,1.51522 3.48828,4.88359 1.1882,3.03045 1.1882,5.98459 z m 24.97391,7.23818 q -0.58865,0 -0.97018,-0.61045 -0.32703,-0.52324 -0.58865,-1.74414 l -0.39243,-1.87495 q -0.44693,-1.74414 -1.41711,-7.69602 l -2.18018,6.57323 -0.64315,2.07116 q -0.39243,1.2318 -0.81757,2.01667 -0.45783,0.82846 -1.2318,0.82846 -0.64315,0 -1.01378,-0.69765 -0.23982,-0.45784 -0.43603,-1.1664 l -0.31613,-1.20999 q -1.10099,-3.84801 -1.94035,-8.24107 l -0.39244,1.95126 -1.40621,5.75566 q -0.0872,1.01378 -0.54504,2.99774 -0.32703,0.85027 -1.07919,0.85027 -0.53414,0 -0.85027,-0.38153 -0.27252,-0.32702 -0.27252,-0.80666 0,-1.82045 0.75216,-4.46936 l 1.1991,-4.39306 0.63225,-3.43377 q 0.47964,-2.4091 1.01378,-3.15036 0.43603,-0.63225 1.07919,-0.63225 0.70855,0 1.05738,0.80667 0.42514,0.97017 0.91568,3.95701 0.57774,3.58639 1.79864,7.76143 1.61333,-4.19684 2.79063,-8.7425 l 0.32702,-1.59153 q 0.19622,-0.95928 0.51234,-1.54793 0.42514,-0.80666 1.1664,-0.80666 0.93747,0 1.42801,1.80954 0.17442,0.62135 0.42514,2.57261 0.64315,4.9272 1.60243,8.41548 l 0.53414,1.87495 q 0.41423,1.50432 0.41423,1.85315 0,0.46874 -0.35973,0.78486 -0.34882,0.31613 -0.79576,0.31613 z m 12.02367,-0.18532 q -0.20711,0 -0.75216,-0.47963 -0.49054,-0.44694 -0.73036,-0.79577 -1.04648,0.56685 -1.84225,0.85027 -0.79576,0.29432 -1.3299,0.29432 -2.55081,0 -3.7172,-1.43891 -1.10099,-1.35171 -1.10099,-4.14234 0,-2.63801 1.80954,-4.51296 1.82045,-1.87495 4.33855,-1.87495 0.94838,0 2.12568,0.49054 1.48252,0.61045 1.48252,1.47162 0,0.29432 -0.21802,0.52324 -0.10901,0.41423 -0.17442,1.36261 -0.0545,0.94838 -0.0654,2.43089 -0.0109,1.35171 0.18531,2.13658 0.10901,0.47964 0.68676,1.91855 0.0763,0.19622 0.25072,0.57775 l 0.0654,0.18531 q 0,0.43604 -0.30522,0.71946 -0.30522,0.28342 -0.70856,0.28342 z m -2.26738,-7.57611 q 0,-0.46873 0.0545,-1.01378 0.0654,-0.55594 0.18532,-1.17729 -0.40333,-0.20712 -0.69766,-0.30523 -0.28342,-0.0981 -0.45783,-0.0981 -1.68964,0 -2.92144,1.38442 -1.2209,1.37351 -1.2209,3.17215 0,1.78775 0.63225,2.68162 0.63225,0.89387 1.89676,0.89387 1.04648,0 1.77684,-0.38153 0.39243,-0.20712 1.10099,-0.82847 -0.34883,-2.88873 -0.34883,-4.32765 z m 14.14934,2.15838 -0.25072,3.66269 q -0.0654,2.18018 -0.44694,3.56459 -0.49054,1.76594 -1.56972,2.60531 -1.30811,1.01378 -3.78261,1.01378 -1.44982,0 -2.4309,-0.19621 -1.37351,-0.27253 -1.37351,-1.1337 0,-0.97017 0.94838,-0.97017 0.39243,0 1.30811,0.18531 0.91567,0.19622 2.02756,0.17442 2.09297,-0.0327 2.88873,-2.02757 0.52324,-1.32991 0.55595,-4.08783 -0.58865,1.09009 -1.40622,1.63513 -0.80666,0.54505 -1.85315,0.54505 -1.97306,0 -3.21576,-1.34081 -1.2318,-1.35171 -1.2318,-3.49918 0,-2.94324 1.68964,-4.74188 1.74414,-1.85315 4.75278,-1.85315 1.01379,0 1.70054,0.26162 0.68676,0.26162 1.04649,0.78486 1.16639,0.0327 1.16639,1.2972 0,0.77397 -0.22892,2.07117 -0.25072,1.50432 -0.29432,2.04937 z m -3.49918,-4.72008 q -2.07117,0 -3.20486,1.42801 -1.01378,1.28631 -1.01378,3.27027 0,1.58062 0.59954,2.37639 0.59955,0.79576 1.79865,0.79576 1.10099,0 2.13657,-1.2427 0.93748,-1.14459 1.06829,-2.26738 0.22892,-1.1773 0.49054,-3.6954 -0.43604,-0.33793 -0.90478,-0.50144 -0.46873,-0.16351 -0.97017,-0.16351 z m 8.45908,-4.38216 q -0.52324,0 -0.90477,-0.37063 -0.38153,-0.37063 -0.38153,-0.89387 0,-0.52324 0.38153,-0.89387 0.38153,-0.37063 0.90477,-0.37063 0.52324,0 0.89387,0.37063 0.38153,0.37063 0.38153,0.89387 0,0.52324 -0.38153,0.89387 -0.37063,0.37063 -0.89387,0.37063 z m 0.49054,8.85152 q 0,0.65405 0.0327,1.96216 0.0436,1.2972 0.0436,1.95125 0,0.47964 -0.29433,0.78487 -0.29432,0.30522 -0.77396,0.30522 -0.46874,0 -0.77396,-0.30522 -0.29433,-0.30523 -0.29433,-0.78487 0,-0.65405 -0.0436,-1.95125 -0.0327,-1.30811 -0.0327,-1.96216 0,-1.02469 0.10901,-2.55081 0.10901,-1.53702 0.10901,-2.56171 0,-0.49054 0.29432,-0.79576 0.30522,-0.30522 0.77396,-0.30522 0.46874,0 0.76306,0.30522 0.30523,0.30522 0.30523,0.79576 0,1.02469 -0.10901,2.56171 -0.10901,1.52612 -0.10901,2.55081 z m 8.61169,5.63575 q -2.23468,0 -3.7281,-1.35171 -1.56972,-1.41711 -1.56972,-3.739 0,-2.21288 1.47161,-4.56747 1.63514,-2.61621 3.6845,-2.61621 1.06829,0 2.38729,0.50144 1.66784,0.64315 1.66784,1.56973 0,0.41423 -0.27252,0.74126 -0.27253,0.31612 -0.67586,0.31612 -0.31612,0 -0.55594,-0.18531 -0.22892,-0.19622 -0.44694,-0.38153 -0.64315,-0.51234 -2.10387,-0.51234 -1.11189,0 -2.20198,1.98396 -0.99198,1.82044 -0.99198,3.15035 0,1.43892 0.98108,2.26738 0.91568,0.77397 2.35459,0.77397 0.65406,0 1.39532,-0.34883 l 1.2645,-0.67586 q 0.32702,-0.17441 0.46874,-0.17441 0.40333,0 0.69765,0.32703 0.29433,0.31612 0.29433,0.73035 0,0.79577 -1.67874,1.53703 -1.47162,0.65405 -2.4418,0.65405 z m 9.52737,-7.08557 q -0.30522,0 -1.3299,-0.14171 -0.0872,1.64603 -0.0872,5.76656 0,0.43604 -0.28342,0.74126 -0.28343,0.29433 -0.70856,0.29433 -0.43604,0 -0.71946,-0.29433 -0.28342,-0.30522 -0.28342,-0.74126 v -3.20485 q 0,-1.60243 0.19621,-4.51297 0.21802,-3.15035 0.23982,-4.51296 v -1.50432 q 0,-1.07919 0.13081,-1.56973 0.25073,-0.95928 1.06829,-0.82847 0.34883,-0.10901 0.99198,-0.16351 0.64315,-0.0545 1.58063,-0.0545 1.99486,0 3.739,1.36261 1.91855,1.50433 1.91855,3.6191 0,2.70341 -2.04936,4.30584 -1.83135,1.43892 -4.40396,1.43892 z m 0.54505,-8.6553 q -0.47964,0 -0.86117,0.0218 -0.37063,0.0218 -0.63225,0.0654 l -0.0218,2.00576 -0.22892,4.33855 1.19909,0.14171 q 1.83135,0 3.08495,-0.92657 1.37351,-1.01378 1.37351,-2.73612 0,-1.2209 -1.3081,-2.10387 -1.21,-0.80667 -2.60531,-0.80667 z m 13.17916,15.55556 q -2.4636,0 -3.98972,-1.2318 -1.66783,-1.36261 -1.66783,-3.81531 0,-2.83423 1.37351,-4.75278 1.49342,-2.09297 3.98972,-2.09297 1.80954,0 2.95414,0.61045 1.40621,0.75216 1.40621,2.31098 0,1.09009 -1.2318,1.98396 -0.54504,0.39243 -2.31099,1.2209 l -4.16413,1.97306 q 0.61045,0.90477 1.51522,1.36261 0.91567,0.45784 2.12567,0.45784 0.75216,0 1.76594,-0.28343 1.28631,-0.35972 1.65694,-0.93747 0.37063,-0.58865 0.79576,-0.58865 0.38153,0 0.67586,0.29433 0.30522,0.28342 0.30522,0.66495 0,1.21 -1.95126,2.08207 -1.66783,0.74126 -3.24846,0.74126 z m -0.29432,-9.9307 q -1.32991,0 -2.21288,1.03558 -0.88297,1.02468 -1.31901,3.09585 l 3.34657,-1.59153 q 1.97306,-0.95928 2.81243,-1.66783 -0.93747,-0.87207 -2.62711,-0.87207 z m 15.79537,10.20322 q -0.93748,0 -1.05739,-1.02468 l -0.30522,-2.3873 q -0.15261,-1.2754 -0.15261,-2.38729 0,-0.30522 0.0327,-1.03558 0.0436,-0.73036 0.0436,-1.03559 0,-2.35459 -0.87207,-2.35459 -1.2209,0 -2.33279,1.44982 -1.00288,1.31901 -1.56972,3.33567 -0.0218,0.42513 -0.0981,1.06829 -0.0654,0.54504 -0.0654,1.05738 0,0.32703 0.0654,0.98108 0.0654,0.65405 0.0654,0.98108 0,0.49054 -0.30522,0.79576 -0.29432,0.30523 -0.76306,0.30523 -0.47964,0 -0.77396,-0.30523 -0.29433,-0.30522 -0.29433,-0.79576 0,-0.32703 -0.0763,-0.98108 -0.0654,-0.65405 -0.0654,-0.98108 0,-1.12279 0.15261,-3.10675 0.16352,-1.99486 0.16352,-3.11765 0,-0.34883 -0.0436,-1.03558 -0.0327,-0.68676 -0.0327,-1.03559 0,-0.46874 0.30522,-0.76306 0.31613,-0.30522 0.77397,-0.30522 1.00288,0 1.10099,1.41711 l 0.0327,1.2754 q 1.83135,-2.44179 3.7608,-2.44179 1.74414,0 2.4309,1.53702 0.46874,1.02468 0.51234,3.03044 v 1.10099 l -0.0109,1.01379 q 0,0.90477 0.22892,2.34368 0.23982,1.42802 0.23982,2.32189 0,0.47964 -0.31613,0.77396 -0.30522,0.30523 -0.77396,0.30523 z m 8.25196,-0.0872 q -2.23468,0 -3.7281,-1.35171 -1.56973,-1.41711 -1.56973,-3.739 0,-2.21288 1.47162,-4.56747 1.63513,-2.61621 3.6845,-2.61621 1.06828,0 2.38729,0.50144 1.66783,0.64315 1.66783,1.56973 0,0.41423 -0.27252,0.74126 -0.27252,0.31612 -0.67585,0.31612 -0.31613,0 -0.55595,-0.18531 -0.22892,-0.19622 -0.44693,-0.38153 -0.64316,-0.51234 -2.10387,-0.51234 -1.11189,0 -2.20198,1.98396 -0.99198,1.82044 -0.99198,3.15035 0,1.43892 0.98108,2.26738 0.91567,0.77397 2.35459,0.77397 0.65405,0 1.39531,-0.34883 l 1.2645,-0.67586 q 0.32703,-0.17441 0.46874,-0.17441 0.40333,0 0.69766,0.32703 0.29432,0.31612 0.29432,0.73035 0,0.79577 -1.67873,1.53703 -1.47162,0.65405 -2.4418,0.65405 z m 8.6226,-14.48727 q -0.52325,0 -0.90478,-0.37063 -0.38153,-0.37063 -0.38153,-0.89387 0,-0.52324 0.38153,-0.89387 0.38153,-0.37063 0.90478,-0.37063 0.52324,0 0.89387,0.37063 0.38153,0.37063 0.38153,0.89387 0,0.52324 -0.38153,0.89387 -0.37063,0.37063 -0.89387,0.37063 z m 0.49054,8.85152 q 0,0.65405 0.0327,1.96216 0.0436,1.2972 0.0436,1.95125 0,0.47964 -0.29432,0.78487 -0.29433,0.30522 -0.77396,0.30522 -0.46874,0 -0.77397,-0.30522 -0.29432,-0.30523 -0.29432,-0.78487 0,-0.65405 -0.0436,-1.95125 -0.0327,-1.30811 -0.0327,-1.96216 0,-1.02469 0.10901,-2.55081 0.10901,-1.53702 0.10901,-2.56171 0,-0.49054 0.29433,-0.79576 0.30522,-0.30522 0.77396,-0.30522 0.46874,0 0.76306,0.30522 0.30522,0.30522 0.30522,0.79576 0,1.02469 -0.109,2.56171 -0.10901,1.52612 -0.10901,2.55081 z m 6.45332,-3.61909 -0.16351,5.41773 q 0,0.86117 -0.0872,2.52901 -0.10901,1.09008 -1.06828,1.09008 -1.06829,0 -1.06829,-1.11189 0,-1.319 0.11991,-3.95701 0.11991,-2.64892 0.11991,-3.96792 0,-1.72234 0.0545,-3.93522 0.0545,-2.22378 0.0545,-3.94612 0,-1.09009 1.06828,-1.09009 1.07919,0 1.07919,1.09009 0,1.72234 -0.0545,3.94612 -0.0545,2.21288 -0.0545,3.93522 z m 4.74188,9.58187 q -0.56685,0 -0.95928,-0.39243 -0.39243,-0.39244 -0.39243,-0.95928 0,-0.55595 0.39243,-0.94838 0.39243,-0.40333 0.95928,-0.40333 0.55594,0 0.94838,0.40333 0.40333,0.39243 0.40333,0.94838 0,0.56684 -0.40333,0.95928 -0.39244,0.39243 -0.94838,0.39243 z m 11.48953,-16.34042 q -2.63802,0 -2.95414,3.6627 l -0.0327,0.67585 q 1.85315,-0.13081 2.3982,-0.13081 1.73324,0 1.73324,1.09009 0,0.79576 -0.85027,0.94837 -0.37063,0.0654 -0.87207,0.0545 -0.49054,-0.0218 -2.5072,0.14171 l -0.0872,2.4854 q 0,0.67585 0.0436,2.02756 0.0436,1.35171 0.0436,2.01667 0,2.07116 -0.23982,3.22666 -0.18532,0.87207 -1.01378,0.87207 -0.44694,0 -0.76307,-0.29433 -0.31612,-0.28342 -0.31612,-0.71945 0,-0.0872 0.0218,-0.21802 0.22892,-1.41712 0.22892,-3.08495 l -0.0327,-2.97594 v -3.16126 q -1.36261,0.10901 -1.72234,0.10901 -1.10099,0 -1.10099,-1.05738 0,-1.07919 1.90765,-1.13369 l 1.04649,-0.0327 q 0.0327,-0.61045 0.16351,-1.65693 0.28342,-2.42 1.2209,-3.56459 1.13369,-1.38441 3.54278,-1.38441 1.55883,0 1.55883,1.05739 0,1.04648 -1.41711,1.04648 z m 12.91755,8.96052 q 0,0.78487 0.0109,2.35459 0.0109,1.56973 0.0109,2.35459 0,0.23982 0.0327,0.73036 0.0436,0.49054 0.0436,0.73036 0,0.46874 -0.31612,0.76306 -0.31613,0.30523 -0.77396,0.30523 -0.83937,0 -1.06829,-1.03559 -1.36261,0.70856 -3.13945,0.70856 -1.42802,0 -2.36549,-0.63225 -1.03559,-0.69766 -1.2318,-2.03847 -0.42514,-2.88873 -0.42514,-5.14521 0,-1.49342 0.32703,-3.40107 0.15261,-0.94838 1.03558,-0.94838 0.46874,0 0.78487,0.30522 0.31612,0.29433 0.31612,0.76306 0,0.50145 -0.16351,1.60243 -0.15261,1.10099 -0.15261,1.67874 0,1.82045 0.11991,3.11765 0.1199,1.29721 0.35972,2.08207 0.35973,0.19621 0.70856,0.30522 0.34883,0.0981 0.68676,0.0981 1.46071,0 3.08495,-0.46874 l -0.0109,-2.21287 -0.0218,-2.11478 q 0,-2.35459 0.20712,-4.08783 0.11991,-1.00288 1.05738,-1.00288 0.46874,0 0.78487,0.30523 0.31612,0.30522 0.29432,0.76306 z m 11.07529,7.14008 q -0.93748,0 -1.05739,-1.02468 l -0.30522,-2.3873 q -0.15261,-1.2754 -0.15261,-2.38729 0,-0.30522 0.0327,-1.03558 0.0436,-0.73036 0.0436,-1.03559 0,-2.35459 -0.87207,-2.35459 -1.2209,0 -2.33279,1.44982 -1.00288,1.31901 -1.56972,3.33567 -0.0218,0.42513 -0.0981,1.06829 -0.0654,0.54504 -0.0654,1.05738 0,0.32703 0.0654,0.98108 0.0654,0.65405 0.0654,0.98108 0,0.49054 -0.30523,0.79576 -0.29432,0.30523 -0.76306,0.30523 -0.47964,0 -0.77396,-0.30523 -0.29433,-0.30522 -0.29433,-0.79576 0,-0.32703 -0.0763,-0.98108 -0.0654,-0.65405 -0.0654,-0.98108 0,-1.12279 0.15261,-3.10675 0.16352,-1.99486 0.16352,-3.11765 0,-0.34883 -0.0436,-1.03558 -0.0327,-0.68676 -0.0327,-1.03559 0,-0.46874 0.30523,-0.76306 0.31612,-0.30522 0.77396,-0.30522 1.00288,0 1.10099,1.41711 l 0.0327,1.2754 q 1.83135,-2.44179 3.7608,-2.44179 1.74414,0 2.4309,1.53702 0.46874,1.02468 0.51234,3.03044 v 1.10099 l -0.0109,1.01379 q 0,0.90477 0.22892,2.34368 0.23982,1.42802 0.23982,2.32189 0,0.47964 -0.31613,0.77396 -0.30522,0.30523 -0.77396,0.30523 z" id="text1" aria-label="(c) MagicPencil.fun" ns1:label="Logo" />
    <path id="outline-0" d="m 909,2398.4972 c -57.25866,-4.0186 -111.52215,-12.2511 -162.8165,-24.7014 -12.87311,-3.1246 -13.45581,-3.179 -17.5,-1.6348 -2.30093,0.8786 -8.99508,3.4529 -14.8759,5.7208 -47.275,18.2309 -90.61948,15.1328 -124.69306,-8.9123 -25.03365,-17.6659 -42.30991,-45.3657 -49.0201,-78.5961 -4.59841,-22.7724 -5.10844,-55.2297 -1.61652,-102.8734 3.27918,-44.741 1.36593,-74.7843 -7.02365,-110.2904 -7.56852,-32.0313 -20.38606,-62.0162 -39.33736,-92.0245 C 464.25095,1941.061 416.58538,1891.4734 341.89047,1828.9008 276.06024,1773.7543 272.87975,1771.051 248,1749.0991 227.78162,1731.26 181.03846,1684.8128 166.38416,1668 89.251192,1579.5057 43.586229,1488.6448 16.6151,1370 10.745842,1344.1814 8.2961843,1330.1546 3.3424051,1294 0.72653904,1274.9084 0.66153149,1273.1491 0.23858014,1210 -0.22204145,1141.2265 0.21252047,1129.8872 4.5499546,1097.5 11.461295,1045.8937 23.287336,1000.8363 44.313521,946 c 8.005197,-20.87755 25.007027,-56.04318 38.226163,-79.06483 7.287365,-12.69124 21.192126,-34.26443 33.967346,-52.70021 l 5.72732,-8.26504 -6.13655,-15.95565 C 108.56603,770.43095 104.08397,754.42186 99.015628,729 91.126508,689.42964 89.535071,672.53227 89.55028,628.5 c 0.01005,-29.10528 0.33657,-36.6633 2.268068,-52.5 7.5239,-61.6898 23.916762,-110.50581 53.897362,-160.5 20.01767,-33.38047 48.73508,-66.39705 82.52937,-94.88447 L 244.99017,306.5 245.41265,285 c 0.7003,-35.63816 4.97866,-61.15299 15.61538,-93.12545 C 269.171,167.39795 277.11205,151.0268 291.5262,129 303.40349,110.84985 314.40844,97.478538 331.44671,80.495505 353.42374,58.589715 371.01621,45.681135 398.02872,31.64057 440.35071,9.6424413 480.10883,0.00414325 528.54154,0.00121268 615.96873,-0.00407738 692.95541,38.067061 749.88047,109.45685 c 13.11264,16.44457 30.08308,45.76745 36.20548,62.55873 1.23873,3.39733 2.73864,6.30584 3.33314,6.46335 0.5945,0.15751 7.60591,1.52202 15.58091,3.03223 77.12124,14.60438 143.05602,48.4785 194.54594,99.94837 16.59346,16.58699 24.68206,26.16182 39.03346,46.20525 31.2103,43.58901 50.7796,87.1162 67.4213,149.96222 l 2.152,8.12699 7.6737,2.19575 c 23.2515,6.65323 29.7574,8.65959 40.6736,12.54333 75.9428,27.01866 135.2407,63.23007 191.3668,116.86187 43.6578,41.7175 76.1058,85.91519 103.9897,141.64506 13.0806,26.14344 19.9586,42.67001 29.7567,71.5 21.5246,63.33445 31.5341,121.02305 33.0603,190.541 l 0.6267,28.541 8.0572,6.959 c 79.7531,68.8827 139.1426,141.5919 186.0914,227.8275 13.1348,24.1262 22.0436,43.142 34.1631,72.9216 12.5033,30.7225 23.6197,64.7349 32.8223,100.4252 2.3062,8.944 7.0668,32.458 9.9781,49.2847 5.4934,31.7502 5.5911,33.8316 5.5438,118.1632 -0.024,43.0852 -0.428,81.4868 -0.8974,85.3368 -7.0355,57.7041 -18.1576,104.2014 -38.4541,160.7625 -19.607,54.6393 -47.9913,110.9317 -82.0572,162.7375 -9.5594,14.5375 -33.2447,46.9465 -41.6569,57 -2.071,2.475 -7.889,9.45 -12.929,15.5 -19.859,23.839 -63.2643,68.3603 -80.1202,82.1803 -2.5624,2.1009 -9.0874,7.6602 -14.5,12.3541 -44.3913,38.4962 -98.4687,74.3971 -158.3413,105.1195 -65.2981,33.5065 -143.4212,60.4852 -219.5,75.8013 -37.1123,7.4715 -65.1019,11.3465 -109.5,15.1596 -30.8501,2.6496 -96.58647,3.3766 -125,1.3824 z m 121,-56.9517 c 70.5867,-6.0108 135.166,-19.3116 201.3086,-41.4617 63.1658,-21.1532 114.0707,-45.1894 170.7331,-80.6163 14.1568,-8.8513 43.5343,-29.141 53.7515,-37.1238 54.129,-42.2915 104.4154,-92.84 142.2294,-142.9706 77.3149,-102.4977 126.5908,-226.3623 138.391,-347.8731 2.4286,-25.0072 2.7736,-33.2342 2.7363,-65.2438 -0.093,-80.1375 -10.6613,-142.8431 -36.8676,-218.7562 -23.9448,-69.3621 -57.7055,-131.3361 -105.1035,-192.937 -34.3464,-44.6385 -72.9195,-84.3053 -121.9474,-125.4052 -45.0297,-37.7482 -90.5914,-68.1208 -134.9411,-89.95539 -89.3206,-43.975 -178.1472,-59.72772 -274.2903,-48.64332 -26.1487,3.0147 -65.563,11.40933 -94.5,20.12704 -50.71224,15.2778 -112.92413,45.07737 -159.88231,76.58387 -4.88526,3.2777 -10.94121,6.8703 -13.45765,7.9834 -12.55581,5.554 -28.35427,-0.9498 -35.10036,-14.4499 -5.16079,-10.3276 -3.55858,-22.3046 3.99414,-29.8573 10.52081,-10.5208 68.08806,-44.31302 103.07826,-60.50733 59.09719,-27.35161 113.19229,-43.99255 171.94252,-52.89357 52.8106,-8.00114 110.566,-8.52968 155.4254,-1.42235 57.5952,9.12511 93.5255,19.61112 147,42.90089 28.6783,12.49028 66.1347,33.41825 97.4986,54.47525 7.5223,5.05028 14.2317,9.52521 14.9098,9.94431 1.2979,0.8021 1.2649,-0.012 -1.0123,-24.9434 -2.212,-24.21906 -7.7431,-58.59974 -12.8963,-80.16278 -9.2429,-38.67596 -26.0338,-85.03143 -41.7553,-115.27623 -35.5687,-68.42664 -78.4526,-119.58371 -136.5241,-162.86246 -45.7769,-34.11593 -93.1979,-57.27489 -155.7204,-76.0491 -33.1626,-9.95801 -81.7897,-18.18087 -125,-21.1375 -18.64084,-1.27549 -77.38994,-1.27175 -100,0.006 -72.02204,4.07128 -153.98311,18.16653 -238,40.93005 -5.775,1.56468 -15.9,4.28648 -22.5,6.04845 -23.85174,6.36759 -80.67369,24.23692 -105,33.02033 C 404.28618,644.25587 313.69848,695.60888 240,760.8952 168.9305,823.85262 116.82407,903.61983 85.507744,997.3999 81.999751,1007.905 77.995501,1020.775 76.60941,1026 c -1.386091,5.225 -3.23621,12.2 -4.111376,15.5 -3.090795,11.6545 -9.391076,43.2059 -11.881161,59.5 -17.430561,114.0587 -1.949556,245.699 41.937407,356.6083 25.04438,63.291 57.3397,116.4282 103.8633,170.8917 19.09979,22.3594 58.12762,60.554 92.61718,90.6397 25.96743,22.6518 58.3942,49.7039 60.58802,50.5458 1.107,0.4248 1.37722,-1.2442 1.37722,-8.5065 0,-10.7611 3.43278,-52.973 5.57885,-68.6016 10.95382,-79.7705 30.59584,-154.4069 61.07571,-232.0774 11.18045,-28.4907 34.67958,-78.7677 47.51313,-101.6556 7.54083,-13.4487 15.16522,-18.9671 26.29413,-19.0313 10.99645,-0.063 19.98029,5.4954 25.35228,15.6869 2.16699,4.1111 2.63619,6.3333 2.63933,12.5 l 0.004,7.5 -9.55167,18.1322 c -8.12356,15.4212 -19.63949,39.2589 -27.83728,57.6225 -12.94079,28.9883 -29.00007,72.9161 -38.65875,105.7453 -2.50813,8.525 -5.41478,18.2 -6.4592,21.5 -8.52364,26.9315 -20.43852,87.7642 -25.36428,129.5 -3.9894,33.802 -4.68933,44.3495 -5.18588,78.1483 l -0.46496,31.6484 9.22877,8.3516 c 31.80121,28.7788 50.56418,47.4419 69.69165,69.3206 54.84044,62.7285 84.83786,123.4096 97.09016,196.4015 5.2407,31.221 5.86362,63.7541 2.14697,112.1296 -3.27739,42.6582 -2.2583,67.0155 3.57722,85.5 5.27584,16.7116 17.12203,31.4389 30.44167,37.8454 17.30026,8.3211 37.06022,8.185 61.44933,-0.4233 12.94725,-4.5698 29.76882,-13.2503 31.859,-16.4404 4.84566,-7.3954 18.86188,-36.7755 23.96452,-50.2333 14.29332,-37.6974 22.87084,-73.3778 27.70556,-115.2484 3.8307,-33.1754 3.14439,-78.8286 -1.69874,-113 -4.62343,-32.6212 -15.30776,-77.6465 -34.40802,-145 -19.34921,-68.2315 -26.0695,-107.7583 -26.06903,-153.3308 3.5e-4,-32.8618 2.05972,-49.8299 10.11191,-83.3165 6.21512,-25.8469 22.36907,-65.58 36.96044,-90.91 43.8394,-76.1032 114.72655,-141.0619 214.01336,-196.1149 17.57993,-9.7478 50.2442,-26.8258 90.5,-47.3165 83.1454,-42.322 119.2712,-65.2662 152.9182,-97.1213 26.2099,-24.814 48.2006,-58.1021 59.3829,-89.89 2.225,-6.325 5.2421,-14.9641 6.7047,-19.1981 3.2624,-9.4441 9.7009,-16.6621 17.1164,-19.1888 5.8432,-1.991 15.3112,-2.0856 19.8286,-0.1981 10.2102,4.2661 59.9284,38.673 81.0492,56.0892 28.5689,23.5578 37.3145,31.2229 51.8886,45.4774 48.7694,47.7004 83.5953,91.7733 111.9093,141.6236 64.3275,113.2563 89.3048,231.8177 76.1351,361.3948 -5.5198,54.3097 -22.2085,116.4828 -46.4372,173 -14.3495,33.4726 -40.103,79.605 -60.2912,108 -26.0151,36.5906 -46.735,61.0229 -76.3295,90.0055 -62.8822,61.5819 -127.8106,105.071 -209.1996,140.1222 -77.0772,33.1943 -155.3012,51.5222 -247.6755,58.0306 -25.71264,1.8117 -84.99538,1.5397 -111.5,-0.5115 -11.825,-0.9151 -24.875,-1.9238 -29,-2.2415 l -7.5,-0.5776 -2.5,3.7839 c -12.06193,18.2562 -37.00527,46.4796 -51.87557,58.6972 -1.85656,1.5254 -3.14986,2.9991 -2.874,3.275 0.63008,0.63 22.5345,4.7229 42.24957,7.8944 24.47239,3.9367 57.70909,7.2902 88.5,8.9294 16.42856,0.8746 87.7067,-0.3895 105,-1.8621 z M 806.34223,2228 c 37.21969,-55.745 57.53993,-120.6801 65.55914,-209.5 3.90182,-43.2162 5.18472,-68.6072 7.12412,-141 1.13645,-42.4205 4.31945,-109.1058 5.95078,-124.6714 0.53772,-5.1307 1.68487,-16.0786 2.54922,-24.3286 10.34194,-98.7109 34.47697,-167.7438 84.95469,-242.994 28.50862,-42.4994 65.47892,-86.3662 106.40682,-126.256 6.9129,-6.7375 12.3029,-12.25 11.978,-12.25 -0.325,0 -13.8151,6.6737 -29.978,14.8304 -95.5955,48.2431 -142.85066,78.5755 -190.74406,122.436 -25.53641,23.3861 -46.23533,47.5239 -65.10038,75.9159 -25.08705,37.7561 -42.23771,78.9642 -49.4515,118.8177 -3.68816,20.3757 -4.84512,36.7917 -4.26388,60.5 1.11503,45.4816 7.29161,77.5179 31.71549,164.5 23.73118,84.5151 32.27671,134.7019 32.35219,190 0.0483,35.4143 -1.91597,58.248 -7.99867,92.9787 -2.61858,14.9514 -7.88777,37.6415 -11.38394,49.0213 -3.89063,12.6637 -3.01287,11.984 10.32998,-8 z M 1008.5,2207.5717 c 68.3959,-6.1739 124.5724,-18.5178 185.4858,-40.7577 61.9472,-22.6173 127.7827,-59.599 177.5142,-99.7147 23.9113,-19.288 57.5684,-51.6055 75.6087,-72.5993 23.0898,-26.8702 45.3103,-57.6317 62.844,-87 10.8111,-18.108 29.7496,-56.757 37.7309,-77 19.8427,-50.3264 29.3,-87.3975 35.3331,-138.5 6.4441,-54.5841 4.9976,-99.774 -5.0853,-158.872 -9.2372,-54.1412 -30.6644,-113.2515 -60.4466,-166.7523 -41.7247,-74.9542 -110.3171,-148.2161 -191.2575,-204.2774 l -3.2726,-2.2668 -1.1614,3.3343 c -4.3193,12.3996 -24.801,47.0617 -38.606,65.3342 -23.2336,30.7526 -39.4805,47.7022 -153.8457,160.5 -41.466,40.8977 -56.0961,56.7749 -82.9306,90 -35.7714,44.2903 -66.23749,98.4758 -80.68374,143.5 -8.94993,27.894 -12.13913,41.2018 -16.65567,69.5 -8.08064,50.6291 -11.46021,96.1474 -14.03256,189 -1.45408,52.4872 -4.08951,108.2898 -6.04514,128 -2.60946,26.2999 -3.19923,31.6554 -5.06579,46 -4.56148,35.0552 -11.65803,69.924 -19.43626,95.5 -3.26391,10.7322 -7.28089,21.6857 -16.68632,45.5 -1.62916,4.125 -3.1933,8.2452 -3.47588,9.1561 -0.56644,1.8258 2.71577,2.299 27.00283,3.8929 17.46868,1.1464 78.35705,0.2207 97.16753,-1.4773 z m 249,-331.2623 c -28.5311,-3.7176 -48.933,-11.6999 -69.5978,-27.2304 -12.8796,-9.6795 -22.0976,-19.3874 -31.4986,-33.1729 -9.9458,-14.5843 -11.3665,-19.9872 -7.4962,-28.5094 6.9769,-15.3629 27.198,-16.3775 35.9231,-1.8024 14.948,24.9706 34.8872,40.6187 60.6695,47.6129 4.2553,1.1544 12.1118,2.1266 20.0372,2.4796 13.9901,0.623 23.6002,-0.6873 35.9154,-4.8969 20.3683,-6.9624 38.0401,-21.7219 49.8452,-41.6305 6.6495,-11.2142 12.5129,-14.9341 21.8049,-13.8336 9.7589,1.1558 16.5705,8.1073 17.586,17.9474 0.4696,4.5493 0.1246,6.4549 -2.0146,11.1275 -8.6847,18.9699 -32.3716,43.503 -53.3056,55.21 -22.8585,12.7832 -55.0078,19.6775 -77.8685,16.6987 z m -151.7179,-155.801 c -28.3449,-4.607 -51.5366,-21.9157 -64.3254,-48.0084 -6.4696,-13.1996 -8.6093,-22.4028 -8.7189,-37.5 -0.1398,-19.2616 4.0793,-33.6155 14.4285,-49.0877 27.0478,-40.4368 81.9102,-50.809 122.4556,-23.1511 6.5901,4.4954 17.4286,15.4235 22.0565,22.2388 25.4816,37.5257 17.8434,89.1054 -17.335,117.0604 -8.9818,7.1375 -23.1587,14.2843 -33.4869,16.8813 -10.6553,2.6793 -24.4404,3.295 -35.0744,1.5667 z m 52.4669,-88.3353 c 5.4882,-2.4806 10.2635,-7.295 13.5151,-13.6256 6.5413,-12.7356 0.6119,-29.784 -12.614,-36.2682 -10.8633,-5.3259 -23.2711,-3.1337 -31.3901,5.5462 -6.0504,6.4683 -8.1612,12.3232 -7.5454,20.9292 0.5372,7.5087 2.4561,12.0945 7.1474,17.0806 8.055,8.5615 20.3744,11.0893 30.887,6.3378 z M 1406,1720.8264 c -9.3783,-1.3371 -22.6817,-6.0593 -31.0542,-11.0231 -8.8272,-5.2334 -22.7234,-18.113 -28.1257,-26.0682 -10.1759,-14.9847 -15,-30.5769 -15.0359,-48.5988 -0.027,-13.6356 1.9603,-24.2464 6.4693,-34.5381 15.8547,-36.1882 51.7526,-57.1129 90.2786,-52.6228 20.3469,2.3714 36.6485,10.2132 50.9815,24.5246 14.7419,14.7197 23.0395,31.8432 25.625,52.8815 2.7009,21.9784 -5.4112,48.2122 -20.091,64.9722 -20.9747,23.9468 -49.0118,34.755 -79.0476,30.4727 z m 47.9655,-87.4088 c 7.3979,-2.1969 15.2393,-9.6869 18.0981,-17.2869 4.7799,-12.707 -1.0532,-27.4203 -13.4439,-33.9109 -4.2627,-2.2329 -6.3751,-2.6751 -12.6197,-2.6418 -8.5073,0.045 -13.6167,2.1053 -19.2867,7.7754 -5.6022,5.6021 -7.2133,10.0078 -7.2133,19.725 0,7.7929 0.2747,9.0202 3,13.4027 3.8226,6.1469 8.9997,10.3086 15.705,12.6247 6.5606,2.2661 9.0162,2.3146 15.7605,0.3118 z M 210,712.82243 c 31.7312,-27.83502 71.89695,-56.41669 115,-81.83324 13.14386,-7.75052 46.29661,-25.62276 56.5,-30.45844 42.98103,-20.36997 59.95973,-27.80369 91.33022,-39.98677 40.93621,-15.89804 74.02518,-26.68756 135.20089,-44.08576 77.73193,-22.10674 153.94669,-37.23731 226.03932,-44.87456 42.21373,-4.47198 54.37535,-5.06987 102.42957,-5.03566 47.36666,0.0337 69.0321,1.32824 99.9781,5.97372 5.4198,0.8136 9.9807,1.35282 10.1352,1.19828 0.3984,-0.39836 -5.9448,-19.07098 -11.2189,-33.02579 C 1016.7573,391.38297 990.54039,351.05222 954.3,315.94304 904.99217,268.17427 837.29334,239.07331 755.5,230.48703 c -21.46653,-2.25346 -63.52763,-3.02354 -86.19587,-1.57812 -64.65207,4.12246 -132.4464,16.47656 -209.61172,38.19736 -12.75451,3.59019 -46.77618,15.00229 -61.74384,20.71112 C 300.48148,324.99238 229.81718,380.8009 188.79568,453 c -17.41125,30.64434 -31.67948,70.34644 -37.73514,105 -4.60428,26.34809 -5.44947,37.24675 -5.50606,71 -0.0624,37.21318 0.95037,48.94979 7.04234,81.61223 1.99112,10.67553 8.90009,38.65422 10.91873,44.21673 0.29976,0.826 7.57886,-5.46049 19.23337,-16.61063 C 193.06201,728.35156 205.325,716.9234 210,712.82243 Z M 322.53913,260.13445 C 346.48841,248.29766 347.58201,247.79674 366,240.22766 c 16.67672,-6.85348 55.9131,-20.51559 73.5,-25.5927 62.86911,-18.14951 140.98099,-33.62896 200,-39.63404 14.58643,-1.48414 59.17444,-3.2511 72.20243,-2.86128 13.89494,0.41577 13.36048,1.34487 6.02758,-10.4782 C 693.54552,122.66802 657.15192,91.20688 616,73.719021 562.07703,50.803994 504.71609,49.329667 450,69.452384 c -37.70425,13.86634 -67.48466,34.979776 -93.96977,66.621796 -22.97606,27.44973 -39.06282,58.80403 -47.94196,93.4425 C 304.99634,241.57861 300.88254,270 302.22858,270 c 0.19233,0 9.33208,-4.4395 20.31055,-9.86555 z" transform="translate(117.3847,50.9331) scale(0.234764)" style="fill:#000000;stroke:none" />
  </g>
</svg>