<?xml version="1.0" encoding="UTF-8"?>
<svg xmlns="http://www.w3.org/2000/svg" xmlns:xlink="http://www.w3.org/1999/xlink" viewBox="0 0 2000 2000">
<defs>
<radialGradient id="radial-pattern-0" gradientUnits="userSpaceOnUse" cx="0" cy="0" fx="0" fy="0" r="3059.46" gradientTransform="matrix(1, 0, 0, 1, 1000, 1000)">
<stop offset="0" stop-color="rgb(100%, 100%, 100%)" stop-opacity="1"/>
<stop offset="0.125" stop-color="rgb(100%, 100%, 100%)" stop-opacity="1"/>
<stop offset="0.152344" stop-color="rgb(99.934387%, 99.978638%, 99.995422%)" stop-opacity="1"/>
<stop offset="0.164062" stop-color="rgb(99.739075%, 99.916077%, 99.983215%)" stop-opacity="1"/>
<stop offset="0.1875" stop-color="rgb(99.491882%, 99.726868%, 99.813843%)" stop-opacity="1"/>
<stop offset="0.199219" stop-color="rgb(99.224854%, 99.440002%, 99.513245%)" stop-opacity="1"/>
<stop offset="0.210938" stop-color="rgb(98.928833%, 99.249268%, 99.360657%)" stop-opacity="1"/>
<stop offset="0.222656" stop-color="rgb(98.629761%, 99.002075%, 99.128723%)" stop-opacity="1"/>
<stop offset="0.234375" stop-color="rgb(98.419189%, 98.638916%, 98.699951%)" stop-opacity="1"/>
<stop offset="0.246094" stop-color="rgb(98.162842%, 98.310852%, 98.339844%)" stop-opacity="1"/>
<stop offset="0.269531" stop-color="rgb(97.862244%, 98.023987%, 98.052979%)" stop-opacity="1"/>
<stop offset="0.277344" stop-color="rgb(97.657776%, 97.767639%, 97.772217%)" stop-opacity="1"/>
<stop offset="0.285156" stop-color="rgb(97.363281%, 97.480774%, 97.4823%)" stop-opacity="1"/>
<stop offset="0.292969" stop-color="rgb(96.974182%, 97.163391%, 97.187805%)" stop-opacity="1"/>
<stop offset="0.300781" stop-color="rgb(96.661377%, 96.871948%, 96.899414%)" stop-opacity="1"/>
<stop offset="0.308594" stop-color="rgb(96.446228%, 96.609497%, 96.615601%)" stop-opacity="1"/>
<stop offset="0.316406" stop-color="rgb(96.243286%, 96.353149%, 96.334839%)" stop-opacity="1"/>
<stop offset="0.324219" stop-color="rgb(96.038818%, 96.095276%, 96.052551%)" stop-opacity="1"/>
<stop offset="0.332031" stop-color="rgb(95.748901%, 95.732117%, 95.655823%)" stop-opacity="1"/>
<stop offset="0.339844" stop-color="rgb(95.359802%, 95.243835%, 95.121765%)" stop-opacity="1"/>
<stop offset="0.347656" stop-color="rgb(95.027161%, 94.882202%, 94.744873%)" stop-opacity="1"/>
<stop offset="0.351562" stop-color="rgb(94.750977%, 94.682312%, 94.570923%)" stop-opacity="1"/>
<stop offset="0.355469" stop-color="rgb(94.459534%, 94.497681%, 94.424438%)" stop-opacity="1"/>
<stop offset="0.359375" stop-color="rgb(94.166565%, 94.313049%, 94.277954%)" stop-opacity="1"/>
<stop offset="0.363281" stop-color="rgb(93.89801%, 94.108582%, 94.070435%)" stop-opacity="1"/>
<stop offset="0.367188" stop-color="rgb(93.675232%, 93.867493%, 93.754578%)" stop-opacity="1"/>
<stop offset="0.371094" stop-color="rgb(93.473816%, 93.612671%, 93.391418%)" stop-opacity="1"/>
<stop offset="0.375" stop-color="rgb(93.270874%, 93.357849%, 93.026733%)" stop-opacity="1"/>
<stop offset="0.378906" stop-color="rgb(92.96875%, 92.982483%, 92.617798%)" stop-opacity="1"/>
<stop offset="0.386719" stop-color="rgb(92.565918%, 92.489624%, 92.211914%)" stop-opacity="1"/>
<stop offset="0.394531" stop-color="rgb(92.245483%, 92.134094%, 91.912842%)" stop-opacity="1"/>
<stop offset="0.398438" stop-color="rgb(91.97998%, 91.928101%, 91.63208%)" stop-opacity="1"/>
<stop offset="0.402344" stop-color="rgb(91.691589%, 91.740417%, 91.311646%)" stop-opacity="1"/>
<stop offset="0.40625" stop-color="rgb(91.400146%, 91.552734%, 90.991211%)" stop-opacity="1"/>
<stop offset="0.410156" stop-color="rgb(91.123962%, 91.339111%, 90.672302%)" stop-opacity="1"/>
<stop offset="0.414062" stop-color="rgb(90.892029%, 91.05072%, 90.362549%)" stop-opacity="1"/>
<stop offset="0.417969" stop-color="rgb(90.687561%, 90.715027%, 90.061951%)" stop-opacity="1"/>
<stop offset="0.421875" stop-color="rgb(90.483093%, 90.377808%, 89.758301%)" stop-opacity="1"/>
<stop offset="0.425781" stop-color="rgb(90.266418%, 90.052795%, 89.46228%)" stop-opacity="1"/>
<stop offset="0.429688" stop-color="rgb(90.003967%, 89.758301%, 89.18457%)" stop-opacity="1"/>
<stop offset="0.433594" stop-color="rgb(89.710999%, 89.489746%, 88.922119%)" stop-opacity="1"/>
<stop offset="0.4375" stop-color="rgb(89.41803%, 89.21814%, 88.658142%)" stop-opacity="1"/>
<stop offset="0.441406" stop-color="rgb(89.135742%, 88.954163%, 88.398743%)" stop-opacity="1"/>
<stop offset="0.445312" stop-color="rgb(88.801575%, 88.580322%, 88.009644%)" stop-opacity="1"/>
<stop offset="0.453125" stop-color="rgb(88.505554%, 88.220215%, 87.623596%)" stop-opacity="1"/>
<stop offset="0.457031" stop-color="rgb(88.293457%, 87.969971%, 87.358093%)" stop-opacity="1"/>
<stop offset="0.460938" stop-color="rgb(87.983704%, 87.646484%, 87.026978%)" stop-opacity="1"/>
<stop offset="0.464844" stop-color="rgb(87.594604%, 87.261963%, 86.643982%)" stop-opacity="1"/>
<stop offset="0.46875" stop-color="rgb(87.205505%, 86.878967%, 86.260986%)" stop-opacity="1"/>
<stop offset="0.472656" stop-color="rgb(86.820984%, 86.499023%, 85.881042%)" stop-opacity="1"/>
<stop offset="0.476562" stop-color="rgb(86.485291%, 86.134338%, 85.505676%)" stop-opacity="1"/>
<stop offset="0.480469" stop-color="rgb(86.192322%, 85.780334%, 85.13031%)" stop-opacity="1"/>
<stop offset="0.484375" stop-color="rgb(85.897827%, 85.429382%, 84.75647%)" stop-opacity="1"/>
<stop offset="0.488281" stop-color="rgb(85.603333%, 85.076904%, 84.384155%)" stop-opacity="1"/>
<stop offset="0.492188" stop-color="rgb(85.214233%, 84.703064%, 84.014893%)" stop-opacity="1"/>
<stop offset="0.496094" stop-color="rgb(84.735107%, 84.303284%, 83.644104%)" stop-opacity="1"/>
<stop offset="0.5" stop-color="rgb(84.257507%, 83.906555%, 83.274841%)" stop-opacity="1"/>
<stop offset="0.503906" stop-color="rgb(83.781433%, 83.511353%, 82.907104%)" stop-opacity="1"/>
<stop offset="0.507812" stop-color="rgb(83.396912%, 83.183289%, 82.562256%)" stop-opacity="1"/>
<stop offset="0.511719" stop-color="rgb(83.106995%, 82.925415%, 82.235718%)" stop-opacity="1"/>
<stop offset="0.515625" stop-color="rgb(82.820129%, 82.669067%, 81.910706%)" stop-opacity="1"/>
<stop offset="0.519531" stop-color="rgb(82.53479%, 82.415771%, 81.587219%)" stop-opacity="1"/>
<stop offset="0.523438" stop-color="rgb(82.16095%, 82.020569%, 81.178284%)" stop-opacity="1"/>
<stop offset="0.527344" stop-color="rgb(81.692505%, 81.474304%, 80.679321%)" stop-opacity="1"/>
<stop offset="0.53125" stop-color="rgb(81.214905%, 80.915833%, 80.174255%)" stop-opacity="1"/>
<stop offset="0.535156" stop-color="rgb(80.738831%, 80.360413%, 79.672241%)" stop-opacity="1"/>
<stop offset="0.539062" stop-color="rgb(80.302429%, 79.853821%, 79.190063%)" stop-opacity="1"/>
<stop offset="0.542969" stop-color="rgb(79.916382%, 79.403687%, 78.726196%)" stop-opacity="1"/>
<stop offset="0.546875" stop-color="rgb(79.537964%, 78.962708%, 78.266907%)" stop-opacity="1"/>
<stop offset="0.550781" stop-color="rgb(79.159546%, 78.52478%, 77.810669%)" stop-opacity="1"/>
<stop offset="0.554688" stop-color="rgb(78.747559%, 78.079224%, 77.357483%)" stop-opacity="1"/>
<stop offset="0.558594" stop-color="rgb(78.289795%, 77.624512%, 76.907349%)" stop-opacity="1"/>
<stop offset="0.5625" stop-color="rgb(77.822876%, 77.1698%, 76.460266%)" stop-opacity="1"/>
<stop offset="0.566406" stop-color="rgb(77.355957%, 76.716614%, 76.016235%)" stop-opacity="1"/>
<stop offset="0.570312" stop-color="rgb(76.89209%, 76.266479%, 75.575256%)" stop-opacity="1"/>
<stop offset="0.574219" stop-color="rgb(76.426697%, 75.817871%, 75.135803%)" stop-opacity="1"/>
<stop offset="0.578125" stop-color="rgb(75.964355%, 75.372314%, 74.699402%)" stop-opacity="1"/>
<stop offset="0.582031" stop-color="rgb(75.502014%, 74.928284%, 74.267578%)" stop-opacity="1"/>
<stop offset="0.585938" stop-color="rgb(75.041199%, 74.487305%, 73.83728%)" stop-opacity="1"/>
<stop offset="0.589844" stop-color="rgb(74.580383%, 74.047852%, 73.410034%)" stop-opacity="1"/>
<stop offset="0.59375" stop-color="rgb(74.121094%, 73.61145%, 72.984314%)" stop-opacity="1"/>
<stop offset="0.597656" stop-color="rgb(73.66333%, 73.176575%, 72.563171%)" stop-opacity="1"/>
<stop offset="0.601562" stop-color="rgb(73.179626%, 72.737122%, 72.120667%)" stop-opacity="1"/>
<stop offset="0.605469" stop-color="rgb(72.651672%, 72.290039%, 71.646118%)" stop-opacity="1"/>
<stop offset="0.609375" stop-color="rgb(72.105408%, 71.839905%, 71.159363%)" stop-opacity="1"/>
<stop offset="0.613281" stop-color="rgb(71.562195%, 71.392822%, 70.677185%)" stop-opacity="1"/>
<stop offset="0.617188" stop-color="rgb(71.043396%, 70.933533%, 70.188904%)" stop-opacity="1"/>
<stop offset="0.621094" stop-color="rgb(70.571899%, 70.446777%, 69.688416%)" stop-opacity="1"/>
<stop offset="0.625" stop-color="rgb(70.120239%, 69.947815%, 69.18335%)" stop-opacity="1"/>
<stop offset="0.628906" stop-color="rgb(69.673157%, 69.451904%, 68.682861%)" stop-opacity="1"/>
<stop offset="0.632812" stop-color="rgb(69.206238%, 68.939209%, 68.180847%)" stop-opacity="1"/>
<stop offset="0.636719" stop-color="rgb(68.695068%, 68.377686%, 67.669678%)" stop-opacity="1"/>
<stop offset="0.640625" stop-color="rgb(68.162537%, 67.796326%, 67.155457%)" stop-opacity="1"/>
<stop offset="0.644531" stop-color="rgb(67.631531%, 67.218018%, 66.645813%)" stop-opacity="1"/>
<stop offset="0.648438" stop-color="rgb(67.06543%, 66.636658%, 66.130066%)" stop-opacity="1"/>
<stop offset="0.652344" stop-color="rgb(66.413879%, 66.040039%, 65.583801%)" stop-opacity="1"/>
<stop offset="0.65625" stop-color="rgb(65.708923%, 65.440369%, 65.026855%)" stop-opacity="1"/>
<stop offset="0.660156" stop-color="rgb(65.008545%, 64.842224%, 64.474487%)" stop-opacity="1"/>
<stop offset="0.664062" stop-color="rgb(64.332581%, 64.248657%, 63.917542%)" stop-opacity="1"/>
<stop offset="0.667969" stop-color="rgb(63.719177%, 63.647461%, 63.33313%)" stop-opacity="1"/>
<stop offset="0.671875" stop-color="rgb(63.15155%, 63.044739%, 62.734985%)" stop-opacity="1"/>
<stop offset="0.675781" stop-color="rgb(62.583923%, 62.445068%, 62.139893%)" stop-opacity="1"/>
<stop offset="0.679688" stop-color="rgb(62.007141%, 61.859131%, 61.557007%)" stop-opacity="1"/>
<stop offset="0.683594" stop-color="rgb(61.390686%, 61.306763%, 60.993958%)" stop-opacity="1"/>
<stop offset="0.6875" stop-color="rgb(60.742188%, 60.780334%, 60.449219%)" stop-opacity="1"/>
<stop offset="0.691406" stop-color="rgb(60.095215%, 60.256958%, 59.907532%)" stop-opacity="1"/>
<stop offset="0.695312" stop-color="rgb(59.455872%, 59.729004%, 59.370422%)" stop-opacity="1"/>
<stop offset="0.699219" stop-color="rgb(58.839417%, 59.147644%, 58.830261%)" stop-opacity="1"/>
<stop offset="0.703125" stop-color="rgb(58.244324%, 58.532715%, 58.2901%)" stop-opacity="1"/>
<stop offset="0.707031" stop-color="rgb(57.650757%, 57.920837%, 57.752991%)" stop-opacity="1"/>
<stop offset="0.710938" stop-color="rgb(57.067871%, 57.321167%, 57.223511%)" stop-opacity="1"/>
<stop offset="0.714844" stop-color="rgb(56.52771%, 56.767273%, 56.707764%)" stop-opacity="1"/>
<stop offset="0.71875" stop-color="rgb(56.027222%, 56.254578%, 56.20575%)" stop-opacity="1"/>
<stop offset="0.722656" stop-color="rgb(55.526733%, 55.743408%, 55.705261%)" stop-opacity="1"/>
<stop offset="0.726562" stop-color="rgb(55.020142%, 55.229187%, 55.204773%)" stop-opacity="1"/>
<stop offset="0.730469" stop-color="rgb(54.362488%, 54.600525%, 54.629517%)" stop-opacity="1"/>
<stop offset="0.734375" stop-color="rgb(53.569031%, 53.866577%, 53.988647%)" stop-opacity="1"/>
<stop offset="0.738281" stop-color="rgb(52.781677%, 53.141785%, 53.353882%)" stop-opacity="1"/>
<stop offset="0.742188" stop-color="rgb(52.003479%, 52.426147%, 52.72522%)" stop-opacity="1"/>
<stop offset="0.746094" stop-color="rgb(51.248169%, 51.731873%, 52.088928%)" stop-opacity="1"/>
<stop offset="0.75" stop-color="rgb(50.512695%, 51.05896%, 51.44043%)" stop-opacity="1"/>
<stop offset="0.753906" stop-color="rgb(49.786377%, 50.395203%, 50.801086%)" stop-opacity="1"/>
<stop offset="0.757812" stop-color="rgb(49.064636%, 49.737549%, 50.166321%)" stop-opacity="1"/>
<stop offset="0.761719" stop-color="rgb(48.370361%, 49.038696%, 49.502563%)" stop-opacity="1"/>
<stop offset="0.765625" stop-color="rgb(47.702026%, 48.300171%, 48.809814%)" stop-opacity="1"/>
<stop offset="0.769531" stop-color="rgb(47.041321%, 47.566223%, 48.123169%)" stop-opacity="1"/>
<stop offset="0.773438" stop-color="rgb(46.385193%, 46.839905%, 47.441101%)" stop-opacity="1"/>
<stop offset="0.777344" stop-color="rgb(45.66803%, 46.115112%, 46.751404%)" stop-opacity="1"/>
<stop offset="0.78125" stop-color="rgb(44.87915%, 45.388794%, 46.047974%)" stop-opacity="1"/>
<stop offset="0.785156" stop-color="rgb(44.091797%, 44.670105%, 45.350647%)" stop-opacity="1"/>
<stop offset="0.789062" stop-color="rgb(43.310547%, 43.960571%, 44.662476%)" stop-opacity="1"/>
<stop offset="0.792969" stop-color="rgb(42.533875%, 43.197632%, 43.92395%)" stop-opacity="1"/>
<stop offset="0.796875" stop-color="rgb(41.758728%, 42.364502%, 43.12439%)" stop-opacity="1"/>
<stop offset="0.800781" stop-color="rgb(40.991211%, 41.529846%, 42.323303%)" stop-opacity="1"/>
<stop offset="0.804688" stop-color="rgb(40.229797%, 40.704346%, 41.52832%)" stop-opacity="1"/>
<stop offset="0.808594" stop-color="rgb(39.448547%, 39.907837%, 40.734863%)" stop-opacity="1"/>
<stop offset="0.8125" stop-color="rgb(38.63678%, 39.144897%, 39.938354%)" stop-opacity="1"/>
<stop offset="0.816406" stop-color="rgb(37.825012%, 38.397217%, 39.147949%)" stop-opacity="1"/>
<stop offset="0.820312" stop-color="rgb(37.0224%, 37.657166%, 38.366699%)" stop-opacity="1"/>
<stop offset="0.824219" stop-color="rgb(36.242676%, 36.895752%, 37.588501%)" stop-opacity="1"/>
<stop offset="0.828125" stop-color="rgb(35.488892%, 36.100769%, 36.808777%)" stop-opacity="1"/>
<stop offset="0.832031" stop-color="rgb(34.750366%, 35.30426%, 36.035156%)" stop-opacity="1"/>
<stop offset="0.835938" stop-color="rgb(34.017944%, 34.518433%, 35.270691%)" stop-opacity="1"/>
<stop offset="0.839844" stop-color="rgb(33.270264%, 33.717346%, 34.474182%)" stop-opacity="1"/>
<stop offset="0.84375" stop-color="rgb(32.496643%, 32.888794%, 33.627319%)" stop-opacity="1"/>
<stop offset="0.847656" stop-color="rgb(31.718445%, 32.05719%, 32.766724%)" stop-opacity="1"/>
<stop offset="0.851562" stop-color="rgb(30.947876%, 31.236267%, 31.919861%)" stop-opacity="1"/>
<stop offset="0.855469" stop-color="rgb(30.19104%, 30.429077%, 31.09436%)" stop-opacity="1"/>
<stop offset="0.859375" stop-color="rgb(29.452515%, 29.63562%, 30.299377%)" stop-opacity="1"/>
<stop offset="0.863281" stop-color="rgb(28.723145%, 28.85437%, 29.521179%)" stop-opacity="1"/>
<stop offset="0.867188" stop-color="rgb(28.001404%, 28.082275%, 28.752136%)" stop-opacity="1"/>
<stop offset="0.871094" stop-color="rgb(27.267456%, 27.301025%, 27.960205%)" stop-opacity="1"/>
<stop offset="0.875" stop-color="rgb(26.509094%, 26.490784%, 27.119446%)" stop-opacity="1"/>
<stop offset="0.878906" stop-color="rgb(25.740051%, 25.674438%, 26.263428%)" stop-opacity="1"/>
<stop offset="0.882812" stop-color="rgb(24.978638%, 24.867249%, 25.415039%)" stop-opacity="1"/>
<stop offset="0.886719" stop-color="rgb(24.212646%, 24.055481%, 24.552917%)" stop-opacity="1"/>
<stop offset="0.890625" stop-color="rgb(23.426819%, 23.219299%, 23.646545%)" stop-opacity="1"/>
<stop offset="0.894531" stop-color="rgb(22.63031%, 22.372437%, 22.720337%)" stop-opacity="1"/>
<stop offset="0.898438" stop-color="rgb(21.839905%, 21.533203%, 21.80481%)" stop-opacity="1"/>
<stop offset="0.902344" stop-color="rgb(21.057129%, 20.697021%, 20.903015%)" stop-opacity="1"/>
<stop offset="0.90625" stop-color="rgb(20.281982%, 19.85321%, 20.019531%)" stop-opacity="1"/>
<stop offset="0.910156" stop-color="rgb(19.515991%, 19.009399%, 19.14978%)" stop-opacity="1"/>
<stop offset="0.914062" stop-color="rgb(18.754578%, 18.17627%, 18.287659%)" stop-opacity="1"/>
<stop offset="0.917969" stop-color="rgb(17.993164%, 17.356873%, 17.434692%)" stop-opacity="1"/>
<stop offset="0.921875" stop-color="rgb(17.214966%, 16.555786%, 16.592407%)" stop-opacity="1"/>
<stop offset="0.925781" stop-color="rgb(16.430664%, 15.768433%, 15.757751%)" stop-opacity="1"/>
<stop offset="0.929688" stop-color="rgb(15.652466%, 14.988708%, 14.929199%)" stop-opacity="1"/>
<stop offset="0.933594" stop-color="rgb(14.884949%, 14.222717%, 14.115906%)" stop-opacity="1"/>
<stop offset="0.9375" stop-color="rgb(14.14032%, 13.494873%, 13.345337%)" stop-opacity="1"/>
<stop offset="0.941406" stop-color="rgb(13.414001%, 12.796021%, 12.606812%)" stop-opacity="1"/>
<stop offset="0.945312" stop-color="rgb(12.698364%, 12.104797%, 11.872864%)" stop-opacity="1"/>
<stop offset="0.949219" stop-color="rgb(12.010193%, 11.433411%, 11.16333%)" stop-opacity="1"/>
<stop offset="0.953125" stop-color="rgb(11.436462%, 10.850525%, 10.549927%)" stop-opacity="1"/>
<stop offset="0.957031" stop-color="rgb(10.952759%, 10.33783%, 10.012817%)" stop-opacity="1"/>
<stop offset="0.960938" stop-color="rgb(10.472107%, 9.829712%, 9.481812%)" stop-opacity="1"/>
<stop offset="0.964844" stop-color="rgb(9.991455%, 9.326172%, 8.952332%)" stop-opacity="1"/>
<stop offset="0.96875" stop-color="rgb(9.498596%, 8.843994%, 8.433533%)" stop-opacity="1"/>
<stop offset="0.972656" stop-color="rgb(8.998108%, 8.377075%, 7.922363%)" stop-opacity="1"/>
<stop offset="0.976562" stop-color="rgb(8.500671%, 7.911682%, 7.414246%)" stop-opacity="1"/>
<stop offset="0.980469" stop-color="rgb(8.013916%, 7.450867%, 6.910706%)" stop-opacity="1"/>
<stop offset="0.984375" stop-color="rgb(7.58667%, 7.038879%, 6.459045%)" stop-opacity="1"/>
<stop offset="0.988281" stop-color="rgb(7.214355%, 6.674194%, 6.057739%)" stop-opacity="1"/>
<stop offset="0.992188" stop-color="rgb(6.845093%, 6.309509%, 5.657959%)" stop-opacity="1"/>
<stop offset="0.996094" stop-color="rgb(6.478882%, 5.94635%, 5.259705%)" stop-opacity="1"/>
<stop offset="1" stop-color="rgb(6.295776%, 5.764771%, 5.06134%)" stop-opacity="1"/>
</radialGradient>
</defs>

<path fill-rule="nonzero" fill="rgb(13.729858%, 12.159729%, 12.548828%)" fill-opacity="1" d="M 1190.890625 1089.738281 C 1202.160156 1096.398438 1211.210938 1102.410156 1221.058594 1107.03125 C 1252 1121.558594 1273.789062 1115.878906 1293.351562 1087.808594 C 1310.808594 1062.738281 1317.449219 1032.390625 1312.378906 999.351562 C 1316.769531 1005.539062 1317.871094 1012.109375 1318.53125 1018.539062 C 1321.648438 1049.011719 1315.449219 1077.449219 1298.890625 1103.390625 C 1284.039062 1126.660156 1264.890625 1133.03125 1239.050781 1123.5 C 1221.851562 1117.148438 1201.828125 1103.480469 1190.890625 1089.738281 "/>
<path fill-rule="nonzero" fill="rgb(13.729858%, 12.159729%, 12.548828%)" fill-opacity="1" d="M 1385.390625 535.75 L 1385.390625 535.78125 L 1385.371094 535.800781 C 1385.320312 535.859375 1385.261719 535.910156 1385.210938 535.96875 C 1385.261719 535.910156 1385.351562 535.789062 1385.390625 535.75 "/>
<path fill-rule="nonzero" fill="rgb(13.729858%, 12.159729%, 12.548828%)" fill-opacity="1" d="M 1410.789062 550.230469 C 1410.621094 550.230469 1410.53125 550.230469 1410.53125 550.230469 C 1418.101562 544.738281 1412.949219 536.449219 1412.75 536.148438 C 1413.410156 536.429688 1413.988281 536.738281 1414.519531 537.078125 C 1420.289062 540.828125 1417.679688 549.941406 1410.789062 550.230469 Z M 1389.011719 540.328125 C 1390.671875 531.351562 1400 536.140625 1400 536.140625 C 1394.839844 535.269531 1389.011719 540.328125 1389.011719 540.328125 Z M 1419.488281 533.851562 C 1410.738281 531.261719 1400.421875 526.441406 1391.140625 531.28125 C 1387.441406 533.210938 1385.46875 537.371094 1386.050781 541.5 C 1387.300781 550.230469 1390 558.25 1399.640625 562.238281 C 1410.078125 566.578125 1419.210938 564.460938 1425.890625 554.460938 C 1427.730469 558.429688 1427.238281 562.929688 1432.699219 565.539062 C 1428.578125 553.78125 1433.960938 538.128906 1419.488281 533.851562 "/>
<path fill-rule="nonzero" fill="rgb(13.729858%, 12.159729%, 12.548828%)" fill-opacity="1" d="M 1382.070312 358.300781 C 1379.371094 369.648438 1381.210938 378.601562 1384.371094 387.421875 C 1387.371094 395.769531 1386.789062 403.710938 1382.210938 411.550781 C 1377.601562 419.449219 1377.46875 428.660156 1375.890625 437.710938 C 1362.679688 413.121094 1364.941406 377.171875 1382.070312 358.300781 "/>
<path fill-rule="nonzero" fill="rgb(13.729858%, 12.159729%, 12.548828%)" fill-opacity="1" d="M 1541.96875 742.058594 C 1541.640625 746.800781 1539.359375 749.511719 1534.359375 749.46875 C 1533.601562 749.460938 1532.851562 749.679688 1532.089844 749.800781 C 1532.640625 739.800781 1525.671875 745.988281 1522.128906 745.371094 C 1512.679688 743.738281 1505.308594 736.101562 1504.730469 726.648438 C 1504.199219 717.960938 1508.761719 714.570312 1517.011719 717.589844 C 1520.21875 718.761719 1523.390625 720.03125 1526.578125 721.261719 C 1533.21875 727.078125 1540.46875 732.441406 1541.96875 742.058594 "/>
<path fill-rule="nonzero" fill="rgb(13.729858%, 12.159729%, 12.548828%)" fill-opacity="1" d="M 1541.96875 742.058594 C 1540.46875 732.441406 1533.21875 727.078125 1526.578125 721.261719 C 1523.070312 716.109375 1517.269531 714.539062 1511.941406 712.871094 C 1505 710.699219 1500.128906 715.898438 1500.710938 723.941406 C 1501.789062 739.148438 1510.289062 747.75 1529.179688 752.148438 C 1522.589844 757.730469 1516.199219 757.609375 1510.261719 752.761719 C 1499.101562 743.660156 1496.960938 730.769531 1497.601562 717.5 C 1497.949219 710.351562 1504.851562 706.21875 1512.53125 708.289062 C 1525.488281 711.789062 1536.25 718.839844 1543.300781 730.679688 C 1545.71875 734.730469 1546.550781 738.75 1541.96875 742.058594 "/>
<path fill-rule="nonzero" fill="rgb(13.729858%, 12.159729%, 12.548828%)" fill-opacity="1" d="M 1295.609375 949.808594 C 1285.230469 929.578125 1270.101562 913.300781 1253.859375 897.78125 C 1242.039062 886.480469 1233.210938 873.058594 1228.878906 856.929688 C 1238.238281 877.820312 1255.570312 892.03125 1270.839844 908 C 1282.28125 919.960938 1290.800781 933.828125 1295.609375 949.808594 "/>
<path fill-rule="nonzero" fill="rgb(13.729858%, 12.159729%, 12.548828%)" fill-opacity="1" d="M 1122.261719 879.910156 C 1126.011719 914.171875 1109.429688 949.269531 1125.921875 983.238281 C 1104.421875 949.660156 1119.578125 914.609375 1122.261719 879.910156 "/>
<path fill-rule="nonzero" fill="rgb(13.729858%, 12.159729%, 12.548828%)" fill-opacity="1" d="M 1492.859375 723.78125 C 1487.199219 708.671875 1494.371094 690.28125 1506.988281 685.421875 C 1518.691406 680.921875 1526.328125 687.128906 1533.28125 707.871094 C 1531.398438 704.929688 1529.488281 702.011719 1527.640625 699.050781 C 1522.53125 690.859375 1516.171875 689 1507.761719 693.648438 C 1496.371094 699.949219 1492.921875 710.578125 1492.859375 723.78125 "/>
<path fill-rule="nonzero" fill="rgb(13.729858%, 12.159729%, 12.548828%)" fill-opacity="1" d="M 1187.578125 1335.988281 C 1180.839844 1306.609375 1179.808594 1277.109375 1185.730469 1247.46875 C 1185.761719 1276.988281 1184.78125 1306.53125 1187.578125 1335.988281 "/>
<path fill-rule="nonzero" fill="rgb(13.729858%, 12.159729%, 12.548828%)" fill-opacity="1" d="M 616.125 1220.171875 C 604.1875 1246.941406 612.484375 1268.75 629.320312 1289.199219 C 619.578125 1284.019531 613.777344 1275.390625 610.117188 1265.351562 C 607.140625 1257.171875 605.855469 1248.550781 605.550781 1239.769531 C 605.25 1231.050781 608.964844 1224.851562 616.125 1220.171875 "/>
<path fill-rule="nonzero" fill="rgb(13.729858%, 12.159729%, 12.548828%)" fill-opacity="1" d="M 653.070312 1246.390625 C 657.019531 1254.53125 653.550781 1271.320312 647.15625 1275.890625 C 642.0625 1279.53125 639 1276.089844 636.945312 1271.921875 C 632.734375 1263.371094 630.425781 1254.199219 629.34375 1244.578125 C 632.792969 1251.359375 636.347656 1258.078125 639.648438 1264.921875 C 641.765625 1269.308594 643.800781 1268.789062 646.316406 1265.359375 C 650.445312 1259.738281 654.113281 1253.980469 653.070312 1246.390625 "/>
<path fill-rule="nonzero" fill="rgb(13.729858%, 12.159729%, 12.548828%)" fill-opacity="1" d="M 716.257812 791.671875 C 672.445312 812.878906 665.457031 818.351562 650.40625 843.238281 C 652.140625 821.429688 686.144531 794.800781 716.257812 791.671875 "/>
<path fill-rule="nonzero" fill="rgb(13.729858%, 12.159729%, 12.548828%)" fill-opacity="1" d="M 1384.351562 537.449219 C 1379.648438 550.679688 1391.351562 571.019531 1405.679688 575.03125 C 1408.058594 575.691406 1410.488281 576.179688 1413.789062 576.960938 C 1399.890625 580.359375 1394.078125 577.769531 1387.199219 565.5 C 1382.851562 557.730469 1381.898438 549.160156 1381.289062 540.429688 C 1380.828125 533.890625 1379.578125 527.398438 1378.429688 519.101562 C 1381.921875 523.371094 1383.160156 526.78125 1384.179688 530.300781 C 1384.828125 532.511719 1384.921875 534.859375 1384.429688 537.109375 C 1384.398438 537.25 1384.378906 537.359375 1384.351562 537.449219 "/>
<path fill-rule="nonzero" fill="rgb(13.729858%, 12.159729%, 12.548828%)" fill-opacity="1" d="M 638.632812 863.171875 C 617.316406 879.921875 610.042969 903.78125 604.859375 928.71875 C 604.074219 907.710938 617.210938 867.910156 638.632812 863.171875 "/>
<path fill-rule="nonzero" fill="rgb(13.729858%, 12.159729%, 12.548828%)" fill-opacity="1" d="M 1288.621094 780.039062 C 1287.050781 754.410156 1287.878906 728.871094 1295.621094 703.96875 C 1292.289062 729.199219 1290.058594 754.519531 1288.621094 780.039062 "/>
<path fill-rule="nonzero" fill="rgb(13.729858%, 12.159729%, 12.548828%)" fill-opacity="1" d="M 783.601562 1067.578125 C 786.257812 1089.878906 775.539062 1107.730469 752.753906 1119.441406 C 760.253906 1110.949219 768.085938 1104.691406 773.808594 1096.53125 C 779.570312 1088.308594 782.414062 1079.089844 783.601562 1067.578125 "/>
<path fill-rule="nonzero" fill="rgb(13.729858%, 12.159729%, 12.548828%)" fill-opacity="1" d="M 1149.21875 1240.878906 C 1144.558594 1216.691406 1140.949219 1192.378906 1139.691406 1165.191406 C 1145.648438 1191.808594 1146.460938 1216.460938 1149.21875 1240.878906 "/>
<path fill-rule="nonzero" fill="rgb(13.729858%, 12.159729%, 12.548828%)" fill-opacity="1" d="M 1517.378906 509.011719 C 1519.128906 527.019531 1512.109375 544.371094 1513.578125 562.339844 C 1510.019531 544.269531 1515.300781 526.710938 1517.378906 509.011719 "/>
<path fill-rule="nonzero" fill="rgb(13.729858%, 12.159729%, 12.548828%)" fill-opacity="1" d="M 1361.96875 660.488281 C 1376.820312 665.25 1390.460938 663.480469 1403.089844 653.339844 C 1398.539062 665.808594 1378.5 669.28125 1361.96875 660.488281 "/>
<path fill-rule="nonzero" fill="rgb(13.729858%, 12.159729%, 12.548828%)" fill-opacity="1" d="M 1307.21875 879.160156 C 1315.328125 892.660156 1321.820312 906.949219 1326.890625 921.871094 C 1319.011719 908.261719 1312.289062 894.121094 1307.21875 879.160156 "/>
<path fill-rule="nonzero" fill="rgb(13.729858%, 12.159729%, 12.548828%)" fill-opacity="1" d="M 1534.390625 761.710938 C 1528.871094 772.53125 1515.609375 773.550781 1504.648438 763.550781 C 1510.910156 763.558594 1514.960938 768.011719 1520.191406 767.878906 C 1525.730469 767.75 1530.28125 765.351562 1534.390625 761.710938 "/>
<path fill-rule="nonzero" fill="rgb(13.729858%, 12.159729%, 12.548828%)" fill-opacity="1" d="M 1163.96875 1427.351562 C 1154.070312 1424.851562 1152.171875 1415.660156 1148.261719 1408.269531 C 1146.808594 1405.539062 1146.410156 1402.25 1145.539062 1399.21875 C 1151.898438 1408.449219 1155.300781 1419.628906 1163.96875 1427.351562 "/>
<path fill-rule="nonzero" fill="rgb(13.729858%, 12.159729%, 12.548828%)" fill-opacity="1" d="M 1172.328125 1422.640625 C 1180.480469 1416.890625 1184.679688 1408.160156 1189.410156 1399.839844 C 1187.121094 1410 1182.75 1418.601562 1172.328125 1422.640625 "/>
<path fill-rule="nonzero" fill="rgb(13.729858%, 12.159729%, 12.548828%)" fill-opacity="1" d="M 782.167969 1238.398438 C 766.050781 1279.128906 817.234375 1287.460938 816.234375 1276.769531 C 824.886719 1277.640625 823.019531 1270.078125 825.679688 1263.878906 C 829.257812 1271.988281 826.835938 1277.71875 823.027344 1282.859375 C 820.648438 1286.070312 817.941406 1287.898438 814.652344 1288.96875 C 809.507812 1290.648438 803.871094 1290.070312 799.054688 1287.609375 C 788.097656 1282.011719 779.148438 1273.71875 773.292969 1262.5 C 768.023438 1252.398438 775.664062 1246 782.167969 1238.398438 "/>
<path fill-rule="nonzero" fill="rgb(13.729858%, 12.159729%, 12.548828%)" fill-opacity="1" d="M 772.402344 1215.628906 C 769.039062 1228.691406 759.710938 1238.339844 752.753906 1249.359375 C 756.976562 1236.828125 765.554688 1226.710938 772.402344 1215.628906 "/>
<path fill-rule="nonzero" fill="rgb(13.729858%, 12.159729%, 12.548828%)" fill-opacity="1" d="M 1414.449219 1244.359375 C 1397.960938 1232.28125 1386.761719 1216.648438 1381.910156 1196.859375 C 1387.28125 1204.890625 1390.421875 1214.230469 1396.410156 1221.910156 C 1402.308594 1229.488281 1408.429688 1236.890625 1414.449219 1244.359375 "/>
<path fill-rule="nonzero" fill="rgb(13.729858%, 12.159729%, 12.548828%)" fill-opacity="1" d="M 1406.199219 1466.078125 C 1391.738281 1475.390625 1376.511719 1482.589844 1358.800781 1483.070312 C 1374.601562 1477.410156 1390.398438 1471.738281 1406.199219 1466.078125 "/>
<path fill-rule="nonzero" fill="rgb(13.729858%, 12.159729%, 12.548828%)" fill-opacity="1" d="M 1436.398438 1357.820312 C 1433.019531 1375.601562 1426.710938 1392.070312 1416.269531 1406.898438 C 1422.980469 1390.539062 1429.691406 1374.179688 1436.398438 1357.820312 "/>
<path fill-rule="nonzero" fill="rgb(13.729858%, 12.159729%, 12.548828%)" fill-opacity="1" d="M 1166.140625 1502.601562 C 1164.441406 1480.808594 1167.25 1459.160156 1168.191406 1437.449219 C 1170.179688 1459.25 1168.558594 1480.941406 1166.140625 1502.601562 "/>
<path fill-rule="nonzero" fill="rgb(13.729858%, 12.159729%, 12.548828%)" fill-opacity="1" d="M 1165.128906 1593.53125 C 1173.761719 1583.960938 1172.570312 1571.570312 1174.871094 1560.261719 C 1175.359375 1572.511719 1177.460938 1585.230469 1165.128906 1593.53125 "/>
<path fill-rule="nonzero" fill="rgb(13.729858%, 12.159729%, 12.548828%)" fill-opacity="1" d="M 1150.550781 1434.648438 C 1152.019531 1448.828125 1151.539062 1462.921875 1147.898438 1476.859375 C 1148.78125 1462.789062 1149.671875 1448.710938 1150.550781 1434.628906 C 1150.550781 1434.621094 1150.550781 1434.648438 1150.550781 1434.648438 "/>
<path fill-rule="nonzero" fill="rgb(13.729858%, 12.159729%, 12.548828%)" fill-opacity="1" d="M 543.800781 922.339844 C 543.796875 923.878906 543.78125 925.421875 543.757812 926.96875 C 543.78125 925.449219 543.800781 923.910156 543.800781 922.339844 "/>
<path fill-rule="nonzero" fill="rgb(13.729858%, 12.159729%, 12.548828%)" fill-opacity="1" d="M 518.066406 1177.46875 C 518.019531 1177.621094 517.964844 1177.769531 517.898438 1177.890625 C 517.941406 1177.890625 517.996094 1177.738281 518.066406 1177.46875 "/>
<path fill-rule="nonzero" fill="rgb(13.729858%, 12.159729%, 12.548828%)" fill-opacity="1" d="M 594.351562 1351.910156 C 594.9375 1352.949219 595.476562 1354.019531 595.988281 1355.109375 C 595.484375 1354.019531 594.945312 1352.949219 594.351562 1351.910156 "/>
<path fill-rule="nonzero" fill="rgb(13.729858%, 12.159729%, 12.548828%)" fill-opacity="1" d="M 1566.710938 735.691406 C 1561.460938 742.78125 1560.070312 751.71875 1557.949219 760.089844 C 1556.238281 766.890625 1550.128906 767.789062 1545.769531 769.351562 C 1538.960938 771.800781 1543.941406 765.121094 1542.539062 762.929688 C 1534.550781 776.339844 1519.851562 779.25 1505.738281 770.171875 C 1489.789062 759.890625 1481.628906 733.851562 1475.058594 722.609375 C 1474.339844 721.371094 1472.210938 717.828125 1470.359375 716.109375 C 1461.46875 707.929688 1452.730469 699.601562 1443.628906 691.609375 C 1453.449219 708.691406 1471.199219 720.328125 1477.75 742.269531 C 1461.378906 723.53125 1440.960938 713.339844 1423.648438 699.140625 C 1413.738281 691.011719 1410.941406 682.609375 1414.859375 671.140625 C 1417.480469 663.460938 1420.328125 655.859375 1421.839844 647.828125 C 1422.421875 644.78125 1424.511719 643.109375 1427.480469 641.839844 C 1441.441406 635.859375 1453.421875 637.121094 1462.929688 650.851562 C 1453.949219 636.898438 1447.929688 622.160156 1442.449219 606.808594 C 1442.789062 609.96875 1443.140625 613.140625 1443.488281 616.308594 C 1444.71875 627.300781 1437.691406 634.71875 1426.648438 634.050781 C 1425.058594 633.949219 1418.609375 629.460938 1408.550781 611.011719 C 1406.96875 608.101562 1405.230469 605 1403.019531 602.199219 C 1404.691406 612.28125 1409.539062 621.199219 1413.808594 630.28125 C 1417.648438 638.460938 1419.519531 646.570312 1416.109375 655.441406 C 1412.488281 664.828125 1406.019531 669.929688 1395.921875 670.640625 C 1356.171875 673.460938 1316.398438 639.800781 1311.441406 599.46875 C 1309.238281 581.671875 1310.851562 564.238281 1314.238281 546.851562 C 1302.101562 575.160156 1297.738281 603.609375 1312.660156 632.519531 C 1321.140625 648.96875 1333.121094 662.808594 1345.199219 676.53125 C 1366.578125 700.808594 1377.699219 729.429688 1379.410156 761.300781 C 1381.738281 804.808594 1383.121094 848.390625 1377.929688 891.859375 C 1375.890625 908.921875 1371.789062 925.46875 1366.480469 941.78125 C 1365.621094 944.429688 1363.691406 946.910156 1364.648438 951.050781 C 1382.570312 917 1388.191406 880.980469 1390.449219 843.871094 C 1394.261719 866.398438 1408.148438 884.328125 1416.339844 904.550781 C 1441.089844 965.550781 1438.03125 1041.359375 1365.558594 1088.980469 C 1350.28125 1099.019531 1327.699219 1112 1311.261719 1115.738281 C 1325.289062 1108.621094 1338.769531 1101.300781 1345.359375 1086.148438 C 1351.238281 1072.628906 1354.070312 1058.589844 1352.570312 1043.640625 C 1351.570312 1047.789062 1350.71875 1051.988281 1349.550781 1056.089844 C 1343.839844 1076.179688 1331.621094 1091.691406 1315.171875 1104.039062 C 1308.210938 1109.25 1301.128906 1114.441406 1293.589844 1118.730469 C 1269.359375 1132.488281 1248.789062 1149.839844 1235.691406 1176.558594 C 1230.960938 1186.320312 1215.320312 1217.039062 1209.019531 1238.769531 C 1195.378906 1285.839844 1189.851562 1333.730469 1196.199219 1382.539062 C 1198.371094 1399.160156 1184.128906 1425.230469 1183.949219 1426.839844 C 1181.671875 1447.359375 1181.648438 1467.96875 1181.25 1488.558594 C 1181.078125 1497.050781 1182.808594 1505.191406 1185.679688 1513.25 C 1188.578125 1521.410156 1191.488281 1529.769531 1192.738281 1538.28125 C 1195.460938 1556.789062 1200.910156 1573.828125 1213.921875 1587.820312 C 1218.789062 1593.058594 1218.621094 1595.96875 1210.5 1597.550781 C 1192.601562 1601.019531 1174.878906 1605.378906 1157.089844 1609.410156 C 1153.691406 1610.179688 1150.300781 1610.789062 1146.378906 1609.949219 C 1149.050781 1602.011719 1156.191406 1597.808594 1160.921875 1591.789062 C 1164.25 1587.53125 1164.109375 1584.929688 1160.449219 1580.859375 C 1155.691406 1575.570312 1149.441406 1572.210938 1144.371094 1567.160156 C 1137.398438 1560.238281 1135.101562 1552.660156 1136.410156 1544.621094 C 1142.058594 1509.941406 1145.949219 1475.101562 1148.191406 1440.039062 C 1148.28125 1438.558594 1148.390625 1424.941406 1145.398438 1408.460938 C 1144.140625 1401.539062 1142.109375 1394.78125 1139.480469 1388.25 C 1134.621094 1376.199219 1134.128906 1368.679688 1138.121094 1356.238281 C 1142.320312 1343.210938 1143.929688 1329.460938 1142.410156 1315.851562 C 1141.328125 1306.101562 1139.191406 1295.679688 1135.371094 1287.25 C 1115.859375 1244.078125 1114.460938 1199.890625 1123.839844 1154.339844 C 1127.421875 1136.890625 1125.601562 1119.710938 1116.601562 1103.691406 C 1110.351562 1092.558594 1105.199219 1080.808594 1098.730469 1069.820312 C 1082.578125 1042.398438 1076.5 1013.648438 1083.839844 982.128906 C 1086.519531 970.589844 1085.820312 958.460938 1084.28125 946.488281 C 1082.601562 962.160156 1077.078125 976.820312 1073.058594 991.878906 C 1066.769531 1015.480469 1070.460938 1038.511719 1076.890625 1061.410156 C 1079.148438 1069.511719 1081.570312 1077.589844 1083.300781 1085.808594 C 1090.558594 1120.359375 1076.550781 1140.480469 1041.640625 1146.53125 C 1024.328125 1149.53125 1006.910156 1148.480469 989.460938 1149.410156 C 999.550781 1150.089844 1009.640625 1150.871094 1019.730469 1151.410156 C 1030.210938 1151.96875 1040.679688 1151.261719 1051.011719 1149.570312 C 1061.191406 1147.921875 1071.25 1145.460938 1081.460938 1143.769531 C 1067.238281 1150.769531 1051.890625 1153.878906 1036.339844 1154.679688 C 973.113281 1157.949219 914.449219 1143.328125 863.230469 1105.390625 C 801.386719 1059.578125 758.089844 968.730469 798.265625 876.511719 C 799.136719 874.511719 799.722656 872.378906 799.769531 870.160156 C 777.179688 908.148438 767.253906 948.449219 777.242188 992.53125 C 781.8125 1012.691406 788.433594 1032.21875 796.230469 1051.21875 C 807.929688 1079.738281 780.710938 1123.269531 783.40625 1120.878906 C 780.375 1130.460938 738.460938 1193.019531 715.394531 1212.109375 C 702.386719 1222.878906 688.976562 1232.988281 672.304688 1237.691406 C 667.542969 1239.03125 663.175781 1239.871094 659.144531 1235.039062 C 662.402344 1244.578125 660.3125 1253.199219 656.914062 1261.53125 C 641.1875 1300.011719 647.285156 1339.179688 653.441406 1378.238281 C 656.464844 1397.410156 661.140625 1416.261719 667.914062 1434.558594 C 673.617188 1449.988281 681.445312 1464.101562 692.492188 1476.289062 C 697.777344 1482.140625 701.210938 1488.101562 699.667969 1496.539062 C 698.058594 1505.328125 702.167969 1512.921875 706.59375 1520.238281 C 712.902344 1530.648438 720.496094 1540.238281 726.09375 1551.140625 C 728.660156 1556.128906 728.429688 1557.859375 722.144531 1558.46875 C 701.226562 1560.46875 680.398438 1560.101562 659.515625 1558.238281 C 654.042969 1557.761719 654.898438 1555.648438 656.777344 1552.230469 C 660.859375 1544.820312 668.855469 1544.800781 675.476562 1542.460938 C 681.445312 1540.351562 685.339844 1537.648438 683.609375 1530.410156 C 680.9375 1530.871094 683.230469 1535.378906 680.253906 1534.851562 C 677.792969 1534.421875 676.722656 1532.71875 675.855469 1530.839844 C 674.558594 1528.011719 672.152344 1525.839844 669.183594 1524.910156 C 660.746094 1522.28125 645.011719 1517.480469 640.464844 1497.488281 C 637.632812 1485.058594 638.953125 1465.820312 640.109375 1457.410156 C 641.226562 1449.308594 641.519531 1441.109375 640.90625 1432.949219 C 640.140625 1422.851562 638.507812 1412.851562 636.667969 1402.878906 C 630.519531 1369.53125 624.300781 1336.199219 617.753906 1302.929688 C 613.691406 1282.25 602.675781 1264.128906 595.332031 1244.648438 C 593.496094 1239.769531 591.800781 1234.828125 589.75 1230.058594 C 587.679688 1225.238281 587.488281 1220.601562 589.894531 1215.910156 C 584.875 1218.890625 585.308594 1223.390625 586.402344 1228.148438 C 587.230469 1231.738281 589.097656 1235.179688 588.292969 1239.191406 C 578.808594 1228.171875 578.984375 1218.988281 589.058594 1209.519531 C 598.773438 1200.390625 608.6875 1191.460938 619.980469 1181.089844 C 615.203125 1190.78125 606.015625 1194.710938 603.175781 1203.378906 C 612.5 1194.25 622 1185.300781 630.199219 1175.078125 C 644.027344 1157.808594 648.878906 1138.671875 642.554688 1117.171875 C 639.636719 1107.230469 636.53125 1097.351562 634.050781 1087.25 C 642.402344 1100.609375 648.316406 1114.878906 649.789062 1131.75 C 653.691406 1119.171875 646.378906 1109.601562 643.5625 1097.699219 C 658.460938 1114.238281 671.355469 1130.71875 691.339844 1138.910156 C 657.132812 1115.089844 635.210938 1081.648438 618.703125 1044.539062 C 586.3125 971.71875 588.765625 900.71875 633.394531 833.21875 C 656.769531 797.859375 691.871094 778.570312 731.105469 765.769531 C 804.847656 741.730469 876.710938 743.75 945.921875 781.570312 C 949.074219 783.300781 952.207031 785.078125 955.027344 787.671875 C 931.410156 787.03125 908.144531 784.640625 884.589844 787.398438 C 891.996094 788.160156 899.414062 788.898438 906.824219 789.671875 C 932.816406 792.351562 958.351562 797.699219 984.015625 802.441406 C 1016.28125 808.398438 1048.800781 812.761719 1082.609375 800.429688 C 1065.578125 825.039062 1052.878906 849.140625 1054.039062 878.148438 C 1057.808594 845.558594 1077.121094 821.71875 1098.578125 799.109375 C 1099.96875 797.660156 1101.570312 796.28125 1103.308594 795.320312 C 1130.539062 780.429688 1152.769531 760.140625 1169.648438 733.410156 C 1181.28125 746.429688 1193.179688 758.101562 1212.070312 759.621094 C 1193.25 738.261719 1183.960938 719.640625 1185.039062 705.28125 C 1196.269531 714.300781 1205.328125 725.609375 1218.410156 731.71875 C 1219.949219 732.441406 1221.441406 733.550781 1224.328125 732.371094 C 1216.351562 723.171875 1211.75 712.859375 1213.550781 699.671875 C 1220.5 703.441406 1225.511719 710.109375 1234.058594 708.941406 C 1216.019531 685.03125 1214.078125 675.480469 1219.769531 637.070312 C 1226.101562 647.339844 1231.761719 656.808594 1237.691406 666.078125 C 1240.5 670.46875 1243.78125 674.570312 1246.941406 678.710938 C 1247.980469 680.058594 1249.421875 681.820312 1251.238281 680.609375 C 1253 679.429688 1251.898438 677.550781 1251.230469 675.921875 C 1247.171875 666.058594 1242.921875 656.238281 1243.46875 644.828125 C 1249.179688 646.839844 1253.171875 652.28125 1260.128906 650.628906 C 1258.109375 648.210938 1255.96875 646.230469 1254.570312 643.839844 C 1248.898438 634.210938 1247.078125 625.21875 1256.019531 616.28125 C 1284.53125 587.761719 1296.078125 552.480469 1295.878906 512.78125 C 1295.859375 509.589844 1296.289062 506.328125 1295.839844 503.210938 C 1292.601562 480.878906 1303.761719 466.140625 1321.179688 454.660156 C 1329.859375 448.929688 1338.898438 443.859375 1348.640625 440.261719 C 1350.988281 443.011719 1348.488281 445.5 1348.898438 447.941406 C 1349.359375 448.578125 1349.539062 448.328125 1350.058594 447.660156 C 1352.050781 445.101562 1354.160156 442.429688 1353.859375 439.121094 C 1352.378906 423.171875 1358.628906 408.320312 1360.238281 392.789062 C 1362.269531 373.261719 1372.679688 357.660156 1388.871094 342.179688 C 1385.878906 360.148438 1391.660156 374.410156 1395.101562 389.140625 C 1397.199219 398.199219 1394.988281 406.941406 1390.75 415.238281 C 1389.308594 418.058594 1386.789062 421.078125 1390.75 424.46875 C 1393.128906 426.511719 1391.410156 429.390625 1389.988281 431.589844 C 1379.398438 447.96875 1366.539062 460.949219 1345.628906 463.121094 C 1335.949219 464.128906 1326.339844 466.378906 1317.25 475.171875 C 1334.53125 472.539062 1350.070312 474.140625 1367.578125 469.621094 C 1350.398438 483.691406 1329.339844 488.011719 1317.238281 505.078125 C 1332.71875 498.628906 1349.121094 495.800781 1367.488281 489.46875 C 1356.300781 505.410156 1349.46875 520.230469 1349.75 537.960938 C 1352.890625 536.710938 1353.050781 534.480469 1353.789062 532.71875 C 1361.128906 515.199219 1373.761719 503.109375 1391.210938 495.828125 C 1405.019531 490.070312 1417.519531 482.359375 1427.640625 471.078125 C 1432.511719 465.660156 1436.621094 459.820312 1439.859375 452.988281 C 1440.789062 457.601562 1440.890625 462.128906 1439.851562 466.800781 C 1436.148438 483.460938 1427.441406 497.378906 1415.871094 509.5 C 1408.71875 517 1400.039062 521.179688 1389 517.710938 C 1400.078125 527.339844 1416.539062 521.71875 1427.828125 532.679688 C 1424.628906 525.121094 1424.628906 525.121094 1410.328125 520.140625 C 1432.78125 509.28125 1457.230469 500.238281 1468.269531 473.800781 C 1467.828125 494.871094 1459.03125 512.789062 1446.738281 531.988281 C 1464.71875 521.628906 1473.558594 505.761719 1485.808594 491.398438 C 1484.480469 505.109375 1479.261719 516.359375 1474.898438 528.648438 C 1496.78125 513.519531 1510.578125 483.628906 1496.921875 442.03125 C 1502.480469 449.578125 1504.941406 459.738281 1504.800781 474.308594 C 1504.679688 486.351562 1501.800781 497.828125 1497.871094 509.109375 C 1494.078125 519.960938 1488.671875 530.050781 1483.300781 540.199219 C 1497.660156 528.128906 1506.648438 512.679688 1511.921875 494.820312 C 1524.03125 503.851562 1527.230469 510.941406 1522.410156 524.621094 C 1511.871094 554.539062 1514.828125 583.058594 1527.519531 611.679688 C 1539.648438 639.011719 1550.761719 666.761719 1568.679688 691.039062 C 1572.429688 696.121094 1575 701.511719 1571.96875 708.03125 C 1571.398438 709.269531 1571 711.238281 1571.589844 712.238281 C 1577.21875 721.671875 1572.101562 728.410156 1566.710938 735.691406 Z M 1487.519531 760.328125 C 1494.148438 769.488281 1500.78125 775.308594 1508.871094 779.46875 C 1497.761719 779.75 1492.949219 775.609375 1487.519531 760.328125 Z M 1433.28125 1218.179688 C 1438.039062 1227.789062 1445.878906 1234.730469 1453.199219 1242.179688 C 1459.511719 1248.589844 1465.460938 1255.359375 1471.78125 1261.761719 C 1477.691406 1267.75 1479.75 1275.019531 1477.109375 1282.601562 C 1467.238281 1310.820312 1452.578125 1319.789062 1452.359375 1319.929688 C 1449.71875 1321.660156 1441.679688 1325.730469 1435.339844 1317.75 C 1426.851562 1307.050781 1417.390625 1297.199219 1412.160156 1284.101562 C 1408.621094 1275.21875 1409.730469 1266.039062 1407.460938 1256.949219 C 1403.820312 1242.320312 1367.078125 1229.511719 1363.398438 1228.359375 C 1349.589844 1224.058594 1335.949219 1219.25 1322.140625 1215 C 1316.019531 1213.109375 1312.390625 1209.238281 1309.988281 1203.578125 C 1304.75 1191.210938 1303.46875 1178.378906 1305.039062 1165.179688 C 1306.140625 1155.859375 1311.851562 1149.460938 1318.730469 1143.761719 C 1327.78125 1136.25 1337.449219 1129.601562 1346.71875 1122.070312 C 1341.929688 1123.671875 1337.128906 1125.28125 1331.691406 1127.101562 C 1339.359375 1116.351562 1349.730469 1110.328125 1360.140625 1104.210938 C 1370.328125 1098.210938 1380.078125 1091.46875 1390.570312 1082.230469 C 1390.789062 1133.488281 1412.320312 1175.738281 1433.28125 1218.179688 Z M 1439.789062 1402.878906 C 1437.609375 1414.859375 1435.179688 1426.929688 1435.421875 1439.140625 C 1435.800781 1458.320312 1426.550781 1470.949219 1410.070312 1479.21875 C 1406.441406 1481.03125 1402.769531 1482.761719 1399.078125 1484.460938 C 1393.671875 1486.949219 1390.738281 1490.398438 1393.039062 1496.828125 C 1393.871094 1499.191406 1393.769531 1502.03125 1393.511719 1504.589844 C 1393 1509.710938 1390.980469 1514.539062 1386.378906 1516.910156 C 1381.539062 1519.421875 1378.351562 1514.851562 1375.21875 1512.21875 C 1360 1499.339844 1347 1484.628906 1339.371094 1465.859375 C 1338.089844 1462.71875 1335.691406 1459.011719 1338.53125 1456.089844 C 1341.480469 1453.058594 1345.75 1453 1349.949219 1454.199219 C 1354.769531 1455.589844 1359.128906 1457.738281 1362.921875 1461.039062 C 1366.929688 1464.539062 1371.441406 1464.609375 1375 1461.128906 C 1376.398438 1459.761719 1372.789062 1452.050781 1372.511719 1451.230469 C 1369.371094 1441.609375 1368.878906 1431.429688 1375.609375 1423.839844 C 1400.789062 1395.488281 1413.960938 1361.640625 1422.851562 1323.96875 C 1426.191406 1330.050781 1426.988281 1334.828125 1425.851562 1340.398438 C 1421.550781 1361.46875 1414.238281 1381.601562 1407.121094 1401.800781 C 1406.671875 1403.070312 1406.238281 1404.359375 1406.699219 1405.890625 C 1419.179688 1377.441406 1434.308594 1349.710938 1431.578125 1317.289062 C 1436.371094 1324.210938 1442.128906 1331.589844 1454.378906 1327.539062 C 1449.328125 1353.480469 1444.308594 1378.140625 1439.789062 1402.878906 Z M 1338.089844 1480.441406 C 1348.679688 1495.308594 1361.378906 1508.140625 1373.910156 1521.121094 C 1356.359375 1512.488281 1345.96875 1497.480469 1338.089844 1480.441406 Z M 1307.371094 1494.949219 C 1308.789062 1503.058594 1310.128906 1511.191406 1311.660156 1519.269531 C 1313.289062 1527.851562 1316.339844 1536.019531 1320.621094 1543.578125 C 1324.828125 1551.039062 1329.75 1558.101562 1334.371094 1565.339844 C 1311.960938 1547.238281 1307.539062 1521.851562 1307.371094 1494.949219 Z M 1173.800781 1613.25 C 1188.730469 1607.46875 1204.140625 1603.628906 1220.261719 1602.460938 C 1205.789062 1610.191406 1189.910156 1612.160156 1173.800781 1613.25 Z M 1186.140625 1634.019531 C 1196.949219 1627.949219 1208.289062 1623.378906 1220.601562 1621.511719 C 1209.789062 1627.640625 1198.121094 1631.269531 1186.140625 1634.019531 Z M 1247.339844 1654.511719 C 1232.351562 1664.761719 1188.058594 1669.039062 1168.640625 1662.550781 C 1195.441406 1664.96875 1221.289062 1658.679688 1247.339844 1654.511719 Z M 862.769531 1221.101562 C 853.753906 1234.03125 842.898438 1245.269531 830.582031 1254.949219 C 827.894531 1257.058594 828.851562 1258.550781 828.925781 1260.5 C 830.613281 1305.039062 852.792969 1342.191406 872.34375 1380.261719 C 880.824219 1396.761719 888.417969 1413.769531 898.753906 1429.25 C 907.226562 1441.929688 918.378906 1452.199219 930.144531 1461.71875 C 940.019531 1469.699219 946.816406 1479.339844 949.050781 1492 C 950.445312 1499.890625 955.335938 1505.441406 961.402344 1510.328125 C 966.921875 1514.789062 972.742188 1519.011719 977.328125 1525.078125 C 980 1528.628906 978.03125 1533.738281 973.679688 1534.621094 C 956.695312 1538.058594 940.242188 1540.648438 923.363281 1540.671875 C 915.980469 1540.691406 915.070312 1537.828125 916.761719 1531.789062 C 917.628906 1528.679688 918.425781 1525.539062 920.675781 1523.199219 C 926.269531 1517.421875 924.699219 1511.839844 919.808594 1504.398438 C 919.960938 1511.128906 917.644531 1514.148438 912.199219 1513.929688 C 911.304688 1513.898438 909.574219 1513.53125 909.703125 1515.21875 C 909.800781 1516.578125 912.640625 1515.25 912.503906 1517.808594 C 903.9375 1518.011719 898.585938 1513.269531 894.320312 1506.671875 C 886.582031 1494.679688 883.773438 1480.980469 881.25 1467.320312 C 879.109375 1455.730469 875.191406 1445.03125 869.222656 1434.898438 C 845.925781 1395.390625 822.433594 1356.011719 796.558594 1318.109375 C 785.257812 1301.539062 772.367188 1286.191406 759.09375 1271.171875 C 756.214844 1267.910156 753.585938 1264.429688 750.832031 1261.058594 C 746.023438 1255.179688 745.554688 1249.578125 750.230469 1242.960938 C 760.761719 1228.039062 770.421875 1212.550781 778.328125 1196.070312 C 781.476562 1190.480469 801.710938 1154.859375 806.914062 1155.761719 C 812.632812 1156.75 810.75 1160.5 810.21875 1163.71875 C 806.679688 1185.289062 796.125 1203.390625 782.289062 1219.851562 C 779.714844 1222.910156 776.964844 1225.820312 775.007812 1229.480469 C 789.632812 1221.03125 801.234375 1209.699219 808.175781 1193.980469 C 812.433594 1184.339844 814.523438 1174.121094 816.070312 1163.761719 C 816.695312 1159.511719 815.03125 1154.078125 822.015625 1152.960938 C 829.175781 1151.820312 836.382812 1149.199219 842.199219 1156.070312 C 845.59375 1160.070312 848.320312 1164.53125 850.300781 1169.398438 C 855.859375 1183.121094 860.421875 1197.160156 864.441406 1211.410156 C 865.503906 1215.191406 864.925781 1218.011719 862.769531 1221.101562 Z M 939.582031 1545.808594 C 966.445312 1545.75 978.777344 1544.191406 984.402344 1542.601562 C 969.976562 1547.25 954.941406 1547.609375 939.582031 1545.808594 Z M 1011.730469 1590.050781 C 999.9375 1598.429688 949.976562 1599.171875 934.578125 1591.511719 C 959.734375 1593.148438 984.949219 1590.691406 1011.730469 1590.050781 Z M 675.53125 1565 L 697.632812 1567.050781 C 699.972656 1567.269531 702.339844 1567.28125 704.6875 1567.070312 L 728.023438 1565 C 710.601562 1572.601562 693.054688 1569.949219 675.53125 1565 Z M 743.367188 1625.488281 C 717.382812 1631.800781 692.378906 1629.378906 668.671875 1616.28125 C 692.8125 1626.089844 718.371094 1623.410156 743.367188 1625.488281 Z M 583.964844 1297.910156 C 593.289062 1303.300781 627.785156 1380.128906 630.570312 1395.769531 C 608.125 1365.300781 588.476562 1335.980469 583.964844 1297.910156 Z M 594.351562 1351.910156 C 595.203125 1353.421875 596.070312 1354.96875 596.941406 1356.539062 C 596.964844 1356.578125 596.988281 1356.628906 597.011719 1356.671875 C 602.050781 1365.558594 607.679688 1374.988281 612.554688 1383.589844 L 613.449219 1385.148438 C 600.921875 1377.371094 600.785156 1363.628906 594.351562 1351.910156 Z M 541.769531 791.910156 C 554.550781 784.730469 609.058594 760.011719 641.332031 774.570312 C 603.652344 773.53125 558.664062 785.691406 541.769531 791.910156 Z M 1057.550781 791.519531 C 1070.761719 778.351562 1072.191406 761.28125 1073.570312 744.769531 C 1073.738281 742.789062 1073.898438 740.808594 1074.089844 738.828125 C 1074.820312 731.078125 1076.070312 722.878906 1080.339844 715.488281 L 1082.160156 712.308594 L 1081.070312 715.808594 C 1077.691406 726.558594 1076.800781 737.789062 1075.929688 748.660156 C 1075.621094 752.46875 1075.308594 756.398438 1074.898438 760.261719 C 1073.289062 775.039062 1066.511719 787.859375 1058.011719 792.160156 L 1055.75 793.300781 Z M 1087.839844 736.601562 C 1088.550781 732.421875 1089.410156 723.761719 1089.410156 723.761719 C 1090.359375 729.359375 1090.058594 735.03125 1089.761719 740.53125 C 1089.5 745.421875 1089.230469 750.488281 1089.851562 755.449219 L 1090.128906 757.628906 L 1089.101562 755.679688 C 1085.710938 749.289062 1086.800781 742.839844 1087.839844 736.601562 Z M 1103.058594 701.859375 L 1102.449219 738.308594 C 1102.441406 738.160156 1100.398438 723.519531 1103.058594 701.859375 Z M 1097.410156 712.949219 C 1098.179688 699.859375 1098.988281 686.328125 1102.011719 673.21875 C 1102.351562 671.789062 1104.648438 667.351562 1104.789062 667.078125 C 1100.800781 682.730469 1100.25 699.191406 1099.71875 715.078125 C 1099.078125 734.191406 1098.429688 753.941406 1091.921875 773.191406 L 1091.671875 773.941406 L 1091.210938 773.300781 C 1088.398438 769.300781 1087.789062 765.890625 1089.171875 761.898438 C 1093.25 750.128906 1095.511719 739.300781 1096.488281 726.78125 C 1096.859375 722.179688 1097.140625 717.488281 1097.410156 712.949219 Z M 1120.640625 745.320312 C 1120.308594 744.699219 1109.648438 724.210938 1109.730469 695.179688 C 1109.730469 695.179688 1115.820312 727.898438 1120.640625 745.320312 Z M 1124.441406 575.308594 L 1126.960938 572.578125 L 1125.078125 575.78125 C 1114.859375 590.960938 1115.480469 611.808594 1115.480469 611.808594 C 1112.109375 597.671875 1115.121094 585.398438 1124.441406 575.308594 Z M 1124.898438 734.761719 L 1123.839844 731.050781 C 1119.910156 717.179688 1118.929688 702.890625 1120.839844 687.371094 Z M 1124.339844 597.941406 C 1124.421875 616.839844 1135.980469 647.871094 1135.980469 647.871094 C 1118.328125 629.480469 1124.339844 597.941406 1124.339844 597.941406 Z M 1151.78125 582.160156 C 1156.070312 617.699219 1145.269531 626.121094 1144.988281 626.328125 C 1149.25 615.769531 1151.78125 582.160156 1151.78125 582.160156 Z M 1140.480469 629.199219 L 1140.570312 633.128906 L 1139.679688 629.300781 C 1134.890625 608.449219 1137.558594 586.660156 1148.078125 560.75 C 1147.820312 561.910156 1138.160156 603.488281 1140.480469 629.199219 Z M 1136.488281 540.671875 C 1139.539062 538.421875 1142.980469 536.730469 1146.320312 535.109375 C 1150.21875 533.199219 1154.25 531.21875 1157.671875 528.351562 L 1160.308594 526.128906 L 1158.25 528.898438 C 1152.980469 535.980469 1144.871094 538.691406 1137.039062 541.308594 L 1134.429688 542.179688 Z M 1161.628906 703.890625 C 1161.628906 703.890625 1150.089844 682.480469 1153.589844 646.949219 C 1153.589844 646.949219 1157.75 685.859375 1161.628906 703.890625 Z M 1170.410156 548.210938 L 1168.390625 553.988281 C 1165.609375 562 1162.808594 570.011719 1160.011719 578.019531 L 1159.371094 579.871094 L 1159.230469 577.921875 C 1158.558594 568.269531 1162.828125 560.5 1168.46875 551.339844 Z M 1172.808594 697.269531 C 1168.710938 681.660156 1167.621094 667.628906 1169.460938 654.390625 Z M 1185.691406 737.25 L 1187.261719 740.050781 L 1185.039062 737.730469 C 1174.429688 726.601562 1167.539062 712.441406 1163.359375 693.140625 C 1163.761719 693.988281 1176.488281 720.960938 1185.691406 737.25 Z M 1187.011719 599.609375 C 1186.609375 600.511719 1172.539062 632.449219 1175.648438 661.199219 C 1175.648438 661.199219 1166.410156 633.839844 1187.011719 599.609375 Z M 1196.128906 689.898438 C 1195.761719 689.5 1182.949219 675.339844 1185.03125 641.878906 C 1185.03125 641.878906 1188.738281 675.640625 1196.128906 689.898438 Z M 1195.390625 640.738281 L 1195.96875 637.121094 L 1196.179688 640.78125 C 1196.558594 647.269531 1197.410156 653.828125 1198.21875 660.179688 C 1198.761719 664.371094 1199.308594 668.71875 1199.738281 673.019531 C 1199.738281 673.019531 1193.828125 663.269531 1195.390625 640.738281 Z M 1205.011719 516.28125 C 1200.589844 561.300781 1179.011719 570.261719 1179.011719 570.261719 C 1191.988281 555.578125 1205.011719 516.28125 1205.011719 516.28125 Z M 1207.828125 526.410156 L 1207.5 529.898438 L 1207.019531 526.429688 C 1204.449219 507.28125 1213.121094 491.210938 1221.5 475.660156 C 1221.5 475.660156 1221.511719 475.660156 1221.519531 475.648438 C 1221.148438 476.691406 1209.351562 510.359375 1207.828125 526.410156 Z M 1217.269531 556.691406 C 1217.578125 561.058594 1217.898438 565.578125 1218.101562 570.019531 C 1218.109375 570.429688 1218.121094 570.839844 1218.121094 571.238281 C 1218.121094 579.980469 1213.78125 586.148438 1209.46875 591.070312 L 1208.398438 592.28125 L 1208.769531 590.71875 C 1211.769531 578.050781 1212.261719 564.828125 1212.730469 552.03125 C 1213.378906 534.320312 1214.070312 516.019531 1221.371094 498.878906 C 1221.21875 499.941406 1215.960938 537.921875 1217.269531 556.691406 Z M 1227.828125 434.101562 L 1193.910156 486.429688 C 1194.628906 484.609375 1198.269531 459.429688 1227.828125 434.101562 Z M 1194.828125 453.039062 C 1196.511719 443.109375 1198.910156 433.890625 1209.921875 430.160156 L 1212.328125 429.328125 L 1210.289062 430.859375 C 1205.320312 434.558594 1202.671875 439.910156 1200.109375 445.089844 C 1198.738281 447.871094 1197.320312 450.738281 1195.558594 453.328125 L 1194.53125 454.859375 Z M 1226.410156 529.070312 C 1226.179688 537.339844 1225.941406 545.890625 1224.238281 554.230469 L 1223.828125 556.230469 L 1223.449219 554.21875 C 1221.660156 544.820312 1224.691406 509.921875 1228.921875 499.410156 C 1228.921875 499.410156 1226.679688 519.328125 1226.410156 529.070312 Z M 1232.070312 642.089844 L 1230.761719 640.25 C 1223.191406 628.128906 1224.039062 610.589844 1224.039062 610.589844 C 1225.171875 617.980469 1227.28125 625.269531 1229.320312 632.320312 C 1230.050781 634.800781 1230.789062 637.371094 1231.480469 639.910156 Z M 1232.25 601.660156 C 1232.25 601.660156 1232.050781 618.359375 1232.71875 626.398438 C 1232.890625 628.351562 1233.050781 630.289062 1233.179688 632.230469 L 1233.339844 634.679688 L 1232.398438 632.410156 C 1228.550781 623.058594 1228.5 613.011719 1232.25 601.660156 Z M 1227.621094 547.308594 C 1229.269531 530.53125 1233.378906 497.011719 1233.378906 497.011719 C 1234.949219 519.820312 1227.621094 547.308594 1227.621094 547.308594 Z M 1240.109375 550.019531 C 1241.621094 543.390625 1241.78125 536.550781 1241.941406 529.941406 C 1242.019531 526.121094 1243.269531 518.28125 1243.269531 518.28125 C 1243.421875 520.148438 1243.648438 522.058594 1243.871094 523.898438 C 1244.871094 532.660156 1245.929688 541.699219 1240.851562 550.308594 L 1239.539062 552.539062 Z M 1244.199219 493.859375 C 1244.199219 493.859375 1246.289062 506.871094 1247.53125 513.109375 C 1248 515.460938 1248.480469 517.890625 1248.890625 520.308594 L 1249.21875 522.148438 L 1248.171875 520.601562 C 1242.128906 511.671875 1242.878906 501.621094 1244.199219 493.859375 Z M 1258.378906 462.039062 C 1258.378906 462.039062 1251.589844 500.359375 1255.679688 518.46875 C 1255.679688 518.46875 1243.289062 490.261719 1258.378906 462.039062 Z M 1254.03125 575.269531 L 1252.640625 577.871094 L 1253.28125 574.988281 C 1254.300781 570.429688 1255.601562 566.109375 1256.839844 561.941406 C 1259.730469 552.28125 1261.730469 533.269531 1261.730469 533.269531 C 1264.738281 546.730469 1262.371094 559.679688 1254.03125 575.269531 Z M 1274.121094 574.871094 L 1273.328125 577.921875 L 1274.128906 518.878906 C 1274.179688 524.519531 1274.71875 530.058594 1275.289062 535.929688 C 1276.488281 548.25 1277.730469 560.980469 1274.121094 574.871094 Z M 1262.988281 475.28125 L 1263.699219 472.890625 L 1263.78125 475.378906 C 1263.878906 478.789062 1263.648438 482.261719 1263.421875 485.621094 C 1263.011719 491.910156 1262.570312 498.378906 1264.359375 504.660156 C 1263.390625 486.699219 1277.671875 463.941406 1278.109375 463.25 C 1277.328125 465.429688 1276.519531 467.609375 1275.71875 469.78125 C 1271.269531 481.839844 1266.671875 494.289062 1265.398438 507.449219 L 1265.03125 508.960938 C 1264.769531 509.871094 1264.511719 510.800781 1264.25 511.710938 L 1263.128906 515.761719 L 1262.839844 513.960938 C 1260.730469 500.929688 1259.148438 488.171875 1262.988281 475.28125 Z M 1289.871094 457.410156 C 1289.871094 457.410156 1286.128906 481.449219 1286.671875 494.179688 C 1286.910156 500.089844 1287.160156 506.199219 1286.890625 512.488281 L 1286.75 515.550781 L 1286.089844 512.570312 C 1281.441406 491.550781 1278.761719 474.140625 1289.871094 457.410156 Z M 1402.859375 425.730469 C 1402.421875 439.910156 1396.941406 450.601562 1383.921875 462.621094 L 1382.53125 463.910156 L 1383.28125 462.171875 C 1384.359375 459.671875 1386.410156 456.570312 1388.78125 452.988281 C 1393.71875 445.550781 1402.859375 425.730469 1402.859375 425.730469 Z M 1432.261719 425.410156 L 1432.570312 424 L 1433.039062 425.371094 C 1436.308594 434.910156 1432.921875 442.109375 1429.640625 449.078125 C 1428.261719 452.011719 1425.449219 457.46875 1425.269531 457.808594 C 1427.511719 447.441406 1429.75 437.039062 1432.261719 425.410156 Z M 1453.441406 437.730469 C 1453.441406 437.730469 1454.460938 473.519531 1444.25 489.859375 C 1444.441406 489.148438 1450.75 466.238281 1453.441406 437.730469 Z M 1476.328125 433.199219 C 1476.929688 434.078125 1488.339844 451.179688 1483.769531 472.859375 L 1482.941406 476.121094 L 1482.96875 472.761719 C 1483.078125 460.710938 1482.371094 446.589844 1476.328125 433.199219 Z M 1497.359375 493.328125 C 1497.359375 493.328125 1492.671875 456.71875 1487.449219 439.460938 C 1487.03125 438.058594 1486.601562 436.660156 1486.179688 435.261719 C 1486.609375 436.101562 1502.78125 467.738281 1497.359375 493.328125 Z M 1464.441406 374.640625 C 1473.570312 363.78125 1478.46875 350.710938 1484.480469 337.910156 C 1498.148438 358.898438 1499.488281 401.191406 1480.019531 411.839844 C 1492.828125 393.949219 1490.089844 375.660156 1486.699219 357.121094 C 1482.871094 372.679688 1473.730469 385.828125 1467.53125 400.789062 C 1453.359375 388.308594 1453.121094 388.109375 1464.441406 374.640625 Z M 561.71875 1263.089844 C 561.179688 1259.878906 560.804688 1256.648438 560.585938 1253.398438 C 560.585938 1253.398438 567.503906 1278.691406 570.5625 1290.828125 C 566.378906 1282.039062 563.3125 1272.691406 561.71875 1263.089844 Z M 565.765625 1322.550781 C 561.4375 1316.429688 558.527344 1309.339844 555.605469 1302.480469 C 548.890625 1285.449219 543.972656 1267.710938 540.980469 1249.660156 C 539.539062 1240.628906 538.582031 1231.46875 538.96875 1222.28125 C 538.96875 1222.28125 552.613281 1293.929688 568.808594 1326.390625 C 567.835938 1325.378906 566.8125 1324.089844 565.765625 1322.550781 Z M 546.410156 1300.089844 C 544.914062 1295.949219 543.464844 1291.789062 542.316406 1287.539062 C 542.386719 1287.550781 542.539062 1287.78125 542.75 1288.171875 C 543.804688 1289.78125 544.441406 1291.679688 545.292969 1293.410156 C 547.898438 1299.46875 550.28125 1305.609375 552.339844 1311.890625 L 552.460938 1312.269531 C 552.460938 1312.269531 547.980469 1304.140625 546.410156 1300.089844 Z M 544.15625 1174.53125 C 541.6875 1187.660156 539.902344 1214.460938 539.902344 1214.460938 C 537.199219 1201.128906 538.09375 1186.839844 544.15625 1174.53125 Z M 525.597656 1164.730469 C 521.671875 1177.039062 517.882812 1189.449219 515.613281 1202.179688 C 514.964844 1206.410156 514.238281 1215.089844 514.238281 1215.089844 C 513.941406 1213.851562 513.59375 1212.621094 513.355469 1211.378906 C 512.9375 1209.28125 512.582031 1206.03125 512.382812 1203.839844 C 511.640625 1192.488281 512.332031 1181.078125 513.507812 1169.789062 C 514.070312 1164.78125 514.617188 1159.75 515.613281 1154.789062 L 515.65625 1154.609375 L 515.695312 1154.789062 C 517.007812 1160.558594 516.597656 1166.519531 516.75 1172.371094 C 516.789062 1173.109375 516.796875 1173.871094 516.839844 1174.628906 C 516.863281 1175.070312 516.902344 1175.480469 516.949219 1175.851562 C 516.980469 1176.070312 517.023438 1176.300781 517.078125 1176.519531 C 517.070312 1176.539062 517.078125 1176.558594 517.085938 1176.570312 C 517.101562 1176.679688 517.136719 1176.78125 517.167969 1176.890625 C 517.214844 1177.058594 517.265625 1177.21875 517.328125 1177.390625 C 517.335938 1177.421875 517.34375 1177.429688 517.351562 1177.449219 L 517.351562 1177.460938 C 517.425781 1177.578125 517.503906 1177.699219 517.617188 1177.789062 C 517.625 1177.800781 517.632812 1177.800781 517.640625 1177.800781 C 517.664062 1177.820312 517.691406 1177.839844 517.722656 1177.851562 C 517.722656 1177.859375 517.730469 1177.859375 517.730469 1177.859375 C 517.785156 1177.878906 517.84375 1177.890625 517.898438 1177.890625 C 517.964844 1177.761719 518.019531 1177.628906 518.066406 1177.46875 L 518.066406 1177.460938 C 518.09375 1177.390625 518.109375 1177.308594 518.132812 1177.21875 C 518.132812 1177.210938 518.132812 1177.199219 518.140625 1177.191406 C 518.171875 1177.058594 518.203125 1176.890625 518.246094 1176.71875 C 518.308594 1176.421875 518.367188 1176.109375 518.429688 1175.871094 L 518.890625 1173.828125 C 518.9375 1173.601562 518.992188 1173.378906 519.050781 1173.148438 C 519.226562 1172.371094 519.4375 1171.5 519.675781 1170.550781 C 519.789062 1170.109375 519.902344 1169.660156 520.023438 1169.21875 C 520.183594 1168.609375 520.359375 1167.949219 520.546875 1167.269531 C 525.605469 1148.828125 533.949219 1131.339844 544.230469 1115.25 L 544.003906 1116.398438 C 542.285156 1124.941406 538.398438 1132.789062 534.785156 1140.601562 C 531.003906 1148.351562 528.292969 1156.539062 525.597656 1164.730469 Z M 512.074219 1253.960938 C 504.585938 1238.761719 500.8125 1221.988281 499.292969 1205.191406 C 498.09375 1192.640625 498.222656 1179.648438 502.363281 1167.621094 C 502.035156 1171.761719 501.304688 1175.859375 501.003906 1180.011719 C 500.628906 1184.148438 501.238281 1188.289062 501.496094 1192.441406 C 503.242188 1213.089844 506.75 1233.761719 514.191406 1253.179688 C 515.605469 1256.929688 518.019531 1264.570312 518.164062 1265.039062 C 516.015625 1261.429688 513.925781 1257.75 512.074219 1253.960938 Z M 495.058594 1177.5 C 494.707031 1199.46875 501.566406 1242.730469 501.777344 1244.039062 C 493.972656 1222.851562 492.460938 1199.808594 495.058594 1177.5 Z M 476.265625 1118.441406 C 478.898438 1107.371094 483.699219 1096.550781 491.792969 1088.378906 C 486.726562 1098.109375 481.480469 1108.671875 476.265625 1118.441406 Z M 523.980469 1117.351562 C 520.957031 1126.238281 514.199219 1133.078125 510.242188 1141.488281 C 511.730469 1132.089844 517.175781 1123.808594 523.980469 1117.351562 Z M 518.300781 965.800781 L 518.953125 963.820312 C 521.464844 956.101562 525.164062 948.328125 526.402344 940.238281 C 528.488281 949.839844 524.714844 958.738281 518.300781 965.800781 Z M 528.335938 896.898438 C 525.125 912.5 521.367188 928.859375 518.109375 944.320312 C 518.832031 928.101562 521.246094 911.671875 528.335938 896.898438 Z M 552.910156 1024.699219 C 555.679688 1047.929688 544.808594 1068.460938 529.742188 1085.328125 L 527.851562 1087.46875 L 529.082031 1084.890625 C 538.164062 1065.621094 548.292969 1045.578125 552.910156 1024.699219 Z M 533.628906 990.929688 C 536.210938 980.421875 539 969.949219 540.714844 959.261719 C 542.808594 947.070312 543.730469 934.691406 543.796875 922.339844 C 544.164062 937.929688 547.222656 953.828125 543.210938 969.199219 C 540.5625 978.238281 537.535156 987.191406 533.570312 995.761719 L 532.613281 997.699219 C 532.800781 995.460938 533.078125 993.058594 533.628906 990.929688 Z M 536.710938 935.261719 C 536.605469 941 537.015625 946.699219 536.980469 952.441406 C 537.015625 959.089844 536.074219 965.808594 534.246094 972.230469 C 533.722656 959.878906 533.925781 947.359375 536.710938 935.261719 Z M 559.25 1142.53125 C 556.136719 1151.871094 552.484375 1161.03125 549.976562 1170.550781 C 547.875 1178.859375 546.734375 1187.359375 544.816406 1195.699219 C 544.816406 1195.710938 544.816406 1195.71875 544.816406 1195.71875 C 544.6875 1196.261719 544.578125 1196.808594 544.449219 1197.339844 C 544.335938 1183.121094 545.125 1168.410156 551.34375 1155.359375 C 553.457031 1150.789062 556.191406 1146.519531 559.25 1142.53125 Z M 556.152344 941.890625 C 555.671875 957.691406 550.257812 972.851562 543.644531 987.050781 C 543.828125 986.359375 549.992188 964.128906 556.152344 941.890625 Z M 489.324219 995.878906 C 484.820312 1001.910156 477.167969 1005.21875 469.703125 1004.929688 C 467.867188 1004.851562 465.480469 1004.539062 463.621094 1004.398438 C 468.625 1003.460938 473.691406 1002.398438 478.542969 1000.878906 C 482.492188 999.609375 486.492188 998.128906 489.6875 995.398438 C 489.660156 995.441406 489.53125 995.621094 489.324219 995.878906 Z M 1582.339844 714.960938 C 1581.628906 712.851562 1581.300781 710.171875 1581.929688 708.109375 C 1584.800781 698.660156 1580.949219 690.871094 1575.871094 683.671875 C 1559.820312 660.96875 1549.429688 635.449219 1538.050781 610.328125 C 1525.378906 582.359375 1521.320312 554.421875 1533.109375 525.238281 C 1536.78125 516.140625 1535.78125 506.789062 1529.261719 499.859375 C 1518.75 488.671875 1513.191406 476.289062 1514.621094 460.929688 C 1514.710938 459.980469 1513.691406 458.898438 1515.070312 457.988281 C 1518.671875 460.121094 1517.539062 465.691406 1521.941406 467.730469 C 1522.339844 456.359375 1517.941406 446.789062 1511.511719 435.820312 C 1519.839844 439.460938 1523.21875 445.089844 1527.179688 451.089844 C 1527.449219 449.351562 1527.738281 448.550781 1527.679688 447.761719 C 1526.628906 435.371094 1520.808594 426.578125 1508.789062 422.128906 C 1494.390625 416.800781 1494.421875 416.671875 1500.519531 402.28125 C 1504.359375 393.230469 1504.828125 383.828125 1504.351562 374.109375 C 1503.46875 356.671875 1495.441406 341.511719 1490.109375 325.019531 C 1482.171875 328.96875 1477.96875 335.539062 1475.039062 342.839844 C 1469.171875 357.378906 1459.378906 369.210938 1449.730469 381.199219 C 1447.800781 383.609375 1446.421875 384.589844 1443.371094 383 C 1431.671875 376.949219 1419.441406 376.378906 1407.058594 380.558594 C 1402.550781 382.089844 1400.898438 380.078125 1399.449219 376.289062 C 1395.679688 366.410156 1393.488281 356.320312 1393.421875 345.71875 C 1393.398438 341.328125 1393.988281 336.78125 1392.210938 331.859375 C 1376.75 342.300781 1364.941406 354.941406 1358.328125 371.550781 C 1355.359375 379.019531 1351 382.46875 1343.578125 385.25 C 1335.46875 388.269531 1327.769531 390.070312 1319.230469 389.519531 C 1313.050781 389.121094 1306.289062 389.871094 1301.699219 393.609375 C 1290.75 402.539062 1278.398438 402.378906 1265.601562 401.71875 C 1261.839844 401.53125 1258.03125 401.75 1254.28125 402.101562 C 1231.648438 404.269531 1210.109375 409.109375 1193.328125 426.210938 C 1181.800781 437.96875 1174.828125 452.25 1170.628906 467.800781 C 1163.921875 492.609375 1148.039062 508.359375 1124.488281 517.199219 C 1118.789062 519.339844 1113.191406 521.769531 1107.441406 523.761719 C 1091 529.460938 1081.730469 540.71875 1079.558594 558.101562 C 1077.460938 574.898438 1069.519531 588.808594 1057.359375 600.429688 C 1055.859375 601.859375 1054.519531 603.441406 1053.109375 604.960938 C 1053.421875 605.378906 1053.730469 605.800781 1054.050781 606.21875 C 1065.488281 599.839844 1076.929688 593.46875 1088.371094 587.089844 C 1080.71875 598.328125 1074.429688 609.878906 1070.980469 622.808594 C 1066.648438 639.050781 1055.761719 648.921875 1040.71875 655.238281 C 1034.339844 657.921875 1027.410156 658.589844 1019.378906 661.308594 C 1043.800781 667.460938 1065.191406 666.019531 1084.5 650.691406 C 1079.320312 662.03125 1073.808594 672.808594 1070.390625 684.570312 C 1066.878906 696.671875 1065.761719 709.058594 1064.699219 721.488281 C 1063.730469 732.761719 1064.011719 744.121094 1062.339844 755.371094 C 1058.089844 784 1040 798.558594 1011.550781 795.820312 C 994.699219 794.210938 978.632812 790.980469 964.3125 780.449219 C 954.601562 773.300781 943.402344 767.878906 932.308594 762.929688 C 844.941406 724 760.351562 735.449219 677.742188 777.910156 C 672.417969 780.648438 669.707031 781.511719 664.914062 776.378906 C 640.015625 749.820312 590.851562 736.929688 555.203125 769.699219 C 549.445312 775.011719 543.417969 780.078125 537.175781 784.808594 C 516.074219 800.761719 493.773438 811.808594 465.34375 799.839844 C 472.226562 811.730469 482.453125 814.480469 493.621094 815.601562 C 504.65625 816.710938 515.492188 814.238281 527.835938 812.75 C 524.320312 816.511719 521.84375 818.941406 519.621094 821.570312 C 503.082031 841.191406 491.84375 862.980469 492.242188 889.410156 C 492.332031 895.070312 492.816406 900.859375 499.5 903.699219 C 504.953125 871.558594 550.738281 823.171875 578.222656 821.109375 C 572.695312 825.398438 567.945312 829.148438 563.136719 832.800781 C 532.082031 856.378906 513.433594 887.03125 511.617188 926.410156 C 510.730469 945.660156 503.738281 961.910156 492.082031 976.53125 C 471.898438 1001.839844 443.460938 1008.511719 416.300781 993.421875 C 425.125 1012.519531 441.414062 1015.070312 457.859375 1016.519531 C 474.683594 1018.011719 490.628906 1014.03125 505.621094 1005.839844 C 498.261719 1013.480469 492.984375 1022.269531 486.371094 1029.949219 C 468.839844 1050.308594 444.835938 1050.648438 428.109375 1030.671875 C 424.890625 1034.578125 425.398438 1038.710938 427.097656 1042.800781 C 430.515625 1051.050781 437.53125 1055.199219 445.574219 1057.320312 C 453.355469 1059.371094 461.40625 1060.371094 471.351562 1062.210938 C 450.636719 1068.789062 433.667969 1067.890625 420.28125 1050.351562 C 417.363281 1057.199219 419.710938 1062.058594 423.421875 1066.25 C 429.492188 1073.121094 437.363281 1076.261719 446.558594 1076.578125 C 459.253906 1077.03125 470.828125 1072.621094 484.359375 1067.410156 C 475.246094 1076.359375 466.613281 1082.089844 457.167969 1086.550781 C 447.746094 1090.988281 437.910156 1093.191406 425.847656 1089.160156 C 439.140625 1107.601562 455.777344 1106.140625 473.933594 1102 C 466.394531 1116.671875 464.746094 1131.609375 465.753906 1146.769531 C 466.886719 1163.890625 466.21875 1180.058594 448.140625 1191.25 C 463.789062 1190.800781 472.453125 1183.171875 474.480469 1169.820312 C 475.222656 1164.949219 475.40625 1159.96875 476.394531 1155.148438 C 479.042969 1142.308594 480.933594 1129.199219 488.054688 1116.648438 C 488.40625 1118.390625 488.6875 1118.980469 488.609375 1119.511719 C 488.277344 1121.511719 487.761719 1123.46875 487.449219 1125.460938 C 483.371094 1151.539062 478.207031 1177.550781 481.679688 1204.171875 C 483.765625 1220.101562 490.320312 1234.808594 494.328125 1250.21875 C 499.011719 1268.238281 507.480469 1285.839844 501.550781 1305.28125 C 501.191406 1306.46875 501.253906 1307.808594 502.660156 1308.011719 C 503.660156 1308.160156 504.953125 1307.730469 505.832031 1307.128906 C 511.148438 1303.519531 512.003906 1297.378906 513.941406 1291.199219 C 523.328125 1300.898438 533.128906 1309.199219 540.515625 1319.679688 C 549.667969 1332.640625 556.515625 1346.199219 545.824219 1362.730469 C 557.078125 1362.039062 559.933594 1353.550781 564.109375 1346.308594 C 565.292969 1347.621094 566.257812 1348.371094 566.796875 1349.351562 C 577.296875 1368.53125 592.484375 1382.828125 611.890625 1392.761719 C 614.640625 1394.160156 616.21875 1396.589844 617.398438 1399.269531 C 621.476562 1408.558594 625.25 1417.988281 626.789062 1428.101562 C 629.460938 1445.71875 627.335938 1463.5 628.371094 1481.191406 C 629.234375 1495.828125 631.371094 1509.988281 641.542969 1521.769531 C 647.285156 1528.421875 655.492188 1530.488281 663.535156 1534.621094 C 660.035156 1536.988281 657.148438 1538.78125 654.445312 1540.820312 C 647.574219 1546.019531 644.214844 1553.230469 646.121094 1561.46875 C 649.339844 1575.390625 650.488281 1589.578125 652.113281 1603.671875 C 653.859375 1618.789062 661.953125 1626.960938 675.691406 1631.46875 C 693.0625 1637.160156 710.800781 1639.058594 728.933594 1638.160156 C 751.347656 1637.039062 761.394531 1631.21875 750.769531 1606.078125 C 745.722656 1594.148438 739.578125 1582.25 739.402344 1568.839844 C 739.238281 1556.421875 734.960938 1545.621094 728.308594 1535.480469 C 723.527344 1528.199219 718.683594 1520.960938 713.988281 1513.628906 C 710.601562 1508.351562 708.523438 1502.511719 709.785156 1496.25 C 711.855469 1486.039062 707.890625 1478.328125 701.132812 1471.171875 C 689.578125 1458.929688 682.023438 1444.339844 676.425781 1428.558594 C 668.824219 1407.121094 664.09375 1385.039062 661.027344 1362.601562 C 657.558594 1337.269531 655.691406 1337.648438 682.199219 1335.730469 C 678.058594 1327.851562 670.875 1325.089844 663.320312 1323.078125 C 660.382812 1322.300781 657.519531 1322.230469 658.332031 1317.871094 C 658.96875 1314.429688 661.15625 1314.171875 664.011719 1314.039062 C 688.105469 1312.96875 713.433594 1339.25 711.003906 1363.039062 C 714.097656 1361.238281 714.765625 1358.121094 715.605469 1355.148438 C 718.902344 1343.371094 714.519531 1333.300781 707.710938 1324.289062 C 696.972656 1310.050781 682.242188 1301.628906 664.976562 1297.820312 C 659.601562 1296.628906 658.261719 1294.710938 659.570312 1289.148438 C 664.589844 1267.851562 674.832031 1250.800781 694.324219 1239.359375 C 727.71875 1219.738281 752.433594 1191.621094 771.171875 1157.96875 C 772.898438 1154.871094 773.488281 1150.738281 777.800781 1148.789062 C 783.238281 1159.839844 779.296875 1169.988281 775.160156 1179.761719 C 766.640625 1199.890625 754.566406 1218.039062 742.410156 1236.109375 C 733.769531 1248.941406 733.722656 1255.199219 743.390625 1267.519531 C 752.714844 1279.398438 762.84375 1290.628906 772.175781 1302.5 C 803.132812 1341.859375 827.429688 1385.558594 853.671875 1428.011719 C 863.75 1444.308594 870.644531 1461.421875 874.082031 1480.25 C 876.527344 1493.699219 880.703125 1506.738281 890.242188 1517.261719 C 894.660156 1522.128906 901.933594 1523.550781 905.816406 1527.609375 C 909.785156 1531.738281 905.578125 1540.230469 908.359375 1546.710938 C 914.191406 1560.320312 918.777344 1574.398438 922.035156 1588.878906 C 923.910156 1597.179688 929.074219 1601.738281 937.347656 1603.460938 C 958.390625 1607.851562 979.550781 1607.441406 1000.628906 1604.460938 C 1022.738281 1601.328125 1025.621094 1594.160156 1013.679688 1574.929688 C 1007.871094 1565.578125 999.316406 1557.261719 996.910156 1546.589844 C 992.527344 1527.148438 981.511719 1513.191406 966.027344 1501.878906 C 962.617188 1499.378906 960.152344 1496.140625 959.484375 1491.949219 C 956.789062 1474.851562 947.144531 1462.261719 934.015625 1451.75 C 916.945312 1438.101562 904.066406 1421.191406 894.441406 1401.539062 C 882.953125 1378.101562 870.847656 1354.949219 859.140625 1331.609375 C 852.109375 1317.578125 845.617188 1303.308594 843.132812 1287.628906 C 840.582031 1271.5 842.28125 1257.640625 855.457031 1244.871094 C 879.480469 1221.558594 897.242188 1193.539062 906.671875 1161.050781 C 908.804688 1153.699219 911.199219 1153.050781 917.886719 1155.320312 C 978.382812 1175.808594 1040 1182.859375 1102.960938 1168.628906 C 1112.109375 1166.558594 1111.46875 1169.980469 1110.441406 1176.511719 C 1107.5 1195.21875 1106.601562 1213.988281 1109.011719 1232.921875 C 1111.828125 1255.070312 1121.03125 1275.21875 1127.710938 1296.171875 C 1133.121094 1313.171875 1137.390625 1330.410156 1130.378906 1348.070312 C 1124.070312 1363.960938 1124.558594 1379.390625 1130.800781 1395.460938 C 1135.691406 1408.039062 1139.96875 1421.078125 1138.699219 1435.199219 C 1135.648438 1468.71875 1134.148438 1502.398438 1127.410156 1535.539062 C 1123.640625 1554.078125 1128.179688 1570.378906 1144.011719 1581.898438 C 1150.058594 1586.300781 1150.699219 1589.410156 1145.191406 1594.550781 C 1136.820312 1602.328125 1135.46875 1611.46875 1139.808594 1622.289062 C 1144.109375 1633.019531 1147.488281 1644.191406 1150.421875 1655.390625 C 1153.71875 1667.988281 1162.011719 1673.691406 1174.230469 1674.46875 C 1197.269531 1675.929688 1220.121094 1674.441406 1242.421875 1668.089844 C 1258.769531 1663.441406 1261.480469 1656.320312 1252.558594 1641.96875 C 1243.679688 1627.679688 1234.300781 1613.710938 1230.601562 1596.851562 C 1229.820312 1593.320312 1227.730469 1589.671875 1225.269531 1586.980469 C 1211.160156 1571.589844 1204.519531 1553.121094 1201.820312 1532.820312 C 1201.320312 1529.109375 1200.550781 1525.269531 1199.019531 1521.890625 C 1189.820312 1501.5 1190.738281 1480.070312 1192.03125 1458.558594 C 1192.410156 1452.171875 1192.929688 1445.78125 1192.898438 1439.398438 C 1192.851562 1430.761719 1194.539062 1422.738281 1199.300781 1415.390625 C 1205.730469 1405.441406 1207.191406 1394.609375 1205.929688 1382.859375 C 1199.800781 1325.28125 1206.621094 1269.269531 1227.820312 1215.25 C 1236.449219 1193.28125 1247.078125 1172.398438 1263.050781 1154.589844 C 1266.730469 1150.480469 1268.691406 1149.070312 1271.730469 1155.429688 C 1277.71875 1167.96875 1285.441406 1179.730469 1290.910156 1192.46875 C 1299.671875 1212.878906 1313.578125 1225.359375 1335.761719 1230.421875 C 1352.878906 1234.320312 1369.769531 1240.03125 1385.921875 1247.378906 C 1393.320312 1250.761719 1398.109375 1255.210938 1397.679688 1264.480469 C 1397.078125 1276.929688 1400.339844 1288.609375 1408.121094 1298.738281 C 1412.199219 1304.058594 1413.628906 1310.140625 1412.828125 1316.789062 C 1408.921875 1349.539062 1396.539062 1379.160156 1377.058594 1405.308594 C 1367.449219 1418.21875 1358.949219 1430.390625 1361.480469 1447.410156 C 1347.308594 1442.628906 1335.070312 1443.828125 1324.671875 1454.488281 C 1323.289062 1455.910156 1321.410156 1457 1319.570312 1457.78125 C 1304.628906 1464.109375 1298.539062 1475.589844 1298.519531 1491.488281 C 1298.480469 1519.980469 1301.839844 1547.28125 1322.449219 1569.261719 C 1334.488281 1582.089844 1344.398438 1581 1352.390625 1565.570312 C 1360.289062 1550.328125 1369.761719 1537.128906 1385.511719 1528.738281 C 1396.578125 1522.839844 1403.449219 1512.960938 1403.171875 1499.75 C 1403.050781 1494.101562 1405.53125 1491.78125 1410.289062 1489.648438 C 1432.210938 1479.820312 1443.269531 1463.96875 1445.789062 1438.730469 C 1450.601562 1390.421875 1456.070312 1341.980469 1481.609375 1298.390625 C 1493.558594 1278.011719 1489.949219 1266.449219 1474.121094 1248.878906 C 1464.789062 1238.53125 1452.398438 1230.570312 1445.640625 1218.410156 C 1426.46875 1183.859375 1409.320312 1148.269531 1402.75 1108.789062 C 1399.648438 1090.121094 1401.929688 1082.230469 1419.660156 1048.738281 C 1437.519531 1015.03125 1443.238281 980.578125 1437.910156 943.679688 C 1434.621094 920.851562 1428.640625 898.859375 1414.25 879.929688 C 1411.011719 875.679688 1409.148438 870.140625 1407.53125 864.929688 C 1390.691406 810.699219 1391.660156 755.640625 1400.089844 700.25 C 1401.089844 693.710938 1403.300781 693.789062 1407.539062 697.851562 C 1421.230469 710.921875 1436.390625 722.148438 1451.921875 732.929688 C 1464.878906 741.910156 1474.558594 753.050781 1479.199219 768.820312 C 1484.03125 785.289062 1495.160156 791.910156 1511.550781 790.148438 C 1520.21875 789.21875 1528.789062 787.648438 1536.519531 783.171875 C 1539.039062 781.71875 1541.660156 780.761719 1544.710938 780.628906 C 1559.929688 779.988281 1563.160156 777.210938 1565.988281 762.269531 C 1567.691406 753.339844 1569.558594 744.570312 1576.511719 737.949219 C 1583.269531 731.519531 1585.378906 723.96875 1582.339844 714.960938 "/>
<path fill-rule="nonzero" fill="rgb(13.729858%, 12.159729%, 12.548828%)" fill-opacity="1" d="M 517.640625 1177.800781 C 517.667969 1177.820312 517.691406 1177.839844 517.722656 1177.851562 C 517.691406 1177.839844 517.667969 1177.820312 517.640625 1177.800781 "/>
<path fill-rule="nonzero" fill="rgb(13.729858%, 12.159729%, 12.548828%)" fill-opacity="1" d="M 517.898438 1177.890625 C 517.839844 1177.890625 517.78125 1177.878906 517.730469 1177.859375 C 517.78125 1177.878906 517.839844 1177.890625 517.898438 1177.890625 "/>
<path fill-rule="nonzero" fill="rgb(13.729858%, 12.159729%, 12.548828%)" fill-opacity="1" d="M 517.347656 1177.449219 C 517.203125 1177.078125 517.101562 1176.699219 517.023438 1176.320312 C 517.105469 1176.800781 517.214844 1177.179688 517.347656 1177.449219 "/>
</svg>
