<?xml version="1.0" encoding="UTF-8" standalone="no"?>
<!-- Generator: Adobe Illustrator 27.4.1, SVG Export Plug-In . SVG Version: 6.00 Build 0)  -->

<svg
   version="1.1"
   id="Layer_1"
   x="0px"
   y="0px"
   viewBox="0 0 1024 1024"
   style="enable-background:new 0 0 1024 1024;"
   xml:space="preserve"
   sodipodi:docname="magic_pencil_logo.svg"
   inkscape:version="1.4.2 (f4327f4, 2025-05-13)"
   xmlns:inkscape="http://www.inkscape.org/namespaces/inkscape"
   xmlns:sodipodi="http://sodipodi.sourceforge.net/DTD/sodipodi-0.dtd"
   xmlns="http://www.w3.org/2000/svg"
   xmlns:svg="http://www.w3.org/2000/svg"><defs
   id="defs48" /><sodipodi:namedview
   id="namedview48"
   pagecolor="#ffffff"
   bordercolor="#000000"
   borderopacity="0.25"
   inkscape:showpageshadow="2"
   inkscape:pageopacity="0.0"
   inkscape:pagecheckerboard="0"
   inkscape:deskcolor="#d1d1d1"
   inkscape:zoom="0.49121094"
   inkscape:cx="510.98211"
   inkscape:cy="512"
   inkscape:window-width="1366"
   inkscape:window-height="705"
   inkscape:window-x="-8"
   inkscape:window-y="-8"
   inkscape:window-maximized="1"
   inkscape:current-layer="g48" />
<style
   type="text/css"
   id="style1">
	.st0{fill:#FBCD43;}
	.st1{fill:#EA963B;}
	.st2{fill:#481160;}
	.st3{fill:#EAACB9;}
	.st4{fill:#E5538E;}
	.st5{fill:#D8889E;}
	.st6{fill:#FAF4C1;}
	.st7{fill:#FAF4C5;}
	.st8{fill:#FEFEFD;}
	.st9{fill:#D65577;}
	.st10{fill:#C3427C;}
	.st11{fill:#FBF9EF;}
	.st12{fill:#F9F5C7;}
	.st13{fill:#F8F3C1;}
	.sparkle{fill:#FBCD43;}
	.sparkle-white{fill:#FFFFFF;}
	.sparkle-pink{fill:#E5538E;}
</style>
<g
   id="g48">
	<path
   class="st0"
   d="M715.8,669.9c-0.1,24.9-0.2,46.4-0.8,67.9c-0.7,25.3-0.2,50.6-0.4,75.8c-0.2,28.8-1.1,57.5-2,86.2   c-0.5,16.7-1.4,33.3-2.5,49.9c-0.8,11.9-4.7,22.5-14.3,30.4c-5.9,4.8-12.9,7.4-20.1,9.4c-8.9,2.4-18,3.3-27.1,4.1   c-15.1,1.3-30.1,2.6-45.2,3.8c-9.7,0.8-19.4,1.6-29.1,1.9c-14.7,0.5-29.4,1-44.1,1.3c-11.1,0.2-22.2,0.4-33.3,0.2   c-23.3-0.4-46.6-0.7-69.9-2.3c-16-1.1-32.1-2.2-47.9-5.5c-8.4-1.7-16.6-4.2-24.4-7.7c-4.3-2-7.5-5-10-9.1c-5-8.5-7.7-17.8-9.9-27.3   c-2.8-12-3.9-24.3-5.1-36.5c-2.7-26.1-3.7-52.3-5.1-78.5c-1.1-21.2-1.2-42.5-1.7-63.7c-0.9-33-2.1-66.1-3.1-99.1   c-1.7-57.6-2.3-115.3-1.8-172.9c0.2-28.5,1-56.9,1.9-85.4c0.6-20.1,1.9-40.2,2.7-60.3c0.2-4.4,2.4-6.9,6-8.6   c4.6-2.2,9.6-3.5,14.6-4.3c28.7-4.6,57.6-6.2,86.6-6.8c27.3-0.6,54.7-1.7,82-2.3c18.5-0.4,36.9-0.4,55.4,0.1   c29.8,0.8,59.6,2,89.4,4.4c10.9,0.9,21.9,1.5,32.8,2.9c12.6,1.7,10.7,1.4,12.7,12c2.3,12.4,4.5,24.8,5.9,37.4   c2.1,18.4,3.7,36.7,4.5,55.2c1.4,34.3,1,68.6,1.3,102.9c0.3,28.3,0.6,56.7,1,85C715,644.7,715.5,659,715.8,669.9z M510.8,701.5   c19.9,0.5,37.4-6.2,52-19.5c18.2-16.6,25.7-38,26.8-62.1c0.1-2.4-0.3-4.7-1.2-6.9c-2.8-7.3-10.8-15.2-20.5-13.6   c-3.1,0.5-5.8,1.8-8.5,3.2c-18.2,9.4-37.5,12.3-57.6,10.1c-6-0.7-11.9-1.7-17.7-3.5c-6.4-2-12.6-4.3-18.6-7.1   c-6.9-3.1-13.2-1.9-19,2.8c-5,4.1-8.1,9.4-9.3,15.8c-1.2,6.1-0.7,12.2,0,18.2c1.2,10.8,3.9,21.1,9.1,30.7   c4.5,8.3,11.1,14.8,18.4,20.6c6,1.6,11.1,5.3,17.1,7C491.3,699.9,500.9,701.3,510.8,701.5z M432.3,884.7   C432.3,884.7,432.3,884.7,432.3,884.7c0,8.8-0.1,17.5,0.1,26.3c0.1,3.4,0,7.2,1.2,10.3c3,7.7,8,13.8,16.6,16   c5.4,1.4,10,0.6,14.2-3.4c5.9-5.6,8.5-12.6,8.7-20.5c0.1-6.1,0.7-12.1,0.2-18.2c-0.5-6.8-0.5-13.6-0.7-20.4   c-0.3-10-1.8-19.9-2.1-29.8c-0.1-3.3-0.7-6.6-1.3-9.9c-1-6-2.5-11.9-3.4-17.9c-1.8-12-5.2-23.5-11.1-34.1c-1.7-3.1-3.7-5.9-7.2-7.1   c-3-1.1-4.9-0.7-7.1,1.7c-1.8,2-2.6,4.6-3.2,7.1c-2.9,11.4-3.3,23-3.8,34.6c-0.6,14.3-0.2,28.6-0.9,42.9   C431.9,869.7,432.3,877.2,432.3,884.7z M659.8,541.1c-0.2-13.7-5.2-25-15.7-33.3c-15.2-12.1-33.5-10.8-45.9,4.8   c-7,8.8-10.5,19-10.2,30.4c0.9,27.2,23.8,38.4,45.5,33.7c4.7-1,9.1-3,13-6.1C656,562.9,659.2,552.4,659.8,541.1z M402.4,582   c9.6,0.1,15.8-1.2,21.4-4.4c11.1-6.4,15.6-16.7,16.8-28.8c0.9-9.2-1.2-17.9-5.8-26c-13.3-23.2-44.5-22.3-57.5-2.3   c-7.4,11.4-10.7,24-10.2,37.5c0.2,5.7,2.4,10.8,6,15.3c2.6,3.4,6.2,6.3,10.1,6.8C389.8,581,396.5,582.3,402.4,582z M380.7,381.1   c0.5-2.8-1.1-5.5-0.8-8.3c0.3-3.4-1.2-6.3-2.9-8.9c-5.4-8.3-17-8.2-22.6,0c-3.2,4.7-4.9,10-6.1,15.3c-1.5,6.4-2.1,13-1.4,19.7   c0.5,5,1.9,9.8,2.1,14.8c0.2,4.7,3,8.5,6.8,10.3c10.9,5.3,20.8,0,22.5-11.1c0.6-3.7,0.3-7.5,0.9-11.2   C380.3,394.9,379,387.9,380.7,381.1z"
   id="path1" />
	<path
   class="st1"
   d="M682.2,335.4c0,0,13-1.1,16.3,0.8c3.3,1.8,17.2,37,17.2,37l10.9,496l-6.2,97.9c0,0-31.7,46.7-56.5,49.2   s-266.1,5.3-300.5-15.3c-34.5-20.6-45.6-80.9-45.6-80.9l4.9-88.8c0,0,4.1-0.4,6.9,0.6c2.7,0.9,8.3,3,9.9,11   c1.6,8,2.7,21.9,3.4,35.6c0.7,13.7,0.9,25,2,29.9c1.1,4.9,4.2,19.4,7,24.6c2.8,5.3,8.4,18.4,15.4,23.3s19.6,12.1,42.5,15.8   c22.9,3.6,40.4,7.5,75.6,8.9c35.2,1.4,78.7,0.1,98.4-2.1s44.5-5.6,62.7-12.4c18.3-6.9,27.4-19.6,32-30.2s11.5-24.2,11-41.8   c-0.5-17.6-2.1-76.6-2.3-81.9c-0.2-5.3,1.5-111.9,1.4-121.3c-0.1-9.5,0.8-53,0.8-57s-1.9-121.6-2.1-127.6c-0.2-6,0-92.2-0.3-97.4   c-0.3-5.2-2.5-51.2-3.1-56.6C683.5,347.2,682.2,335.4,682.2,335.4z"
   id="path2" />
	<path
   class="st2"
   d="M735.8,299.9l0.3,0.1c0,0,0-0.1,0-0.1L735.8,299.9z M733.6,949.2C733.6,949.2,733.6,949.2,733.6,949.2   l-0.3-0.1L733.6,949.2z M732,408.2L732,408.2l-0.3,0.1l0.3,0h0C732,408.2,732,408.2,732,408.2L732,408.2z M726.6,349.9l0.4,0   c0,0,0-0.1,0-0.1L726.6,349.9z M304.7,920.1l0.3-0.1L304.7,920.1L304.7,920.1z"
   id="path3" />
	<path
   class="st2"
   d="M738.2,633.5c-0.6-25-0.3-50-0.9-75c-1-45.5-0.9-91-5.1-136.4c1.3-4.6-0.5-9.2-0.2-13.8l-0.3,0l0.3-0.1   c-0.4-5.1-0.7-10.2-1.1-15.3c-1.3-14.4-2.6-28.7-3.9-43.1c0,0,0,0.1,0,0.1l-0.4,0l0.3-0.1c-0.3-4.1-0.6-8.2-1.1-12.3   c-0.3-2.7,0-5.1,1.2-7.6c4.5-9.5,8-19.4,9-30l-0.3-0.1l0.3,0c0,0,0,0.1,0,0.1c0.6-7.7,0.9-15.5-0.8-23.1   c-1.5-7.1-4.1-13.8-7.3-20.3c-4.1-8.3-9.3-15.8-15.3-22.8c-18-21.1-35.1-42.8-51.8-64.9c-7.5-9.9-15.9-18.8-25.3-26.7   c-5.2-4.5-10.1-9.4-15.6-13.6c-3.1-2.4-4.2-5.3-3.8-9c0.9-10.2-2.7-19.3-7.1-28c-2.9-5.7-5.3-11.6-8.8-17.1   c-3.5-5.4-6.8-11-10.1-16.6c-5.4-9.2-11.9-17.6-18.1-26.3c-3.4-4.8-7.3-9.2-11.4-13.5c-5.2-5.5-12.2-8.2-19-11.1   c-1-0.4-2-1-3.3-1.3c-2.8-0.5-5.5-1.2-8.2-1.8c-0.6-0.1-1-0.4-1.6-0.5c-0.7-0.2-1.3-0.3-2-0.5c-1.3-0.3-2.7-0.6-4-0.9   c-5.4-1-10.9-1.7-16.4-1.8c-2.9-0.1-5.7-0.1-8.6,0.1c-2.6,0.2-5.2,0.3-7.7,0.6c-5.2,0.8-10.3,2.4-15,4.7c-4.3,2.1-8.5,4.7-12.4,7.5   c-3.9,2.8-7.6,5.9-11.1,9.3c-3.5,3.4-6.8,6.9-9.9,10.7c0,0,0,0,0,0.1c-9.3,11.2-16.9,23.6-23.6,36.6c-3.4,6.5-6.7,13-10.1,19.5   c-2.8,5.3-4.7,10.9-5.8,16.8c0,0,0-0.1,0-0.1c-0.7,4.7-0.9,9.4-0.5,14.1c0.3,3.3-0.6,5.8-3.1,8.1c-7.6,7-15.1,14.3-22.6,21.5   c-9.8,9.4-19.1,19.3-27.4,30c-5.2,6.6-10,13.5-15.1,20.2c-8.3,10.7-16.4,21.6-23.8,33c-6.5,10-12,20.5-16.7,31.4   c-2.5,5.9-4.5,11.9-5.8,18.2c-3.5,16.8-0.7,32.8,6.6,48c3.5,7.4,5.8,14.6,5.1,22.8c-1.8,23-2.7,46-3.7,69.1   c-1,22.2-2,44.4-2.2,66.6c-0.2,22.1,0.4,44.2,0.9,66.2c0.7,29.2,0.9,58.3,1.7,87.5c1.1,39.8,2.3,79.7,3.5,119.5   c0.8,28.7,1.6,57.5,2.5,86.2c0.8,24,0.9,48.1,3.4,72l0,0l0-0.1l0.3,0l-0.3,0.1c1.4,10.5,2.3,21,4.7,31.3   c2.6,11.3,5.8,22.4,11.1,32.7c3,5.8,6.7,11,11.9,15.1c11.1,8.7,24.1,12.9,37.5,16.2c10.2,2.5,20.7,3.6,31.3,4.2   c17.3,1.1,34.6,2.3,51.9,3.1c38.6,1.7,77.2,1.9,115.7,0.2c29.1-1.3,58.2-2.8,87.2-5.7c12.2-1.2,24.3-2.9,35.7-7.5   c8.8-3.5,16.8-8.4,24-14.7c1.9-1.7,2.9-4,4.6-5.8c5.8-5.8,8.6-13.1,10.6-20.8c1.6-6.2,2.1-12.7,2.6-19.2l-0.3-0.1l0.3,0   c0,0,0,0.1,0,0.1c1.6-13.4,2-26.9,2.2-40.3c0.5-37.5,1-75,1.4-112.5C737.8,742.1,739.5,687.8,738.2,633.5z M429.1,102.6   c0.4-1.7,0.9-3.5,1.7-5.1c8.1-16.7,16.2-33.5,27.6-48.3c5.1-6.7,11.4-12.1,18.7-16.3c4.9-2.8,9.6-6,15.2-7.4   c6.7-1.7,13.5-1.1,20.3-0.7c7.3,0.5,14.4,2.3,21.1,5.6c6.5,3.2,11.5,7.8,14.3,14.8c5.7,13.9,12.7,27.1,18.6,40.8   c3.9,9,8.3,17.9,11,27.3c0.6,2.2,1.5,3,3.7,2.8c1-0.1,1.9,0,3.3,0c-1,1.2-2,1.1-2.9,1.1c-11.8,0.5-23.5-0.6-35.3-1.3   c-9.1-0.5-18.3-0.9-27.4-1c-14.6-0.1-29.1,0.7-43.7,1.2c-10.4,0.3-20.8,1-31.1,1.5c-1,0.1-1.9,0.1-2.9,0.1   C433.5,118.3,426.7,113.4,429.1,102.6z M310.5,297.2L310.5,297.2c-0.5-1.7-0.7-3.4-0.6-5.2c-0.3-0.6-0.3-1.2,0-1.8   c0.6-7.4,3.9-13.8,7.2-20.2c5.8-11.2,12.6-21.7,19.5-32.3c6.1-9.4,12.9-18.4,18.8-28c3.4-5.5,7.8-10.3,11.8-15.4   c3.1-4,6-8.3,9.5-11.9c7.4-7.8,14.5-16,22.2-23.5c5.2-5,10.1-10.3,15.9-14.7c2.5-1.9,5.1-2.8,8.1-2.5c4.1,0.4,8.3,0.8,12.4,1.1   c12.2,0.7,24.4-0.4,36.6-1.2c16.3-1.1,32.6-3,49-2.8c5.7,0.1,11.3,1,16.9,1.2c5.7,0.3,11.4,0.8,17,1c11.1,0.5,22.1,1.7,33.2,1.1   c3-1.5,6.4-1.5,9.5-2.6c2-0.7,3.1,0.9,4.2,2c4.4,4.4,8.7,8.9,13.1,13.4c3.1,3.2,6,6.5,9.2,9.6c8.3,7.8,15,17,22,26   c10.9,14.2,21.5,28.6,32.9,42.5c5.7,7,11.6,13.8,16.7,21.3c1.2,1.8,2.9,3.4,4.3,5c6.2,7.1,8.8,15.5,10.3,24.6c1.2,7.1,1,14.1-1,21   c-0.4,1.3-1.1,2.6-1.7,3.8c-0.5,1.1-1.4,1.5-2.7,1.5c-11.9,0.4-23.8,0.8-35.8,0c-13.8-0.8-27.7-1.7-41.5-2.7   c-17.6-1.2-35.1-2.7-52.7-3.3c-23.4-0.7-46.9-1.1-70.3-0.9c-0.7,0-1.3-0.2-2-0.3c-7.2,0.6-14.4,0.2-21.6,0.5   c-2.9,0.1-5.8,0.1-8.7,0.2c-5.9,0.8-11.9,0.6-17.9,0.5c-8.2,0.2-16.4,0.4-24.5,0.7c-15.2,0.6-30.4,2.2-45.5,4l-0.1,0.2l-0.2-0.2   c-0.8,0.1-1.5,0.2-2.3,0.3l-0.1,0c-4.9,0.6-9.7,1.2-14.6,1.9c-1.2,0.5-2.4,0.7-3.6,0.5c-1,0.1-2,0.2-3,0.4   c-1.4,0.6-2.9,0.8-4.5,0.6c-6.5,1-13,1.8-19.4,3.4c-1.2,0.3-2.5,0.1-3.7,0.2c-0.8,0.7-1.8,0.6-2.8,0.5c-0.5,0.1-1,0.2-1.5,0.3   c-1.9,0.6-3.7,1.5-5.7,0.2c-2.6-0.9-4.6-2.5-6.2-4.6C313.3,307.9,310.7,303.1,310.5,297.2z M714.9,737.9   c-0.7,25.3-0.2,50.6-0.4,75.8c-0.2,28.8-1.1,57.5-2,86.2c-0.5,16.7-1.4,33.3-2.5,49.9c-0.8,11.9-4.7,22.5-14.3,30.4   c-5.9,4.8-12.9,7.4-20.1,9.4c-8.9,2.4-18,3.3-27.1,4.1c-15.1,1.3-30.1,2.6-45.2,3.8c-9.7,0.8-19.4,1.6-29.1,1.9   c-14.7,0.5-29.4,1-44.1,1.3c-11.1,0.2-22.2,0.4-33.3,0.2c-23.3-0.4-46.6-0.7-69.9-2.3c-16-1.1-32.1-2.2-47.9-5.5   c-8.4-1.7-16.6-4.2-24.4-7.7c-4.3-2-7.5-5-10-9.1c-5-8.5-7.7-17.8-9.9-27.3c-2.8-12-3.9-24.3-5.1-36.5c-2.7-26.1-3.7-52.3-5.1-78.5   c-1.1-21.2-1.2-42.5-1.7-63.7c-0.9-33-2.1-66.1-3.1-99.1c-1.7-57.6-2.3-115.3-1.8-172.9c0.3-28.5,1-56.9,1.9-85.4   c0.6-20.1,1.9-40.2,2.7-60.3c0.2-4.4,2.4-6.9,6-8.6c4.6-2.2,9.6-3.5,14.6-4.3c28.7-4.6,57.6-6.2,86.6-6.8c27.3-0.6,54.7-1.7,82-2.3   c18.5-0.4,36.9-0.4,55.4,0.1c29.8,0.8,59.7,2,89.4,4.4c10.9,0.9,21.9,1.5,32.8,2.9c12.6,1.7,10.7,1.4,12.7,12   c2.3,12.4,4.5,24.8,5.9,37.4c2.1,18.4,3.7,36.7,4.5,55.2c1.4,34.3,1,68.6,1.3,102.9c0.3,28.3,0.6,56.7,1,85   c0.2,14.3,0.7,28.6,1,39.6C715.6,694.8,715.5,716.3,714.9,737.9z"
   id="path4" />
	<polygon
   class="st0"
   points="732,408.2 731.6,408.2 732,408.3  "
   id="polygon4" />
	<polygon
   class="st0"
   points="727,349.8 726.6,349.9 727,349.9  "
   id="polygon5" />
	<polygon
   class="st0"
   points="736.1,299.8 735.8,299.9 736.1,299.9  "
   id="polygon6" />
	<polygon
   class="st0"
   points="304.7,920.1 305,920 304.7,920  "
   id="polygon7" />
	<polygon
   class="st0"
   points="733.6,949.1 733.3,949.2 733.6,949.2  "
   id="polygon8" />
	<path
   class="st3"
   d="M454.4,304.1c-8.2,0.2-16.3,0.4-24.5,0.7c-15.2,0.6-30.4,2.2-45.5,4c0,0-0.2-0.1-0.2-0.1l-0.1,0.2   c-0.8,0.1-1.5,0.2-2.3,0.3c0,0-0.1-0.2-0.1-0.2l-0.1,0.2c-4.9,0.6-9.7,1.2-14.6,1.9c-1.2,0-2.5-0.3-3.6,0.5c-1,0.1-2,0.2-3,0.4   c-1.5,0.1-3.1-0.3-4.5,0.6c-6.5,1-13,1.8-19.4,3.4c-1.2,0.3-2.5,0.1-3.7,0.2c-1,0-2-0.3-2.8,0.5c-0.5,0.1-1,0.2-1.5,0.3   c-1.9,0.1-3.8,0.1-5.7,0.2c-2.6-0.9-4.6-2.5-6.2-4.6c-3.3-4.5-6-9.3-6.2-15.2c0,0,0,0.1,0,0.1c-0.5-1.7-0.7-3.5-0.6-5.3   c0.6-0.6,0.6-1.2,0-1.8c0.6-7.4,3.9-13.8,7.2-20.2c5.8-11.2,12.6-21.7,19.5-32.3c6.1-9.4,12.9-18.4,18.8-28   c3.4-5.5,7.8-10.3,11.8-15.4c3.1-4,6-8.3,9.5-11.9c7.4-7.8,14.5-16,22.2-23.5c5.2-5,10.1-10.3,15.9-14.7c2.5-1.9,5.1-2.8,8.1-2.5   c4.1,0.4,8.3,0.8,12.4,1.1c12.2,0.7,24.4-0.4,36.6-1.2c16.3-1.1,32.6-3,49-2.8c5.7,0.1,11.3,1,16.9,1.2c5.7,0.3,11.4,0.8,17,1   c11.1,0.5,22.1,1.7,33.2,1.1c-0.6,0.7-2,0.2-2.4,1.6c1.7,1.5,3.3,3.3,5.2,4.5c5.8,3.9,10.6,8.9,15.6,13.6c7.8,7.1,14,15.7,20.4,24   c5.5,7.2,10.8,14.7,15.4,22.6c5,8.5,9.7,17.1,13.6,26.1c2.6,6,5.2,11.9,6.6,18.3c1.5,6.7,2.2,13.5,0.3,20.1   c-2,6.9-6.1,12.1-13.8,13.4c-4.2,0.7-8.4,1.2-12.7,1.4c-4.5,0.2-9.1,0.6-13.6,1c-4.5,0.4-9,1.1-13.6,1.4c-4.1,0.2-8.3,0.7-12.4,1.1   c-7.1,0.6-14.2,2-21.3,3.1c-10.8,1.6-21.5,3.7-32,6.5c-5.2,1.3-10.2,2-15.5,1.9c-7.3-0.2-14.7,0-22,0c-1.1,0-2.2-0.2-3.3,0.3   c-7.2,0.6-14.4,0.2-21.6,0.5c-2.9,0.1-5.8,0.1-8.7,0.2C466.3,303.6,460.3,303.3,454.4,304.1z"
   id="path8" />
	<path
   class="st4"
   d="M586.9,114.6c-0.1,0.3-0.2,0.5-0.4,0.8c-0.9,1.1-2.5,1.6-3.8,1.7c-1.9,0.1-3.8,0.2-5.7,0.3   c-3.8,0.1-7.7,0.1-11.5-0.2c-6.4-0.4-12.7-0.8-19.1-1.2c-9.1-0.5-18.3-0.9-27.4-1c-14.6-0.1-29.1,0.7-43.7,1.2   c-10.4,0.3-20.8,1-31.1,1.5c-1,0.1-1.9,0.1-2.9,0.1c-7.8,0.4-14.6-4.4-12.2-15.2c0.4-1.7,0.9-3.5,1.7-5.1   c8.1-16.7,16.2-33.5,27.6-48.3c5.1-6.7,11.4-12.1,18.7-16.3c4.9-2.8,9.6-6,15.2-7.4c6.7-1.7,13.5-1.1,20.3-0.7   c7.3,0.5,14.4,2.3,21.1,5.6c3.6,1.8,6.8,4,9.3,6.8c6.4,5.7,15.5,15.2,23.3,28.5c3.7,6.3,7.2,12.7,10.5,19.2c1.7,3.4,3.4,6.7,5,10.1   c1.5,3.2,3.2,6.3,4.2,9.7c0.7,2.2,1,4.5,1.2,6.9C587.3,112.7,587.3,113.7,586.9,114.6z"
   id="path9" />
	<path
   class="st5"
   d="M502.6,303.1c1.1-0.5,2.2-0.3,3.3-0.3c7.3,0,14.7-0.2,22,0c5.3,0.1,10.4-0.5,15.5-1.9   c10.5-2.8,21.2-4.9,32-6.5c7.1-1.1,14.1-2.4,21.3-3.1c4.1-0.4,8.2-0.8,12.4-1.1c4.5-0.3,9-1,13.6-1.4c4.5-0.4,9.1-0.8,13.6-1   c4.3-0.2,8.5-0.8,12.7-1.4c7.6-1.2,11.8-6.5,13.8-13.4c2-6.6,1.2-13.4-0.3-20.1c-1.4-6.4-4-12.3-6.6-18.3   c-3.9-9-8.7-17.6-13.6-26.1c-4.6-7.9-9.8-15.4-15.4-22.6c-6.4-8.3-12.6-16.9-20.4-24c-5.1-4.7-9.9-9.7-15.6-13.6   c-1.9-1.3-3.5-3.1-5.2-4.5c0.5-1.4,1.8-0.9,2.4-1.6c3-1.5,6.4-1.5,9.5-2.6c2-0.7,3.1,0.9,4.2,2c4.4,4.4,8.7,8.9,13.1,13.4   c3.1,3.2,6,6.5,9.2,9.6c8.3,7.8,15,17,22,26c10.9,14.2,21.5,28.6,32.9,42.5c5.7,7,11.6,13.8,16.7,21.3c1.2,1.8,2.9,3.4,4.3,5   c6.2,7.1,8.8,15.5,10.3,24.6c1.2,7.1,1,14.1-1,21c-0.4,1.3-1.1,2.6-1.7,3.8c-0.5,1.1-1.4,1.5-2.7,1.5c-11.9,0.4-23.9,0.8-35.8,0   c-13.8-0.8-27.7-1.7-41.5-2.7c-17.6-1.2-35.1-2.7-52.7-3.3c-23.4-0.7-46.9-1.1-70.3-0.9C503.9,303.3,503.2,303.2,502.6,303.1z"
   id="path10" />
	<path
   class="st0"
   d="M454.4,304.1c5.9-0.8,11.9-0.5,17.9-0.5C466.3,304.5,460.3,304.3,454.4,304.1z"
   id="path11" />
	<path
   class="st0"
   d="M322.9,317c1.9-0.1,3.8-0.1,5.7-0.2C326.7,317.4,324.8,318.3,322.9,317z"
   id="path12" />
	<path
   class="st0"
   d="M355.9,312.4c1.4-0.9,3-0.5,4.5-0.6C359,312.5,357.5,312.6,355.9,312.4z"
   id="path13" />
	<path
   class="st0"
   d="M363.4,311.5c1.1-0.7,2.4-0.5,3.6-0.5C365.9,311.5,364.7,311.7,363.4,311.5z"
   id="path14" />
	<path
   class="st0"
   d="M330.1,316.5c0.8-0.8,1.8-0.5,2.8-0.5C332,316.6,331,316.6,330.1,316.5z"
   id="path15" />
	<path
   class="st0"
   d="M309.9,290.2c0.6,0.6,0.6,1.2,0,1.8C309.6,291.4,309.6,290.8,309.9,290.2z"
   id="path16" />
	<polygon
   class="st0"
   points="384.1,308.9 384.2,308.7 384.3,308.8 384.2,309.1  "
   id="polygon16" />
	<polygon
   class="st0"
   points="381.6,309.2 381.7,309 381.8,309.2  "
   id="polygon17" />
	<path
   class="st0"
   d="M310.5,297.3C310.5,297.3,310.5,297.2,310.5,297.3C310.5,297.2,310.5,297.3,310.5,297.3z"
   id="path17" />
	<path
   class="st2"
   d="M510.8,701.5c-9.8-0.2-19.5-1.6-29-4.3c-6-1.7-11.2-5.3-17.1-7c-7.3-5.8-13.9-12.2-18.4-20.6   c-5.2-9.6-7.9-19.9-9.1-30.7c-0.7-6.1-1.2-12.1,0-18.2c1.2-6.4,4.3-11.6,9.3-15.8c5.8-4.8,12.2-6,19-2.8c6.1,2.8,12.3,5,18.6,7.1   c5.8,1.9,11.8,2.9,17.7,3.5c20.1,2.2,39.5-0.7,57.6-10.1c2.7-1.4,5.4-2.7,8.5-3.2c9.7-1.6,17.7,6.3,20.5,13.6   c0.8,2.2,1.3,4.5,1.2,6.9c-1.1,24.1-8.7,45.5-26.8,62.1C548.1,695.3,530.7,701.9,510.8,701.5z M498.9,654.6c1,0.6,2,0.6,3.1,0.6   c5.6,0.7,11.2,0.7,16.8,0.1c1.4,0.1,2.8,0.2,4.1-0.6c8.1-1,15.5-4.1,22.5-8.2c4.4-2.6,8-5.9,10.3-10.5c2.4-4.8,3.9-10,5.2-15.3   c-1.3-0.5-2.3-0.1-3.6,0.4c-8.9,3.4-18,6.3-27.6,7.3c-4.1,0.4-8.3,0.9-12.4,1c-4,0.1-8,0.6-12-0.4c-3.6-0.9-7.3-0.3-11-1.1   c-7.9-1.7-15.8-3.5-23.4-6.5c-1.7-0.7-3-1.7-4.7-2.3c-2.3-0.8-2.8-0.6-2.7,1.8c0.3,4,0.5,8.1,1,12.1c0.7,5.5,4.2,9.5,8.5,12.6   C480.6,651.4,489.6,653.5,498.9,654.6z M508.1,692.7c13.7,0.2,21.7-2.6,32.4-7.2c4.4-1.9,7.9-5.1,11.1-8.6c1.9-2.1,1.6-4.1-0.9-5.4   c-2.3-1.1-4.7-2-7.5-2.1c-7.3-0.3-14.2,1.8-21.4,2.3c-7.8,0.5-15.5,0.7-23.2,0.1c-4.6-0.3-9.1,0-13.6,0.6   c-3.9,0.4-7.8,2.1-11.4,3.9c-2.3,1.2-2.9,2.6-1.2,4.2c3.4,3.2,6.6,6.7,11.1,8.4c1.7,0.7,3.5,0.4,5.3,0.9   C495.3,692,501.9,693,508.1,692.7z"
   id="path18" />
	<path
   class="st6"
   d="M432.3,884.7c0-7.5-0.3-15,0.1-22.5c0.7-14.3,0.3-28.6,0.9-42.9c0.5-11.6,0.9-23.3,3.8-34.6   c0.7-2.6,1.4-5.1,3.2-7.1c2.2-2.4,4-2.8,7.1-1.7c3.5,1.3,5.5,4,7.2,7.1c5.9,10.7,9.3,22.1,11.1,34.1c0.9,6,2.4,11.9,3.4,17.9   c0.6,3.3,1.2,6.6,1.3,9.9c0.3,10,1.8,19.9,2.1,29.8c0.2,6.8,0.2,13.6,0.7,20.4c0.5,6.1-0.1,12.1-0.2,18.2   c-0.1,7.9-2.7,14.9-8.7,20.5c-4.2,4-8.7,4.8-14.2,3.4c-8.6-2.2-13.6-8.3-16.6-16c-1.2-3.1-1.1-6.8-1.2-10.3   C432.2,902.2,432.3,893.5,432.3,884.7C432.3,884.7,432.3,884.7,432.3,884.7z"
   id="path19" />
	<path
   class="st2"
   d="M659.8,541.1c-0.6,11.4-3.8,21.8-13.3,29.5c-3.8,3.1-8.3,5.1-13,6.1c-21.7,4.7-44.6-6.5-45.5-33.7   c-0.4-11.4,3.2-21.6,10.2-30.4c12.3-15.6,30.6-16.8,45.9-4.8C654.6,516,659.6,527.4,659.8,541.1z M609.6,523.5c-5,0-8.7,4.2-9.2,10   c-0.5,5.2,4.2,10.6,10.9,8c4.3-1.7,6.1-5.1,5.9-8.8C617,526.7,614.9,523.6,609.6,523.5z"
   id="path20" />
	<path
   class="st2"
   d="M402.4,582c-5.9,0.3-12.6-1-19.3-1.9c-3.9-0.5-7.5-3.4-10.1-6.8c-3.5-4.5-5.7-9.6-6-15.3   c-0.6-13.6,2.8-26.1,10.2-37.5c13-20,44.2-20.9,57.5,2.3c4.6,8.1,6.8,16.8,5.8,26c-1.2,12-5.6,22.4-16.8,28.8   C418.2,580.8,411.9,582.1,402.4,582z M380.6,539.3c-0.4,6.9,5.1,11,9.8,11.2c6.8,0.2,12.6-5.2,12.3-12.2   c-0.2-5.5-3.7-10.6-9.7-10.7C386.2,527.4,380.8,532.5,380.6,539.3z"
   id="path21" />
	<path
   class="st7"
   d="M380.7,381.1c-1.7,6.8-0.4,13.8-1.6,20.7c-0.6,3.6-0.4,7.4-0.9,11.2c-1.8,11.1-11.6,16.4-22.5,11.1   c-3.9-1.9-6.7-5.7-6.8-10.3c-0.2-5-1.5-9.8-2.1-14.8c-0.7-6.7-0.1-13.3,1.4-19.7c1.3-5.3,2.9-10.7,6.1-15.3   c5.7-8.1,17.2-8.3,22.6,0c1.7,2.7,3.3,5.5,2.9,8.9C379.6,375.6,381.1,378.2,380.7,381.1z"
   id="path22" />
	<path
   class="st8"
   d="M518.8,655.2c-5.6,0.7-11.2,0.6-16.8-0.1c-1-0.6-2.1-0.5-3.1-0.6c-9.3-1.1-18.3-3.2-26-8.9   c-4.2-3.1-7.7-7.1-8.5-12.6c-0.5-4-0.8-8.1-1-12.1c-0.1-2.3,0.4-2.5,2.7-1.8c1.7,0.6,3.1,1.6,4.7,2.3c7.6,3,15.4,4.8,23.4,6.5   c3.7,0.8,7.4,0.2,11,1.1c4,1,8,0.5,12,0.4c4.1-0.1,8.3-0.6,12.4-1c9.6-1,18.7-3.9,27.6-7.3c1.2-0.5,2.3-0.8,3.6-0.4   c-1.3,5.3-2.7,10.4-5.2,15.3c-2.3,4.6-5.8,7.9-10.3,10.5c-7,4.1-14.4,7.1-22.5,8.2C521.6,654.8,520.2,655,518.8,655.2z"
   id="path23" />
	<path
   class="st9"
   d="M508.1,692.7c-6.2,0.3-12.8-0.7-19.3-2.9c-1.8-0.6-3.6-0.3-5.3-0.9c-4.5-1.8-7.7-5.3-11.1-8.4   c-1.7-1.6-1.1-3,1.2-4.2c3.6-1.8,7.4-3.5,11.4-3.9c4.5-0.5,9-0.9,13.6-0.6c7.7,0.5,15.5,0.4,23.2-0.1c7.2-0.5,14.1-2.5,21.4-2.3   c2.8,0.1,5.1,1,7.5,2.1c2.5,1.2,2.9,3.2,0.9,5.4c-3.2,3.5-6.7,6.7-11.1,8.6C529.8,690.1,521.8,692.9,508.1,692.7z"
   id="path24" />
	<path
   class="st0"
   d="M518.8,655.2c1.4-0.2,2.7-0.4,4.1-0.6C521.6,655.4,520.2,655.3,518.8,655.2z"
   id="path25" />
	<path
   class="st0"
   d="M498.9,654.6c1.1,0.1,2.2-0.1,3.1,0.6C500.9,655.2,499.9,655.1,498.9,654.6z"
   id="path26" />
	<path
   class="st8"
   d="M609.6,523.5c5.2,0,7.4,3.1,7.6,9.1c0.1,3.7-1.7,7.2-5.9,8.8c-6.7,2.6-11.4-2.8-10.9-8   C601,527.7,604.6,523.5,609.6,523.5z"
   id="path27" />
	<path
   class="st8"
   d="M380.6,539.3c0.2-6.9,5.6-11.9,12.4-11.8c6,0.1,9.5,5.3,9.7,10.7c0.3,7-5.5,12.4-12.3,12.2   C385.7,550.4,380.2,546.2,380.6,539.3z"
   id="path28" />
	<path
   class="st10"
   d="M586.9,114.6c-0.1,0.3-0.2,0.5-0.4,0.8c-0.6,0.8-1.6,1.3-2.7,1.6c0.3-0.2,0.5-0.4,0.8-0.7   c-1.4,0-2.3-0.1-3.3,0c-2.1,0.2-3-0.6-3.7-2.8c-2.7-9.5-7.1-18.3-11-27.3c-5.9-13.7-13-27-18.6-40.8c-1.3-3.1-2.9-5.7-5-8   c6.4,5.7,15.5,15.2,23.3,28.5c3.7,6.3,7.2,12.7,10.6,19.2c1.7,3.3,3.4,6.7,5,10.1c1.5,3.2,3.2,6.3,4.1,9.7c0.7,2.2,1.1,4.5,1.2,6.9   C587.3,112.7,587.3,113.7,586.9,114.6z"
   id="path29" />
	<path
   class="st11"
   d="M368.4,221.5c7.4-13.8,23.9-40.4,35.5-48.7s16.6-8.3,20.9-7s8.2,5.5,8.8,11.3c0.6,5.8-2.5,10.9-4.4,14.5   c-1.9,3.6-12.1,21.8-13.9,25.1c-1.8,3.3-9.2,19.1-13.7,23.2c-4.5,4.1-10,7.5-15.8,7.1c-5.7-0.4-11.2-1.6-15.4-7.5   C366.2,233.7,367.1,223.9,368.4,221.5z"
   id="path30" />
	<path
   class="st12"
   d="M367.5,356.7c3.3,0,12.6,2.5,13.7,11.1c1.1,8.6,0.6,24.6,0,30.9c-0.6,6.2-0.2,20.3-7.5,24.9   c-7.3,4.6-13.1,3.1-16,1.9c-3-1.2-9.9-5.7-10.7-16.1c-0.8-10.5-1.2-27.6,1.9-37.3s6.9-11.6,9.7-13.1   C361.5,357.5,364.2,356.7,367.5,356.7z"
   id="path31" />
	<path
   class="st13"
   d="M445,774.3c5,0.4,13.3,9.6,15.4,16.1c2,6.5,10.9,35.6,13,74.9c2.1,39.3,3.4,45,1.7,51.9   c-1.7,6.9-7.2,21.5-16.1,21.7c-8.9,0.2-18-2.6-22.8-13.2c0,0-7.4-8.5-3.9-60.7s1-73.7,6-84C439.4,777.3,443.8,774.2,445,774.3z"
   id="path32" />
	<ellipse
   class="st4"
   cx="372.9"
   cy="618.8"
   rx="42.4"
   ry="34.8"
   id="ellipse32" />
	<ellipse
   class="st4"
   cx="654.5"
   cy="611.1"
   rx="42.4"
   ry="34.5"
   id="ellipse33" />

	<!-- Sparkle Stars - 300% bigger, 15 total sparkles -->
	<!-- Large sparkle - top left of pencil tip -->
	<g
   class="sparkle-star"
   transform="translate(280, 120)"
   id="g33">
		<path
   class="sparkle"
   d="M0,-60 L9,-9 L60,0 L9,9 L0,60 L-9,9 L-60,0 L-9,-9 Z"
   id="path33" />
	</g>

	<!-- Medium sparkle - top right -->
	<g
   class="sparkle-star"
   transform="translate(780, 180)"
   id="g34">
		<path
   class="sparkle-white"
   d="M0,-45 L7.5,-7.5 L45,0 L7.5,7.5 L0,45 L-7.5,7.5 L-45,0 L-7.5,-7.5 Z"
   id="path34" />
	</g>

	<!-- Small sparkle - near left cheek -->
	<g
   class="sparkle-star"
   transform="translate(270, 580)"
   id="g35">
		<path
   class="sparkle-pink"
   d="M0,-36 L6,-6 L36,0 L6,6 L0,36 L-6,6 L-36,0 L-6,-6 Z"
   id="path35" />
	</g>

	<!-- Small sparkle - near right cheek -->
	<g
   class="sparkle-star"
   transform="translate(760, 560)"
   id="g36">
		<path
   class="sparkle-pink"
   d="M0,-30 L4.5,-4.5 L30,0 L4.5,4.5 L0,30 L-4.5,4.5 L-30,0 L-4.5,-4.5 Z"
   id="path36" />
	</g>

	<!-- Tiny sparkle - upper left -->
	<g
   class="sparkle-star"
   transform="translate(220, 320)"
   id="g37">
		<path
   class="sparkle-white"
   d="M0,-24 L3.6,-3.6 L24,0 L3.6,3.6 L0,24 L-3.6,3.6 L-24,0 L-3.6,-3.6 Z"
   id="path37" />
	</g>

	<!-- Medium sparkle - upper right side -->
	<g
   class="sparkle-star"
   transform="translate(850, 380)"
   id="g38">
		<path
   class="sparkle"
   d="M0,-42 L6,-6 L42,0 L6,6 L0,42 L-6,6 L-42,0 L-6,-6 Z"
   id="path38" />
	</g>

	<!-- Tiny sparkle - mid left -->
	<g
   class="sparkle-star"
   transform="translate(230, 450)"
   id="g39">
		<path
   class="sparkle"
   d="M0,-21 L3,-3 L21,0 L3,3 L0,21 L-3,3 L-21,0 L-3,-3 Z"
   id="path39" />
	</g>

	<!-- Small sparkle - bottom right -->
	<g
   class="sparkle-star"
   transform="translate(820, 720)"
   id="g40">
		<path
   class="sparkle-white"
   d="M0,-27 L3.9,-3.9 L27,0 L3.9,3.9 L0,27 L-3.9,3.9 L-27,0 L-3.9,-3.9 Z"
   id="path40" />
	</g>

	<!-- Tiny sparkle - near pencil tip -->
	<g
   class="sparkle-star"
   transform="translate(420, 60)"
   id="g41">
		<path
   class="sparkle-white"
   d="M0,-18 L3,-3 L18,0 L3,3 L0,18 L-3,3 L-18,0 L-3,-3 Z"
   id="path41" />
	</g>

	<!-- Small sparkle - lower left -->
	<g
   class="sparkle-star"
   transform="translate(220, 750)"
   id="g42">
		<path
   class="sparkle-pink"
   d="M0,-33 L5.4,-5.4 L33,0 L5.4,5.4 L0,33 L-5.4,5.4 L-33,0 L-5.4,-5.4 Z"
   id="path42" />
	</g>

	<!-- NEW: Extra large sparkle - top center -->
	<g
   class="sparkle-star"
   transform="translate(699.14911,66.465209)"
   id="g43">
		<path
   class="sparkle"
   d="M 0,-50 7.5,-7.5 50,0 7.5,7.5 0,50 -7.5,7.5 -50,0 -7.5,-7.5 Z"
   id="path43" />
	</g>

	<!-- NEW: Medium sparkle - right side middle -->
	<g
   class="sparkle-star"
   transform="translate(830, 520)"
   id="g44">
		<path
   class="sparkle-white"
   d="M0,-35 L5.2,-5.2 L35,0 L5.2,5.2 L0,35 L-5.2,5.2 L-35,0 L-5.2,-5.2 Z"
   id="path44" />
	</g>

	<!-- NEW: Small sparkle - left side lower -->
	<g
   class="sparkle-star"
   transform="translate(200, 650)"
   id="g45">
		<path
   class="sparkle"
   d="M0,-28 L4.2,-4.2 L28,0 L4.2,4.2 L0,28 L-4.2,4.2 L-28,0 L-4.2,-4.2 Z"
   id="path45" />
	</g>

	<!-- NEW: Tiny sparkle - bottom center right -->
	<g
   class="sparkle-star"
   transform="translate(700, 850)"
   id="g46">
		<path
   class="sparkle-pink"
   d="M0,-22 L3.3,-3.3 L22,0 L3.3,3.3 L0,22 L-3.3,3.3 L-22,0 L-3.3,-3.3 Z"
   id="path46" />
	</g>

	<!-- NEW: Medium sparkle - top left corner -->
	<g
   class="sparkle-star"
   transform="translate(150, 200)"
   id="g47">
		<path
   class="sparkle-white"
   d="M0,-38 L5.7,-5.7 L38,0 L5.7,5.7 L0,38 L-5.7,5.7 L-38,0 L-5.7,-5.7 Z"
   id="path47" />
	</g>
</g>
</svg>
