<?xml version="1.0" encoding="utf-8"?>
<!-- Generator: Adobe Illustrator 24.0.1, SVG Export Plug-In . SVG Version: 6.00 Build 0)  -->
<svg version="1.1" id="Layer_1" xmlns="http://www.w3.org/2000/svg" xmlns:xlink="http://www.w3.org/1999/xlink" x="0px" y="0px"
	 viewBox="0 0 200 200" enable-background="new 0 0 200 200" xml:space="preserve">
<g>
	<g id="pencil-body">
		<path fill="#FF0000" d="M189.1,67.47l-65.05,65.05c-1.56,1.56-4.09,1.56-5.66,0L67.47,81.62c-1.56-1.56-1.56-4.09,0-5.66
			l65.05-65.05c1.56-1.56,4.09-1.56,5.66,0l50.91,50.91C190.66,63.38,190.66,65.91,189.1,67.47z"/>
		<path fill="#FF0000" d="M121.21,138.69c-2.3,0-4.61-0.88-6.36-2.63L63.94,85.15c-1.7-1.7-2.64-3.96-2.64-6.36
			c0-2.4,0.94-4.66,2.64-6.36l65.05-65.05c1.7-1.7,3.96-2.64,6.36-2.64s4.67,0.94,6.37,2.64l50.91,50.91
			c3.51,3.51,3.51,9.22,0,12.73l0,0l-65.05,65.05C125.82,137.82,123.52,138.69,121.21,138.69z M71.72,78.79l49.5,49.5l63.64-63.64
			l-49.5-49.5L71.72,78.79z M185.56,63.94L185.56,63.94L185.56,63.94z"/>
	</g>
	<g opacity="0.6" enable-background="new    ">
		
			<rect x="95.25" y="83.69" transform="matrix(0.7071 -0.7071 0.7071 0.7071 -20.1667 128.6864)" fill="#FFFFFF" width="100" height="10"/>
	</g>
	<g opacity="0.5" enable-background="new    ">
		<rect x="78.28" y="66.72" transform="matrix(0.7071 -0.7072 0.7072 0.7071 -13.1344 111.7255)" width="100" height="10"/>
	</g>
	<g opacity="0.6" enable-background="new    ">
		
			<rect x="61.31" y="49.75" transform="matrix(0.7071 -0.7071 0.7071 0.7071 -6.1076 94.7452)" fill="#FFFFFF" width="100" height="10"/>
	</g>
	<g id="pencil-tip">
		<polygon fill="#F5DEB3" points="121.21,135.36 64.64,78.79 36.36,163.64 		"/>
		<path fill="#D2B48C" d="M28.45,171.54l34-102.01l68.01,68.01L28.45,171.54z M66.83,88.04l-22.56,67.69l67.69-22.56L66.83,88.04z"
			/>
	</g>
	<g id="_x3C_Path_x3E_">
		<polygon fill="#F5DEB3" points="84.96,147.49 52.46,115.2 36.22,163.64 		"/>
		<path fill="#D2B48C" d="M28.3,171.53l21.99-65.55l43.97,43.7L28.3,171.53z M54.65,124.42l-10.51,31.33l31.53-10.44L54.65,124.42z"
			/>
	</g>
</g>
</svg>
