<?xml version='1.0' encoding='utf-8'?>
<svg xmlns="http://www.w3.org/2000/svg" xmlns:ns1="http://sodipodi.sourceforge.net/DTD/sodipodi-0.dtd" xmlns:ns2="http://www.inkscape.org/namespaces/inkscape" viewBox="0 0 158.75 119.0625" version="1.1" id="svg1" ns1:docname="cupcake.svg" ns2:version="1.4.2 (f4327f4, 2025-05-13)">
  <ns1:namedview id="namedview1" pagecolor="#ffffff" bordercolor="#000000" borderopacity="0.25" ns2:showpageshadow="2" ns2:pageopacity="0.0" ns2:pagecheckerboard="0" ns2:deskcolor="#d1d1d1" ns2:zoom="2.9872942" ns2:cx="81.344516" ns2:cy="64.104834" ns2:window-width="1366" ns2:window-height="705" ns2:window-x="-8" ns2:window-y="-8" ns2:window-maximized="1" ns2:current-layer="svg1" />
  <defs id="defs1" />
  <g id="layer-MC1" style="display:inline" transform="matrix(0.20542448,0,0,0.20542448,2.7650679,4.914733)">
    <path style="display:inline;fill:none;stroke:#121212" d="m 106.56682,99.817669 c -0.88534,0.690811 -1.16966,1.109841 -2.64583,3.175001 -0.61435,-0.9959 -0.296,-1.83418 0.0276,-2.64583 0.30691,-0.769861 0.2638,-1.077391 0.88582,-2.116671 0.64984,-1.08576 1.64693,-2.03114 2.5262,-2.91042 2.09753,-2.09753 4.52096,-3.90396 7.40834,-4.82966 0.98527,-0.31588 3.54995,-1.03367 4.29907,-0.0417 0.832,1.10177 -1.7528,1.90625 -2.44699,2.17546 -2.69411,1.04476 -8.84892,3.44693 -9.45599,6.66358 -0.22364,1.184941 1.47952,2.338251 2.13218,3.177041 1.33722,1.71858 1.7236,2.9623 1.76756,5.02606 0.53954,0 1.14372,-0.003 1.85249,2e-4 0.80746,0.004 1.59956,0.0726 2.38084,0.19926 2.21624,0.35939 4.52151,0.89683 6.34899,2.32184 2.3251,1.81306 2.30213,4.27409 3.95241,6.34266 1.44978,1.81724 4.13162,2.36152 5.4803,4.62979 0.87498,1.47157 0.78035,3.63041 1.68795,4.84212 0.68287,0.91168 2.45937,1.16874 3.43244,1.75388 2.04909,1.2322 3.66636,3.50547 4.13309,5.83942 0.58941,2.94742 -0.99763,6.56274 -3.09864,8.72063 -0.82521,0.84755 -2.3871,1.80463 -2.81202,2.66707 -0.37445,0.75997 -0.29561,1.22387 -0.53652,2.10604 -0.34156,1.25074 -0.74354,2.48324 -1.11896,3.70417 -1.00307,3.26219 -1.62749,5.571 -2.1232,8.20208 2.31409,0.75298 6.71475,2.50366 9.525,4.50854 1.75562,1.25248 3.41637,2.82644 4.3989,4.75188 0.49392,0.96794 0.89834,2.14128 0.87807,3.175 -0.0268,1.36743 -0.69728,2.82384 -1.51687,3.96875 -4.79719,6.70135 -14.96203,9.22761 -22.54552,10.74216 -2.58605,0.51649 -5.07938,1.01028 -7.67292,1.1547 -0.61537,0.0343 -0.99347,0.0436 -1.5875,0.12167 -0.61067,0.0802 -0.9707,0.13232 -1.5875,0.14843 -0.73148,0.0191 -1.117,-0.007 -1.85208,0.0794 -1.23325,0.14551 -1.94646,0.18904 -3.43958,0.18904 h -2.91042 c -1.42857,0 -2.25727,0.003 -3.968752,0 -1.048218,-0.002 -1.689886,-0.0762 -2.645831,-0.18904 -0.713846,-0.0842 -1.114677,-0.0525 -1.852084,-0.0859 -6.347452,-0.28815 -14.305922,-1.94612 -20.6375,-4.30745 -4.00308,-1.49291 -8.168106,-3.49142 -11.063503,-6.79464 -1.17799,-1.34391 -2.03197,-3.00199 -2.140757,-4.7625 -0.06254,-1.01215 0.108127,-2.17407 0.492419,-3.175 1.268482,-3.30387 4.709483,-5.43649 7.684758,-6.99778 1.128104,-0.59198 5.055707,-1.81361 5.317186,-2.82712 0.283443,-1.09864 -0.406563,-2.23458 -0.742304,-3.40426 -0.758352,-2.64199 -1.71939,-5.56952 -2.281214,-8.20209 -0.233616,-1.09466 -0.07736,-1.77058 -0.637982,-2.57029 -0.925961,-1.32086 -2.515865,-2.3015 -3.255027,-4.04429 -0.548219,-1.29258 -0.631711,-2.66921 -0.661459,-3.96875 -0.0173,-0.75555 0.09156,-1.37454 0.164139,-2.11666 0.180355,-1.84409 1.020283,-3.58687 2.260392,-5.0032 1.270419,-1.45095 3.923011,-2.006 4.857024,-3.52288 0.75554,-1.22703 0.378697,-2.62482 0.675544,-3.90934 0.58958,-2.55124 2.598925,-4.84214 4.887034,-6.22321 0.857122,-0.51736 1.930684,-0.90487 2.910417,-1.10937 0.515852,-0.10768 1.309202,-0.29995 1.811864,-0.13578 0.896017,0.29265 0.67393,0.80812 0.616952,1.91211 -0.07491,1.45137 0.506946,3.19404 1.222269,4.49792 0.505751,0.92187 1.142954,1.63946 1.906186,2.36981 4.82689,4.6189 13.349809,4.50987 19.313559,2.1477 2.96391,-1.17397 5.78612,-2.99251 7.5145,-5.57585 2.12998,-3.1836 1.49289,-8.53742 -2.74791,-9.62278 -1.47167,-0.37665 -2.33203,2.09445 -3.20379,2.99758 -1.64951,1.70891 -3.92987,2.62359 -6.32529,2.78487 -3.586157,0.24144 -7.00142,-2.48086 -8.385012,-5.42008 -0.511609,-1.08683 -0.544581,-1.81986 -1.680797,-1.83432 -0.753753,-0.01 -2.167967,0.50123 -2.898781,0.82213 -2.006971,0.88128 -4.310061,3.06078 -5.291344,4.89461 m 8.730927,-5.99909 c 0.07509,-3.63807 1.150641,-7.18651 4.7625,-8.909061 2.82565,-1.34759 4.267547,-0.94599 6.879167,-0.61594 m -4.497917,2.645841 c 0.837357,1.33403 1.504687,2.35428 2.910417,2.91041 l 0.52917,-1.5875 m 1.05833,0.26459 c -0.32824,0.83506 -0.53151,0.92379 -1.32291,0.52916 v 0 m -0.26459,0.79375 1.05834,0.52917 v -0.52917 m 0.26458,0.79375 h 3.96875 m 3.43958,2.38125 c -0.2398,0.44736 -0.4885,0.6783 -0.52917,2.11667 m -21.34632,3.22155 c 1.560451,-0.73547 4.141095,4.0881 2.48986,4.62449 -1.403625,0.45595 -4.097598,-3.86674 -2.48986,-4.62449 m 29.66825,1.03056 c 1.27316,-0.82477 5.70832,2.31634 3.76358,3.38569 -1.19975,0.6597 -5.52081,-2.24732 -3.76358,-3.38569 m 6.23016,2.89164 c -0.0657,0.3528 -0.12554,0.61275 -0.23028,1.32945 -0.27091,1.85365 -1.71217,5.59453 -3.15847,7.4018 -0.45219,0.56505 -0.82057,1.01459 -1.38417,1.56381 -0.64146,0.62511 -1.1244,0.99995 -1.84167,1.61017 -4.56847,3.88666 -10.29229,6.11408 -16.13958,7.29053 -6.824333,1.37302 -14.189141,1.28734 -20.6375,-1.58484 -1.6764,-0.74668 -3.206939,-1.8396 -4.487505,-3.08272 -2.556528,-2.48179 -2.318271,-3.56859 -3.714579,-5.26779 m 26.711284,-7.19662 c 1.03342,-0.16915 1.30332,0.86733 0.86194,1.6367 -0.53906,0.93964 -2.090832,2.32265 -3.219715,2.39288 -1.137294,0.0708 -1.166652,-1.15037 -0.679218,-1.84962 0.64134,-0.92005 1.935451,-1.99967 3.036993,-2.17996 m -21.155031,0.7049 c 3.318785,-0.60246 2.989251,1.95774 0,2.43658 -2.934513,0.47007 -2.585901,-1.96716 0,-2.43658 m 2.993304,4.39788 c 1.545291,-0.8735 2.967294,3.78796 1.617101,4.76862 -1.349728,0.98033 -3.183829,-3.883 -1.617101,-4.76862 m 29.630477,0.52917 c 1.88561,-1.08459 2.18852,4.26586 0.90215,4.98135 -1.96388,1.09233 -1.9027,-4.40584 -0.90215,-4.98135 m 16.05445,0.47731 c 0.99708,-0.26032 1.08732,0.92574 0.89051,1.61669 -0.31027,1.08928 -1.22639,2.74279 -2.45841,3.05271 -0.88609,0.2229 -1.0697,-0.78031 -0.89889,-1.46643 0.28307,-1.13706 1.22263,-2.87814 2.46679,-3.20297 m 4.7676,1.08732 c -1.15572,1.69075 -1.96432,4.48532 -5.02708,6.87508 -1.03999,0.81147 -2.44295,1.61467 -3.70417,2.15444 -2.73732,1.17152 -5.79497,1.57876 -8.73125,1.08957 -1.88526,-0.31409 -3.88833,-0.9579 -5.29167,-1.917 m -16.656903,-5.20021 c 1.46212,-0.0221 3.700601,4.80741 1.570555,4.80741 -1.400645,0 -3.676633,-4.7756 -1.570555,-4.80741 m 39.715663,2.91042 c 1.75899,-0.53088 3.87633,4.06242 2.30205,4.47219 -1.82651,0.47541 -3.87349,-3.99793 -2.30205,-4.47219 m -58.427587,4.43851 c 1.279577,-0.73141 5.459983,2.06179 3.794201,3.12498 -1.37292,0.87626 -5.664609,-2.05585 -3.794201,-3.12498 m 53.625077,0.6145 c 1.06978,-0.14868 2.62354,0.43801 1.49829,1.62404 -0.66952,0.70569 -1.85839,0.94961 -2.8212,1.04118 -3.4213,0.3254 -0.64374,-2.39189 1.32291,-2.66522 m -25.4051,2.45107 c 1.1892,-0.26672 1.44929,0.81175 0.90257,1.65446 -0.56721,0.87428 -1.89679,1.92781 -3.00882,2.05113 -0.936787,0.10389 -1.263602,-0.75906 -0.851727,-1.50788 0.546207,-0.99306 1.859017,-1.95123 2.957977,-2.19771 m 10.74809,0.0898 c 1.51461,-1.14195 3.93321,3.33461 2.85182,4.3103 -1.35998,1.22704 -4.15925,-3.32456 -2.85182,-4.3103 m -23.448088,0.96054 c 1.167076,-0.0918 1.428531,1.03249 0.713515,1.80043 -0.711791,0.76449 -2.026952,1.62809 -3.078026,1.62874 -1.317083,8.1e-4 -1.187392,-1.23628 -0.497523,-1.93395 0.694474,-0.70233 1.83532,-1.41445 2.862034,-1.49522 m -19.30948,4.05408 c 1.190883,0.33794 1.692641,0.85098 4.233333,1.0712 1.344272,0.11652 3.913166,-0.25622 4.606732,0.41137 1.35599,1.3052 1.304006,4.85799 1.889032,7.77785 1.007069,5.02628 1.960656,10.07447 3.060064,15.08125 0.404538,1.8423 1.019068,4.89167 1.343943,6.61458 0.200985,1.06589 0.20155,1.5751 0.212729,2.11667 -1.737531,-0.25565 -3.525943,-0.82614 -5.027083,-1.85208 0.197347,-0.48786 0.39855,-0.90069 0.151073,-2.11667 -0.355562,-1.74707 -1.073935,-4.74621 -1.47399,-6.61458 -1.021429,-4.77038 -2.186557,-9.51103 -3.175815,-14.2875 -0.278135,-1.34293 -0.992533,-4.13396 -1.199404,-5.29044 -0.155684,-0.87032 -0.11468,-1.20235 -0.122698,-1.58873 m 54.239582,0.26458 c -0.25392,1.30934 -0.70033,3.45439 -1.4154,6.61459 -1.05731,4.67264 -2.03908,9.37044 -3.18153,14.02291 -0.50352,2.05054 -1.08113,4.59371 -1.48747,6.61459 -0.26169,1.3015 0.0193,1.44049 -0.38421,2.32183 -0.25256,0.55163 -3.1024,1.83711 -3.80992,1.6657 -0.77189,-0.18702 -0.7307,-0.82104 -0.61614,-1.60649 0.17921,-1.22855 0.69437,-3.43994 0.95932,-4.76229 1.22031,-6.09069 2.52569,-12.16497 3.74418,-18.25625 0.47297,-2.36435 0.56135,-5.3489 1.43214,-6.52006 0.70232,-0.94458 1.61479,-0.37328 2.90695,-0.3585 0.71009,0.008 1.19355,0.0601 1.85208,-0.006 2.23675,-0.22365 2.94489,-0.67807 4.7625,-1.05323 m -54.239581,0.79375 c 2.677997,-0.50279 3.778718,0.91134 6.085416,2.28183 1.167605,0.69371 2.33135,1.09923 3.704167,1.45214 1.217892,0.31309 1.999147,0.5119 3.175,0.46813 0.782458,-0.0291 2.376042,-0.46393 3.090889,-0.11372 0.684115,0.33517 0.594953,0.82485 0.612054,1.73245 0.02439,1.2944 -0.06632,3.3929 0.113507,4.7625 0.641147,4.88299 0.368853,9.90574 0.705149,14.81667 0.120451,1.75892 0.124548,4.72787 0.316438,6.35 0.126861,1.07239 0.177867,1.57495 0.189046,2.11666 l -2.116666,-0.004 -1.5875,-0.14863 -4.7625,-0.747 -3.175,-0.688 m 26.987501,-28.04583 -0.0449,1.58873 -0.59633,5.29044 -1.55075,14.02291 -0.71474,6.61459 -0.27561,1.69243 -1.31679,0.41913 -2.11545,0.005 v -2.11666 c 0,-1.58886 0.25607,-4.38458 0.26439,-6.08542 0.0235,-4.81147 0.29332,-9.76334 0.74903,-14.55208 0.14235,-1.49583 0.0795,-4.19803 0.26969,-5.55585 0.11247,-0.80289 0.055,-1.17778 0.65309,-1.46806 0.29681,-0.14407 4.15157,-0.005 4.67839,-0.10494 1.92127,-0.36444 3.72024,-0.78189 5.29166,-1.97743 2.16996,-1.65092 3.18918,-2.68708 5.82084,-2.00622 m -28.045835,3.70416 3.175008,-1.55381 2.645827,-1.20063 2.11666,0.79783 3.96875,2.2212 m -6.08541,-2.91042 v 1.58873 5.8196 16.40417 c 0,2.93246 -0.92331,6.796 0.31195,8.64714 0.41406,0.6205 1.26982,0.60753 2.06889,0.61307 0.90034,0.006 1.34034,2.1e-4 1.85249,2.1e-4 M 85.664742,148.23641 c 2.46e-4,0.37098 -0.07071,0.64582 0.04491,1.85249 0.178179,1.85953 0.702166,5.15262 0.978917,7.14334 0.600339,4.31834 1.108435,8.64959 1.733268,12.96459 0.265524,1.83365 0.567088,4.31391 0.792523,6.08541 0.158279,1.24378 -0.123567,1.63882 -0.374622,2.11667 m 29.897922,-30.1625 c -0.19368,1.53248 -0.67087,5.13396 -1.02383,7.67292 -0.66132,4.75701 -1.19085,9.53107 -1.85209,14.2875 -0.23506,1.69082 -0.69598,4.50545 -0.80457,6.08541 -0.0732,1.06565 -0.0237,1.58107 -0.0237,2.11667 1.21597,-0.053 2.25171,-0.28267 3.43958,-0.79375 M 90.956409,150.08849 c 0.05848,1.36197 0.480066,4.49606 0.80702,7.40834 0.534673,4.76249 1.045939,9.52978 1.615264,14.2875 0.168166,1.40534 0.481132,4.35361 0.640433,5.55584 0.116522,0.87938 0.108088,1.34575 0.112283,1.85249 m 36.512501,-20.37292 c -0.44909,0.89344 -0.58257,1.66683 0.79885,2.36962 0.73518,0.37401 2.07944,0.9399 2.90531,1.37885 2.09383,1.11288 4.08618,2.51181 5.43907,4.45382 2.65018,3.8042 0.63713,8.00179 -2.52865,10.33855 -1.50208,1.10874 -3.52559,2.15456 -5.29167,2.88735 -14.4192,5.98295 -32.264177,6.05653 -47.360411,3.01923 -4.910769,-0.98803 -10.072288,-2.43036 -14.287501,-5.22695 -1.146167,-0.76043 -2.207928,-1.55455 -3.150296,-2.55559 -2.911801,-3.09313 -2.668119,-6.98476 0.316438,-9.97373 2.35353,-2.35703 5.116998,-3.18934 6.802608,-4.57448 0.537867,1.21493 0.851331,2.51585 1.224924,3.96875 0.936304,3.64127 1.716523,9.76705 5.38966,10.84792 m -6.879167,-16.40417 0.264583,1.5875 m 55.562502,-0.26458 c -1.12561,3.52024 -1.85014,6.78447 -2.9978,10.31875 -0.78108,2.40539 -1.28782,4.22801 -3.61679,4.7625 m -12.96458,3.43958 c 1.43219,-0.0119 2.94691,-0.33213 4.49792,-0.52917 m -16.668751,1.05834 h 3.968751" id="path1" transform="matrix(4.8679691,0,0,4.8679691,-128.90783,-416.39787)" />
    <rect style="display:inline;fill:none;stroke:#000000;stroke-width:1.33306;stroke-dasharray:none;stroke-opacity:1" id="rect1" width="154.88843" height="115.74319" x="2.0926507" y="1.7971287" transform="matrix(4.8679691,0,0,4.8679691,-13.460265,-23.924768)" />
  </g>
  <g id="layer2" style="display:inline" transform="matrix(0.20542448,0,0,0.20542448,2.714605,4.8559761)">
    <path style="display:inline;stroke:none;stroke-width:1.27029;fill:transparent" d="m 341.35182,198.26612 c -9.92404,-0.97463 -16.55572,-2.37606 -23.47264,-4.96033 -9.00249,-3.36348 -16.0229,-7.96147 -22.5117,-14.74393 -4.41411,-4.6139 -6.9457,-8.55166 -9.27176,-14.42176 -2.34568,-5.9196 -3.22879,-11.17242 -2.79052,-16.59843 0.37078,-4.5905 0.0737,-6.21065 -1.43513,-7.82603 l -0.60952,-0.65258 1.06498,-1.5069 c 4.63567,-6.55933 11.69248,-13.06737 18.59316,-17.14729 4.47488,-2.6457 12.76465,-5.54135 16.17067,-5.64848 2.8855,-0.0908 3.4425,0.39469 5.18745,4.52108 2.86794,6.78201 6.27574,11.8628 11.31488,16.86965 6.63608,6.59356 14.96591,11.26996 23.3258,13.09521 9.74375,2.12738 23.36138,-0.43814 33.00538,-6.21814 5.95818,-3.57093 9.35525,-6.79258 12.98464,-12.31415 4.49378,-6.83656 6.56802,-9.01903 8.57184,-9.01903 1.138,0 3.73797,0.89835 6.01221,2.07734 7.82524,4.05672 12.50017,13.29495 12.06227,23.83649 -0.40399,9.72497 -3.93281,17.03437 -12.21314,25.29762 -5.88036,5.86825 -11.91686,10.08672 -20.64176,14.42504 -10.95912,5.44926 -22.86148,8.89652 -36.1658,10.47463 -3.23492,0.38373 -16.67584,0.70605 -19.18131,0.45999 z m 8.22082,-14.46136 c 6.10134,-1.4383 14.89038,-9.16147 16.55349,-14.54598 1.52101,-4.92445 -0.80232,-9.25847 -5.28174,-9.85268 -2.87668,-0.3816 -7.74059,1.47658 -11.72617,4.47981 -3.10823,2.34212 -6.68517,6.25597 -7.82669,8.56388 -0.86969,1.75832 -0.96349,2.1518 -1.03961,4.36094 -0.0778,2.25738 -0.0331,2.5246 0.63514,3.79819 1.60187,3.05299 4.60465,4.15786 8.68558,3.19584 z m -30.49548,-26.44005 c 1.43226,-0.71372 2.53197,-2.05201 3.08832,-3.75832 0.52433,-1.6082 0.21634,-5.71691 -0.61149,-8.15703 -2.20479,-6.49897 -6.60591,-12.36248 -10.85577,-14.46286 -1.66329,-0.82204 -2.18185,-0.95733 -3.70608,-0.96688 -2.3377,-0.0147 -4.13193,0.88929 -5.33328,2.68691 -1.1411,1.70744 -1.42402,2.9481 -1.2547,5.5022 0.23275,3.51118 1.63216,7.09451 4.38629,11.23152 4.64887,6.98317 10.10382,10.00888 14.28671,7.92446 z" id="path35-5" />
    <path style="display:inline;stroke:none;stroke-width:5.08115;fill:transparent" d="m 354.52636,142.70526 c -11.471,-4.10517 -20.79484,-12.82192 -27.01635,-25.25729 -1.44829,-2.89481 -3.01484,-5.49913 -3.48123,-5.78737 -1.34943,-0.83398 0.5799,-15.189945 2.86061,-21.2857 6.71802,-17.95552 24.94341,-27.579964 44.89176,-23.706405 l 3.75334,0.728818 -1.46682,4.15743 c -0.80676,2.286583 -1.46683,5.886317 -1.46683,7.999434 0,3.246981 -0.2931,3.765355 -1.8925,3.347096 -1.31881,-0.344871 -2.06616,0.169125 -2.46532,1.695514 -0.4687,1.792281 -0.92314,2.00293 -2.50022,1.158902 -1.4992,-0.80235 -5.13173,-5.396883 -8.00685,-10.127337 -0.18015,-0.296391 -4.35466,1.625783 -5.31648,2.447993 -0.48897,0.417989 3.6099,6.332216 6.87983,9.926862 1.44713,1.590827 6.06092,4.563287 10.25285,6.605488 7.31938,3.565782 7.99459,3.701484 17.02183,3.420884 9.23199,-0.286976 9.40011,-0.336949 9.40011,-2.794628 0,-2.47374 -0.10497,-2.502436 -9.14606,-2.502436 -7.11814,0 -9.14605,-0.31231 -9.14605,-1.408539 0,-1.820964 7.21748,-12.62824 10.47645,-15.687214 l 2.51477,-2.360435 4.93696,5.250361 c 10.55149,11.221338 14.86007,22.136022 11.95241,30.278312 -0.73534,2.05918 -1.35706,4.82685 -1.3816,6.15037 -0.0245,1.32353 -1.30219,3.87204 -2.83923,5.66334 -1.53704,1.79131 -4.25747,5.37597 -6.04539,7.96591 -8.59786,12.45463 -28.79374,19.12235 -42.76999,14.12064 z" id="path2" />
    <path style="display:inline;stroke:none;stroke-width:0.898227;fill:transparent" d="m 377.78225,78.980715 c 0,-0.887704 0.58603,-3.055187 1.43453,-5.305706 0.46565,-1.235073 1.15176,-3.17524 1.52468,-4.311499 2.02239,-6.161855 5.6383,-11.048426 14.75547,-19.940651 13.84812,-13.506413 25.85567,-20.815449 39.82464,-24.241382 4.81048,-1.17978 9.29748,-1.515377 11.46968,-0.857848 1.11924,0.338804 2.13061,1.152036 2.13061,1.713211 0,0.214913 -0.42084,0.738066 -1.03295,1.284106 -1.32885,1.18537 -4.29435,2.654921 -8.84755,4.384361 -19.729,7.493707 -31.97971,13.948938 -39.96537,21.058826 -5.67818,5.055464 -9.11716,11.167796 -8.85727,15.742623 l 0.079,1.388807 -0.89399,-1.16426 c -0.49169,-0.640334 -0.96974,-1.164247 -1.06233,-1.164247 -0.0926,0 -0.87548,0.599943 -1.73976,1.333218 -2.19242,1.86008 -4.1009,4.07214 -7.27151,8.428165 -1.25545,1.724828 -1.54777,2.036894 -1.54777,1.652276 z" id="path3-5" />
    <path style="display:inline;stroke:none;stroke-width:2.54057;fill:transparent" d="m 315.18393,246.36113 c -0.83838,-0.0978 -3.69652,-0.42133 -6.35142,-0.71911 -10.06647,-1.12905 -23.29904,-4.32433 -32.58748,-7.86894 -10.74702,-4.10121 -18.87685,-9.15327 -26.53218,-16.48769 -6.28669,-6.02315 -8.45229,-8.83066 -12.738,-16.51371 -1.87067,-3.35355 -4.03589,-6.89765 -4.8116,-7.87577 -1.34272,-1.69308 -1.37588,-1.86242 -0.69094,-3.52971 0.39569,-0.96324 0.93407,-4.73598 1.19638,-8.38389 0.48471,-6.74087 1.67577,-11.92774 3.62181,-15.77248 4.58536,-9.05911 14.48849,-18.56405 23.6875,-22.73508 3.89844,-1.76764 12.07161,-3.9506 14.74898,-3.93927 3.25036,0.0138 3.35842,0.24968 3.42046,7.46837 0.0676,7.86819 1.09629,12.17663 4.69486,19.66386 2.93725,6.11134 5.83211,10.05763 10.93065,14.90073 8.99217,8.54169 20.38731,14.21306 34.56483,17.20296 7.63608,1.61037 23.23988,2.21753 32.38875,1.26027 31.48244,-3.29405 60.97181,-19.98385 70.31509,-39.79549 2.41427,-5.11929 3.32567,-8.90879 3.63625,-15.11923 0.65351,-13.0677 -5.08049,-24.14647 -15.08883,-29.15344 -2.04041,-1.02078 -4.61509,-2.00072 -5.72151,-2.17763 l -2.01166,-0.32169 0.2903,-2.45117 c 0.56755,-4.79207 0.36638,-4.69618 9.16252,-4.36695 18.33635,0.68633 33.89228,5.66669 42.10896,13.48154 3.74893,3.5656 5.31597,6.05649 9.39465,14.93332 1.83504,3.99377 4.05956,8.40465 4.94337,9.80197 0.88382,1.3973 1.78628,2.8383 2.00548,3.20221 0.29592,0.49123 0.0371,0.62211 -1.00479,0.50812 -1.40211,-0.1534 -1.40421,-0.14879 -2.34887,5.18166 -1.8763,10.58741 -8.06467,26.05166 -13.53172,33.81463 -6.43903,9.14318 -19.71969,20.70812 -33.71279,29.35754 -22.4214,13.85907 -53.13709,23.40174 -84.50842,26.25487 -5.13875,0.46734 -25.91519,0.59368 -29.47063,0.1792 z m 21.35154,-10.5036 c 1.04938,-1.04938 1.82933,-2.44242 2.06256,-3.68383 0.84607,-4.50348 -1.93983,-12.7683 -6.05818,-17.97267 -4.21645,-5.32831 -9.31152,-6.67554 -12.87962,-3.40561 -1.66768,1.52831 -1.88308,2.02078 -2.08108,4.75817 -0.4896,6.76857 4.52301,17.06894 9.99534,20.5394 3.37709,2.14168 6.67038,2.05515 8.96098,-0.23546 z m 82.3918,-19.13824 c 1.06037,-0.0129 3.74014,-2.62194 4.77454,-4.64954 3.39546,-6.65565 1.85572,-20.76688 -2.68267,-24.58567 -1.76772,-1.48746 -5.17387,-1.7071 -7.53536,-0.48592 -3.19535,1.65238 -4.81178,7.69219 -4.44827,16.62103 0.18328,4.5019 0.48318,6.29869 1.40332,8.40746 1.54036,3.53021 4.19747,5.42319 6.87605,4.89861 0.55892,-0.10948 1.2845,-0.20214 1.61239,-0.20597 z m -138.62465,-4.84846 c 2.4933,-2.09795 3.30299,-5.00617 3.00148,-10.78043 -0.29,-5.55385 -1.46398,-9.30483 -4.11726,-13.155 -3.86095,-5.6026 -10.24643,-5.65338 -13.07751,-0.10407 -0.97329,1.9078 -1.07074,2.73722 -0.85302,7.26056 0.27146,5.63948 1.7298,10.16098 4.51934,14.01183 2.98941,4.12676 7.50154,5.31279 10.52697,2.76705 z M 261.14337,178.6474 c 4.09329,-1.55963 6.72327,-3.64147 8.04222,-6.36607 2.70919,-5.59645 -1.20445,-9.926 -8.98,-9.93435 -9.15963,-0.0103 -16.90928,4.94667 -16.9172,10.81983 -0.004,2.75982 1.15853,4.63774 3.66186,5.91669 1.89642,0.96887 2.77163,1.08359 6.75188,0.88496 2.97204,-0.14831 5.57716,-0.61081 7.44124,-1.32106 z m 209.83734,-23.35708 c 1.68009,-1.68008 1.97268,-2.29688 1.97268,-4.15853 0,-3.13951 -1.67584,-6.16365 -5.16572,-9.32181 -5.62779,-5.09285 -13.49834,-8.22271 -17.59268,-6.996 -4.46746,1.33848 -6.36997,5.94524 -4.20657,10.18586 3.13959,6.1541 12.94438,12.22562 19.78411,12.2511 3.08757,0.0116 3.32569,-0.0782 5.20818,-1.96062 z" id="path4" />
    <path style="display:inline;stroke:none;stroke-width:2.54057;fill:transparent" d="m 436.62322,244.33942 c -7.62021,-0.82818 -17.04554,-3.31756 -23.18266,-6.12291 l -4.04725,-1.85006 8.53382,-4.14849 c 12.98028,-6.31002 21.37382,-11.73605 32.70231,-21.1405 11.09819,-9.21327 17.47839,-17.02267 22.58695,-27.64658 4.147,-8.62422 8.88305,-23.64795 8.88305,-28.17891 0,-1.33518 0.61172,-1.31659 1.82668,0.0555 0.53237,0.60123 4.54717,3.46218 8.92178,6.35767 8.39878,5.559 12.6493,9.48807 14.58083,13.47807 0.58908,1.21687 1.77248,4.95131 2.6298,8.29877 0.85732,3.34745 2.03887,7.49026 2.62566,9.20626 1.06635,3.11833 1.06637,3.12073 0.0578,4.57302 -0.55501,0.79918 -2.22037,3.73957 -3.70082,6.5342 -6.88359,12.99407 -13.92305,21.28811 -23.26067,27.4062 -12.97793,8.50326 -26.24631,12.83715 -40.47265,13.21975 -3.65871,0.0984 -7.56679,0.0795 -8.68464,-0.042 z m 51.97628,-28.43185 c 4.37658,-2.18094 8.52648,-7.70806 10.73346,-14.29558 1.31161,-3.91492 1.3243,-6.36797 0.0475,-9.18121 -2.40034,-5.28869 -9.23752,-4.46054 -14.73484,1.78475 -1.17006,1.32926 -3.05431,4.33187 -4.18723,6.67248 -5.49124,11.34489 -1.0239,19.58668 8.14113,15.01956 z" id="path5-1" />
    <path style="display:inline;stroke:none;stroke-width:2.54057;fill:transparent" d="m 313.86689,309.21278 c -12.46734,-2.63036 -19.16428,-5.44206 -30.07668,-12.6276 -9.42792,-6.20807 -11.25811,-6.88766 -18.65551,-6.9272 -5.74182,-0.0307 -5.84262,-0.0116 -5.80297,1.11202 0.0483,1.36942 0.0743,1.36572 -1.971,0.28021 -1.33246,-0.70716 -3.78263,-0.9258 -13.56684,-1.21061 -12.895,-0.37536 -16.19514,-0.86895 -23.28307,-3.48235 -4.81492,-1.77532 -5.53991,-1.8714 -5.7692,-0.76455 -0.1096,0.5293 -0.77485,-0.02 -2.00018,-1.65137 -1.00974,-1.34442 -4.04967,-4.79636 -6.75537,-7.67097 -5.93206,-6.30236 -7.55083,-8.76009 -9.27494,-14.08178 -1.12672,-3.47775 -1.35104,-5.23922 -1.55297,-12.19473 -0.39453,-13.58921 1.5577,-22.15765 6.91232,-30.33877 3.59204,-5.48813 6.35102,-7.88907 14.14333,-12.30786 3.8508,-2.18369 7.98622,-4.76856 9.18981,-5.74414 2.60991,-2.11552 2.11273,-2.54912 6.79537,5.92622 3.99466,7.23012 7.06191,11.33183 12.41599,16.60339 7.18659,7.07583 15.24513,12.57472 24.20843,16.51909 34.52218,15.19175 81.57815,15.35688 127.08964,0.44598 6.70109,-2.19548 7.64683,-2.39095 8.31844,-1.71932 1.08261,1.0826 7.88543,4.41934 12.0874,5.92881 1.96738,0.70673 6.31175,1.92817 9.65417,2.71432 5.65417,1.32988 6.83749,1.43059 17.00158,1.44676 9.59553,0.0153 11.56054,-0.12506 16.15334,-1.15378 15.88024,-3.55694 29.93353,-10.97186 40.03112,-21.12158 5.65872,-5.68794 9.49272,-11.11422 14.69219,-20.79391 l 3.4148,-6.35719 1.7146,1.01164 c 0.94303,0.5564 4.19975,1.98549 7.23716,3.17576 6.7651,2.65104 10.20608,4.88449 14.43992,9.37259 6.17063,6.54119 10.54002,15.33249 11.34187,22.82005 0.70364,6.57043 -1.22236,15.16496 -5.21976,23.29251 -3.50906,7.13465 -7.92856,12.6225 -14.8758,18.4718 -3.30602,2.78353 -6.44316,5.61046 -6.97145,6.28206 -0.57196,0.72712 -1.87603,1.42711 -3.22366,1.73038 -1.24473,0.28013 -5.46425,1.37195 -9.37674,2.42631 -6.86235,1.84928 -7.41869,1.91841 -15.75153,1.95732 -4.75087,0.0222 -10.47629,-0.0694 -12.72314,-0.20355 -3.32105,-0.19826 -4.33944,-0.0775 -5.44436,0.64531 -1.7446,1.14139 -1.9163,1.12025 -1.77,-0.21785 0.16565,-1.5151 -2.49239,-2.06792 -8.82795,-1.83603 -4.42399,0.16191 -5.23772,0.35503 -8.63795,2.04998 -2.06462,1.02918 -6.38334,3.84622 -9.59717,6.26009 -8.4753,6.36576 -13.46856,8.66594 -23.55673,10.85162 -6.05866,1.31266 -26.56123,1.61646 -28.43066,0.42128 -5.19302,-3.32007 -19.06928,-10.49063 -23.86073,-12.33005 l -5.92117,-2.27314 -8.52945,3.98005 c -20.25023,9.44924 -21.01179,9.84491 -20.71981,10.76485 0.24428,0.76969 0.024,0.82378 -1.89645,0.46576 -1.32742,-0.24746 -4.54529,-0.12699 -8.27022,0.30979 -7.68735,0.90125 -9.15889,0.87516 -14.52802,-0.25762 z m 123.53514,-22.64332 c 5.16483,-2.67084 3.9253,-12.68611 -2.661,-21.50072 -5.03366,-6.73667 -12.48068,-7.75112 -15.40385,-2.09836 -2.33904,4.52321 0.92323,14.14629 6.8697,20.26439 3.80304,3.91279 7.78408,5.09862 11.19515,3.33469 z m -131.87967,-2.21578 c 5.80856,-2.87826 10.03725,-6.97953 10.89436,-10.56607 0.56226,-2.35285 0.52195,-2.86805 -0.38485,-4.91804 -1.41122,-3.19026 -3.27202,-4.0764 -7.93213,-3.77733 -6.4743,0.4155 -14.68197,5.48802 -17.26404,10.66958 -1.53603,3.08242 -1.64841,5.07397 -0.42154,7.47041 2.19311,4.28373 7.87526,4.70551 15.1082,1.12145 z m 61.15649,-3.44617 c 4.01769,-1.93814 9.41136,-6.72706 10.95561,-9.72723 3.22223,-6.2602 -0.17639,-12.25813 -6.55797,-11.57357 -3.5452,0.38032 -9.3498,3.3888 -12.92534,6.69911 -5.83872,5.40563 -7.25316,11.41371 -3.50837,14.90251 2.69683,2.51248 6.39587,2.42003 12.03607,-0.30082 z M 252.4122,265.24742 c 2.41403,-1.24835 3.57644,-3.15506 3.57644,-5.86651 0,-3.30843 -2.30348,-6.57933 -7.03498,-9.98952 -4.23273,-3.05072 -8.31279,-4.7359 -12.27336,-5.06924 -6.48495,-0.54583 -10.29738,4.84509 -7.39256,10.45339 1.98656,3.8354 8.66342,8.76891 14.22523,10.51092 2.82811,0.88578 7.14747,0.86684 8.89923,-0.039 z m 243.51195,-0.72347 c 5.74207,-1.84087 9.48741,-5.3504 9.88631,-9.26389 0.4866,-4.77383 -2.96993,-7.29868 -9.99194,-7.29868 -3.92662,0 -4.67401,0.16955 -8.2273,1.86635 -9.32992,4.45533 -13.19223,11.86361 -7.91798,15.18747 1.4882,0.93788 2.25461,1.02506 7.25329,0.82507 3.79902,-0.152 6.68095,-0.57362 8.99762,-1.31632 z m 34.97088,-15.04682 c 3.2263,-1.66839 3.9658,-6.93972 1.82451,-13.00559 -3.6661,-10.38535 -12.01567,-16.16546 -17.83943,-12.34959 -1.4098,0.92374 -2.80439,4.13936 -2.7959,6.44681 0.0154,4.21717 3.01787,11.18497 6.53964,15.17692 3.59712,4.07738 8.63802,5.61023 12.27118,3.73145 z" id="path6" />
    <path id="path18" style="display:inline;stroke:none;stroke-width:2.54057;fill:transparent" d="m 260.14168,433.62434 c -1.1795,-0.86741 -3.14112,-2.98244 -4.35917,-4.70005 -5.02611,-7.08758 -7.50495,-13.93445 -12.23629,-33.79829 -3.58032,-15.03138 -5.37963,-21.63399 -7.14903,-26.23345 -0.64505,-1.67678 -1.43348,-4.68241 -1.75206,-6.67921 l -0.57923,-3.63052 -2.10767,0.2827 -2.10767,0.2827 0.98419,-1.47926 c 1.66316,-2.49976 1.31541,-7.9867 -0.8988,-14.18212 -0.99878,-2.79463 -3.29963,-10.11147 -5.113,-16.25964 -6.05014,-20.51296 -7.88449,-27.72751 -8.67212,-34.10791 l -0.32156,-2.60481 4.84026,1.6637 c 2.66213,0.91503 6.78199,1.93934 9.15523,2.27621 l 4.31498,0.61251 v 2.45488 c 0,2.8005 0.53903,5.56184 4.06297,20.81341 1.38828,6.00846 4.57508,20.18484 7.08179,31.50308 2.5067,11.31825 7.54283,33.92874 11.1914,50.24554 3.64856,16.31682 6.77788,30.89334 6.95406,32.39228 0.38726,3.29499 -0.1257,3.47408 -3.28828,1.14825 z m 20.74456,9.90801 c -2.37545,-0.69806 -6.14825,-2.15101 -8.38402,-3.22879 l -4.06504,-1.95962 0.15005,-4.23884 c 0.13784,-3.89412 -0.4528,-6.92486 -7.26253,-37.26627 -4.0769,-18.16508 -9.23738,-41.25887 -11.46771,-51.31952 -2.23034,-10.06066 -5.41568,-24.23706 -7.07852,-31.50309 -1.66283,-7.26603 -3.17503,-14.52571 -3.36042,-16.13262 l -0.33709,-2.92165 5.78624,0.0222 c 7.68456,0.0294 9.98217,0.50902 11.7119,2.44494 2.18409,2.44443 3.80237,8.60808 5.51574,21.00812 1.55824,11.27742 8.53169,47.46514 15.304,79.41792 5.17188,24.40174 9.0719,44.00109 9.07444,45.60325 0.003,1.68377 -0.10446,1.68519 -5.58704,0.0741 z m 15.25695,4.40966 -3.79734,-0.84965 -0.64281,-4.79882 c -0.77562,-5.79042 -1.68807,-10.40222 -8.79215,-44.43848 -8.10346,-38.82434 -13.93997,-69.16851 -15.68905,-81.56787 -1.54261,-10.93565 -2.8792,-16.60341 -4.62952,-19.63139 -0.51151,-0.8849 -0.79658,-1.74233 -0.63348,-1.90543 0.1631,-0.1631 1.3776,-0.29655 2.69891,-0.29655 4.29919,0 8.61004,1.76058 15.56362,6.35623 3.57949,2.3657 6.22236,4.30418 5.87303,4.30772 -1.4552,0.0148 -0.32393,13.42251 2.92822,34.70487 0.54613,3.57394 2.71417,19.46521 4.81786,35.31394 2.10369,15.84871 4.85058,36.36134 6.1042,45.58361 2.48148,18.25509 3.115,24.80564 2.59819,26.86483 -0.39307,1.56609 -0.87555,1.593 -6.39968,0.35699 z m 26.66246,4.74985 c -1.95624,-0.3262 -6.19912,-0.98821 -9.42864,-1.47114 l -5.87185,-0.87804 0.50165,-2.44896 c 0.54642,-2.6674 0.12056,-6.90188 -3.03977,-30.22221 -0.94679,-6.98656 -3.32398,-24.82137 -5.28265,-39.6329 -1.95866,-14.81153 -4.47181,-33.21797 -5.58477,-40.90319 -1.94148,-13.40617 -3.544,-26.41181 -3.55432,-28.84581 l -0.005,-1.15358 1.96904,1.00453 c 3.78005,1.92844 8.13151,3.38978 16.70416,5.60968 2.10909,0.54617 2.15958,0.60914 2.16389,2.69911 0.003,1.17695 0.57715,7.05591 1.27717,13.06435 0.70003,6.00846 2.64847,23.15731 4.32986,38.10856 1.68138,14.95126 4.5451,40.08779 6.36379,55.85896 1.8187,15.77116 3.24089,28.92884 3.16043,29.23928 -0.10677,0.41191 -1.10748,0.40417 -3.70309,-0.0286 z m 10.92446,1.44344 c -1.637,-0.30423 -2.01513,-0.94597 -2.02477,-3.43636 -0.004,-1.11786 -1.2553,-12.77908 -2.77995,-25.91383 -1.52464,-13.13476 -4.26137,-37.14314 -6.08161,-53.35199 -3.30529,-29.43261 -5.62911,-49.96848 -6.1016,-53.92036 l -0.25021,-2.09273 6.45959,-0.32434 c 3.55276,-0.17838 7.97793,-0.46213 9.8337,-0.63053 2.98882,-0.27121 3.49651,-0.18377 4.44599,0.76571 1.02997,1.02996 1.07207,1.54368 1.0765,13.13958 0.003,7.25888 0.29845,14.59867 0.74199,18.41914 1.03823,8.94281 1.70788,20.92828 2.04399,36.58422 0.51015,23.76206 2.19704,60.66974 3.1294,68.46838 l 0.31892,2.66759 -4.77083,-0.0692 c -2.62396,-0.0381 -5.34245,-0.17544 -6.04111,-0.30529 z m 16.25965,1.20235 c 0,-0.38306 -0.32978,-3.98432 -0.73283,-8.0028 -0.40305,-4.01847 -0.8694,-11.07907 -1.03632,-15.6902 -0.16692,-4.61114 -0.52489,-12.84259 -0.79549,-18.29211 -0.27059,-5.44952 -0.717,-18.94124 -0.99204,-29.98159 -0.49616,-19.917 -1.0026,-29.10145 -2.08446,-37.80126 -0.30931,-2.48744 -0.73439,-10.60457 -0.94462,-18.03805 -0.21021,-7.43348 -0.53768,-13.97272 -0.72771,-14.53164 -0.30846,-0.90727 0.86873,-1.59495 10.97867,-6.41342 l 11.32417,-5.39721 0.15548,57.22484 c 0.13553,49.88026 0.0451,58.71695 -0.70474,68.85052 -0.99095,13.39231 -0.78164,20.40407 0.75262,25.2126 0.5796,1.81651 1.05676,3.3599 1.06037,3.42977 0.004,0.0698 -3.65187,0.127 -8.12327,0.127 -6.54695,0 -8.12983,-0.1356 -8.12983,-0.69648 z m 26.16788,0.19863 c -1.39732,-0.19513 -2.92305,-0.52359 -3.39053,-0.72994 -0.99038,-0.43714 -2.10921,-2.65355 -2.97113,-5.88581 -0.73956,-2.77338 -0.69992,-14.78009 0.0688,-20.83267 0.35318,-2.78088 0.63132,-26.16914 0.78102,-65.67377 0.1279,-33.74513 0.32579,-61.35478 0.43982,-61.35478 1.87552,0 23.11227,11.37932 23.10715,12.38154 -10e-4,0.31646 -0.23401,1.94728 -0.51641,3.62405 -0.2824,1.67679 -0.73168,8.87931 -0.99839,16.00561 -0.26672,7.12629 -0.7134,15.24342 -0.99264,18.03805 -1.51581,15.17066 -3.06334,44.46752 -3.08657,58.43312 -0.008,4.75087 -0.34742,14.46855 -0.75448,21.59486 -0.40705,7.1263 -0.74506,15.64356 -0.75114,18.92725 l -0.0116,5.97033 -4.19195,-0.0715 c -2.30557,-0.0394 -5.3352,-0.23119 -6.73251,-0.42631 z m 16.65926,-11.3158 c 1.10273,-43.23209 1.9919,-64.48364 3.46001,-82.69558 0.55193,-6.84683 1.33972,-19.30835 1.75065,-27.69223 0.41092,-8.38388 0.92649,-16.0437 1.14569,-17.02182 l 0.39854,-1.7784 9.76075,-0.13799 9.76074,-0.13801 v 3.02532 c 0,1.66393 -1.81835,19.33219 -4.04079,39.2628 -2.22243,19.9306 -5.31161,48.01301 -6.86482,62.40534 -1.55322,14.39234 -3.07983,27.81417 -3.39248,29.82631 l -0.56845,3.65841 -2.31141,0.78758 c -1.27128,0.43317 -3.89754,0.78757 -5.83615,0.78757 h -3.52474 z m 17.32136,6.09737 c 0.18294,-1.46718 2.62236,-23.47488 5.42096,-48.90599 2.79861,-25.43111 5.99623,-54.23334 7.10584,-64.00493 1.10961,-9.7716 2.01747,-19.05939 2.01747,-20.63954 v -2.87301 l 3.17572,-0.62373 c 4.7688,-0.93664 10.88954,-2.97621 14.73532,-4.91013 2.61556,-1.31529 3.42977,-1.5442 3.42977,-0.96432 0,0.41823 -1.47876,11.7965 -3.28612,25.28507 -1.80738,13.48856 -4.67182,35.3856 -6.36542,48.66008 -1.69362,13.27448 -3.98719,30.53766 -5.0968,38.36262 -2.37786,16.76847 -3.01491,22.57007 -3.02685,27.56519 -0.005,2.02611 -0.18689,3.68383 -0.40454,3.68383 -0.21765,0 -3.59026,0.45372 -7.49469,1.00829 -3.90442,0.55455 -7.87392,1.01185 -8.8211,1.01621 l -1.72214,0.008 z m 23.83966,-7.54601 c 0.16704,-3.46507 1.4473,-14.30291 2.84501,-24.0841 1.39769,-9.7812 3.59125,-26.12977 4.87456,-36.33016 1.28332,-10.20039 4.03921,-31.3235 6.1242,-46.94023 2.085,-15.61673 3.79091,-28.80685 3.79091,-29.3114 0,-0.63907 -0.45097,-0.96564 -1.48661,-1.07656 -1.40163,-0.15012 -1.21601,-0.36249 3.24812,-3.71602 8.35585,-6.27708 12.44939,-7.86769 18.35058,-7.13038 2.38942,0.29853 2.77151,0.48558 2.45421,1.20142 -1.68594,3.80359 -2.90958,8.9917 -4.27453,18.1237 -1.59378,10.66277 -3.72838,21.43091 -16.26706,82.06043 -9.75863,47.18676 -9.68516,46.76637 -8.6484,49.49327 0.47429,1.24747 0.38535,1.32085 -2.78913,2.30135 -1.80347,0.55704 -4.45951,1.16939 -5.9023,1.36078 l -2.62327,0.34799 z m 16.49141,1.28159 c -1.04708,-1.05348 -0.91618,-1.78487 8.44976,-47.2146 2.93836,-14.2526 7.41174,-35.97351 9.94084,-48.26869 2.5291,-12.29517 5.28963,-26.95564 6.13452,-32.57881 2.11742,-14.09252 3.06999,-17.48699 5.53267,-19.71568 1.00652,-0.91089 1.407,-0.93413 6.53047,-0.37914 3.002,0.32518 6.54429,0.59091 7.87173,0.59051 1.32745,-4.1e-4 2.41354,0.19647 2.41354,0.4375 0,1.763 -14.81254,68.54235 -21.14795,95.34128 -6.10329,25.81708 -7.82189,33.88858 -8.33617,39.15146 -0.24721,2.52981 -0.59757,4.98561 -0.77858,5.45731 -0.94051,2.45096 -15.18936,8.60902 -16.61083,7.17886 z m 22.48406,-10.23996 c 0,-2.76111 3.28693,-18.3227 8.56109,-40.53143 4.27328,-17.99416 17.86743,-78.76553 20.47831,-91.54638 l 1.15932,-5.67509 2.30354,-0.34124 c 1.95597,-0.28975 12.06104,-2.73557 14.87938,-3.60138 0.6371,-0.19572 0.8892,0.009 0.8892,0.72167 0,1.44888 -2.11464,9.29406 -5.09174,18.89009 -4.42627,14.26706 -7.91973,26.8744 -9.57554,34.55655 -0.87285,4.04958 -2.07495,8.8166 -2.67135,10.59338 -0.80128,2.3872 -1.01127,3.93851 -0.80442,5.94272 l 0.27993,2.71221 -1.30119,-0.4947 c -0.71565,-0.2721 -1.34093,-0.43116 -1.3895,-0.35348 -0.20969,0.33536 -1.66217,5.37109 -6.90716,23.94673 -10.46548,37.06464 -12.92336,43.0737 -18.85634,46.10047 l -1.95353,0.99663 z" />
    <path style="display:inline;stroke:none;stroke-width:1.79645;fill:transparent" d="m 345.49806,178.10948 c -0.27414,-0.60166 -0.26256,-1.2803 0.0411,-2.40793 0.65646,-2.43793 6.10453,-7.66743 10.03998,-9.63717 4.10685,-2.05554 5.76556,-1.94122 5.76556,0.3974 0,1.32085 -0.71888,2.68543 -2.49719,4.74011 -2.35389,2.71971 -5.38342,5.16873 -8.03472,6.49511 -3.00023,1.50096 -4.75666,1.63727 -5.31471,0.41248 z" id="path34" />
    <path style="display:inline;stroke:none;stroke-width:1.79645;fill:transparent" d="m 315.71474,152.79334 c -4.5235,-1.50338 -11.42007,-12.84519 -10.03151,-16.4974 0.75496,-1.98568 2.72188,-1.31344 5.71531,1.95335 4.90898,5.3573 7.9985,15.76785 4.3162,14.54405 z" id="path33-7" />
    <path style="display:inline;stroke:none;stroke-width:2.54057;fill:transparent" d="m 246.14024,260.34766 c -4.87865,-1.13181 -12.85342,-7.22729 -12.40225,-9.4796 0.28804,-1.43795 4.67395,-1.13519 8.14316,0.56213 2.96854,1.45237 7.63138,5.29043 8.57942,7.06186 0.93128,1.74013 -1.08508,2.60617 -4.32033,1.85561 z" id="path21-1" />
    <path style="display:inline;stroke:none;stroke-width:2.54057;fill:transparent" d="m 295.11343,279.8743 c 0,-3.94196 12.74572,-11.5856 15.50306,-9.29722 1.2174,1.01036 0.9019,1.91603 -1.59881,4.5895 -2.97851,3.18426 -8.54049,6.07628 -11.68601,6.07628 -2.06985,0 -2.21824,-0.0916 -2.21824,-1.36856 z" id="path22" />
    <path style="display:inline;stroke:none;stroke-width:2.54057;fill:transparent" d="m 358.30289,276.92276 c -0.56829,-1.48098 0.37294,-3.32765 3.07147,-6.02618 2.95426,-2.95426 8.23132,-5.91338 10.54547,-5.91338 1.24901,0 1.44318,0.19548 1.44318,1.45285 0,2.70564 -4.91226,7.68388 -9.90822,10.04129 -2.92724,1.38124 -4.73288,1.53736 -5.1519,0.44542 z" id="path23-1" />
    <path style="display:inline;stroke:none;stroke-width:2.54057;fill:transparent" d="m 432.50027,281.28779 c -4.87757,-2.96623 -10.11757,-13.35071 -8.11154,-16.07521 0.72257,-0.98135 0.74899,-0.98144 2.56997,-0.009 3.2889,1.75714 7.53899,8.79134 8.19249,13.55919 0.41271,3.01104 -0.46947,3.8512 -2.65092,2.52459 z" id="path24" />
    <path style="display:inline;stroke:none;stroke-width:2.54057;fill:transparent" d="m 483.11567,260.26023 c 0,-1.68796 6.19417,-5.75833 10.54623,-6.93021 2.54852,-0.68625 6.08639,0.0394 6.58994,1.35161 0.85142,2.21876 -6.12071,5.37864 -13.30398,6.02956 -3.29197,0.29833 -3.83219,0.23475 -3.83219,-0.45096 z" id="path25-5" />
    <path style="display:inline;stroke:none;stroke-width:2.54057;fill:transparent" d="m 525.40389,244.3236 c -3.4995,-1.72491 -7.34656,-8.3915 -7.43025,-12.87593 -0.047,-2.51977 0.0589,-2.81041 1.07706,-2.95515 3.50225,-0.49788 10.66931,11.09004 9.56946,15.47218 -0.35336,1.40789 -0.95245,1.47475 -3.21627,0.3589 z" id="path26" />
    <path style="display:inline;stroke:none;stroke-width:2.54057;fill:transparent" d="m 483.38344,210.65821 c -0.9872,-3.11042 4.21208,-12.87381 8.15254,-15.30915 2.27375,-1.40526 3.26631,-1.02297 3.26631,1.25804 0,6.59294 -9.91404,18.79236 -11.41885,14.05111 z" id="path27-2" />
    <path style="display:inline;stroke:none;stroke-width:2.54057;fill:transparent" d="m 415.7784,210.41371 c -0.4615,-0.70434 -1.09138,-2.91051 -1.39972,-4.9026 -0.8987,-5.80609 0.71093,-14.20445 2.72244,-14.20445 0.28872,0 1.02657,1.08609 1.63965,2.41354 0.94297,2.04173 1.11469,3.3137 1.11469,8.25685 0,4.9369 -0.15836,6.11286 -1.02089,7.58093 -1.31554,2.23913 -2.02042,2.4365 -3.05617,0.85573 z" id="path28" />
    <path style="display:inline;stroke:none;stroke-width:2.54057;fill:transparent" d="m 329.5079,230.46639 c -3.92651,-3.61933 -7.79411,-12.76349 -6.45597,-15.26384 0.30341,-0.56692 0.77736,-1.03076 1.05324,-1.03076 1.27957,0 5.07357,4.38191 6.88642,7.95352 1.63965,3.23036 1.97303,4.40169 1.97454,6.93754 10e-4,1.91962 -0.2243,3.12844 -0.60794,3.25989 -0.33535,0.11489 -1.61799,-0.72045 -2.85029,-1.85635 z" id="path29-7" />
    <path style="display:inline;stroke:none;stroke-width:2.54057;fill:transparent" d="m 274.99291,206.70571 c -3.58708,-3.86094 -5.83456,-12.5222 -4.1874,-16.13731 2.54773,-5.59168 9.19588,8.66303 7.05943,15.13654 -0.82558,2.50149 -1.31824,2.67317 -2.87203,1.00077 z" id="path30" />
    <path style="display:inline;stroke:none;stroke-width:2.54057;fill:transparent" d="m 250.56332,174.71174 c -1.93964,-0.40999 -2.32459,-1.39716 -1.13473,-2.90983 1.93124,-2.45518 5.58362,-3.83914 10.40338,-3.94206 5.04052,-0.10768 5.97377,0.96543 3.06258,3.52148 -2.59194,2.27576 -9.05842,4.02222 -12.33123,3.33041 z" id="path31-6" />
    <path style="display:inline;stroke:none;stroke-width:2.54057;fill:transparent" d="m 461.7626,151.00289 c -5.50595,-2.26536 -11.39113,-7.39772 -11.06991,-9.65389 0.13838,-0.97193 0.44968,-1.09807 2.53781,-1.02842 5.56862,0.18577 16.17472,8.63974 14.05041,11.19938 -0.78541,0.94637 -2.30819,0.80369 -5.51831,-0.51707 z" id="path32" />
    <path style="display:inline;stroke:none;stroke-width:2.54057;fill:transparent" d="m 351.5141,481.90075 c -42.49487,-2.5169 -87.35912,-11.15511 -113.28438,-21.81189 -19.93907,-8.19611 -36.89928,-20.22846 -43.09368,-30.57268 -3.22284,-5.38193 -3.92741,-8.10389 -3.9208,-15.14741 0.005,-5.70208 0.1425,-6.6776 1.34156,-9.54177 2.30759,-5.51214 4.5992,-8.85187 9.31769,-13.57946 5.21628,-5.22636 9.20044,-8.07551 19.36286,-13.84678 3.94248,-2.23895 7.78413,-4.47443 8.53701,-4.96773 0.81426,-0.53353 1.55471,-0.71107 1.82756,-0.43822 0.70221,0.70221 3.72691,11.82223 6.89592,25.35214 4.44516,18.97839 7.78173,27.95202 13.05049,35.09899 2.84204,3.85519 5.71873,6.22461 10.28362,8.47019 1.95624,0.96232 4.86474,2.48452 6.46334,3.38267 4.11018,2.30924 10.15819,4.41736 16.21288,5.65124 2.85969,0.58276 5.44397,1.35758 5.74286,1.72181 0.71116,0.86667 12.95807,3.41615 26.96537,5.61347 12.81552,2.01038 20.45941,2.81269 26.80301,2.81329 2.62498,2.6e-4 4.44601,0.20855 4.44601,0.50855 0,0.32137 3.64149,0.50811 9.90822,0.50811 h 9.90823 v -1.26213 -1.26212 l 2.15948,1.1351 c 1.91644,1.00734 3.06017,1.15442 10.16228,1.30677 4.73832,0.10162 8.00281,-0.0218 8.00281,-0.3026 0,-0.26085 2.9153,-0.61506 6.47845,-0.78714 4.45107,-0.21496 7.39277,-0.62849 9.40011,-1.3214 1.83855,-0.63466 2.92166,-0.80253 2.92166,-0.45283 0,0.70585 6.06254,0.26794 15.50921,-1.12029 3.79695,-0.55798 7.00533,-1.01451 7.12974,-1.01451 0.12442,0 0.22618,-0.34297 0.22618,-0.76216 0,-0.57958 0.63907,-0.76429 2.66761,-0.77099 5.45568,-0.018 16.4128,-3.10119 15.88736,-4.47045 -0.21227,-0.55316 0.0527,-0.65897 1.12713,-0.45016 3.27829,0.63711 11.81175,-2.22401 17.41024,-5.83735 1.81651,-1.1724 4.02387,-2.18757 4.90526,-2.25594 2.60379,-0.20197 7.38158,-2.94085 9.98463,-5.72373 4.60822,-4.92655 7.43304,-12.61556 16.56827,-45.09775 3.05349,-10.85732 5.80293,-20.39464 6.10987,-21.19404 0.53799,-1.40117 0.59889,-1.42331 1.69255,-0.61521 0.62398,0.46105 3.07803,1.76147 5.45347,2.88985 11.20096,5.32066 14.86709,7.26704 19.81645,10.52074 17.95958,11.80661 25.2888,24.71513 22.11994,38.95853 -3.82993,17.21484 -20.4847,30.09553 -54.63924,42.25768 -28.38672,10.10826 -60.01094,16.20405 -95.77085,18.46049 -9.30814,0.58733 -41.9029,0.5605 -52.09038,-0.0429 z" id="path20" />
    <path style="display:inline;stroke:none;stroke-width:2.54057;fill:transparent" d="m 343.38427,494.10115 c -2.37543,-0.21577 -8.77767,-0.64066 -14.2272,-0.9442 -40.4049,-2.25053 -86.04134,-13.19875 -118.65072,-28.46441 -19.46894,-9.11413 -34.90309,-22.02507 -41.02506,-34.31818 -7.38612,-14.83157 -2.65921,-31.67592 12.45387,-44.37934 8.17678,-6.87305 19.23972,-13.36656 30.81247,-18.08568 3.18561,-1.29902 7.82517,-3.38127 10.31014,-4.62721 2.48499,-1.24594 4.82317,-2.26534 5.19597,-2.26534 0.64591,0 1.31296,2.09422 1.31296,4.12205 0,1.07277 -1.65237,2.20285 -10.16228,6.95008 -12.99229,7.24774 -22.35294,14.72876 -27.03222,21.60414 -6.18485,9.08754 -8.29177,18.60234 -6.18759,27.94306 1.61572,7.17245 4.57752,12.32727 10.82819,18.8459 8.66358,9.03495 22.85438,17.97538 39.18968,24.69013 37.74525,15.51549 107.77722,25.14761 162.56624,22.35919 37.28163,-1.8974 67.92156,-7.32723 97.8046,-17.33235 33.79149,-11.31371 52.02291,-23.31617 59.72071,-39.3165 2.89589,-6.01929 3.74108,-9.71684 3.71665,-16.25966 -0.0173,-4.61083 -0.25313,-6.30084 -1.34761,-9.65417 -4.56759,-13.99454 -17.71864,-25.86412 -40.00214,-36.1042 -3.95842,-1.81905 -7.72921,-3.70014 -8.37954,-4.18021 -1.37943,-1.01827 -2.15307,-2.55331 -1.88928,-3.74863 0.1647,-0.7463 0.66515,-0.66907 4.34962,0.67128 12.10043,4.40189 27.59078,11.82106 35.6666,17.08266 15.53278,10.11997 24.88849,21.76294 27.48179,34.20047 2.4631,11.81308 -7.02886,27.14685 -25.05746,40.47901 -20.5798,15.21876 -51.62543,26.04841 -99.98224,34.8768 -14.50299,2.64779 -24.51024,3.75721 -44.20594,4.90072 -4.4714,0.2596 -10.98797,0.69726 -14.48125,0.97257 -7.32334,0.57714 -42.36939,0.56424 -48.77896,-0.018 z" id="path19-1" />
    <path style="fill:transparent;stroke-width:1.67376;fill-opacity:1;stroke:none" d="M 3.0127599,59.753071 V 2.6780088 H 79.503386 155.99401 V 59.753071 116.82813 H 79.503386 3.0127599 Z M 86.514225,107.44657 c 12.726491,-0.92847 23.961385,-4.00565 29.777405,-8.155869 7.12638,-5.085278 7.90762,-10.441831 2.28247,-15.649721 -1.9416,-1.797584 -5.65573,-3.951108 -8.89219,-5.155864 -0.89255,-0.332247 -1.68601,-0.768752 -1.76324,-0.970008 -0.1232,-0.321063 0.33311,-2.087826 2.85942,-11.07122 0.47293,-1.681702 0.88023,-2.309879 2.47663,-3.81969 2.13164,-2.016012 3.74675,-4.952713 4.09271,-7.441604 0.51619,-3.713618 -1.88297,-7.605549 -5.76099,-9.345498 l -2.09417,-0.939586 -0.73845,-2.541457 c -0.78907,-2.715682 -1.42461,-3.489596 -4.73812,-5.76973 -1.22793,-0.844982 -1.84314,-1.637216 -2.89324,-3.725772 -2.185933,-4.347596 -4.295588,-5.698854 -10.143187,-6.496822 -2.860867,-0.390396 -2.922716,-0.418269 -3.136765,-1.413637 -0.316678,-1.472618 -0.958138,-2.603394 -2.463487,-4.34269 -0.887958,-1.025955 -1.263009,-1.731114 -1.126545,-2.118099 0.583786,-1.655532 3.355411,-3.570587 7.684048,-5.309292 3.36949,-1.353441 4.137041,-1.911928 4.137041,-3.010207 0,-1.8198988 -3.476413,-1.9030138 -7.107757,-0.1699338 -2.391883,1.1415408 -6.917772,4.8384798 -7.844975,6.4081138 -0.605846,1.025612 -0.629309,1.032711 -2.685785,0.812481 -3.075968,-0.329408 -5.480897,0.513381 -7.653294,2.682035 -1.344233,1.341917 -1.80851,2.106148 -2.25957,3.719413 -0.312242,1.116758 -0.567711,2.43484 -0.567711,2.929073 0,0.707749 -0.159971,0.899299 -0.75319,0.901874 -1.479115,0.0064 -4.345725,1.674841 -6.232436,3.627388 -1.442714,1.493055 -2.18166,1.998488 -3.147825,2.15309 -2.910029,0.465648 -6.064448,2.897038 -7.544979,5.815575 -0.359526,0.708725 -0.760002,2.216206 -0.889946,3.349951 -0.262522,2.290444 -0.623286,2.761603 -3.287199,4.293086 -2.707882,1.556757 -4.066971,3.875832 -4.447369,7.588747 -0.358786,3.501945 0.267848,5.659871 2.359557,8.125561 1.314738,1.5498 1.835423,2.470507 2.017518,3.567499 0.134992,0.813225 0.90895,3.709581 1.719904,6.43635 0.810958,2.726769 1.396344,5.08417 1.30086,5.238667 -0.09549,0.154498 -2.03442,1.19773 -4.308746,2.318289 -6.403966,3.155233 -8.970857,6.121031 -9.011273,10.41167 -0.0586,6.221285 7.344494,11.525127 20.793759,14.897387 8.844201,2.21759 19.135849,2.96239 29.991117,2.17045 z" id="path3" transform="matrix(4.867969,0,0,4.867969,-13.214613,-23.638741)" />
  </g>
</svg>