<?xml version='1.0' encoding='utf-8'?>
<svg xmlns="http://www.w3.org/2000/svg" xmlns:ns1="http://www.inkscape.org/namespaces/inkscape" xmlns:ns2="http://sodipodi.sourceforge.net/DTD/sodipodi-0.dtd" viewBox="0 0 158.75 119.0625" version="1.1" id="svg1" ns1:version="1.4.2 (f4327f4, 2025-05-13)" ns2:docname="38 Watermalon.svg" ns1:export-filename="Dinosore 1.svg" ns1:export-xdpi="96" ns1:export-ydpi="96">
  <ns2:namedview id="namedview1" pagecolor="#ffffff" bordercolor="#000000" borderopacity="0.25" ns1:showpageshadow="2" ns1:pageopacity="0.0" ns1:pagecheckerboard="0" ns1:deskcolor="#d1d1d1" ns1:document-units="mm" ns1:zoom="0.89619809" ns1:cx="333.6316" ns1:cy="169.04745" ns1:window-width="1366" ns1:window-height="705" ns1:window-x="-8" ns1:window-y="-8" ns1:window-maximized="1" ns1:current-layer="layer2" showgrid="false" />
  <defs id="defs1">
    <clipPath clipPathUnits="userSpaceOnUse" id="clipPath3">
      <path d="M 0,500 H 500 V 0 H 0 Z" transform="translate(-432.53711,-135.74711)" id="path3" />
    </clipPath>
    <clipPath clipPathUnits="userSpaceOnUse" id="clipPath5">
      <path d="M 0,500 H 500 V 0 H 0 Z" transform="translate(-151.34181,-199.4336)" id="path5" />
    </clipPath>
    <clipPath clipPathUnits="userSpaceOnUse" id="clipPath7">
      <path d="M 0,500 H 500 V 0 H 0 Z" transform="translate(-151.34181,-199.4336)" id="path7" />
    </clipPath>
    <clipPath clipPathUnits="userSpaceOnUse" id="clipPath9">
      <path d="M 0,500 H 500 V 0 H 0 Z" transform="translate(-182.0161,-196.83011)" id="path9" />
    </clipPath>
    <clipPath clipPathUnits="userSpaceOnUse" id="clipPath11">
      <path d="M 0,500 H 500 V 0 H 0 Z" transform="translate(-270.2578,-262.13381)" id="path11" />
    </clipPath>
    <clipPath clipPathUnits="userSpaceOnUse" id="clipPath13">
      <path d="M 0,500 H 500 V 0 H 0 Z" transform="translate(-270.2578,-262.13381)" id="path13" />
    </clipPath>
    <clipPath clipPathUnits="userSpaceOnUse" id="clipPath15">
      <path d="M 0,500 H 500 V 0 H 0 Z" transform="translate(-270.73731,-316.68121)" id="path15" />
    </clipPath>
    <clipPath clipPathUnits="userSpaceOnUse" id="clipPath17">
      <path d="M 0,500 H 500 V 0 H 0 Z" transform="translate(-243.895,-297.82131)" id="path17" />
    </clipPath>
    <clipPath clipPathUnits="userSpaceOnUse" id="clipPath19">
      <path d="M 0,500 H 500 V 0 H 0 Z" transform="translate(-243.895,-297.82131)" id="path19" />
    </clipPath>
    <clipPath clipPathUnits="userSpaceOnUse" id="clipPath21">
      <path d="M 0,500 H 500 V 0 H 0 Z" transform="translate(-227.96341,-327.47461)" id="path21" />
    </clipPath>
    <clipPath clipPathUnits="userSpaceOnUse" id="clipPath23">
      <path d="M 0,500 H 500 V 0 H 0 Z" transform="translate(-150.6709,-325.02691)" id="path23" />
    </clipPath>
    <clipPath clipPathUnits="userSpaceOnUse" id="clipPath25">
      <path d="M 0,500 H 500 V 0 H 0 Z" transform="translate(-150.6709,-325.02691)" id="path25" />
    </clipPath>
    <clipPath clipPathUnits="userSpaceOnUse" id="clipPath27">
      <path d="M 0,500 H 500 V 0 H 0 Z" transform="translate(-115.0161,-334.36131)" id="path27" />
    </clipPath>
    <clipPath clipPathUnits="userSpaceOnUse" id="clipPath29">
      <path d="M 0,500 H 500 V 0 H 0 Z" transform="translate(-104.1924,-244.44141)" id="path29" />
    </clipPath>
    <clipPath clipPathUnits="userSpaceOnUse" id="clipPath31">
      <path d="M 0,500 H 500 V 0 H 0 Z" transform="translate(-104.1924,-244.44141)" id="path31" />
    </clipPath>
    <clipPath clipPathUnits="userSpaceOnUse" id="clipPath33">
      <path d="M 0,500 H 500 V 0 H 0 Z" transform="translate(-79.019004,-177.8154)" id="path33" />
    </clipPath>
    <clipPath clipPathUnits="userSpaceOnUse" id="clipPath35">
      <path d="M 0,500 H 500 V 0 H 0 Z" transform="translate(-105.8481,-187.5293)" id="path35" />
    </clipPath>
    <clipPath clipPathUnits="userSpaceOnUse" id="clipPath37">
      <path d="M 0,500 H 500 V 0 H 0 Z" transform="translate(-120.3486,-245.5713)" id="path37" />
    </clipPath>
    <clipPath clipPathUnits="userSpaceOnUse" id="clipPath39">
      <path d="M 0,500 H 500 V 0 H 0 Z" transform="translate(-43.031301,-294.82521)" id="path39" />
    </clipPath>
    <clipPath clipPathUnits="userSpaceOnUse" id="clipPath41">
      <path d="M 0,500 H 500 V 0 H 0 Z" transform="translate(-140.2095,-138.87791)" id="path41" />
    </clipPath>
    <clipPath clipPathUnits="userSpaceOnUse" id="clipPath43">
      <path d="M 0,500 H 500 V 0 H 0 Z" transform="translate(-140.2095,-138.87791)" id="path43" />
    </clipPath>
    <clipPath clipPathUnits="userSpaceOnUse" id="clipPath45">
      <path d="M 0,500 H 500 V 0 H 0 Z" transform="translate(-131.71041,-136.21781)" id="path45" />
    </clipPath>
    <clipPath clipPathUnits="userSpaceOnUse" id="clipPath47">
      <path d="M 0,500 H 500 V 0 H 0 Z" transform="translate(-95.863802,-329.88091)" id="path47" />
    </clipPath>
    <clipPath clipPathUnits="userSpaceOnUse" id="clipPath49">
      <path d="M 0,500 H 500 V 0 H 0 Z" transform="translate(-99.722702,-346.67581)" id="path49" />
    </clipPath>
    <clipPath clipPathUnits="userSpaceOnUse" id="clipPath51">
      <path d="M 0,500 H 500 V 0 H 0 Z" transform="translate(-99.596702,-349.59371)" id="path51" />
    </clipPath>
    <clipPath clipPathUnits="userSpaceOnUse" id="clipPath53">
      <path d="M 0,500 H 500 V 0 H 0 Z" transform="translate(-75.429699,-348.79931)" id="path53" />
    </clipPath>
    <clipPath clipPathUnits="userSpaceOnUse" id="clipPath55">
      <path d="M 0,500 H 500 V 0 H 0 Z" transform="translate(-52.736801,-378.31591)" id="path55" />
    </clipPath>
    <clipPath clipPathUnits="userSpaceOnUse" id="clipPath57">
      <path d="M 0,500 H 500 V 0 H 0 Z" transform="translate(-71.700202,-397.00241)" id="path57" />
    </clipPath>
    <clipPath clipPathUnits="userSpaceOnUse" id="clipPath59">
      <path d="M 0,500 H 500 V 0 H 0 Z" transform="translate(-49.381801,-362.78271)" id="path59" />
    </clipPath>
    <clipPath clipPathUnits="userSpaceOnUse" id="clipPath61">
      <path d="M 0,500 H 500 V 0 H 0 Z" transform="translate(-75.429699,-348.79931)" id="path61" />
    </clipPath>
    <clipPath clipPathUnits="userSpaceOnUse" id="clipPath63">
      <path d="M 0,500 H 500 V 0 H 0 Z" transform="translate(-52.736801,-378.31591)" id="path63" />
    </clipPath>
    <clipPath clipPathUnits="userSpaceOnUse" id="clipPath65">
      <path d="M 0,500 H 500 V 0 H 0 Z" transform="translate(-87.7402,-374.77391)" id="path65" />
    </clipPath>
    <clipPath clipPathUnits="userSpaceOnUse" id="clipPath67">
      <path d="M 0,500 H 500 V 0 H 0 Z" transform="translate(-90.202105,-372.51071)" id="path67" />
    </clipPath>
    <clipPath clipPathUnits="userSpaceOnUse" id="clipPath69">
      <path d="M 0,500 H 500 V 0 H 0 Z" transform="translate(-43.860801,-338.97661)" id="path69" />
    </clipPath>
    <clipPath clipPathUnits="userSpaceOnUse" id="clipPath71">
      <path d="M 0,500 H 500 V 0 H 0 Z" transform="translate(-62.706502,-345.08251)" id="path71" />
    </clipPath>
    <clipPath clipPathUnits="userSpaceOnUse" id="clipPath73">
      <path d="M 0,500 H 500 V 0 H 0 Z" transform="translate(-32.944801,-364.06201)" id="path73" />
    </clipPath>
    <clipPath clipPathUnits="userSpaceOnUse" id="clipPath75">
      <path d="M 0,500 H 500 V 0 H 0 Z" transform="translate(-32.363801,-386.02201)" id="path75" />
    </clipPath>
    <clipPath clipPathUnits="userSpaceOnUse" id="clipPath77">
      <path d="M 0,500 H 500 V 0 H 0 Z" transform="translate(-42.559601,-382.52731)" id="path77" />
    </clipPath>
    <clipPath clipPathUnits="userSpaceOnUse" id="clipPath79">
      <path d="M 0,500 H 500 V 0 H 0 Z" transform="translate(-72.010702,-416.37261)" id="path79" />
    </clipPath>
    <clipPath clipPathUnits="userSpaceOnUse" id="clipPath81">
      <path d="M 0,500 H 500 V 0 H 0 Z" transform="translate(-88.275902,-375.45461)" id="path81" />
    </clipPath>
    <clipPath clipPathUnits="userSpaceOnUse" id="clipPath83">
      <path d="M 0,500 H 500 V 0 H 0 Z" transform="translate(-125.0845,-367.83841)" id="path83" />
    </clipPath>
    <clipPath clipPathUnits="userSpaceOnUse" id="clipPath85">
      <path d="M 0,500 H 500 V 0 H 0 Z" transform="translate(-88.761205,-375.09231)" id="path85" />
    </clipPath>
    <clipPath clipPathUnits="userSpaceOnUse" id="clipPath87">
      <path d="M 0,500 H 500 V 0 H 0 Z" transform="translate(-125.2983,-381.78861)" id="path87" />
    </clipPath>
    <clipPath clipPathUnits="userSpaceOnUse" id="clipPath89">
      <path d="M 0,500 H 500 V 0 H 0 Z" transform="translate(-96.329605,-397.87451)" id="path89" />
    </clipPath>
    <clipPath clipPathUnits="userSpaceOnUse" id="clipPath91">
      <path d="M 0,500 H 500 V 0 H 0 Z" transform="translate(-87.3955,-382.24561)" id="path91" />
    </clipPath>
    <clipPath clipPathUnits="userSpaceOnUse" id="clipPath93">
      <path d="M 0,500 H 500 V 0 H 0 Z" transform="translate(-125.2983,-381.78861)" id="path93" />
    </clipPath>
    <clipPath clipPathUnits="userSpaceOnUse" id="clipPath95">
      <path d="M 0,500 H 500 V 0 H 0 Z" transform="translate(-71.700202,-397.00241)" id="path95" />
    </clipPath>
    <clipPath clipPathUnits="userSpaceOnUse" id="clipPath97">
      <path d="M 0,500 H 500 V 0 H 0 Z" transform="translate(-139.3882,-350.70461)" id="path97" />
    </clipPath>
    <clipPath clipPathUnits="userSpaceOnUse" id="clipPath99">
      <path d="M 0,500 H 500 V 0 H 0 Z" transform="translate(-97.266602,-377.96481)" id="path99" />
    </clipPath>
    <clipPath clipPathUnits="userSpaceOnUse" id="clipPath101">
      <path d="M 0,500 H 500 V 0 H 0 Z" transform="translate(-119.97171,-375.45461)" id="path101" />
    </clipPath>
    <clipPath clipPathUnits="userSpaceOnUse" id="clipPath103">
      <path d="M 0,500 H 500 V 0 H 0 Z" transform="translate(-437.25881,-102.749)" id="path103" />
    </clipPath>
    <clipPath clipPathUnits="userSpaceOnUse" id="clipPath105">
      <path d="M 0,500 H 500 V 0 H 0 Z" transform="translate(-153.0757,-110.08691)" id="path105" />
    </clipPath>
    <clipPath clipPathUnits="userSpaceOnUse" id="clipPath107">
      <path d="M 0,500 H 500 V 0 H 0 Z" transform="translate(-68.039602,-123.2412)" id="path107" />
    </clipPath>
    <clipPath clipPathUnits="userSpaceOnUse" id="clipPath109">
      <path d="M 0,500 H 500 V 0 H 0 Z" transform="translate(-98.763205,-118.9268)" id="path109" />
    </clipPath>
    <clipPath clipPathUnits="userSpaceOnUse" id="clipPath111">
      <path d="M 0,500 H 500 V 0 H 0 Z" transform="translate(-94.1626,-133.752)" id="path111" />
    </clipPath>
    <clipPath clipPathUnits="userSpaceOnUse" id="clipPath113">
      <path d="M 0,500 H 500 V 0 H 0 Z" transform="translate(-130.0093,-133.8818)" id="path113" />
    </clipPath>
    <clipPath clipPathUnits="userSpaceOnUse" id="clipPath115">
      <path d="M 0,500 H 500 V 0 H 0 Z" transform="translate(-216.42291,-119.5391)" id="path115" />
    </clipPath>
    <clipPath clipPathUnits="userSpaceOnUse" id="clipPath117">
      <path d="M 0,500 H 500 V 0 H 0 Z" transform="translate(-216.4243,-119.54)" id="path117" />
    </clipPath>
    <clipPath clipPathUnits="userSpaceOnUse" id="clipPath119">
      <path d="M 0,500 H 500 V 0 H 0 Z" transform="translate(-216.42291,-119.5391)" id="path119" />
    </clipPath>
    <clipPath clipPathUnits="userSpaceOnUse" id="clipPath121">
      <path d="M 0,500 H 500 V 0 H 0 Z" transform="translate(-432.46971,-121.0557)" id="path121" />
    </clipPath>
    <clipPath clipPathUnits="userSpaceOnUse" id="clipPath123">
      <path d="M 0,500 H 500 V 0 H 0 Z" transform="translate(-427.03711,-133.8525)" id="path123" />
    </clipPath>
    <clipPath clipPathUnits="userSpaceOnUse" id="clipPath125">
      <path d="M 0,500 H 500 V 0 H 0 Z" transform="translate(-405.37791,-144.78911)" id="path125" />
    </clipPath>
    <clipPath clipPathUnits="userSpaceOnUse" id="clipPath127">
      <path d="M 0,500 H 500 V 0 H 0 Z" transform="translate(-404.70611,-137.2754)" id="path127" />
    </clipPath>
    <clipPath clipPathUnits="userSpaceOnUse" id="clipPath129">
      <path d="M 0,500 H 500 V 0 H 0 Z" transform="translate(-432.46971,-121.0557)" id="path129" />
    </clipPath>
    <clipPath clipPathUnits="userSpaceOnUse" id="clipPath131">
      <path d="M 0,500 H 500 V 0 H 0 Z" transform="translate(-327.13481,-114.4746)" id="path131" />
    </clipPath>
    <clipPath clipPathUnits="userSpaceOnUse" id="clipPath133">
      <path d="M 0,500 H 500 V 0 H 0 Z" transform="translate(-376.72071,-396.30321)" id="path133" />
    </clipPath>
    <clipPath clipPathUnits="userSpaceOnUse" id="clipPath135">
      <path d="M 0,500 H 500 V 0 H 0 Z" transform="translate(-345.24221,-355.45311)" id="path135" />
    </clipPath>
    <clipPath clipPathUnits="userSpaceOnUse" id="clipPath137">
      <path d="M 0,500 H 500 V 0 H 0 Z" transform="translate(-315.50001,-373.42481)" id="path137" />
    </clipPath>
    <clipPath clipPathUnits="userSpaceOnUse" id="clipPath139">
      <path d="M 0,500 H 500 V 0 H 0 Z" transform="translate(-312.87011,-392.23001)" id="path139" />
    </clipPath>
    <clipPath clipPathUnits="userSpaceOnUse" id="clipPath141">
      <path d="M 0,500 H 500 V 0 H 0 Z" transform="translate(-328.25681,-433.48831)" id="path141" />
    </clipPath>
    <clipPath clipPathUnits="userSpaceOnUse" id="clipPath143">
      <path d="M 0,500 H 500 V 0 H 0 Z" transform="translate(-371.31351,-429.34471)" id="path143" />
    </clipPath>
    <clipPath clipPathUnits="userSpaceOnUse" id="clipPath145">
      <path d="M 0,500 H 500 V 0 H 0 Z" transform="translate(-356.50101,-401.37401)" id="path145" />
    </clipPath>
    <clipPath clipPathUnits="userSpaceOnUse" id="clipPath147">
      <path d="M 0,500 H 500 V 0 H 0 Z" transform="translate(-356.68651,-383.02541)" id="path147" />
    </clipPath>
    <clipPath clipPathUnits="userSpaceOnUse" id="clipPath149">
      <path d="M 0,500 H 500 V 0 H 0 Z" transform="translate(-339.52251,-412.63771)" id="path149" />
    </clipPath>
    <clipPath clipPathUnits="userSpaceOnUse" id="clipPath151">
      <path d="M 0,500 H 500 V 0 H 0 Z" transform="translate(-376.35061,-419.38281)" id="path151" />
    </clipPath>
    <clipPath clipPathUnits="userSpaceOnUse" id="clipPath153">
      <path d="M 0,500 H 500 V 0 H 0 Z" transform="translate(-364.11821,-384.56741)" id="path153" />
    </clipPath>
    <clipPath clipPathUnits="userSpaceOnUse" id="clipPath155">
      <path d="M 0,500 H 500 V 0 H 0 Z" transform="translate(-376.72071,-396.30321)" id="path155" />
    </clipPath>
    <clipPath clipPathUnits="userSpaceOnUse" id="clipPath157">
      <path d="M 0,500 H 500 V 0 H 0 Z" transform="translate(-313.61911,-296.27291)" id="path157" />
    </clipPath>
    <clipPath clipPathUnits="userSpaceOnUse" id="clipPath159">
      <path d="M 0,500 H 500 V 0 H 0 Z" transform="translate(-305.04881,-316.07621)" id="path159" />
    </clipPath>
    <clipPath clipPathUnits="userSpaceOnUse" id="clipPath161">
      <path d="M 0,500 H 500 V 0 H 0 Z" transform="translate(-300.53611,-275.20511)" id="path161" />
    </clipPath>
    <clipPath clipPathUnits="userSpaceOnUse" id="clipPath163">
      <path d="M 0,500 H 500 V 0 H 0 Z" transform="translate(-319.84181,-243.67191)" id="path163" />
    </clipPath>
    <clipPath clipPathUnits="userSpaceOnUse" id="clipPath165">
      <path d="M 0,500 H 500 V 0 H 0 Z" transform="translate(-338.39361,-241.03421)" id="path165" />
    </clipPath>
    <clipPath clipPathUnits="userSpaceOnUse" id="clipPath167">
      <path d="M 0,500 H 500 V 0 H 0 Z" transform="translate(-320.49711,-352.96141)" id="path167" />
    </clipPath>
    <clipPath clipPathUnits="userSpaceOnUse" id="clipPath169">
      <path d="M 0,500 H 500 V 0 H 0 Z" transform="translate(-431.04981,-326.64161)" id="path169" />
    </clipPath>
    <clipPath clipPathUnits="userSpaceOnUse" id="clipPath171">
      <path d="M 0,500 H 500 V 0 H 0 Z" transform="translate(-372.06351,-226.83401)" id="path171" />
    </clipPath>
    <clipPath clipPathUnits="userSpaceOnUse" id="clipPath173">
      <path d="M 0,500 H 500 V 0 H 0 Z" transform="translate(-399.95511,-220.86041)" id="path173" />
    </clipPath>
    <clipPath clipPathUnits="userSpaceOnUse" id="clipPath175">
      <path d="M 0,500 H 500 V 0 H 0 Z" transform="translate(-323.42581,-269.89451)" id="path175" />
    </clipPath>
    <clipPath clipPathUnits="userSpaceOnUse" id="clipPath177">
      <path d="M 0,500 H 500 V 0 H 0 Z" transform="translate(-355.10741,-259.54641)" id="path177" />
    </clipPath>
    <clipPath clipPathUnits="userSpaceOnUse" id="clipPath179">
      <path d="M 0,500 H 500 V 0 H 0 Z" transform="translate(-313.61911,-296.27291)" id="path179" />
    </clipPath>
    <clipPath clipPathUnits="userSpaceOnUse" id="clipPath181">
      <path d="M 0,500 H 500 V 0 H 0 Z" transform="translate(-369.42681,-281.5425)" id="path181" />
    </clipPath>
    <clipPath clipPathUnits="userSpaceOnUse" id="clipPath183">
      <path d="M 0,500 H 500 V 0 H 0 Z" transform="translate(-336.97751,-317.55571)" id="path183" />
    </clipPath>
    <clipPath clipPathUnits="userSpaceOnUse" id="clipPath185">
      <path d="M 0,500 H 500 V 0 H 0 Z" transform="translate(-313.62011,-296.27151)" id="path185" />
    </clipPath>
    <clipPath clipPathUnits="userSpaceOnUse" id="clipPath187">
      <path d="M 0,500 H 500 V 0 H 0 Z" transform="translate(-369.07811,-322.24461)" id="path187" />
    </clipPath>
    <clipPath clipPathUnits="userSpaceOnUse" id="clipPath189">
      <path d="M 0,500 H 500 V 0 H 0 Z" transform="translate(-336.97751,-317.55571)" id="path189" />
    </clipPath>
    <clipPath clipPathUnits="userSpaceOnUse" id="clipPath191">
      <path d="M 0,500 H 500 V 0 H 0 Z" transform="translate(-401.02541,-318.82371)" id="path191" />
    </clipPath>
    <clipPath clipPathUnits="userSpaceOnUse" id="clipPath193">
      <path d="M 0,500 H 500 V 0 H 0 Z" transform="translate(-369.07811,-322.24411)" id="path193" />
    </clipPath>
    <clipPath clipPathUnits="userSpaceOnUse" id="clipPath195">
      <path d="M 0,500 H 500 V 0 H 0 Z" transform="translate(-401.98341,-287.1846)" id="path195" />
    </clipPath>
    <clipPath clipPathUnits="userSpaceOnUse" id="clipPath197">
      <path d="M 0,500 H 500 V 0 H 0 Z" transform="translate(-401.02541,-318.82371)" id="path197" />
    </clipPath>
    <clipPath clipPathUnits="userSpaceOnUse" id="clipPath199">
      <path d="M 0,500 H 500 V 0 H 0 Z" transform="translate(-385.65231,-244.13481)" id="path199" />
    </clipPath>
    <clipPath clipPathUnits="userSpaceOnUse" id="clipPath201">
      <path d="M 0,500 H 500 V 0 H 0 Z" transform="translate(-361.43161,-257.66991)" id="path201" />
    </clipPath>
    <clipPath clipPathUnits="userSpaceOnUse" id="clipPath203">
      <path d="M 0,500 H 500 V 0 H 0 Z" transform="translate(-361.72851,-265.84031)" id="path203" />
    </clipPath>
    <clipPath clipPathUnits="userSpaceOnUse" id="clipPath205">
      <path d="M 0,500 H 500 V 0 H 0 Z" transform="translate(-402.13871,-265.52591)" id="path205" />
    </clipPath>
    <clipPath clipPathUnits="userSpaceOnUse" id="clipPath207">
      <path d="M 0,500 H 500 V 0 H 0 Z" transform="translate(-385.65231,-244.13571)" id="path207" />
    </clipPath>
    <clipPath clipPathUnits="userSpaceOnUse" id="clipPath209">
      <path d="M 0,500 H 500 V 0 H 0 Z" transform="translate(-402.13771,-265.52541)" id="path209" />
    </clipPath>
    <clipPath clipPathUnits="userSpaceOnUse" id="clipPath211">
      <path d="M 0,500 H 500 V 0 H 0 Z" transform="translate(-355.10741,-259.54641)" id="path211" />
    </clipPath>
    <clipPath clipPathUnits="userSpaceOnUse" id="clipPath213">
      <path d="M 0,500 H 500 V 0 H 0 Z" transform="translate(-242.46831,-133.5723)" id="path213" />
    </clipPath>
    <clipPath clipPathUnits="userSpaceOnUse" id="clipPath215">
      <path d="M 0,500 H 500 V 0 H 0 Z" transform="translate(-210.0742,-231.25001)" id="path215" />
    </clipPath>
    <clipPath clipPathUnits="userSpaceOnUse" id="clipPath217">
      <path d="M 0,500 H 500 V 0 H 0 Z" transform="translate(-184.9072,-258.88431)" id="path217" />
    </clipPath>
    <clipPath clipPathUnits="userSpaceOnUse" id="clipPath219">
      <path d="M 0,500 H 500 V 0 H 0 Z" transform="translate(-148.6821,-295.10451)" id="path219" />
    </clipPath>
    <clipPath clipPathUnits="userSpaceOnUse" id="clipPath221">
      <path d="M 0,500 H 500 V 0 H 0 Z" transform="translate(-147.19731,-276.85691)" id="path221" />
    </clipPath>
    <clipPath clipPathUnits="userSpaceOnUse" id="clipPath223">
      <path d="M 0,500 H 500 V 0 H 0 Z" transform="translate(-145.4277,-259.17381)" id="path223" />
    </clipPath>
    <clipPath clipPathUnits="userSpaceOnUse" id="clipPath225">
      <path d="M 0,500 H 500 V 0 H 0 Z" transform="translate(-144.6172,-243.18261)" id="path225" />
    </clipPath>
    <clipPath clipPathUnits="userSpaceOnUse" id="clipPath227">
      <path d="M 0,500 H 500 V 0 H 0 Z" transform="translate(-145.23831,-226.34181)" id="path227" />
    </clipPath>
    <clipPath clipPathUnits="userSpaceOnUse" id="clipPath229">
      <path d="M 0,500 H 500 V 0 H 0 Z" transform="translate(-148.04301,-210.12111)" id="path229" />
    </clipPath>
    <clipPath clipPathUnits="userSpaceOnUse" id="clipPath231">
      <path d="M 0,500 H 500 V 0 H 0 Z" transform="translate(-154.3618,-192.44921)" id="path231" />
    </clipPath>
    <clipPath clipPathUnits="userSpaceOnUse" id="clipPath233">
      <path d="M 0,500 H 500 V 0 H 0 Z" transform="translate(-163.56201,-176.61521)" id="path233" />
    </clipPath>
    <clipPath clipPathUnits="userSpaceOnUse" id="clipPath235">
      <path d="M 0,500 H 500 V 0 H 0 Z" transform="translate(-179.42721,-158.4932)" id="path235" />
    </clipPath>
    <clipPath clipPathUnits="userSpaceOnUse" id="clipPath237">
      <path d="M 0,500 H 500 V 0 H 0 Z" transform="translate(-168.06741,-111.37211)" id="path237" />
    </clipPath>
    <clipPath clipPathUnits="userSpaceOnUse" id="clipPath239">
      <path d="M 0,500 H 500 V 0 H 0 Z" transform="translate(-171.1729,-117.8379)" id="path239" />
    </clipPath>
    <clipPath clipPathUnits="userSpaceOnUse" id="clipPath241">
      <path d="M 0,500 H 500 V 0 H 0 Z" transform="translate(-262.65531,-102.97271)" id="path241" />
    </clipPath>
    <clipPath clipPathUnits="userSpaceOnUse" id="clipPath243">
      <path d="M 0,500 H 500 V 0 H 0 Z" transform="translate(-256.89841,-105.15821)" id="path243" />
    </clipPath>
    <clipPath clipPathUnits="userSpaceOnUse" id="clipPath245">
      <path d="M 0,500 H 500 V 0 H 0 Z" transform="translate(-197.36961,-145.5762)" id="path245" />
    </clipPath>
    <clipPath clipPathUnits="userSpaceOnUse" id="clipPath247">
      <path d="M 0,500 H 500 V 0 H 0 Z" transform="translate(-218.4478,-137.4365)" id="path247" />
    </clipPath>
    <clipPath clipPathUnits="userSpaceOnUse" id="clipPath249">
      <path d="M 0,500 H 500 V 0 H 0 Z" transform="translate(-252.6064,-248.63481)" id="path249" />
    </clipPath>
    <clipPath clipPathUnits="userSpaceOnUse" id="clipPath251">
      <path d="M 0,500 H 500 V 0 H 0 Z" transform="translate(-263.56351,-232.1865)" id="path251" />
    </clipPath>
    <clipPath clipPathUnits="userSpaceOnUse" id="clipPath253">
      <path d="M 0,500 H 500 V 0 H 0 Z" transform="translate(-280.915,-228.33591)" id="path253" />
    </clipPath>
    <clipPath clipPathUnits="userSpaceOnUse" id="clipPath255">
      <path d="M 0,500 H 500 V 0 H 0 Z" transform="translate(-279.01861,-215.27831)" id="path255" />
    </clipPath>
    <clipPath clipPathUnits="userSpaceOnUse" id="clipPath257">
      <path d="M 0,500 H 500 V 0 H 0 Z" transform="translate(-267.748,-214.49321)" id="path257" />
    </clipPath>
    <clipPath clipPathUnits="userSpaceOnUse" id="clipPath259">
      <path d="M 0,500 H 500 V 0 H 0 Z" transform="translate(-309.81641,-206.8818)" id="path259" />
    </clipPath>
    <clipPath clipPathUnits="userSpaceOnUse" id="clipPath261">
      <path d="M 0,500 H 500 V 0 H 0 Z" transform="translate(-322.25681,-187.8135)" id="path261" />
    </clipPath>
    <clipPath clipPathUnits="userSpaceOnUse" id="clipPath263">
      <path d="M 0,500 H 500 V 0 H 0 Z" transform="translate(-329.74901,-169.2236)" id="path263" />
    </clipPath>
    <clipPath clipPathUnits="userSpaceOnUse" id="clipPath265">
      <path d="M 0,500 H 500 V 0 H 0 Z" transform="translate(-341.73931,-143.08301)" id="path265" />
    </clipPath>
    <clipPath clipPathUnits="userSpaceOnUse" id="clipPath267">
      <path d="M 0,500 H 500 V 0 H 0 Z" transform="translate(-354.48051,-143.9541)" id="path267" />
    </clipPath>
    <clipPath clipPathUnits="userSpaceOnUse" id="clipPath269">
      <path d="M 0,500 H 500 V 0 H 0 Z" transform="translate(-341.77441,-168.3789)" id="path269" />
    </clipPath>
    <clipPath clipPathUnits="userSpaceOnUse" id="clipPath271">
      <path d="M 0,500 H 500 V 0 H 0 Z" transform="translate(-385.95121,-98.459002)" id="path271" />
    </clipPath>
    <clipPath clipPathUnits="userSpaceOnUse" id="clipPath273">
      <path d="M 0,500 H 500 V 0 H 0 Z" transform="translate(-379.38281,-132.7695)" id="path273" />
    </clipPath>
    <clipPath clipPathUnits="userSpaceOnUse" id="clipPath275">
      <path d="M 0,500 H 500 V 0 H 0 Z" transform="translate(-180.59571,-341.57131)" id="path275" />
    </clipPath>
    <clipPath clipPathUnits="userSpaceOnUse" id="clipPath277">
      <path d="M 0,500 H 500 V 0 H 0 Z" transform="translate(-189.04101,-346.05371)" id="path277" />
    </clipPath>
    <clipPath clipPathUnits="userSpaceOnUse" id="clipPath279">
      <path d="M 0,500 H 500 V 0 H 0 Z" transform="translate(-184.69431,-261.6948)" id="path279" />
    </clipPath>
    <clipPath clipPathUnits="userSpaceOnUse" id="clipPath281">
      <path d="M 0,500 H 500 V 0 H 0 Z" transform="translate(-198.0361,-215.9238)" id="path281" />
    </clipPath>
    <clipPath clipPathUnits="userSpaceOnUse" id="clipPath283">
      <path d="M 0,500 H 500 V 0 H 0 Z" transform="translate(-187.3789,-215.26761)" id="path283" />
    </clipPath>
    <clipPath clipPathUnits="userSpaceOnUse" id="clipPath285">
      <path d="M 0,500 H 500 V 0 H 0 Z" transform="translate(-180.43551,-218.77541)" id="path285" />
    </clipPath>
    <clipPath clipPathUnits="userSpaceOnUse" id="clipPath287">
      <path d="M 0,500 H 500 V 0 H 0 Z" transform="translate(-175.2612,-228.13961)" id="path287" />
    </clipPath>
    <clipPath clipPathUnits="userSpaceOnUse" id="clipPath289">
      <path d="M 0,500 H 500 V 0 H 0 Z" transform="translate(-244.6279,-404.04541)" id="path289" />
    </clipPath>
    <clipPath clipPathUnits="userSpaceOnUse" id="clipPath291">
      <path d="M 0,500 H 500 V 0 H 0 Z" transform="translate(-228.89061,-353.46631)" id="path291" />
    </clipPath>
    <clipPath clipPathUnits="userSpaceOnUse" id="clipPath293">
      <path d="M 0,500 H 500 V 0 H 0 Z" transform="translate(-183.4443,-384.64701)" id="path293" />
    </clipPath>
    <clipPath clipPathUnits="userSpaceOnUse" id="clipPath295">
      <path d="M 0,500 H 500 V 0 H 0 Z" transform="translate(-225.19921,-396.14601)" id="path295" />
    </clipPath>
    <clipPath clipPathUnits="userSpaceOnUse" id="clipPath297">
      <path d="M 0,500 H 500 V 0 H 0 Z" transform="translate(-203.1001,-348.71041)" id="path297" />
    </clipPath>
    <clipPath clipPathUnits="userSpaceOnUse" id="clipPath299">
      <path d="M 0,500 H 500 V 0 H 0 Z" transform="translate(-165.3213,-379.77441)" id="path299" />
    </clipPath>
    <clipPath clipPathUnits="userSpaceOnUse" id="clipPath301">
      <path d="M 0,500 H 500 V 0 H 0 Z" transform="translate(-177.6465,-379.95211)" id="path301" />
    </clipPath>
    <clipPath clipPathUnits="userSpaceOnUse" id="clipPath303">
      <path d="M 0,500 H 500 V 0 H 0 Z" transform="translate(-230.05221,-388.11181)" id="path303" />
    </clipPath>
    <clipPath clipPathUnits="userSpaceOnUse" id="clipPath305">
      <path d="M 0,500 H 500 V 0 H 0 Z" transform="translate(-211.17331,-139.4316)" id="path305" />
    </clipPath>
    <clipPath clipPathUnits="userSpaceOnUse" id="clipPath307">
      <path d="M 0,500 H 500 V 0 H 0 Z" transform="translate(-162.37701,-177.70511)" id="path307" />
    </clipPath>
    <clipPath clipPathUnits="userSpaceOnUse" id="clipPath309">
      <path d="M 0,500 H 500 V 0 H 0 Z" transform="translate(-146.4858,-215.95611)" id="path309" />
    </clipPath>
    <clipPath clipPathUnits="userSpaceOnUse" id="clipPath311">
      <path d="M 0,500 H 500 V 0 H 0 Z" transform="translate(-147.6426,-281.3652)" id="path311" />
    </clipPath>
    <clipPath clipPathUnits="userSpaceOnUse" id="clipPath313">
      <path d="M 0,500 H 500 V 0 H 0 Z" transform="translate(-212.31691,-438.15091)" id="path313" />
    </clipPath>
    <clipPath clipPathUnits="userSpaceOnUse" id="clipPath315">
      <path d="M 0,500 H 500 V 0 H 0 Z" transform="translate(-217.1611,-433.01421)" id="path315" />
    </clipPath>
    <clipPath clipPathUnits="userSpaceOnUse" id="clipPath317">
      <path d="M 0,500 H 500 V 0 H 0 Z" transform="translate(-147.6421,-281.3652)" id="path317" />
    </clipPath>
    <clipPath clipPathUnits="userSpaceOnUse" id="clipPath319">
      <path d="M 0,500 H 500 V 0 H 0 Z" transform="translate(-161.75781,-91.345702)" id="path319" />
    </clipPath>
    <clipPath clipPathUnits="userSpaceOnUse" id="clipPath321">
      <path d="M 0,500 H 500 V 0 H 0 Z" transform="translate(-175.57281,-91.524405)" id="path321" />
    </clipPath>
    <clipPath clipPathUnits="userSpaceOnUse" id="clipPath323">
      <path d="M 0,500 H 500 V 0 H 0 Z" transform="translate(-151.83351,-93.239302)" id="path323" />
    </clipPath>
    <clipPath clipPathUnits="userSpaceOnUse" id="clipPath325">
      <path d="M 0,500 H 500 V 0 H 0 Z" transform="translate(-164.938,-102.69731)" id="path325" />
    </clipPath>
    <clipPath clipPathUnits="userSpaceOnUse" id="clipPath327">
      <path d="M 0,500 H 500 V 0 H 0 Z" transform="translate(-149.7358,-106.25591)" id="path327" />
    </clipPath>
    <clipPath clipPathUnits="userSpaceOnUse" id="clipPath329">
      <path d="M 0,500 H 500 V 0 H 0 Z" transform="translate(-154.3066,-102.4287)" id="path329" />
    </clipPath>
    <clipPath clipPathUnits="userSpaceOnUse" id="clipPath331">
      <path d="M 0,500 H 500 V 0 H 0 Z" transform="translate(-149.7363,-106.2539)" id="path331" />
    </clipPath>
    <clipPath clipPathUnits="userSpaceOnUse" id="clipPath333">
      <path d="M 0,500 H 500 V 0 H 0 Z" transform="translate(-200.9458,-119.4854)" id="path333" />
    </clipPath>
    <clipPath clipPathUnits="userSpaceOnUse" id="clipPath335">
      <path d="M 0,500 H 500 V 0 H 0 Z" transform="translate(-175.57281,-91.524405)" id="path335" />
    </clipPath>
    <clipPath clipPathUnits="userSpaceOnUse" id="clipPath337">
      <path d="M 0,500 H 500 V 0 H 0 Z" transform="translate(-200.9458,-119.4854)" id="path337" />
    </clipPath>
    <clipPath clipPathUnits="userSpaceOnUse" id="clipPath339">
      <path d="M 0,500 H 500 V 0 H 0 Z" transform="translate(-148.8901,-300.44871)" id="path339" />
    </clipPath>
    <clipPath clipPathUnits="userSpaceOnUse" id="clipPath341">
      <path d="M 0,500 H 500 V 0 H 0 Z" transform="translate(-193.96581,-213.05471)" id="path341" />
    </clipPath>
    <clipPath clipPathUnits="userSpaceOnUse" id="clipPath343">
      <path d="M 0,500 H 500 V 0 H 0 Z" transform="translate(-261.6592,-74.062499)" id="path343" />
    </clipPath>
    <clipPath clipPathUnits="userSpaceOnUse" id="clipPath345">
      <path d="M 0,500 H 500 V 0 H 0 Z" transform="translate(-281.6641,-73.378904)" id="path345" />
    </clipPath>
    <clipPath clipPathUnits="userSpaceOnUse" id="clipPath347">
      <path d="M 0,500 H 500 V 0 H 0 Z" transform="translate(-249.1333,-77.140604)" id="path347" />
    </clipPath>
    <clipPath clipPathUnits="userSpaceOnUse" id="clipPath349">
      <path d="M 0,500 H 500 V 0 H 0 Z" transform="translate(-264.82131,-87.2715)" id="path349" />
    </clipPath>
    <clipPath clipPathUnits="userSpaceOnUse" id="clipPath351">
      <path d="M 0,500 H 500 V 0 H 0 Z" transform="translate(-246.79251,-92.9004)" id="path351" />
    </clipPath>
    <clipPath clipPathUnits="userSpaceOnUse" id="clipPath353">
      <path d="M 0,500 H 500 V 0 H 0 Z" transform="translate(-252.4375,-90.031305)" id="path353" />
    </clipPath>
    <clipPath clipPathUnits="userSpaceOnUse" id="clipPath355">
      <path d="M 0,500 H 500 V 0 H 0 Z" transform="translate(-295.7959,-134.51861)" id="path355" />
    </clipPath>
    <clipPath clipPathUnits="userSpaceOnUse" id="clipPath357">
      <path d="M 0,500 H 500 V 0 H 0 Z" transform="translate(-281.6641,-73.378904)" id="path357" />
    </clipPath>
    <clipPath clipPathUnits="userSpaceOnUse" id="clipPath359">
      <path d="M 0,500 H 500 V 0 H 0 Z" transform="translate(-294.24901,-139.74221)" id="path359" />
    </clipPath>
    <clipPath clipPathUnits="userSpaceOnUse" id="clipPath361">
      <path d="M 0,500 H 500 V 0 H 0 Z" transform="translate(-174.46971,-233.32031)" id="path361" />
    </clipPath>
    <clipPath clipPathUnits="userSpaceOnUse" id="clipPath363">
      <path d="M 0,500 H 500 V 0 H 0 Z" transform="translate(-435.21781,-118.0029)" id="path363" />
    </clipPath>
    <clipPath clipPathUnits="userSpaceOnUse" id="clipPath365">
      <path d="M 0,500 H 500 V 0 H 0 Z" transform="translate(-222.87451,-273.3579)" id="path365" />
    </clipPath>
    <clipPath clipPathUnits="userSpaceOnUse" id="clipPath367">
      <path d="M 0,500 H 500 V 0 H 0 Z" transform="translate(-211.97311,-287.7129)" id="path367" />
    </clipPath>
    <clipPath clipPathUnits="userSpaceOnUse" id="clipPath369">
      <path d="M 0,500 H 500 V 0 H 0 Z" transform="translate(-192.3208,-318.48581)" id="path369" />
    </clipPath>
    <clipPath clipPathUnits="userSpaceOnUse" id="clipPath371">
      <path d="M 0,500 H 500 V 0 H 0 Z" transform="translate(-203.1001,-348.71041)" id="path371" />
    </clipPath>
    <clipPath clipPathUnits="userSpaceOnUse" id="clipPath373">
      <path d="M 0,500 H 500 V 0 H 0 Z" transform="translate(-241.7158,-419.51461)" id="path373" />
    </clipPath>
    <clipPath clipPathUnits="userSpaceOnUse" id="clipPath375">
      <path d="M 0,500 H 500 V 0 H 0 Z" transform="translate(-229.41751,-435.30081)" id="path375" />
    </clipPath>
    <clipPath clipPathUnits="userSpaceOnUse" id="clipPath377">
      <path d="M 0,500 H 500 V 0 H 0 Z" transform="translate(-212.31691,-438.15041)" id="path377" />
    </clipPath>
    <clipPath clipPathUnits="userSpaceOnUse" id="clipPath379">
      <path d="M 0,500 H 500 V 0 H 0 Z" transform="translate(-230.53561,-431.04981)" id="path379" />
    </clipPath>
    <clipPath clipPathUnits="userSpaceOnUse" id="clipPath381">
      <path d="M 0,500 H 500 V 0 H 0 Z" transform="translate(-200.44921,-304.96681)" id="path381" />
    </clipPath>
    <clipPath clipPathUnits="userSpaceOnUse" id="clipPath383">
      <path d="M 0,500 H 500 V 0 H 0 Z" transform="translate(-192.3208,-318.48581)" id="path383" />
    </clipPath>
    <clipPath clipPathUnits="userSpaceOnUse" id="clipPath385">
      <path d="M 0,500 H 500 V 0 H 0 Z" transform="translate(-200.44921,-304.96681)" id="path385" />
    </clipPath>
    <clipPath clipPathUnits="userSpaceOnUse" id="clipPath387">
      <path d="M 0,500 H 500 V 0 H 0 Z" transform="translate(-242.5444,-263.98241)" id="path387" />
    </clipPath>
    <clipPath clipPathUnits="userSpaceOnUse" id="clipPath389">
      <path d="M 0,500 H 500 V 0 H 0 Z" transform="translate(-222.874,-273.3579)" id="path389" />
    </clipPath>
    <clipPath clipPathUnits="userSpaceOnUse" id="clipPath391">
      <path d="M 0,500 H 500 V 0 H 0 Z" transform="translate(-261.97951,-254.5728)" id="path391" />
    </clipPath>
    <clipPath clipPathUnits="userSpaceOnUse" id="clipPath393">
      <path d="M 0,500 H 500 V 0 H 0 Z" transform="translate(-242.5444,-263.98241)" id="path393" />
    </clipPath>
    <clipPath clipPathUnits="userSpaceOnUse" id="clipPath395">
      <path d="M 0,500 H 500 V 0 H 0 Z" transform="translate(-284.5234,-247.34471)" id="path395" />
    </clipPath>
    <clipPath clipPathUnits="userSpaceOnUse" id="clipPath397">
      <path d="M 0,500 H 500 V 0 H 0 Z" transform="translate(-261.97951,-254.5728)" id="path397" />
    </clipPath>
    <clipPath clipPathUnits="userSpaceOnUse" id="clipPath399">
      <path d="M 0,500 H 500 V 0 H 0 Z" transform="translate(-306.22461,-235.83111)" id="path399" />
    </clipPath>
    <clipPath clipPathUnits="userSpaceOnUse" id="clipPath401">
      <path d="M 0,500 H 500 V 0 H 0 Z" transform="translate(-284.5234,-247.34471)" id="path401" />
    </clipPath>
    <clipPath clipPathUnits="userSpaceOnUse" id="clipPath403">
      <path d="M 0,500 H 500 V 0 H 0 Z" transform="translate(-323.62701,-215.97171)" id="path403" />
    </clipPath>
    <clipPath clipPathUnits="userSpaceOnUse" id="clipPath405">
      <path d="M 0,500 H 500 V 0 H 0 Z" transform="translate(-306.22461,-235.83111)" id="path405" />
    </clipPath>
    <clipPath clipPathUnits="userSpaceOnUse" id="clipPath407">
      <path d="M 0,500 H 500 V 0 H 0 Z" transform="translate(-338.43851,-196.10351)" id="path407" />
    </clipPath>
    <clipPath clipPathUnits="userSpaceOnUse" id="clipPath409">
      <path d="M 0,500 H 500 V 0 H 0 Z" transform="translate(-323.62701,-215.97171)" id="path409" />
    </clipPath>
    <clipPath clipPathUnits="userSpaceOnUse" id="clipPath411">
      <path d="M 0,500 H 500 V 0 H 0 Z" transform="translate(-349.30081,-178.14161)" id="path411" />
    </clipPath>
    <clipPath clipPathUnits="userSpaceOnUse" id="clipPath413">
      <path d="M 0,500 H 500 V 0 H 0 Z" transform="translate(-338.43851,-196.10351)" id="path413" />
    </clipPath>
    <clipPath clipPathUnits="userSpaceOnUse" id="clipPath415">
      <path d="M 0,500 H 500 V 0 H 0 Z" transform="translate(-360.88771,-160.3232)" id="path415" />
    </clipPath>
    <clipPath clipPathUnits="userSpaceOnUse" id="clipPath417">
      <path d="M 0,500 H 500 V 0 H 0 Z" transform="translate(-349.30081,-178.14161)" id="path417" />
    </clipPath>
    <clipPath clipPathUnits="userSpaceOnUse" id="clipPath419">
      <path d="M 0,500 H 500 V 0 H 0 Z" transform="translate(-372.44241,-146.8164)" id="path419" />
    </clipPath>
    <clipPath clipPathUnits="userSpaceOnUse" id="clipPath421">
      <path d="M 0,500 H 500 V 0 H 0 Z" transform="translate(-360.88771,-160.3232)" id="path421" />
    </clipPath>
    <clipPath clipPathUnits="userSpaceOnUse" id="clipPath423">
      <path d="M 0,500 H 500 V 0 H 0 Z" transform="translate(-386.25491,-135.37211)" id="path423" />
    </clipPath>
    <clipPath clipPathUnits="userSpaceOnUse" id="clipPath425">
      <path d="M 0,500 H 500 V 0 H 0 Z" transform="translate(-372.44241,-146.8164)" id="path425" />
    </clipPath>
    <clipPath clipPathUnits="userSpaceOnUse" id="clipPath427">
      <path d="M 0,500 H 500 V 0 H 0 Z" transform="translate(-401.10251,-128.24711)" id="path427" />
    </clipPath>
    <clipPath clipPathUnits="userSpaceOnUse" id="clipPath429">
      <path d="M 0,500 H 500 V 0 H 0 Z" transform="translate(-386.25491,-135.37211)" id="path429" />
    </clipPath>
    <clipPath clipPathUnits="userSpaceOnUse" id="clipPath431">
      <path d="M 0,500 H 500 V 0 H 0 Z" transform="translate(-413.76071,-123.0801)" id="path431" />
    </clipPath>
    <clipPath clipPathUnits="userSpaceOnUse" id="clipPath433">
      <path d="M 0,500 H 500 V 0 H 0 Z" transform="translate(-401.10161,-128.24711)" id="path433" />
    </clipPath>
    <clipPath clipPathUnits="userSpaceOnUse" id="clipPath435">
      <path d="M 0,500 H 500 V 0 H 0 Z" transform="translate(-425.78911,-120.54)" id="path435" />
    </clipPath>
    <clipPath clipPathUnits="userSpaceOnUse" id="clipPath437">
      <path d="M 0,500 H 500 V 0 H 0 Z" transform="translate(-413.75981,-123.0801)" id="path437" />
    </clipPath>
    <clipPath clipPathUnits="userSpaceOnUse" id="clipPath439">
      <path d="M 0,500 H 500 V 0 H 0 Z" transform="translate(-425.78811,-120.54)" id="path439" />
    </clipPath>
    <clipPath clipPathUnits="userSpaceOnUse" id="clipPath441">
      <path d="M 0,500 H 500 V 0 H 0 Z" transform="translate(-229.41751,-435.30081)" id="path441" />
    </clipPath>
    <clipPath clipPathUnits="userSpaceOnUse" id="clipPath443">
      <path d="M 0,500 H 500 V 0 H 0 Z" transform="translate(-195.1851,-416.87351)" id="path443" />
    </clipPath>
    <clipPath clipPathUnits="userSpaceOnUse" id="clipPath445">
      <path d="M 0,500 H 500 V 0 H 0 Z" transform="translate(-194.6499,-409.87941)" id="path445" />
    </clipPath>
    <clipPath clipPathUnits="userSpaceOnUse" id="clipPath447">
      <path d="M 0,500 H 500 V 0 H 0 Z" transform="translate(-180.8179,-416.55571)" id="path447" />
    </clipPath>
    <clipPath clipPathUnits="userSpaceOnUse" id="clipPath449">
      <path d="M 0,500 H 500 V 0 H 0 Z" transform="translate(-198.2974,-216.10161)" id="path449" />
    </clipPath>
    <clipPath clipPathUnits="userSpaceOnUse" id="clipPath451">
      <path d="M 0,500 H 500 V 0 H 0 Z" transform="translate(-197.6113,-434.94731)" id="path451" />
    </clipPath>
    <clipPath clipPathUnits="userSpaceOnUse" id="clipPath453">
      <path d="M 0,500 H 500 V 0 H 0 Z" transform="translate(-181.1304,-402.84721)" id="path453" />
    </clipPath>
    <clipPath clipPathUnits="userSpaceOnUse" id="clipPath455">
      <path d="M 0,500 H 500 V 0 H 0 Z" transform="translate(-242.46831,-133.5723)" id="path455" />
    </clipPath>
    <clipPath clipPathUnits="userSpaceOnUse" id="clipPath457">
      <path d="M 0,500 H 500 V 0 H 0 Z" transform="translate(-246.79251,-92.899402)" id="path457" />
    </clipPath>
    <clipPath clipPathUnits="userSpaceOnUse" id="clipPath459">
      <path d="M 0,500 H 500 V 0 H 0 Z" transform="translate(-318.30371,-121.8018)" id="path459" />
    </clipPath>
    <clipPath clipPathUnits="userSpaceOnUse" id="clipPath461">
      <path d="M 0,500 H 500 V 0 H 0 Z" transform="translate(-324.81151,-137.6904)" id="path461" />
    </clipPath>
    <clipPath clipPathUnits="userSpaceOnUse" id="clipPath463">
      <path d="M 0,500 H 500 V 0 H 0 Z" transform="translate(-244.49661,-366.76711)" id="path463" />
    </clipPath>
    <clipPath clipPathUnits="userSpaceOnUse" id="clipPath465">
      <path d="M 0,500 H 500 V 0 H 0 Z" transform="translate(-243.4399,-375.14401)" id="path465" />
    </clipPath>
    <clipPath clipPathUnits="userSpaceOnUse" id="clipPath467">
      <path d="M 0,500 H 500 V 0 H 0 Z" transform="translate(-253.43071,-381.39501)" id="path467" />
    </clipPath>
    <clipPath clipPathUnits="userSpaceOnUse" id="clipPath469">
      <path d="M 0,500 H 500 V 0 H 0 Z" transform="translate(-243.12451,-390.81981)" id="path469" />
    </clipPath>
    <clipPath clipPathUnits="userSpaceOnUse" id="clipPath471">
      <path d="M 0,500 H 500 V 0 H 0 Z" transform="translate(-253.43551,-396.48051)" id="path471" />
    </clipPath>
    <clipPath clipPathUnits="userSpaceOnUse" id="clipPath473">
      <path d="M 0,500 H 500 V 0 H 0 Z" transform="translate(-173.79741,-438.61521)" id="path473" />
    </clipPath>
    <clipPath clipPathUnits="userSpaceOnUse" id="clipPath475">
      <path d="M 0,500 H 500 V 0 H 0 Z" transform="translate(-180.8169,-448.72901)" id="path475" />
    </clipPath>
    <clipPath clipPathUnits="userSpaceOnUse" id="clipPath477">
      <path d="M 0,500 H 500 V 0 H 0 Z" transform="translate(-188.0278,-438.81051)" id="path477" />
    </clipPath>
    <clipPath clipPathUnits="userSpaceOnUse" id="clipPath479">
      <path d="M 0,500 H 500 V 0 H 0 Z" transform="translate(-164.4438,-429.47951)" id="path479" />
    </clipPath>
    <clipPath clipPathUnits="userSpaceOnUse" id="clipPath481">
      <path d="M 0,500 H 500 V 0 H 0 Z" transform="translate(-223.02781,-442.81351)" id="path481" />
    </clipPath>
    <clipPath clipPathUnits="userSpaceOnUse" id="clipPath483">
      <path d="M 0,500 H 500 V 0 H 0 Z" transform="translate(-224.1406,-432.02691)" id="path483" />
    </clipPath>
    <clipPath clipPathUnits="userSpaceOnUse" id="clipPath485">
      <path d="M 0,500 H 500 V 0 H 0 Z" transform="translate(-238.43601,-430.93951)" id="path485" />
    </clipPath>
    <clipPath clipPathUnits="userSpaceOnUse" id="clipPath487">
      <path d="M 0,500 H 500 V 0 H 0 Z" transform="translate(-224.20951,-252.1665)" id="path487" />
    </clipPath>
    <clipPath clipPathUnits="userSpaceOnUse" id="clipPath489">
      <path d="M 0,500 H 500 V 0 H 0 Z" transform="translate(-211.53421,-248.99801)" id="path489" />
    </clipPath>
    <clipPath clipPathUnits="userSpaceOnUse" id="clipPath491">
      <path d="M 0,500 H 500 V 0 H 0 Z" transform="translate(-217.62211,-256.78221)" id="path491" />
    </clipPath>
    <clipPath clipPathUnits="userSpaceOnUse" id="clipPath493">
      <path d="M 0,500 H 500 V 0 H 0 Z" transform="translate(-193.0039,-310.81641)" id="path493" />
    </clipPath>
    <clipPath clipPathUnits="userSpaceOnUse" id="clipPath495">
      <path d="M 0,500 H 500 V 0 H 0 Z" transform="translate(-195.34371,-304.73681)" id="path495" />
    </clipPath>
    <clipPath clipPathUnits="userSpaceOnUse" id="clipPath497">
      <path d="M 0,500 H 500 V 0 H 0 Z" transform="translate(-205.90621,-306.07471)" id="path497" />
    </clipPath>
    <clipPath clipPathUnits="userSpaceOnUse" id="clipPath499">
      <path d="M 0,500 H 500 V 0 H 0 Z" transform="translate(-212.42241,-304.53171)" id="path499" />
    </clipPath>
    <clipPath clipPathUnits="userSpaceOnUse" id="clipPath501">
      <path d="M 0,500 H 500 V 0 H 0 Z" transform="translate(-230.47221,-278.2026)" id="path501" />
    </clipPath>
    <clipPath clipPathUnits="userSpaceOnUse" id="clipPath503">
      <path d="M 0,500 H 500 V 0 H 0 Z" transform="translate(-236.38531,-277.57761)" id="path503" />
    </clipPath>
    <clipPath clipPathUnits="userSpaceOnUse" id="clipPath505">
      <path d="M 0,500 H 500 V 0 H 0 Z" transform="translate(-236.61771,-261.92871)" id="path505" />
    </clipPath>
    <clipPath clipPathUnits="userSpaceOnUse" id="clipPath507">
      <path d="M 0,500 H 500 V 0 H 0 Z" transform="translate(-248.12551,-268.7295)" id="path507" />
    </clipPath>
    <clipPath clipPathUnits="userSpaceOnUse" id="clipPath509">
      <path d="M 0,500 H 500 V 0 H 0 Z" transform="translate(-253.9453,-252.41061)" id="path509" />
    </clipPath>
    <clipPath clipPathUnits="userSpaceOnUse" id="clipPath511">
      <path d="M 0,500 H 500 V 0 H 0 Z" transform="translate(-268.85841,-261.021)" id="path511" />
    </clipPath>
    <clipPath clipPathUnits="userSpaceOnUse" id="clipPath513">
      <path d="M 0,500 H 500 V 0 H 0 Z" transform="translate(-278.84671,-263.01861)" id="path513" />
    </clipPath>
    <clipPath clipPathUnits="userSpaceOnUse" id="clipPath515">
      <path d="M 0,500 H 500 V 0 H 0 Z" transform="translate(-277.45411,-241.44431)" id="path515" />
    </clipPath>
    <clipPath clipPathUnits="userSpaceOnUse" id="clipPath517">
      <path d="M 0,500 H 500 V 0 H 0 Z" transform="translate(-291.00781,-251.98731)" id="path517" />
    </clipPath>
    <clipPath clipPathUnits="userSpaceOnUse" id="clipPath519">
      <path d="M 0,500 H 500 V 0 H 0 Z" transform="translate(-291.583,-231.55271)" id="path519" />
    </clipPath>
    <clipPath clipPathUnits="userSpaceOnUse" id="clipPath521">
      <path d="M 0,500 H 500 V 0 H 0 Z" transform="translate(-305.82131,-246.04391)" id="path521" />
    </clipPath>
    <clipPath clipPathUnits="userSpaceOnUse" id="clipPath523">
      <path d="M 0,500 H 500 V 0 H 0 Z" transform="translate(-304.58111,-219.6426)" id="path523" />
    </clipPath>
    <clipPath clipPathUnits="userSpaceOnUse" id="clipPath525">
      <path d="M 0,500 H 500 V 0 H 0 Z" transform="translate(-320.65331,-233.27051)" id="path525" />
    </clipPath>
    <clipPath clipPathUnits="userSpaceOnUse" id="clipPath527">
      <path d="M 0,500 H 500 V 0 H 0 Z" transform="translate(-312.40621,-210.22071)" id="path527" />
    </clipPath>
    <clipPath clipPathUnits="userSpaceOnUse" id="clipPath529">
      <path d="M 0,500 H 500 V 0 H 0 Z" transform="translate(-320.37791,-199.96481)" id="path529" />
    </clipPath>
    <clipPath clipPathUnits="userSpaceOnUse" id="clipPath531">
      <path d="M 0,500 H 500 V 0 H 0 Z" transform="translate(-338.23141,-211.09571)" id="path531" />
    </clipPath>
    <clipPath clipPathUnits="userSpaceOnUse" id="clipPath533">
      <path d="M 0,500 H 500 V 0 H 0 Z" transform="translate(-333.24611,-180.9609)" id="path533" />
    </clipPath>
    <clipPath clipPathUnits="userSpaceOnUse" id="clipPath535">
      <path d="M 0,500 H 500 V 0 H 0 Z" transform="translate(-349.75291,-190.0703)" id="path535" />
    </clipPath>
    <clipPath clipPathUnits="userSpaceOnUse" id="clipPath537">
      <path d="M 0,500 H 500 V 0 H 0 Z" transform="translate(-356.27731,-176.8418)" id="path537" />
    </clipPath>
    <clipPath clipPathUnits="userSpaceOnUse" id="clipPath539">
      <path d="M 0,500 H 500 V 0 H 0 Z" transform="translate(-350.46971,-157.752)" id="path539" />
    </clipPath>
    <clipPath clipPathUnits="userSpaceOnUse" id="clipPath541">
      <path d="M 0,500 H 500 V 0 H 0 Z" transform="translate(-366.06051,-160.3232)" id="path541" />
    </clipPath>
    <clipPath clipPathUnits="userSpaceOnUse" id="clipPath543">
      <path d="M 0,500 H 500 V 0 H 0 Z" transform="translate(-364.13671,-143.793)" id="path543" />
    </clipPath>
    <clipPath clipPathUnits="userSpaceOnUse" id="clipPath545">
      <path d="M 0,500 H 500 V 0 H 0 Z" transform="translate(-377.46781,-147.89261)" id="path545" />
    </clipPath>
    <clipPath clipPathUnits="userSpaceOnUse" id="clipPath547">
      <path d="M 0,500 H 500 V 0 H 0 Z" transform="translate(-378.89751,-133.4639)" id="path547" />
    </clipPath>
    <clipPath clipPathUnits="userSpaceOnUse" id="clipPath549">
      <path d="M 0,500 H 500 V 0 H 0 Z" transform="translate(-391.97171,-136.3086)" id="path549" />
    </clipPath>
    <clipPath clipPathUnits="userSpaceOnUse" id="clipPath551">
      <path d="M 0,500 H 500 V 0 H 0 Z" transform="translate(-398.54881,-133.02641)" id="path551" />
    </clipPath>
    <clipPath clipPathUnits="userSpaceOnUse" id="clipPath553">
      <path d="M 0,500 H 500 V 0 H 0 Z" transform="translate(-407.65531,-128.1602)" id="path553" />
    </clipPath>
    <clipPath clipPathUnits="userSpaceOnUse" id="clipPath555">
      <path d="M 0,500 H 500 V 0 H 0 Z" transform="translate(-419.66311,-123.8027)" id="path555" />
    </clipPath>
    <clipPath clipPathUnits="userSpaceOnUse" id="clipPath557">
      <path d="M 0,500 H 500 V 0 H 0 Z" transform="translate(-429.65331,-121.5996)" id="path557" />
    </clipPath>
  </defs>
  <g ns1:groupmode="layer" id="layer2" ns1:label="Color" style="display:inline" transform="matrix(0.20542448,0,0,0.20542448,12.212384,-8.6657839)">
    <path id="color-region-0" d="M 337.12,115.96 L 362.95,168.32 L 393.00,235.93 L 418.59,297.44 L 473.52,435.48 L 492.54,439.23 L 470.00,382.66 L 440.66,313.16 L 410.37,245.32 L 380.79,182.40 L 350.98,122.07 Z" style="fill:transparent;stroke:none" />
    <path id="color-region-1" d="M 326.32,116.90 L 168.56,427.50 L 172.55,432.66 L 184.53,444.63 L 198.14,456.37 L 216.22,469.05 L 235.71,479.85 L 254.96,488.06 L 281.02,495.81 L 301.67,499.33 L 320.93,500.74 L 339.24,500.27 L 358.02,497.92 L 381.96,492.06 L 400.98,485.01 L 419.76,475.62 L 435.49,465.53 L 450.28,453.79 L 464.37,439.94 L 415.30,315.98 L 386.19,245.32 L 354.97,174.65 L 336.65,136.62 Z" style="fill:transparent;stroke:none" />
    <path id="color-region-2" d="M 277.49,302.60 L 274.21,305.18 L 273.74,309.17 L 276.09,312.46 L 280.55,313.16 L 283.83,310.58 L 284.30,306.36 L 281.95,303.30 Z" style="fill:transparent;stroke:none" />
    <path id="color-region-3" d="M 381.26,302.60 L 377.97,304.95 L 377.27,308.94 L 379.62,312.46 L 382.20,313.40 L 384.08,313.16 L 387.13,311.05 L 388.07,308.47 L 387.83,306.36 L 386.89,304.48 L 384.78,302.84 Z" style="fill:transparent;stroke:none" />
    <path id="color-region-4" d="M 155.18,453.55 L 172.79,472.10 L 183.82,481.73 L 201.90,495.34 L 224.44,508.96 L 244.86,518.58 L 270.69,527.50 L 292.99,532.67 L 318.11,535.49 L 342.99,535.49 L 361.30,533.61 L 385.49,528.44 L 404.74,522.11 L 429.39,510.84 L 444.88,501.68 L 460.38,490.65 L 478.69,474.21 L 468.59,449.80 L 450.28,466.70 L 433.61,478.67 L 419.29,487.13 L 397.22,497.22 L 377.27,503.79 L 356.61,508.25 L 333.37,510.60 L 312.71,510.37 L 290.41,507.78 L 270.69,503.56 L 248.38,496.28 L 233.12,489.71 L 215.99,480.55 L 194.39,466.00 L 180.07,454.02 L 163.63,437.36 Z" style="fill:transparent;stroke:none" />
    <path id="color-region-5" d="M 478.22,446.51 L 487.84,470.46 L 506.15,475.15 L 496.76,450.27 Z" style="fill:transparent;stroke:none" />
    <path id="color-region-6" d="M 148.84,466.47 L 166.22,483.84 L 187.11,501.21 L 210.59,517.17 L 230.07,527.97 L 250.50,537.13 L 275.85,545.58 L 298.39,550.51 L 323.74,553.33 L 347.92,553.33 L 370.46,550.98 L 393.23,546.29 L 415.30,539.48 L 441.36,528.44 L 462.96,516.71 L 482.21,503.79 L 504.75,485.01 L 486.20,480.55 L 464.84,499.57 L 443.47,514.12 L 420.93,526.10 L 395.11,535.96 L 378.68,540.42 L 361.07,543.70 L 340.65,545.58 L 319.99,545.58 L 300.74,543.94 L 279.84,540.18 L 252.61,532.20 L 235.00,525.16 L 213.40,514.12 L 195.80,503.09 L 186.17,496.28 L 171.62,484.31 L 162.22,475.62 L 150.96,463.65 L 150.25,463.65 Z" style="fill:transparent;stroke:none" />
    <path style="fill:transparent;stroke-width:0.864545;stroke-opacity:1;stroke:none" d="M 10.600335,225.3966 V 10.042423 H 300.15685 589.71337 V 225.3966 440.75077 H 300.15685 10.600335 Z M 495.40209,437.82589 c 1.26929,-1.26928 1.70924,-3.35006 1.47449,-6.9739 -0.28658,-4.42398 -0.70352,-5.21715 -2.90659,-5.52946 -1.41462,-0.20053 -3.29758,0.23754 -4.18434,0.97349 -1.2349,1.02488 -1.61233,1.02838 -1.61233,0.015 0,-2.48962 -7.09026,-0.84922 -8.48408,1.96289 -1.19892,2.41887 -1.33173,2.25595 -2.04651,-2.51061 -0.94074,-6.27329 -3.34117,-6.72885 -4.81078,-0.91299 l -1.05733,4.18434 -0.85143,-4.18434 c -0.46828,-2.30139 -1.46248,-4.18434 -2.20934,-4.18434 -1.22211,0 -3.97285,8.94358 -3.97285,12.91711 0,3.08889 2.29765,1.53799 3.01902,-2.03782 l 0.73159,-3.62643 0.94616,3.62643 c 0.5204,1.99453 1.43249,3.62643 2.02688,3.62643 0.5944,0 1.79439,-1.6319 2.66664,-3.62643 1.58153,-3.61639 1.58617,-3.61812 1.67694,-0.62377 0.10248,3.38087 2.13018,5.25127 3.42377,3.1582 0.60605,-0.98061 1.07167,-1.02183 1.61484,-0.14295 0.87474,1.41535 6.9524,1.68866 7.51246,0.33783 0.20456,-0.49343 1.62724,-0.24977 3.1615,0.54145 l 2.78956,1.4386 -3.06852,0.0165 c -2.95508,0.0158 -3.883,1.06167 -2.32463,2.62003 1.32944,1.32944 4.63288,0.78684 6.48488,-1.06517 z m -51.86176,-0.29504 c 0,-0.54355 -0.75009,-2.42651 -1.66686,-4.18435 -0.91677,-1.75783 -1.66686,-3.69818 -1.66686,-4.31189 0,-0.6137 0.75009,-2.55405 1.66686,-4.31189 1.93718,-3.71438 2.10061,-5.17262 0.57969,-5.17262 -1.75538,0 -4.49195,6.27289 -4.49195,10.29664 0,2.0419 0.78166,4.8285 1.737,6.19245 1.7536,2.50361 3.84212,3.31446 3.84212,1.49166 z m 14.21032,-2.44732 c 2.57418,-5.04523 1.00404,-13.47873 -2.77977,-14.93072 -1.29195,-0.49576 -1.4766,-0.079 -0.83802,1.89132 1.58246,4.88266 1.93102,11.09272 0.69214,12.3316 -1.68553,1.68553 -1.57696,4.43977 0.15254,3.8693 0.76713,-0.25302 2.01503,-1.6757 2.77311,-3.1615 z m 108.53041,-3.25936 c 0,-3.22349 0.46493,-4.46329 1.67373,-4.46329 2.02574,0 2.22545,-1.83886 0.27896,-2.56853 -0.97653,-0.36607 -0.75854,-1.01209 0.72695,-2.15431 1.43851,-1.10612 1.71541,-1.88258 0.85993,-2.4113 -1.6721,-1.03341 -5.77122,1.22171 -5.77122,3.17502 0,0.84783 -0.62766,1.8344 -1.39479,2.1924 -1.11582,0.52071 -1.11582,0.78107 0,1.30178 0.76763,0.35823 1.39479,2.616 1.39479,5.02122 0,2.40367 0.50212,4.37031 1.11582,4.37031 0.6137,0 1.11583,-2.00848 1.11583,-4.4633 z m -114.08616,1.39478 c 0.28922,-0.88074 -0.63449,-1.39478 -2.50636,-1.39478 -2.22372,0 -2.86967,-0.48788 -2.58534,-1.95269 0.20847,-1.07398 1.33392,-1.95482 2.50102,-1.95742 2.85246,-0.006 3.49567,-2.35902 0.83517,-3.05476 -3.47517,-0.90879 -5.78323,1.15079 -5.78323,5.16061 0,2.01519 0.3578,4.02178 0.79511,4.45908 1.23368,1.23369 6.23143,0.29987 6.74363,-1.26004 z m 61.64239,-0.82934 c 0,-1.53958 1.11433,-2.72844 3.34748,-3.57136 5.65568,-2.13477 3.84368,-8.15232 -2.45482,-8.15232 -3.00528,0 -3.12431,0.21254 -3.12431,5.57912 0,5.24958 -0.1696,5.57912 -2.87137,5.57912 -2.14449,0 -2.76923,-0.49432 -2.46786,-1.95269 0.22194,-1.07398 1.263,-1.88295 2.31346,-1.79772 2.36587,0.19197 2.53287,-2.46674 0.2109,-3.35776 -2.07723,-0.79711 -6.11173,3.01127 -6.11173,5.76918 0,3.16593 2.19431,4.56972 6.85271,4.38396 3.55369,-0.14172 4.30554,-0.57471 4.30554,-2.47953 z m 13.85655,2.10474 c 2.82312,-1.08333 2.16764,-3.67751 -0.74561,-2.95085 -2.49735,0.62291 -2.49641,0.61447 0.17754,-1.59749 1.53139,-1.26682 2.34333,-2.78163 1.88684,-3.52025 -1.20046,-1.9424 -7.01182,-1.5935 -7.80307,0.46847 -2.20137,5.73664 1.13867,9.65143 6.4843,7.60012 z m 5.11247,-1.34108 c 0,-1.11012 0.73722,-2.99307 1.63826,-4.18435 1.53523,-2.02976 1.64047,-1.90285 1.67373,2.01839 0.0195,2.30138 0.56512,4.18434 1.21245,4.18434 0.7073,0 1.04125,-2.10348 0.83687,-5.27127 -0.32846,-5.09096 -0.46414,-5.27734 -3.96653,-5.44856 -3.62045,-0.17698 -3.62643,-0.16829 -3.62643,5.27128 0,2.9967 0.50212,5.44855 1.11583,5.44855 0.6137,0 1.11582,-0.90827 1.11582,-2.01838 z m 14.23236,0.0657 c 0.28797,-0.87441 -0.61607,-1.39478 -2.42322,-1.39478 -3.01412,0 -3.45863,-0.71197 -1.93938,-3.10631 0.50111,-0.78973 1.7452,-1.11169 2.77248,-0.71748 1.26434,0.48517 1.86348,0.13856 1.86348,-1.07804 0,-0.98622 -0.20999,-1.79311 -0.46664,-1.79311 -0.25667,0 -1.19617,-0.27994 -2.08778,-0.62209 -3.76649,-1.44534 -7.58456,8.38881 -3.86157,9.94616 2.26576,0.94778 5.64779,0.26818 6.14263,-1.23435 z m 9.19996,-5.85807 c 0,-4.4633 -0.47821,-7.81078 -1.11582,-7.81078 -0.63762,0 -1.11583,3.34748 -1.11583,7.81078 0,4.46329 0.47821,7.81077 1.11583,7.81077 0.63761,0 1.11582,-3.34748 1.11582,-7.81077 z m 4.4633,6.13703 c 0,-0.92055 -0.50212,-1.67374 -1.11582,-1.67374 -0.61371,0 -1.11583,0.75319 -1.11583,1.67374 0,0.92056 0.50212,1.67374 1.11583,1.67374 0.6137,0 1.11582,-0.75318 1.11582,-1.67374 z m 22.3165,-0.64757 c 0,-1.07771 0.36964,-2.87925 0.82142,-4.00342 0.64585,-1.60708 0.94397,-1.22818 1.39478,1.77273 0.83971,5.58968 3.36292,5.8285 3.36292,0.31831 0,-4.76291 -1.34801,-6.4562 -5.30017,-6.6578 -1.84222,-0.094 -2.54506,0.52185 -2.64004,2.3132 -0.10009,1.88765 -0.24516,1.99844 -0.63973,0.48856 -0.8767,-3.35478 -3.69413,-2.29101 -3.69413,1.39478 0,4.50934 -2.00029,4.28065 -2.43991,-0.27896 -0.45604,-4.72979 -2.48022,-4.67954 -2.93639,0.0729 -0.49923,5.20093 1.3648,6.94416 7.18976,6.72384 3.84149,-0.14532 4.88149,-0.60211 4.88149,-2.14413 z m -81.45521,-3.25782 c 0,-3.22349 -0.46493,-4.46329 -1.67374,-4.46329 -1.2088,0 -1.67373,1.2398 -1.67373,4.46329 0,3.2235 0.46493,4.4633 1.67373,4.4633 1.20881,0 1.67374,-1.2398 1.67374,-4.4633 z m 50.21211,-0.093 c 0,-5.81372 -2.63843,-5.42822 -3.13588,0.45819 -0.26342,3.11729 0.0704,4.09809 1.39478,4.09809 1.29332,0 1.7411,-1.17179 1.7411,-4.55628 z m -50.21211,-7.15988 c 0,-0.92055 -0.50212,-1.67373 -1.11582,-1.67373 -0.61371,0 -1.11583,0.75318 -1.11583,1.67373 0,0.92056 0.50212,1.67374 1.11583,1.67374 0.6137,0 1.11582,-0.75318 1.11582,-1.67374 z m 50.21211,0 c 0,-0.92055 -0.50212,-1.67373 -1.11582,-1.67373 -0.6137,0 -1.11583,0.75318 -1.11583,1.67373 0,0.92056 0.50213,1.67374 1.11583,1.67374 0.6137,0 1.11582,-0.75318 1.11582,-1.67374 z M 342.4227,401.74976 c 37.83765,-7.54475 79.0767,-29.12062 103.25813,-54.02367 l 4.93006,-5.07718 -4.77919,-12.59839 C 414.28825,246.899 365.23231,135.02407 332.17724,70.854871 L 324.705,56.349149 316.64202,52.352231 c -11.29665,-5.599881 -16.80338,-7.295553 -19.09429,-5.879646 -2.165,1.338098 1.78983,-6.299269 -72.42839,139.870145 -77.53371,152.69911 -73.066,143.60839 -71.76873,146.03236 1.50453,2.81124 19.04389,19.29694 28.71694,26.9918 26.79756,21.31731 62.10066,37.74397 91.86742,42.74622 5.83019,0.97975 11.85564,2.00374 13.3899,2.27554 1.53426,0.27181 11.82774,0.33384 22.87441,0.13785 14.97232,-0.26563 23.17467,-0.97244 32.22342,-2.77674 z" id="path1" transform="matrix(1.2879835,0,0,1.2879835,-59.449507,42.184767)" />
  </g>
  <g id="layer-MC1" ns1:groupmode="layer" ns1:label="Outline" style="display:inline" transform="matrix(0.20542448,0,0,0.20542448,12.212384,-8.6657839)">
    <rect style="fill:none;stroke:#000000;stroke-width:1.33306;stroke-dasharray:none;stroke-opacity:1" id="rect1" width="154.88843" height="115.74319" x="2.0926507" y="1.7971287" transform="matrix(4.8679691,0,0,4.8679691,-59.449507,42.184767)" />
    <path style="display:inline;font-size:22.325px;font-family:'Comic Sans MS';-inkscape-font-specification:'Comic Sans MS';stroke-width:6.43992;fill:#000000;stroke:none;stroke-opacity:1;fill-opacity:1" d="m 511.50571,584.74849 q 0,0.38153 -0.67585,1.11189 -0.50144,0.50144 -0.99198,1.00288 -1.21,1.37351 -1.89675,3.92431 -0.59955,2.22378 -0.59955,4.37126 0,5.53764 2.5072,8.12115 0.50144,0.39243 1.01378,0.78486 0.63225,0.50144 0.63225,0.99198 0,0.35973 -0.28342,0.62135 -0.28342,0.27253 -0.65405,0.27253 -0.32703,0 -0.78487,-0.25072 -4.61107,-2.58351 -4.61107,-10.79187 0,-2.95414 1.1882,-5.98459 1.3299,-3.36837 3.48828,-4.88359 0.43603,-0.30523 0.68675,-0.30523 0.39244,0 0.68676,0.31613 0.29432,0.30522 0.29432,0.69766 z m 7.03107,17.17978 q -2.23468,0 -3.7281,-1.35171 -1.56973,-1.41711 -1.56973,-3.739 0,-2.21288 1.47162,-4.56747 1.63513,-2.61621 3.6845,-2.61621 1.06828,0 2.38729,0.50144 1.66784,0.64315 1.66784,1.56973 0,0.41423 -0.27253,0.74126 -0.27252,0.31612 -0.67585,0.31612 -0.31613,0 -0.55595,-0.18531 -0.22891,-0.19622 -0.44693,-0.38153 -0.64315,-0.51234 -2.10387,-0.51234 -1.11189,0 -2.20198,1.98396 -0.99198,1.82044 -0.99198,3.15035 0,1.43892 0.98108,2.26738 0.91567,0.77397 2.35459,0.77397 0.65405,0 1.39531,-0.34883 l 1.2645,-0.67586 q 0.32703,-0.17441 0.46874,-0.17441 0.40333,0 0.69766,0.32703 0.29432,0.31612 0.29432,0.73035 0,0.79577 -1.67873,1.53703 -1.47162,0.65405 -2.4418,0.65405 z m 12.61232,-7.02016 q 0,8.20836 -4.62198,10.79187 -0.44693,0.25072 -0.77396,0.25072 -0.37063,0 -0.65405,-0.27253 -0.28342,-0.26162 -0.28342,-0.62135 0,-0.49054 0.63225,-0.99198 0.50144,-0.39243 1.01378,-0.78486 2.5072,-2.58351 2.5072,-8.12115 0,-2.14748 -0.59955,-4.37126 -0.69765,-2.5508 -1.89675,-3.92431 -0.50144,-0.50144 -0.99198,-1.00288 -0.67586,-0.73036 -0.67586,-1.11189 0,-0.39244 0.28343,-0.69766 0.29432,-0.31613 0.68675,-0.31613 0.25072,0 0.69766,0.30523 2.15837,1.51522 3.48828,4.88359 1.1882,3.03045 1.1882,5.98459 z m 24.97391,7.23818 q -0.58865,0 -0.97018,-0.61045 -0.32703,-0.52324 -0.58865,-1.74414 l -0.39243,-1.87495 q -0.44693,-1.74414 -1.41711,-7.69602 l -2.18018,6.57323 -0.64315,2.07116 q -0.39243,1.2318 -0.81757,2.01667 -0.45783,0.82846 -1.2318,0.82846 -0.64315,0 -1.01378,-0.69765 -0.23982,-0.45784 -0.43603,-1.1664 l -0.31613,-1.20999 q -1.10099,-3.84801 -1.94035,-8.24107 l -0.39244,1.95126 -1.40621,5.75566 q -0.0872,1.01378 -0.54504,2.99774 -0.32703,0.85027 -1.07919,0.85027 -0.53414,0 -0.85027,-0.38153 -0.27252,-0.32702 -0.27252,-0.80666 0,-1.82045 0.75216,-4.46936 l 1.1991,-4.39306 0.63225,-3.43377 q 0.47964,-2.4091 1.01378,-3.15036 0.43603,-0.63225 1.07919,-0.63225 0.70855,0 1.05738,0.80667 0.42514,0.97017 0.91568,3.95701 0.57774,3.58639 1.79864,7.76143 1.61333,-4.19684 2.79063,-8.7425 l 0.32702,-1.59153 q 0.19622,-0.95928 0.51234,-1.54793 0.42514,-0.80666 1.1664,-0.80666 0.93747,0 1.42801,1.80954 0.17442,0.62135 0.42514,2.57261 0.64315,4.9272 1.60243,8.41548 l 0.53414,1.87495 q 0.41423,1.50432 0.41423,1.85315 0,0.46874 -0.35973,0.78486 -0.34882,0.31613 -0.79576,0.31613 z m 12.02367,-0.18532 q -0.20711,0 -0.75216,-0.47963 -0.49054,-0.44694 -0.73036,-0.79577 -1.04648,0.56685 -1.84225,0.85027 -0.79576,0.29432 -1.3299,0.29432 -2.55081,0 -3.7172,-1.43891 -1.10099,-1.35171 -1.10099,-4.14234 0,-2.63801 1.80954,-4.51296 1.82045,-1.87495 4.33855,-1.87495 0.94838,0 2.12568,0.49054 1.48252,0.61045 1.48252,1.47162 0,0.29432 -0.21802,0.52324 -0.10901,0.41423 -0.17442,1.36261 -0.0545,0.94838 -0.0654,2.43089 -0.0109,1.35171 0.18531,2.13658 0.10901,0.47964 0.68676,1.91855 0.0763,0.19622 0.25072,0.57775 l 0.0654,0.18531 q 0,0.43604 -0.30522,0.71946 -0.30522,0.28342 -0.70856,0.28342 z m -2.26738,-7.57611 q 0,-0.46873 0.0545,-1.01378 0.0654,-0.55594 0.18532,-1.17729 -0.40333,-0.20712 -0.69766,-0.30523 -0.28342,-0.0981 -0.45783,-0.0981 -1.68964,0 -2.92144,1.38442 -1.2209,1.37351 -1.2209,3.17215 0,1.78775 0.63225,2.68162 0.63225,0.89387 1.89676,0.89387 1.04648,0 1.77684,-0.38153 0.39243,-0.20712 1.10099,-0.82847 -0.34883,-2.88873 -0.34883,-4.32765 z m 14.14934,2.15838 -0.25072,3.66269 q -0.0654,2.18018 -0.44694,3.56459 -0.49054,1.76594 -1.56972,2.60531 -1.30811,1.01378 -3.78261,1.01378 -1.44982,0 -2.4309,-0.19621 -1.37351,-0.27253 -1.37351,-1.1337 0,-0.97017 0.94838,-0.97017 0.39243,0 1.30811,0.18531 0.91567,0.19622 2.02756,0.17442 2.09297,-0.0327 2.88873,-2.02757 0.52324,-1.32991 0.55595,-4.08783 -0.58865,1.09009 -1.40622,1.63513 -0.80666,0.54505 -1.85315,0.54505 -1.97306,0 -3.21576,-1.34081 -1.2318,-1.35171 -1.2318,-3.49918 0,-2.94324 1.68964,-4.74188 1.74414,-1.85315 4.75278,-1.85315 1.01379,0 1.70054,0.26162 0.68676,0.26162 1.04649,0.78486 1.16639,0.0327 1.16639,1.2972 0,0.77397 -0.22892,2.07117 -0.25072,1.50432 -0.29432,2.04937 z m -3.49918,-4.72008 q -2.07117,0 -3.20486,1.42801 -1.01378,1.28631 -1.01378,3.27027 0,1.58062 0.59954,2.37639 0.59955,0.79576 1.79865,0.79576 1.10099,0 2.13657,-1.2427 0.93748,-1.14459 1.06829,-2.26738 0.22892,-1.1773 0.49054,-3.6954 -0.43604,-0.33793 -0.90478,-0.50144 -0.46873,-0.16351 -0.97017,-0.16351 z m 8.45908,-4.38216 q -0.52324,0 -0.90477,-0.37063 -0.38153,-0.37063 -0.38153,-0.89387 0,-0.52324 0.38153,-0.89387 0.38153,-0.37063 0.90477,-0.37063 0.52324,0 0.89387,0.37063 0.38153,0.37063 0.38153,0.89387 0,0.52324 -0.38153,0.89387 -0.37063,0.37063 -0.89387,0.37063 z m 0.49054,8.85152 q 0,0.65405 0.0327,1.96216 0.0436,1.2972 0.0436,1.95125 0,0.47964 -0.29433,0.78487 -0.29432,0.30522 -0.77396,0.30522 -0.46874,0 -0.77396,-0.30522 -0.29433,-0.30523 -0.29433,-0.78487 0,-0.65405 -0.0436,-1.95125 -0.0327,-1.30811 -0.0327,-1.96216 0,-1.02469 0.10901,-2.55081 0.10901,-1.53702 0.10901,-2.56171 0,-0.49054 0.29432,-0.79576 0.30522,-0.30522 0.77396,-0.30522 0.46874,0 0.76306,0.30522 0.30523,0.30522 0.30523,0.79576 0,1.02469 -0.10901,2.56171 -0.10901,1.52612 -0.10901,2.55081 z m 8.61169,5.63575 q -2.23468,0 -3.7281,-1.35171 -1.56972,-1.41711 -1.56972,-3.739 0,-2.21288 1.47161,-4.56747 1.63514,-2.61621 3.6845,-2.61621 1.06829,0 2.38729,0.50144 1.66784,0.64315 1.66784,1.56973 0,0.41423 -0.27252,0.74126 -0.27253,0.31612 -0.67586,0.31612 -0.31612,0 -0.55594,-0.18531 -0.22892,-0.19622 -0.44694,-0.38153 -0.64315,-0.51234 -2.10387,-0.51234 -1.11189,0 -2.20198,1.98396 -0.99198,1.82044 -0.99198,3.15035 0,1.43892 0.98108,2.26738 0.91568,0.77397 2.35459,0.77397 0.65406,0 1.39532,-0.34883 l 1.2645,-0.67586 q 0.32702,-0.17441 0.46874,-0.17441 0.40333,0 0.69765,0.32703 0.29433,0.31612 0.29433,0.73035 0,0.79577 -1.67874,1.53703 -1.47162,0.65405 -2.4418,0.65405 z m 9.52737,-7.08557 q -0.30522,0 -1.3299,-0.14171 -0.0872,1.64603 -0.0872,5.76656 0,0.43604 -0.28342,0.74126 -0.28343,0.29433 -0.70856,0.29433 -0.43604,0 -0.71946,-0.29433 -0.28342,-0.30522 -0.28342,-0.74126 v -3.20485 q 0,-1.60243 0.19621,-4.51297 0.21802,-3.15035 0.23982,-4.51296 v -1.50432 q 0,-1.07919 0.13081,-1.56973 0.25073,-0.95928 1.06829,-0.82847 0.34883,-0.10901 0.99198,-0.16351 0.64315,-0.0545 1.58063,-0.0545 1.99486,0 3.739,1.36261 1.91855,1.50433 1.91855,3.6191 0,2.70341 -2.04936,4.30584 -1.83135,1.43892 -4.40396,1.43892 z m 0.54505,-8.6553 q -0.47964,0 -0.86117,0.0218 -0.37063,0.0218 -0.63225,0.0654 l -0.0218,2.00576 -0.22892,4.33855 1.19909,0.14171 q 1.83135,0 3.08495,-0.92657 1.37351,-1.01378 1.37351,-2.73612 0,-1.2209 -1.3081,-2.10387 -1.21,-0.80667 -2.60531,-0.80667 z m 13.17916,15.55556 q -2.4636,0 -3.98972,-1.2318 -1.66783,-1.36261 -1.66783,-3.81531 0,-2.83423 1.37351,-4.75278 1.49342,-2.09297 3.98972,-2.09297 1.80954,0 2.95414,0.61045 1.40621,0.75216 1.40621,2.31098 0,1.09009 -1.2318,1.98396 -0.54504,0.39243 -2.31099,1.2209 l -4.16413,1.97306 q 0.61045,0.90477 1.51522,1.36261 0.91567,0.45784 2.12567,0.45784 0.75216,0 1.76594,-0.28343 1.28631,-0.35972 1.65694,-0.93747 0.37063,-0.58865 0.79576,-0.58865 0.38153,0 0.67586,0.29433 0.30522,0.28342 0.30522,0.66495 0,1.21 -1.95126,2.08207 -1.66783,0.74126 -3.24846,0.74126 z m -0.29432,-9.9307 q -1.32991,0 -2.21288,1.03558 -0.88297,1.02468 -1.31901,3.09585 l 3.34657,-1.59153 q 1.97306,-0.95928 2.81243,-1.66783 -0.93747,-0.87207 -2.62711,-0.87207 z m 15.79537,10.20322 q -0.93748,0 -1.05739,-1.02468 l -0.30522,-2.3873 q -0.15261,-1.2754 -0.15261,-2.38729 0,-0.30522 0.0327,-1.03558 0.0436,-0.73036 0.0436,-1.03559 0,-2.35459 -0.87207,-2.35459 -1.2209,0 -2.33279,1.44982 -1.00288,1.31901 -1.56972,3.33567 -0.0218,0.42513 -0.0981,1.06829 -0.0654,0.54504 -0.0654,1.05738 0,0.32703 0.0654,0.98108 0.0654,0.65405 0.0654,0.98108 0,0.49054 -0.30522,0.79576 -0.29432,0.30523 -0.76306,0.30523 -0.47964,0 -0.77396,-0.30523 -0.29433,-0.30522 -0.29433,-0.79576 0,-0.32703 -0.0763,-0.98108 -0.0654,-0.65405 -0.0654,-0.98108 0,-1.12279 0.15261,-3.10675 0.16352,-1.99486 0.16352,-3.11765 0,-0.34883 -0.0436,-1.03558 -0.0327,-0.68676 -0.0327,-1.03559 0,-0.46874 0.30522,-0.76306 0.31613,-0.30522 0.77397,-0.30522 1.00288,0 1.10099,1.41711 l 0.0327,1.2754 q 1.83135,-2.44179 3.7608,-2.44179 1.74414,0 2.4309,1.53702 0.46874,1.02468 0.51234,3.03044 v 1.10099 l -0.0109,1.01379 q 0,0.90477 0.22892,2.34368 0.23982,1.42802 0.23982,2.32189 0,0.47964 -0.31613,0.77396 -0.30522,0.30523 -0.77396,0.30523 z m 8.25196,-0.0872 q -2.23468,0 -3.7281,-1.35171 -1.56973,-1.41711 -1.56973,-3.739 0,-2.21288 1.47162,-4.56747 1.63513,-2.61621 3.6845,-2.61621 1.06828,0 2.38729,0.50144 1.66783,0.64315 1.66783,1.56973 0,0.41423 -0.27252,0.74126 -0.27252,0.31612 -0.67585,0.31612 -0.31613,0 -0.55595,-0.18531 -0.22892,-0.19622 -0.44693,-0.38153 -0.64316,-0.51234 -2.10387,-0.51234 -1.11189,0 -2.20198,1.98396 -0.99198,1.82044 -0.99198,3.15035 0,1.43892 0.98108,2.26738 0.91567,0.77397 2.35459,0.77397 0.65405,0 1.39531,-0.34883 l 1.2645,-0.67586 q 0.32703,-0.17441 0.46874,-0.17441 0.40333,0 0.69766,0.32703 0.29432,0.31612 0.29432,0.73035 0,0.79577 -1.67873,1.53703 -1.47162,0.65405 -2.4418,0.65405 z m 8.6226,-14.48727 q -0.52325,0 -0.90478,-0.37063 -0.38153,-0.37063 -0.38153,-0.89387 0,-0.52324 0.38153,-0.89387 0.38153,-0.37063 0.90478,-0.37063 0.52324,0 0.89387,0.37063 0.38153,0.37063 0.38153,0.89387 0,0.52324 -0.38153,0.89387 -0.37063,0.37063 -0.89387,0.37063 z m 0.49054,8.85152 q 0,0.65405 0.0327,1.96216 0.0436,1.2972 0.0436,1.95125 0,0.47964 -0.29432,0.78487 -0.29433,0.30522 -0.77396,0.30522 -0.46874,0 -0.77397,-0.30522 -0.29432,-0.30523 -0.29432,-0.78487 0,-0.65405 -0.0436,-1.95125 -0.0327,-1.30811 -0.0327,-1.96216 0,-1.02469 0.10901,-2.55081 0.10901,-1.53702 0.10901,-2.56171 0,-0.49054 0.29433,-0.79576 0.30522,-0.30522 0.77396,-0.30522 0.46874,0 0.76306,0.30522 0.30522,0.30522 0.30522,0.79576 0,1.02469 -0.109,2.56171 -0.10901,1.52612 -0.10901,2.55081 z m 6.45332,-3.61909 -0.16351,5.41773 q 0,0.86117 -0.0872,2.52901 -0.10901,1.09008 -1.06828,1.09008 -1.06829,0 -1.06829,-1.11189 0,-1.319 0.11991,-3.95701 0.11991,-2.64892 0.11991,-3.96792 0,-1.72234 0.0545,-3.93522 0.0545,-2.22378 0.0545,-3.94612 0,-1.09009 1.06828,-1.09009 1.07919,0 1.07919,1.09009 0,1.72234 -0.0545,3.94612 -0.0545,2.21288 -0.0545,3.93522 z m 4.74188,9.58187 q -0.56685,0 -0.95928,-0.39243 -0.39243,-0.39244 -0.39243,-0.95928 0,-0.55595 0.39243,-0.94838 0.39243,-0.40333 0.95928,-0.40333 0.55594,0 0.94838,0.40333 0.40333,0.39243 0.40333,0.94838 0,0.56684 -0.40333,0.95928 -0.39244,0.39243 -0.94838,0.39243 z m 11.48953,-16.34042 q -2.63802,0 -2.95414,3.6627 l -0.0327,0.67585 q 1.85315,-0.13081 2.3982,-0.13081 1.73324,0 1.73324,1.09009 0,0.79576 -0.85027,0.94837 -0.37063,0.0654 -0.87207,0.0545 -0.49054,-0.0218 -2.5072,0.14171 l -0.0872,2.4854 q 0,0.67585 0.0436,2.02756 0.0436,1.35171 0.0436,2.01667 0,2.07116 -0.23982,3.22666 -0.18532,0.87207 -1.01378,0.87207 -0.44694,0 -0.76307,-0.29433 -0.31612,-0.28342 -0.31612,-0.71945 0,-0.0872 0.0218,-0.21802 0.22892,-1.41712 0.22892,-3.08495 l -0.0327,-2.97594 v -3.16126 q -1.36261,0.10901 -1.72234,0.10901 -1.10099,0 -1.10099,-1.05738 0,-1.07919 1.90765,-1.13369 l 1.04649,-0.0327 q 0.0327,-0.61045 0.16351,-1.65693 0.28342,-2.42 1.2209,-3.56459 1.13369,-1.38441 3.54278,-1.38441 1.55883,0 1.55883,1.05739 0,1.04648 -1.41711,1.04648 z m 12.91755,8.96052 q 0,0.78487 0.0109,2.35459 0.0109,1.56973 0.0109,2.35459 0,0.23982 0.0327,0.73036 0.0436,0.49054 0.0436,0.73036 0,0.46874 -0.31612,0.76306 -0.31613,0.30523 -0.77396,0.30523 -0.83937,0 -1.06829,-1.03559 -1.36261,0.70856 -3.13945,0.70856 -1.42802,0 -2.36549,-0.63225 -1.03559,-0.69766 -1.2318,-2.03847 -0.42514,-2.88873 -0.42514,-5.14521 0,-1.49342 0.32703,-3.40107 0.15261,-0.94838 1.03558,-0.94838 0.46874,0 0.78487,0.30522 0.31612,0.29433 0.31612,0.76306 0,0.50145 -0.16351,1.60243 -0.15261,1.10099 -0.15261,1.67874 0,1.82045 0.11991,3.11765 0.1199,1.29721 0.35972,2.08207 0.35973,0.19621 0.70856,0.30522 0.34883,0.0981 0.68676,0.0981 1.46071,0 3.08495,-0.46874 l -0.0109,-2.21287 -0.0218,-2.11478 q 0,-2.35459 0.20712,-4.08783 0.11991,-1.00288 1.05738,-1.00288 0.46874,0 0.78487,0.30523 0.31612,0.30522 0.29432,0.76306 z m 11.07529,7.14008 q -0.93748,0 -1.05739,-1.02468 l -0.30522,-2.3873 q -0.15261,-1.2754 -0.15261,-2.38729 0,-0.30522 0.0327,-1.03558 0.0436,-0.73036 0.0436,-1.03559 0,-2.35459 -0.87207,-2.35459 -1.2209,0 -2.33279,1.44982 -1.00288,1.31901 -1.56972,3.33567 -0.0218,0.42513 -0.0981,1.06829 -0.0654,0.54504 -0.0654,1.05738 0,0.32703 0.0654,0.98108 0.0654,0.65405 0.0654,0.98108 0,0.49054 -0.30523,0.79576 -0.29432,0.30523 -0.76306,0.30523 -0.47964,0 -0.77396,-0.30523 -0.29433,-0.30522 -0.29433,-0.79576 0,-0.32703 -0.0763,-0.98108 -0.0654,-0.65405 -0.0654,-0.98108 0,-1.12279 0.15261,-3.10675 0.16352,-1.99486 0.16352,-3.11765 0,-0.34883 -0.0436,-1.03558 -0.0327,-0.68676 -0.0327,-1.03559 0,-0.46874 0.30523,-0.76306 0.31612,-0.30522 0.77396,-0.30522 1.00288,0 1.10099,1.41711 l 0.0327,1.2754 q 1.83135,-2.44179 3.7608,-2.44179 1.74414,0 2.4309,1.53702 0.46874,1.02468 0.51234,3.03044 v 1.10099 l -0.0109,1.01379 q 0,0.90477 0.22892,2.34368 0.23982,1.42802 0.23982,2.32189 0,0.47964 -0.31613,0.77396 -0.30522,0.30523 -0.77396,0.30523 z" id="text1" aria-label="(c) MagicPencil.fun" ns1:label="Logo" />
    <path id="outline-0" d="m 879,2181.8672 c -37.11503,-1.7699 -80.89133,-6.7819 -122,-13.9678 -106.85904,-18.6794 -213.49911,-55.6311 -316.5,-109.6701 -37.56307,-19.7074 -88.53541,-50.5369 -120,-72.5795 -75.43557,-52.8465 -129.3379,-98.279 -192.53238,-162.2792 -37.65519,-38.1352 -41.121816,-42.7512 -39.539201,-52.6483 0.587965,-3.677 28.392691,-59.9627 63.834781,-129.2223 9.00642,-17.6 25.2892,-49.55 36.18396,-71 10.89476,-21.45 25.31987,-49.8 32.0558,-63 6.73593,-13.2 20.90986,-41.1 31.49761,-62 10.58775,-20.9 25.43678,-50.15 32.99785,-65 7.56106,-14.85 20.38782,-40.05 28.5039,-56 8.11608,-15.95 19.14211,-37.55 24.50227,-48 5.36017,-10.45 15.59426,-30.475 22.74242,-44.5 7.14816,-14.025 19.08086,-37.425 26.5171,-52 12.01834,-23.5559 32.23299,-63.2835 85.99233,-169 15.83412,-31.13741 30.9291,-60.76833 53.74522,-105.5 6.45234,-12.65 20.07063,-39.425 30.26286,-59.5 10.19223,-20.075 22.67639,-44.6 27.74258,-54.5 5.06618,-9.9 19.78891,-38.925 32.71718,-64.5 12.92828,-25.575 31.49704,-62.25 41.26391,-81.5 9.76688,-19.25 25.05815,-49.4 33.98061,-67 8.92245,-17.6 25.12054,-49.55 35.99575,-71 10.87522,-21.45 30.12373,-59.475 42.77447,-84.5 36.70532,-72.60843 71.58002,-141.56222 84.71634,-167.5 6.68521,-13.2 13.77231,-26.52543 15.74913,-29.61207 4.48062,-6.99614 9.78582,-9.88793 18.14012,-9.88793 5.88588,0 14.19459,3.02387 53.65539,19.52734 7.425,3.10531 15.12806,6.24109 17.11792,6.96838 1.98985,0.7273 4.46485,1.79019 5.5,2.36197 1.03514,0.57179 5.70708,2.7022 10.38208,4.73424 4.675,2.03205 11.65,5.13783 15.5,6.90173 3.85,1.76391 11.4409,5.16223 16.8688,7.55184 14.9323,6.57398 16.749,8.64856 29.2952,33.4545 32.933,65.11406 98.336,196.7378 98.336,197.90144 0,0.16969 6.975,14.57797 15.5,32.01841 8.525,17.44043 15.5,31.84862 15.5,32.01821 0,0.16958 4.0957,8.80289 9.1015,19.18513 5.0059,10.38225 15.987,33.50181 24.4024,51.37681 8.4155,17.875 18.2699,38.72917 21.8985,46.3426 3.6287,7.61343 6.5976,13.97983 6.5976,14.14756 0,0.16772 2.5358,5.63855 5.6351,12.15739 3.0992,6.51885 10.9213,23.32745 17.3822,37.35245 6.461,14.025 16.1308,34.95 21.4883,46.5 14.2636,30.74974 35.1995,76.57551 47.5134,104 5.9269,13.2 13.3283,29.625 16.4474,36.5 3.1192,6.875 11.0604,24.65 17.6471,39.5 6.5867,14.85 14.6283,32.85 17.8701,40 5.9185,13.0535 17.4844,39.3541 25.506,58 2.3661,5.5 10.9241,25.3 19.0176,44 23.1488,53.4849 38.4682,89.1393 48.7669,113.5 5.2316,12.375 13.2245,31.275 17.7621,42 4.5375,10.725 10.3762,24.675 12.9748,31 2.5986,6.325 7.7598,18.7 11.4695,27.5 3.7096,8.8 8.2361,19.6 10.0589,24 1.8228,4.4 6.3019,15.2 9.9536,24 16.3281,39.3479 49.9672,122.8287 83.0091,206 9.2904,23.3853 16.9921,43.1297 35.6915,91.5 3.2956,8.525 10.0003,25.7229 14.8992,38.2176 4.899,12.4947 8.9072,23.0035 8.9072,23.3528 0,0.3494 2.8972,7.9015 6.4381,16.7824 15.246,38.2377 32.8869,85.4559 33.3098,89.1576 1.0352,9.0611 -0.608,11.7477 -17.0607,27.8945 -44.3267,43.5025 -82.2931,75.2288 -133.1872,111.2966 -111.5949,79.0855 -245.5721,141.888 -373,174.8456 -67.3049,17.4076 -140.9822,28.898 -208,32.4388 -21.95179,1.1598 -76.01564,1.0965 -101.5,-0.1187 z m 108.5,-41.3681 c 42.0923,-2.6161 76.467,-6.761 117,-14.108 83.3493,-15.1078 176.5807,-44.8505 252.3708,-80.5114 5.704,-2.6838 10.5543,-4.8797 10.7785,-4.8797 0.2242,0 10.6807,-5.1397 23.2366,-11.4215 73.1696,-36.6073 134.1475,-75.542 199.6141,-127.4544 23.6928,-18.7875 60.0146,-51.0922 59.3391,-52.7764 -0.3444,-0.8584 -16.4326,-4.9206 -56.6418,-14.3018 l -22.3027,-5.2034 -4.6973,4.275 c -2.5835,2.3513 -9.8723,9.2758 -16.1973,15.3879 -32.6287,31.5305 -59.2055,53.6652 -95.8813,79.8555 -92.4794,66.0399 -183.6649,110.6286 -288.6187,141.1314 -64.737,18.8145 -120.8671,28.8053 -195,34.7086 -24.66803,1.9643 -105.37054,1.6599 -133.5,-0.5037 -72.24503,-5.5566 -135.83591,-17.1994 -206.5,-37.8078 -13.58987,-3.9634 -47.17899,-15.2187 -61.5,-20.608 -92.29025,-34.7305 -166.05526,-73.4484 -246,-129.121 -31.58929,-21.9985 -47.32117,-34.2955 -84.5,-66.0504 -25.64756,-21.906 -69.5313,-64.5223 -89.45383,-86.8704 -3.5496,-3.9818 -6.95016,-7.2396 -7.5568,-7.2396 -0.60664,0 -2.61634,3.1283 -4.466,6.9517 l -3.36302,6.9517 14.85777,15.6325 c 56.12615,59.0527 128.49766,120.1887 198.48188,167.668 66.62699,45.2017 137.76874,83.673 209.5,113.2911 101.3169,41.8341 213.30419,67.2916 323,73.4257 24.76797,1.385 82.56156,1.1594 108,-0.4216 z m -7.5,-76.886 c 98.5659,-9.0884 181.2868,-29.288 269.5,-65.8092 86.729,-35.9067 176.2068,-91.082 242.5,-149.5345 27.3677,-24.1308 47.5047,-43.5762 47.3266,-45.7011 -0.095,-1.1376 -5.413,-14.6683 -11.817,-30.0683 -6.4039,-15.4 -15.7445,-38.2375 -20.7568,-50.75 -5.0123,-12.5125 -9.6431,-22.75 -10.2906,-22.75 -0.6475,0 -4.425,3.5968 -8.3944,7.9929 -17.8063,19.7202 -61.6614,57.875 -95.0678,82.711 -155.2085,115.3896 -350.5595,175.8396 -541,167.4088 -62.86905,-2.7832 -123.03584,-11.4142 -185,-26.5385 -33.19505,-8.1023 -85.51197,-25.0391 -117.5,-38.0389 -80.67291,-32.7852 -143.45354,-68.139 -215.40526,-121.3015 -39.20392,-28.9664 -84.96684,-70.3402 -127.37811,-115.1611 -5.38086,-5.6866 -9.93977,-10.1668 -10.13092,-9.956 -0.26715,0.2946 -34.04089,67.1334 -35.38118,70.0199 -0.45965,0.9899 6.25279,8.5093 29.33638,32.8634 38.361,40.4723 73.68082,72.1122 128.95909,115.5233 20.53074,16.1231 63.46429,44.951 94.78667,63.6448 78.61369,46.9182 168.73006,84.5278 257.21333,107.3466 65.19826,16.8138 117.36674,25.2206 182.73363,29.4469 21.87463,1.4142 105.53149,0.5173 125.76637,-1.3485 z m -36,-148.588 c 69.8436,-5.4028 138.4185,-19.4822 204,-41.8842 89.283,-30.4981 168.5904,-73.9173 243,-133.0377 25.4282,-20.2033 59.3314,-51.3939 80.2737,-73.8509 8.4849,-9.0986 8.6062,-9.3 7.5256,-12.5 -0.9977,-2.9546 -13.3761,-33.7754 -49.3004,-122.7523 -6.9949,-17.325 -14.8742,-37.125 -17.5095,-44 -2.6352,-6.875 -8.474,-21.725 -12.9749,-33 -4.501,-11.275 -9.7492,-24.55 -11.6627,-29.5 -6.5514,-16.9475 -35.6055,-89.9943 -63.6393,-160 -15.4173,-38.5 -31.2945,-78.325 -35.2826,-88.5 -3.988,-10.175 -10.6199,-26.825 -14.7374,-37 -24.5128,-60.575 -29.1661,-72.0149 -35.185,-86.5 -3.6567,-8.8 -9.9664,-24.325 -14.0217,-34.5 -4.0553,-10.175 -9.8143,-24.35 -12.7978,-31.5 -10.1081,-24.22416 -17.4738,-41.91651 -29.7671,-71.5 -16.8432,-40.53279 -31.083,-74.57732 -38.8991,-93 -14.1185,-33.27798 -35.0247,-81.76909 -39.0119,-90.4868 -1.5126,-3.30726 -5.9115,-13.4382 -9.7751,-22.5132 -3.8637,-9.075 -8.1496,-18.975 -9.5242,-22 -1.3745,-3.025 -6.7631,-15.175 -11.9746,-27 -5.2115,-11.825 -11.2662,-25.55 -13.4548,-30.5 -7.5837,-17.15182 -49.0959,-108.02803 -52.0751,-114 -1.6463,-3.3 -5.2391,-10.95 -7.98401,-17 -16.98375,-37.43318 -68.78445,-142.36045 -97.74903,-198 -4.29474,-8.25 -8.29562,-16.00899 -8.89084,-17.2422 -0.59522,-1.23321 -1.53222,-2.24125 -2.08222,-2.24009 -0.55,0.001 -6.73768,11.58515 -13.75039,25.7422 -7.01272,14.15705 -22.79522,45.54009 -35.07222,69.74009 -12.27701,24.2 -37.08435,73.25 -55.12744,109 -38.27324,75.83338 -65.47683,129.49314 -77.0586,152 -4.52837,8.8 -16.00265,31.525 -25.4984,50.5 -9.49575,18.975 -25.46474,50.475 -35.48666,70 -10.02191,19.525 -30.04612,58.9 -44.49825,87.5 -14.45213,28.6 -30.20392,59.65 -35.00397,69 -4.80006,9.35 -17.62327,34.55 -28.49603,56 -10.87276,21.45 -25.05239,49.35 -31.51029,62 -6.4579,12.65 -18.60619,36.5 -26.9962,53 -64.60644,127.0567 -109.94123,216.0424 -133.47886,262 -6.19714,12.1 -19.70861,38.65 -30.0255,59 -10.3169,20.35 -25.61942,50.5 -34.00562,67 -8.38619,16.5 -26.38355,52.05 -39.99414,79 -13.61058,26.95 -25.14047,49.4275 -25.62197,49.95 -2.32434,2.5222 -0.11699,5.882 14.48668,22.05 68.38037,75.705 153.91542,141.8687 247.13786,191.1676 69.55765,36.7843 159.3344,68.9071 234,83.7268 42.00581,8.3375 87.24402,14.1664 128.5,16.5574 18.86763,1.0935 82.423,0.5103 101,-0.9267 z m -62.24585,-75.1091 c -5.40713,-1.2747 -14.59439,-6.1665 -19.44616,-10.3543 -5.30411,-4.5782 -12.29324,-15.1471 -15.58117,-23.5617 -6.64423,-17.0042 -6.30812,-43.3168 0.89417,-70 7.92673,-29.3671 30.49025,-71.5032 40.94638,-76.4649 5.45705,-2.5896 9.34711,-0.7915 15.79615,7.3013 17.02293,21.3617 33.45601,60.9597 37.55147,90.486 1.36886,9.8688 1.3837,26.2436 0.0313,34.5784 -3.86093,23.7953 -17.99102,42.0007 -36.87782,47.5137 -5.81839,1.6984 -17.19884,1.9432 -23.31435,0.5015 z m -248.35204,-86.9135 c -11.49518,-1.6844 -20.53813,-6.281 -28.1123,-14.2896 -8.99379,-9.5096 -12.25541,-18.2891 -13.02745,-35.067 -0.64938,-14.1122 0.58973,-22.2815 5.40619,-35.6421 9.64212,-26.7468 34.96487,-61.3898 60.23434,-82.4041 9.24106,-7.6849 12.81398,-9.5997 17.91259,-9.5997 7.65634,0 11.19213,5.567 16.24632,25.5794 7.66553,30.3521 8.95123,67.0684 3.30582,94.406 -7.40435,35.8552 -34.73884,61.0069 -61.96551,57.0171 z m 664.39559,-49.8789 c -15.1169,-4.9777 -29.6107,-18.7458 -38.5811,-36.6495 -9.9655,-19.8899 -16.0921,-55.4932 -14.8804,-86.4741 1.3117,-33.5375 6.7842,-48.2098 17.4349,-46.7447 7.9573,1.0945 31.3084,17.521 49.8561,35.0715 21.6796,20.514 37.5303,44.171 43.3773,64.7405 2.7202,9.5694 3.6656,24.8263 2.0524,33.1219 -2.9137,14.9829 -12.3644,27.3658 -26.3329,34.5029 -6.6844,3.4154 -7.9709,3.7141 -17.224,4.0001 -7.7273,0.2388 -11.2959,-0.1177 -15.7023,-1.5686 z m -220.5242,-35.0949 c -8.9837,-2.1343 -20.9956,-10.5628 -27.6341,-19.3903 -12.4791,-16.5941 -17.8761,-36.6979 -17.8893,-66.6384 -0.01,-19.8291 1.7647,-35.0225 6.2803,-53.8032 4.9287,-20.4985 11.0894,-31.1968 17.9649,-31.1968 8.4489,0 33.333,25.0986 51.0883,51.5288 5.7584,8.5717 15.8055,28.5215 18.8713,37.4712 7.172,20.9364 6.567,46.9019 -1.41,60.5137 -3.1812,5.4282 -13.4388,14.8961 -19.3806,17.8885 -8.1409,4.0999 -19.6172,5.5921 -27.8908,3.6265 z m -716.78519,-30.905 c -8.79186,-3.2277 -13.70247,-6.2074 -19.06179,-11.5667 -9.36106,-9.3611 -13.39539,-20.0816 -13.41465,-35.647 -0.0255,-20.6227 7.81865,-38.7679 26.18932,-60.5814 18.93707,-22.486 50.01737,-46.6398 69.862,-54.2927 11.88118,-4.5819 15.37717,-4.0134 19.00101,3.0899 3.04757,5.9738 3.99598,13.4382 4.04987,31.8742 0.0536,18.3364 -0.97259,28.496 -4.74729,47 -4.49337,22.0269 -12.21073,42.1723 -20.49498,53.5 -7.93963,10.8565 -19.96768,20.7924 -30.8718,25.5021 -7.5402,3.2567 -23.13427,3.8299 -30.51169,1.1216 z m 192.32496,-132.991 c -10.53887,-4.253 -15.59912,-9.1262 -20.55658,-19.7968 -2.41289,-5.1936 -2.70876,-6.9915 -2.68817,-16.3359 0.0266,-12.0835 1.56842,-18.3331 7.52452,-30.5 9.95876,-20.3433 34.13406,-46.1722 54.25078,-57.9613 6.73879,-3.9492 9.73615,-4.1837 13.45697,-1.0529 11.52341,9.6963 12.06046,64.5664 0.91694,93.6829 -5.06685,13.239 -14.88161,24.8061 -25.8004,30.4068 -7.23021,3.7087 -19.96022,4.4401 -27.10406,1.5572 z M 1279,1439.0649 c -8.5551,-2.6118 -16.3663,-8.2282 -22.9489,-16.5007 -8.8175,-11.081 -15.1677,-26.5851 -18.8117,-45.9285 -2.0903,-11.0957 -2.3802,-45.6244 -0.4388,-52.2552 1.8955,-6.4738 4.6915,-9.3806 9.022,-9.3797 9.1024,0 30.2519,13.8492 47.2008,30.9039 12.8504,12.9306 20.4046,23.5792 25.249,35.5918 3.0838,7.647 3.2273,8.6048 3.2215,21.5035 -0.01,12.7134 -0.1627,13.7976 -2.6947,18.6076 -3.5069,6.6622 -11.4942,13.7604 -18.3851,16.3386 -5.643,2.1114 -16.3332,2.6698 -21.4141,1.1187 z m -407.5,-98.7582 c -8.62588,-0.7701 -25.95402,-4.5213 -34.26285,-7.4172 -28.82299,-10.0459 -55.23698,-32.9718 -68.55288,-59.5003 -9.46457,-18.8558 -10.0789,-30.0756 -2.05743,-37.5756 3.80855,-3.5609 7.39724,-4.8136 13.79038,-4.8136 9.04214,0 13.67208,4.3342 18.52355,17.3403 3.69261,9.8993 8.10464,17.2284 14.91136,24.77 17.00872,18.8451 42.70076,29.8897 69.52959,29.8897 15.68262,0 27.47139,-2.6374 42.19384,-9.4396 20.21673,-9.3407 37.03132,-27.5373 42.56214,-46.0604 2.55893,-8.5701 4.86494,-11.9505 9.90668,-14.5226 4.61769,-2.3558 13.76114,-2.6506 17.75528,-0.5724 5.79934,3.0174 10.20034,10.3339 10.20034,16.9575 0,5.1601 -3.6734,16.115 -8.59664,25.6375 -15.32059,29.6327 -44.68877,52.6533 -77.85879,61.0305 -16.37226,4.1349 -33.02533,5.6171 -48.04457,4.2762 z m -219,-137.9472 c -19.39605,-3.9621 -28.87612,-8.2825 -42.35151,-19.3013 -10.795,-8.827 -22.76256,-28.8108 -25.78602,-43.0582 -1.90734,-8.988 -2.10227,-25.0312 -0.41309,-34 7.82044,-41.523 48.7454,-71.0061 90.37524,-65.108 18.46594,2.6163 32.29869,9.6506 46.30731,23.5483 8.06704,8.0032 9.72238,10.2841 14.19525,19.5597 7.51084,15.5755 8.65781,20.7043 8.60993,38.5 -0.0383,14.2267 -0.20598,15.482 -3.25278,24.3488 -4.66069,13.5636 -10.11493,22.2006 -20.71724,32.8066 -7.99012,7.9928 -10.4737,9.7985 -19.55965,14.2207 -13.04731,6.3502 -24.35917,9.1468 -36.40744,9.0009 -4.95,-0.06 -9.9,-0.2928 -11,-0.5175 z m 47.1224,-86.1825 c 8.37099,-4.3043 12.81174,-11.6474 12.80692,-21.177 -0.006,-11.1679 -6.25523,-19.44 -17.05994,-22.581 -20.4477,-5.9443 -37.54951,15.9454 -26.79542,34.2971 6.40498,10.9301 20.08461,15.0984 31.04844,9.4609 z M 1093,1202.3705 c -19.4035,-3.7513 -35.0491,-12.118 -47.0907,-25.1824 -13.6794,-14.8412 -20.6146,-31.603 -21.6321,-52.2827 -2.3863,-48.4989 37.3078,-87.6493 85.7228,-84.5489 10.7208,0.6866 16.3888,2.0329 26.519,6.2992 33.3402,14.041 54.1697,51.807 48.068,87.1523 -5.3823,31.1782 -26.4993,55.8448 -56.0718,65.497 -7.5444,2.4624 -10.973,2.9919 -21.0152,3.2456 -6.6,0.1668 -13.125,0.086 -14.5,-0.1801 z m 49.8166,-87.0605 c 2.7757,-1.7161 5.8428,-4.8237 7.657,-7.758 2.6334,-4.2595 3.023,-5.8143 3,-11.9736 -0.06,-16.145 -12.9427,-26.8158 -28.3776,-23.5056 -14.9974,3.2164 -22.424,19.0902 -15.6938,33.5442 5.7696,12.3913 21.6153,16.9878 33.4144,9.693 z m -124.26,-206.74356 C 996.27396,899.19222 982.84039,876.63665 978.91123,842 c -2.11312,-18.62783 0.10434,-47.99483 5.13965,-68.06701 4.6055,-18.35883 9.78615,-23.60759 18.77502,-19.02183 12.9001,6.58114 35.4116,29.71143 50.095,51.47188 23.7188,35.1507 26.5699,74.00818 6.8765,93.71989 -7.3183,7.32514 -14.3144,10.20535 -25.7974,10.62044 -8.3452,0.30166 -10.2225,0.0395 -15.4434,-2.15693 z M 710.5,879.59785 c -10.71273,-3.39688 -18.77654,-9.97036 -23.86694,-19.45591 -4.05638,-7.55873 -5.60752,-14.30409 -5.62119,-24.44453 -0.0288,-21.33647 9.08305,-42.9311 28.031,-66.43231 15.94379,-19.77514 33.86517,-36.07245 46.62591,-42.40056 10.12081,-5.01896 13.68113,-3.13912 17.30204,9.13546 6.64363,22.52128 7.57512,63.09357 2.02115,88.0339 -5.02793,22.57814 -17.83681,42.9982 -32.15153,51.25632 -9.15849,5.28351 -23.31587,7.16922 -32.34044,4.30763 z M 873.48694,666.20123 C 857.55811,660.69317 846.42317,647.56096 841.51966,628.5 c -5.90105,-22.93861 -0.36394,-55.73626 15.06455,-89.23101 4.81949,-10.46295 16.93948,-30.15721 21.23002,-34.49751 9.89106,-10.00578 17.93063,-3.28585 33.17378,27.72852 8.55275,17.40178 11.29337,24.77557 16.21772,43.63457 3.06759,11.74813 3.23029,13.28898 3.25898,30.86543 0.0299,18.30871 -0.002,18.58961 -3.13258,27.16567 -5.23311,14.33812 -11.99041,23.10008 -22.45752,29.11988 -8.32589,4.78834 -22.23546,6.08044 -31.38767,2.91568 z M 1655.4685,1801.5125 c -1.343,-3.5681 -4.0854,-10.6556 -6.0942,-15.75 -2.0088,-5.0944 -6.6679,-17.3625 -10.3535,-27.2625 -13.5428,-36.3773 -22.4253,-58.715 -23.4597,-58.9964 -1.9831,-0.5394 -44.0163,-8.4995 -60.9569,-11.5439 -9.2765,-1.667 -17.1144,-2.7829 -17.4176,-2.4796 -0.5708,0.5708 15.312,40.6325 31.3282,79.0199 5.0484,12.1 9.4237,22.6962 9.7228,23.547 0.3903,1.1103 8.5497,3.4384 28.9031,8.2467 15.5976,3.6848 32.8593,7.7838 38.3593,9.1088 5.5,1.325 10.5423,2.4515 11.2052,2.5033 0.7991,0.062 0.3823,-2.0919 -1.2367,-6.3933 z M 1598.656,1653.75 c -1.0007,-2.2418 -17.7033,-44.8713 -23.6064,-60.25 -5.0335,-13.1131 -24.4453,-61.5247 -64.5568,-161 -6.2098,-15.4 -14.3133,-35.2 -18.0079,-44 -3.6945,-8.8 -9.3026,-22.3 -12.4624,-30 -3.1597,-7.7 -9.9067,-23.9 -14.9933,-36 -5.0866,-12.1 -12.6231,-30.1 -16.7476,-40 -4.1246,-9.9 -11.4685,-27.2318 -16.3198,-38.5151 -4.8513,-11.2833 -11.5086,-27.0333 -14.794,-35 -6.6604,-16.1505 -13.3994,-31.7918 -40.7085,-94.4849 -28.5709,-65.59 -31.6023,-72.5064 -40.9807,-93.5 -4.7911,-10.725 -11.9701,-26.925 -15.9533,-36 -3.9833,-9.075 -11.4096,-25.725 -16.503,-37 -5.0933,-11.275 -12.9925,-28.825 -17.5536,-39 -4.5612,-10.175 -11.3043,-25.025 -14.9848,-33 -3.6805,-7.975 -9.955,-21.7 -13.9433,-30.5 -9.5462,-21.06287 -33.3033,-72.65155 -45.5907,-99 -14.9776,-32.11731 -48.5481,-103.23552 -64.1972,-136 -5.5165,-11.55 -14.3997,-30.225 -19.7404,-41.5 -5.3407,-11.275 -13.5442,-28.15 -18.2302,-37.5 -4.6859,-9.35 -11.1062,-22.625 -14.2673,-29.5 -3.161,-6.875 -26.8086,-54.8 -52.55,-106.5 l -46.80267,-94 -4.33107,-1.63987 c -2.38208,-0.90193 -9.32516,-3.91788 -15.42905,-6.70212 C 963.48008,287.71994 937.36384,277 936.03735,277 c -0.4436,0 0.5514,2.5875 2.2111,5.75 7.89341,15.04055 63.70335,127.187 72.53285,145.75 28.6729,60.28153 37.7282,79.40455 45.222,95.5 13.7519,29.537 58.0463,127.42724 60.1744,132.98498 0.5233,1.36675 1.5715,3.84175 2.3294,5.5 13.7992,30.19486 87.2443,202.0822 111.3145,260.51502 4.4179,10.725 11.9368,28.95 16.7086,40.5 12.1582,29.42877 33.6591,82.2503 40.5012,99.5 3.1633,7.975 14.6167,36.325 25.452,63 22.6327,55.7184 69.429,172.9536 95.9993,240.5 14.9617,38.0351 33.7335,85.1978 35.117,88.2286 0.8106,1.7757 2.5367,6.0507 3.8357,9.5 6.6737,17.7199 44.6674,112.7589 60.2232,150.6446 4.6008,11.2053 8.6238,21.4038 8.9399,22.6634 0.6688,2.6647 -0.6412,2.287 24.4015,7.0347 10.725,2.0332 27.15,5.1719 36.5,6.9747 19.3423,3.7296 21.9587,4.0021 21.156,2.204 z" transform="translate(117.3847,50.9331) scale(0.234764)" style="fill:#000000;stroke:none" />
  </g>
</svg>