<?xml version='1.0' encoding='utf-8'?>
<svg xmlns="http://www.w3.org/2000/svg" xmlns:ns1="http://www.inkscape.org/namespaces/inkscape" xmlns:ns2="http://sodipodi.sourceforge.net/DTD/sodipodi-0.dtd" viewBox="0 0 158.75 119.0625" version="1.1" id="svg1" ns1:version="1.4.2 (f4327f4, 2025-05-13)" ns2:docname="18 Palm Tree.svg" ns1:export-filename="Dinosore 1.svg" ns1:export-xdpi="96" ns1:export-ydpi="96">
  <ns2:namedview id="namedview1" pagecolor="#ffffff" bordercolor="#000000" borderopacity="0.25" ns1:showpageshadow="2" ns1:pageopacity="0.0" ns1:pagecheckerboard="0" ns1:deskcolor="#d1d1d1" ns1:document-units="mm" ns1:zoom="0.89619809" ns1:cx="333.6316" ns1:cy="169.04745" ns1:window-width="1366" ns1:window-height="705" ns1:window-x="-8" ns1:window-y="-8" ns1:window-maximized="1" ns1:current-layer="layer2" showgrid="false" />
  <defs id="defs1">
    <clipPath clipPathUnits="userSpaceOnUse" id="clipPath3">
      <path d="M 0,500 H 500 V 0 H 0 Z" transform="translate(-432.53711,-135.74711)" id="path3" />
    </clipPath>
    <clipPath clipPathUnits="userSpaceOnUse" id="clipPath5">
      <path d="M 0,500 H 500 V 0 H 0 Z" transform="translate(-151.34181,-199.4336)" id="path5" />
    </clipPath>
    <clipPath clipPathUnits="userSpaceOnUse" id="clipPath7">
      <path d="M 0,500 H 500 V 0 H 0 Z" transform="translate(-151.34181,-199.4336)" id="path7" />
    </clipPath>
    <clipPath clipPathUnits="userSpaceOnUse" id="clipPath9">
      <path d="M 0,500 H 500 V 0 H 0 Z" transform="translate(-182.0161,-196.83011)" id="path9" />
    </clipPath>
    <clipPath clipPathUnits="userSpaceOnUse" id="clipPath11">
      <path d="M 0,500 H 500 V 0 H 0 Z" transform="translate(-270.2578,-262.13381)" id="path11" />
    </clipPath>
    <clipPath clipPathUnits="userSpaceOnUse" id="clipPath13">
      <path d="M 0,500 H 500 V 0 H 0 Z" transform="translate(-270.2578,-262.13381)" id="path13" />
    </clipPath>
    <clipPath clipPathUnits="userSpaceOnUse" id="clipPath15">
      <path d="M 0,500 H 500 V 0 H 0 Z" transform="translate(-270.73731,-316.68121)" id="path15" />
    </clipPath>
    <clipPath clipPathUnits="userSpaceOnUse" id="clipPath17">
      <path d="M 0,500 H 500 V 0 H 0 Z" transform="translate(-243.895,-297.82131)" id="path17" />
    </clipPath>
    <clipPath clipPathUnits="userSpaceOnUse" id="clipPath19">
      <path d="M 0,500 H 500 V 0 H 0 Z" transform="translate(-243.895,-297.82131)" id="path19" />
    </clipPath>
    <clipPath clipPathUnits="userSpaceOnUse" id="clipPath21">
      <path d="M 0,500 H 500 V 0 H 0 Z" transform="translate(-227.96341,-327.47461)" id="path21" />
    </clipPath>
    <clipPath clipPathUnits="userSpaceOnUse" id="clipPath23">
      <path d="M 0,500 H 500 V 0 H 0 Z" transform="translate(-150.6709,-325.02691)" id="path23" />
    </clipPath>
    <clipPath clipPathUnits="userSpaceOnUse" id="clipPath25">
      <path d="M 0,500 H 500 V 0 H 0 Z" transform="translate(-150.6709,-325.02691)" id="path25" />
    </clipPath>
    <clipPath clipPathUnits="userSpaceOnUse" id="clipPath27">
      <path d="M 0,500 H 500 V 0 H 0 Z" transform="translate(-115.0161,-334.36131)" id="path27" />
    </clipPath>
    <clipPath clipPathUnits="userSpaceOnUse" id="clipPath29">
      <path d="M 0,500 H 500 V 0 H 0 Z" transform="translate(-104.1924,-244.44141)" id="path29" />
    </clipPath>
    <clipPath clipPathUnits="userSpaceOnUse" id="clipPath31">
      <path d="M 0,500 H 500 V 0 H 0 Z" transform="translate(-104.1924,-244.44141)" id="path31" />
    </clipPath>
    <clipPath clipPathUnits="userSpaceOnUse" id="clipPath33">
      <path d="M 0,500 H 500 V 0 H 0 Z" transform="translate(-79.019004,-177.8154)" id="path33" />
    </clipPath>
    <clipPath clipPathUnits="userSpaceOnUse" id="clipPath35">
      <path d="M 0,500 H 500 V 0 H 0 Z" transform="translate(-105.8481,-187.5293)" id="path35" />
    </clipPath>
    <clipPath clipPathUnits="userSpaceOnUse" id="clipPath37">
      <path d="M 0,500 H 500 V 0 H 0 Z" transform="translate(-120.3486,-245.5713)" id="path37" />
    </clipPath>
    <clipPath clipPathUnits="userSpaceOnUse" id="clipPath39">
      <path d="M 0,500 H 500 V 0 H 0 Z" transform="translate(-43.031301,-294.82521)" id="path39" />
    </clipPath>
    <clipPath clipPathUnits="userSpaceOnUse" id="clipPath41">
      <path d="M 0,500 H 500 V 0 H 0 Z" transform="translate(-140.2095,-138.87791)" id="path41" />
    </clipPath>
    <clipPath clipPathUnits="userSpaceOnUse" id="clipPath43">
      <path d="M 0,500 H 500 V 0 H 0 Z" transform="translate(-140.2095,-138.87791)" id="path43" />
    </clipPath>
    <clipPath clipPathUnits="userSpaceOnUse" id="clipPath45">
      <path d="M 0,500 H 500 V 0 H 0 Z" transform="translate(-131.71041,-136.21781)" id="path45" />
    </clipPath>
    <clipPath clipPathUnits="userSpaceOnUse" id="clipPath47">
      <path d="M 0,500 H 500 V 0 H 0 Z" transform="translate(-95.863802,-329.88091)" id="path47" />
    </clipPath>
    <clipPath clipPathUnits="userSpaceOnUse" id="clipPath49">
      <path d="M 0,500 H 500 V 0 H 0 Z" transform="translate(-99.722702,-346.67581)" id="path49" />
    </clipPath>
    <clipPath clipPathUnits="userSpaceOnUse" id="clipPath51">
      <path d="M 0,500 H 500 V 0 H 0 Z" transform="translate(-99.596702,-349.59371)" id="path51" />
    </clipPath>
    <clipPath clipPathUnits="userSpaceOnUse" id="clipPath53">
      <path d="M 0,500 H 500 V 0 H 0 Z" transform="translate(-75.429699,-348.79931)" id="path53" />
    </clipPath>
    <clipPath clipPathUnits="userSpaceOnUse" id="clipPath55">
      <path d="M 0,500 H 500 V 0 H 0 Z" transform="translate(-52.736801,-378.31591)" id="path55" />
    </clipPath>
    <clipPath clipPathUnits="userSpaceOnUse" id="clipPath57">
      <path d="M 0,500 H 500 V 0 H 0 Z" transform="translate(-71.700202,-397.00241)" id="path57" />
    </clipPath>
    <clipPath clipPathUnits="userSpaceOnUse" id="clipPath59">
      <path d="M 0,500 H 500 V 0 H 0 Z" transform="translate(-49.381801,-362.78271)" id="path59" />
    </clipPath>
    <clipPath clipPathUnits="userSpaceOnUse" id="clipPath61">
      <path d="M 0,500 H 500 V 0 H 0 Z" transform="translate(-75.429699,-348.79931)" id="path61" />
    </clipPath>
    <clipPath clipPathUnits="userSpaceOnUse" id="clipPath63">
      <path d="M 0,500 H 500 V 0 H 0 Z" transform="translate(-52.736801,-378.31591)" id="path63" />
    </clipPath>
    <clipPath clipPathUnits="userSpaceOnUse" id="clipPath65">
      <path d="M 0,500 H 500 V 0 H 0 Z" transform="translate(-87.7402,-374.77391)" id="path65" />
    </clipPath>
    <clipPath clipPathUnits="userSpaceOnUse" id="clipPath67">
      <path d="M 0,500 H 500 V 0 H 0 Z" transform="translate(-90.202105,-372.51071)" id="path67" />
    </clipPath>
    <clipPath clipPathUnits="userSpaceOnUse" id="clipPath69">
      <path d="M 0,500 H 500 V 0 H 0 Z" transform="translate(-43.860801,-338.97661)" id="path69" />
    </clipPath>
    <clipPath clipPathUnits="userSpaceOnUse" id="clipPath71">
      <path d="M 0,500 H 500 V 0 H 0 Z" transform="translate(-62.706502,-345.08251)" id="path71" />
    </clipPath>
    <clipPath clipPathUnits="userSpaceOnUse" id="clipPath73">
      <path d="M 0,500 H 500 V 0 H 0 Z" transform="translate(-32.944801,-364.06201)" id="path73" />
    </clipPath>
    <clipPath clipPathUnits="userSpaceOnUse" id="clipPath75">
      <path d="M 0,500 H 500 V 0 H 0 Z" transform="translate(-32.363801,-386.02201)" id="path75" />
    </clipPath>
    <clipPath clipPathUnits="userSpaceOnUse" id="clipPath77">
      <path d="M 0,500 H 500 V 0 H 0 Z" transform="translate(-42.559601,-382.52731)" id="path77" />
    </clipPath>
    <clipPath clipPathUnits="userSpaceOnUse" id="clipPath79">
      <path d="M 0,500 H 500 V 0 H 0 Z" transform="translate(-72.010702,-416.37261)" id="path79" />
    </clipPath>
    <clipPath clipPathUnits="userSpaceOnUse" id="clipPath81">
      <path d="M 0,500 H 500 V 0 H 0 Z" transform="translate(-88.275902,-375.45461)" id="path81" />
    </clipPath>
    <clipPath clipPathUnits="userSpaceOnUse" id="clipPath83">
      <path d="M 0,500 H 500 V 0 H 0 Z" transform="translate(-125.0845,-367.83841)" id="path83" />
    </clipPath>
    <clipPath clipPathUnits="userSpaceOnUse" id="clipPath85">
      <path d="M 0,500 H 500 V 0 H 0 Z" transform="translate(-88.761205,-375.09231)" id="path85" />
    </clipPath>
    <clipPath clipPathUnits="userSpaceOnUse" id="clipPath87">
      <path d="M 0,500 H 500 V 0 H 0 Z" transform="translate(-125.2983,-381.78861)" id="path87" />
    </clipPath>
    <clipPath clipPathUnits="userSpaceOnUse" id="clipPath89">
      <path d="M 0,500 H 500 V 0 H 0 Z" transform="translate(-96.329605,-397.87451)" id="path89" />
    </clipPath>
    <clipPath clipPathUnits="userSpaceOnUse" id="clipPath91">
      <path d="M 0,500 H 500 V 0 H 0 Z" transform="translate(-87.3955,-382.24561)" id="path91" />
    </clipPath>
    <clipPath clipPathUnits="userSpaceOnUse" id="clipPath93">
      <path d="M 0,500 H 500 V 0 H 0 Z" transform="translate(-125.2983,-381.78861)" id="path93" />
    </clipPath>
    <clipPath clipPathUnits="userSpaceOnUse" id="clipPath95">
      <path d="M 0,500 H 500 V 0 H 0 Z" transform="translate(-71.700202,-397.00241)" id="path95" />
    </clipPath>
    <clipPath clipPathUnits="userSpaceOnUse" id="clipPath97">
      <path d="M 0,500 H 500 V 0 H 0 Z" transform="translate(-139.3882,-350.70461)" id="path97" />
    </clipPath>
    <clipPath clipPathUnits="userSpaceOnUse" id="clipPath99">
      <path d="M 0,500 H 500 V 0 H 0 Z" transform="translate(-97.266602,-377.96481)" id="path99" />
    </clipPath>
    <clipPath clipPathUnits="userSpaceOnUse" id="clipPath101">
      <path d="M 0,500 H 500 V 0 H 0 Z" transform="translate(-119.97171,-375.45461)" id="path101" />
    </clipPath>
    <clipPath clipPathUnits="userSpaceOnUse" id="clipPath103">
      <path d="M 0,500 H 500 V 0 H 0 Z" transform="translate(-437.25881,-102.749)" id="path103" />
    </clipPath>
    <clipPath clipPathUnits="userSpaceOnUse" id="clipPath105">
      <path d="M 0,500 H 500 V 0 H 0 Z" transform="translate(-153.0757,-110.08691)" id="path105" />
    </clipPath>
    <clipPath clipPathUnits="userSpaceOnUse" id="clipPath107">
      <path d="M 0,500 H 500 V 0 H 0 Z" transform="translate(-68.039602,-123.2412)" id="path107" />
    </clipPath>
    <clipPath clipPathUnits="userSpaceOnUse" id="clipPath109">
      <path d="M 0,500 H 500 V 0 H 0 Z" transform="translate(-98.763205,-118.9268)" id="path109" />
    </clipPath>
    <clipPath clipPathUnits="userSpaceOnUse" id="clipPath111">
      <path d="M 0,500 H 500 V 0 H 0 Z" transform="translate(-94.1626,-133.752)" id="path111" />
    </clipPath>
    <clipPath clipPathUnits="userSpaceOnUse" id="clipPath113">
      <path d="M 0,500 H 500 V 0 H 0 Z" transform="translate(-130.0093,-133.8818)" id="path113" />
    </clipPath>
    <clipPath clipPathUnits="userSpaceOnUse" id="clipPath115">
      <path d="M 0,500 H 500 V 0 H 0 Z" transform="translate(-216.42291,-119.5391)" id="path115" />
    </clipPath>
    <clipPath clipPathUnits="userSpaceOnUse" id="clipPath117">
      <path d="M 0,500 H 500 V 0 H 0 Z" transform="translate(-216.4243,-119.54)" id="path117" />
    </clipPath>
    <clipPath clipPathUnits="userSpaceOnUse" id="clipPath119">
      <path d="M 0,500 H 500 V 0 H 0 Z" transform="translate(-216.42291,-119.5391)" id="path119" />
    </clipPath>
    <clipPath clipPathUnits="userSpaceOnUse" id="clipPath121">
      <path d="M 0,500 H 500 V 0 H 0 Z" transform="translate(-432.46971,-121.0557)" id="path121" />
    </clipPath>
    <clipPath clipPathUnits="userSpaceOnUse" id="clipPath123">
      <path d="M 0,500 H 500 V 0 H 0 Z" transform="translate(-427.03711,-133.8525)" id="path123" />
    </clipPath>
    <clipPath clipPathUnits="userSpaceOnUse" id="clipPath125">
      <path d="M 0,500 H 500 V 0 H 0 Z" transform="translate(-405.37791,-144.78911)" id="path125" />
    </clipPath>
    <clipPath clipPathUnits="userSpaceOnUse" id="clipPath127">
      <path d="M 0,500 H 500 V 0 H 0 Z" transform="translate(-404.70611,-137.2754)" id="path127" />
    </clipPath>
    <clipPath clipPathUnits="userSpaceOnUse" id="clipPath129">
      <path d="M 0,500 H 500 V 0 H 0 Z" transform="translate(-432.46971,-121.0557)" id="path129" />
    </clipPath>
    <clipPath clipPathUnits="userSpaceOnUse" id="clipPath131">
      <path d="M 0,500 H 500 V 0 H 0 Z" transform="translate(-327.13481,-114.4746)" id="path131" />
    </clipPath>
    <clipPath clipPathUnits="userSpaceOnUse" id="clipPath133">
      <path d="M 0,500 H 500 V 0 H 0 Z" transform="translate(-376.72071,-396.30321)" id="path133" />
    </clipPath>
    <clipPath clipPathUnits="userSpaceOnUse" id="clipPath135">
      <path d="M 0,500 H 500 V 0 H 0 Z" transform="translate(-345.24221,-355.45311)" id="path135" />
    </clipPath>
    <clipPath clipPathUnits="userSpaceOnUse" id="clipPath137">
      <path d="M 0,500 H 500 V 0 H 0 Z" transform="translate(-315.50001,-373.42481)" id="path137" />
    </clipPath>
    <clipPath clipPathUnits="userSpaceOnUse" id="clipPath139">
      <path d="M 0,500 H 500 V 0 H 0 Z" transform="translate(-312.87011,-392.23001)" id="path139" />
    </clipPath>
    <clipPath clipPathUnits="userSpaceOnUse" id="clipPath141">
      <path d="M 0,500 H 500 V 0 H 0 Z" transform="translate(-328.25681,-433.48831)" id="path141" />
    </clipPath>
    <clipPath clipPathUnits="userSpaceOnUse" id="clipPath143">
      <path d="M 0,500 H 500 V 0 H 0 Z" transform="translate(-371.31351,-429.34471)" id="path143" />
    </clipPath>
    <clipPath clipPathUnits="userSpaceOnUse" id="clipPath145">
      <path d="M 0,500 H 500 V 0 H 0 Z" transform="translate(-356.50101,-401.37401)" id="path145" />
    </clipPath>
    <clipPath clipPathUnits="userSpaceOnUse" id="clipPath147">
      <path d="M 0,500 H 500 V 0 H 0 Z" transform="translate(-356.68651,-383.02541)" id="path147" />
    </clipPath>
    <clipPath clipPathUnits="userSpaceOnUse" id="clipPath149">
      <path d="M 0,500 H 500 V 0 H 0 Z" transform="translate(-339.52251,-412.63771)" id="path149" />
    </clipPath>
    <clipPath clipPathUnits="userSpaceOnUse" id="clipPath151">
      <path d="M 0,500 H 500 V 0 H 0 Z" transform="translate(-376.35061,-419.38281)" id="path151" />
    </clipPath>
    <clipPath clipPathUnits="userSpaceOnUse" id="clipPath153">
      <path d="M 0,500 H 500 V 0 H 0 Z" transform="translate(-364.11821,-384.56741)" id="path153" />
    </clipPath>
    <clipPath clipPathUnits="userSpaceOnUse" id="clipPath155">
      <path d="M 0,500 H 500 V 0 H 0 Z" transform="translate(-376.72071,-396.30321)" id="path155" />
    </clipPath>
    <clipPath clipPathUnits="userSpaceOnUse" id="clipPath157">
      <path d="M 0,500 H 500 V 0 H 0 Z" transform="translate(-313.61911,-296.27291)" id="path157" />
    </clipPath>
    <clipPath clipPathUnits="userSpaceOnUse" id="clipPath159">
      <path d="M 0,500 H 500 V 0 H 0 Z" transform="translate(-305.04881,-316.07621)" id="path159" />
    </clipPath>
    <clipPath clipPathUnits="userSpaceOnUse" id="clipPath161">
      <path d="M 0,500 H 500 V 0 H 0 Z" transform="translate(-300.53611,-275.20511)" id="path161" />
    </clipPath>
    <clipPath clipPathUnits="userSpaceOnUse" id="clipPath163">
      <path d="M 0,500 H 500 V 0 H 0 Z" transform="translate(-319.84181,-243.67191)" id="path163" />
    </clipPath>
    <clipPath clipPathUnits="userSpaceOnUse" id="clipPath165">
      <path d="M 0,500 H 500 V 0 H 0 Z" transform="translate(-338.39361,-241.03421)" id="path165" />
    </clipPath>
    <clipPath clipPathUnits="userSpaceOnUse" id="clipPath167">
      <path d="M 0,500 H 500 V 0 H 0 Z" transform="translate(-320.49711,-352.96141)" id="path167" />
    </clipPath>
    <clipPath clipPathUnits="userSpaceOnUse" id="clipPath169">
      <path d="M 0,500 H 500 V 0 H 0 Z" transform="translate(-431.04981,-326.64161)" id="path169" />
    </clipPath>
    <clipPath clipPathUnits="userSpaceOnUse" id="clipPath171">
      <path d="M 0,500 H 500 V 0 H 0 Z" transform="translate(-372.06351,-226.83401)" id="path171" />
    </clipPath>
    <clipPath clipPathUnits="userSpaceOnUse" id="clipPath173">
      <path d="M 0,500 H 500 V 0 H 0 Z" transform="translate(-399.95511,-220.86041)" id="path173" />
    </clipPath>
    <clipPath clipPathUnits="userSpaceOnUse" id="clipPath175">
      <path d="M 0,500 H 500 V 0 H 0 Z" transform="translate(-323.42581,-269.89451)" id="path175" />
    </clipPath>
    <clipPath clipPathUnits="userSpaceOnUse" id="clipPath177">
      <path d="M 0,500 H 500 V 0 H 0 Z" transform="translate(-355.10741,-259.54641)" id="path177" />
    </clipPath>
    <clipPath clipPathUnits="userSpaceOnUse" id="clipPath179">
      <path d="M 0,500 H 500 V 0 H 0 Z" transform="translate(-313.61911,-296.27291)" id="path179" />
    </clipPath>
    <clipPath clipPathUnits="userSpaceOnUse" id="clipPath181">
      <path d="M 0,500 H 500 V 0 H 0 Z" transform="translate(-369.42681,-281.5425)" id="path181" />
    </clipPath>
    <clipPath clipPathUnits="userSpaceOnUse" id="clipPath183">
      <path d="M 0,500 H 500 V 0 H 0 Z" transform="translate(-336.97751,-317.55571)" id="path183" />
    </clipPath>
    <clipPath clipPathUnits="userSpaceOnUse" id="clipPath185">
      <path d="M 0,500 H 500 V 0 H 0 Z" transform="translate(-313.62011,-296.27151)" id="path185" />
    </clipPath>
    <clipPath clipPathUnits="userSpaceOnUse" id="clipPath187">
      <path d="M 0,500 H 500 V 0 H 0 Z" transform="translate(-369.07811,-322.24461)" id="path187" />
    </clipPath>
    <clipPath clipPathUnits="userSpaceOnUse" id="clipPath189">
      <path d="M 0,500 H 500 V 0 H 0 Z" transform="translate(-336.97751,-317.55571)" id="path189" />
    </clipPath>
    <clipPath clipPathUnits="userSpaceOnUse" id="clipPath191">
      <path d="M 0,500 H 500 V 0 H 0 Z" transform="translate(-401.02541,-318.82371)" id="path191" />
    </clipPath>
    <clipPath clipPathUnits="userSpaceOnUse" id="clipPath193">
      <path d="M 0,500 H 500 V 0 H 0 Z" transform="translate(-369.07811,-322.24411)" id="path193" />
    </clipPath>
    <clipPath clipPathUnits="userSpaceOnUse" id="clipPath195">
      <path d="M 0,500 H 500 V 0 H 0 Z" transform="translate(-401.98341,-287.1846)" id="path195" />
    </clipPath>
    <clipPath clipPathUnits="userSpaceOnUse" id="clipPath197">
      <path d="M 0,500 H 500 V 0 H 0 Z" transform="translate(-401.02541,-318.82371)" id="path197" />
    </clipPath>
    <clipPath clipPathUnits="userSpaceOnUse" id="clipPath199">
      <path d="M 0,500 H 500 V 0 H 0 Z" transform="translate(-385.65231,-244.13481)" id="path199" />
    </clipPath>
    <clipPath clipPathUnits="userSpaceOnUse" id="clipPath201">
      <path d="M 0,500 H 500 V 0 H 0 Z" transform="translate(-361.43161,-257.66991)" id="path201" />
    </clipPath>
    <clipPath clipPathUnits="userSpaceOnUse" id="clipPath203">
      <path d="M 0,500 H 500 V 0 H 0 Z" transform="translate(-361.72851,-265.84031)" id="path203" />
    </clipPath>
    <clipPath clipPathUnits="userSpaceOnUse" id="clipPath205">
      <path d="M 0,500 H 500 V 0 H 0 Z" transform="translate(-402.13871,-265.52591)" id="path205" />
    </clipPath>
    <clipPath clipPathUnits="userSpaceOnUse" id="clipPath207">
      <path d="M 0,500 H 500 V 0 H 0 Z" transform="translate(-385.65231,-244.13571)" id="path207" />
    </clipPath>
    <clipPath clipPathUnits="userSpaceOnUse" id="clipPath209">
      <path d="M 0,500 H 500 V 0 H 0 Z" transform="translate(-402.13771,-265.52541)" id="path209" />
    </clipPath>
    <clipPath clipPathUnits="userSpaceOnUse" id="clipPath211">
      <path d="M 0,500 H 500 V 0 H 0 Z" transform="translate(-355.10741,-259.54641)" id="path211" />
    </clipPath>
    <clipPath clipPathUnits="userSpaceOnUse" id="clipPath213">
      <path d="M 0,500 H 500 V 0 H 0 Z" transform="translate(-242.46831,-133.5723)" id="path213" />
    </clipPath>
    <clipPath clipPathUnits="userSpaceOnUse" id="clipPath215">
      <path d="M 0,500 H 500 V 0 H 0 Z" transform="translate(-210.0742,-231.25001)" id="path215" />
    </clipPath>
    <clipPath clipPathUnits="userSpaceOnUse" id="clipPath217">
      <path d="M 0,500 H 500 V 0 H 0 Z" transform="translate(-184.9072,-258.88431)" id="path217" />
    </clipPath>
    <clipPath clipPathUnits="userSpaceOnUse" id="clipPath219">
      <path d="M 0,500 H 500 V 0 H 0 Z" transform="translate(-148.6821,-295.10451)" id="path219" />
    </clipPath>
    <clipPath clipPathUnits="userSpaceOnUse" id="clipPath221">
      <path d="M 0,500 H 500 V 0 H 0 Z" transform="translate(-147.19731,-276.85691)" id="path221" />
    </clipPath>
    <clipPath clipPathUnits="userSpaceOnUse" id="clipPath223">
      <path d="M 0,500 H 500 V 0 H 0 Z" transform="translate(-145.4277,-259.17381)" id="path223" />
    </clipPath>
    <clipPath clipPathUnits="userSpaceOnUse" id="clipPath225">
      <path d="M 0,500 H 500 V 0 H 0 Z" transform="translate(-144.6172,-243.18261)" id="path225" />
    </clipPath>
    <clipPath clipPathUnits="userSpaceOnUse" id="clipPath227">
      <path d="M 0,500 H 500 V 0 H 0 Z" transform="translate(-145.23831,-226.34181)" id="path227" />
    </clipPath>
    <clipPath clipPathUnits="userSpaceOnUse" id="clipPath229">
      <path d="M 0,500 H 500 V 0 H 0 Z" transform="translate(-148.04301,-210.12111)" id="path229" />
    </clipPath>
    <clipPath clipPathUnits="userSpaceOnUse" id="clipPath231">
      <path d="M 0,500 H 500 V 0 H 0 Z" transform="translate(-154.3618,-192.44921)" id="path231" />
    </clipPath>
    <clipPath clipPathUnits="userSpaceOnUse" id="clipPath233">
      <path d="M 0,500 H 500 V 0 H 0 Z" transform="translate(-163.56201,-176.61521)" id="path233" />
    </clipPath>
    <clipPath clipPathUnits="userSpaceOnUse" id="clipPath235">
      <path d="M 0,500 H 500 V 0 H 0 Z" transform="translate(-179.42721,-158.4932)" id="path235" />
    </clipPath>
    <clipPath clipPathUnits="userSpaceOnUse" id="clipPath237">
      <path d="M 0,500 H 500 V 0 H 0 Z" transform="translate(-168.06741,-111.37211)" id="path237" />
    </clipPath>
    <clipPath clipPathUnits="userSpaceOnUse" id="clipPath239">
      <path d="M 0,500 H 500 V 0 H 0 Z" transform="translate(-171.1729,-117.8379)" id="path239" />
    </clipPath>
    <clipPath clipPathUnits="userSpaceOnUse" id="clipPath241">
      <path d="M 0,500 H 500 V 0 H 0 Z" transform="translate(-262.65531,-102.97271)" id="path241" />
    </clipPath>
    <clipPath clipPathUnits="userSpaceOnUse" id="clipPath243">
      <path d="M 0,500 H 500 V 0 H 0 Z" transform="translate(-256.89841,-105.15821)" id="path243" />
    </clipPath>
    <clipPath clipPathUnits="userSpaceOnUse" id="clipPath245">
      <path d="M 0,500 H 500 V 0 H 0 Z" transform="translate(-197.36961,-145.5762)" id="path245" />
    </clipPath>
    <clipPath clipPathUnits="userSpaceOnUse" id="clipPath247">
      <path d="M 0,500 H 500 V 0 H 0 Z" transform="translate(-218.4478,-137.4365)" id="path247" />
    </clipPath>
    <clipPath clipPathUnits="userSpaceOnUse" id="clipPath249">
      <path d="M 0,500 H 500 V 0 H 0 Z" transform="translate(-252.6064,-248.63481)" id="path249" />
    </clipPath>
    <clipPath clipPathUnits="userSpaceOnUse" id="clipPath251">
      <path d="M 0,500 H 500 V 0 H 0 Z" transform="translate(-263.56351,-232.1865)" id="path251" />
    </clipPath>
    <clipPath clipPathUnits="userSpaceOnUse" id="clipPath253">
      <path d="M 0,500 H 500 V 0 H 0 Z" transform="translate(-280.915,-228.33591)" id="path253" />
    </clipPath>
    <clipPath clipPathUnits="userSpaceOnUse" id="clipPath255">
      <path d="M 0,500 H 500 V 0 H 0 Z" transform="translate(-279.01861,-215.27831)" id="path255" />
    </clipPath>
    <clipPath clipPathUnits="userSpaceOnUse" id="clipPath257">
      <path d="M 0,500 H 500 V 0 H 0 Z" transform="translate(-267.748,-214.49321)" id="path257" />
    </clipPath>
    <clipPath clipPathUnits="userSpaceOnUse" id="clipPath259">
      <path d="M 0,500 H 500 V 0 H 0 Z" transform="translate(-309.81641,-206.8818)" id="path259" />
    </clipPath>
    <clipPath clipPathUnits="userSpaceOnUse" id="clipPath261">
      <path d="M 0,500 H 500 V 0 H 0 Z" transform="translate(-322.25681,-187.8135)" id="path261" />
    </clipPath>
    <clipPath clipPathUnits="userSpaceOnUse" id="clipPath263">
      <path d="M 0,500 H 500 V 0 H 0 Z" transform="translate(-329.74901,-169.2236)" id="path263" />
    </clipPath>
    <clipPath clipPathUnits="userSpaceOnUse" id="clipPath265">
      <path d="M 0,500 H 500 V 0 H 0 Z" transform="translate(-341.73931,-143.08301)" id="path265" />
    </clipPath>
    <clipPath clipPathUnits="userSpaceOnUse" id="clipPath267">
      <path d="M 0,500 H 500 V 0 H 0 Z" transform="translate(-354.48051,-143.9541)" id="path267" />
    </clipPath>
    <clipPath clipPathUnits="userSpaceOnUse" id="clipPath269">
      <path d="M 0,500 H 500 V 0 H 0 Z" transform="translate(-341.77441,-168.3789)" id="path269" />
    </clipPath>
    <clipPath clipPathUnits="userSpaceOnUse" id="clipPath271">
      <path d="M 0,500 H 500 V 0 H 0 Z" transform="translate(-385.95121,-98.459002)" id="path271" />
    </clipPath>
    <clipPath clipPathUnits="userSpaceOnUse" id="clipPath273">
      <path d="M 0,500 H 500 V 0 H 0 Z" transform="translate(-379.38281,-132.7695)" id="path273" />
    </clipPath>
    <clipPath clipPathUnits="userSpaceOnUse" id="clipPath275">
      <path d="M 0,500 H 500 V 0 H 0 Z" transform="translate(-180.59571,-341.57131)" id="path275" />
    </clipPath>
    <clipPath clipPathUnits="userSpaceOnUse" id="clipPath277">
      <path d="M 0,500 H 500 V 0 H 0 Z" transform="translate(-189.04101,-346.05371)" id="path277" />
    </clipPath>
    <clipPath clipPathUnits="userSpaceOnUse" id="clipPath279">
      <path d="M 0,500 H 500 V 0 H 0 Z" transform="translate(-184.69431,-261.6948)" id="path279" />
    </clipPath>
    <clipPath clipPathUnits="userSpaceOnUse" id="clipPath281">
      <path d="M 0,500 H 500 V 0 H 0 Z" transform="translate(-198.0361,-215.9238)" id="path281" />
    </clipPath>
    <clipPath clipPathUnits="userSpaceOnUse" id="clipPath283">
      <path d="M 0,500 H 500 V 0 H 0 Z" transform="translate(-187.3789,-215.26761)" id="path283" />
    </clipPath>
    <clipPath clipPathUnits="userSpaceOnUse" id="clipPath285">
      <path d="M 0,500 H 500 V 0 H 0 Z" transform="translate(-180.43551,-218.77541)" id="path285" />
    </clipPath>
    <clipPath clipPathUnits="userSpaceOnUse" id="clipPath287">
      <path d="M 0,500 H 500 V 0 H 0 Z" transform="translate(-175.2612,-228.13961)" id="path287" />
    </clipPath>
    <clipPath clipPathUnits="userSpaceOnUse" id="clipPath289">
      <path d="M 0,500 H 500 V 0 H 0 Z" transform="translate(-244.6279,-404.04541)" id="path289" />
    </clipPath>
    <clipPath clipPathUnits="userSpaceOnUse" id="clipPath291">
      <path d="M 0,500 H 500 V 0 H 0 Z" transform="translate(-228.89061,-353.46631)" id="path291" />
    </clipPath>
    <clipPath clipPathUnits="userSpaceOnUse" id="clipPath293">
      <path d="M 0,500 H 500 V 0 H 0 Z" transform="translate(-183.4443,-384.64701)" id="path293" />
    </clipPath>
    <clipPath clipPathUnits="userSpaceOnUse" id="clipPath295">
      <path d="M 0,500 H 500 V 0 H 0 Z" transform="translate(-225.19921,-396.14601)" id="path295" />
    </clipPath>
    <clipPath clipPathUnits="userSpaceOnUse" id="clipPath297">
      <path d="M 0,500 H 500 V 0 H 0 Z" transform="translate(-203.1001,-348.71041)" id="path297" />
    </clipPath>
    <clipPath clipPathUnits="userSpaceOnUse" id="clipPath299">
      <path d="M 0,500 H 500 V 0 H 0 Z" transform="translate(-165.3213,-379.77441)" id="path299" />
    </clipPath>
    <clipPath clipPathUnits="userSpaceOnUse" id="clipPath301">
      <path d="M 0,500 H 500 V 0 H 0 Z" transform="translate(-177.6465,-379.95211)" id="path301" />
    </clipPath>
    <clipPath clipPathUnits="userSpaceOnUse" id="clipPath303">
      <path d="M 0,500 H 500 V 0 H 0 Z" transform="translate(-230.05221,-388.11181)" id="path303" />
    </clipPath>
    <clipPath clipPathUnits="userSpaceOnUse" id="clipPath305">
      <path d="M 0,500 H 500 V 0 H 0 Z" transform="translate(-211.17331,-139.4316)" id="path305" />
    </clipPath>
    <clipPath clipPathUnits="userSpaceOnUse" id="clipPath307">
      <path d="M 0,500 H 500 V 0 H 0 Z" transform="translate(-162.37701,-177.70511)" id="path307" />
    </clipPath>
    <clipPath clipPathUnits="userSpaceOnUse" id="clipPath309">
      <path d="M 0,500 H 500 V 0 H 0 Z" transform="translate(-146.4858,-215.95611)" id="path309" />
    </clipPath>
    <clipPath clipPathUnits="userSpaceOnUse" id="clipPath311">
      <path d="M 0,500 H 500 V 0 H 0 Z" transform="translate(-147.6426,-281.3652)" id="path311" />
    </clipPath>
    <clipPath clipPathUnits="userSpaceOnUse" id="clipPath313">
      <path d="M 0,500 H 500 V 0 H 0 Z" transform="translate(-212.31691,-438.15091)" id="path313" />
    </clipPath>
    <clipPath clipPathUnits="userSpaceOnUse" id="clipPath315">
      <path d="M 0,500 H 500 V 0 H 0 Z" transform="translate(-217.1611,-433.01421)" id="path315" />
    </clipPath>
    <clipPath clipPathUnits="userSpaceOnUse" id="clipPath317">
      <path d="M 0,500 H 500 V 0 H 0 Z" transform="translate(-147.6421,-281.3652)" id="path317" />
    </clipPath>
    <clipPath clipPathUnits="userSpaceOnUse" id="clipPath319">
      <path d="M 0,500 H 500 V 0 H 0 Z" transform="translate(-161.75781,-91.345702)" id="path319" />
    </clipPath>
    <clipPath clipPathUnits="userSpaceOnUse" id="clipPath321">
      <path d="M 0,500 H 500 V 0 H 0 Z" transform="translate(-175.57281,-91.524405)" id="path321" />
    </clipPath>
    <clipPath clipPathUnits="userSpaceOnUse" id="clipPath323">
      <path d="M 0,500 H 500 V 0 H 0 Z" transform="translate(-151.83351,-93.239302)" id="path323" />
    </clipPath>
    <clipPath clipPathUnits="userSpaceOnUse" id="clipPath325">
      <path d="M 0,500 H 500 V 0 H 0 Z" transform="translate(-164.938,-102.69731)" id="path325" />
    </clipPath>
    <clipPath clipPathUnits="userSpaceOnUse" id="clipPath327">
      <path d="M 0,500 H 500 V 0 H 0 Z" transform="translate(-149.7358,-106.25591)" id="path327" />
    </clipPath>
    <clipPath clipPathUnits="userSpaceOnUse" id="clipPath329">
      <path d="M 0,500 H 500 V 0 H 0 Z" transform="translate(-154.3066,-102.4287)" id="path329" />
    </clipPath>
    <clipPath clipPathUnits="userSpaceOnUse" id="clipPath331">
      <path d="M 0,500 H 500 V 0 H 0 Z" transform="translate(-149.7363,-106.2539)" id="path331" />
    </clipPath>
    <clipPath clipPathUnits="userSpaceOnUse" id="clipPath333">
      <path d="M 0,500 H 500 V 0 H 0 Z" transform="translate(-200.9458,-119.4854)" id="path333" />
    </clipPath>
    <clipPath clipPathUnits="userSpaceOnUse" id="clipPath335">
      <path d="M 0,500 H 500 V 0 H 0 Z" transform="translate(-175.57281,-91.524405)" id="path335" />
    </clipPath>
    <clipPath clipPathUnits="userSpaceOnUse" id="clipPath337">
      <path d="M 0,500 H 500 V 0 H 0 Z" transform="translate(-200.9458,-119.4854)" id="path337" />
    </clipPath>
    <clipPath clipPathUnits="userSpaceOnUse" id="clipPath339">
      <path d="M 0,500 H 500 V 0 H 0 Z" transform="translate(-148.8901,-300.44871)" id="path339" />
    </clipPath>
    <clipPath clipPathUnits="userSpaceOnUse" id="clipPath341">
      <path d="M 0,500 H 500 V 0 H 0 Z" transform="translate(-193.96581,-213.05471)" id="path341" />
    </clipPath>
    <clipPath clipPathUnits="userSpaceOnUse" id="clipPath343">
      <path d="M 0,500 H 500 V 0 H 0 Z" transform="translate(-261.6592,-74.062499)" id="path343" />
    </clipPath>
    <clipPath clipPathUnits="userSpaceOnUse" id="clipPath345">
      <path d="M 0,500 H 500 V 0 H 0 Z" transform="translate(-281.6641,-73.378904)" id="path345" />
    </clipPath>
    <clipPath clipPathUnits="userSpaceOnUse" id="clipPath347">
      <path d="M 0,500 H 500 V 0 H 0 Z" transform="translate(-249.1333,-77.140604)" id="path347" />
    </clipPath>
    <clipPath clipPathUnits="userSpaceOnUse" id="clipPath349">
      <path d="M 0,500 H 500 V 0 H 0 Z" transform="translate(-264.82131,-87.2715)" id="path349" />
    </clipPath>
    <clipPath clipPathUnits="userSpaceOnUse" id="clipPath351">
      <path d="M 0,500 H 500 V 0 H 0 Z" transform="translate(-246.79251,-92.9004)" id="path351" />
    </clipPath>
    <clipPath clipPathUnits="userSpaceOnUse" id="clipPath353">
      <path d="M 0,500 H 500 V 0 H 0 Z" transform="translate(-252.4375,-90.031305)" id="path353" />
    </clipPath>
    <clipPath clipPathUnits="userSpaceOnUse" id="clipPath355">
      <path d="M 0,500 H 500 V 0 H 0 Z" transform="translate(-295.7959,-134.51861)" id="path355" />
    </clipPath>
    <clipPath clipPathUnits="userSpaceOnUse" id="clipPath357">
      <path d="M 0,500 H 500 V 0 H 0 Z" transform="translate(-281.6641,-73.378904)" id="path357" />
    </clipPath>
    <clipPath clipPathUnits="userSpaceOnUse" id="clipPath359">
      <path d="M 0,500 H 500 V 0 H 0 Z" transform="translate(-294.24901,-139.74221)" id="path359" />
    </clipPath>
    <clipPath clipPathUnits="userSpaceOnUse" id="clipPath361">
      <path d="M 0,500 H 500 V 0 H 0 Z" transform="translate(-174.46971,-233.32031)" id="path361" />
    </clipPath>
    <clipPath clipPathUnits="userSpaceOnUse" id="clipPath363">
      <path d="M 0,500 H 500 V 0 H 0 Z" transform="translate(-435.21781,-118.0029)" id="path363" />
    </clipPath>
    <clipPath clipPathUnits="userSpaceOnUse" id="clipPath365">
      <path d="M 0,500 H 500 V 0 H 0 Z" transform="translate(-222.87451,-273.3579)" id="path365" />
    </clipPath>
    <clipPath clipPathUnits="userSpaceOnUse" id="clipPath367">
      <path d="M 0,500 H 500 V 0 H 0 Z" transform="translate(-211.97311,-287.7129)" id="path367" />
    </clipPath>
    <clipPath clipPathUnits="userSpaceOnUse" id="clipPath369">
      <path d="M 0,500 H 500 V 0 H 0 Z" transform="translate(-192.3208,-318.48581)" id="path369" />
    </clipPath>
    <clipPath clipPathUnits="userSpaceOnUse" id="clipPath371">
      <path d="M 0,500 H 500 V 0 H 0 Z" transform="translate(-203.1001,-348.71041)" id="path371" />
    </clipPath>
    <clipPath clipPathUnits="userSpaceOnUse" id="clipPath373">
      <path d="M 0,500 H 500 V 0 H 0 Z" transform="translate(-241.7158,-419.51461)" id="path373" />
    </clipPath>
    <clipPath clipPathUnits="userSpaceOnUse" id="clipPath375">
      <path d="M 0,500 H 500 V 0 H 0 Z" transform="translate(-229.41751,-435.30081)" id="path375" />
    </clipPath>
    <clipPath clipPathUnits="userSpaceOnUse" id="clipPath377">
      <path d="M 0,500 H 500 V 0 H 0 Z" transform="translate(-212.31691,-438.15041)" id="path377" />
    </clipPath>
    <clipPath clipPathUnits="userSpaceOnUse" id="clipPath379">
      <path d="M 0,500 H 500 V 0 H 0 Z" transform="translate(-230.53561,-431.04981)" id="path379" />
    </clipPath>
    <clipPath clipPathUnits="userSpaceOnUse" id="clipPath381">
      <path d="M 0,500 H 500 V 0 H 0 Z" transform="translate(-200.44921,-304.96681)" id="path381" />
    </clipPath>
    <clipPath clipPathUnits="userSpaceOnUse" id="clipPath383">
      <path d="M 0,500 H 500 V 0 H 0 Z" transform="translate(-192.3208,-318.48581)" id="path383" />
    </clipPath>
    <clipPath clipPathUnits="userSpaceOnUse" id="clipPath385">
      <path d="M 0,500 H 500 V 0 H 0 Z" transform="translate(-200.44921,-304.96681)" id="path385" />
    </clipPath>
    <clipPath clipPathUnits="userSpaceOnUse" id="clipPath387">
      <path d="M 0,500 H 500 V 0 H 0 Z" transform="translate(-242.5444,-263.98241)" id="path387" />
    </clipPath>
    <clipPath clipPathUnits="userSpaceOnUse" id="clipPath389">
      <path d="M 0,500 H 500 V 0 H 0 Z" transform="translate(-222.874,-273.3579)" id="path389" />
    </clipPath>
    <clipPath clipPathUnits="userSpaceOnUse" id="clipPath391">
      <path d="M 0,500 H 500 V 0 H 0 Z" transform="translate(-261.97951,-254.5728)" id="path391" />
    </clipPath>
    <clipPath clipPathUnits="userSpaceOnUse" id="clipPath393">
      <path d="M 0,500 H 500 V 0 H 0 Z" transform="translate(-242.5444,-263.98241)" id="path393" />
    </clipPath>
    <clipPath clipPathUnits="userSpaceOnUse" id="clipPath395">
      <path d="M 0,500 H 500 V 0 H 0 Z" transform="translate(-284.5234,-247.34471)" id="path395" />
    </clipPath>
    <clipPath clipPathUnits="userSpaceOnUse" id="clipPath397">
      <path d="M 0,500 H 500 V 0 H 0 Z" transform="translate(-261.97951,-254.5728)" id="path397" />
    </clipPath>
    <clipPath clipPathUnits="userSpaceOnUse" id="clipPath399">
      <path d="M 0,500 H 500 V 0 H 0 Z" transform="translate(-306.22461,-235.83111)" id="path399" />
    </clipPath>
    <clipPath clipPathUnits="userSpaceOnUse" id="clipPath401">
      <path d="M 0,500 H 500 V 0 H 0 Z" transform="translate(-284.5234,-247.34471)" id="path401" />
    </clipPath>
    <clipPath clipPathUnits="userSpaceOnUse" id="clipPath403">
      <path d="M 0,500 H 500 V 0 H 0 Z" transform="translate(-323.62701,-215.97171)" id="path403" />
    </clipPath>
    <clipPath clipPathUnits="userSpaceOnUse" id="clipPath405">
      <path d="M 0,500 H 500 V 0 H 0 Z" transform="translate(-306.22461,-235.83111)" id="path405" />
    </clipPath>
    <clipPath clipPathUnits="userSpaceOnUse" id="clipPath407">
      <path d="M 0,500 H 500 V 0 H 0 Z" transform="translate(-338.43851,-196.10351)" id="path407" />
    </clipPath>
    <clipPath clipPathUnits="userSpaceOnUse" id="clipPath409">
      <path d="M 0,500 H 500 V 0 H 0 Z" transform="translate(-323.62701,-215.97171)" id="path409" />
    </clipPath>
    <clipPath clipPathUnits="userSpaceOnUse" id="clipPath411">
      <path d="M 0,500 H 500 V 0 H 0 Z" transform="translate(-349.30081,-178.14161)" id="path411" />
    </clipPath>
    <clipPath clipPathUnits="userSpaceOnUse" id="clipPath413">
      <path d="M 0,500 H 500 V 0 H 0 Z" transform="translate(-338.43851,-196.10351)" id="path413" />
    </clipPath>
    <clipPath clipPathUnits="userSpaceOnUse" id="clipPath415">
      <path d="M 0,500 H 500 V 0 H 0 Z" transform="translate(-360.88771,-160.3232)" id="path415" />
    </clipPath>
    <clipPath clipPathUnits="userSpaceOnUse" id="clipPath417">
      <path d="M 0,500 H 500 V 0 H 0 Z" transform="translate(-349.30081,-178.14161)" id="path417" />
    </clipPath>
    <clipPath clipPathUnits="userSpaceOnUse" id="clipPath419">
      <path d="M 0,500 H 500 V 0 H 0 Z" transform="translate(-372.44241,-146.8164)" id="path419" />
    </clipPath>
    <clipPath clipPathUnits="userSpaceOnUse" id="clipPath421">
      <path d="M 0,500 H 500 V 0 H 0 Z" transform="translate(-360.88771,-160.3232)" id="path421" />
    </clipPath>
    <clipPath clipPathUnits="userSpaceOnUse" id="clipPath423">
      <path d="M 0,500 H 500 V 0 H 0 Z" transform="translate(-386.25491,-135.37211)" id="path423" />
    </clipPath>
    <clipPath clipPathUnits="userSpaceOnUse" id="clipPath425">
      <path d="M 0,500 H 500 V 0 H 0 Z" transform="translate(-372.44241,-146.8164)" id="path425" />
    </clipPath>
    <clipPath clipPathUnits="userSpaceOnUse" id="clipPath427">
      <path d="M 0,500 H 500 V 0 H 0 Z" transform="translate(-401.10251,-128.24711)" id="path427" />
    </clipPath>
    <clipPath clipPathUnits="userSpaceOnUse" id="clipPath429">
      <path d="M 0,500 H 500 V 0 H 0 Z" transform="translate(-386.25491,-135.37211)" id="path429" />
    </clipPath>
    <clipPath clipPathUnits="userSpaceOnUse" id="clipPath431">
      <path d="M 0,500 H 500 V 0 H 0 Z" transform="translate(-413.76071,-123.0801)" id="path431" />
    </clipPath>
    <clipPath clipPathUnits="userSpaceOnUse" id="clipPath433">
      <path d="M 0,500 H 500 V 0 H 0 Z" transform="translate(-401.10161,-128.24711)" id="path433" />
    </clipPath>
    <clipPath clipPathUnits="userSpaceOnUse" id="clipPath435">
      <path d="M 0,500 H 500 V 0 H 0 Z" transform="translate(-425.78911,-120.54)" id="path435" />
    </clipPath>
    <clipPath clipPathUnits="userSpaceOnUse" id="clipPath437">
      <path d="M 0,500 H 500 V 0 H 0 Z" transform="translate(-413.75981,-123.0801)" id="path437" />
    </clipPath>
    <clipPath clipPathUnits="userSpaceOnUse" id="clipPath439">
      <path d="M 0,500 H 500 V 0 H 0 Z" transform="translate(-425.78811,-120.54)" id="path439" />
    </clipPath>
    <clipPath clipPathUnits="userSpaceOnUse" id="clipPath441">
      <path d="M 0,500 H 500 V 0 H 0 Z" transform="translate(-229.41751,-435.30081)" id="path441" />
    </clipPath>
    <clipPath clipPathUnits="userSpaceOnUse" id="clipPath443">
      <path d="M 0,500 H 500 V 0 H 0 Z" transform="translate(-195.1851,-416.87351)" id="path443" />
    </clipPath>
    <clipPath clipPathUnits="userSpaceOnUse" id="clipPath445">
      <path d="M 0,500 H 500 V 0 H 0 Z" transform="translate(-194.6499,-409.87941)" id="path445" />
    </clipPath>
    <clipPath clipPathUnits="userSpaceOnUse" id="clipPath447">
      <path d="M 0,500 H 500 V 0 H 0 Z" transform="translate(-180.8179,-416.55571)" id="path447" />
    </clipPath>
    <clipPath clipPathUnits="userSpaceOnUse" id="clipPath449">
      <path d="M 0,500 H 500 V 0 H 0 Z" transform="translate(-198.2974,-216.10161)" id="path449" />
    </clipPath>
    <clipPath clipPathUnits="userSpaceOnUse" id="clipPath451">
      <path d="M 0,500 H 500 V 0 H 0 Z" transform="translate(-197.6113,-434.94731)" id="path451" />
    </clipPath>
    <clipPath clipPathUnits="userSpaceOnUse" id="clipPath453">
      <path d="M 0,500 H 500 V 0 H 0 Z" transform="translate(-181.1304,-402.84721)" id="path453" />
    </clipPath>
    <clipPath clipPathUnits="userSpaceOnUse" id="clipPath455">
      <path d="M 0,500 H 500 V 0 H 0 Z" transform="translate(-242.46831,-133.5723)" id="path455" />
    </clipPath>
    <clipPath clipPathUnits="userSpaceOnUse" id="clipPath457">
      <path d="M 0,500 H 500 V 0 H 0 Z" transform="translate(-246.79251,-92.899402)" id="path457" />
    </clipPath>
    <clipPath clipPathUnits="userSpaceOnUse" id="clipPath459">
      <path d="M 0,500 H 500 V 0 H 0 Z" transform="translate(-318.30371,-121.8018)" id="path459" />
    </clipPath>
    <clipPath clipPathUnits="userSpaceOnUse" id="clipPath461">
      <path d="M 0,500 H 500 V 0 H 0 Z" transform="translate(-324.81151,-137.6904)" id="path461" />
    </clipPath>
    <clipPath clipPathUnits="userSpaceOnUse" id="clipPath463">
      <path d="M 0,500 H 500 V 0 H 0 Z" transform="translate(-244.49661,-366.76711)" id="path463" />
    </clipPath>
    <clipPath clipPathUnits="userSpaceOnUse" id="clipPath465">
      <path d="M 0,500 H 500 V 0 H 0 Z" transform="translate(-243.4399,-375.14401)" id="path465" />
    </clipPath>
    <clipPath clipPathUnits="userSpaceOnUse" id="clipPath467">
      <path d="M 0,500 H 500 V 0 H 0 Z" transform="translate(-253.43071,-381.39501)" id="path467" />
    </clipPath>
    <clipPath clipPathUnits="userSpaceOnUse" id="clipPath469">
      <path d="M 0,500 H 500 V 0 H 0 Z" transform="translate(-243.12451,-390.81981)" id="path469" />
    </clipPath>
    <clipPath clipPathUnits="userSpaceOnUse" id="clipPath471">
      <path d="M 0,500 H 500 V 0 H 0 Z" transform="translate(-253.43551,-396.48051)" id="path471" />
    </clipPath>
    <clipPath clipPathUnits="userSpaceOnUse" id="clipPath473">
      <path d="M 0,500 H 500 V 0 H 0 Z" transform="translate(-173.79741,-438.61521)" id="path473" />
    </clipPath>
    <clipPath clipPathUnits="userSpaceOnUse" id="clipPath475">
      <path d="M 0,500 H 500 V 0 H 0 Z" transform="translate(-180.8169,-448.72901)" id="path475" />
    </clipPath>
    <clipPath clipPathUnits="userSpaceOnUse" id="clipPath477">
      <path d="M 0,500 H 500 V 0 H 0 Z" transform="translate(-188.0278,-438.81051)" id="path477" />
    </clipPath>
    <clipPath clipPathUnits="userSpaceOnUse" id="clipPath479">
      <path d="M 0,500 H 500 V 0 H 0 Z" transform="translate(-164.4438,-429.47951)" id="path479" />
    </clipPath>
    <clipPath clipPathUnits="userSpaceOnUse" id="clipPath481">
      <path d="M 0,500 H 500 V 0 H 0 Z" transform="translate(-223.02781,-442.81351)" id="path481" />
    </clipPath>
    <clipPath clipPathUnits="userSpaceOnUse" id="clipPath483">
      <path d="M 0,500 H 500 V 0 H 0 Z" transform="translate(-224.1406,-432.02691)" id="path483" />
    </clipPath>
    <clipPath clipPathUnits="userSpaceOnUse" id="clipPath485">
      <path d="M 0,500 H 500 V 0 H 0 Z" transform="translate(-238.43601,-430.93951)" id="path485" />
    </clipPath>
    <clipPath clipPathUnits="userSpaceOnUse" id="clipPath487">
      <path d="M 0,500 H 500 V 0 H 0 Z" transform="translate(-224.20951,-252.1665)" id="path487" />
    </clipPath>
    <clipPath clipPathUnits="userSpaceOnUse" id="clipPath489">
      <path d="M 0,500 H 500 V 0 H 0 Z" transform="translate(-211.53421,-248.99801)" id="path489" />
    </clipPath>
    <clipPath clipPathUnits="userSpaceOnUse" id="clipPath491">
      <path d="M 0,500 H 500 V 0 H 0 Z" transform="translate(-217.62211,-256.78221)" id="path491" />
    </clipPath>
    <clipPath clipPathUnits="userSpaceOnUse" id="clipPath493">
      <path d="M 0,500 H 500 V 0 H 0 Z" transform="translate(-193.0039,-310.81641)" id="path493" />
    </clipPath>
    <clipPath clipPathUnits="userSpaceOnUse" id="clipPath495">
      <path d="M 0,500 H 500 V 0 H 0 Z" transform="translate(-195.34371,-304.73681)" id="path495" />
    </clipPath>
    <clipPath clipPathUnits="userSpaceOnUse" id="clipPath497">
      <path d="M 0,500 H 500 V 0 H 0 Z" transform="translate(-205.90621,-306.07471)" id="path497" />
    </clipPath>
    <clipPath clipPathUnits="userSpaceOnUse" id="clipPath499">
      <path d="M 0,500 H 500 V 0 H 0 Z" transform="translate(-212.42241,-304.53171)" id="path499" />
    </clipPath>
    <clipPath clipPathUnits="userSpaceOnUse" id="clipPath501">
      <path d="M 0,500 H 500 V 0 H 0 Z" transform="translate(-230.47221,-278.2026)" id="path501" />
    </clipPath>
    <clipPath clipPathUnits="userSpaceOnUse" id="clipPath503">
      <path d="M 0,500 H 500 V 0 H 0 Z" transform="translate(-236.38531,-277.57761)" id="path503" />
    </clipPath>
    <clipPath clipPathUnits="userSpaceOnUse" id="clipPath505">
      <path d="M 0,500 H 500 V 0 H 0 Z" transform="translate(-236.61771,-261.92871)" id="path505" />
    </clipPath>
    <clipPath clipPathUnits="userSpaceOnUse" id="clipPath507">
      <path d="M 0,500 H 500 V 0 H 0 Z" transform="translate(-248.12551,-268.7295)" id="path507" />
    </clipPath>
    <clipPath clipPathUnits="userSpaceOnUse" id="clipPath509">
      <path d="M 0,500 H 500 V 0 H 0 Z" transform="translate(-253.9453,-252.41061)" id="path509" />
    </clipPath>
    <clipPath clipPathUnits="userSpaceOnUse" id="clipPath511">
      <path d="M 0,500 H 500 V 0 H 0 Z" transform="translate(-268.85841,-261.021)" id="path511" />
    </clipPath>
    <clipPath clipPathUnits="userSpaceOnUse" id="clipPath513">
      <path d="M 0,500 H 500 V 0 H 0 Z" transform="translate(-278.84671,-263.01861)" id="path513" />
    </clipPath>
    <clipPath clipPathUnits="userSpaceOnUse" id="clipPath515">
      <path d="M 0,500 H 500 V 0 H 0 Z" transform="translate(-277.45411,-241.44431)" id="path515" />
    </clipPath>
    <clipPath clipPathUnits="userSpaceOnUse" id="clipPath517">
      <path d="M 0,500 H 500 V 0 H 0 Z" transform="translate(-291.00781,-251.98731)" id="path517" />
    </clipPath>
    <clipPath clipPathUnits="userSpaceOnUse" id="clipPath519">
      <path d="M 0,500 H 500 V 0 H 0 Z" transform="translate(-291.583,-231.55271)" id="path519" />
    </clipPath>
    <clipPath clipPathUnits="userSpaceOnUse" id="clipPath521">
      <path d="M 0,500 H 500 V 0 H 0 Z" transform="translate(-305.82131,-246.04391)" id="path521" />
    </clipPath>
    <clipPath clipPathUnits="userSpaceOnUse" id="clipPath523">
      <path d="M 0,500 H 500 V 0 H 0 Z" transform="translate(-304.58111,-219.6426)" id="path523" />
    </clipPath>
    <clipPath clipPathUnits="userSpaceOnUse" id="clipPath525">
      <path d="M 0,500 H 500 V 0 H 0 Z" transform="translate(-320.65331,-233.27051)" id="path525" />
    </clipPath>
    <clipPath clipPathUnits="userSpaceOnUse" id="clipPath527">
      <path d="M 0,500 H 500 V 0 H 0 Z" transform="translate(-312.40621,-210.22071)" id="path527" />
    </clipPath>
    <clipPath clipPathUnits="userSpaceOnUse" id="clipPath529">
      <path d="M 0,500 H 500 V 0 H 0 Z" transform="translate(-320.37791,-199.96481)" id="path529" />
    </clipPath>
    <clipPath clipPathUnits="userSpaceOnUse" id="clipPath531">
      <path d="M 0,500 H 500 V 0 H 0 Z" transform="translate(-338.23141,-211.09571)" id="path531" />
    </clipPath>
    <clipPath clipPathUnits="userSpaceOnUse" id="clipPath533">
      <path d="M 0,500 H 500 V 0 H 0 Z" transform="translate(-333.24611,-180.9609)" id="path533" />
    </clipPath>
    <clipPath clipPathUnits="userSpaceOnUse" id="clipPath535">
      <path d="M 0,500 H 500 V 0 H 0 Z" transform="translate(-349.75291,-190.0703)" id="path535" />
    </clipPath>
    <clipPath clipPathUnits="userSpaceOnUse" id="clipPath537">
      <path d="M 0,500 H 500 V 0 H 0 Z" transform="translate(-356.27731,-176.8418)" id="path537" />
    </clipPath>
    <clipPath clipPathUnits="userSpaceOnUse" id="clipPath539">
      <path d="M 0,500 H 500 V 0 H 0 Z" transform="translate(-350.46971,-157.752)" id="path539" />
    </clipPath>
    <clipPath clipPathUnits="userSpaceOnUse" id="clipPath541">
      <path d="M 0,500 H 500 V 0 H 0 Z" transform="translate(-366.06051,-160.3232)" id="path541" />
    </clipPath>
    <clipPath clipPathUnits="userSpaceOnUse" id="clipPath543">
      <path d="M 0,500 H 500 V 0 H 0 Z" transform="translate(-364.13671,-143.793)" id="path543" />
    </clipPath>
    <clipPath clipPathUnits="userSpaceOnUse" id="clipPath545">
      <path d="M 0,500 H 500 V 0 H 0 Z" transform="translate(-377.46781,-147.89261)" id="path545" />
    </clipPath>
    <clipPath clipPathUnits="userSpaceOnUse" id="clipPath547">
      <path d="M 0,500 H 500 V 0 H 0 Z" transform="translate(-378.89751,-133.4639)" id="path547" />
    </clipPath>
    <clipPath clipPathUnits="userSpaceOnUse" id="clipPath549">
      <path d="M 0,500 H 500 V 0 H 0 Z" transform="translate(-391.97171,-136.3086)" id="path549" />
    </clipPath>
    <clipPath clipPathUnits="userSpaceOnUse" id="clipPath551">
      <path d="M 0,500 H 500 V 0 H 0 Z" transform="translate(-398.54881,-133.02641)" id="path551" />
    </clipPath>
    <clipPath clipPathUnits="userSpaceOnUse" id="clipPath553">
      <path d="M 0,500 H 500 V 0 H 0 Z" transform="translate(-407.65531,-128.1602)" id="path553" />
    </clipPath>
    <clipPath clipPathUnits="userSpaceOnUse" id="clipPath555">
      <path d="M 0,500 H 500 V 0 H 0 Z" transform="translate(-419.66311,-123.8027)" id="path555" />
    </clipPath>
    <clipPath clipPathUnits="userSpaceOnUse" id="clipPath557">
      <path d="M 0,500 H 500 V 0 H 0 Z" transform="translate(-429.65331,-121.5996)" id="path557" />
    </clipPath>
  </defs>
  <g ns1:groupmode="layer" id="layer2" ns1:label="Color" style="display:inline" transform="matrix(0.20542448,0,0,0.20542448,12.212384,-8.6657839)">
    <path id="color-region-0" d="M 227.96,50.93 L 241.34,52.58 L 256.83,56.57 L 268.10,61.03 L 282.89,69.24 L 292.52,76.52 L 305.90,90.14 L 313.65,100.70 L 319.75,111.50 L 324.68,100.70 L 333.37,87.32 L 342.05,77.46 L 353.56,67.84 L 363.42,61.73 L 376.09,56.10 L 389.95,52.34 L 402.15,50.93 Z" style="fill:transparent;stroke:none" />
    <path id="color-region-2" d="M 175.37,65.25 L 197.91,88.03 L 206.36,84.74 L 215.28,82.86 L 223.97,82.39 L 230.78,82.86 L 234.06,83.80 L 235.94,86.62 L 235.00,90.37 L 222.32,97.65 L 214.81,104.22 L 227.25,117.14 L 243.69,119.01 L 260.36,123.01 L 275.38,128.64 L 286.88,134.51 L 299.09,142.73 L 312.71,155.17 L 320.46,164.79 L 325.86,173.95 L 325.62,162.92 L 323.04,146.48 L 319.28,132.63 L 313.88,119.48 L 308.25,108.92 L 301.44,98.83 L 295.57,91.78 L 282.42,79.81 L 272.33,73.24 L 258.48,66.66 L 246.97,62.91 L 232.89,60.09 L 221.85,59.15 L 205.42,59.38 L 191.10,61.26 Z" style="fill:transparent;stroke:none" />
    <path id="color-region-3" d="M 418.35,59.62 L 404.74,59.38 L 397.46,60.09 L 386.42,62.20 L 376.33,65.49 L 367.64,69.48 L 357.55,75.82 L 348.86,83.10 L 340.88,92.02 L 332.43,105.16 L 328.67,113.15 L 325.39,122.54 L 332.19,146.01 L 334.54,164.79 L 342.52,151.41 L 353.79,138.03 L 361.77,130.75 L 369.99,124.65 L 384.55,116.67 L 391.59,104.69 L 387.13,101.88 L 374.22,97.65 L 372.34,95.07 L 373.04,91.31 L 376.56,88.96 L 385.96,85.91 L 393.70,84.74 L 403.56,84.97 Z" style="fill:transparent;stroke:none" />
    <path id="color-region-4" d="M 526.11,163.39 L 516.01,151.65 L 503.81,140.85 L 490.66,131.93 L 476.57,124.88 L 463.43,120.42 L 445.82,116.90 L 435.02,115.96 L 416.94,116.67 L 402.62,119.48 L 387.13,125.12 L 373.98,132.63 L 364.12,140.38 L 354.03,150.94 L 345.81,162.45 L 339.00,175.36 L 334.78,187.80 L 346.75,183.57 L 358.96,180.76 L 373.98,178.88 L 387.83,178.64 L 386.89,174.65 L 383.37,166.44 L 384.08,162.21 L 387.60,160.33 L 394.41,162.68 L 404.27,168.55 L 411.54,175.36 L 417.18,183.11 L 420.00,183.81 L 460.38,176.30 L 456.62,165.26 L 449.34,151.88 L 450.05,148.13 L 453.10,146.01 L 455.45,146.25 L 459.91,148.60 L 472.11,156.81 L 479.39,163.85 L 485.03,171.60 Z" style="fill:transparent;stroke:none" />
    <path id="color-region-5" d="M 128.89,181.23 L 171.62,185.22 L 175.61,178.41 L 182.18,170.19 L 192.04,161.51 L 195.56,159.39 L 197.44,159.39 L 200.73,161.98 L 200.96,165.26 L 197.67,174.65 L 196.03,187.10 L 229.37,189.91 L 239.70,184.75 L 250.50,180.76 L 263.64,177.47 L 275.38,176.06 L 286.65,176.06 L 300.50,177.94 L 311.77,181.23 L 321.39,185.69 L 316.00,174.18 L 306.60,161.51 L 295.57,151.18 L 285.71,144.13 L 272.09,136.86 L 256.83,131.22 L 238.76,127.23 L 223.73,125.82 L 210.12,126.29 L 197.20,128.41 L 184.76,132.16 L 170.21,139.20 L 158.47,147.19 L 145.56,159.16 L 136.40,170.19 Z" style="fill:transparent;stroke:none" />
    <path id="color-region-7" d="M 395.82,173.71 L 397.22,179.35 L 403.56,180.05 Z" style="fill:transparent;stroke:none" />
    <path id="color-region-9" d="M 322.33,196.49 L 316.00,192.73 L 308.95,189.68 L 295.10,185.92 L 286.65,184.98 L 275.15,184.98 L 266.93,185.92 L 251.44,189.68 L 233.36,197.66 L 220.68,205.64 L 204.95,218.79 L 193.92,230.76 L 184.53,244.14 L 177.01,258.70 L 172.32,271.85 L 169.03,286.64 L 167.62,301.90 L 168.33,319.74 L 171.38,337.58 L 200.02,311.99 L 197.67,302.84 L 196.74,288.51 L 198.61,275.37 L 200.73,272.55 L 204.48,272.08 L 206.83,273.96 L 211.53,285.23 L 218.57,295.09 L 256.13,261.52 L 253.08,250.48 L 251.44,239.68 L 251.90,228.18 L 252.61,225.36 L 254.25,223.25 L 255.90,222.55 L 259.18,223.25 L 264.82,232.64 L 269.04,238.04 L 273.27,242.03 L 274.21,237.34 L 277.73,229.35 L 281.95,223.02 L 285.71,219.02 L 292.28,214.09 L 297.92,211.28 L 305.20,209.40 L 313.18,209.16 L 318.34,203.06 Z" style="fill:transparent;stroke:none" />
    <path id="color-region-10" d="M 333.13,197.90 L 338.06,208.69 L 346.75,218.55 L 382.67,245.32 L 389.48,238.28 L 392.76,233.11 L 396.28,225.36 L 398.63,223.95 L 402.15,224.66 L 404.03,227.24 L 405.91,237.57 L 405.68,248.60 L 403.09,259.87 L 446.05,291.33 L 449.11,287.11 L 452.39,280.06 L 456.85,264.10 L 459.20,262.22 L 463.19,262.93 L 464.84,265.04 L 466.95,270.67 L 469.06,281.94 L 468.83,296.03 L 466.71,306.36 L 495.82,327.49 L 496.76,314.57 L 496.29,294.85 L 493.48,274.66 L 489.72,260.81 L 485.50,249.54 L 477.98,235.46 L 468.59,222.78 L 457.32,211.98 L 444.88,203.53 L 429.62,196.25 L 415.54,191.56 L 398.16,188.27 L 377.74,187.57 L 363.42,188.97 L 347.92,192.50 Z" style="fill:transparent;stroke:none" />
    <path id="color-region-11" d="M 322.57,211.75 L 329.38,215.74 L 336.19,222.78 L 340.41,230.76 L 342.52,239.21 L 349.80,237.81 L 358.96,238.74 L 340.18,224.42 L 333.37,217.15 L 328.20,209.40 L 327.03,206.35 Z" style="fill:transparent;stroke:none" />
    <path id="color-region-12" d="M 314.12,218.32 L 304.49,218.55 L 299.09,220.43 L 294.63,223.02 L 287.82,229.82 L 284.30,235.93 L 282.19,241.56 L 281.02,253.07 L 283.36,262.69 L 286.18,267.86 L 290.17,272.32 L 293.69,274.90 L 298.39,277.01 L 303.08,277.95 L 308.95,277.72 L 314.12,276.31 L 318.34,274.19 L 323.04,270.67 L 327.97,265.04 L 331.49,258.70 L 333.13,254.00 L 334.07,248.84 L 334.07,241.80 L 332.66,235.22 L 330.32,230.06 L 327.73,226.30 L 323.74,222.55 L 318.34,219.49 Z" style="fill:transparent;stroke:none" />
    <path id="color-region-13" d="M 350.04,246.73 L 342.99,248.37 L 341.12,258.23 L 337.36,266.92 L 332.19,273.96 L 326.09,279.36 L 327.03,285.23 L 330.32,293.21 L 336.19,300.49 L 339.47,303.07 L 345.58,306.12 L 354.03,307.30 L 358.49,306.59 L 365.06,303.77 L 368.58,301.19 L 373.04,296.03 L 375.63,291.33 L 377.50,285.46 L 378.21,274.66 L 375.63,264.33 L 372.81,258.93 L 367.41,252.83 L 360.13,248.37 L 354.97,246.96 Z" style="fill:transparent;stroke:none" />
    <path id="color-region-14" d="M 277.02,269.50 L 266.23,292.98 L 252.61,327.25 L 243.69,353.31 L 235.00,383.36 L 228.90,409.18 L 223.03,442.05 L 220.21,465.76 L 218.33,493.70 L 218.33,519.99 L 220.21,546.29 L 223.03,566.48 L 228.43,591.83 L 230.07,594.65 L 232.18,596.53 L 240.17,600.52 L 250.97,603.80 L 264.11,605.68 L 275.85,605.45 L 286.65,603.33 L 300.03,597.93 L 303.55,595.12 L 304.49,593.24 L 304.26,590.89 L 299.09,580.33 L 291.58,560.84 L 285.95,543.00 L 281.25,523.75 L 277.73,504.26 L 275.62,486.42 L 274.21,466.70 L 273.97,446.28 L 274.68,428.43 L 276.55,407.31 L 282.42,369.27 L 291.58,329.83 L 305.20,286.87 L 296.28,285.70 L 288.53,282.18 L 280.78,275.37 Z" style="fill:transparent;stroke:none" />
    <path id="path4" style="fill:transparent;stroke-width:0.864545;stroke-opacity:1;stroke:none" transform="matrix(1.2879835,0,0,1.2879835,-59.449507,42.184767)" d="M 290.37226,46.082246 C 281.28216,31.494679 268.81088,20.742583 252.94749,13.816554 l -8.58187,-3.746884 46.86464,0.02933 46.86464,0.02933 -8.36869,4.119148 C 318.6485,19.70004 303.99498,34.039422 298.3343,44.966421 l -3.93003,7.586293 z M 10.600335,225.3966 V 10.042423 l 85.639549,0.08809 c 61.555136,0.06332 84.698136,0.419256 82.292076,1.26565 -4.44964,1.565273 -6.13704,2.999721 -6.13704,5.217079 0,1.008847 5.77477,7.592661 12.83283,14.630698 l 12.83285,12.796431 5.68163,-2.017941 c 3.12491,-1.109868 5.88422,-1.815377 6.13179,-1.567799 0.24758,0.247578 -0.80318,1.627578 -2.33501,3.066666 -3.66989,3.447672 -3.51532,6.389158 0.55646,10.590173 l 3.34164,3.447688 -10.31555,1.901749 c -22.51654,4.151101 -43.44009,18.65138 -57.72074,40.00119 -6.61555,9.890333 -8.05566,13.933563 -5.31751,14.929263 1.63904,0.59601 37.29144,3.88606 42.11107,3.88606 2.73444,0 3.9734,-1.00068 7.23453,-5.84318 l 3.93503,-5.84319 v 5.77733 c 0,3.17754 0.47639,6.07176 1.05865,6.43162 0.58226,0.35986 5.10135,0.96603 10.04243,1.34706 4.94107,0.38103 8.98377,0.89401 8.98377,1.13996 0,0.24595 -4.5174,4.74608 -10.03865,10.00027 -15.34428,14.60206 -24.13373,29.24159 -29.00039,48.30241 -3.467,13.57891 -4.07896,28.46393 -1.74891,42.53939 2.13111,12.87375 3.63374,17.01337 6.36665,17.53969 1.07467,0.20696 8.10824,-5.29516 17.09414,-13.37218 14.35187,-12.90025 15.2297,-13.92495 14.628,-17.07538 -0.35206,-1.84335 -0.9616,-5.25288 -1.35452,-7.5767 l -0.71441,-4.22516 4.03283,4.03282 c 2.21804,2.21805 4.78759,3.86831 5.71008,3.66724 3.26081,-0.71074 36.29806,-31.51601 36.29218,-33.84032 -0.003,-1.22741 -0.75428,-4.69951 -1.66929,-7.7158 -0.91501,-3.01627 -1.53689,-5.61091 -1.38194,-5.76585 0.77321,-0.77321 7.53304,6.44873 7.53304,8.04799 0,1.01788 -2.33068,6.92488 -5.17928,13.12668 -22.01535,47.93039 -35.56934,95.35957 -41.80601,146.29079 -2.06683,16.87859 -1.73445,58.70667 0.5852,73.64443 4.78465,30.81144 6.66104,35.55585 15.71491,39.73448 4.37485,2.01912 2.27958,2.06042 -105.72439,2.08445 l -110.187695,0.0245 z M 283.03079,437.53584 c 7.95779,-5.04669 8.42712,-8.88237 2.71869,-22.21927 -8.26103,-19.30067 -14.49955,-42.39106 -17.54742,-64.9476 -2.05064,-15.17622 -1.74718,-52.03677 0.57412,-69.73905 3.31958,-25.31517 8.76382,-49.13557 17.08673,-74.76026 2.79064,-8.59185 5.3407,-16.07196 5.66681,-16.62246 0.32611,-0.5505 1.54222,1.5439 2.70248,4.65423 2.28478,6.12486 8.76297,13.57166 14.29502,16.4324 4.85569,2.51098 13.07397,3.26456 18.78952,1.72295 6.36492,-1.71678 13.79796,-8.67274 16.85079,-15.76923 2.96698,-6.89693 3.30063,-19.54974 0.68075,-25.81539 l -1.73711,-4.15441 3.25142,-1.68138 c 1.78828,-0.92475 4.34598,-3.07223 5.68377,-4.77218 l 2.43235,-3.09081 -0.90324,4.46329 c -2.33071,11.51706 -3.04668,10.49786 18.55208,26.40894 12.4091,9.14137 20.3404,14.2711 21.75858,14.0728 1.22741,-0.17163 3.927,-2.82265 5.99909,-5.89117 l 3.76745,-5.57912 -0.90884,5.57912 c -2.06211,12.65873 -2.13185,12.4971 8.9955,20.85036 19.05388,14.30368 21.36742,15.70181 23.81492,14.39194 2.847,-1.52366 4.06626,-13.11473 3.22704,-30.6781 -1.78519,-37.36036 -16.43113,-65.04457 -42.74949,-80.8064 -4.04627,-2.42328 -6.93753,-4.6465 -6.425,-4.94049 0.51252,-0.29398 4.44671,-1.17407 8.74263,-1.95576 12.77596,-2.3247 13.21216,-2.6067 12.53948,-8.10664 -0.31722,-2.59371 -0.92948,-5.720078 -1.36054,-6.947485 -0.87151,-2.481436 3.76576,2.127982 7.83206,7.785035 l 2.27363,3.16308 21.03976,-4.07547 c 11.57189,-2.24151 21.72095,-4.640784 22.55348,-5.331727 2.35515,-1.954595 1.8471,-3.708816 -2.76016,-9.530449 C 446.46205,71.94861 429.45222,60.354471 408.16488,53.9952 c -8.21914,-2.455345 -12.17455,-2.956041 -24.32117,-3.078697 -7.97815,-0.08056 -17.13252,0.246169 -20.34304,0.72607 l -5.83732,0.872546 0.64377,-3.21884 c 0.53778,-2.68893 0.0292,-3.720931 -3.08928,-6.268692 l -3.73305,-3.049853 5.2778,0.514304 c 3.02751,0.295022 5.94851,-0.02087 6.85089,-0.74089 1.97684,-1.577358 16.32484,-26.484164 16.32484,-28.338426 0,-1.073464 22.72083,-1.370299 104.88753,-1.370299 H 589.71337 V 225.3966 440.75077 h -155.876 -155.87601 z" />
  </g>
  <g id="layer-MC1" ns1:groupmode="layer" ns1:label="Outline" style="display:inline" transform="matrix(0.20542448,0,0,0.20542448,12.212384,-8.6657839)">
    <rect style="fill:none;stroke:#000000;stroke-width:1.33306;stroke-dasharray:none;stroke-opacity:1" id="rect1" width="154.88843" height="115.74319" x="2.0926507" y="1.7971287" transform="matrix(4.8679691,0,0,4.8679691,-59.449507,42.184767)" />
    <path style="font-size:22.325px;font-family:'Comic Sans MS';-inkscape-font-specification:'Comic Sans MS';display:inline;fill:#000000;fill-opacity:1;stroke:none;stroke-width:6.43992;stroke-opacity:1" d="m 511.50571,584.74849 q 0,0.38153 -0.67585,1.11189 -0.50144,0.50144 -0.99198,1.00288 -1.21,1.37351 -1.89675,3.92431 -0.59955,2.22378 -0.59955,4.37126 0,5.53764 2.5072,8.12115 0.50144,0.39243 1.01378,0.78486 0.63225,0.50144 0.63225,0.99198 0,0.35973 -0.28342,0.62135 -0.28342,0.27253 -0.65405,0.27253 -0.32703,0 -0.78487,-0.25072 -4.61107,-2.58351 -4.61107,-10.79187 0,-2.95414 1.1882,-5.98459 1.3299,-3.36837 3.48828,-4.88359 0.43603,-0.30523 0.68675,-0.30523 0.39244,0 0.68676,0.31613 0.29432,0.30522 0.29432,0.69766 z m 7.03107,17.17978 q -2.23468,0 -3.7281,-1.35171 -1.56973,-1.41711 -1.56973,-3.739 0,-2.21288 1.47162,-4.56747 1.63513,-2.61621 3.6845,-2.61621 1.06828,0 2.38729,0.50144 1.66784,0.64315 1.66784,1.56973 0,0.41423 -0.27253,0.74126 -0.27252,0.31612 -0.67585,0.31612 -0.31613,0 -0.55595,-0.18531 -0.22891,-0.19622 -0.44693,-0.38153 -0.64315,-0.51234 -2.10387,-0.51234 -1.11189,0 -2.20198,1.98396 -0.99198,1.82044 -0.99198,3.15035 0,1.43892 0.98108,2.26738 0.91567,0.77397 2.35459,0.77397 0.65405,0 1.39531,-0.34883 l 1.2645,-0.67586 q 0.32703,-0.17441 0.46874,-0.17441 0.40333,0 0.69766,0.32703 0.29432,0.31612 0.29432,0.73035 0,0.79577 -1.67873,1.53703 -1.47162,0.65405 -2.4418,0.65405 z m 12.61232,-7.02016 q 0,8.20836 -4.62198,10.79187 -0.44693,0.25072 -0.77396,0.25072 -0.37063,0 -0.65405,-0.27253 -0.28342,-0.26162 -0.28342,-0.62135 0,-0.49054 0.63225,-0.99198 0.50144,-0.39243 1.01378,-0.78486 2.5072,-2.58351 2.5072,-8.12115 0,-2.14748 -0.59955,-4.37126 -0.69765,-2.5508 -1.89675,-3.92431 -0.50144,-0.50144 -0.99198,-1.00288 -0.67586,-0.73036 -0.67586,-1.11189 0,-0.39244 0.28343,-0.69766 0.29432,-0.31613 0.68675,-0.31613 0.25072,0 0.69766,0.30523 2.15837,1.51522 3.48828,4.88359 1.1882,3.03045 1.1882,5.98459 z m 24.97391,7.23818 q -0.58865,0 -0.97018,-0.61045 -0.32703,-0.52324 -0.58865,-1.74414 l -0.39243,-1.87495 q -0.44693,-1.74414 -1.41711,-7.69602 l -2.18018,6.57323 -0.64315,2.07116 q -0.39243,1.2318 -0.81757,2.01667 -0.45783,0.82846 -1.2318,0.82846 -0.64315,0 -1.01378,-0.69765 -0.23982,-0.45784 -0.43603,-1.1664 l -0.31613,-1.20999 q -1.10099,-3.84801 -1.94035,-8.24107 l -0.39244,1.95126 -1.40621,5.75566 q -0.0872,1.01378 -0.54504,2.99774 -0.32703,0.85027 -1.07919,0.85027 -0.53414,0 -0.85027,-0.38153 -0.27252,-0.32702 -0.27252,-0.80666 0,-1.82045 0.75216,-4.46936 l 1.1991,-4.39306 0.63225,-3.43377 q 0.47964,-2.4091 1.01378,-3.15036 0.43603,-0.63225 1.07919,-0.63225 0.70855,0 1.05738,0.80667 0.42514,0.97017 0.91568,3.95701 0.57774,3.58639 1.79864,7.76143 1.61333,-4.19684 2.79063,-8.7425 l 0.32702,-1.59153 q 0.19622,-0.95928 0.51234,-1.54793 0.42514,-0.80666 1.1664,-0.80666 0.93747,0 1.42801,1.80954 0.17442,0.62135 0.42514,2.57261 0.64315,4.9272 1.60243,8.41548 l 0.53414,1.87495 q 0.41423,1.50432 0.41423,1.85315 0,0.46874 -0.35973,0.78486 -0.34882,0.31613 -0.79576,0.31613 z m 12.02367,-0.18532 q -0.20711,0 -0.75216,-0.47963 -0.49054,-0.44694 -0.73036,-0.79577 -1.04648,0.56685 -1.84225,0.85027 -0.79576,0.29432 -1.3299,0.29432 -2.55081,0 -3.7172,-1.43891 -1.10099,-1.35171 -1.10099,-4.14234 0,-2.63801 1.80954,-4.51296 1.82045,-1.87495 4.33855,-1.87495 0.94838,0 2.12568,0.49054 1.48252,0.61045 1.48252,1.47162 0,0.29432 -0.21802,0.52324 -0.10901,0.41423 -0.17442,1.36261 -0.0545,0.94838 -0.0654,2.43089 -0.0109,1.35171 0.18531,2.13658 0.10901,0.47964 0.68676,1.91855 0.0763,0.19622 0.25072,0.57775 l 0.0654,0.18531 q 0,0.43604 -0.30522,0.71946 -0.30522,0.28342 -0.70856,0.28342 z m -2.26738,-7.57611 q 0,-0.46873 0.0545,-1.01378 0.0654,-0.55594 0.18532,-1.17729 -0.40333,-0.20712 -0.69766,-0.30523 -0.28342,-0.0981 -0.45783,-0.0981 -1.68964,0 -2.92144,1.38442 -1.2209,1.37351 -1.2209,3.17215 0,1.78775 0.63225,2.68162 0.63225,0.89387 1.89676,0.89387 1.04648,0 1.77684,-0.38153 0.39243,-0.20712 1.10099,-0.82847 -0.34883,-2.88873 -0.34883,-4.32765 z m 14.14934,2.15838 -0.25072,3.66269 q -0.0654,2.18018 -0.44694,3.56459 -0.49054,1.76594 -1.56972,2.60531 -1.30811,1.01378 -3.78261,1.01378 -1.44982,0 -2.4309,-0.19621 -1.37351,-0.27253 -1.37351,-1.1337 0,-0.97017 0.94838,-0.97017 0.39243,0 1.30811,0.18531 0.91567,0.19622 2.02756,0.17442 2.09297,-0.0327 2.88873,-2.02757 0.52324,-1.32991 0.55595,-4.08783 -0.58865,1.09009 -1.40622,1.63513 -0.80666,0.54505 -1.85315,0.54505 -1.97306,0 -3.21576,-1.34081 -1.2318,-1.35171 -1.2318,-3.49918 0,-2.94324 1.68964,-4.74188 1.74414,-1.85315 4.75278,-1.85315 1.01379,0 1.70054,0.26162 0.68676,0.26162 1.04649,0.78486 1.16639,0.0327 1.16639,1.2972 0,0.77397 -0.22892,2.07117 -0.25072,1.50432 -0.29432,2.04937 z m -3.49918,-4.72008 q -2.07117,0 -3.20486,1.42801 -1.01378,1.28631 -1.01378,3.27027 0,1.58062 0.59954,2.37639 0.59955,0.79576 1.79865,0.79576 1.10099,0 2.13657,-1.2427 0.93748,-1.14459 1.06829,-2.26738 0.22892,-1.1773 0.49054,-3.6954 -0.43604,-0.33793 -0.90478,-0.50144 -0.46873,-0.16351 -0.97017,-0.16351 z m 8.45908,-4.38216 q -0.52324,0 -0.90477,-0.37063 -0.38153,-0.37063 -0.38153,-0.89387 0,-0.52324 0.38153,-0.89387 0.38153,-0.37063 0.90477,-0.37063 0.52324,0 0.89387,0.37063 0.38153,0.37063 0.38153,0.89387 0,0.52324 -0.38153,0.89387 -0.37063,0.37063 -0.89387,0.37063 z m 0.49054,8.85152 q 0,0.65405 0.0327,1.96216 0.0436,1.2972 0.0436,1.95125 0,0.47964 -0.29433,0.78487 -0.29432,0.30522 -0.77396,0.30522 -0.46874,0 -0.77396,-0.30522 -0.29433,-0.30523 -0.29433,-0.78487 0,-0.65405 -0.0436,-1.95125 -0.0327,-1.30811 -0.0327,-1.96216 0,-1.02469 0.10901,-2.55081 0.10901,-1.53702 0.10901,-2.56171 0,-0.49054 0.29432,-0.79576 0.30522,-0.30522 0.77396,-0.30522 0.46874,0 0.76306,0.30522 0.30523,0.30522 0.30523,0.79576 0,1.02469 -0.10901,2.56171 -0.10901,1.52612 -0.10901,2.55081 z m 8.61169,5.63575 q -2.23468,0 -3.7281,-1.35171 -1.56972,-1.41711 -1.56972,-3.739 0,-2.21288 1.47161,-4.56747 1.63514,-2.61621 3.6845,-2.61621 1.06829,0 2.38729,0.50144 1.66784,0.64315 1.66784,1.56973 0,0.41423 -0.27252,0.74126 -0.27253,0.31612 -0.67586,0.31612 -0.31612,0 -0.55594,-0.18531 -0.22892,-0.19622 -0.44694,-0.38153 -0.64315,-0.51234 -2.10387,-0.51234 -1.11189,0 -2.20198,1.98396 -0.99198,1.82044 -0.99198,3.15035 0,1.43892 0.98108,2.26738 0.91568,0.77397 2.35459,0.77397 0.65406,0 1.39532,-0.34883 l 1.2645,-0.67586 q 0.32702,-0.17441 0.46874,-0.17441 0.40333,0 0.69765,0.32703 0.29433,0.31612 0.29433,0.73035 0,0.79577 -1.67874,1.53703 -1.47162,0.65405 -2.4418,0.65405 z m 9.52737,-7.08557 q -0.30522,0 -1.3299,-0.14171 -0.0872,1.64603 -0.0872,5.76656 0,0.43604 -0.28342,0.74126 -0.28343,0.29433 -0.70856,0.29433 -0.43604,0 -0.71946,-0.29433 -0.28342,-0.30522 -0.28342,-0.74126 v -3.20485 q 0,-1.60243 0.19621,-4.51297 0.21802,-3.15035 0.23982,-4.51296 v -1.50432 q 0,-1.07919 0.13081,-1.56973 0.25073,-0.95928 1.06829,-0.82847 0.34883,-0.10901 0.99198,-0.16351 0.64315,-0.0545 1.58063,-0.0545 1.99486,0 3.739,1.36261 1.91855,1.50433 1.91855,3.6191 0,2.70341 -2.04936,4.30584 -1.83135,1.43892 -4.40396,1.43892 z m 0.54505,-8.6553 q -0.47964,0 -0.86117,0.0218 -0.37063,0.0218 -0.63225,0.0654 l -0.0218,2.00576 -0.22892,4.33855 1.19909,0.14171 q 1.83135,0 3.08495,-0.92657 1.37351,-1.01378 1.37351,-2.73612 0,-1.2209 -1.3081,-2.10387 -1.21,-0.80667 -2.60531,-0.80667 z m 13.17916,15.55556 q -2.4636,0 -3.98972,-1.2318 -1.66783,-1.36261 -1.66783,-3.81531 0,-2.83423 1.37351,-4.75278 1.49342,-2.09297 3.98972,-2.09297 1.80954,0 2.95414,0.61045 1.40621,0.75216 1.40621,2.31098 0,1.09009 -1.2318,1.98396 -0.54504,0.39243 -2.31099,1.2209 l -4.16413,1.97306 q 0.61045,0.90477 1.51522,1.36261 0.91567,0.45784 2.12567,0.45784 0.75216,0 1.76594,-0.28343 1.28631,-0.35972 1.65694,-0.93747 0.37063,-0.58865 0.79576,-0.58865 0.38153,0 0.67586,0.29433 0.30522,0.28342 0.30522,0.66495 0,1.21 -1.95126,2.08207 -1.66783,0.74126 -3.24846,0.74126 z m -0.29432,-9.9307 q -1.32991,0 -2.21288,1.03558 -0.88297,1.02468 -1.31901,3.09585 l 3.34657,-1.59153 q 1.97306,-0.95928 2.81243,-1.66783 -0.93747,-0.87207 -2.62711,-0.87207 z m 15.79537,10.20322 q -0.93748,0 -1.05739,-1.02468 l -0.30522,-2.3873 q -0.15261,-1.2754 -0.15261,-2.38729 0,-0.30522 0.0327,-1.03558 0.0436,-0.73036 0.0436,-1.03559 0,-2.35459 -0.87207,-2.35459 -1.2209,0 -2.33279,1.44982 -1.00288,1.31901 -1.56972,3.33567 -0.0218,0.42513 -0.0981,1.06829 -0.0654,0.54504 -0.0654,1.05738 0,0.32703 0.0654,0.98108 0.0654,0.65405 0.0654,0.98108 0,0.49054 -0.30522,0.79576 -0.29432,0.30523 -0.76306,0.30523 -0.47964,0 -0.77396,-0.30523 -0.29433,-0.30522 -0.29433,-0.79576 0,-0.32703 -0.0763,-0.98108 -0.0654,-0.65405 -0.0654,-0.98108 0,-1.12279 0.15261,-3.10675 0.16352,-1.99486 0.16352,-3.11765 0,-0.34883 -0.0436,-1.03558 -0.0327,-0.68676 -0.0327,-1.03559 0,-0.46874 0.30522,-0.76306 0.31613,-0.30522 0.77397,-0.30522 1.00288,0 1.10099,1.41711 l 0.0327,1.2754 q 1.83135,-2.44179 3.7608,-2.44179 1.74414,0 2.4309,1.53702 0.46874,1.02468 0.51234,3.03044 v 1.10099 l -0.0109,1.01379 q 0,0.90477 0.22892,2.34368 0.23982,1.42802 0.23982,2.32189 0,0.47964 -0.31613,0.77396 -0.30522,0.30523 -0.77396,0.30523 z m 8.25196,-0.0872 q -2.23468,0 -3.7281,-1.35171 -1.56973,-1.41711 -1.56973,-3.739 0,-2.21288 1.47162,-4.56747 1.63513,-2.61621 3.6845,-2.61621 1.06828,0 2.38729,0.50144 1.66783,0.64315 1.66783,1.56973 0,0.41423 -0.27252,0.74126 -0.27252,0.31612 -0.67585,0.31612 -0.31613,0 -0.55595,-0.18531 -0.22892,-0.19622 -0.44693,-0.38153 -0.64316,-0.51234 -2.10387,-0.51234 -1.11189,0 -2.20198,1.98396 -0.99198,1.82044 -0.99198,3.15035 0,1.43892 0.98108,2.26738 0.91567,0.77397 2.35459,0.77397 0.65405,0 1.39531,-0.34883 l 1.2645,-0.67586 q 0.32703,-0.17441 0.46874,-0.17441 0.40333,0 0.69766,0.32703 0.29432,0.31612 0.29432,0.73035 0,0.79577 -1.67873,1.53703 -1.47162,0.65405 -2.4418,0.65405 z m 8.6226,-14.48727 q -0.52325,0 -0.90478,-0.37063 -0.38153,-0.37063 -0.38153,-0.89387 0,-0.52324 0.38153,-0.89387 0.38153,-0.37063 0.90478,-0.37063 0.52324,0 0.89387,0.37063 0.38153,0.37063 0.38153,0.89387 0,0.52324 -0.38153,0.89387 -0.37063,0.37063 -0.89387,0.37063 z m 0.49054,8.85152 q 0,0.65405 0.0327,1.96216 0.0436,1.2972 0.0436,1.95125 0,0.47964 -0.29432,0.78487 -0.29433,0.30522 -0.77396,0.30522 -0.46874,0 -0.77397,-0.30522 -0.29432,-0.30523 -0.29432,-0.78487 0,-0.65405 -0.0436,-1.95125 -0.0327,-1.30811 -0.0327,-1.96216 0,-1.02469 0.10901,-2.55081 0.10901,-1.53702 0.10901,-2.56171 0,-0.49054 0.29433,-0.79576 0.30522,-0.30522 0.77396,-0.30522 0.46874,0 0.76306,0.30522 0.30522,0.30522 0.30522,0.79576 0,1.02469 -0.109,2.56171 -0.10901,1.52612 -0.10901,2.55081 z m 6.45332,-3.61909 -0.16351,5.41773 q 0,0.86117 -0.0872,2.52901 -0.10901,1.09008 -1.06828,1.09008 -1.06829,0 -1.06829,-1.11189 0,-1.319 0.11991,-3.95701 0.11991,-2.64892 0.11991,-3.96792 0,-1.72234 0.0545,-3.93522 0.0545,-2.22378 0.0545,-3.94612 0,-1.09009 1.06828,-1.09009 1.07919,0 1.07919,1.09009 0,1.72234 -0.0545,3.94612 -0.0545,2.21288 -0.0545,3.93522 z m 4.74188,9.58187 q -0.56685,0 -0.95928,-0.39243 -0.39243,-0.39244 -0.39243,-0.95928 0,-0.55595 0.39243,-0.94838 0.39243,-0.40333 0.95928,-0.40333 0.55594,0 0.94838,0.40333 0.40333,0.39243 0.40333,0.94838 0,0.56684 -0.40333,0.95928 -0.39244,0.39243 -0.94838,0.39243 z m 11.48953,-16.34042 q -2.63802,0 -2.95414,3.6627 l -0.0327,0.67585 q 1.85315,-0.13081 2.3982,-0.13081 1.73324,0 1.73324,1.09009 0,0.79576 -0.85027,0.94837 -0.37063,0.0654 -0.87207,0.0545 -0.49054,-0.0218 -2.5072,0.14171 l -0.0872,2.4854 q 0,0.67585 0.0436,2.02756 0.0436,1.35171 0.0436,2.01667 0,2.07116 -0.23982,3.22666 -0.18532,0.87207 -1.01378,0.87207 -0.44694,0 -0.76307,-0.29433 -0.31612,-0.28342 -0.31612,-0.71945 0,-0.0872 0.0218,-0.21802 0.22892,-1.41712 0.22892,-3.08495 l -0.0327,-2.97594 v -3.16126 q -1.36261,0.10901 -1.72234,0.10901 -1.10099,0 -1.10099,-1.05738 0,-1.07919 1.90765,-1.13369 l 1.04649,-0.0327 q 0.0327,-0.61045 0.16351,-1.65693 0.28342,-2.42 1.2209,-3.56459 1.13369,-1.38441 3.54278,-1.38441 1.55883,0 1.55883,1.05739 0,1.04648 -1.41711,1.04648 z m 12.91755,8.96052 q 0,0.78487 0.0109,2.35459 0.0109,1.56973 0.0109,2.35459 0,0.23982 0.0327,0.73036 0.0436,0.49054 0.0436,0.73036 0,0.46874 -0.31612,0.76306 -0.31613,0.30523 -0.77396,0.30523 -0.83937,0 -1.06829,-1.03559 -1.36261,0.70856 -3.13945,0.70856 -1.42802,0 -2.36549,-0.63225 -1.03559,-0.69766 -1.2318,-2.03847 -0.42514,-2.88873 -0.42514,-5.14521 0,-1.49342 0.32703,-3.40107 0.15261,-0.94838 1.03558,-0.94838 0.46874,0 0.78487,0.30522 0.31612,0.29433 0.31612,0.76306 0,0.50145 -0.16351,1.60243 -0.15261,1.10099 -0.15261,1.67874 0,1.82045 0.11991,3.11765 0.1199,1.29721 0.35972,2.08207 0.35973,0.19621 0.70856,0.30522 0.34883,0.0981 0.68676,0.0981 1.46071,0 3.08495,-0.46874 l -0.0109,-2.21287 -0.0218,-2.11478 q 0,-2.35459 0.20712,-4.08783 0.11991,-1.00288 1.05738,-1.00288 0.46874,0 0.78487,0.30523 0.31612,0.30522 0.29432,0.76306 z m 11.07529,7.14008 q -0.93748,0 -1.05739,-1.02468 l -0.30522,-2.3873 q -0.15261,-1.2754 -0.15261,-2.38729 0,-0.30522 0.0327,-1.03558 0.0436,-0.73036 0.0436,-1.03559 0,-2.35459 -0.87207,-2.35459 -1.2209,0 -2.33279,1.44982 -1.00288,1.31901 -1.56972,3.33567 -0.0218,0.42513 -0.0981,1.06829 -0.0654,0.54504 -0.0654,1.05738 0,0.32703 0.0654,0.98108 0.0654,0.65405 0.0654,0.98108 0,0.49054 -0.30523,0.79576 -0.29432,0.30523 -0.76306,0.30523 -0.47964,0 -0.77396,-0.30523 -0.29433,-0.30522 -0.29433,-0.79576 0,-0.32703 -0.0763,-0.98108 -0.0654,-0.65405 -0.0654,-0.98108 0,-1.12279 0.15261,-3.10675 0.16352,-1.99486 0.16352,-3.11765 0,-0.34883 -0.0436,-1.03558 -0.0327,-0.68676 -0.0327,-1.03559 0,-0.46874 0.30523,-0.76306 0.31612,-0.30522 0.77396,-0.30522 1.00288,0 1.10099,1.41711 l 0.0327,1.2754 q 1.83135,-2.44179 3.7608,-2.44179 1.74414,0 2.4309,1.53702 0.46874,1.02468 0.51234,3.03044 v 1.10099 l -0.0109,1.01379 q 0,0.90477 0.22892,2.34368 0.23982,1.42802 0.23982,2.32189 0,0.47964 -0.31613,0.77396 -0.30522,0.30523 -0.77396,0.30523 z" id="text1" aria-label="(c) MagicPencil.fun" ns1:label="Logo" />
    <path id="outline-0" d="m 605.5,2398.4188 c -42.18009,-4.9965 -80.5598,-15.5704 -112.23927,-30.9228 -32.39898,-15.7011 -47.34514,-29.154 -53.68546,-48.3219 -8.38322,-25.3439 -24.90732,-108.6825 -31.95706,-161.1741 -11.13824,-82.9342 -14.0477,-126.8539 -14.04398,-212 0.004,-90.5218 4.69697,-163.4432 15.9606,-248 0.84254,-6.325 2.20627,-16.675 3.03051,-23 0.82424,-6.325 2.86488,-20.05 4.53476,-30.5 8.16554,-51.0995 10.723,-65.5468 17.525,-99 1.90113,-9.35 4.36433,-21.5 5.47379,-27 7.40992,-36.7337 26.83785,-115.8943 37.918,-154.5 1.02606,-3.575 4.16191,-14.6 6.96856,-24.5 4.91084,-17.3222 10.24501,-35.2702 12.0366,-40.5 0.47105,-1.375 2.74119,-8.5652 5.04477,-15.9782 8.02551,-25.8264 29.32567,-88.7905 38.40333,-113.5218 2.01879,-5.5 5.0397,-13.825 6.71315,-18.5 3.56963,-9.9722 21.43174,-56.585 22.80053,-59.5 0.51652,-1.1 2.92906,-6.95 5.36119,-13 8.31787,-20.6909 23.26417,-56.4323 29.69072,-71 22.29241,-50.53243 38.74641,-86.42121 54.91442,-119.77703 3.2625,-6.73077 3.27729,-6.82833 2.16738,-14.29085 C 661.50289,869.29952 661,864.37588 661,862.4907 c 0,-3.01753 -0.68793,-3.93174 -5.75,-7.6413 -15.53231,-11.38233 -34.30603,-29.25668 -41.09944,-39.13056 -3.79825,-5.52057 -5.31892,-6.01132 -4.55148,-1.46884 5.27575,31.22731 9.90317,49.03834 19.81022,76.25 2.85547,7.84312 3.25451,13.97553 1.22538,18.83191 -1.5567,3.72571 -5.32793,7.25352 -70.1099,65.58452 -7.68637,6.92096 -19.61137,17.78107 -26.5,24.13357 -6.88863,6.3525 -19.29181,17.6025 -27.56262,25 -8.27081,7.3975 -23.98115,21.55 -34.91186,31.45 -32.71848,29.6333 -32.53956,29.5 -39.59951,29.5 -6.55333,0 -10.70968,-2.636 -21.97987,-13.9396 -10.78111,-10.8132 -18.56134,-20.439 -27.93389,-34.5604 -7.26729,-10.9494 -7.20034,-10.9138 -6.55336,-3.4911 2.80314,32.1601 4.84514,44.1971 10.99429,64.8084 7.16223,24.0071 6.42011,27.709 -8.1765,40.7871 -4.8408,4.3372 -11.72646,10.6288 -15.30146,13.9813 -3.575,3.3525 -8.75,8.0776 -11.5,10.5002 -2.75,2.4227 -10.20012,9.1319 -16.55583,14.9095 -6.35571,5.7775 -22.32277,20.1796 -35.48236,32.0046 -13.15958,11.825 -27.09991,24.425 -30.97851,28 -23.68774,21.8336 -36.89783,33.6512 -38.80495,34.7146 -1.19809,0.668 -4.87835,1.2288 -8.17835,1.2462 -7.80231,0.041 -11.89109,-2.2375 -16.97589,-9.4608 -1.42098,-2.0186 -10.92012,-39.752 -14.52924,-57.7145 -9.29257,-46.2487 -12.60692,-83.3011 -11.69847,-130.7815 0.92845,-48.5251 5.96887,-85.62336 18.07084,-133.004 21.14221,-82.77426 66.68059,-164.81134 127.54994,-229.78034 24.73536,-26.40133 53.02557,-51.47215 86.40602,-76.57312 L 425.14639,625.5 420.3232,624.76807 c -4.24001,-0.64343 -53.41814,-4.81017 -92.3232,-7.82231 -7.425,-0.57487 -15.39153,-1.72704 -17.7034,-2.5604 -5.22105,-1.88201 -9.85006,-7.02187 -11.36772,-12.62223 -1.95667,-7.22033 0.20458,-44.9036 3.48495,-60.76313 l 1.34445,-6.5 -5.95731,6.47153 c -11.82973,12.85084 -24.64555,31.80993 -35.64413,52.73015 -7.37988,14.03714 -9.9695,15.80758 -23.07134,15.77308 -5.27203,-0.0139 -27.3605,-1.67892 -49.0855,-3.70008 -21.725,-2.02117 -50.75,-4.59999 -64.5,-5.73071 -13.75,-1.13072 -44.272579,-3.6368 -67.827952,-5.56906 -44.1302,-3.62004 -47.607114,-4.20098 -52.5034147,-8.77264 C -0.46519191,580.44199 -1.7222493,571.29621 2.1463096,563.71321 13.760202,540.9481 44.448656,495.44164 67.367359,467 83.391268,447.11466 115.78782,413.55298 136,395.89902 c 43.91997,-38.3611 100.60239,-71.09435 153.89892,-88.87433 38.29287,-12.77468 83.06815,-21.23033 123.29998,-23.28474 L 417.8978,283.5 397.10063,262.49376 c -11.43844,-11.55343 -21.62507,-22.57843 -22.63696,-24.5 -2.34313,-4.44958 -2.3242,-12.42318 0.0404,-17.01971 4.68359,-9.10432 23.63655,-29.90675 36.4263,-39.98086 4.42915,-3.48872 7.93945,-6.45668 7.80065,-6.59548 -0.57994,-0.57995 -16.04653,2.58324 -26.73104,5.46697 -13.53716,3.65364 -23.74594,7.47689 -34.78464,13.02704 -4.40643,2.21551 -10.11481,4.55777 -12.68529,5.20503 -9.81219,2.47073 -6.29526,5.45794 -79.38441,-67.42742 C 219.95894,85.608606 198.19359,63.223964 196.91762,60.5 193.43028,53.055169 195.46777,44.149959 201.89604,38.740933 210.33585,31.639301 279.23466,13.001849 322.70433,6.0617236 355.95853,0.75254442 367.64221,0 416.81606,0 466.97397,0 482.15097,1.0106403 515.5,6.571389 585.2887,18.208233 651.04671,43.671612 706,80.338427 c 48.95618,32.665323 93.39384,78.115593 128.2921,131.215503 8.23946,12.53686 22.65486,37.03981 26.29527,44.69607 1.71879,3.61484 3.41263,4.93045 3.41263,2.65059 0,-4.53593 18.61213,-43.50659 29.48859,-61.74412 C 932.93806,131.00801 990.47907,76.817743 1056,44.108475 c 49.2769,-24.599956 93.6303,-37.1447738 150.6375,-42.6059949 27.5244,-2.6367996 79.9009,-1.59019662 106.3625,2.125367 10.5731,1.4846076 17,8.5976929 17,18.8151289 0,5.82468 -1.2002,8.401152 -13.5791,29.149865 C 1310.545,61.441779 1301.2321,77.375 1295.7257,87 c -5.5065,9.625 -14.1509,24.475 -19.2098,33 -5.0589,8.525 -14.3008,24.5 -20.5375,35.5 -6.5508,11.55406 -12.8329,21.38088 -14.8761,23.26994 -5.0051,4.62759 -9.3886,5.56789 -19.3748,4.1561 -8.8854,-1.25617 -41.499,-1.35932 -51.1702,-0.16185 l -5.9428,0.73581 9.4394,5.37309 c 12.2304,6.96179 27.3941,17.55584 32.165,22.47187 4.8096,4.95603 6.3979,10.42942 4.9073,16.91103 -1.0115,4.39852 -12.3982,25.7976 -16.0374,30.13948 -1.9455,2.32106 -2.6576,2.44297 18.9112,-3.23743 37.0194,-9.74947 95.3965,-16.31597 130.5,-14.67918 61.3427,2.86026 97.8108,8.6093 148.761,23.45154 114.5497,33.36937 216.1843,107.13157 290.6064,210.91016 L 1792,486.18112 v 6.87464 c 0,6.33005 -0.2575,7.16788 -3.25,10.57624 -1.7875,2.03587 -5.05,4.49167 -7.25,5.45732 -2.2,0.96565 -14.8,3.84209 -28,6.39208 -13.2,2.54998 -40.875,7.96191 -61.5,12.0265 -20.625,4.06458 -39.975,7.83635 -43,8.38169 -9.9058,1.78582 -41.067,7.97353 -63.3865,12.58672 -12.0375,2.48803 -24.148,4.52369 -26.9121,4.52369 -8.6088,0 -12.4569,-3.10697 -22.0638,-17.81451 -10.5538,-16.15723 -23.7896,-32.31963 -35.4712,-43.31448 -10.0835,-9.49071 -19.9441,-17.42661 -20.7062,-16.66452 -0.269,0.26893 0.6636,3.00654 2.0723,6.08358 6.2267,13.60086 15.9343,46.24299 18.4401,62.00504 1.4237,8.95605 0.095,13.99041 -4.964,18.80786 -4.242,4.03941 -6.8937,4.8775 -26.5086,8.37808 -7.15,1.27604 -28.525,5.32971 -47.5,9.00817 -18.975,3.67846 -40.5647,7.80045 -47.9772,9.15998 -7.4125,1.35953 -13.6928,2.68748 -13.9563,2.951 -0.2636,0.26352 0.6262,0.76688 1.9772,1.11857 4.3226,1.12528 32.903,15.71999 50.4563,25.76572 45.2749,25.9108 77.0731,51.84752 114.2517,93.19148 10.928,12.15243 23.3297,28.7315 35.7738,47.82403 9.7091,14.89623 26.4355,44.04534 30.9865,54 1.5086,3.3 4.0755,8.925 5.7041,12.5 4.6149,10.13002 12.1166,29.21245 17.1948,43.73877 18.1995,52.06051 27.2368,95.28245 34.7636,166.26123 1.7852,16.8351 1.7935,103.2372 0.012,126 -1.8589,23.7519 -5.0675,51.9308 -6.3764,56 -3.5073,10.9031 -14.9109,15.8617 -25.4611,11.0712 -2.2831,-1.0366 -8.3581,-5.0133 -13.5,-8.837 -11.3674,-8.4531 -64.8799,-47.7703 -73.6941,-54.1451 -3.4898,-2.524 -10.9589,-7.9641 -16.5979,-12.0891 -5.639,-4.125 -20.7713,-15.15 -33.6273,-24.5 -27.521,-20.0157 -31.2652,-23.3678 -32.97,-29.5172 -1.3423,-4.8417 -1.7267,-2.809 6.143,-32.4828 4.8067,-18.1239 6.8857,-35.3766 6.8919,-57.191 0,-10.55502 -0.3474,-19.409 -0.7786,-19.67549 -0.4312,-0.26649 -1.8458,2.29445 -3.1435,5.69098 -6.5619,17.17381 -17.3109,36.65181 -30.2801,54.86971 -9.9418,13.9652 -14.7728,17.8058 -22.3973,17.8058 -4.7941,0 -10.064,-2.8586 -22.8951,-12.4191 -6.05,-4.5079 -14.3625,-10.6453 -18.4721,-13.6386 -4.1097,-2.9932 -13.8335,-10.1673 -21.6085,-15.9423 -7.775,-5.775 -18.5214,-13.65 -23.8808,-17.5 -5.3594,-3.85 -15.4356,-11.17438 -22.3915,-16.2764 -12.8097,-9.39568 -17.5318,-12.83852 -47.1471,-34.37499 -59.4167,-43.20823 -66.6627,-48.89248 -69.0623,-54.1776 -2.6648,-5.8691 -2.453,-8.16801 2.0232,-21.96359 C 1189.0024,861.00537 1193,838.50584 1193,820.57616 v -7.98357 l -4.9261,7.45371 c -10.4648,15.83416 -34.667,40.14877 -46.2245,46.43914 -6.6873,3.63968 -14.1547,3.85746 -18.802,0.54833 -3.9661,-2.82416 -4.9041,-2.04569 -2.1669,1.79839 4.4271,6.21732 14.1543,27.19491 18.078,38.98678 5.8235,17.50155 8.2165,32.06898 8.7906,53.51265 0.5288,19.75622 -0.5364,31.54534 -4.2826,47.39641 -18.5357,78.4282 -88.1737,130.2851 -159.43811,118.7279 -32.20305,-5.2225 -57.4797,-18.6831 -82.52839,-43.9489 -21.32731,-21.5122 -36.56611,-48.6289 -44.22948,-78.7041 C 855.75656,998.8613 854.23406,994 853.88718,994 c -0.34688,0 -2.99429,1.04312 -5.88312,2.31804 l -5.25244,2.31805 -6.49845,17.93191 c -7.30361,20.1538 -25.79746,75.4153 -35.61858,106.432 -11.7626,37.1482 -36.57681,128.6918 -42.55714,157 -0.63905,3.025 -2.73758,12.475 -4.66339,21 -2.91646,12.9103 -7.01231,32.348 -13.38058,63.5 -5.21958,25.5329 -7.81014,40.5877 -14.51304,84.341 -6.00229,39.1802 -10.21792,74.4895 -14.46531,121.159 -7.76,85.2652 -7.95514,182.4105 -0.53635,267 8.3205,94.871 23.3008,176.9054 47.0732,257.7801 20.93714,71.229 41.12334,124.9481 69.98182,186.234 7.78848,16.5402 8.82015,28.0921 3.86334,43.259 -5.2413,16.0374 -15.92103,27.2613 -37.07742,38.9665 -29.46238,16.3007 -60.9104,27.0537 -97.76194,33.4278 -13.78751,2.3848 -17.87492,2.6358 -47.09778,2.8921 -22.9557,0.2014 -35.39161,-0.121 -44,-1.1407 z m 57.5,-34.431 c 34.57485,-2.3663 64.1698,-9.7836 97,-24.3107 28.34514,-12.5426 38,-20.8825 38,-32.8246 0,-3.437 -1.96637,-8.4214 -9.40854,-23.8488 -12.96668,-26.8796 -20.91032,-45.9851 -35.75848,-86.0037 -19.50897,-52.5803 -32.9184,-96.7493 -45.34945,-149.3752 -19.61937,-83.0571 -28.59346,-144.4702 -36.18459,-247.6248 -2.18045,-29.6298 -2.49444,-143.2283 -0.47956,-173.5 2.96178,-44.4979 7.28112,-93.5141 11.19134,-127 1.87028,-16.0165 3.11377,-25.0052 8.50793,-61.5 6.72697,-45.5121 23.45846,-129.9005 36.08474,-182 18.89507,-77.9664 47.74747,-175.2508 69.8333,-235.4637 2.90168,-7.9109 5.00298,-14.7554 4.66955,-15.2099 -0.33343,-0.4545 -4.43124,-0.9746 -9.10624,-1.1558 -16.38673,-0.6351 -34.90444,-5.60129 -51.15672,-13.71961 -22.69629,-11.33722 -44.32955,-31.76765 -57.52409,-54.3257 -3.51928,-6.01673 -3.78135,-6.24136 -4.66671,-4 -0.51591,1.30609 -3.9775,8.89971 -7.69241,16.87471 -11.94698,25.64727 -35.03466,77.9912 -46.31301,105 -9.03799,21.6437 -23.55671,57.518 -25.69914,63.5 -0.9849,2.75 -3.8878,10.4 -6.45089,17 -45.78882,117.9071 -83.28162,241.0633 -112.48795,369.5 -6.80149,29.91 -20.0099,98.7827 -24.45196,127.5 -0.85075,5.5 -2.67116,17.2 -4.04534,26 -11.34405,72.6449 -19.39685,163.6495 -21.70078,245.2404 -3.48078,123.2673 8.37673,250.0269 33.79339,361.2596 2.45067,10.725 5.16222,22.65 6.02568,26.5 2.93295,13.0775 4.28731,17.0324 7.48707,21.8631 8.4621,12.7755 29.1229,24.2425 63.88286,35.4559 29.49331,9.5144 53.75088,13.8702 92,16.5199 9.75616,0.6758 16.07684,0.6018 30,-0.3511 z m -91.5,-739.626 c -15.24475,-2.192 -30.79168,-8.6513 -41.5,-17.2421 -8.28346,-6.6454 -17.91599,-18.5571 -22.59273,-27.9384 -3.13937,-6.2974 -3.58115,-8.0199 -3.16576,-12.3429 0.8474,-8.8192 8.91364,-14.1461 17.13867,-11.3185 5.2166,1.7934 6.19062,2.8497 10.8042,11.7176 14.34678,27.5763 42.3505,37.5278 69.65225,24.7518 5.05458,-2.3654 8.59658,-5.1867 15.71973,-12.5213 l 9.19499,-9.468 h 5.24197 c 4.75583,0 5.60203,0.3601 9.12433,3.8824 3.46325,3.4632 3.88235,4.4163 3.88235,8.8285 0,3.8439 -0.68177,5.9755 -3.05918,9.5647 -5.91722,8.9334 -19.89644,20.1613 -31.4793,25.2838 -10.94203,4.8391 -29.76257,8.125 -38.96152,6.8024 z m 62.50833,-112.5432 c -6.59567,-1.8909 -13.45735,-8.1913 -16.13866,-14.8186 -3.9363,-9.7291 2.27687,-24.9731 12.25292,-30.0625 9.03185,-4.6077 18.82217,-3.379 26.42927,3.3171 6.35537,5.5942 8.74226,10.7122 8.74226,18.7454 0,16.6209 -14.92741,27.5084 -31.28579,22.8186 z m -108.96406,-13.396 c -9.91047,-4.2991 -15.465,-12.71 -15.46829,-23.4226 -0.006,-18.0232 18.18844,-29.4032 34.22925,-21.4098 22.99654,11.4597 15.40972,46.5591 -10.02311,46.3707 -2.90517,-0.022 -6.8372,-0.7138 -8.73785,-1.5383 z M 236.08361,1218.8768 c 5.16532,-4.8225 35.06896,-31.8201 51.79315,-46.7599 6.39278,-5.7107 16.34824,-14.7565 22.12324,-20.1017 5.775,-5.3451 15,-13.6838 20.5,-18.5304 5.5,-4.8466 12.86051,-11.4678 16.35668,-14.7139 l 6.35668,-5.902 -3.03301,-11.1845 c -7.28796,-26.8748 -10.14649,-48.9062 -10.14423,-78.1844 0.002,-27.95949 5.32947,-65.29503 10.38778,-72.80106 5.0781,-7.53539 16.07995,-9.93786 24.06904,-5.25595 4.78271,2.80286 6.77794,6.27508 12.09988,21.05701 4.60721,12.79672 11.07743,26.56782 17.58601,37.4298 5.36258,8.9493 17.00562,25.7689 20.81564,30.0702 1.21795,1.375 3.25865,3.8235 4.5349,5.4411 l 2.32045,2.941 8.32509,-7.4865 c 22.78068,-20.4862 51.68397,-46.43032 63.28447,-56.8053 7.12765,-6.37466 22.87765,-20.59393 35,-31.59837 C 550.58172,935.48749 565.225,922.24951 571,917.0742 c 5.775,-5.17531 13.11364,-11.86597 16.30808,-14.86813 l 5.80808,-5.45849 -1.59239,-3.97977 C 586.3659,879.87703 576.88186,838.87851 573.88101,816.5 c -2.59604,-19.35966 -0.81471,-57.97614 3.30931,-71.74091 1.57425,-5.25436 6.72476,-10.19541 12.23611,-11.73849 5.30341,-1.48487 9.00711,-0.7744 14.50837,2.78307 3.50536,2.2668 5.07726,4.52704 9.86739,14.18832 6.57233,13.25584 14.58861,25.58508 25.76225,39.62302 7.06582,8.87712 22.98635,25.38499 24.48179,25.38499 0.32345,0 1.40513,-3.4875 2.40374,-7.75 4.74362,-20.24771 16.5877,-46.22015 29.29962,-64.25 9.31645,-13.21392 28.18299,-31.80164 41.25041,-40.64081 27.08183,-18.31889 52.38593,-26.50269 82.86582,-26.8003 l 15.36582,-0.15004 7.88778,-9.45442 c 15.54991,-18.63838 31.59727,-42.64439 30.47012,-45.58169 -0.76398,-1.99089 -7.58508,-6.0183 -26.08954,-15.40414 -43.44911,-22.03826 -89.32707,-33.08348 -142.5,-34.30719 -29.59099,-0.68099 -50.51783,1.13721 -80,6.95071 -41.02527,8.08964 -70.86448,18.08025 -108.5,36.32738 -55.68267,26.99709 -109.86782,66.79686 -157.5265,115.70547 -26.94317,27.6498 -45.29764,50.79309 -66.10718,83.35503 -13.63319,21.33266 -19.16979,31.18393 -28.75457,51.16296 C 246.24991,901.3951 237.28024,926.69284 228.00399,966 c -10.49475,44.4704 -13.42427,70.9673 -13.43316,121.5 -0.007,37.3733 1.09252,52.8638 5.99101,84.4366 2.71749,17.5153 9.62993,51.0618 10.52177,51.0628 0.32099,3e-4 2.57099,-1.8549 5,-4.1226 z m 1379.09329,-65.9589 c 5.5677,-84.3918 -1.8612,-166.1849 -21.3312,-234.85827 -18.6966,-65.94597 -41.3446,-112.57226 -79.6301,-163.9381 -38.2787,-51.35668 -93.3721,-94.82759 -155.9741,-123.06981 -76.3132,-34.42791 -143.7222,-49.07058 -225.7415,-49.03586 -60.6543,0.0257 -112.3573,8.33546 -168.8474,27.1374 -19.40281,6.45796 -43.38247,15.60064 -44.14229,16.83006 -0.58406,0.94503 3.11982,11.94934 7.3965,21.9752 9.69054,22.71763 28.16128,46.8694 52.09319,68.11546 12.62687,11.20978 20.99812,17.73955 47.5,37.05111 13.2,9.61866 36.825,26.86425 52.5,38.32353 48.6626,35.57503 50.4523,36.8569 52.0354,37.27089 1.8965,0.49594 19.5588,-17.92624 27.8842,-29.08388 8.7958,-11.78807 17.329,-26.6841 23.5508,-41.11194 6.2276,-14.44093 7.3376,-16.02917 13.0296,-18.64296 5.2771,-2.42326 9.8983,-2.3504 15.2503,0.24042 7.8051,3.7784 10.4726,10.42614 15.4002,38.37885 1.9274,10.93369 2.2907,16.49682 2.2857,35 -0.01,25.43833 -1.4602,37.35519 -7.4899,61.41286 -2.1247,8.47707 -3.6895,15.6937 -3.4773,16.03695 0.2121,0.34325 4.1309,3.27758 8.7083,6.52073 11.7664,8.33648 23.7278,17.05185 43.3227,31.56592 9.35,6.9256 27.125,19.95642 39.5,28.95737 61.4312,44.68197 89.5719,65.50447 90.4528,66.92987 1.2517,2.0252 2.2935,1.0682 7.2642,-6.6737 13.4493,-20.94707 21.5421,-39.99599 32.607,-76.75 0.8279,-2.75 2.503,-10.175 3.7225,-16.5 2.7332,-14.17654 4.6355,-18.14329 10.2897,-21.45686 7.2725,-4.26199 16.374,-3.0037 21.9765,3.03824 5.9401,6.40614 15.1568,34.18565 19.28,58.1108 6.328,36.71842 3.2872,88.93272 -7.1276,122.38752 -0.3425,1.1002 2.0161,3.3641 7.7716,7.4595 8.1864,5.8251 46.534,33.8552 66.7633,48.8006 5.775,4.2666 15.675,11.4833 22,16.0372 6.325,4.5538 15.0555,10.8468 19.4011,13.9843 4.3455,3.1376 8.3955,5.5404 9,5.3396 0.6994,-0.2324 1.7086,-9.6059 2.7758,-25.783 z m -595.8958,-61.4077 c 34.0356,-5.9353 61.958,-27.8798 78.7904,-61.9221 9.9523,-20.1279 13.9152,-38.09047 13.9186,-63.0881 0,-21.83028 -3.7153,-39.95621 -12.1493,-59.22675 -7.4607,-17.04672 -14.2672,-27.04825 -27.6334,-40.60449 -15.7349,-15.95864 -32.5361,-25.34296 -55.2074,-30.83613 -8.9868,-2.17746 -33.74832,-1.61068 -43.31109,0.99138 -13.25282,3.60612 -12.93949,3.30728 -14.33856,13.67599 -4.66416,34.56692 -17.00416,64.21778 -37.90441,91.07771 -7.77518,9.99226 -18.05328,20.50823 -26.63884,27.25536 l -6.52405,5.12705 1.43107,9.26994 c 1.59721,10.34615 7.42059,28.86384 12.60733,40.08984 7.88137,17.0582 23.30464,35.9746 38.93355,47.7513 9.17512,6.9137 27.42516,16.1671 36.32849,18.4199 14.39155,3.6414 28.48221,4.3237 41.69761,2.0191 z m 48.0909,-130.09877 c -4.0775,-2.01145 -5.957,-5.8777 -8.3277,-17.13085 -5.1764,-24.57103 -20.1032,-46.42215 -38.2121,-55.93808 -8.2971,-4.36 -10.823,-7.73252 -10.8285,-14.45764 -0,-5.18705 2.3306,-8.97214 7.0349,-11.40484 4.4257,-2.2886 9.4079,-1.78601 16.2399,1.63824 25.9535,13.00811 43.7166,38.49934 52.1799,74.88174 2.7139,11.66675 1.6457,17.41315 -4.0733,21.9117 -3.1979,2.5155 -9.4731,2.73928 -14.0131,0.49973 z m -250.80566,5.53113 c 23.11085,-4.1186 43.93966,-15.00691 62.51127,-32.67791 18.0832,-17.20629 29.52947,-35.33672 37.76163,-59.81293 5.50496,-16.36758 7.5077,-28.74029 7.51902,-46.45172 0.023,-35.98489 -12.15719,-66.25925 -35.6429,-88.59188 -17.78854,-16.91518 -35.03533,-24.87592 -59.62788,-27.52291 -18.13014,-1.95141 -38.67297,2.37011 -58.71685,12.35206 -34.09692,16.98044 -61.22552,54.78181 -70.51942,98.26273 -1.99385,9.32813 -2.34807,13.81179 -2.33058,29.5 0.0215,19.26205 0.53564,23.07247 5.1275,38 10.44335,33.9499 33.47145,60.13319 63.35187,72.03198 13.27004,5.28431 36.05376,7.49688 50.56634,4.91058 z M 734.9844,824.17601 c -4.6522,-2.43531 -8.29886,-9.3562 -7.46942,-14.17601 3.33488,-19.3787 24.74607,-49.12664 44.95664,-62.46116 11.49766,-7.58592 28.25726,-13.57665 33.9704,-12.14275 4.71366,1.18306 9.61406,6.6031 10.24882,11.33564 1.09138,8.1368 -2.74196,12.69664 -13.21594,15.72064 -9.65356,2.78712 -17.42058,7.51762 -26.32972,16.03608 -10.22706,9.77859 -17.88169,21.01678 -21.1228,31.01155 -2.94084,9.06883 -5.08064,12.34979 -9.42639,14.45353 -5.20007,2.51731 -7.15614,2.55479 -11.61159,0.22248 z M 997,798.61682 c 14.3413,0.0102 21.3488,0.44041 26.4887,1.62642 6.039,1.39348 8.899,1.56229 7.428,0.43844 -0.2292,-0.17508 -7.6167,-5.43459 -16.4167,-11.6878 -45.09065,-32.04109 -70.87231,-54.03364 -88.81146,-75.75893 -10.12641,-12.26363 -23.69894,-32.91425 -28.74575,-43.73669 -2.23441,-4.7915 -4.21055,-8.55127 -4.39142,-8.35504 -0.18087,0.19623 -3.67456,4.85678 -7.76376,10.35678 -4.0892,5.5 -8.18927,10.6176 -9.11126,11.37244 -0.92199,0.75485 -1.67635,1.76233 -1.67635,2.23884 0,0.47652 3.4875,2.62554 7.75,4.7756 35.98217,18.14989 62.62506,53.2255 73.74217,97.08223 1.37931,5.44133 2.50783,11.19928 2.50783,12.79544 0,1.59617 0.24741,3.14953 0.5498,3.45191 0.30239,0.30239 4.68989,-0.61193 9.75,-2.03182 8.46691,-2.37585 10.75443,-2.58052 28.7002,-2.56782 z M 494.97445,584.48392 c 30.88764,-15.4065 49.41804,-22.7557 80.72527,-32.01584 68.21607,-20.17713 135.81245,-23.67842 200.66315,-10.39375 27.12863,5.55731 56.47425,15.34639 82.09712,27.38587 C 864.807,572.44249 870,574.52619 870,574.09065 870,572.83609 859.67611,549.26195 855.50852,541 842.85639,515.91805 818.00705,482.30798 794.76777,458.84488 730.22831,393.68379 641.14027,348.2464 540.3238,329.07135 475.25106,316.69467 416.29031,315.88238 358.19694,326.56223 c -68.71626,12.63274 -133.49331,43.21166 -190.37207,89.86781 -15.80874,12.9675 -54.04854,50.98102 -65.33887,64.95224 -20.692451,25.60589 -37.818753,48.9349 -48.309036,65.80533 l -6.023897,9.6876 5.173467,0.52421 C 60.24833,558.10079 82.20242,559.9912 159,566.49868 c 35.475,3.006 66.36161,5.71846 68.63692,6.0277 l 4.13692,0.56225 4.77039,-8.29431 c 17.17759,-29.86682 38.70996,-55.84295 64.73705,-78.0972 18.6821,-15.97398 30.60483,-23.72117 36.43548,-23.67516 3.86022,0.0305 10.26271,3.16855 13.46962,6.60194 5.18453,5.55067 6.1072,12.24296 2.87822,20.8761 -1.02856,2.75 -3.04911,8.15 -4.49011,12 C 342.26222,522.03658 335,558.8673 335,576.41527 c 0,5.40152 -2.181,4.8389 27.5,7.09406 31.21267,2.37154 91.99032,7.48792 100,8.41819 14.42156,1.67498 13.99889,1.77186 32.47445,-7.4436 z M 952.5,574.88002 c 57.3333,-19.42699 115.1341,-28.97152 177.2489,-29.26876 21.6995,-0.10385 23.249,-0.2315 23.25,-1.91542 0,-3.63171 -5.0188,-19.51317 -9.5515,-30.2112 -2.5597,-6.04155 -5.7869,-13.66234 -7.1715,-16.93509 C 1130.252,482.31052 1138.0796,468 1151.8919,468 c 8.0261,0 39.9118,14.10633 56.6081,25.04353 24.9555,16.34755 47.7424,39.2162 62.8682,63.09377 l 4.7976,7.57342 7.785,1.77803 c 7.628,1.74221 8.0142,1.73515 19.167,-0.35082 6.2602,-1.17086 27.1322,-5.065 46.3822,-8.65364 41.8486,-7.80153 111.8499,-21.52646 112.3705,-22.03213 0.6444,-0.62589 -7.8824,-26.44164 -13.0309,-39.45216 -5.6797,-14.35297 -20.0989,-42.83814 -27.6188,-54.56099 -5.7443,-8.95483 -7.1018,-14.20549 -5.1934,-20.08643 2.8311,-8.72411 9.0304,-13.35258 17.8842,-13.35258 4.0687,0 6.8024,0.94937 14.7898,5.13622 49.5412,25.96856 83.3313,54.08298 109.3173,90.95559 4.0343,5.7245 7.6647,10.79487 8.0675,11.26747 0.4028,0.4726 8.5357,-0.75494 18.0731,-2.72788 9.5374,-1.97293 34.8907,-6.93867 56.3407,-11.03498 65.4107,-12.49148 101.836,-19.59912 102.174,-19.93708 0.177,-0.17698 -3.7925,-5.46024 -8.8211,-11.74056 C 1686.6059,409.91076 1621.8675,358.2299 1555.2641,326.35075 1515.5022,307.319 1473.8513,294.06354 1427,285.53049 c -33.5242,-6.10578 -60.6098,-8.53272 -95,-8.51223 -48.7509,0.029 -87.5096,5.94815 -134.8749,20.59773 -42.4458,13.12802 -90.6068,38.69097 -124.9982,66.34665 -17.7681,14.28814 -20.6712,16.84352 -33.7054,29.66865 -35.2427,34.67745 -62.43184,72.29915 -85.30576,118.0378 -9.85793,19.7119 -19.44276,43.67104 -24.73539,61.83091 -2.8632,9.82408 -2.93509,10.95816 -0.63035,9.94369 0.9625,-0.42366 12.1,-4.27731 24.75,-8.56367 z m 264.9624,-27.99697 c -6.259,-6.45396 -21.7251,-18.91061 -28.2722,-22.77092 l -4.9881,-2.94105 2.8023,7.67834 c 1.5412,4.22308 3.1107,9.73514 3.4877,12.24902 0.3769,2.51387 1.0363,5.13846 1.4652,5.83241 0.437,0.70716 4.4637,1.68576 9.1612,2.22644 8.3432,0.96029 19.963,2.47432 20.8439,2.71591 0.2543,0.0697 -1.7707,-2.17583 -4.5,-4.99015 z M 889.06791,501.85807 C 887.22585,459.0965 881.69428,423.32289 870.0216,378.68244 858.99222,336.50217 836.83101,285.10445 812.19147,244.55904 779.94123,191.48991 737.604,146.01008 691,114.37182 622.88985,68.133577 545.04678,41.699668 460.5,36.09874 423.18542,33.62678 392.71046,34.05506 359.8188,37.513664 342.14262,39.37234 307.0756,45.133806 293,48.491908 c -19.25639,4.594116 -46.00075,11.999794 -45.74881,12.668127 0.13684,0.36302 21.9787,22.538886 48.53745,49.279705 l 48.28864,48.61967 4.71136,-2.11636 c 18.27199,-8.20781 39.98471,-14.466 64.21136,-18.50743 19.46753,-3.24753 64.74715,-2.82682 78.46375,0.72903 8.076,2.0936 14.42388,11.91256 12.89748,19.94994 -1.64152,8.64352 -5.01751,11.59164 -23.83279,20.81225 -16.36812,8.02135 -33.36977,18.67987 -45.74186,28.67606 -10.73075,8.67005 -19.90375,17.57357 -19.58,19.00479 0.16138,0.71343 12.30336,13.61634 26.98218,28.67315 l 26.68875,27.376 15.81125,1.23885 c 93.9349,7.36002 188.66843,39.3647 262.31124,88.61897 48.88703,32.69694 85.00223,67.06777 115.85529,110.25946 9.65111,13.51075 17.63663,26.28117 22.61231,36.16154 2.01342,3.99812 3.88325,7.04682 4.15518,6.77489 0.27193,-0.27192 0.0222,-11.45554 -0.55487,-24.85248 z M 940.48099,459.5 c 45.79433,-75.37594 106.38991,-131.81024 184.32181,-171.6638 15.3663,-7.85817 15.7685,-8.14662 19.0777,-13.6818 2.4754,-4.1404 20.1666,-34.59256 25.7223,-44.27623 0.5347,-0.93194 -9.2447,-7.17301 -18.6482,-11.90101 -11.6125,-5.83863 -23.5908,-10.22863 -36.4546,-13.36039 -17.2365,-4.19634 -17.8095,-4.40283 -21.2627,-7.66226 -5.9286,-5.59597 -7.62,-12.70946 -4.6896,-19.72298 2.9878,-7.15078 7.0361,-9.94111 23.9845,-16.53175 18.0582,-7.02216 33.2648,-10.86675 54.9678,-13.89711 9.8119,-1.37002 40.4136,-1.69988 47.2864,-0.50969 4.0754,0.70575 4.3707,0.5896 6,-2.35957 3.3856,-6.12846 48.6378,-83.678822 55.3488,-94.853298 3.7721,-6.280939 6.7102,-11.568055 6.5291,-11.749148 -0.1811,-0.181093 -7.4282,-0.820622 -16.1046,-1.421174 -25.8938,-1.792281 -61.1924,0.70919 -94.0597,6.665638 C 1083.0653,58.783417 1003.9201,107.20624 949.51922,179 924.66615,211.79904 901.5943,256.22831 888.99856,295.54415 l -4.179,13.04416 6.50611,17.55452 c 15.69863,42.35743 27.70885,94.69191 31.66541,137.9819 0.62208,6.8064 1.37029,14.81253 1.6627,17.79141 l 0.53165,5.41615 5.2176,-9.91615 C 933.27271,471.96226 937.80779,463.9 940.48099,459.5 Z" transform="translate(117.3847,50.9331) scale(0.234764)" style="fill:#000000;stroke:none" />
  </g>
</svg>